<svg id="Layer_1" enable-background="new 0 0 68 68" viewBox="0 0 68 68" xmlns="http://www.w3.org/2000/svg"><g><path d="m4.0087247 49.2100449h14.9899902v16.9199219h-14.9899902c-1.0700686 0-1.9399416-.8701172-1.9399416-1.9399414v-13.0400391c-.0000001-1.0698243.869873-1.9399414 1.9399416-1.9399414z" fill="#fbad3e"/><g><g fill="#3a3a3a"><path d="m6.7160001 16.3951035c.0227051.3330078.0976563.6601563.2167969.9682617.0075684.0195313-.0021973.0415039-.0217285.0493164-.0195313.0073242-.041748-.0024414-.0493164-.0219727-.0004883-.0009766-.0007324-.0019531-.0009766-.0029297-.0974121-.3227539-.147461-.6586914-.1447754-.9926757z"/><path d="m8.0507164 18.9214706c.4848633.4204102 1.060791.7319336 1.6706543.9018555.0852051.0239258.1350098.1123047.1113281.1972656-.0239258.0854492-.1120605.1352539-.1975098.1113281-.0026855-.0004882-.0061035-.0014648-.008789-.0024413-.6459961-.2207031-1.2341309-.5859375-1.7167964-1.0546875-.0415039-.0400391-.0424805-.105957-.0021973-.1474609.0385742-.0395509.1018062-.041504.1433101-.0058595z"/><path d="m11.591732 19.8985214c.6196289-.109375 1.2126465-.3422852 1.7585449-.6523438.1264648-.0717773.2871094-.027832.3591309.0986328.0717773.1264648.0275879.2875977-.098877.359375-.0014648.0009766-.0046387.0024414-.0061035.003418-.604248.3232422-1.2687988.5385742-1.9504395.6186523-.1184082.0136719-.2258301-.0708008-.2397461-.1894531-.0134276-.1142577.0659181-.2182616.1774903-.2382812z"/><path d="m14.8126793 18.067955c.1896973-.2514648.4128418-.4648438.5710449-.7495117l.5136719-.8095703.0131836-.0214844c.0981445-.1542969.3032227-.2001953.4580078-.1020508.154541.0976563.2004395.3027344.1022949.4575195-.001709.0029297-.0043945.0068359-.0063477.0097656l-.5700684.8334961c-.1726074.2856445-.4331055.5288086-.6494141.7910156-.1040039.1259766-.2905273.144043-.4165039.0400391-.1225586-.1010742-.1430664-.2797852-.048584-.4057617z"/><path d="m16.9835777 14.8086777c.4289551-.5439453.9328613-1.0185547 1.4658203-1.4394531.1730957-.137207.4248047-.1079102.5620117.0649414.1374512.1733398.1081543.4248047-.0649414.5625-.0031738.0024414-.0083008.0063477-.0117188.0087891-.5097656.3745117-.982666.7915039-1.3842773 1.2661133-.1303711.1542969-.3613281.1738281-.515625.043457-.1508788-.1279298-.1723632-.3520509-.0512695-.5063477z"/><path d="m20.1185875 12.2354355c.5668945-.3432617 1.1591797-.6503906 1.7380371-.9770508.2102051-.1186523.4768066-.0449219.595459.1655273.1188965.2099609.0446777.4765625-.1655273.5957031l-.0041504.0019531-.0268555.0146484c-.5668945.3125-1.1442871.6025391-1.7036133.9326172-.2026367.1196289-.463623.0527344-.583252-.1499023-.1188964-.2011718-.0493164-.4624023.1499024-.583496z"/><path d="m23.6969566 10.423912c.6352539-.2402344 1.2956543-.434082 1.9770508-.5527344.2502441-.043457.4882813.1240234.5319824.3740234.0437012.2504883-.1237793.4887695-.3740234.5322266-.0009766 0-.0046387.0009766-.0056152.0009766-.6142578.0991211-1.2216797.269043-1.8168945.4863281-.232666.0849609-.4902344-.034668-.5751953-.2675781-.0844727-.230957.033203-.4863281.2626952-.5732422z"/><path d="m27.747982 9.7652206c.6911621.0483398 1.3706055.1767578 2.0283203.3574219.2570801.0703125.4082031.3359375.3378906.5927734-.0705566.2573242-.3359375.4082031-.5927734.3378906-.0009766 0-.0048828-.0014648-.0058594-.0014648-.6052246-.1738281-1.220459-.2963867-1.838623-.347168-.2595215-.0209961-.4526367-.2485352-.4313965-.5078125.020752-.2573242.2453613-.449707.5024414-.4316406z"/><path d="m31.6925621 10.7959824 1.8139648.8549805c.2470703.1162109.3530273.4111328.2365723.6582031s-.4111328.3530273-.6584473.2368164l-.0004883-.0004883-.0258789-.012207-1.7526855-.8286133-.0344238-.0161133c-.2463379-.1166992-.3515625-.4106445-.2351074-.6572266.116455-.2460937.4101562-.3515625.6564941-.2353515z"/><path d="m35.2518883 12.5728378 1.7390137.8886719.015625.0078125c.2321777.1186523.3242188.4033203.2055664.6352539-.1179199.2304688-.3991699.3227539-.6303711.2080078l-1.7766113-.8823242c-.2392578-.1186523-.3369141-.4091797-.2180176-.6479492.1186523-.2392578.4089355-.3369141.6481934-.2182617.0007324.0004883.001709.0009766.0024414.0014648z"/><path d="m38.7572594 14.2613144 1.8105469.6542969.0419922.0151367c.2331543.0844727.3537598.3413086.2695313.574707-.0837402.230957-.3378906.3515625-.5695801.2709961l-1.8989258-.6611328c-.2399902-.0839844-.3669434-.3461914-.2832031-.5864258.0834961-.2402344.3459473-.3671875.5861816-.2832031.0009766 0 .001709.0004883.0026855.0004883z"/><path d="m42.426693 15.3653183 1.90625.2231445.0466309.0053711c.2336426.0273438.4008789.2387695.3735352.4726563-.0270996.2314453-.236084.3979492-.4677734.3740234l-2.0061035-.2114258c-.2402344-.0253906-.4143066-.2407227-.3891602-.480957.0253906-.2402344.2407227-.4145508.480957-.3891602.0007324 0 .001709 0 .0024414.0004883z"/><path d="m46.2587242 15.6285019 1.9394531-.1064453.0246582-.0014648c.2026367-.0112305.3757324.144043.3869629.3461914.0107422.1982422-.1379395.3681641-.3337402.3862305l-1.9885254.1791992c-.2211914.0195313-.4165039-.1435547-.4365234-.3642578-.0197754-.2211914.1433105-.4169922.3642578-.4365234.0041504-.0004883.0083008-.0009766.012207-.0009766z"/><path d="m50.1356773 15.2969589c.6496582-.090332 1.3208008-.190918 2.0170898-.1655273.1650391.0058594.2939453.144043.2878418.309082-.0056152.1616211-.140625.2880859-.3010254.2880859-.6201172-.0014648-1.2531738.1123047-1.8996582.2265625-.1811523.0317383-.354248-.0888672-.3862305-.2700195-.0322266-.1811523.0883789-.3540039.2697754-.3862305.0034181-.0009765.0087892-.0014648.0122071-.0019531z"/><path d="m54.1517906 15.7823105.7712402.6040039c.2497559.1796875.5239258.328125.8129883.4428711.1118164.0439453.166748.1704102.1230469.2817383-.0422363.1079102-.1623535.1625977-.2709961.1269531-.3278809-.1088867-.6445313-.2573242-.9394531-.4443359l-.8024902-.5795898-.012207-.0087891c-.1184082-.0854492-.1450195-.2509766-.0595703-.3696289.0854492-.1181641.2507324-.1450195.3693848-.0595703.0024413.0019531.0056151.0043945.0080565.0063476z"/><path d="m57.5836754 17.095787.9272461-.199707c.2990723-.1049805.5861816-.2490234.8530273-.4257813.0480957-.0317383.1132813-.0185547.1452637.0292969.0307617.046875.0192871.1088867-.0246582.1420898-.2695313.2016602-.5644531.371582-.8781738.5024414l-.9841309.2714844c-.0854492.0239258-.1738281-.0263672-.1975098-.1118164s.0266113-.1738281.1120605-.1972656c.0026855-.0009766.0056152-.0014648.0083008-.0019531z"/><path d="m60.6842613 15.0728378c.166748-.2856445.2998047-.5932617.3911133-.9145508-.0666504.3276367-.1762695.6474609-.3234863.9506836-.0092773.019043-.0322266.0268555-.0512695.0175781-.019043-.0087891-.0270996-.0317383-.0178223-.0512695.0004883-.0004882.0009765-.0014648.0014648-.0024414z"/></g><g><g fill="#fa990e"><path d="m13.4772844 49.2127075v4.1264267c0 .4759598-.5204325.751152-.9145241.4908447l-1.3681545-.9221458c-.2005854-.1336021-.4608927-.1336021-.6616592.0076218l-1.2862873.8920135c-.3866482.2679329-.9219656-.0072594-.9219656-.4832191v-4.1115417h5.1525907z"/><path d="m11.6184664 61.83778c-.5427599.2305374-1.0855198.3568764-1.6282797.4385643-.5427608.0893097-1.0855207.1190796-1.6210194.1190796-.5427604 0-1.0855207-.0373955-1.6282806-.1190796-.5427604-.0816879-1.0855203-.2080269-1.6282807-.4385643.5427604-.2305374 1.0855203-.349617 1.6282806-.4313049.5427599-.0893097 1.0855203-.1190796 1.6282806-.1263428.5354986 0 1.0782585.0370331 1.6210194.1263428.54276.0816879 1.0855199.2007675 1.6282798.4313049z"/><path d="m7.9825187 63.5404854c.3198466.0816841.6395125.2080269.9591784.4385643-.3196659.2305374-.6393318.349617-.9591784.4313049-.3196659.0893097-.6393318.1263428-.9589972.1263428-.3196659-.0072632-.6320705-.0370331-.9517365-.1263428-.3198471-.0816879-.639513-.2007675-.9591789-.4313049.3196659-.2305374.6393318-.3568802.9591789-.4385643.3196659-.0816879.6320705-.1190796.9517365-.1190796.3196654 0 .6393313.0297699.9589972.1190796z"/></g></g><g><g><path d="m40.3388023 49.2100449v16.9199219h-14.9902343c-1.0698242 0-1.9299316-.8701172-1.9299316-1.9399414v-13.0400391c0-1.0698242.8601074-1.9399414 1.9299316-1.9399414z" fill="#aec46e"/><g fill="#617f4d"><path d="m44.7587242 50.7598495v13.8203125c0 .8496094-.6899414 1.5498047-1.5500488 1.5498047h-2.869873v-16.9101562h2.869873c.8601074 0 1.5500488.6899414 1.5500488 1.540039z"/><path d="m34.821785 49.2127075v4.1264267c0 .4759598-.5204315.751152-.9145241.4908447l-1.3681526-.9221458c-.2005844-.1336021-.4608917-.1336021-.6616592.0076218l-1.2862873.8920135c-.3866482.2679329-.9219666-.0072594-.9219666-.4832191v-4.1115417h5.1525898z"/><path d="m32.9629707 61.83778c-.5427628.2305374-1.0855217.3568764-1.6282825.4385643-.5427589.0893097-1.0855198.1190796-1.6210194.1190796-.5427589 0-1.0855198-.0373955-1.6282806-.1190796-.5427589-.0816879-1.0855198-.2080269-1.6282806-.4385643.5427608-.2305374 1.0855217-.349617 1.6282806-.4313049.5427608-.0893097 1.0855217-.1190796 1.6282806-.1263428.5354996 0 1.0782604.0370331 1.6210194.1263428.5427608.0816879 1.0855198.2007675 1.6282825.4313049z"/><path d="m29.3270206 63.5404854c.3198471.0816841.639513.2080269.9591789.4385643-.3196659.2305374-.6393318.349617-.9591789.4313049-.3196659.0893097-.6393318.1263428-.9589977.1263428-.3196659-.0072632-.6320705-.0370331-.9517365-.1263428-.3198471-.0816879-.639513-.2007675-.9591789-.4313049.3196659-.2305374.6393318-.3568802.9591789-.4385643.3196659-.0816879.6320705-.1190796.9517365-.1190796s.6393318.0297699.9589977.1190796z"/></g></g></g><g><g><path d="m61.6786461 49.2100449v16.9199219h-14.9799805c-1.0700684 0-1.9399414-.8701172-1.9399414-1.9399414v-13.0400391c0-1.0698242.869873-1.9399414 1.9399414-1.9399414z" fill="#fbad3e"/><g fill="#fa990e"><path d="m66.1088257 50.7598495v13.8203125c0 .8496094-.7001953 1.5498047-1.550293 1.5498047h-2.8798866v-16.9101562h2.8798866c.8500977 0 1.550293.6899414 1.550293 1.540039z"/><path d="m23.4186363 50.7598495v13.8203125c0 .8496094-.6999512 1.5498047-1.5500488 1.5498047h-2.8798828v-16.9101562h2.8798828c.8500977 0 1.5500488.6899414 1.5500488 1.540039z"/><path d="m56.1662903 49.2127075v4.1264267c0 .4759598-.5204353.751152-.9145241.4908447l-1.3681564-.9221458c-.2005844-.1336021-.4608917-.1336021-.6616592.0076218l-1.2862854.8920135c-.3866501.2679329-.9219666-.0072594-.9219666-.4832191v-4.1115417h5.1525917z"/><path d="m54.3074722 61.83778c-.5427628.2305374-1.0855217.3568764-1.6282806.4385643-.5427628.0893097-1.0855217.1190796-1.6210213.1190796-.5427589 0-1.0855179-.0373955-1.6282806-.1190796-.5427589-.0816879-1.0855179-.2080269-1.6282806-.4385643.5427628-.2305374 1.0855217-.349617 1.6282806-.4313049.5427628-.0893097 1.0855217-.1190796 1.6282806-.1263428.5354996 0 1.0782585.0370331 1.6210213.1263428.5427589.0816879 1.0855179.2007675 1.6282806.4313049z"/><path d="m50.671524 63.5404854c.3198471.0816841.6395111.2080269.9591789.4385643-.3196678.2305374-.6393318.349617-.9591789.4313049-.3196678.0893097-.6393318.1263428-.9589996.1263428-.319664-.0072632-.6320686-.0370331-.9517365-.1263428-.3198471-.0816879-.6395111-.2007675-.9591789-.4313049.3196678-.2305374.6393318-.3568802.9591789-.4385643.3196678-.0816879.6320724-.1190796.9517365-.1190796.3196678 0 .6393318.0297699.9589996.1190796z"/></g></g></g><g><g><g><circle cx="10.457" cy="38.37" fill="#8a9bea" r="2.624"/><circle cx="20.094" cy="40.27" fill="#8a9bea" r="3.167"/><g fill="#d1dafe"><circle cx="10.457" cy="38.37" r="1.176"/><circle cx="20.094" cy="40.27" r="1.719"/></g></g><g><circle cx="57.506" cy="38.37" fill="#8a9bea" r="2.624"/><circle cx="47.869" cy="40.27" fill="#8a9bea" r="3.167"/><g fill="#d1dafe"><circle cx="57.506" cy="38.37" r="1.176"/><circle cx="47.869" cy="40.27" r="1.719"/></g></g></g><g fill="#4269c4"><path d="m30.4855747 39.455677-27.4778597-4.1738548c-.6420588-.0975266-1.1165371-.6495209-1.1165371-1.2989426v-.0000038c0-.7256165.5882285-1.3138428 1.3138452-1.3138428h27.2805519v6.786644z"/><path d="m37.4772987 39.455677 27.4778633-4.1738548c.6420593-.0975266 1.1165314-.6495209 1.1165314-1.2989426v-.0000038c0-.7256165-.5882263-1.3138428-1.3138428-1.3138428h-27.2805519z"/></g><g><path d="m36.5523262 24.0679321h-5.1459389c-.243906 0-.4323807-.2209148-.3896008-.4610367.5188332-2.9122124 1.4079113-5.8194313 2.5907917-8.7218952.132576-.3253059.6040115-.3197041.7318192.0075045 1.1847534 3.0331659 2.091114 5.953826 2.602562 8.7144384.0446091.2407952-.1447411.460989-.3896332.460989z" fill="#4269c4"/></g><g fill="#4269c4"><path d="m29.0250702 24.9229908v2.6616135c-5.2454376.069067-10.3336239-.8462353-15.2775507-2.6616135 5.3698301-.4808598 10.4968176-.5402699 15.2775507 0z"/><path d="m38.9378052 24.9229908v2.6616135c5.2454376.069067 10.333622-.8462353 15.2775497-2.6616135-5.3698311-.4808598-10.4968185-.5402699-15.2775497 0z"/></g><path d="m44.3411407 29.7431355c0 4.8872242-4.6381989 13.685236-10.3597031 13.685236s-10.3597031-8.7980118-10.3597031-13.685236 4.6381969-8.8491001 10.3597031-8.8491001 10.3597031 3.9618759 10.3597031 8.8491001z" fill="#8a9bea"/><g fill="#4269c4"><path d="m33.9786949 37.3940353c1.130127.0097656 2.25.1000977 3.380127.5-1.130127.3999023-2.25.4902344-3.380127.5-1.119873-.0200195-2.25-.1098633-3.369873-.5 1.119873-.3901367 2.25-.4799804 3.369873-.5z"/><ellipse cx="33.979" cy="40.454" rx="1.94" ry=".5"/><path d="m33.9786949 35.8339767c-1.4799805-.0200195-2.9699707-.1098633-4.4499512-.5 1.4799805-.3999023 2.9699707-.4897461 4.4499512-.5 1.4899902.0102539 2.9699707.1000977 4.4599609.5-1.4899902.3901368-2.9699706.4799805-4.4599609.5z"/></g><path d="m41.3388023 29.744133v.2700195c-.0500488.8398438-.7402344 1.5-1.5900879 1.5h-11.540039c-.8400879 0-1.5400391-.6601563-1.5800781-1.5 0-.0898438-.0100098-.1801758-.0100098-.2700195 0-3.2299805 3.3000488-5.8500977 7.3601074-5.8500977s7.3601074 2.6201172 7.3601074 5.8500977z" fill="#d1dafe"/><path d="m33.25 23.269h1.458v9.292h-1.458z" fill="#8a9bea"/></g><g><g><path d="m66.0716934 6.4733129c0 1.9381118-2.6752434 6.0041957-3.946846 7.8274236-.3192444.4577312-.993618.4577312-1.3128586 0-1.2716026-1.8232279-3.9468498-5.8893118-3.9468498-7.8274236 0-2.5423212 2.0609589-4.6032801 4.6032791-4.6032801 2.5423241.0000002 4.6032753 2.0609588 4.6032753 4.6032801z" fill="#b53016"/><circle cx="61.468" cy="6.473" fill="#912010" r="3.442"/><circle cx="61.468" cy="6.473" fill="#fff" r="2.481"/></g></g><g><g><path d="m11.2782574 9.0566463c0 1.9381113-2.6752472 6.0041962-3.9468503 7.8274231-.3192425.4577312-.9936175.4577312-1.31286 0-1.2716026-1.8232269-3.9468498-5.8893118-3.9468498-7.8274231 0-2.5423212 2.0609584-4.6032801 4.6032801-4.6032801s4.60328 2.0609589 4.60328 4.6032801z" fill="#b53016"/><circle cx="6.675" cy="9.057" fill="#912010" r="3.442"/><circle cx="6.675" cy="9.057" fill="#fff" r="2.481"/></g></g></g></g></svg>