<svg id="Layer_1" enable-background="new 0 0 512 512" viewBox="0 0 512 512" xmlns="http://www.w3.org/2000/svg"><g clip-rule="evenodd" fill-rule="evenodd"><path d="m137.204 190.306c0-7.84-6.387-14.227-14.227-14.227-7.842 0-14.227 6.385-14.227 14.227 0 7.844 6.382 14.227 14.227 14.227 7.842 0 14.227-6.384 14.227-14.227zm292.542-110.977v-17.152h53.674c4.733 0 8.581 3.842 8.581 8.576v310.268c0 4.729-3.853 8.571-8.581 8.571h-235.3c-4.727 0-8.581-3.842-8.581-8.571v-310.268c0-4.734 3.848-8.576 8.581-8.576h53.678v17.152h-41.101c-2.212 0-4.002 1.79-4.002 4.002v285.107c0 2.21 1.792 4.002 4.002 4.002h210.139c2.21 0 4.002-1.792 4.002-4.002v-285.107c0-2.212-1.79-4.002-4.002-4.002zm-294.233 301.713-1.311 4.043c-.437 1.442-1.665 2.357-3.201 2.357h-16.051c-1.513 0-2.726-.891-3.192-2.328l-1.32-4.07 12.535-9.944zm-3.726 14.399 11.388 54.598-20.136 17.115-20.266-17.128 11.389-54.585zm-55.399-181.285-17.154-27.836 45.968-16.687c11.616-4.217 23.929-4.217 35.546 0l45.968 16.687-17.154 27.836zm90.658 7.999-2.33 13.478-21.245 10.116c-11.947 5.689-29.043 5.688-40.99 0l-21.251-10.117-2.323-13.478h88.139z" fill="#a4d4ff"/><path d="m358.898 138.941c0-3.868 3.129-7.002 7.002-7.002h73.058c3.868 0 7.002 3.134 7.002 7.002s-3.134 6.997-7.002 6.997h-73.058c-3.873 0-7.002-3.129-7.002-6.997zm0 86.944c0-3.868 3.129-7.002 7.002-7.002h73.058c3.868 0 7.002 3.134 7.002 7.002 0 3.863-3.134 6.997-7.002 6.997h-73.058c-3.873 0-7.002-3.134-7.002-6.997zm0 86.943c0-3.868 3.129-6.997 7.002-6.997h73.058c3.868 0 7.002 3.129 7.002 6.997 0 3.863-3.134 7.002-7.002 7.002h-73.058c-3.873 0-7.002-3.138-7.002-7.002zm-.207-269.969c0-3.901 3.176-7.082 7.077-7.082s7.082 3.181 7.082 7.082c0 3.896-3.181 7.077-7.082 7.077s-7.077-3.181-7.077-7.077zm-59.115 82.069h28.031v28.026h-28.031zm-6.998 42.025h42.03c3.859 0 6.997-3.134 6.997-7.002v-42.025c0-3.863-3.138-6.997-6.997-6.997h-42.03c-3.863 0-6.997 3.134-6.997 6.997v42.025c0 3.868 3.134 7.002 6.997 7.002zm6.998 131.867h28.031v28.021h-28.031zm-6.998 42.021h42.03c3.859 0 6.997-3.129 6.997-7.002v-42.02c0-3.868-3.138-7.002-6.997-7.002h-42.03c-3.863 0-6.997 3.134-6.997 7.002v42.02c0 3.872 3.134 7.002 6.997 7.002zm6.998-128.969h28.031v28.026h-28.031zm-6.998 42.024h42.03c3.859 0 6.997-3.134 6.997-7.001v-42.021c0-3.868-3.138-7.002-6.997-7.002h-42.03c-3.863 0-6.997 3.134-6.997 7.002v42.021c0 3.868 3.134 7.001 6.997 7.001zm196.423 127.125v-310.268c0-3.078-2.503-5.576-5.581-5.576h-50.674v11.152h38.091c3.868 0 7.002 3.134 7.002 7.002v285.107c0 3.863-3.134 7.002-7.002 7.002h-210.139c-3.868 0-7.002-3.138-7.002-7.002v-285.107c0-3.868 3.134-7.002 7.002-7.002h38.101v-11.152h-50.679c-3.077 0-5.581 2.498-5.581 5.576v310.268c0 3.068 2.503 5.571 5.581 5.571h235.3c3.077 0 5.581-2.503 5.581-5.571zm-150.092-331.165h-26.111v26.473h105.949v-26.473h-26.12c-3.859 0-6.997-3.134-6.997-6.997 0-10.954-8.912-19.862-19.862-19.862s-19.857 8.908-19.857 19.862c0 3.863-3.134 6.997-7.002 6.997zm124.932 40.477h-196.146v271.109h196.145v-271.109zm19.579-39.16h-50.674v-8.315c0-3.868-3.129-7.002-6.997-7.002h-26.84c-3.242-15.326-16.869-26.859-33.141-26.859s-29.899 11.533-33.132 26.859h-26.84c-3.868 0-6.997 3.134-6.997 7.002v8.315h-50.679c-10.794 0-19.579 8.785-19.579 19.58v310.268c0 10.79 8.785 19.57 19.579 19.57h235.3c10.799 0 19.579-8.78 19.579-19.57v-310.268c.001-10.794-8.78-19.58-19.579-19.58zm-360.443 135.91c1.779 0 3.228 1.445 3.228 3.223s-1.449 3.228-3.228 3.228c-1.783 0-3.228-1.449-3.228-3.228 0-1.778 1.445-3.223 3.228-3.223zm0 20.45c9.496 0 17.227-7.726 17.227-17.227 0-9.496-7.731-17.227-17.227-17.227-9.5 0-17.227 7.731-17.227 17.227.001 9.501 7.727 17.227 17.227 17.227zm-16.751-35.079-42.505 15.429 14.343 23.273h89.824l14.342-23.273-42.505-15.429c-10.96-3.981-22.545-3.981-33.499 0zm16.751 137.297c-23.32 0-42.298-18.982-42.298-42.302 0-6.272 1.379-12.39 4.009-17.985l13.063 6.216c7.543 3.595 16.384 5.388 25.222 5.388 8.841 0 17.683-1.793 25.226-5.388l13.067-6.221c2.635 5.595 4.014 11.712 4.014 17.989 0 23.321-18.977 42.303-42.303 42.303zm19.203-66.71c-11.128 5.298-27.283 5.303-38.411 0l-19.848-9.449-1.454-8.437h81.015l-1.459 8.437zm-74.69-22.365 3.256 18.869c.212 1.257.772 2.4 1.576 3.341-3.703 7.618-5.642 15.985-5.642 24.563 0 31.042 25.254 56.301 56.297 56.301 31.047 0 56.302-25.259 56.302-56.301 0-8.583-1.943-16.949-5.647-24.568.8-.941 1.36-2.085 1.576-3.336l3.251-18.869 17.853-28.962c1.656-2.682 2.014-5.905.993-8.846-1.115-3.2-3.741-5.759-7.2-7.016l-45.601-16.559c-14.084-5.115-28.972-5.115-43.056 0l-45.606 16.559c-3.458 1.257-6.08 3.816-7.195 7.016-1.026 2.941-.668 6.164.988 8.846zm55.487 268.323c-56.998 0-99.978-16.041-99.978-37.31 0-36.369 19.65-68.917 49.662-86.417l14.446 27.508c.965 1.84 2.71 3.158 4.748 3.59 2.038.428 4.164-.071 5.797-1.36l4.828-3.83c.306.541.64 1.059 1.012 1.548l-11.971 57.393c-.522 2.517.367 5.12 2.334 6.776l24.671 20.841c1.308 1.101 2.913 1.651 4.517 1.651 1.614 0 3.228-.551 4.536-1.661l24.53-20.85c1.958-1.661 2.847-4.249 2.32-6.757l-11.966-57.393c.367-.49.701-1.007 1.007-1.548l4.828 3.83c1.633 1.299 3.76 1.788 5.797 1.36 2.037-.433 3.779-1.75 4.748-3.59l14.446-27.508c30.017 17.5 49.662 50.048 49.662 86.417 0 21.268-42.98 37.31-99.974 37.31zm-22.379-134.757c-5.313 1.209-10.446 2.838-15.373 4.837l10.348 19.711 16.766-13.288zm31.419 27.857-9.044-7.171-9.039 7.171.678 2.089c.066.202.132.254.339.254h16.049c.212 0 .277-.052.339-.254zm-15.416 16.342-10.526 50.448 16.959 14.333 16.841-14.314-10.526-50.467zm28.751-44.213-11.745 11.275 16.77 13.288 10.348-19.711c-4.927-2.001-10.06-3.629-15.373-4.852zm-.866-14.479c53.577 10.239 92.464 57.313 92.464 111.94 0 35.442-57.243 51.314-113.973 51.314-28.831 0-55.807-4.094-75.966-11.509-31.418-11.572-38.011-28.032-38.011-39.805 0-54.617 38.886-101.7 92.463-111.94 2.231-.419 4.522.259 6.16 1.83l15.349 14.724 15.354-14.733c1.638-1.572 3.93-2.24 6.16-1.821z" fill="#1f4571"/></g></svg>