<svg id="Layer_1" enable-background="new 0 0 512 512" height="512" viewBox="0 0 512 512" width="512" xmlns="http://www.w3.org/2000/svg"><g><path d="m11.485 274.783h489.03l.375-.622c.068-2.38.112-4.766.112-7.163 0-135.311-109.691-245.002-245.002-245.002s-245.002 109.691-245.002 245.002c0 2.397.044 4.783.112 7.163z" fill="#27a6ff"/><path d="m134.319 478.629.965 1.602c35.632 20.215 76.822 31.769 120.716 31.769s85.084-11.554 120.716-31.77l.965-1.602h-243.362z" fill="#9957bc"/><path d="m113.742 234.319-10.642 18.596c-5.574 9.741 1.459 21.868 12.681 21.868 5.24 0 10.078-2.806 12.681-7.354l18.948-33.111h-33.668z" fill="#1d2e79"/><path d="m408.901 252.915-10.642-18.596h-33.669l18.948 33.111c2.603 4.548 7.441 7.354 12.681 7.354 11.223-.001 18.256-12.128 12.682-21.869z" fill="#2a428c"/><g fill="#f9f2f2"><path d="m171.332 303.784c.241.186 1.155.912 2.412 2.113h324.172c1.656-10.376 2.665-20.968 2.974-31.736-1.785-.289-3.614-.445-5.479-.445h-325.754c-3.137 2.504-9.532 8.517-9.295 15.798.173 5.355 3.864 10.156 10.97 14.27z"/><path d="m152.743 448.413c.903.972 1.859 1.93 2.877 2.873-2.869 2.235-8.615 7.573-8.748 14.563-.096 5.095 2.801 9.925 8.601 14.381h221.243c15.826-8.979 30.554-19.669 43.932-31.817z"/></g><g fill="#efe1de"><path d="m175.886 305.897c-2.139-2.186-3.721-3.364-3.721-3.364-23.198-13.364 0-28.817 0-28.817h-155.576c-1.865 0-3.694.156-5.479.445.309 10.768 1.318 21.36 2.974 31.736z"/><path d="m158.008 451.413c-1.146-.996-2.201-1.996-3.187-3h-63.47c13.379 12.149 28.106 22.838 43.932 31.817h22.725c-21.687-15 0-28.817 0-28.817z"/></g><path d="m421.243 0h-167.971c-2.753 2.004-7.384 6.172-7.522 11.626-.107 4.226 2.476 8.236 7.682 11.94-5.253 4.23-20.679 18.129-20.114 35.04.358 10.742 7.132 20.514 20.139 29.065-3.876 3.381-13.166 12.677-12.731 23.807.299 7.683 5.167 14.59 14.468 20.53 7.552 4.823 11.883 10.961 12.874 18.243 2.141 15.729-11.783 32.185-13.086 33.683-1.23.919-9.21 7.198-9.084 15.426.07 4.589 2.624 8.82 7.597 12.6-2.557 2.172-7.129 6.87-7.003 12.602.087 3.969 2.381 7.603 6.82 10.824h167.933c12.374 0 22.405-10.031 22.405-22.405v-190.576c-.002-12.374-10.033-22.405-22.407-22.405z" fill="#5071b7"/><path d="m256.001 0h-165.244c-12.374 0-22.405 10.031-22.405 22.405v190.576c0 12.374 10.031 22.405 22.405 22.405h165.243c-18.029-11.178 0-23.48 0-23.48-19.362-12.991 0-26.859 0-26.859s31.029-34.483 0-54.302 0-43.226 0-43.226c-47.695-29.712 0-64.038 0-64.038-19.695-12.417.001-23.481.001-23.481z" fill="#2a428b"/><path d="m253.315 23.48c.04.029.076.057.116.086-5.253 4.23-20.679 18.129-20.114 35.04.358 10.742 7.132 20.514 20.139 29.065-3.876 3.381-13.166 12.677-12.731 23.807.299 7.683 5.167 14.59 14.468 20.53 7.552 4.823 11.883 10.961 12.874 18.243 2.141 15.729-11.783 32.185-13.086 33.683-.461.344-1.869 1.441-3.443 3.11 22.676 1.285 45.809-7.223 62.426-25.546l9.55-10.529c24.905-27.462 65.569-32.942 96.654-13.982v-113.507z" fill="#fcfbe8"/><path d="m256.001 23.48h-164.168v113.506c31.085-18.959 71.748-13.479 96.653 13.983l9.55 10.53c14.938 16.471 35.143 24.996 55.547 25.621 1.365-1.315 2.417-2.074 2.417-2.074s31.029-34.483 0-54.302 0-43.226 0-43.226c-47.695-29.711.001-64.038.001-64.038z" fill="#fef156"/><path d="m169.321 302.533c.64.423 1.304.841 2.011 1.251.988.764 13.267 10.552 14.353 25.41.765 10.47-4.141 21.071-14.58 31.511l-.186.186-1.413 3.01h73.687v-61.367h-73.872z" fill="#b7a6a3"/><path d="m13.694 303.399c3.154 21.174 9.021 41.46 17.23 60.501h140.239l1.003-2.134c33.967-33.967 0-59.233 0-59.233h-155.577c-1.068 0-2.06.323-2.895.866z" fill="#ccbeba"/><path d="m268.808 302.533v61.367h212.268c8.209-19.041 14.076-39.327 17.23-60.501-.836-.543-1.827-.866-2.896-.866z" fill="#ccbeba"/><path d="m241.591 302.533h28.817v61.367h-28.817z" fill="#efe1de"/><path d="m170.564 361.766v15.987c0 6.923-5.632 12.555-12.555 12.555h-.905l-.343.73c-1.846 1.891-15.038 16.048-14.466 33.689.316 9.736 4.798 18.664 13.325 26.56-.05.039-.107.086-.159.127h102.673v-89.647h-87.57z" fill="#ffd301"/><g><path d="m158.008 391.909.77-1.64c-.256.016-.51.039-.77.039h-48.764c-6.923 0-12.556-5.632-12.556-12.555v-15.987h-66.681c14.55 34.657 36.842 65.256 64.708 89.647h63.293c-32.02-27.817 0-59.504 0-59.504z" fill="#ffc242"/></g><path d="m415.311 361.766v15.987c0 6.923-5.631 12.555-12.554 12.555h-48.765c-6.923 0-12.556-5.632-12.556-12.555v-15.987h-85.436v89.647h161.285c27.866-24.391 50.158-54.99 64.708-89.647z" fill="#fef156"/><path d="m339.835 361.766v15.987c0 7.818 6.338 14.156 14.156 14.156h48.764c7.818 0 14.156-6.338 14.156-14.156v-15.987z" fill="#fcfbe8"/><path d="m95.088 361.766v15.987c0 7.818 6.338 14.156 14.156 14.156h48.764c7.818 0 14.156-6.338 14.156-14.156v-15.987z" fill="#fef156"/><path d="m256 23.48c-.885 0-1.767.012-2.648.027.027.019.052.039.08.059-5.253 4.23-20.679 18.129-20.114 35.04.358 10.742 7.132 20.514 20.139 29.065-3.876 3.381-13.166 12.677-12.731 23.807.299 7.683 5.167 14.59 14.468 20.53 7.552 4.823 11.883 10.961 12.874 18.243 2.141 15.729-11.783 32.185-13.086 33.683-.461.344-1.869 1.441-3.443 3.11 22.676 1.285 45.809-7.223 62.426-25.546l9.55-10.529c19.644-21.66 49.088-29.633 75.906-22.737-19.426-60.687-76.371-104.752-143.421-104.752z" fill="#fef156"/><path d="m256.001 23.48c-67.052 0-123.996 44.064-143.42 104.752 26.818-6.896 56.263 1.077 75.907 22.737l9.55 10.53c14.938 16.471 35.143 24.996 55.547 25.621 1.365-1.315 2.417-2.074 2.417-2.074s31.029-34.483 0-54.302 0-43.226 0-43.226c-47.696-29.711-.002-64.037-.001-64.038z" fill="#ffd301"/><path d="m256 87.519c-.902 0-1.798.024-2.693.051.051.034.098.068.149.102-3.876 3.381-13.166 12.677-12.731 23.807.299 7.683 5.167 14.59 14.468 20.53 7.552 4.823 11.883 10.961 12.874 18.243 2.141 15.729-11.783 32.185-13.086 33.683-.461.344-1.869 1.441-3.443 3.11 22.676 1.285 45.809-7.223 62.426-25.546l9.55-10.529c3.708-4.089 7.773-7.68 12.097-10.786-13.201-30.93-43.914-52.665-79.611-52.665z" fill="#ffd301"/><path d="m256.001 87.519c-35.698 0-66.41 21.735-79.611 52.665 4.324 3.106 8.389 6.696 12.097 10.786l9.55 10.53c14.938 16.471 35.143 24.996 55.547 25.621 1.365-1.315 2.417-2.074 2.417-2.074s31.029-34.483 0-54.302c-31.028-19.818-.002-43.225 0-43.226z" fill="#ffc242"/><path d="m256 130.745c-23.907 0-43.286 19.38-43.286 43.287 0 .029.002.058.002.087 26.12 17.385 60.449 17.385 86.569 0 0-.029.002-.058.002-.087-.001-23.907-19.38-43.287-43.287-43.287z" fill="#fea53d"/><path d="m323.513 148.835-9.55 10.53c-16.094 17.746-38.299 26.271-60.282 25.624-2.629 2.279-7.888 7.681-7.785 14.372.07 4.567 2.602 8.78 7.528 12.546h166.743v-77.053c-31.085-18.962-71.748-13.481-96.654 13.981z" fill="#94dc79"/><path d="m256.001 185.047c-21.218 0-42.436-8.561-57.964-25.682l-9.55-10.53c-24.905-27.461-65.569-32.942-96.653-13.982v77.054h164.167c-19.362-12.992 0-26.86 0-26.86z" fill="#47cb8f"/></g></svg>