<svg id="Layer_1" enable-background="new 0 0 70 70" viewBox="0 0 70 70" xmlns="http://www.w3.org/2000/svg"><g><g><g><g enable-background="new"><g><g><path d="m48.9447365 45.8449898-29.2865868 17.0220718c-.5152893.2892838-1.211319.2440948-1.9797287-.1988487-.7772388-.4429474-1.46422-1.2023201-1.9704618-2.0791626-.5060225-.8768997-.8134308-1.8532219-.8134308-2.7391129l.1083546-34.8306656 29.2958536-17.0221281-.1085739 34.8216743c-.0090485.8949394.2983589 1.8622131.8136482 2.7390556.5060234.8768997 1.1930046 1.636219 1.9704628 2.0882111.7684097.4429465 1.4644394.4791404 1.9704628.1989051z" fill="#fff"/></g></g><g><g><path d="m48.9415436 45.8470993-29.2798214 17.0217171c-.5178967.2888184-1.2152309.2390289-1.9821053-.1992149-.7766018-.4482117-1.4637241-1.2051849-1.9718943-2.0816727-.5076838-.8764877-.8164759-1.8525505-.8164759-2.739006l.0598135-17.9778404c8.6644163-.4482155 15.5162001-6.2349892 15.5162001-13.2966156 0-3.7649212-1.9519558-7.1712341-5.0889931-9.581543l18.9223958-10.9959121-.1096573 34.820282c-.0099678.8963661.2988243 1.8625221.8167191 2.7390099.4979591.8764877 1.1850815 1.6334572 1.9619255 2.0915794.776844.4382452 1.4739341.4781241 1.9718933.1992163z" fill="#e9ecff"/></g></g><g><g><path d="m44.2987366 5.9971437-29.2958536 17.0221282c.0090475-.8497524-.5874529-1.8893623-1.3377686-2.3142109-.3705235-.2170029-.7048559-.2350464-.9489288-.0904312l29.2956323-17.0311211c.244072-.1356204.5784073-.117523.9491501.0994256.7500954.4248485 1.346817 1.464458 1.3377686 2.3142094z" fill="#fff"/></g></g></g></g><g><g enable-background="new"><g><g><path d="m18.9286938 63.5499306c-.4726563 0-.9824219-.1503906-1.5-.4487305-.8144531-.4638672-1.5800781-1.2680664-2.1542969-2.262207-.5673828-.984375-.8798828-2.0458984-.8798828-2.9892578l.1083984-34.8320313c.0009766-.1777344.0957031-.3417969.2490234-.4306641l29.2958966-17.0219707c.1533203-.090332.3457031-.090332.5009766-.0009766.1552734.0898438.2509766.2553711.25.4345703l-.1083984 34.8217773c-.0087891.7724609.2558594 1.652832.7441406 2.4838867.4873047.8432617 1.1220703 1.5205078 1.7910156 1.909668.5771484.3325195 1.1035156.4013672 1.4765625.1933594.2382813-.1323242.5419922-.0478516.6767578.190918.1357422.2382813.0537109.5410156-.1835938.6787109l-29.2861309 17.0219708c-.2978515.1679688-.6289062.2509766-.9804687.2509766zm-3.4267578-40.2426739-.1074219 34.5439453c0 .769043.265625 1.6533203.7470703 2.487793.4853516.8427734 1.1201172 1.515625 1.7841797 1.8945313.5869141.3383789 1.1142578.4077148 1.4873047.1972656l27.7548809-16.1318379c-.1464844-.0610352-.2949219-.1342773-.4433594-.2197266-.8193359-.4765625-1.5830078-1.2827148-2.1542969-2.2714844-.5771484-.9819336-.890625-2.0463867-.8798828-2.9941406l.1054688-33.9458008z" fill="#2043dd"/></g></g><g><g><path d="m15.0029125 23.5191708c-.0869141 0-.1738281-.0224609-.2519531-.0678711-.1552734-.090332-.25-.2573242-.2480469-.4375.0068359-.6669922-.5-1.5424805-1.0839844-1.8735352-.1904297-.1113281-.359375-.1459961-.4453125-.097168l-.0068359.003418c-.2363281.1367188-.5419922.0595703-.6826172-.1791992-.1386719-.2373047-.0595703-.5429688.1767578-.6831055.0048828-.0029297.0087891-.0053711.0136719-.0078125l29.2861309-17.0249023c.4189453-.2348633.9462891-.1962891 1.4521484.0996094.8974609.5083008 1.5966797 1.7182617 1.5859375 2.7514648-.0019531.1762695-.0966797.3383789-.2490234.4267578l-29.2958965 17.0219727c-.0771485.0454101-.1640625.0678711-.2509766.0678711zm-.9033203-3.1308594c.5878906.4067383 1.0693359 1.1088867 1.2832031 1.8320313l28.3935528-16.4980469c-.1035156-.6162109-.5537109-1.3164063-1.0615234-1.6044922-.1943359-.1132813-.3691406-.1489258-.4599609-.097168zm30.1992169-14.3911133h.0097656z" fill="#2043dd"/></g></g></g></g><g><g><path d="m52.4610672 42.2832718-.0090485 3.3085747c0 1.7356453-.6236458 2.9560623-1.6089859 3.5255814l-29.2956314 17.022068c.9851189-.560463 1.6087646-1.7898788 1.6087646-3.5164719l.0090466-3.3176804c.0090485-.8497505-.5874519-1.8802567-1.3377686-2.314209-.3705235-.2169495-.7050743-.2350464-.9491482-.0903778l29.2958527-17.0311737c.244072-.1355667.5784073-.1175232.9489288.0994797.7412683.4248505 1.3379899 1.4644585 1.3379899 2.314209z" fill="#fff"/></g></g><g><g><path d="m21.5478344 66.6392899c-.1728516 0-.3408203-.0898438-.4335938-.2509766-.1367188-.2382813-.0556641-.5429688.1826172-.6811523l.0371094-.0219727c.8408203-.4995117 1.3222656-1.612793 1.3222656-3.0620155l.0087891-3.3193359c.0068359-.6757813-.4912109-1.5351563-1.0878906-1.8793945-.1845703-.1083984-.3505859-.1445313-.4414063-.0952148l-.0068359.003418c-.2373047.137207-.5410156.0595703-.6826172-.1791992-.1386719-.2373047-.0595703-.5429688.1767578-.6831055.0048828-.0029297.0087891-.0053711.0136719-.0078125l29.2861309-17.0249023c.4208984-.2338867.9472656-.1962891 1.453125.0996094.8867188.5087891 1.5849609 1.7158203 1.5849609 2.7460938v.0014648l-.0087891 3.3085938c0 1.8583984-.6601563 3.2641602-1.859375 3.9570313l-29.2519512 16.9970738c-.015625.0087891-.0302734.0175781-.0458984.0263672-.078125.0444336-.1630859.0654297-.2470703.0654297zm.7128906-9.9643593c.8085938.5668945 1.4140625 1.6821289 1.4042969 2.6357422l-.0087891 3.3139648c0 .6850586-.0947266 1.3149414-.2744141 1.8706093l27.209959-15.8100624c.8779297-.5073242 1.3603516-1.6054688 1.3603516-3.0932617l.0087891-3.3095703c-.0009766-.6699219-.5078125-1.5483398-1.0869141-1.8798828-.1894531-.1118164-.3662109-.1469727-.4570313-.0957031zm30.2001934-14.3916016h.0097656z" fill="#2043dd"/></g></g><g><g><path d="m13.6693878 20.7045898c.7430391.4290314 1.3394852 1.4676476 1.33708 2.3159943l-.1129656 34.8258247c-.0025311.892704.3039818 1.8638802.8137026 2.7413483.5050087.8747444 1.1940174 1.6335793 1.9708252 2.0821075.771965.4457359 1.4630184.4837494 1.9760399.1968155.5083084-.2896538.8193169-.904274.8218479-1.7969818l.0093842-3.3102188c.0024204-.8538933.6074905-1.1931992 1.3456879-.766964.7430382.4290314 1.3395004 1.4621048 1.33708 2.3159981l-.0093842 3.3102188c-.0049038 1.7299614-.6270504 2.9591331-1.6145191 3.521946-.9923267.565567-2.3695412.4757004-3.8748589-.3934708-1.510294-.8720474-2.8833847-2.3702087-3.8644247-4.0751953-.985898-1.7022438-1.5990534-3.6446724-1.5941496-5.3746376l.1129656-34.8258209c.0024052-.8483486.6074924-1.1931992 1.3456888-.766964z" fill="#a5b2ff"/></g></g><g><g><path d="m20.126936 67.0011063c-.8408203 0-1.7626953-.2753906-2.7080078-.8208008-1.5419922-.890625-2.9794922-2.4033241-4.0478516-4.2587929-1.0751953-1.8579102-1.6650391-3.855957-1.6601563-5.6254883l.1123047-34.8261719c.0019531-.5864258.2373047-1.0571289.6464844-1.2919922.4091797-.2363281.9394531-.2006836 1.4492188.09375.8925781.515625 1.5898438 1.7231445 1.5878906 2.75l-.1132813 34.8261719c-.0029297.7724609.2626953 1.65625.7460938 2.4887695.484375.8393555 1.1191406 1.5136719 1.7880859 1.9003906.5791016.3344727 1.1044922.402832 1.4833984.1933594.3603516-.206543.5625-.690918.5644531-1.3618164l.0097656-3.3105469c.0009766-.5869141.2363281-1.0585938.6435547-1.293457.4082031-.2363281.9384766-.2011719 1.4521484.0947266.8935547.5161133 1.5908203 1.7246094 1.5869141 2.7514648l-.0087891 3.3095703c-.0058594 1.8403358-.6865234 3.2817421-1.8671875 3.9550819-.4999999.2846681-1.0615233.4257814-1.6650389.4257814zm-7.0556641-45.9790059c-.0439453 0-.0791016.0087891-.1035156.0229492-.0888672.0507813-.1435547.2148438-.1445313.4282227l-.1123047 34.8256817c-.0048828 1.5717773.5517578 3.4389648 1.5263672 5.1225586.9677734 1.6816406 2.3095703 3.1001015 3.6816406 3.8925819 1.3037109.7524414 2.5039063.8911133 3.3769531.3920898.8613281-.4907227 1.3583984-1.6166992 1.3632813-3.088871l.0087891-3.3100586c.0019531-.6787109-.4951172-1.5405273-1.0869141-1.8818359-.2285156-.1323242-.3837891-.1347656-.453125-.0942383-.0878906.050293-.1425781.2148438-.1425781.4291992l-.0097656 3.3105469c-.0019531 1.0439453-.3837891 1.8359375-1.0732422 2.2299805-.7001953.3920898-1.5771484.3193359-2.4746094-.1977539-.8193359-.4736328-1.5839844-1.2783203-2.1533203-2.265625-.5712891-.9824219-.8837891-2.0454102-.8808594-2.9926758l.1132813-34.8256836c.0019531-.6669922-.5068359-1.5463867-1.0878906-1.8813477-.1464844-.0849589-.2636719-.1157207-.3476563-.1157207z" fill="#2043dd"/></g></g></g><g><g><path d="m19.0820141 29.9957333c-.171875 0-.3398438-.0888672-.4326172-.2490234-.1386719-.2387695-.0576172-.5444336.1816406-.6831055l8.7460938-5.081543c.2363281-.1386719.5439453-.0595703.6835938.1811523.1386719.2387695.0576172.5444336-.1816406.6831055l-8.7460938 5.081543c-.0791016.0458984-.1650391.0678711-.2509766.0678711z" fill="#2043dd"/></g></g><g><g><path d="m19.0605297 37.0133095c-.171875 0-.3398438-.0888672-.4326172-.2490234-.1386719-.2387695-.0576172-.5444336.1816406-.6831055l8.7460938-5.0820293c.2363281-.1376953.5439453-.0595703.6835938.1811523.1386719.2387695.0576172.5444336-.1816406.6831055l-8.7460938 5.0820293c-.0791016.0458984-.1650391.0678711-.2509766.0678711z" fill="#2043dd"/></g></g><g><g><path d="m19.0390453 44.0303993c-.171875 0-.3398438-.0888672-.4326172-.2490234-.1386719-.2387695-.0576172-.5444336.1816406-.6831055l8.7451172-5.081543c.2363281-.1386719.5439453-.0595703.6835938.1811523.1386719.2387695.0576172.5444336-.1816406.6831055l-8.7451172 5.081543c-.0791016.0458985-.1650391.0678711-.2509766.0678711z" fill="#2043dd"/></g></g><g><g><path d="m19.0165844 51.0474892c-.171875 0-.3398438-.0888672-.4326172-.2490234-.1386719-.2387695-.0576172-.5444336.1816406-.6831055l11.1904297-6.5014648c.2363281-.1386719.5439453-.0595703.6835938.1811523.1386719.2387695.0576172.5444336-.1816406.6831055l-11.1904297 6.5014648c-.0791016.0458984-.1650391.0678711-.2509766.0678711z" fill="#2043dd"/></g></g><g><g><g><path d="m54.3769302 10.8913307c-2.1238747-1.2330694-5.0724525-1.0606432-8.3184013.8150625-6.460556 3.7356892-11.6791458 12.7849894-11.6583786 20.2146225.0104485 3.6939163 1.3098717 6.2906075 3.4129791 7.5132179l-2.5779533-1.4995384c-2.0978851-1.2225761-3.3973083-3.8193016-3.4077549-7.5079861-.0261192-7.4296036 5.1924725-16.4841347 11.6531544-20.2146244 3.2511711-1.8809032 6.1944008-2.0533295 8.3236275-.8150625z" fill="#fff"/></g></g><g><g><ellipse cx="46.094" cy="25.163" fill="#fff" rx="16.5" ry="9.552" transform="matrix(.502 -.865 .865 .502 1.207 52.419)"/></g></g><g><g><path d="m57.7875023 18.4004135c.0250969 7.4326363-5.1955032 16.4863205-11.6546516 20.2151833-6.4591446 3.7338829-11.7147636.7377281-11.7348404-6.6949081-.0050201-1.5457573.220623-3.1667747.6369019-4.7928162 1.1183167.5420246 2.3720436.8481541 3.7009468.8481541 4.6839714 0 8.4751511-3.7941055 8.4751511-8.4815483 0-2.6147041-1.1834526-4.9534168-3.0439644-6.5091896.6168251-.476778 1.2487068-.9033527 1.8906326-1.2747593 6.4541244-3.7338544 11.7097434-.7377282 11.729824 6.6898841z" fill="#e8ebfe"/></g></g><g><path d="m46.0666313 15.9679165c4.4080849-2.5480223 8.0049133-.4959002 8.0192719 4.5753231.0143585 5.0712357-3.5591087 11.2680149-7.9671936 13.8160362-4.4047432 2.5460892-8.0014763.493927-8.0158386-4.5773087-.0143586-5.0712222 3.5590171-11.2679614 7.9637603-13.8140506z" fill="#7f8fee"/></g><g><path d="m54.0865555 20.5429935c.0150604 5.0738602-3.5606346 11.266901-7.9687614 13.8163891-4.4031067 2.5444641-7.9987602.4918175-8.0138206-4.5770168 0-.2660027.0100403-.5420227.0301208-.8130207.7120781.2157993 1.4693336.3312187 2.2567101.3312187 4.3378487 0 7.8533058-3.5180855 7.8533058-7.8542175 0-2.1228828-.8374519-4.0500317-2.2115326-5.4602747.0100403-.005023.0251007-.0150709.035141-.0200939 4.4081267-2.5444651 8.0037765-.4918194 8.0188369 4.5770158z" fill="#5569e8"/></g><g><g><path d="m37.8134575 39.9342079c-.0859375 0-.171875-.0219727-.2509766-.0678711l-2.578125-1.4995117c-2.3476563-1.3681641-3.6464825-4.1875-3.6572247-7.9384747-.0263672-7.581543 5.3134747-16.8447266 11.9033184-20.6494141 3.3066406-1.9121094 6.4414063-2.2011719 8.8251953-.8139648l2.5722656 1.4941406c.2392578.1386719.3203125.4443359.1816406.6831055-.1396484.2397461-.4472656.3188477-.6835938.1816406-2.0644531-1.1977539-4.8378906-.9067383-7.8173828.8154297-6.3105469 3.6489258-11.4287109 12.5224609-11.4082031 19.7802734.0087891 3.3862286 1.1328125 5.9013653 3.1640625 7.0825176.2392578.1386719.3203125.4448242.1816406.6835938-.0927733.159668-.260742.2485352-.432617.2485352zm10.9101562-30.8330059c-1.5205078 0-3.2207031.5180664-4.9931641 1.543457-6.3125 3.6450195-11.4277344 12.5185547-11.4033203 19.7802734.0087891 3.1455059.9804688 5.5395489 2.7480469 6.8100567-.7636719-1.4213867-1.1689453-3.222168-1.1748047-5.3124981-.0205078-7.5771484 5.3212891-16.840332 11.9082031-20.6489258 1.8544922-1.0722656 3.65625-1.6333008 5.3007813-1.6743164-.7246093-.3325166-1.5263672-.4980468-2.3857422-.4980468z" fill="#2043dd"/></g></g><g><g><path d="m40.8847466 40.7281532c-1.2001953 0-2.3134766-.28125-3.2988281-.8481445-2.3662109-1.3608398-3.6757813-4.1865234-3.6865234-7.9560528-.0205078-7.5786133 5.3203125-16.8417969 11.9072266-20.6489258 3.2939453-1.9042969 6.4189453-2.1967773 8.7958984-.8291016 2.3671875 1.3613281 3.6757813 4.1865234 3.6865234 7.9550781.0214844 7.578125-5.3193359 16.8413067-11.90625 20.6489239-1.9296876 1.1152344-3.8007813 1.6782227-5.4980469 1.6782227zm5.421875-28.5869121c-6.3095703 3.6469727-11.4277344 12.5205078-11.4072266 19.7797852.0097656 3.3979473 1.140625 5.916502 3.1855469 7.0922832 2.0546875 1.1831055 4.8242188.8891602 7.7978516-.8295898 6.3105469-3.6474609 11.4267578-12.5209942 11.40625-19.7797832-.0097656-3.3969727-1.140625-5.9150391-3.1855469-7.0908203-2.0546875-1.1835939-4.8261719-.8896486-7.796875.8281249zm-.25-.4331055h.0097656z" fill="#2043dd"/></g></g><g><path d="m42.5419731 35.9571571c-.8486328 0-1.6376953-.2001953-2.3378906-.6025391-1.6699219-.9609375-2.59375-2.9394531-2.6015625-5.5712872-.0136719-5.2304688 3.6708984-11.6220703 8.2138672-14.2485352 2.2988281-1.3276367 4.4902344-1.5273438 6.1679688-.5634766 1.6699219.9604492 2.59375 2.9389648 2.6015625 5.5703125.0146484 5.2294922-3.6708984 11.6220684-8.2167969 14.2504864-1.3388672.773926-2.6416016 1.1650392-3.8271485 1.1650392zm3.7744141-19.5561504c-4.2666016 2.4663086-7.7275391 8.4682617-7.7138672 13.3793945.0068359 2.260252.7529297 3.932127 2.1005859 4.7070293 1.3554688.7792969 3.1894531.5810547 5.1660156-.5610352 4.2695313-2.4682598 7.7314453-8.4716778 7.7167969-13.381834-.0068359-2.2597656-.7519531-3.9311523-2.0996094-4.7060547-1.3574218-.7812499-3.1933593-.580078-5.1699218.5625001z" fill="#2043dd"/></g><g><g><path d="m48.6483269 24.4409256c.2368584.2045288.3592682.5815716.360836 1.1348419.0012894.4543438-.102787.9254951-.3153191 1.4189091-.2125435.4897518-.5113335.9559155-.9027672 1.402195-.3914375.4462681-.8437653.8322811-1.3568726 1.1616459l.0025864.9123478c.0003204.1135883-.0313263.2236195-.0948524.3336983-.0603333.1045856-.1463509.190958-.2483025.2498398-.0988388.0570831-.1786537.0701523-.2425842.0373421-.0639153-.0291519-.0960922-.1059895-.0964355-.226902l-.0025864-.9123478c-.8034821.405323-1.5563545.6382732-2.2585945.702528-.0893669.0075703-.1628952-.0196857-.2236977-.0836716-.0576935-.0657578-.0898247-.1536388-.0901337-.2635555-.0004158-.1465607.0438461-.2969036.1295853-.452858.082531-.1577606.1940155-.2735348.327877-.3508434.0733299-.0423508.1467018-.0700417.213726-.0720463.6033173-.0401592 1.2349625-.2324657 1.8981133-.5824318l-.0083694-2.9532127c-.5072479.1388149-.931694.2151241-1.2797241.2362881-.34795.0211258-.6354866-.06604-.8692017-.2613678-.2304306-.1972256-.3463669-.5486507-.3477974-1.0542889-.0012703-.4470062.0932121-.9126263.2802162-1.3986454.1902084-.4842014.4730301-.9631519.8484802-1.4258785.372242-.4645424.82761-.8780136 1.353466-1.2330914l-.002552-.9013615c-.0003128-.1099148.0313263-.223608.0948334-.3373547.0635147-.1137524.1431351-.1964397.2419701-.253521.0955544-.0551853.1785851-.066433.2457314-.0281429.0671501.0382881.0993271.1151257.0996399.2250404l.0025101.8866997c.7300911-.3849468 1.3775482-.6194115 1.9456787-.6979656.2106247-.0372257.3131447.0760536.3138733.3325405.0003929.139225-.0407562.2877712-.1200829.4436913-.0826225.1578121-.1908112.2753525-.3246727.3526611-.0446167.0257683-.1052704.046114-.1787033.0518284-.5073929.0875092-1.0528259.2887402-1.6330299.5981388l.0086632 3.0558128c.5359268-.1627178.9826469-.2629051 1.3369751-.2950535.3543205-.0358086.6514701.0494824.8915176.2484913zm-2.217247 4.0147114c1.0516815-.6917858 1.5730858-1.4847069 1.5705605-2.3750591-.0009422-.3334293-.1324081-.5144005-.3974533-.5485134-.2651253-.0303745-.6576729.0238438-1.1809387.1608925zm-.6939736-3.7683735-.0080032-2.8249741c-.4460831.3273697-.8026733.6911182-1.0697021 1.0875587-.2671051.4001541-.4000626.7962322-.3989525 1.1882915.0010719.3773994.1261673.598753.3754311.6603107.2491874.0616152.6163253.0257379 1.1012267-.1111868" fill="#fff"/></g></g></g></g></svg>