<svg viewBox="0 0 120 120" xmlns="http://www.w3.org/2000/svg" xmlns:xlink="http://www.w3.org/1999/xlink"><linearGradient id="a" gradientUnits="userSpaceOnUse" x1="67.97" x2="67.97" y1="82.26" y2="42.67"><stop offset="0" stop-color="#d9dcf5"/><stop offset="1" stop-color="#79fffd"/></linearGradient><linearGradient id="b" gradientUnits="userSpaceOnUse" x1="40.6" x2="53.25" y1="103.29" y2="103.29"><stop offset="0" stop-color="#eeeef5"/><stop offset="1" stop-color="#c1c4ff"/></linearGradient><linearGradient id="c" x1="73.59" x2="86.24" xlink:href="#b" y1="103.29" y2="103.29"/><linearGradient id="d" gradientUnits="userSpaceOnUse" x1="69.16" x2="69.16" y1="42.8" y2="11.37"><stop offset="0" stop-color="#2b98ff"/><stop offset="1" stop-color="#a6d2ff"/></linearGradient><linearGradient id="e" gradientUnits="userSpaceOnUse" x1="60.01" x2="60.01" y1="110.86" y2="10.12" data-name="New Gradient Swatch 7"><stop offset="0" stop-color="#93199c"/><stop offset="1" stop-color="#4419a9"/></linearGradient><path d="m37.76 85.34 63.52-7.47a2.53 2.53 0 0 0 2.18-2l6-30.12a2.53 2.53 0 0 0 -2.48-3h-80.54z" fill="url(#a)"/><circle cx="46.93" cy="103.29" fill="url(#b)" r="6.33"/><circle cx="79.92" cy="103.29" fill="url(#c)" r="6.33"/><path d="m94.12 42.72h-49.92a25.8 25.8 0 1 1 49.92 0z" fill="url(#d)"/><path d="m110.09 42.68a4 4 0 0 0 -3.09-1.47h-11a27.21 27.21 0 0 0 -1.72-15.77 1.5 1.5 0 0 0 -2.77 1.16c.26.6.53 1.33.74 2l-9.67 2.54a40.87 40.87 0 0 0 -4.35-9.7 28.87 28.87 0 0 0 5.26-4.88 24.61 24.61 0 0 1 4 3.66 1.5 1.5 0 1 0 2.25-2c-18.4-20.8-52.26-4.16-47.38 23h-14.77l-3.34-12.54a5.49 5.49 0 0 0 -4.57-4l-9-1.23a1.5 1.5 0 0 0 -.41 3l9 1.23a2.51 2.51 0 0 1 2.08 1.84l14.83 55.7-3 6.93a4.53 4.53 0 0 0 4.12 6.31h3.52c-4.05 5-.3 12.75 6.15 12.66 6.44.09 10.19-7.71 6.15-12.66h20.65c-4 5-.3 12.75 6.15 12.66 6.44.09 10.19-7.71 6.15-12.66h12.7a1.5 1.5 0 0 0 0-3h-61.51a1.49 1.49 0 0 1 -1.26-.68 1.47 1.47 0 0 1 -.11-1.42l2.9-6.63 51.16-6a1.5 1.5 0 0 0 -.35-3l-1.85.27 1-9.54 14.93-1.17-1.68 8.01a1.11 1.11 0 0 1 -.94 1.08l-4.51.53a1.5 1.5 0 0 0 .37 3l4.49-.53a4 4 0 0 0 3.47-3.2l6-30.14a4 4 0 0 0 -.79-3.36zm-58.34 60.61c-.2 6.38-9.45 6.38-9.65 0 .2-6.38 9.45-6.38 9.65 0zm33 0c-.2 6.38-9.45 6.38-9.65 0 .19-6.38 9.44-6.38 9.64 0zm-29.87-21.47-1.65-10.64 14.12-1.1.38 10.23zm-16 1.83-2.96-11.11 14.31-1.12 1.67 10.75zm-10.48-39.43h17.6l1.6 10.3-16.3.64zm38 0 .36 9.55-16.11.63-1.65-10.18zm-18.33 13.29 1.7 10.94-14.64 1.14-3-11.46zm4.7 10.7-1.68-10.82 15.75-.62.39 10.31zm17.07-11.56 17.1-.65-1 9.62-15.71 1.22zm-.11-3-.36-9.44h18.75l-.88 8.79zm21.4-9.44h15.87a1 1 0 0 1 .8.37 1 1 0 0 1 .21.85l-1.35 6.77-16.36.64zm1.87-12.73a23.8 23.8 0 0 1 0 9.73h-8.7a41 41 0 0 0 -1-7.19zm-13.33.4-21.76 5.72a37.73 37.73 0 0 1 -.91-9.6 35.53 35.53 0 0 0 18.74-4.92 38.26 38.26 0 0 1 3.92 8.8zm1.25-17a25.54 25.54 0 0 1 -4.41 4.05 24.44 24.44 0 0 0 -8-7 24 24 0 0 1 12.4 2.96zm-17.77-1.6c3.85.42 7.7 3.09 10.85 7.27a32.26 32.26 0 0 1 -16.76 4.45c.76-5.24 2.76-9.47 5.9-11.71zm-5.38 1.45a24.59 24.59 0 0 0 -3.47 10 25.46 25.46 0 0 1 -5.79-1.34 24.43 24.43 0 0 1 9.25-8.65zm-10.7 11.39a28.65 28.65 0 0 0 7 1.65 39.76 39.76 0 0 0 1 10.59l-9.74 2.54a24.21 24.21 0 0 1 1.74-14.78zm11.6 14.38 21.74-5.71a37.93 37.93 0 0 1 .88 6.42h-22.39c-.08-.21-.16-.46-.23-.71zm26 37.81-13.95 1.69-.38-10.11 15.33-1.2zm4.33-12.94 1-9.5 16-.63-1.78 8.94z" fill="url(#e)"/></svg>