<svg height="512" viewBox="0 0 512 512" width="512" xmlns="http://www.w3.org/2000/svg" xmlns:xlink="http://www.w3.org/1999/xlink"><linearGradient id="a" gradientUnits="userSpaceOnUse" x1="13.047" x2="494.346" y1="474.953" y2="-6.346" data-name="New Gradient Swatch 1"><stop offset="0" stop-color="#003f8a"/><stop offset=".518" stop-color="#00d7df"/><stop offset="1" stop-color="#006df0"/></linearGradient><linearGradient id="b" x1="-6.953" x2="474.346" xlink:href="#a" y1="454.953" y2="-26.346"/><linearGradient id="c" x1="-26.953" x2="454.346" xlink:href="#a" y1="434.953" y2="-46.346"/><linearGradient id="d" x1="-46.953" x2="434.346" xlink:href="#a" y1="414.953" y2="-66.346"/><linearGradient id="e" x1="-66.953" x2="414.346" xlink:href="#a" y1="394.953" y2="-86.346"/><linearGradient id="f" x1="-86.953" x2="394.346" xlink:href="#a" y1="374.953" y2="-106.346"/><linearGradient id="g" x1="113.047" x2="594.346" xlink:href="#a" y1="574.953" y2="93.654"/><linearGradient id="h" x1="93.047" x2="574.346" xlink:href="#a" y1="554.953" y2="73.654"/><linearGradient id="i" x1="73.047" x2="554.346" xlink:href="#a" y1="534.953" y2="53.654"/><linearGradient id="j" x1="53.047" x2="534.346" xlink:href="#a" y1="514.953" y2="33.654"/><linearGradient id="k" x1="33.047" x2="514.346" xlink:href="#a" y1="494.953" y2="13.654"/><linearGradient id="l" x1="25.047" x2="506.346" xlink:href="#a" y1="486.953" y2="5.654"/><linearGradient id="m" x1="49.047" x2="530.346" xlink:href="#a" y1="510.953" y2="29.654"/><linearGradient id="n" x1="9.047" x2="490.346" xlink:href="#a" y1="470.953" y2="-10.346"/><linearGradient id="o" x1="197.047" x2="678.346" xlink:href="#a" y1="658.953" y2="177.654"/><linearGradient id="p" x1="157.047" x2="638.346" xlink:href="#a" y1="618.953" y2="137.654"/><g><path d="m256 320a8 8 0 0 0 8-8v-160a8 8 0 0 0 -16 0v160a8 8 0 0 0 8 8z" fill="url(#a)"/><path d="m216 320a8 8 0 0 0 8-8v-160a8 8 0 0 0 -16 0v160a8 8 0 0 0 8 8z" fill="url(#b)"/><path d="m176 320a8 8 0 0 0 8-8v-160a8 8 0 0 0 -16 0v160a8 8 0 0 0 8 8z" fill="url(#c)"/><path d="m136 320a8 8 0 0 0 8-8v-160a8 8 0 0 0 -16 0v160a8 8 0 0 0 8 8z" fill="url(#d)"/><path d="m96 320a8 8 0 0 0 8-8v-160a8 8 0 0 0 -16 0v160a8 8 0 0 0 8 8z" fill="url(#e)"/><path d="m56 320a8 8 0 0 0 8-8v-160a8 8 0 0 0 -16 0v160a8 8 0 0 0 8 8z" fill="url(#f)"/><path d="m456 320a8 8 0 0 0 8-8v-160a8 8 0 0 0 -16 0v160a8 8 0 0 0 8 8z" fill="url(#g)"/><path d="m416 320a8 8 0 0 0 8-8v-160a8 8 0 0 0 -16 0v160a8 8 0 0 0 8 8z" fill="url(#h)"/><path d="m376 320a8 8 0 0 0 8-8v-160a8 8 0 0 0 -16 0v160a8 8 0 0 0 8 8z" fill="url(#i)"/><path d="m336 320a8 8 0 0 0 8-8v-160a8 8 0 0 0 -16 0v160a8 8 0 0 0 8 8z" fill="url(#j)"/><path d="m296 320a8 8 0 0 0 8-8v-160a8 8 0 0 0 -16 0v160a8 8 0 0 0 8 8z" fill="url(#k)"/><path d="m496 128a8 8 0 0 0 8-8v-24a8 8 0 0 0 -8-8h-480a8 8 0 0 0 -8 8v24a8 8 0 0 0 8 8h8v208h-8a8 8 0 0 0 -8 8v72a8 8 0 0 0 8 8h17.01a32.008 32.008 0 0 0 61.98 0h18.02a32.008 32.008 0 0 0 61.98 0h154.02a32.008 32.008 0 0 0 61.98 0h18.02a32.008 32.008 0 0 0 61.98 0h25.01a8 8 0 0 0 8-8v-72a8 8 0 0 0 -8-8h-8v-208zm-432 304a16 16 0 1 1 16-16 16.021 16.021 0 0 1 -16 16zm80 0a16 16 0 1 1 16-16 16.021 16.021 0 0 1 -16 16zm216 0a16 16 0 1 1 16-16 16.021 16.021 0 0 1 -16 16zm80 0a16 16 0 1 1 16-16 16.021 16.021 0 0 1 -16 16zm48-24h-17.01a32.008 32.008 0 0 0 -61.98 0h-18.02a32.008 32.008 0 0 0 -61.98 0h-154.02a32.008 32.008 0 0 0 -61.98 0h-18.02a32.008 32.008 0 0 0 -61.98 0h-9.01v-32h464zm0-48h-464v-8h464zm-448-24v-208h432v208zm-16-224v-8h464v8z" fill="url(#l)"/><circle cx="144" cy="416" fill="url(#m)" r="8"/><circle cx="64" cy="416" fill="url(#n)" r="8"/><circle cx="440" cy="416" fill="url(#o)" r="8"/><circle cx="360" cy="416" fill="url(#p)" r="8"/></g></svg>