<svg id="Layer_1" enable-background="new 0 0 512 512" height="512" viewBox="0 0 512 512" width="512" xmlns="http://www.w3.org/2000/svg"><g clip-rule="evenodd" fill-rule="evenodd"><path d="m222.032 142.108c-20.122-5.42-38.628-15.637-54.014-29.681l-3.57-3.259 4.505-1.753c9.034-3.514 18.394-6.255 27.843-8.397l2.419-.549.993 2.273c1.332 3.05 2.74 6.07 4.281 9.021 5.204 9.963 11.882 19.697 20.318 27.207l9.477 8.437zm-10.867-45.887-3.885.638 1.646 3.577c7.54 16.382 20.681 36.037 39.361 40.598l3.711.906v-49.262l-3.072.074c-12.636.305-25.287 1.422-37.761 3.469zm51.909-3.469c12.636.305 25.286 1.422 37.761 3.469l3.887.638-1.648 3.578c-7.544 16.377-20.682 36.036-39.361 40.597l-3.711.906v-49.262zm80.909 19.675 3.57-3.259-4.505-1.753c-9.035-3.515-18.393-6.256-27.844-8.397l-2.422-.549-.991 2.277c-1.329 3.052-2.749 6.067-4.29 9.018-5.199 9.961-11.872 19.7-20.307 27.206l-9.485 8.44 12.26-3.302c20.121-5.42 38.627-15.637 54.014-29.681zm109.058 233.077v25.057h-46.53c-1.115 0-2.184.472-2.939 1.293l-27.844 30.309h-28.156v-56.659zm-113.468 56.659h-105.475v-56.659h105.474v56.659zm123.17 56.264c-20.732 22.451-50.312 33.574-80.532 33.574h-290.49c-24.909 0-47.896-12.925-60.978-34.029l-2.839-4.58h439.49zm-388.044-178.245v-19.971h78.973v19.971zm22.182 30.477v20.451h-20.451v-20.451zm34.608 0h20.451v20.451h-20.451z" fill="#a4d4ff"/><path d="m405.339 185.053c-2.066-1.981-2.729-5.011-1.656-7.67 1.059-2.649 3.628-4.39 6.498-4.39h14.977v-126.993c0-3.868 3.134-6.997 7.002-6.997 3.859 0 6.997 3.129 6.997 6.997v133.99c0 3.863-3.139 7.002-6.997 7.002h-4.531l25.462 24.323 25.452-24.323h-4.522c-3.873 0-7.002-3.139-7.002-7.002v-133.99c0-3.868 3.129-6.997 7.002-6.997 3.858 0 7.002 3.129 7.002 6.997v126.993h14.977c2.861 0 5.43 1.741 6.498 4.39 1.063 2.659.404 5.689-1.657 7.67l-42.919 40.999c-1.355 1.299-3.091 1.939-4.832 1.939s-3.491-.64-4.842-1.939zm-394.181 0c-2.057-1.981-2.715-5.011-1.657-7.67 1.068-2.649 3.642-4.39 6.498-4.39h14.983v-126.993c0-3.868 3.139-6.997 6.997-6.997 3.873 0 7.002 3.129 7.002 6.997v133.99c0 3.863-3.129 7.002-7.002 7.002h-4.517l25.448 24.323 25.462-24.323h-4.532c-3.858 0-6.997-3.139-6.997-7.002v-133.99c0-3.868 3.139-6.997 6.997-6.997 3.873 0 7.002 3.129 7.002 6.997v126.993h14.977c2.861 0 5.44 1.741 6.503 4.39 1.068 2.659.409 5.689-1.661 7.67l-42.91 40.999c-1.35 1.299-3.101 1.939-4.842 1.939-1.736 0-3.478-.64-4.828-1.939zm170.114-162.054c.64 23.612 4.48 46.124 11.119 65.741-11.792 2.781-22.85 6.352-32.882 10.663-17.938-20.733-29.329-47.281-30.92-76.404zm171.219 76.404c-10.032-4.301-21.09-7.872-32.882-10.663 6.644-19.617 10.484-42.128 11.119-65.741h52.683c-1.59 29.123-12.982 55.671-30.92 76.404zm-150.661 11.749c6.122 11.707 13.213 21.142 20.982 28.059-19.933-5.369-37.941-15.462-52.772-29 8.479-3.299 17.683-6.061 27.419-8.267 1.383 3.166 2.832 6.249 4.371 9.208zm47.168-15.401c-12.865.311-25.419 1.473-37.348 3.431 9.66 20.991 22.817 35.39 37.348 38.938zm0-14.008c-14.728.339-29.075 1.76-42.688 4.16-6.348-18.182-10.352-39.799-11.03-62.903h53.718zm14.004 0v-58.744h53.718c-.678 23.104-4.677 44.721-11.03 62.903-13.608-2.399-27.96-3.82-42.688-4.159zm0 56.377v-42.369c12.87.311 25.419 1.473 37.348 3.431-9.67 20.991-22.817 35.39-37.348 38.938zm51.539-36.176c-1.379 3.167-2.833 6.249-4.381 9.209-6.108 11.707-13.199 21.142-20.973 28.059 19.933-5.369 37.941-15.462 52.772-29-8.478-3.3-17.677-6.062-27.418-8.268zm-58.541 55.647c78.083 0 141.599-63.51 141.599-141.589 0-3.873-3.139-7.002-6.997-7.002h-269.199c-3.863 0-7.002 3.129-7.002 7.002 0 78.079 63.52 141.589 141.599 141.589zm-121.511 156.068h14.451v14.451h-14.451zm-2.997 28.45h20.45c6.07 0 10.997-4.927 10.997-10.997v-20.45c0-6.07-4.927-11.002-10.997-11.002h-20.45c-6.07 0-11.002 4.932-11.002 11.002v20.45c0 6.07 4.932 10.997 11.002 10.997zm-37.611-13.999h-14.451v-14.451h14.451zm13.999-17.448c0-6.07-4.932-11.002-10.997-11.002h-20.45c-6.07 0-11.002 4.932-11.002 11.002v20.45c0 6.07 4.932 10.997 11.002 10.997h20.45c6.065 0 10.997-4.927 10.997-10.997zm363.393 131.731h-444.601c-2.372-6.941-3.67-14.38-3.67-22.111v-38.722h79.41l26.948 29.329c1.318 1.445 3.19 2.273 5.148 2.273h242.984c1.958 0 3.821-.828 5.148-2.273l26.948-29.329h79.274c-1.03 24.732-7.51 44.914-17.589 60.833zm-89.062 46.608h-290.49c-24.652 0-46.312-13.063-58.429-32.609h427.247c-20.478 22.177-49.478 32.609-78.328 32.609zm-328.619-197.82v76.38h51.888c1.962 0 3.83.819 5.162 2.263l26.948 29.339h37.193v-107.982zm24.107-27.97h72.973v13.971h-72.973zm159.399 85.292v50.66h99.475v-50.66zm99.475-78.201v64.198h-99.475v-64.197h99.475zm113.468 64.198h-99.47v-64.197h99.47zm-43.53 33.061h43.531v-19.057h-99.47v50.66h23.838l26.953-29.339c1.327-1.445 3.2-2.264 5.148-2.264zm89.489 0h-31.96v-104.26c0-3.859-3.129-6.997-7.002-6.997h-226.937c-3.858 0-7.002 3.138-7.002 6.997v135.863h-34.317v-110.98c0-6.07-4.932-11.001-11.002-11.001h-13.11v-18.159c0-5.501-4.861-9.811-11.063-9.811h-78.845c-6.202 0-11.062 4.31-11.062 9.811v18.159h-13.11c-6.061 0-10.997 4.931-10.997 11.001v79.378h-23.593c-3.868 0-7.002 3.129-7.002 7.002v45.719c0 45.609 37.112 82.717 82.723 82.717h290.49c32.43 0 62.259-11.58 84.008-32.6 24.064-23.259 36.783-56.396 36.783-95.837 0-3.873-3.134-7.002-7.002-7.002z" fill="#1f4571"/></g></svg>