<svg id="Layer_1" enable-background="new 0 0 512 512" viewBox="0 0 512 512" xmlns="http://www.w3.org/2000/svg"><g clip-rule="evenodd" fill-rule="evenodd"><path d="m247.281 488.715c-23.509-4.491-45.776-13.543-65.793-26.676l-3.139-2.059 29.762-28.722 1.822 3.671c9.108 18.358 22.138 36.981 39.55 48.327l12.767 8.32zm-30.879-58.583 2.284 4.386c11.3 21.694 30.159 46.2 55.922 50.423l3.485.571v-71.863h-3c-.234 0-.468.014-.701.014h-2.515l-.439 2.476c-.79 4.45-3.747 7.707-7.628 9.857-6.226 3.448-14.697 4.137-21.674 4.137h-25.734zm134.457-6.792c-1.677 3.806-3.469 7.563-5.393 11.25-11.338 21.729-30.042 46.183-55.89 50.36l-3.478.562v-71.915l3.05.051c19.906.335 39.866 2.103 59.482 5.526l3.775.658zm1.705 14.95c-8.905 17.065-21.247 34.175-37.543 44.872l-12.733 8.358 14.952-2.905c34.607-6.724 66.469-23.352 91.919-47.725l3.326-3.185-4.258-1.755c-14.638-6.033-29.953-10.584-45.408-13.981l-2.435-.535-.972 2.296c-2.092 4.938-4.366 9.803-6.848 14.56zm-70.469-194.811c-88.357 0-160.24-71.882-160.24-160.24v-14.608h73.75v46.218h-17.582c-1.294 0-2.506.632-3.257 1.684-.747 1.046-.947 2.407-.528 3.622 15.865 46.022 59.139 77.106 107.857 77.106 48.716 0 91.981-31.092 107.852-77.107.42-1.219.221-2.576-.526-3.625-.748-1.052-1.963-1.68-3.254-1.68h-17.582v-46.218h73.75v14.608c0 88.358-71.882 160.24-160.24 160.24zm-103.112 142.44h-31.928l-26.203-43.757h12.782z" fill="#a4d4ff"/><path d="m282.095 26.02 34.83 35.691h-9.181c-3.859 0-7.002 3.134-7.002 7.002v95.847h-37.301v-95.847c0-3.868-3.129-7.002-6.997-7.002h-9.181zm-51.45 49.69h18.799v95.852c0 3.868 3.129 6.997 7.002 6.997h51.299c3.868 0 6.997-3.129 6.997-6.997v-95.852h18.803c2.809 0 5.35-1.684 6.447-4.282 1.092-2.592.523-5.59-1.435-7.609l-51.45-52.707c-1.322-1.35-3.125-2.112-5.012-2.112-1.892 0-3.689.762-5.011 2.113l-51.45 52.707c-1.962 2.018-2.532 5.016-1.44 7.609 1.101 2.597 3.642 4.281 6.451 4.281zm-23.4 360.551c11.209 22.591 25.16 39.446 40.599 49.507-23.029-4.4-44.91-13.246-64.71-26.238zm-74.823 52.74 70.371-67.901c1.313-1.261 3.049-1.971 4.861-1.971h34.482c9.886 0 14.488-1.727 16.357-2.758 2.16-1.2 2.16-2.141 2.16-2.588 0-5.901-12.71-16.864-24.718-16.864h-150.799c-2.07 0-4.023-.908-5.35-2.489l-23.782-28.158-3.99.249 14.361 37.799c.329.551 5.19 7.19 45.78 11.609 22.21 2.423 43.592 2.87 43.809 2.88 2.489.052 4.771 1.421 5.98 3.604 1.209 2.188 1.172 4.847-.122 6.988l-35.677 59.6zm-30.986-173.808h79.091c.419 22.196 2.866 43.625 7.279 63.948l-47.69-46.02c-.16-.16-.329-.31-.513-.452-1.228-.97-2.757-1.511-4.348-1.511h-21.462c-2.518 0-4.852 1.35-6.089 3.543-.617 1.096-.922 2.32-.908 3.539.009 1.219.348 2.428.988 3.51l15.5 25.88 9.152 15.288h-15.025c-9.735-21.399-15.085-44.127-15.975-67.725zm58.669-112.222c9.19 9.407 19.241 17.608 29.988 24.544-5.778 22.911-9.058 48.142-9.566 73.674h-79.091c1.6-42.115 17.599-81.82 45.63-113.238 4.051 5.237 8.399 10.258 13.039 15.02zm-35.249-131.34v11.608c0 86.704 70.54 157.24 157.24 157.24 86.699 0 157.24-70.536 157.24-157.24v-11.608h-67.75v40.218h14.582c2.259 0 4.386 1.096 5.699 2.941 1.308 1.84 1.661 4.202.918 6.343-16.319 47.328-60.8 79.128-110.688 79.128-49.893 0-94.369-31.8-110.693-79.128-.729-2.141-.391-4.503.922-6.343 1.318-1.845 3.44-2.941 5.699-2.941h14.582v-40.218zm337.898 229.559h-79.09c-.508-25.532-3.779-50.763-9.571-73.674 10.752-6.936 20.812-15.138 29.993-24.544 4.649-4.762 8.988-9.783 13.039-15.02 28.031 31.418 44.029 71.123 45.629 113.238zm-95.489 110.508c10.037-28.51 15.731-61.699 16.399-96.505h79.09c-1.651 43.14-18.478 82.436-45.29 112.726-15.161-6.668-32.059-12.108-50.199-16.221zm-12.041 27.979c-10.931 20.935-24.069 36.482-38.557 45.992 34.68-6.739 65.849-23.42 90.416-46.947-13.688-5.642-28.788-10.281-44.909-13.825-2.169 5.125-4.489 10.051-6.95 14.78zm-80.832-23.014c-.88 4.96-4.028 9.138-9.129 11.957-5.477 3.04-13.048 4.512-23.128 4.512h-20.789c14.728 28.276 33.739 45.568 53.747 48.848v-65.332c-.23.001-.456.015-.701.015zm87.104-181.774c4.899 20.747 7.689 43.38 8.169 66.301h-80.568v-46.862c25.626-1.032 50.218-7.704 72.399-19.439zm-72.399 167.751c22.248.367 43.926 2.489 64.329 6.23 9.919-27.41 15.557-59.671 16.239-93.678h-80.568zm0 14.009c20.408.344 40.275 2.212 59.017 5.482-1.68 3.812-3.449 7.51-5.308 11.072-14.879 28.516-33.734 45.559-53.709 48.787zm-14.003-162.322v46.862h-80.568c.48-22.921 3.27-45.554 8.169-66.301 22.181 11.736 46.768 18.408 72.399 19.439zm-72.061 128.592c-5.181-21.33-8.037-44.048-8.508-67.727h80.568v87.447c-1.261.019-2.518.071-3.779.099-6.442-10.837-21.222-19.82-35.381-19.82h-32.9zm-70.611-37.756 39.131 37.757h-22.798l-22.61-37.757zm292.994-168.905c17.98-27.715 27.918-60.259 27.918-93.019v-11.764c0-7.632-6.211-13.844-13.839-13.844h-74.912c-3.859 0-6.997 3.134-6.997 7.002v54.217c0 3.868 3.138 7.002 6.997 7.002h11.26c-16.658 36.505-53.177 60.409-93.748 60.409s-77.081-23.904-93.739-60.409h11.246c3.873 0 7.002-3.134 7.002-7.002v-54.217c0-3.868-3.129-7.002-7.002-7.002h-74.907c-7.632 0-13.839 6.211-13.839 13.844v11.764c0 32.76 9.938 65.303 27.918 93.019-33.24 36.063-51.492 82.685-51.492 131.933 0 25.989 4.992 51.079 14.851 74.728h-13.75l-23.956-28.369c-1.43-1.689-3.571-2.621-5.783-2.47l-16.982 1.049c-2.216.141-4.249 1.322-5.449 3.19-1.209 1.868-1.449 4.212-.659 6.292l17.801 46.862c.019.047.038.099.061.146 2.748 6.762 11.628 15.161 56.269 20.13 7.618.842 15.1 1.459 21.74 1.91 2.433 2.96 4.941 5.858 7.538 8.682l-31.179 52.071c-1.289 2.16-1.317 4.847-.08 7.039 1.237 2.197 3.571 3.548 6.089 3.548h21.462c1.812 0 3.562-.701 4.861-1.958l32.708-31.56c32.298 21.938 69.952 33.519 109.271 33.519 107.418 0 194.809-87.391 194.809-194.809 0-49.243-18.248-95.87-51.488-131.933z" fill="#1f4571"/></g></svg>