<svg id="Layer_1" height="512" viewBox="0 0 50 50" width="512" xmlns="http://www.w3.org/2000/svg"><g><ellipse cx="14.4" cy="12.4" fill="#34cba0" rx="10.7" ry="10.7"/><g style="fill:none;stroke:#151f81;stroke-linecap:round;stroke-linejoin:round;stroke-miterlimit:10;stroke-width:1.5"><path d="m6.2 19.1c-1.5-1.8-2.4-4.2-2.4-6.7 0-5.9 4.8-10.7 10.7-10.7s10.7 4.8 10.7 10.7c0 2.6-.9 4.9-2.4 6.7"/><ellipse cx="14.4" cy="12.4" rx="5.6" ry="10.7"/><path d="m23.1 6.2c-1.9 1.4-5.1 2.3-8.7 2.3s-6.7-.9-8.7-2.3"/><path d="m5.9 18.8c1.9-1.4 5-2.2 8.5-2.2s6.6.9 8.5 2.2"/><path d="m14.4 1.7v21.4"/><path d="m3.8 12.4h21.3"/></g><path d="m25.1 48.2h-21.3c-1.1 0-2-.9-2-2v-25.1c0-1.1.9-2 2-2h21.4c1.1 0 2 .9 2 2v25.1c-.1 1.2-1 2-2.1 2z" fill="#d7e8ff"/><path d="m25.1 48.2h-21.3c-1.1 0-2-.9-2-2v-25.1c0-1.1.9-2 2-2h21.4c1.1 0 2 .9 2 2v25.1c-.1 1.2-1 2-2.1 2z" style="fill:none;stroke:#151f81;stroke-linecap:round;stroke-linejoin:round;stroke-miterlimit:10;stroke-width:1.5"/><circle cx="8.2" cy="23.2" fill="#fff" r="1.7"/><circle cx="20.7" cy="23.2" fill="#fff" r="1.7"/><path d="m20.7 24.9v5.5c0 3.4-2.8 6.2-6.2 6.2-3.5 0-6.2-2.8-6.2-6.2v-5.5" style="fill:none;stroke:#151f81;stroke-linecap:round;stroke-linejoin:round;stroke-miterlimit:10;stroke-width:1.5"/><circle cx="8.2" cy="23.2" r="1.7" style="fill:none;stroke:#151f81;stroke-linecap:round;stroke-linejoin:round;stroke-miterlimit:10;stroke-width:1.5"/><circle cx="20.7" cy="23.2" r="1.7" style="fill:none;stroke:#151f81;stroke-linecap:round;stroke-linejoin:round;stroke-miterlimit:10;stroke-width:1.5"/><path d="m43.5 48.2c-2.6 0-4.7-2.1-4.7-4.7v-6.2c0-2.6 2.1-4.7 4.7-4.7 2.6 0 4.7 2.1 4.7 4.7v6.2c0 2.6-2.1 4.7-4.7 4.7z" fill="#f3877e"/><path d="m43.5 48.2c-2.6 0-4.7-2.1-4.7-4.7v-6.2c0-2.6 2.1-4.7 4.7-4.7 2.6 0 4.7 2.1 4.7 4.7v6.2c0 2.6-2.1 4.7-4.7 4.7z" style="fill:none;stroke:#151f81;stroke-linecap:round;stroke-linejoin:round;stroke-miterlimit:10;stroke-width:1.5"/><path d="m43.5 36.2v1" style="fill:none;stroke:#151f81;stroke-linecap:round;stroke-linejoin:round;stroke-miterlimit:10;stroke-width:1.5"/><path d="m43.5 32.4v-13.2c0-.9-.7-1.6-1.6-1.6-.9 0-1.6.7-1.6 1.6v10.7c0 .9-.7 1.6-1.6 1.6-.9 0-1.6-.7-1.6-1.6v-7.1c0-.9-.7-1.6-1.6-1.6-.9 0-1.6.7-1.6 1.6v19c0 .9-.7 1.6-1.6 1.6-.9 0-1.6-.7-1.6-1.6v-13.1c0-.9-.7-1.6-1.6-1.6h-1.6" style="fill:none;stroke:#151f81;stroke-linecap:round;stroke-linejoin:round;stroke-miterlimit:10;stroke-width:1.5"/><path d="m36.1 13.6c-3.1 0-5.6-2.5-5.6-5.6s2.5-5.6 5.6-5.6 5.6 2.5 5.6 5.6c0 3-2.5 5.6-5.6 5.6z" fill="#ffc408"/><path d="m36.1 13.6c-3.1 0-5.6-2.5-5.6-5.6s2.5-5.6 5.6-5.6 5.6 2.5 5.6 5.6c0 3-2.5 5.6-5.6 5.6z" style="fill:none;stroke:#151f81;stroke-linecap:round;stroke-linejoin:round;stroke-miterlimit:10;stroke-width:1.5"/><g><path d="m37 9.3c0-.2-.1-.4-.2-.5s-.4-.3-.7-.4-.6-.2-.8-.3c-.6-.3-.9-.8-.9-1.4 0-.4.1-.8.4-1 .3-.3.6-.4 1-.5v-.9h.6v.8c.4.1.8.3 1 .6s.4.7.4 1.2h-.8c0-.3-.1-.6-.2-.8s-.3-.3-.6-.3c-.2 0-.4.1-.6.2-.1.1-.2.3-.2.6 0 .2.1.4.2.5s.4.3.7.4.6.2.8.3.3.2.5.4c.1.1.2.3.3.5s.1.4.1.6c0 .4-.1.8-.4 1-.3.3-.6.4-1.1.5v.7h-.6v-.7c-.5-.1-.9-.2-1.2-.5s-.4-.7-.4-1.2h.9c0 .3.1.6.2.7.2.2.4.3.7.3s.5-.1.7-.2c.1-.2.2-.3.2-.6z" fill="#151f81"/></g></g></svg>