<svg id="Layer_1" enable-background="new 0 0 512 512" viewBox="0 0 512 512" xmlns="http://www.w3.org/2000/svg"><g clip-rule="evenodd" fill-rule="evenodd"><path d="m178.985 385.919h-31.931l-26.203-43.757h12.796zm-57.13-302.68v-14.608h73.75v46.218h-17.577c-1.293 0-2.51.627-3.262 1.679-.748 1.048-.943 2.41-.523 3.627 15.863 46.019 59.138 77.106 107.852 77.106 48.718 0 91.98-31.09 107.852-77.107.421-1.22.222-2.579-.526-3.63-.747-1.049-1.967-1.675-3.254-1.675h-17.583v-46.218h73.75v14.608c0 88.357-71.882 160.245-160.239 160.245-88.358 0-160.24-71.888-160.24-160.245zm88.076 351.688c9.111 18.355 22.139 36.982 39.55 48.327l12.77 8.321-14.971-2.861c-23.502-4.492-45.778-13.544-65.788-26.676l-3.138-2.06 29.756-28.722zm6.471-4.795 2.283 4.385c11.297 21.702 30.16 46.201 55.927 50.423l3.485.571v-71.863h-3c-.234 0-.468.014-.701.014h-2.515l-.439 2.476c-.789 4.45-3.753 7.708-7.633 9.857-6.226 3.448-14.697 4.137-21.674 4.137zm134.456-6.792c-1.677 3.806-3.469 7.563-5.393 11.25-11.341 21.736-30.038 46.172-55.888 50.36l-3.48.564v-71.917l3.05.051c19.905.335 39.866 2.103 59.482 5.526l3.774.659zm1.705 14.95c-8.903 17.066-21.253 34.171-37.544 44.872l-12.72 8.355 14.94-2.903c34.608-6.725 66.47-23.354 91.924-47.725l3.327-3.186-4.259-1.755c-14.641-6.032-29.956-10.584-45.413-13.981l-2.435-.535-.972 2.296c-2.092 4.94-4.366 9.805-6.848 14.562z" fill="#a4d4ff"/><path d="m256.445 125.852c3.868 0 7.002-3.134 7.002-7.002v-95.846h37.3v95.847c0 3.868 3.139 7.002 6.997 7.002h9.18l-34.83 35.687-34.83-35.687h9.181zm20.643 50.599c1.318 1.351 3.129 2.108 5.007 2.108 1.892 0 3.689-.758 5.011-2.108l51.45-52.711c1.957-2.014 2.531-5.011 1.44-7.609-1.092-2.593-3.642-4.282-6.451-4.282h-18.799v-95.847c0-3.868-3.129-7.002-7.002-7.002h-51.3c-3.868 0-7.002 3.134-7.002 7.002v95.847h-18.799c-2.809 0-5.35 1.689-6.451 4.282-1.087 2.597-.518 5.595 1.454 7.609zm-69.844 259.81c11.213 22.591 25.16 39.446 40.599 49.507-23.019-4.4-44.909-13.246-64.706-26.238zm-74.809 52.74 70.362-67.91c1.308-1.252 3.049-1.962 4.856-1.962h34.482c9.891 0 14.493-1.727 16.361-2.758 2.16-1.2 2.16-2.141 2.16-2.588 0-5.901-12.71-16.864-24.723-16.864h-150.798c-2.061 0-4.018-.908-5.35-2.489l-23.781-28.158-3.99.249 14.361 37.799c.329.551 5.181 7.19 45.78 11.609 22.21 2.423 43.592 2.87 43.808 2.88 2.494.052 4.771 1.421 5.981 3.604 1.209 2.188 1.172 4.847-.118 6.988l-35.682 59.6zm-31-173.808h79.09c.419 22.196 2.87 43.625 7.279 63.948l-47.69-46.02c-1.298-1.261-3.04-1.962-4.861-1.962h-21.457c-2.522 0-4.851 1.35-6.094 3.543-1.238 2.197-1.209 4.889.085 7.049l24.648 41.168h-15.02c-9.74-21.4-15.09-44.128-15.98-67.726zm58.669-112.222c9.195 9.407 19.241 17.608 29.993 24.544-5.783 22.911-9.063 48.142-9.571 73.674h-79.09c1.6-42.115 17.599-81.82 45.629-113.238 4.051 5.237 8.399 10.258 13.039 15.02zm-35.249-131.34v11.608c0 86.704 70.54 157.245 157.24 157.245 86.699 0 157.24-70.54 157.24-157.245v-11.608h-67.75v40.218h14.583c2.259 0 4.39 1.096 5.698 2.936 1.313 1.845 1.661 4.207.918 6.348-16.319 47.328-60.795 79.128-110.688 79.128-49.888 0-94.369-31.8-110.688-79.128-.734-2.141-.39-4.503.918-6.348 1.322-1.84 3.445-2.936 5.703-2.936h14.577v-40.218zm337.898 229.559h-79.086c-.513-25.532-3.783-50.763-9.571-73.674 10.747-6.936 20.808-15.138 29.988-24.544 4.649-4.762 8.992-9.783 13.039-15.02 28.032 31.418 44.035 71.123 45.63 113.238zm-95.489 110.508c10.042-28.51 15.731-61.699 16.404-96.505h79.086c-1.647 43.14-18.479 82.436-45.291 112.726-15.157-6.668-32.059-12.108-50.199-16.221zm-12.041 27.979c-10.926 20.935-24.078 36.482-38.557 45.992 34.68-6.739 65.849-23.42 90.421-46.947-13.693-5.642-28.793-10.281-44.914-13.825-2.169 5.125-4.489 10.051-6.95 14.78zm-80.827-23.014c-.88 4.96-4.033 9.138-9.133 11.957-5.477 3.04-13.048 4.512-23.128 4.512h-20.789c14.719 28.276 33.739 45.568 53.751 48.848v-65.332c-.23.001-.461.015-.701.015zm87.099-181.774c4.898 20.747 7.689 43.38 8.169 66.301h-80.568v-46.862c25.631-1.032 50.222-7.704 72.399-19.439zm-72.399 167.751c22.257.367 43.931 2.489 64.329 6.23 9.919-27.41 15.561-59.671 16.239-93.678h-80.568zm0 14.009c20.408.344 40.279 2.212 59.017 5.482-1.68 3.812-3.449 7.51-5.308 11.072-14.879 28.516-33.729 45.55-53.709 48.787zm-13.999-162.322v46.862h-80.573c.48-22.921 3.27-45.554 8.174-66.301 22.177 11.736 46.768 18.408 72.399 19.439zm-72.06 128.592c-5.181-21.33-8.042-44.048-8.513-67.727h80.573v87.447c-1.261.019-2.522.071-3.783.099-6.437-10.837-21.217-19.82-35.381-19.82h-32.896zm-54.283 0-22.61-37.757h6.291l39.122 37.757zm276.661-206.661c17.98-27.715 27.918-60.259 27.918-93.019v-11.764c0-7.632-6.206-13.844-13.839-13.844h-74.907c-3.863 0-7.002 3.134-7.002 7.002v54.217c0 3.868 3.139 7.002 7.002 7.002h11.255c-16.658 36.505-53.177 60.409-93.748 60.409-40.566 0-77.077-23.904-93.739-60.409h11.251c3.868 0 6.997-3.134 6.997-7.002v-54.217c0-3.868-3.129-7.002-6.997-7.002h-74.912c-7.628 0-13.839 6.211-13.839 13.844v11.764c0 32.76 9.938 65.303 27.918 93.019-33.24 36.063-51.488 82.685-51.488 131.933 0 25.989 4.988 51.079 14.85 74.728h-13.748l-23.96-28.369c-1.431-1.689-3.581-2.621-5.783-2.47l-16.977 1.049c-2.221.141-4.249 1.322-5.454 3.19-1.209 1.868-1.444 4.202-.659 6.282l17.801 46.858c.019.061.042.113.061.16 2.748 6.762 11.627 15.161 56.269 20.13 7.623.842 15.1 1.459 21.74 1.91 2.433 2.96 4.941 5.858 7.543 8.682l-31.179 52.057c-1.294 2.174-1.322 4.861-.085 7.053 1.242 2.188 3.572 3.548 6.094 3.548h21.457c1.821 0 3.562-.701 4.861-1.958l32.713-31.56c32.297 21.938 69.946 33.519 109.265 33.519 107.422 0 194.808-87.391 194.808-194.809.001-49.248-18.247-95.87-51.487-131.933z" fill="#1f4571"/></g></svg>