<svg viewBox="0 0 96 96" xmlns="http://www.w3.org/2000/svg"><g id="Health_Insurance" data-name="Health Insurance"><path d="m74.33 10.35v77.71a2.58 2.58 0 0 1 -2.58 2.58h-57.46a2.57 2.57 0 0 1 -2.57-2.58v-77.71a2.58 2.58 0 0 1 2.57-2.58h57.46a2.59 2.59 0 0 1 2.58 2.58z" fill="#b8c5eb"/><path d="m67.16 21.58v63.7a2.28 2.28 0 0 1 -2.28 2.27h-53.16v-77.2a2.58 2.58 0 0 1 2.57-2.58h39.06z" fill="#95b1eb"/><path d="m70.2 17.91v63.7a2.28 2.28 0 0 1 -2.28 2.27h-56.2v-73.53a2.58 2.58 0 0 1 2.57-2.58h45.77c3.67 3.68 6.08 6.09 10.14 10.14z" fill="#95b1eb"/><path d="m74.33 47.2v40.86a2.58 2.58 0 0 1 -2.58 2.58h-17c-4.62-4.64-7.24-10.9-7.24-18.64v-20.45c2.16-.65 18.76-5.41 20.94-6 .1.01-.45-.18 5.88 1.65z" fill="#95b1eb"/><path d="m67.16 17.91v63.7a2.28 2.28 0 0 1 -2.28 2.27h-58.06a2.27 2.27 0 0 1 -2.27-2.27v-78.33a2.27 2.27 0 0 1 2.27-2.28h43.44z" fill="#e0edff"/><path d="m67.16 17.91v3.4h-14.63a2.27 2.27 0 0 1 -2.27-2.31v-14.58l6.81 3.4z" fill="#b8c5eb"/><path d="m67.16 45.88v35.73a2.28 2.28 0 0 1 -2.28 2.27h-14.88a27.11 27.11 0 0 1 -2.49-11.88v-20.45c2.03-.61 13.54-3.9 19.65-5.67z" fill="#b8c5eb"/><path d="m46.27 65.92a1.25 1.25 0 0 0 1.24-1.24v-13.13c1.47-.44-1 .29 14.65-4.23v-26.51a2 2 0 0 0 -.59-1.42c-.15-.15-13.07-13.06-12.79-12.79a2 2 0 0 0 -1.43-.6h-35.79a2 2 0 0 0 -2 2v56.68a1.24 1.24 0 0 0 1.23 1.24z" fill="#fff"/><path d="m62.16 20.81v.5h-9.63a2.27 2.27 0 0 1 -2.27-2.31v-11l11.31 11.39a2 2 0 0 1 .59 1.42z" fill="#e0edff"/><path d="m67.15 17.91h-14.62a2.28 2.28 0 0 1 -2.27-2.28v-14.63z" fill="#c2d9ff"/><path d="m28.57 18.6h-3.96v-3.97h-5.96v3.97h-3.96v5.95h3.96v3.97h5.96v-3.97h3.96z" fill="#f03550"/><path d="m91.44 46.78v20.44c0 17.64-13.71 23.93-20.07 27.31l-.87.47c-5.11-2.88-11.23-5.59-15.74-11.52a25.14 25.14 0 0 1 -5.1-13.89c-.14-1.71-.09-1.41-.09-22.8 3.12-.91 20.08-5.78 20.93-6 .11 0 14.72 4.21 20.94 5.99z" fill="#7498f0"/><path d="m89.46 65.12a1.47 1.47 0 0 1 -1.46-1.47v-11.65a3.52 3.52 0 0 0 -1.31-2.73c-.78-.63-.13-.32-15.2-4.67a3.59 3.59 0 0 0 -2 0c-15.3 4.4-14.39 4.07-15.16 4.68a3.52 3.52 0 0 0 -1.33 2.72v11.65a1.47 1.47 0 0 1 -1.47 1.47h-2c0 4.13 0 7.88 2 12.75 4.09 9.92 13.08 13.81 19 17.12l.87-.46c6.36-3.38 20.07-9.67 20.07-27.31v-2.1z" fill="#515cd2"/><path d="m85 50.3a1.79 1.79 0 0 1 1.27 1.7c0 16.38.13 17-.43 19.88-1.79 9.41-8.91 13.82-14.48 16.79a1.76 1.76 0 0 1 -1.68 0c-3.83-2.07-7.43-4.28-10.23-7.67a20.7 20.7 0 0 1 -4.71-13.81v-15.19a1.79 1.79 0 0 1 1.26-1.7l14-4c.66-.18.73-.07 4.26.95z" fill="#ffbd38"/><path d="m86.27 52v2.9a1.78 1.78 0 0 0 -1.27-1.7c-1.44-.4-7.54-2.17-14-4-.68-.2.3-.37-15 4a1.78 1.78 0 0 0 -1.29 1.71v-2.91a1.78 1.78 0 0 1 1.29-1.7l14-4c1-.26 1.66.3 15 4a1.78 1.78 0 0 1 1.27 1.7z" fill="#ff9f38"/><path d="m86.27 58.4c0 8.77.13 10.61-.43 13.49-1.78 9.39-8.84 13.8-14.45 16.78a1.85 1.85 0 0 1 -1.74 0c-.78-.43-1.61-.88-2.25-1.27 11.86-6.66 18.87-15.06 18.87-29z" fill="#ff9f38"/><path d="m83.69 55.11a42.07 42.07 0 0 1 -18.8 27.62 3.52 3.52 0 0 1 -4.39-.53 20.57 20.57 0 0 1 -5.76-15v-12.13a2.06 2.06 0 0 1 1.49-2l13.48-3.88a2.87 2.87 0 0 1 1.59 0l10.7 3.1a2.46 2.46 0 0 1 1.69 2.82z" fill="#ffdb56"/><path d="m69.77 51.89-10.69 3.11a2.43 2.43 0 0 0 -1.75 2.33v1.84a2.42 2.42 0 0 0 2.42 2.42h7.06a2.42 2.42 0 0 0 1.94-1l3.68-4.91a2.45 2.45 0 0 0 -2.66-3.79z" fill="#ffff79"/><path d="m66.65 76.19-6.35-5a2.16 2.16 0 0 1 2.7-3.35l4.73 3.69 10.02-11.68a2.16 2.16 0 0 1 3.25 2.81l-11.39 13.24a2.17 2.17 0 0 1 -2.96.29z" fill="#ffbd38"/><path d="m66.65 73-6.35-5a2.16 2.16 0 0 1 2.7-3.4l4.73 3.69 10.02-11.68a2.16 2.16 0 1 1 3.25 2.81l-11.39 13.24a2.16 2.16 0 0 1 -2.96.34z" fill="#12c58b"/><rect fill="#ffdb56" height="2.64" rx=".82" width="4.15" x="60.05" y="57.08"/><g fill="#302d3d"><path d="m14.68 25.55h3v3a1 1 0 0 0 1 1h6a1 1 0 0 0 1-1v-3h3a1 1 0 0 0 1-1v-5.95a1 1 0 0 0 -1-1h-3v-3a1 1 0 0 0 -1-1h-6a1 1 0 0 0 -1 1v3h-3a1 1 0 0 0 -1 1v5.95a1 1 0 0 0 1 1zm1-5.95h3a1 1 0 0 0 1-1v-3h4v3a1 1 0 0 0 1 1h3v3.95h-3a1 1 0 0 0 -1 1v3h-4v-3a1 1 0 0 0 -1-1h-3z"/><path d="m14.13 41.26h43.43a1 1 0 0 0 0-2h-43.43a1 1 0 0 0 0 2z"/><path d="m14.13 74.64h22.29a1 1 0 0 0 0-2h-22.29a1 1 0 1 0 0 2z"/><path d="m92.24 46.16c-.32-.44.27-.13-16.92-5.08v-30.73a3.59 3.59 0 0 0 -3.58-3.58h-14.31c-6.62-6.63-6.62-6.72-6.93-6.72-.16-.06 3 0-43.69 0a3.28 3.28 0 0 0 -3.27 3.23v78.33a3.28 3.28 0 0 0 3.27 3.27h3.9v3.18a3.57 3.57 0 0 0 3.57 3.58h48.22c2 1.29 4 2.33 5.67 3.23 2.14 1.13 2.04 1.13 2.33 1.13s.36-.06 2.27-1.08c6.88-3.59 19.67-10.28 19.67-27.7 0-21.77.09-20.77-.2-21.06zm-3 1-3.19 2.4c-19.2-5.56-13.45-3.85-14.55-4.19v-3.31c1.26.38 16.17 4.64 17.75 5.1zm-18.72 40.84a40.67 40.67 0 0 1 -7.85-5.11 19.71 19.71 0 0 1 -6.94-15.67v-15.81l14.77-4.25 14.76 4.25v15.8c0 9.47-5 14.7-9.94 18a50.14 50.14 0 0 1 -4.8 2.79zm-1-45.93v3.31l-14.58 4.18-3.18-2.4zm2.22-33.3a1.58 1.58 0 0 1 1.58 1.58v30.15c-3.08-.88-2.61-.77-2.88-.75a12.38 12.38 0 0 0 -2.29.62v-22.46a1 1 0 0 0 -.3-.71l-8.43-8.43zm-7 8.14h-12.22a1.28 1.28 0 0 1 -1.27-1.28v-12.21c6.93 6.93 3.87 3.86 13.48 13.49zm-57.92 66a1.27 1.27 0 0 1 -1.27-1.27v-78.36a1.27 1.27 0 0 1 1.26-1.28h42.44v13.63a3.28 3.28 0 0 0 3.27 3.28h13.63v22l-13.5 3.89h-38.52a1 1 0 0 0 0 2h34.43v3.56h-34.43a1 1 0 1 0 0 2h34.43v3.64h-34.43a1 1 0 1 0 0 2h34.43v3.57h-34.43a1 1 0 0 0 0 2h34.43v3.56h-34.43a1 1 0 1 0 0 2h34.49a26.24 26.24 0 0 0 4.46 13.8zm7.47 6.76a1.57 1.57 0 0 1 -1.57-1.58v-3.21h41.86a30.34 30.34 0 0 0 5 4.76zm52.13 2c-9.22-5.17-15.16-11.71-15.79-22.56-.08-1.23-.06.09-.06-20.31l3.17 2.39v16c0 11.08 5.94 17.58 15.77 22.5v3.6c-.19-.08-1.85-.95-3.1-1.65zm5.44 1.5-.35.19v-3.62c9.72-4.86 15.75-11.74 15.75-22.53v-16l3.18-2.39v18.39c0 16.21-12.1 22.53-18.59 25.93z"/><path d="m81.77 60.06a3.16 3.16 0 0 0 -4.77-4.12l-9.45 11-4-3.11a3.16 3.16 0 1 0 -3.88 5l6.47 5a3.15 3.15 0 0 0 4.21-.51zm-12.93 11.94a1.18 1.18 0 0 1 -1.58.16l-6.35-5a1.16 1.16 0 0 1 -.21-1.63 1.18 1.18 0 0 1 1.63-.2l4.73 3.69a1 1 0 0 0 1.37-.14c6.12-7.09 4.92-5.69 10.07-11.68a1.16 1.16 0 0 1 1.76 1.51c-8.55 9.98-5.82 6.8-11.42 13.29z"/></g></g></svg>