<svg id="Layer_1" viewBox="0 0 512 512" xmlns="http://www.w3.org/2000/svg" xmlns:xlink="http://www.w3.org/1999/xlink" data-name="Layer 1"><linearGradient id="linear-gradient" gradientUnits="userSpaceOnUse" x1="256" x2="256" y1="500.738" y2="11.262"><stop offset="0" stop-color="#9345ff"/><stop offset="0" stop-color="#8e4aff"/><stop offset="1" stop-color="#00c1ff"/></linearGradient><path d="m443.711 365c.445 1.456.07 2.935-1.014 4.005-1.084 1.069-2.568 1.424-4.018.959l-23.852-7.641c-26.256 70.997-95.793 77.994-125.546 78.198-2.529.015-3.319-3.436-1.034-4.522 41.738-19.852 73.304-52.398 83.722-87.406l-22.331-7.154c-1.442-.462-2.441-1.603-2.709-3.093-.268-1.491.271-2.908 1.463-3.843l64.802-50.881c1.067-.837 2.365-1.074 3.659-.668 1.294.407 2.223 1.343 2.62 2.641l24.239 79.404zm-350.941-139.121c.397 1.298 1.326 2.234 2.62 2.641s2.592.17 3.659-.668l64.802-50.881c1.191-.935 1.73-2.352 1.463-3.843-.268-1.49-1.267-2.631-2.709-3.093l-22.331-7.153c10.418-35.008 41.983-67.554 83.722-87.406 2.285-1.086 1.494-4.537-1.034-4.522-29.753.205-99.29 7.201-125.547 78.198l-23.852-7.641c-1.45-.464-2.934-.11-4.018.959-1.084 1.07-1.459 2.548-1.014 4.005zm268.843-46.927h-44.566v70.502h44.566zm112.94-35.016c1.791 0 3.622-.142 5.402-.359v91.039c0 8.161-6.677 14.839-14.839 14.839h-89.501v-77.506c0-3.861-3.133-6.994-7.003-6.994h-58.568c-3.871 0-6.999 3.133-6.999 6.994v77.506h-19.132c-8.161 0-14.839-6.677-14.839-14.839v-91.039c1.78.217 3.611.359 5.402.359 12.888 0 25.138-5.819 33.346-15.708 8.209 9.89 20.457 15.708 33.346 15.708s25.139-5.819 33.346-15.708c8.208 9.89 20.458 15.708 33.346 15.708s25.137-5.818 33.346-15.708c8.209 9.89 20.457 15.708 33.346 15.708zm-27.201 17.52h-46.132v14h46.132zm-172.876-31.519c5.891 0 11.471-1.735 16.137-4.809 4.298-2.832 7.859-6.823 10.209-11.663v-17.186h-52.692v7.941c0 6.251 2.143 11.972 5.803 16.406 3.657 4.429 8.859 7.613 14.981 8.792.992.191 1.915.329 2.762.409.76.072 1.693.109 2.8.109zm40.346-33.658v17.186c2.351 4.84 5.911 8.832 10.209 11.663 4.666 3.074 10.246 4.809 16.137 4.809s11.471-1.735 16.137-4.809c4.315-2.843 7.886-6.854 10.236-11.719v-17.129h-52.72zm66.666 17.129c2.35 4.865 5.921 8.877 10.236 11.719 4.666 3.074 10.246 4.809 16.137 4.809s11.471-1.735 16.137-4.809c4.299-2.832 7.858-6.823 10.209-11.663v-17.186h-52.719v17.129zm66.719-17.129v17.186c2.35 4.84 5.911 8.832 10.209 11.663 4.666 3.074 10.247 4.809 16.138 4.809 1.106 0 2.039-.037 2.799-.109.846-.08 1.769-.218 2.762-.409 6.122-1.18 11.324-4.363 14.982-8.792 3.661-4.433 5.804-10.155 5.804-16.406v-7.941h-52.693zm47.588-14-37.009-64.1.012-.007-.012-.02c-1.276-2.21-3.003-3.944-5.043-5.122l.007-.012c-1.991-1.144-4.355-1.755-6.96-1.755h-26.246l25.554 71.016h49.698zm-64.515 0-25.554-71.016h-24.238v71.016zm-63.737 0v-71.017h-24.238l-25.554 71.016h49.792zm-39.055-71.016h-26.247c-2.595 0-4.959.615-6.953 1.767-1.945 1.123-3.606 2.752-4.862 4.817-.057.112-.117.222-.18.332l-37.01 64.1h49.697l25.554-71.016zm-248.47 489.475h44.566v-70.502h-44.566zm157.506-105.519c1.791 0 3.622-.142 5.402-.359v91.039c0 8.161-6.677 14.839-14.839 14.839h-89.501v-77.506c0-3.861-3.133-6.994-7.004-6.994h-58.568c-3.871 0-6.999 3.133-6.999 6.994v77.506h-19.132c-8.161 0-14.839-6.677-14.839-14.839v-91.039c1.78.217 3.611.359 5.402.359 12.888 0 25.139-5.819 33.347-15.708 8.209 9.89 20.456 15.708 33.346 15.708s25.139-5.819 33.347-15.708c8.208 9.89 20.458 15.708 33.346 15.708s25.137-5.818 33.346-15.708c8.209 9.89 20.457 15.708 33.346 15.708zm-27.201 17.52h-46.132v14h46.132zm-172.876-31.519c5.891 0 11.471-1.735 16.137-4.809 4.298-2.832 7.859-6.823 10.209-11.663v-17.186h-52.692v7.941c0 6.251 2.143 11.972 5.803 16.406 3.657 4.43 8.859 7.613 14.981 8.792.993.191 1.915.329 2.762.409.76.072 1.693.109 2.799.109zm40.346-16.472c2.35 4.84 5.911 8.832 10.209 11.663 4.666 3.074 10.246 4.809 16.137 4.809s11.471-1.735 16.137-4.809c4.315-2.843 7.887-6.854 10.237-11.72v-17.129h-52.72zm76.901 11.663c4.666 3.074 10.246 4.809 16.137 4.809s11.471-1.735 16.137-4.809c4.298-2.832 7.858-6.823 10.209-11.663v-17.186h-52.719v17.129c2.35 4.865 5.921 8.877 10.236 11.72zm56.483-11.663c2.35 4.84 5.911 8.832 10.209 11.663 4.666 3.074 10.247 4.809 16.138 4.809 1.106 0 2.039-.037 2.799-.109.846-.081 1.769-.218 2.762-.409 6.122-1.18 11.324-4.363 14.982-8.792 3.661-4.433 5.804-10.155 5.804-16.406v-7.941h-52.693v17.186zm47.588-31.185-37.009-64.1.012-.007-.012-.02c-1.276-2.21-3.003-3.944-5.043-5.122l.007-.012c-1.991-1.144-4.355-1.755-6.961-1.755h-26.246l25.554 71.016zm-90.069-71.016h-24.238v71.016h49.792zm-38.184 0h-24.237l-25.554 71.016h49.792v-71.016zm-39.055 0h-26.246c-2.595 0-4.959.615-6.953 1.767-1.945 1.123-3.606 2.752-4.862 4.817-.057.112-.117.222-.18.332l-37.009 64.1h49.697l25.554-71.016z" fill="url(#linear-gradient)" fill-rule="evenodd"/></svg>