<svg id="Layer_1" enable-background="new 0 0 512 512" viewBox="0 0 512 512" xmlns="http://www.w3.org/2000/svg" xmlns:xlink="http://www.w3.org/1999/xlink"><linearGradient id="SVGID_1_" gradientUnits="userSpaceOnUse" x1="256" x2="256" y1="20.997" y2="491.002"><stop offset="0" stop-color="#a03a8d"/><stop offset="1" stop-color="#1f3c8d"/></linearGradient><path d="m338.9 331.66v-17.92l12.72 8.4c2.09 1.38 4.81 1.32 6.83-.15s2.92-4.04 2.26-6.45l-4.54-16.41 13.32-10.61c1.96-1.56 2.74-4.17 1.97-6.55s-2.94-4.03-5.44-4.14l-17.01-.76-5.98-15.94c-.88-2.34-3.12-3.89-5.62-3.89s-4.74 1.55-5.62 3.89l-5.98 15.94-.77.03c-5.14-4.48-11.44-7.84-18.69-10.01 6.31-5.81 10.27-14.13 10.27-23.36 0-17.51-14.25-31.75-31.75-31.75s-31.75 14.25-31.75 31.75c0 9.22 3.95 17.52 10.24 23.33-22.29 6.62-32.51 23.65-32.51 40.56v24.04c0 3.31 2.69 6 6 6h96.04c3.33 0 6.01-2.69 6.01-6zm-3.24-46.67 1.75-4.67 1.75 4.67c.84 2.25 2.95 3.78 5.35 3.89l4.98.22-3.9 3.11c-1.88 1.5-2.68 3.97-2.04 6.29l1.33 4.81-4.16-2.75c-1-.66-2.16-.99-3.31-.99s-2.3.33-3.31.99l-4.16 2.75 1.33-4.8c.64-2.32-.16-4.79-2.04-6.29l-3.9-3.11 4.98-.22c2.4-.12 4.51-1.65 5.35-3.9zm-50.78-61.01c10.89 0 19.75 8.86 19.75 19.75s-8.86 19.75-19.75 19.75-19.75-8.86-19.75-19.75 8.86-19.75 19.75-19.75zm-42.02 101.68v-18.04c0-19.1 16.49-31.44 42.02-31.44 7.61 0 14.41 1.07 20.25 3.14-.8.7-1.42 1.59-1.76 2.65-.77 2.38.01 4.99 1.97 6.55l13.32 10.61-4.54 16.41c-.67 2.41.23 4.98 2.26 6.45 1.05.76 2.29 1.15 3.53 1.15 1.15 0 2.3-.33 3.31-.99l3.7-2.44v5.96h-84.06zm254.11 126.13c-.34-8.7-4-16.45-10.31-21.83l-84.24-71.91c7.15-10.99 12.7-23.11 16.3-36.05 13.07-28.06 19.7-58.1 19.7-89.29 0-116.74-94.97-211.71-211.71-211.71s-211.71 94.97-211.71 211.71 94.97 211.71 211.71 211.71c45.45 0 88.76-14.18 125.26-41.02 4.16-2.11 8.19-4.45 12.07-6.98l71.91 84.24c5.38 6.31 13.14 9.97 21.83 10.31.45.02.89.03 1.34.03 9.73 0 19.61-4.12 26.68-11.19 7.4-7.39 11.57-17.86 11.17-28.02zm-88.36-225.08c-15.71-29.94-42.73-53.05-75.34-63.64-2.32-12.65-5.23-24.68-8.67-35.99 20.53-5.65 39.34-13.07 55.52-22.08 27.69 33.21 44.83 75.51 46.2 121.71zm17.72 12c-.33 11.26-1.58 22.35-3.75 33.22-1.35-11.6-4.23-22.75-8.43-33.22zm-105.94-79.1c-8.8-1.88-17.93-2.88-27.29-2.88-21.78 0-42.32 5.38-60.38 14.86v-31.89c27.94-.42 55.17-3.74 80.22-9.63 2.89 9.42 5.39 19.32 7.45 29.54zm-87.68-31.92v-94.33c18.68 2.23 36.59 14.83 52.14 36.8 9.43 13.33 17.66 29.84 24.29 48.48-23.84 5.51-49.77 8.64-76.43 9.05zm-12-94.32v94.32c-26.68-.41-52.64-3.54-76.49-9.06 3.62-10.15 7.73-19.73 12.34-28.61 17.61-33.95 40.2-53.8 64.15-56.65zm0 106.32v39.03c-18.08 12.11-32.97 28.62-43.13 47.99h-51.56c.52-34.57 5.5-67.62 14.41-96.67 25.06 5.9 52.32 9.23 80.28 9.65zm-106.69 87.02h-86.92c1.37-46.2 18.5-88.5 46.2-121.71 16.18 9 34.98 16.43 55.51 22.08-9.16 30.06-14.27 64.11-14.79 99.63zm0 12c.52 35.5 5.62 69.53 14.77 99.59-20.57 5.66-39.29 13.1-55.49 22.13-27.7-33.21-44.83-75.52-46.2-121.71h86.92zm12 0h46.01c-6 14.97-9.32 31.3-9.32 48.39 0 14.93 2.53 29.27 7.17 42.64-10.13 1.48-19.97 3.35-29.47 5.58-8.89-29.03-13.87-62.06-14.39-96.61zm48.48 102.51c10.11 22.07 26.21 40.86 46.21 54.26v36.57c-23.95-2.85-46.54-22.7-64.15-56.64-4.61-8.89-8.74-18.48-12.35-28.64 9.73-2.26 19.85-4.11 30.29-5.55zm58.21 61.4c10.81 5.67 22.51 9.88 34.83 12.33-11.02 9.82-22.85 15.63-34.83 17.09zm-57.99-115.52c0-65.27 53.1-118.38 118.38-118.38s118.38 53.1 118.38 118.38-53.1 118.38-118.38 118.38-118.38-53.11-118.38-118.38zm197.24-191.31c-14.99 8.07-32.26 14.75-51.08 19.89-12.15-34.61-29.44-61.52-49.61-77.67 39.18 8.97 74.01 29.49 100.69 57.78zm-190.11-57.71c-13.35 10.74-25.54 26.36-35.94 46.41-5.02 9.67-9.48 20.12-13.37 31.19-18.82-5.14-36.09-11.82-51.07-19.89 26.61-28.22 61.32-48.71 100.38-57.71zm-100.38 331.55c14.99-8.08 32.19-14.78 51.06-19.92 3.89 11.08 8.36 21.54 13.39 31.22 10.4 20.04 22.59 35.67 35.94 46.41-39.07-9-73.78-29.49-100.39-57.71zm189.92 57.79c3.83-3.06 7.56-6.52 11.19-10.38 3.47.28 6.98.43 10.52.43 3.61 0 7.18-.15 10.72-.44-10.49 4.4-21.33 7.87-32.43 10.39zm124.01-59.59 17.62 15.04-24.15 24.15-15.04-17.62c8-6.33 15.24-13.57 21.57-21.57zm81.93 103.5c-5.07 5.07-12.21 7.94-19.06 7.66-3.76-.15-9.1-1.33-13.18-6.11l-48.4-56.7 25.49-25.49 56.7 48.4c4.78 4.08 5.96 9.42 6.11 13.18.26 6.87-2.6 13.99-7.66 19.06zm-78.08-184.23c0-58.53-47.62-106.15-106.15-106.15s-106.15 47.62-106.15 106.15 47.62 106.15 106.15 106.15 106.15-47.62 106.15-106.15zm-200.3 0c0-51.92 42.24-94.15 94.15-94.15s94.15 42.24 94.15 94.15-42.24 94.15-94.15 94.15c-51.92 0-94.15-42.24-94.15-94.15z" fill="url(#SVGID_1_)"/></svg>