<svg id="Layer_1" viewBox="0 0 512 512" xmlns="http://www.w3.org/2000/svg" xmlns:xlink="http://www.w3.org/1999/xlink" data-name="Layer 1"><linearGradient id="linear-gradient" gradientUnits="userSpaceOnUse" x1="90.594" x2="446.1" y1="431.787" y2="76.281"><stop offset="0" stop-color="#8d3fff"/><stop offset="1" stop-color="#00b4d1"/></linearGradient><path d="m463.205 258.47c0-110.225-89.674-199.899-199.899-199.899s-199.899 89.674-199.899 199.899 89.674 199.899 199.899 199.899 199.899-89.675 199.899-199.899zm-70.509 133.341c-11.857-10.079-24.745-18.663-38.396-25.647 10.615-29.794 16.605-64.402 17.289-100.694h77.471c-1.841 49.468-23.099 94.052-56.364 126.341zm-116.85-204.633-61.01 35.224-12.541-7.24 61.011-35.224zm-5.539 75.334 61.011-35.225v70.449l-61.011 35.225zm-7-12.125-12.54-7.24 61.013-35.224 12.539 7.239zm-26.54-15.323-7.931-4.579 61.011-35.224 7.931 4.579-61.012 35.224zm-14.931 7.546 7.932 4.579v18.328l-7.932-4.579zm-26.54-15.323 12.54 7.24v30.452c0 2.501 1.334 4.812 3.5 6.062l21.932 12.662c1.083.625 2.292.938 3.5.938s2.417-.312 3.5-.938c2.166-1.251 3.5-3.562 3.5-6.062v-22.369l12.54 7.24v70.449l-61.011-35.225v-70.449zm75.011 213.758v-82.642c23.001.86 45.414 5.952 66.227 14.872-2.391 5.675-4.968 11.126-7.734 16.314-16.149 30.287-36.702 48.273-58.494 51.455zm7.494-96.245 64.017-36.962c2.166-1.25 3.5-3.561 3.5-6.062v-36.307h12.27c-.667 34.208-6.218 66.736-16.026 94.734-20.135-8.567-41.651-13.807-63.762-15.404zm67.517-93.33v-36.309c0-2.501-1.334-4.812-3.5-6.062l-64.019-36.96c22.112-1.596 43.627-6.837 63.763-15.404 9.808 27.998 15.359 60.527 16.026 94.735zm-75.011-92.935v-82.641c21.792 3.182 42.344 21.168 58.494 51.455 2.766 5.188 5.343 10.64 7.734 16.315-20.813 8.92-43.226 14.012-66.228 14.871zm70.847-37.772c-9.852-18.477-21.39-32.935-34.036-42.964 28.033 6.798 53.602 19.962 75.083 37.878-10.259 8.545-21.331 15.895-33.011 21.985-2.488-5.868-5.165-11.514-8.036-16.899zm-163.729 16.899c-11.68-6.09-22.752-13.439-33.011-21.985 21.481-17.916 47.05-31.08 75.083-37.878-12.646 10.03-24.184 24.487-34.036 42.964-2.871 5.384-5.548 11.031-8.036 16.899zm20.389-10.312c16.15-30.287 36.702-48.273 58.493-51.455v82.641c-23.002-.859-45.414-5.95-66.227-14.871 2.391-5.675 4.968-11.127 7.734-16.315zm51 44.789-64.018 36.96c-2.166 1.251-3.5 3.562-3.5 6.062v36.309h-12.27c.667-34.208 6.218-66.737 16.026-94.735 20.135 8.567 41.651 13.807 63.762 15.404zm-67.518 93.331v36.307c0 2.501 1.334 4.812 3.5 6.062l64.017 36.961c-22.111 1.596-43.627 6.837-63.762 15.404-9.808-27.998-15.358-60.526-16.026-94.734h12.27zm75.011 92.934v82.641c-21.792-3.182-42.344-21.168-58.494-51.455-2.766-5.188-5.344-10.64-7.734-16.316 20.813-8.92 43.226-14.012 66.228-14.871zm-70.847 37.773c9.852 18.477 21.39 32.934 34.036 42.964-28.033-6.798-53.602-19.962-75.083-37.879 10.259-8.545 21.331-15.895 33.011-21.985 2.488 5.868 5.165 11.515 8.036 16.899zm155.693 0c2.871-5.384 5.548-11.031 8.036-16.899 11.681 6.089 22.753 13.439 33.012 21.984-21.481 17.916-47.051 31.08-75.084 37.879 12.646-10.03 24.184-24.487 34.036-42.964zm107.908-144.707h-77.471c-.684-36.292-6.675-70.901-17.29-100.695 13.651-6.984 26.539-15.568 38.396-25.647 33.266 32.289 54.523 76.873 56.365 126.342zm-315.144-126.342c11.857 10.079 24.745 18.663 38.396 25.647-10.615 29.794-16.606 64.403-17.29 100.694h-77.471c1.841-49.469 23.099-94.052 56.365-126.342zm-56.365 140.342h77.471c.684 36.291 6.674 70.9 17.289 100.694-13.651 6.984-26.539 15.568-38.396 25.647-33.265-32.289-54.523-76.873-56.364-126.341zm27.6-184.591c-2.485-2.961-2.099-7.376.863-9.861 43.997-36.917 99.857-57.249 157.291-57.249 1.763 0 3.526.02 5.286.058.892.019 1.782.057 2.674.087.857.028 1.715.048 2.571.085 1.231.053 2.46.127 3.688.199.505.03 1.011.051 1.516.084 1.457.094 2.912.209 4.365.329.268.022.537.039.805.062 1.637.141 3.271.302 4.903.475.077.008.154.015.232.023 31.048 3.336 61.151 12.599 88.631 27.164.025.013.049.026.073.039 1.465.777 2.923 1.568 4.372 2.375.138.077.275.155.412.232 1.339.749 2.673 1.509 3.999 2.283.254.148.506.299.759.448 1.21.713 2.417 1.433 3.615 2.167.372.228.741.46 1.111.69 1.08.669 2.158 1.343 3.228 2.03.488.313.972.633 1.458.95.952.62 1.902 1.242 2.846 1.875.595.399 1.184.807 1.776 1.212.834.571 1.669 1.141 2.497 1.723.685.481 1.363.973 2.043 1.462.517.372 1.039.735 1.553 1.111l-.533-6.086c-.337-3.852 2.512-7.246 6.363-7.584 3.854-.323 7.247 2.513 7.583 6.363l1.938 22.142c.02.228.028.457.026.686 0 .054-.007.108-.009.162-.006.174-.013.349-.032.522-.005.048-.016.096-.022.144-.023.178-.048.356-.085.533-.008.036-.019.07-.027.106-.042.187-.089.374-.146.558-.007.023-.017.045-.024.067-.063.193-.132.385-.212.574-.011.025-.024.049-.035.073-.08.183-.166.364-.263.541-.03.055-.067.107-.099.162-.083.142-.165.285-.259.423-.131.192-.272.379-.423.558-.16.191-.331.371-.509.542-.071.069-.146.13-.22.195-.109.096-.217.192-.331.281-.093.073-.189.139-.285.206-.101.071-.202.141-.307.206-.104.065-.21.126-.316.185-.104.058-.21.113-.317.166-.108.053-.216.103-.326.15-.114.049-.23.093-.347.136-.106.039-.212.077-.32.111-.128.04-.258.073-.388.106-.101.025-.2.052-.302.072-.143.029-.288.049-.434.07-.092.013-.184.029-.276.038-.025.002-.049.008-.075.01l-22.145 1.937c-.208.018-.414.026-.618.026-3.59 0-6.647-2.746-6.965-6.391-.337-3.851 2.512-7.246 6.363-7.583l4.338-.379c-.539-.386-1.076-.776-1.618-1.158-.775-.545-1.557-1.079-2.338-1.613-.563-.385-1.124-.773-1.69-1.154-.885-.595-1.778-1.178-2.671-1.76-.463-.302-.923-.606-1.388-.904-1.004-.644-2.015-1.276-3.028-1.904-.354-.22-.707-.442-1.063-.66-1.126-.689-2.258-1.366-3.395-2.035-.243-.143-.485-.288-.729-.43-1.246-.727-2.499-1.442-3.758-2.146-.134-.075-.267-.151-.401-.225-1.363-.758-2.734-1.503-4.111-2.234-.027-.014-.053-.029-.08-.043-25.915-13.721-54.328-22.455-83.557-25.607-.07-.008-.141-.013-.211-.021-1.542-.165-3.086-.315-4.631-.449-.247-.021-.494-.037-.741-.057-1.375-.114-2.752-.222-4.13-.312-.48-.031-.96-.051-1.44-.079-1.156-.068-2.312-.137-3.469-.187-.797-.034-1.595-.053-2.393-.079-.85-.028-1.7-.064-2.551-.083-1.66-.036-3.321-.055-4.983-.055-54.148 0-106.812 19.168-148.292 53.974-.301.253-.62.468-.948.661-.046.027-.089.057-.135.082-.313.176-.637.321-.967.445-.062.023-.124.046-.187.068-.329.112-.663.201-1.002.263-.06.011-.119.018-.179.027-.35.054-.701.089-1.053.09-.008 0-.016.002-.024.002-.074 0-.148-.01-.222-.012-.152-.005-.304-.01-.455-.024-.101-.01-.2-.027-.3-.041-.135-.019-.269-.038-.403-.065-.105-.021-.208-.047-.312-.073-.127-.032-.254-.065-.379-.103-.104-.032-.207-.068-.31-.105-.123-.044-.244-.092-.365-.143-.101-.043-.2-.087-.299-.135-.12-.058-.238-.121-.356-.186-.094-.052-.188-.104-.28-.161-.12-.074-.235-.155-.351-.236-.084-.06-.17-.117-.252-.18-.125-.097-.244-.203-.363-.309-.066-.059-.135-.113-.199-.175-.18-.173-.354-.356-.519-.552zm83.433 403.352c-1.035 2.842-3.719 4.607-6.578 4.607-.795 0-1.603-.137-2.394-.424-53.97-19.644-99.507-57.854-128.224-107.594-25.916-44.887-36.886-97.253-31.354-148.653l-5.012 3.51c-3.167 2.218-7.531 1.448-9.749-1.72-2.217-3.166-1.448-7.531 1.719-9.749l18.208-12.75c1.521-1.064 3.404-1.48 5.23-1.159 1.829.322 3.454 1.358 4.519 2.879l12.75 18.209c2.217 3.167 1.448 7.531-1.719 9.749-1.222.855-2.622 1.266-4.009 1.266-2.207 0-4.378-1.04-5.74-2.985l-2.5-3.57c-4.679 47.76 5.713 96.286 29.781 137.973 27.074 46.894 70.006 82.918 120.888 101.438 3.633 1.322 5.506 5.34 4.184 8.973zm286.639-103.41c-25.911 44.879-65.782 80.572-113.057 101.481l5.543 2.585c3.503 1.634 5.02 5.799 3.386 9.302-1.188 2.547-3.713 4.044-6.349 4.044-.991 0-1.997-.212-2.954-.658l-20.146-9.395c-1.682-.784-2.984-2.205-3.619-3.95-.635-1.744-.551-3.67.234-5.353l9.395-20.146c1.634-3.503 5.798-5.018 9.302-3.385 3.504 1.634 5.02 5.799 3.385 9.303l-1.841 3.948c43.697-19.826 80.534-53.097 104.598-94.776 27.074-46.895 36.806-102.087 27.403-155.411-.671-3.808 1.871-7.438 5.678-8.109 3.799-.666 7.437 1.871 8.109 5.678 9.974 56.561-.349 115.103-29.066 164.843z" fill="url(#linear-gradient)"/></svg>