<svg height="512" viewBox="0 0 100 100" width="512" xmlns="http://www.w3.org/2000/svg"><g id="Layer_3" data-name="Layer 3"><path d="m87.6 58.75a4.5 4.5 0 0 0 -4.5-4.51h1.7v-16.99a3.026 3.026 0 0 0 -3.02-3.03h-6.46v-11.74a2.914 2.914 0 0 0 -2.82-2.99h-3.58v-2.24c0-3.96-2.86-7.16-6.4-7.16h-24.99c-3.53 0-6.39 3.2-6.39 7.16v2.24h-3.58a2.914 2.914 0 0 0 -2.82 2.99v11.74h-6.46a3.034 3.034 0 0 0 -3.03 3.03v16.99h1.71a4.511 4.511 0 0 0 -4.51 4.51v15.14h-1.68v9.24a167.091 167.091 0 0 0 22.35 3.36 166.743 166.743 0 0 0 16.91.54 166.743 166.743 0 0 0 16.91-.54 167.091 167.091 0 0 0 22.35-3.36v-9.24h-1.69zm-25.63-5.58v15.17h-23.88v-15.17a1.524 1.524 0 0 1 1.53-1.53h20.82a1.524 1.524 0 0 1 1.53 1.53zm-31.95-23.53a4.535 4.535 0 0 1 4.53-4.54h30.96a4.535 4.535 0 0 1 4.53 4.54v7.44a3.6 3.6 0 0 1 -3.6 3.6h-32.82a3.6 3.6 0 0 1 -3.6-3.6z" fill="#83d0f5"/></g><g id="Layer_4" data-name="Layer 4"><path d="m13.75 37.25v16.428a6 6 0 0 0 -2.8 5.072c0 15.157.081 13.64-.18 13.64a1.5 1.5 0 0 0 -1.5 1.5v9.24a1.5 1.5 0 0 0 1.178 1.47c1.235.272 2.479.509 3.722.753v6.767c0 2.635 2.9 4.7 6.6 4.7h7.25c3.7 0 6.6-2.065 6.6-4.7v-4.02a245.878 245.878 0 0 0 30.82 0v4.02c0 2.635 2.9 4.7 6.6 4.7h7.25c3.7 0 6.6-2.065 6.6-4.7v-6.772c1.243-.244 2.487-.481 3.722-.753a1.5 1.5 0 0 0 1.178-1.465v-9.24a1.509 1.509 0 0 0 -1.69-1.5v-13.64a6.008 6.008 0 0 0 -2.8-5.075v-16.425a4.514 4.514 0 0 0 -3.05-4.258v-19.302h1.55a1.5 1.5 0 0 0 1.5-1.5v-6.87a1.5 1.5 0 0 0 -1.5-1.5h-4a7.143 7.143 0 0 0 -6.98 7.28v7.127c-.865-.291-1.063-.237-3.4-.237 0-6.135-3.891-9.4-7.9-9.4h-24.99c-4.052 0-7.89 3.309-7.89 9.4-2 0-2.474-.074-3.4.237v-7.127a7.143 7.143 0 0 0 -6.98-7.28h-4.01a1.5 1.5 0 0 0 -1.5 1.5v6.87a1.5 1.5 0 0 0 1.5 1.5h1.55v19.3a4.522 4.522 0 0 0 -3.05 4.26zm17.87 54.87c0 .677-1.436 1.7-3.6 1.7h-7.25c-2.164 0-3.6-1.023-3.6-1.7v-6.2c4.8.855 9.632 1.5 14.45 1.933zm51.27 0c0 .677-1.436 1.7-3.6 1.7h-7.25c-2.164 0-3.6-1.023-3.6-1.7v-4.271c4.819-.433 9.652-1.078 14.45-1.933zm4.9-16.73v6.529a190.925 190.925 0 0 1 -75.52 0v-6.529zm-53.76-3v-20.37a4.44 4.44 0 0 1 4.43-4.44h23.13a4.445 4.445 0 0 1 4.44 4.44v20.37zm42.79-61.29a4.143 4.143 0 0 1 3.98-4.28h2.5v3.87h-1.55a1.5 1.5 0 0 0 -1.5 1.5v20.53h-3.43zm0 24.62h4.96a1.527 1.527 0 0 1 1.52 1.53v15.49h-6.48zm6.28 20.02a3.008 3.008 0 0 1 3 3.01v13.64h-17.07v-16.65zm-50.46-38.49c0-3.121 2.193-5.66 4.89-5.66h24.99c2.7 0 4.9 2.539 4.9 5.66v.74h-34.78zm-6.4 5.23a1.415 1.415 0 0 1 1.32-1.49h44.94a1.415 1.415 0 0 1 1.32 1.49v30.26h-4.79v-.72a7.448 7.448 0 0 0 -7.44-7.44h-23.13a7.443 7.443 0 0 0 -7.43 7.44v.72h-4.79zm4.79 33.26v16.65h-17.08v-13.64a3.013 3.013 0 0 1 3.01-3.01zm-14.28-45.05v-3.87h2.51a4.143 4.143 0 0 1 3.98 4.28v21.62h-3.44v-20.53a1.5 1.5 0 0 0 -1.5-1.5zm1.55 25.03h4.94v17.02h-6.49v-15.49a1.536 1.536 0 0 1 1.55-1.53zm42.14 14.42h-20.82a3.034 3.034 0 0 0 -3.03 3.03v15.17a1.5 1.5 0 0 0 1.5 1.5h23.88a1.5 1.5 0 0 0 1.5-1.5v-15.17a3.034 3.034 0 0 0 -3.03-3.03zm-15.75 16.7h-5.1l.027-13.7 5.07.007zm7.68 0h-4.68v-13.688l4.68.006zm8.1 0h-5.1v-13.677l5.1.007zm5.97-24.66a5.106 5.106 0 0 0 5.1-5.1v-7.44a6.042 6.042 0 0 0 -6.03-6.04h-30.96a6.042 6.042 0 0 0 -6.03 6.04v7.44a5.106 5.106 0 0 0 5.1 5.1zm-34.92-5.1v-7.44a3.038 3.038 0 0 1 3.03-3.04h30.96a3.038 3.038 0 0 1 3.03 3.04v7.44a2.1 2.1 0 0 1 -2.1 2.1h-32.82a2.1 2.1 0 0 1 -2.1-2.1zm7.874-2.946 8.52-5.719a1.5 1.5 0 0 1 1.672 2.491c-9.228 6.2-8.719 5.974-9.355 5.974a1.5 1.5 0 0 1 -.837-2.746zm12.12 0 8.52-5.719a1.5 1.5 0 0 1 1.672 2.491c-9.228 6.2-8.719 5.974-9.354 5.974a1.5 1.5 0 0 1 -.838-2.746z" fill="#016bbe"/></g></svg>