<svg id="Layer_1" viewBox="0 0 512 512" xmlns="http://www.w3.org/2000/svg" data-name="Layer 1"><path d="m177.992 148.319v35.434c0 2.899 1.803 5.255 4.594 6l22.255 5.953c2.039.546 3.641 2.124 4.218 4.154 2.621 9.228 6.306 18.146 10.953 26.504 1.023 1.841 1.005 4.084-.047 5.908l-11.508 19.956c-1.436 2.505-1.051 5.439.986 7.463l25.074 25.072c2.053 2.054 5 2.445 7.509.999l19.92-11.504c.927-.536 1.963-.804 2.999-.804 1.008 0 2.016.254 2.926.763 8.355 4.671 17.263 8.353 26.476 10.941 2.038.572 3.623 2.178 4.169 4.222l5.953 22.252c.746 2.794 3.101 4.598 6 4.598h35.433c2.899 0 5.254-1.804 6-4.594l5.954-22.256c.547-2.044 2.132-3.649 4.169-4.222 9.251-2.6 18.168-6.281 26.504-10.941 1.844-1.031 4.095-1.017 5.924.041l19.928 11.509c2.5 1.448 5.426 1.059 7.458-.988l25.074-25.073c2.062-2.048 2.451-4.974 1.007-7.469l-11.512-19.934c-1.056-1.829-1.072-4.08-.041-5.924 4.659-8.333 8.34-17.251 10.941-26.504.573-2.038 2.177-3.622 4.222-4.17l22.252-5.953c2.794-.745 4.597-3.101 4.597-6v-35.434c0-2.899-1.804-5.254-4.595-6l-22.254-5.952c-2.045-.547-3.649-2.132-4.222-4.17-2.59-9.215-6.271-18.123-10.941-26.477-1.031-1.845-1.015-4.095.042-5.924l11.508-19.927c1.441-2.503 1.049-5.451-1.003-7.503l-25.059-25.059c-2.038-2.052-4.973-2.437-7.492-.993l-19.91 11.498c-1.826 1.056-4.07 1.073-5.912.049-8.338-4.636-17.265-8.321-26.533-10.953-2.03-.577-3.608-2.18-4.153-4.218l-5.953-22.252c-.746-2.794-3.101-4.597-6-4.597h-35.433c-2.9 0-5.255 1.803-6 4.593l-5.954 22.256c-.547 2.044-2.131 3.649-4.169 4.222-9.12 2.563-18.032 6.247-26.489 10.949-1.84 1.023-4.081 1.006-5.906-.045l-19.928-11.48c-2.52-1.45-5.467-1.069-7.507.972l-25.059 25.059c-2.048 2.048-2.438 4.999-.993 7.52l11.499 19.91c1.054 1.824 1.072 4.068.048 5.911-4.647 8.359-8.332 17.277-10.953 26.505-.577 2.031-2.179 3.608-4.218 4.154l-22.252 5.952c-2.793.746-4.597 3.101-4.597 6zm150.194-73.374c50.243 0 91.119 40.863 91.119 91.091s-40.876 91.12-91.119 91.12-91.091-40.876-91.091-91.12 40.863-91.091 91.091-91.091z" fill="#94c1ff"/><path d="m135.624 468.032-61.37-106.328c-1.88-3.245-5.303-5.062-8.818-5.062-1.727 0-3.475.438-5.074 1.362l-21.824 12.612c-2.339 1.342-4.005 3.513-4.709 6.124-.711 2.637-.354 5.387 1.005 7.741l61.369 106.3c1.355 2.348 3.555 4.028 6.192 4.733 2.621.699 5.343.345 7.664-1l21.864-12.619c2.326-1.348 3.999-3.541 4.704-6.173.704-2.629.35-5.356-.998-7.683-.002-.002-.003-.005-.005-.008z" fill="#94c1ff"/><g fill="#116fff"><path d="m193.297 463.662c3.82 1.237 7.77 2.517 11.871 3.701 25.705 7.443 53.746 14.799 77.585 14.798 10.007 0 19.277-1.297 27.317-4.427 14.895-5.814 137.195-78.305 162.063-104.802 25.046-26.655 19.925-42.746 11.154-51.57-8.12-8.754-25.307-13.066-49.338.991-2.766 1.62-5.672 3.33-8.698 5.111-29.084 17.116-71.572 42.122-103.964 53.62.026-3.853-.929-7.75-2.868-11.595-16.467-32.657-101.584-55.981-121.64-58.213-31.206-3.461-71.878 20.667-111.708 45.182l-.438-.758c-6.118-10.559-19.695-14.184-30.27-8.08l-21.809 12.604c-5.106 2.929-8.765 7.686-10.304 13.395-1.546 5.736-.765 11.723 2.199 16.856l61.369 106.3c2.958 5.125 7.747 8.791 13.482 10.323 1.91.511 3.846.763 5.768.763 3.832 0 7.605-1.004 10.993-2.967l21.863-12.619c5.1-2.954 8.752-7.731 10.284-13.451 1.534-5.728.751-11.69-2.204-16.792l-.462-.8c16.239-7.781 30.337-3.214 47.753 2.43zm-56.67 12.061c-.705 2.632-2.378 4.825-4.704 6.173l-21.864 12.619c-2.32 1.345-5.042 1.699-7.664 1-2.638-.705-4.837-2.386-6.192-4.733l-61.369-106.3c-1.359-2.354-1.716-5.104-1.005-7.741.704-2.611 2.37-4.782 4.709-6.124l21.824-12.612c1.599-.924 3.348-1.362 5.074-1.362 3.515 0 6.938 1.817 8.818 5.062l61.37 106.328s.003.006.005.008c1.347 2.326 1.701 5.054.998 7.683zm2.911-24.897-48.469-83.977c36.648-22.557 77.153-46.663 104.389-43.655 23.475 2.612 99.54 26.476 112.256 51.694 2.18 4.323 2.111 8.206-.217 12.217-.017.028-.026.059-.042.087-.032.057-.068.111-.099.17-3.035 5.872-15.98 13.4-68.601-2.174-3.172-.938-6.51.873-7.45 4.048-.939 3.175.873 6.511 4.048 7.45 21.927 6.489 39.319 9.741 52.56 9.741 14.16 0 23.555-3.736 28.666-11.201 34.474-10.186 80.757-37.418 114.757-57.429 3.018-1.776 5.917-3.482 8.674-5.097 17.976-10.515 29.839-8.263 34.533-3.138.061.066.123.131.187.194 7.371 7.354 3.559 19.117-11.334 34.967-23.251 24.775-143.404 96.267-157.677 101.838-23.698 9.225-62.604-.694-97.217-10.718-3.92-1.132-7.776-2.382-11.506-3.59-18.796-6.09-36.635-11.854-57.455-1.429z"/><path d="m179.493 130.735c-8.069 2.155-13.491 9.222-13.491 17.584v35.434c0 8.363 5.422 15.431 13.489 17.584l19.012 5.086c2.446 7.854 5.599 15.483 9.405 22.757l-9.845 17.072c-4.159 7.256-2.981 16.076 2.917 21.933l25.058 25.058c5.908 5.907 14.735 7.077 21.978 2.908l17.022-9.83c7.277 3.826 14.91 6.98 22.765 9.408l5.083 19c2.154 8.07 9.221 13.492 17.584 13.492h35.433c8.363 0 15.43-5.422 17.583-13.489l5.083-19.002c7.881-2.435 15.523-5.589 22.793-9.409l17.017 9.827c7.243 4.192 16.073 3.02 21.955-2.905l25.043-25.043c5.94-5.898 7.114-14.728 2.923-21.964l-9.831-17.022c3.82-7.269 6.974-14.909 9.409-22.792l19-5.084c8.07-2.153 13.492-9.221 13.492-17.584v-35.434c0-8.362-5.421-15.429-13.489-17.584l-19.003-5.083c-2.428-7.855-5.583-15.487-9.408-22.765l9.834-17.028c4.165-7.235 2.995-16.065-2.912-21.971l-25.043-25.043c-5.87-5.913-14.688-7.094-21.965-2.924l-17.029 9.835c-7.263-3.8-14.901-6.952-22.783-9.404l-5.085-19.009c-2.154-8.069-9.221-13.491-17.584-13.491h-35.433c-8.364 0-15.43 5.422-17.583 13.488l-5.084 19.004c-7.794 2.413-15.424 5.569-22.762 9.413l-17.033-9.812c-7.246-4.171-16.075-3.01-21.969 2.885l-25.059 25.059c-5.895 5.895-7.068 14.72-2.908 21.978l9.835 17.029c-3.806 7.272-6.958 14.901-9.403 22.755l-19.011 5.085zm29.566 1.478c2.621-9.228 6.306-18.146 10.953-26.505 1.024-1.843 1.005-4.087-.048-5.911l-11.499-19.91c-1.445-2.521-1.055-5.472.993-7.52l25.059-25.059c2.04-2.041 4.987-2.422 7.507-.972l19.928 11.48c1.825 1.051 4.066 1.068 5.906.045 8.457-4.702 17.369-8.386 26.489-10.949 2.038-.572 3.622-2.178 4.169-4.222l5.954-22.256c.745-2.79 3.1-4.593 6-4.593h35.433c2.9 0 5.255 1.803 6 4.597l5.953 22.252c.545 2.038 2.123 3.641 4.153 4.218 9.268 2.632 18.195 6.317 26.533 10.953 1.842 1.024 4.086 1.007 5.912-.049l19.91-11.498c2.519-1.443 5.454-1.059 7.492.993l25.059 25.059c2.052 2.052 2.444 5 1.003 7.503l-11.508 19.927c-1.057 1.829-1.072 4.079-.042 5.924 4.67 8.354 8.351 17.262 10.941 26.477.573 2.038 2.177 3.623 4.222 4.17l22.254 5.952c2.792.746 4.595 3.101 4.595 6v35.434c0 2.899-1.803 5.255-4.597 6l-22.252 5.953c-2.045.548-3.649 2.132-4.222 4.17-2.601 9.253-6.282 18.171-10.941 26.504-1.031 1.844-1.015 4.095.041 5.924l11.512 19.934c1.444 2.495 1.055 5.421-1.007 7.469l-25.074 25.073c-2.032 2.047-4.958 2.437-7.458.988l-19.928-11.509c-1.829-1.058-4.081-1.072-5.924-.041-8.336 4.66-17.253 8.342-26.504 10.941-2.038.572-3.623 2.178-4.169 4.222l-5.954 22.256c-.745 2.79-3.1 4.594-6 4.594h-35.433c-2.899 0-5.254-1.804-6-4.598l-5.953-22.252c-.547-2.044-2.132-3.649-4.169-4.222-9.213-2.589-18.121-6.271-26.476-10.941-.91-.509-1.917-.763-2.926-.763-1.036 0-2.071.268-2.999.804l-19.92 11.504c-2.509 1.446-5.457 1.055-7.509-.999l-25.074-25.072c-2.038-2.023-2.422-4.958-.986-7.463l11.508-19.956c1.052-1.824 1.07-4.067.047-5.908-4.647-8.358-8.332-17.276-10.953-26.504-.577-2.03-2.179-3.608-4.218-4.154l-22.255-5.953c-2.791-.745-4.594-3.101-4.594-6v-35.434c0-2.899 1.804-5.254 4.597-6l22.252-5.952c2.039-.546 3.641-2.123 4.218-4.154z"/><path d="m291.336 172.031h30.855v30.855c0 3.312 2.684 5.995 5.995 5.995s5.995-2.684 5.995-5.995v-30.855h30.855c3.311 0 5.995-2.684 5.995-5.995s-2.684-5.995-5.995-5.995h-30.855v-30.855c0-3.312-2.684-5.995-5.995-5.995s-5.995 2.684-5.995 5.995v30.855h-30.855c-3.311 0-5.995 2.684-5.995 5.995s2.684 5.995 5.995 5.995z"/><path d="m328.187 257.156c50.243 0 91.119-40.876 91.119-91.12s-40.876-91.091-91.119-91.091-91.091 40.863-91.091 91.091 40.863 91.12 91.091 91.12zm0-170.221c43.632 0 79.129 35.484 79.129 79.101s-35.497 79.13-79.129 79.13-79.101-35.498-79.101-79.13 35.485-79.101 79.101-79.101z"/></g></svg>