<svg xmlns="http://www.w3.org/2000/svg" fill="none" viewBox="0 0 702 600"><path fill="#E7E9FA" d="M381.33 520.56c121.93 0 220.78-98.85 220.78-220.78S503.26 79 381.33 79s-220.8 98.85-220.8 220.78 98.86 220.78 220.79 220.78Z"></path><path fill="#8B8A88" stroke="#3B3B3B" stroke-linecap="round" stroke-linejoin="round" stroke-width=".86" d="m344.75 444.34-8.84-4.88.16-8.88 8.64-.37.05 14.13Z"></path><path fill="#CBCAC7" stroke="#3B3B3B" stroke-linecap="round" stroke-linejoin="round" stroke-width=".86" d="m280.85 479.58-5.38-3.17-.83-2.84a4.76 4.76 0 0 1 3.7.34 5.51 5.51 0 0 1 2.51 5.67Z"></path><path fill="#607480" stroke="#052439" stroke-linecap="round" stroke-linejoin="round" stroke-width=".86" d="M276.32 475.71c-1.13-.54-2.65-.41-4.3.54-3.52 2.03-6.38 6.98-6.38 11.03 0 1.94.66 3.33 1.72 4.04l-3.5-2.02c-1.12-.68-1.81-2.1-1.81-4.1 0-4.05 2.84-8.99 6.36-11.02 1.8-1.04 3.43-1.11 4.59-.39l3.3 1.93h.02Z"></path><path fill="#566AE5" stroke="#24303E" stroke-linecap="round" stroke-linejoin="round" stroke-width=".86" d="M278.39 479.93c0 4.06-2.85 9-6.36 11.03-1.81 1.05-3.46 1.12-4.62.37l-.05-.01c-1.06-.7-1.71-2.09-1.71-4.04 0-4.05 2.86-9 6.38-11.03 1.65-.95 3.16-1.08 4.3-.54 1.27.62 2.06 2.09 2.06 4.22h0Z"></path><path fill="#86949E" stroke="#052439" stroke-linecap="round" stroke-linejoin="round" stroke-width=".86" d="M278.39 479.93c0 4.06-2.85 9-6.36 11.03-1.81 1.05-3.46 1.12-4.62.37l-.05-.01c-1.06-.7-1.71-2.09-1.71-4.04 0-4.05 2.86-9 6.38-11.03 1.65-.95 3.16-1.08 4.3-.54 1.27.62 2.06 2.09 2.06 4.22h0Z"></path><path fill="#CBD0D4" stroke="#052439" stroke-linecap="round" stroke-linejoin="round" stroke-width=".86" d="M275.15 481.3a10.19 10.19 0 0 1-3.57 6.17c-1.43 1.07-2.52.76-2.7-.6a5.63 5.63 0 0 0 .83-.48 10.18 10.18 0 0 0 3.57-6.18 4.4 4.4 0 0 0 0-.95c1.27-.53 2.08.25 1.87 2.04Z"></path><path fill="#607480" stroke="#052439" stroke-linecap="round" stroke-linejoin="round" stroke-width=".86" d="M273.28 480.2a10.18 10.18 0 0 1-3.57 6.19c-.3.2-.56.36-.82.47a4.4 4.4 0 0 1 0-.95c.23-2.13 1.84-4.9 3.57-6.18.29-.2.56-.36.82-.47a5 5 0 0 1 0 .95Z"></path><path fill="#CBD0D4" stroke="#052439" stroke-linecap="round" stroke-linejoin="round" stroke-width=".86" d="M272.36 482.51a2.4 2.4 0 0 1-1.08 1.88c-.31.18-.59.19-.79.07-.18-.12-.3-.35-.3-.7 0-.68.5-1.52 1.1-1.88.28-.16.54-.19.73-.1.21.11.35.36.35.73h0Z"></path><path fill="#CBCAC7" stroke="#3B3B3B" stroke-linecap="round" stroke-linejoin="round" stroke-width=".86" d="m265.62 488.33-5.37-3.17-.84-2.84a4.75 4.75 0 0 1 3.7.34 5.51 5.51 0 0 1 2.51 5.67Z"></path><path fill="#607480" stroke="#052439" stroke-linecap="round" stroke-linejoin="round" stroke-width=".86" d="M261.3 484.46c-1.13-.54-2.65-.42-4.3.54-3.52 2.03-6.38 6.97-6.38 11.03 0 1.94.66 3.33 1.72 4.03l-3.5-2.01c-1.12-.68-1.81-2.1-1.81-4.1 0-4.05 2.84-9 6.36-11.03 1.8-1.03 3.43-1.1 4.59-.38l3.3 1.93.02-.01Z"></path><path fill="#566AE5" stroke="#24303E" stroke-linecap="round" stroke-linejoin="round" stroke-width=".86" d="M263.37 488.68c0 4.06-2.85 9-6.36 11.02-1.81 1.05-3.46 1.12-4.62.38l-.05-.02c-1.06-.7-1.71-2.08-1.71-4.03 0-4.06 2.86-9 6.38-11.03 1.65-.96 3.16-1.08 4.3-.54 1.27.62 2.06 2.08 2.06 4.22h0Z"></path><path fill="#86949E" stroke="#052439" stroke-linecap="round" stroke-linejoin="round" stroke-width=".86" d="M263.37 488.68c0 4.06-2.85 9-6.36 11.02-1.81 1.05-3.46 1.12-4.62.38l-.05-.02c-1.06-.7-1.71-2.08-1.71-4.03 0-4.06 2.86-9 6.38-11.03 1.65-.96 3.16-1.08 4.3-.54 1.27.62 2.06 2.08 2.06 4.22h0Z"></path><path fill="#CBD0D4" stroke="#052439" stroke-linecap="round" stroke-linejoin="round" stroke-width=".86" d="M260.13 490.04a10.19 10.19 0 0 1-3.57 6.18c-1.43 1.07-2.52.76-2.69-.61.25-.11.53-.28.82-.48a10.17 10.17 0 0 0 3.57-6.17 4.4 4.4 0 0 0 0-.95c1.27-.54 2.08.25 1.87 2.03Z"></path><path fill="#607480" stroke="#052439" stroke-linecap="round" stroke-linejoin="round" stroke-width=".86" d="M258.26 488.96a10.17 10.17 0 0 1-3.57 6.17c-.3.21-.56.37-.82.48a4.27 4.27 0 0 1 0-.95 10.1 10.1 0 0 1 3.57-6.18c.29-.2.56-.36.82-.47a5 5 0 0 1 0 .95Z"></path><path fill="#CBD0D4" stroke="#052439" stroke-linecap="round" stroke-linejoin="round" stroke-width=".86" d="M257.34 491.26a2.4 2.4 0 0 1-1.08 1.88c-.31.18-.59.19-.79.06-.18-.12-.29-.35-.29-.68 0-.7.5-1.54 1.08-1.9.29-.16.55-.18.74-.09.21.1.35.36.35.73h0Z"></path><path fill="#8B8A88" stroke="#3B3B3B" stroke-linecap="round" stroke-linejoin="round" stroke-width=".86" d="m243.84 493 5.07 2.66s-.08-6.01 4.49-8.95c1.1-.72-3.48-.92-4.94-.31-1.53.63-4.76 2.38-4.62 6.6Z"></path><path fill="#E9EEF4" stroke="#24303E" stroke-linecap="round" stroke-linejoin="round" stroke-width=".86" d="M245.87 491.51a9.41 9.41 0 0 0-2.52-2.88 5.85 5.85 0 0 0-3.81-1.23 4 4 0 0 0-1.67.45h-.04l-4.5 2.57s3.4 14.15 7.44 11.8c2.54-1.47 4.62-2.7 4.72-2.78.44-.41.8-.95 1.06-1.6.8-2.05.43-4.37-.68-6.33Z"></path><path fill="#CBD0D4" stroke="#052439" stroke-linecap="round" stroke-linejoin="round" stroke-width=".86" d="M238.95 491.1a5.84 5.84 0 0 0-3.79-1.22 4.09 4.09 0 0 0-3.6 2.62c-1.12 2.9.34 6.98 3.26 9.13a5.68 5.68 0 0 0 4.38 1.2 3.9 3.9 0 0 0 1.08-.38c.3-.15.56-.34.8-.57.45-.41.8-.95 1.06-1.6.8-2.03.43-4.34-.67-6.3a9.35 9.35 0 0 0-2.52-2.87v0Z"></path><path fill="#E9EEF4" stroke="#24303E" stroke-linecap="round" stroke-linejoin="round" stroke-width=".86" d="M241.53 494.12a9.41 9.41 0 0 0-2.52-2.89 5.84 5.84 0 0 0-3.81-1.23 3.97 3.97 0 0 0-1.67.45h-.04l-4.5 2.57s3.4 14.15 7.44 11.8a184 184 0 0 0 4.71-2.78 4.17 4.17 0 0 0 1.06-1.6c.8-2.05.43-4.37-.67-6.32Z"></path><path fill="#CBD0D4" stroke="#052439" stroke-linecap="round" stroke-linejoin="round" stroke-width=".86" d="M234.61 493.7a5.84 5.84 0 0 0-3.8-1.22 4.1 4.1 0 0 0-3.58 2.62c-1.13 2.9.32 6.98 3.24 9.13a5.68 5.68 0 0 0 4.39 1.21 3.95 3.95 0 0 0 1.88-.96c.45-.41.8-.94 1.06-1.59a7.4 7.4 0 0 0-.67-6.3 9.34 9.34 0 0 0-2.52-2.88v0Z"></path><path fill="#E9EEF4" stroke="#24303E" stroke-linecap="round" stroke-linejoin="round" stroke-width=".86" d="M237.2 496.43a9.43 9.43 0 0 0-2.53-2.89 5.85 5.85 0 0 0-3.8-1.23 3.96 3.96 0 0 0-1.68.45h-.03l-4.5 2.57s3.4 14.15 7.43 11.8c2.54-1.47 4.62-2.69 4.72-2.78a4.18 4.18 0 0 0 1.06-1.6c.8-2.05.43-4.37-.67-6.32Z"></path><path fill="#CBD0D4" stroke="#052439" stroke-linecap="round" stroke-linejoin="round" stroke-width=".86" d="M230.28 496.02a5.84 5.84 0 0 0-3.8-1.22 4.09 4.09 0 0 0-3.59 2.62c-1.13 2.9.33 6.98 3.25 9.13a5.68 5.68 0 0 0 4.39 1.2 3.9 3.9 0 0 0 1.87-.95c.45-.41.8-.95 1.06-1.6.8-2.03.43-4.34-.67-6.3a9.37 9.37 0 0 0-2.51-2.87v0Z"></path><path fill="#E9EEF4" stroke="#24303E" stroke-linecap="round" stroke-linejoin="round" stroke-width=".86" d="M232.84 498.8a9.41 9.41 0 0 0-2.53-2.88 5.85 5.85 0 0 0-3.8-1.23 4 4 0 0 0-1.68.45h-.03l-4.5 2.57s3.4 14.15 7.43 11.8a190.8 190.8 0 0 0 4.72-2.78 4.16 4.16 0 0 0 1.06-1.6c.8-2.05.43-4.37-.67-6.33Z"></path><path fill="#CBD0D4" stroke="#052439" stroke-linecap="round" stroke-linejoin="round" stroke-width=".86" d="M225.92 498.4a5.84 5.84 0 0 0-3.8-1.22 4.09 4.09 0 0 0-3.59 2.62c-1.13 2.9.33 6.98 3.25 9.13a5.68 5.68 0 0 0 4.39 1.2 3.9 3.9 0 0 0 1.07-.38c.3-.16.56-.34.8-.57.45-.41.8-.95 1.06-1.6a7.4 7.4 0 0 0-.67-6.3 9.36 9.36 0 0 0-2.51-2.87v0Z"></path><path fill="#CBCAC7" stroke="#3B3B3B" stroke-linecap="round" stroke-linejoin="round" stroke-width=".86" d="m336.75 447.26-5.38-3.17-.83-2.84a4.77 4.77 0 0 1 3.7.34c1.07.6 3 2.56 2.5 5.67Z"></path><path fill="#607480" stroke="#052439" stroke-linecap="round" stroke-linejoin="round" stroke-width=".86" d="M332.22 443.38c-1.13-.54-2.65-.41-4.3.54-3.52 2.03-6.38 6.97-6.38 11.03 0 1.94.65 3.33 1.71 4.03l-3.5-2.01c-1.11-.68-1.8-2.1-1.8-4.1 0-4.05 2.84-8.99 6.36-11.02 1.8-1.04 3.43-1.12 4.59-.4l3.3 1.94.02-.01Z"></path><path fill="#566AE5" stroke="#24303E" stroke-linecap="round" stroke-linejoin="round" stroke-width=".86" d="M334.28 447.61c0 4.06-2.85 9-6.36 11.02-1.81 1.05-3.46 1.12-4.62.38l-.05-.02c-1.06-.7-1.71-2.08-1.71-4.03 0-4.06 2.86-9 6.38-11.03 1.65-.95 3.16-1.08 4.3-.54 1.27.62 2.07 2.08 2.07 4.22h-.01Z"></path><path fill="#86949E" stroke="#052439" stroke-linecap="round" stroke-linejoin="round" stroke-width=".86" d="M334.28 447.61c0 4.06-2.85 9-6.36 11.02-1.81 1.05-3.46 1.12-4.62.38l-.05-.02c-1.06-.7-1.71-2.08-1.71-4.03 0-4.06 2.86-9 6.38-11.03 1.65-.95 3.16-1.08 4.3-.54 1.27.62 2.07 2.08 2.07 4.22h-.01Z"></path><path fill="#CBD0D4" stroke="#052439" stroke-linecap="round" stroke-linejoin="round" stroke-width=".86" d="M331.05 448.97a10.19 10.19 0 0 1-3.58 6.18c-1.43 1.07-2.52.76-2.69-.61a5.63 5.63 0 0 0 .82-.48 10.17 10.17 0 0 0 3.57-6.17 4.27 4.27 0 0 0 0-.95c1.27-.54 2.08.25 1.87 2.03Z"></path><path fill="#607480" stroke="#052439" stroke-linecap="round" stroke-linejoin="round" stroke-width=".86" d="M329.17 447.88a10.17 10.17 0 0 1-3.57 6.18c-.3.2-.56.36-.82.47a4.4 4.4 0 0 1 0-.95c.23-2.13 1.84-4.9 3.57-6.18.3-.2.56-.36.82-.47a5 5 0 0 1 0 .95Z"></path><path fill="#CBD0D4" stroke="#052439" stroke-linecap="round" stroke-linejoin="round" stroke-width=".86" d="M328.26 450.19a2.4 2.4 0 0 1-1.08 1.88c-.31.18-.59.19-.79.07-.18-.13-.3-.36-.3-.7 0-.68.5-1.53 1.1-1.88.28-.16.54-.2.73-.1.21.1.35.36.35.73h0Z"></path><path fill="#CBCAC7" stroke="#3B3B3B" stroke-linecap="round" stroke-linejoin="round" stroke-width=".86" d="m321.51 456-5.37-3.17-.84-2.83a4.76 4.76 0 0 1 3.7.33 5.5 5.5 0 0 1 2.51 5.67Z"></path><path fill="#607480" stroke="#052439" stroke-linecap="round" stroke-linejoin="round" stroke-width=".86" d="M317.2 452.13c-1.13-.55-2.65-.42-4.3.54-3.52 2.02-6.38 6.97-6.38 11.03 0 1.94.66 3.32 1.72 4.03l-3.5-2.02c-1.12-.68-1.81-2.09-1.81-4.09 0-4.06 2.84-9 6.36-11.03 1.8-1.03 3.43-1.1 4.59-.39l3.3 1.94.02-.01Z"></path><path fill="#566AE5" stroke="#24303E" stroke-linecap="round" stroke-linejoin="round" stroke-width=".86" d="M319.26 456.36c0 4.06-2.85 9-6.36 11.02-1.81 1.05-3.46 1.12-4.62.38l-.04-.02c-1.06-.7-1.72-2.08-1.72-4.03 0-4.06 2.86-9 6.38-11.03 1.65-.96 3.16-1.09 4.3-.54 1.27.62 2.07 2.08 2.07 4.22h-.01Z"></path><path fill="#86949E" stroke="#052439" stroke-linecap="round" stroke-linejoin="round" stroke-width=".86" d="M319.26 456.36c0 4.06-2.85 9-6.36 11.02-1.81 1.05-3.46 1.12-4.62.38l-.04-.02c-1.06-.7-1.72-2.08-1.72-4.03 0-4.06 2.86-9 6.38-11.03 1.65-.96 3.16-1.09 4.3-.54 1.27.62 2.07 2.08 2.07 4.22h-.01Z"></path><path fill="#CBD0D4" stroke="#052439" stroke-linecap="round" stroke-linejoin="round" stroke-width=".86" d="M316.02 457.71a10.19 10.19 0 0 1-3.57 6.18c-1.43 1.07-2.52.76-2.69-.61.25-.11.53-.28.82-.48a10.18 10.18 0 0 0 3.57-6.18 4.4 4.4 0 0 0 0-.94c1.27-.54 2.08.25 1.87 2.03Z"></path><path fill="#607480" stroke="#052439" stroke-linecap="round" stroke-linejoin="round" stroke-width=".86" d="M314.15 456.62a10.18 10.18 0 0 1-3.57 6.18c-.3.21-.56.36-.82.48a4.27 4.27 0 0 1 0-.95c.23-2.14 1.84-4.9 3.57-6.18.3-.2.56-.36.82-.47.03.27.03.58 0 .94Z"></path><path fill="#CBD0D4" stroke="#052439" stroke-linecap="round" stroke-linejoin="round" stroke-width=".86" d="M313.24 458.93c0 .7-.48 1.54-1.08 1.88-.31.18-.59.2-.79.07-.18-.12-.3-.35-.3-.69 0-.69.5-1.53 1.1-1.88.28-.17.54-.2.73-.1.21.1.35.35.35.72h0Z"></path><path fill="#8B8A88" stroke="#3B3B3B" stroke-linecap="round" stroke-linejoin="round" stroke-width=".86" d="m299.73 460.67 5.07 2.66s-.08-6.02 4.49-8.96c1.1-.71-3.48-.92-4.94-.3-1.53.62-4.76 2.37-4.62 6.6Z"></path><path fill="#86949E" stroke="#052439" stroke-linecap="round" stroke-linejoin="round" stroke-width=".86" d="m344.72 429.76.02 4.46-111.68 64.46v-4.2l111.66-64.72Z"></path><path fill="#607480" stroke="#052439" stroke-linecap="round" stroke-linejoin="round" stroke-width=".86" d="M195.14 472.5v4.07l37.88 22.06v-4.26l-37.88-21.87Z"></path><path fill="#CBCAC7" stroke="#3B3B3B" stroke-linecap="round" stroke-linejoin="round" stroke-width=".86" d="m344.75 377.81-112.2 64.57-28.06-16.95L315.96 361l28.8 16.81h-.01Z"></path><path fill="#CBCAC7" stroke="#3B3B3B" stroke-linecap="round" stroke-linejoin="round" stroke-width=".86" d="m233.02 494.7 111.76-64.63-.04-52.24-111.98 63.96.27 43.88v9.03h-.01Z"></path><path fill="#8B8A88" stroke="#3B3B3B" stroke-linecap="round" stroke-linejoin="round" stroke-width=".86" d="m233.02 494.3-28.42-16.45-.17-52.37 28.34 16.36.25 34.03v18.43Z"></path><path fill="#CBCAC7" stroke="#3B3B3B" stroke-linecap="round" stroke-linejoin="round" stroke-width=".86" d="M235.45 490.5 342 428.9l.12-46.68-106.77 60.99.08 47.3h0Z"></path><path fill="#8B8A88" stroke="#3B3B3B" stroke-linecap="round" stroke-linejoin="round" stroke-width=".86" d="m230.88 490.16-24.16-13.77-.14-46.52 24.08 13.7.22 46.6Z"></path><path fill="#7CB9C8" stroke="#0F4757" stroke-linecap="round" stroke-linejoin="round" stroke-width=".86" d="M239.6 440.79v2.27l-4.08 2.39v-2.28l4.08-2.38Zm102.48-58.4v2.27l-4.07 2.39v-2.28l4.07-2.38Z"></path><path fill="#C4CBF7" stroke="#344085" stroke-linecap="round" stroke-linejoin="round" stroke-width=".86" d="M175.23 473.05a1.4 1.4 0 0 1-1.33-.96c-.1-.34-.28-.86-.1-16.64a4.83 4.83 0 0 1 2.33-4.07l1.55-.96a1.4 1.4 0 0 1 1.93.46 1.4 1.4 0 0 1-.46 1.93l-1.55.95a2.05 2.05 0 0 0-.98 1.73c-.13 10.65-.09 15.15-.01 15.84a1.4 1.4 0 0 1-.92 1.65 1.31 1.31 0 0 1-.44.07h-.02Z"></path><path fill="#C4CBF7" stroke="#344085" stroke-linecap="round" stroke-linejoin="round" stroke-width=".86" d="m200.77 480-3.9 21.55v0l-27.3-15.9 3.9-21.55 27.3 15.9Z"></path><path fill="#F0EEEB" stroke="#3B3B3B" stroke-linecap="round" stroke-linejoin="round" stroke-width=".86" d="M196.87 501.55v23.82l-2.2-1.27-22.91-13.37-2.2-1.27v-23.8l27.3 15.9Z"></path><path fill="#7A7978" stroke="#3B3B3B" stroke-linecap="round" stroke-linejoin="round" stroke-width=".86" d="m218.72 514.82-5.48-3.24-.85-2.88a4.85 4.85 0 0 1 3.77.33c1.09.6 3.06 2.6 2.56 5.78v0Z"></path><path fill="#607480" stroke="#052439" stroke-linecap="round" stroke-linejoin="round" stroke-width=".86" d="M215.3 510.43c-1.16-.55-2.7-.42-4.39.55-3.57 2.06-6.48 7.1-6.48 11.23 0 1.98.67 3.4 1.74 4.1l-3.55-2.06c-1.14-.69-1.85-2.14-1.85-4.16 0-4.14 2.9-9.16 6.48-11.23 1.85-1.06 3.5-1.13 4.68-.4l3.36 1.97Z"></path><path fill="#566AE5" stroke="#24303E" stroke-linecap="round" stroke-linejoin="round" stroke-width=".86" d="M217.4 514.74c0 4.13-2.9 9.16-6.48 11.22-1.84 1.07-3.51 1.14-4.7.39l-.04-.02c-1.08-.72-1.75-2.13-1.75-4.1 0-4.14 2.92-9.17 6.5-11.23 1.68-.98 3.21-1.11 4.37-.55 1.3.63 2.1 2.13 2.1 4.3v-.01Z"></path><path fill="#86949E" stroke="#052439" stroke-linecap="round" stroke-linejoin="round" stroke-width=".86" d="M217.4 514.74c0 4.13-2.9 9.16-6.48 11.22-1.84 1.07-3.51 1.14-4.7.39l-.04-.02c-1.08-.72-1.75-2.13-1.75-4.1 0-4.14 2.92-9.17 6.5-11.23 1.68-.98 3.21-1.11 4.37-.55 1.3.63 2.1 2.13 2.1 4.3v-.01Z"></path><path fill="#CBD0D4" stroke="#052439" stroke-linecap="round" stroke-linejoin="round" stroke-width=".86" d="M214.11 516.12c-.25 2.17-1.88 5-3.65 6.29-1.45 1.08-2.56.77-2.74-.62.26-.12.54-.28.83-.49a10.31 10.31 0 0 0 3.63-6.29 5.1 5.1 0 0 0 0-.96c1.3-.54 2.13.26 1.91 2.07h.02Z"></path><path fill="#607480" stroke="#052439" stroke-linecap="round" stroke-linejoin="round" stroke-width=".86" d="M212.19 515.01a10.4 10.4 0 0 1-3.63 6.3 4.71 4.71 0 0 1-.83.48 4.56 4.56 0 0 1 0-.97c.24-2.17 1.87-5 3.64-6.29.3-.2.57-.37.83-.48.03.27.03.6 0 .96h-.01Z"></path><path fill="#CBD0D4" stroke="#052439" stroke-linecap="round" stroke-linejoin="round" stroke-width=".86" d="M211.27 517.36c0 .7-.5 1.56-1.1 1.91-.33.18-.61.2-.8.07-.19-.12-.3-.36-.3-.7 0-.7.49-1.57 1.1-1.92.29-.16.55-.19.75-.1.23.1.36.37.36.74h-.01Z"></path><path fill="#E7E9FA" stroke="#344085" stroke-linecap="round" stroke-linejoin="round" stroke-width=".86" d="M213.2 472.88v19.3l-13.98 8.03v0l3.9-21.56 9.91-5.73h.01v0l.16-.03Z"></path><path fill="#fff" stroke="#3B3B3B" stroke-linecap="round" stroke-linejoin="round" stroke-width=".86" d="M224.64 466.13v45.2l-5.92 3.48c-.24-4.72-1.36-5.04-2.45-5.65a4.85 4.85 0 0 0-3.77-.33 8.26 8.26 0 0 0-1.92.82c-3.97 2.3-7.24 7.56-7.8 12.28l-3.72 2.18-2.2 1.26v-23.8l15.46-9.02v-19.3l12.32-7.11v-.01Z"></path><path fill="#fff" stroke="#3B3B3B" stroke-linecap="round" stroke-linejoin="round" stroke-width=".86" d="m173.47 464.1 23.87-13.82 27.3 15.9L200.77 480l-27.3-15.9Z"></path><path fill="#E7E9FA" stroke="#344085" stroke-linecap="round" stroke-linejoin="round" stroke-width=".86" d="m198.99 514.46-2.12 1.23v-5.43l4.7-2.72V510c0 1.84-.98 3.55-2.58 4.47Z"></path><path fill="#7CB9C8" stroke="#0F4757" stroke-linecap="round" stroke-linejoin="round" stroke-width=".86" d="m217.97 493.2-4.7 2.72v-1.73l4.7-2.7v1.71Z"></path><path fill="#C4CBF7" stroke="#344085" stroke-linecap="round" stroke-linejoin="round" stroke-width=".86" d="m192.2 513.04 4.78 2.58-.15-5.42-4.78-2.59.16 5.43Zm-22.63-13.1 4.7 2.7v-5.42l-4.7-2.71v5.42Z"></path><path fill="#7CB9C8" stroke="#0F4757" stroke-linecap="round" stroke-linejoin="round" stroke-width=".86" d="m190 517.77-13.7-7.9v-11.48l13.7 7.9v11.48Z"></path><path fill="#8B8A88" stroke="#3B3B3B" stroke-linecap="round" stroke-linejoin="round" stroke-width=".86" d="m169.57 504.43 1.76 1.02v-2.03l-1.76-1.01v2.02Zm25.54 14.75 1.76 1.01v-2.02l-1.76-1.02v2.03Z"></path><path fill="#CBCAC7" stroke="#3B3B3B" stroke-linecap="round" stroke-linejoin="round" stroke-width=".86" d="m195.3 526.27-27.3-15.9 1.57-.9 27.3 15.9-1.56.9Zm7.5-4.33v2.28l-7.48 4.34v-2.27l7.48-4.35Z"></path><path fill="#8B8A88" stroke="#3B3B3B" stroke-linecap="round" stroke-linejoin="round" stroke-width=".86" d="M168 510.36v2.28l27.3 15.9v-2.27l-27.3-15.9Z"></path><path fill="#fff" stroke="#3B3B3B" stroke-linecap="round" stroke-linejoin="round" stroke-width=".86" d="m200.77 480-3.9 21.55 2.35-1.35 3.9-21.55-2.35 1.34Z"></path><path stroke="#0F4757" stroke-linecap="round" stroke-linejoin="round" stroke-width=".86" d="M178.29 499.55v9.17l11.7 6.7m-11.7-12.77 11.7 6.68m-11.7-3.67 11.7 6.67m-11.7-3.6-2 1.14"></path><path fill="#F0EEEB" d="m200.71 479.93-27.03-15.54v-2.12l6.71-3.78s5.19-9.97 19.82-19.41c0 0 24.17 13.92 24.35 14.23.18.3-17.75 20.26-17.75 20.26"></path><path stroke="#3B3B3B" stroke-linecap="round" stroke-linejoin="round" stroke-width=".86" d="m200.71 479.93-27.03-15.54v-2.12l6.71-3.78s5.19-9.97 19.82-19.41c0 0 24.17 13.92 24.35 14.23.18.3-17.75 20.26-17.75 20.26"></path><path fill="#fff" stroke="#3B3B3B" stroke-linecap="round" stroke-linejoin="round" stroke-width=".86" d="m200.75 480.14-.13-2.74s6-3.33 6.2-3.68c5.8-9.64 17.81-20.37 17.81-20.37l-.04 12.68-23.85 14.11h0Z"></path><path fill="#fff" stroke="#3B3B3B" stroke-linecap="round" stroke-linejoin="round" stroke-width=".86" d="m180.04 458.77 26.7 15.04-6.15 3.57-26.64-15.34 6.09-3.27Z"></path><path fill="#CBCAC7" stroke="#3B3B3B" stroke-linecap="round" stroke-linejoin="round" stroke-width=".86" d="M224.5 508.96v2.3l-5.7 3.44v-2.3l5.7-3.44Z"></path><path fill="#8B8A88" stroke="#3B3B3B" stroke-linecap="round" stroke-linejoin="round" stroke-width=".86" d="m205.96 501.99-2.3-1.32a.85.85 0 0 1-.42-.74v-8.2a.84.84 0 0 1 1.26-.74l2.3 1.32a.84.84 0 0 1 .42.73v8.21a.84.84 0 0 1-1.26.74Zm-5.55-8.4 2.65 1.43v1.79l-2.9-1.53.25-1.69Z"></path><path fill="#7CB9C8" stroke="#0F4757" stroke-linecap="round" stroke-linejoin="round" stroke-width=".86" d="M181.8 463.67c.31-.14.6-.37.77-.72.23-.46.07-.91-.15-1.18-.54-.64-1.7-.84-2.57-.43-.45.2-.74.52-.86.87a.94.94 0 0 0-.05.3c0 .09 0 .17.04.26.04.15.12.3.24.46.38.45.96.67 1.57.66.28 0 .65-.06 1-.22h0Zm9.2 5.14c.33-.15.61-.37.78-.72.23-.46.07-.92-.15-1.18-.54-.64-1.7-.84-2.57-.44a1.5 1.5 0 0 0-.85.87.94.94 0 0 0-.06.3c0 .1 0 .18.04.26.04.16.12.31.24.46.38.46.97.67 1.57.66.28 0 .65-.06 1-.21h0Zm9.62 5.52c.32-.14.6-.37.77-.72a1.1 1.1 0 0 0-.15-1.18c-.54-.64-1.7-.84-2.57-.43-.45.2-.74.51-.85.87a.93.93 0 0 0-.06.3 1.24 1.24 0 0 0 .28.72c.38.45.96.67 1.57.66.28 0 .65-.06 1-.22h0Z"></path><path fill="#CBCAC7" stroke="#3B3B3B" stroke-linecap="round" stroke-linejoin="round" stroke-width=".86" d="M95.1 255.43c-1.72.93-2.25 1.82-3.7 3.14l6.4 11.06c2.6-1.24 4.18-2.71 6.51-4.4l-9.2-9.8h0Z"></path><path fill="#CBCAC7" stroke="#3B3B3B" stroke-linecap="round" stroke-linejoin="round" stroke-width=".86" d="M89.75 261.66a7.27 7.27 0 0 0 .26 2.3c.2.76.52 1.52.94 2.22a9.5 9.5 0 0 0 1.47 1.93 7.28 7.28 0 0 0 1.86 1.37 4.6 4.6 0 0 0 1.91.53 3.06 3.06 0 0 0 1.62-.38c.47-.27.85-.67 1.13-1.19.29-.52.47-1.16.51-1.9a7.27 7.27 0 0 0-.26-2.3 9.18 9.18 0 0 0-.94-2.23 9.56 9.56 0 0 0-1.47-1.93 7.2 7.2 0 0 0-1.86-1.37 4.63 4.63 0 0 0-1.92-.52 3.06 3.06 0 0 0-1.6.38c-.48.26-.86.67-1.14 1.19a4.5 4.5 0 0 0-.51 1.9Z"></path><path fill="#7CB9C8" stroke="#0F4757" stroke-linecap="round" stroke-linejoin="round" stroke-width=".86" d="M91.73 262.9a5.57 5.57 0 0 0 2.53 4.37c1.4.81 2.54.15 2.54-1.45a5.6 5.6 0 0 0-2.54-4.37c-1.4-.8-2.53-.15-2.53 1.45Z"></path><path fill="#CBCAC7" stroke="#3B3B3B" stroke-linecap="round" stroke-linejoin="round" stroke-width=".86" d="M109.11 270.67c-4.58 1.58-7.47 3.61-11.08 6.87l6.27 11.65 14.01-8.82-9.2-9.7v0Z"></path><path fill="#CBCAC7" stroke="#3B3B3B" stroke-linecap="round" stroke-linejoin="round" stroke-width=".86" d="M109.33 285.6a13.67 13.67 0 0 0-.96-2.41 13.83 13.83 0 0 0-1.4-2.21 12.52 12.52 0 0 0-1.77-1.86 10.08 10.08 0 0 0-2.04-1.37 6.68 6.68 0 0 0-2.8-.76 4.34 4.34 0 0 0-2.34.56c-.68.4-1.25.98-1.66 1.74-.42.76-.67 1.7-.74 2.78-.06.98.04 1.99.28 2.99A13.6 13.6 0 0 0 97 288a13.48 13.48 0 0 0 1.75 2.66 11.8 11.8 0 0 0 2.27 2.09l2.08-1.8 2.07-1.78 2.08-1.8 2.08-1.79h0Z"></path><path fill="#7CB9C8" stroke="#0F4757" stroke-linecap="round" stroke-linejoin="round" stroke-width=".86" d="M105.87 287.53c-.44-2.48-2.17-5.15-4.25-6.34-2.4-1.4-4-.4-4 2.36 0 2.75 2.25 6.12 4.66 7.51l3.59-3.53Z"></path><path fill="#F0EEEB" d="m118.48 280.96-54.2-57.86a4.53 4.53 0 0 1-1.12-2.19l-.49-2.37-.93-4.6-.37-1.82c-.2-1-.5-2.05-.3-3.08.04-.26.13-.52.3-.73.36-.43.98-.56 1.5-.53.91.04 1.66.69 2.4 1.18 28.62 19.18 58.24 36.82 89.09 52.2"></path><path stroke="#3B3B3B" stroke-linecap="round" stroke-linejoin="round" stroke-width=".86" d="m118.48 280.96-54.2-57.86a4.53 4.53 0 0 1-1.12-2.19l-.49-2.37-.93-4.6-.37-1.82c-.2-1-.5-2.05-.3-3.08.04-.26.13-.52.3-.73.36-.43.98-.56 1.5-.53.91.04 1.66.69 2.4 1.18 28.62 19.18 58.24 36.82 89.09 52.2"></path><path fill="#F0EEEB" stroke="#3B3B3B" stroke-linecap="round" stroke-linejoin="round" stroke-width=".86" d="m253.72 232.42-8 10.1c-.3.39-.68.72-1.1 1l-95.03 60.46a241.5 241.5 0 0 1-51.03 22 10.77 10.77 0 0 1-3.1.46c-2.77 0-5.41-1.1-7.4-3.15-3.33-3.41-3.8-8.7-1.47-12.87a72.62 72.62 0 0 1 29.65-29.02l62.1-32.8 67-35c4.49-2.06 12.1-6.71 15.33-.05 2.61 5.37-3.96 14.06-6.6 18.39a5.8 5.8 0 0 1-.33.47l-.02.01Z"></path><path fill="#CBCAC7" stroke="#3B3B3B" stroke-linecap="round" stroke-linejoin="round" stroke-width=".86" d="M154.08 304.4c-1.84 1.13-3.19 2.43-4.81 3.9l10.27 15.4c6.8-3.23 11.9-7.18 17.3-12.44l-22.76-6.88v.01Z"></path><path fill="#CBCAC7" stroke="#3B3B3B" stroke-linecap="round" stroke-linejoin="round" stroke-width=".86" d="M147.8 312.1a8.94 8.94 0 0 0 .05 1.65c.06.56.17 1.12.33 1.68a14.76 14.76 0 0 0 1.36 3.26 13.46 13.46 0 0 0 3.45 3.93c.46.33.93.63 1.41.87a7.57 7.57 0 0 0 1.43.55 5.52 5.52 0 0 0 2.6.09 4.22 4.22 0 0 0 1.1-.44c.34-.2.65-.44.93-.74a4.89 4.89 0 0 0 1.23-2.27c.12-.47.2-.98.24-1.52a8.84 8.84 0 0 0-.05-1.65 11.6 11.6 0 0 0-.33-1.68 14.55 14.55 0 0 0-1.36-3.26 12.3 12.3 0 0 0-.99-1.48c-.36-.47-.75-.92-1.15-1.33a10.58 10.58 0 0 0-1.3-1.12 9.88 9.88 0 0 0-1.42-.87 7.58 7.58 0 0 0-1.43-.55 5.93 5.93 0 0 0-1.35-.2 4.83 4.83 0 0 0-1.24.11 4.21 4.21 0 0 0-1.1.44c-.35.2-.66.44-.94.74a4.89 4.89 0 0 0-.73 1 5.54 5.54 0 0 0-.5 1.27 8.1 8.1 0 0 0-.24 1.52Z"></path><path fill="#7CB9C8" stroke="#0F4757" stroke-linecap="round" stroke-linejoin="round" stroke-width=".86" d="M150.11 312.9c0 2.84 2 6.3 4.47 7.73 2.48 1.43 4.47.28 4.47-2.56 0-2.85-2-6.3-4.47-7.73-2.47-1.43-4.47-.29-4.47 2.56Z"></path><path fill="#CBCAC7" stroke="#3B3B3B" stroke-linecap="round" stroke-linejoin="round" stroke-width=".86" d="m185.54 314 15.63 4.97c-3.48 3.23-6.35 5.45-10.65 7.48l-6.76-10.82c.84-.76.85-1 1.78-1.62Z"></path><path fill="#CBCAC7" stroke="#3B3B3B" stroke-linecap="round" stroke-linejoin="round" stroke-width=".86" d="M182.12 318.73a8.24 8.24 0 0 0 1.2 4.52 8.4 8.4 0 0 0 3.33 3.3c1.33.68 2.58.68 3.52.14.94-.53 1.56-1.6 1.65-3.1a8.26 8.26 0 0 0-1.2-4.52 8.4 8.4 0 0 0-3.33-3.3c-1.34-.67-2.59-.67-3.53-.14s-1.56 1.61-1.64 3.1Z"></path><path fill="#7CB9C8" stroke="#0F4757" stroke-linecap="round" stroke-linejoin="round" stroke-width=".86" d="M184.01 319.8a5.6 5.6 0 0 0 2.53 4.38c1.4.8 2.54.15 2.54-1.45 0-1.6-1.14-3.57-2.54-4.38s-2.53-.15-2.53 1.45Z"></path><path fill="#E7E9FA" stroke="#344085" stroke-linecap="round" stroke-linejoin="round" stroke-width=".86" d="M107.03 307.48c.05 0 .1 0 .14-.03.4-.14 4-1.41 4.84-1.95l5.15-3.02a2.36 2.36 0 0 0 1.17-1.83 2.33 2.33 0 0 0-.8-2.01l-2.16-1.9a2.4 2.4 0 0 0-2.78-.27l-4.48 2.62c-.14.07-1.36.59-2.45 1.04a.45.45 0 0 0-.27.5l1.17 6.47a.47.47 0 0 0 .21.3.41.41 0 0 0 .23.07h.03Z"></path><path fill="#C4CBF7" stroke="#344085" stroke-linecap="round" stroke-linejoin="round" stroke-width=".86" d="M103.88 307.85c1 0 2.05-.13 3.24-.39a.45.45 0 0 0 .34-.52l-1.17-6.47a.48.48 0 0 0-.2-.3.46.46 0 0 0-.35-.06c-2.36.59-4.8.07-6.69-1.42l-2.14-1.84a.45.45 0 0 0-.62.04 51.82 51.82 0 0 0-3.29 3.9c-.31.41-.63.83-.95 1.22a.45.45 0 0 0 .06.63l2.3 1.92a15.31 15.31 0 0 0 9.47 3.29Z"></path><path fill="#F0EEEB" stroke="#3B3B3B" stroke-linecap="round" stroke-linejoin="round" stroke-width=".86" d="M268.7 336.85c.73 0 1.39-.02 1.95-.05l1.89-.1.1-.02a2.35 2.35 0 0 0 1.6-1.3c.52-1.19-.17-2.62-.2-2.68a.44.44 0 0 0-.21-.2l-55-27.18a90.87 90.87 0 0 1-12.22-7.27l-31.74-22.41a.45.45 0 0 0-.49-.03l-34.42 19.3a.45.45 0 0 0-.23.4v4.85c0 .2.13.37.32.43l114.7 34.84c2.92.9 9.65 1.42 13.94 1.42h.01Z"></path><path fill="#CBCAC7" stroke="#3B3B3B" stroke-linecap="round" stroke-linejoin="round" stroke-width=".86" d="m215.7 229.89-8.86-14.1a2.34 2.34 0 0 1 .8-3.3l2.06-1.17a1.3 1.3 0 0 1 1.46.11l10.07 7.39-5.53 11.08v-.01ZM279.07 248l-28.5-10.93-15.4 8.93v3s34.68 4.34 36.11 4.46c1.5.12 3.16-.18 4.52-.97l2.9-1.68c.4-.22.63-2.07.63-2.07l-.28-.71h.02Z"></path><path fill="#F0EEEB" stroke="#3B3B3B" stroke-linecap="round" stroke-linejoin="round" stroke-width=".86" d="M215.58 237.5a3 3 0 0 0 1.12-.23c1.88-.79 27.23-15.84 28.31-16.49a.45.45 0 0 0 .23-.39v-40.22c0-.18 0-.65-2.02-2a1.4 1.4 0 0 0-1.42.04l-1.53.9a7.6 7.6 0 0 0-3.15 3.87c-7.97 17.5-23.17 50.88-23.59 51.68a1.7 1.7 0 0 0 .17 2.06c.44.51 1.15.79 1.87.79l.01-.01Z"></path><path fill="#C4CBF7" stroke="#344085" stroke-linecap="round" stroke-linejoin="round" stroke-width=".86" d="m225.08 209.38 20.15-11.47v7.72l-24.36 13.22 4.21-9.47Z"></path><path fill="#7CB9C8" stroke="#0F4757" stroke-linecap="round" stroke-linejoin="round" stroke-width=".86" d="m606.2 356.15-24.1-13.92v6.84c5 2.89 14.56 8.4 24.1 13.93l13.46 7.76 5.93-3.42c-5.25-3.03-12.33-7.11-19.38-11.2v.01Z"></path><path fill="#8B8A88" stroke="#3B3B3B" stroke-linecap="round" stroke-linejoin="round" stroke-width=".86" d="m619.66 370.76-17.81 10.3-3.14 1.8L524.48 426c-18.74 10.84-38.8 19.78-56.47 25.51l-.06-.03.06-.01-5.6-3.22c-12.44 4.04-23.7 6.47-32.5 6.84-.72.03-1.46.06-2.15.06-2.28 0-4.1-.16-5.57-.4h-.01c3.88-6.17 10.5-12.81 18.04-19.17 10.84-9.11 23.57-17.63 32.94-23.25 1-.6 2-1.2 3.04-1.8 0 0 82.51-47.95 105.91-61.46L606.23 363l13.45 7.77-.02-.01Z"></path><path fill="#7CB9C8" stroke="#0F4757" stroke-linecap="round" stroke-linejoin="round" stroke-width=".86" d="m467.96 451.49.06.03h-.06l-.05-.03-5.5-3.24 5.6 3.22h-.06l.01.02Z"></path><path fill="#F0EEEB" stroke="#3B3B3B" stroke-linecap="round" stroke-linejoin="round" stroke-width=".86" d="M635.22 367.34c-8.06 4.64-20.98 12.12-34.1 19.7-22.5 13-74.22 43.15-74.22 43.15-1.12.65-2.25 1.29-3.38 1.92a240.34 240.34 0 0 1-4.67 2.56 301.66 301.66 0 0 1-6.31 3.33c-.81.42-1.62.83-2.43 1.22a200.89 200.89 0 0 1-3.58 1.77 175.55 175.55 0 0 1-3.4 1.62 291.89 291.89 0 0 1-6.74 3.1 170.54 170.54 0 0 1-3.77 1.64c-1.25.54-2.5 1.06-3.74 1.58l-3.1 1.25a268.06 268.06 0 0 1-12.2 4.55h-.02l-5.59-3.21h.05c17.68-5.74 37.74-14.68 56.48-25.51l74.23-43.16 3.13-1.8 17.82-10.3 5.92-3.42c-5.24-3.03-12.32-7.1-19.38-11.2-9.55-5.52-19.1-11.02-24.1-13.92-23.41 13.51-105.92 61.47-105.92 61.47-18.4 10.62-31.7 20.64-40.6 29.12l-.99-.56-3.33-1.92c9.96-9.68 24.52-20.42 42.52-30.81 0 0 86.43-50.24 108.31-62.86 7.3 4.2 45.82 26.45 53.13 30.66l-.02.03Z"></path><path fill="#CBCAC7" stroke="#3B3B3B" stroke-linecap="round" stroke-linejoin="round" stroke-width=".86" d="M582.1 342.23v6.84c-23.4 13.51-105.92 61.47-105.92 61.47a128.2 128.2 0 0 0-3.04 1.79c-14 8.26-24.88 16.17-33 23.2l-4.56-2.7c8.92-8.49 22.21-18.51 40.6-29.14 0 0 82.51-47.95 105.92-61.46Z"></path><path fill="#8B8A88" stroke="#3B3B3B" stroke-linecap="round" stroke-linejoin="round" stroke-width=".86" d="M625.6 367.34a1206.97 1206.97 0 0 0-5.93 3.42L606.22 363l-24.11-13.93v-6.84l24.1 13.92c7.07 4.08 14.15 8.16 19.39 11.2v-.01Z"></path><path fill="#F0EEEB" d="M635.21 367.35c-.87 12.78-12.78 16.11-17.98 29.05a43.7 43.7 0 0 1-1 2.29c-.2.43-.42.88-.65 1.32v.03c-.37.72-.76 1.47-1.17 2.22v.01a60.39 60.39 0 0 1-2.07 3.46 54.7 54.7 0 0 1-6.68 8.61 24.93 24.93 0 0 1-4.66 3.88 1202.53 1202.53 0 0 1-15.62 9.57 1298.65 1298.65 0 0 1-30.91 18.13l-2.21 1.25a935.68 935.68 0 0 1-11.39 6.32 529.83 529.83 0 0 1-5.53 3.01l-2.03 1.09-1.21.66-2.21 1.16-.13.07-.37.2-1.98 1.03-3.74 1.97a657.16 657.16 0 0 1-25.77 12.72c-1.7.8-3.37 1.57-5 2.3l-.65.3c-1.4.64-2.78 1.25-4.13 1.85a474.23 474.23 0 0 1-6.27 2.7c-1.98.83-3.9 1.63-5.74 2.37h-.03a418.7 418.7 0 0 1-6 2.35l-3.5 1.3c-.38.13-.75.28-1.13.4a196.5 196.5 0 0 1-12.31 4.02c-.87.25-1.7.5-2.52.71a94.18 94.18 0 0 1-12.8 2.67l-.89.1-.84.08c-.28.03-.55.06-.81.06-2.01.13-3.65.1-4.91-.1a3.15 3.15 0 0 1-2.6-3.8c.68-3.15.33-5.9-.64-8.46a10.03 10.03 0 0 0-.34-.85v-.03a20.43 20.43 0 0 0-.94-1.85c-4.65-8.38-14.85-15.68-14.85-30.77l.03.17c.39 2.59 2.3 5.42 4.27 6.55.25.15.51.3.79.4.1.07.2.12.3.16l.08.03c.3.15.64.28 1 .4.25.1.5.19.76.27a6.36 6.36 0 0 0 .94.28l.61.15a.3.3 0 0 1 .12.03l.4.08c.12.03.24.06.36.07.12.03.24.06.37.07l.2.04.7.1a.31.31 0 0 0 .09.02l.3.05c.18.03.35.05.53.06h.06a6 6 0 0 0 .94.1l.24.03c1.34.11 2.76.15 4.26.15a63.66 63.66 0 0 0 1.76-.06 60.48 60.48 0 0 0 2.06-.12h.03c.7-.05 1.39-.12 2.1-.19a87.92 87.92 0 0 0 4.16-.51l1.04-.18 1.66-.27a57.64 57.64 0 0 0 2.01-.37l.61-.11c.76-.15 1.55-.31 2.32-.49a144.57 144.57 0 0 0 4.61-1.07c.7-.17 1.4-.34 2.13-.54.7-.18 1.43-.37 2.16-.58l2.28-.63 2.51-.75c1.52-.46 3.06-.94 4.61-1.45l1.79-.59 1.7-.57.06.03 5.59 3.21a268.06 268.06 0 0 0 12.22-4.55 190.99 190.99 0 0 0 6.83-2.83 192.2 192.2 0 0 0 3.77-1.65c2.24-.98 4.5-2.02 6.75-3.09a209.06 209.06 0 0 0 3.4-1.62 256.67 256.67 0 0 0 3.57-1.77c.81-.4 1.63-.8 2.43-1.22.55-.28 1.1-.55 1.64-.84a310.45 310.45 0 0 0 9.34-5.05 427.38 427.38 0 0 0 3.38-1.92s51.73-30.15 74.23-43.14a13748.5 13748.5 0 0 1 28.83-16.65l.94-.54 4.33-2.5h.01Z"></path><mask id="cargo-insurance-2023-hero-image_svg__a" width="225" height="130" x="411" y="367" maskUnits="userSpaceOnUse" style="mask-type:luminance"><path fill="#fff" d="M635.21 367.35c-.87 12.78-12.78 16.11-17.98 29.05a43.7 43.7 0 0 1-1 2.29c-.2.43-.42.88-.65 1.32v.03c-.37.72-.76 1.47-1.17 2.22v.01a60.39 60.39 0 0 1-2.07 3.46 54.7 54.7 0 0 1-6.68 8.61 24.93 24.93 0 0 1-4.66 3.88 1202.53 1202.53 0 0 1-15.62 9.57 1298.65 1298.65 0 0 1-30.91 18.13l-2.21 1.25a935.68 935.68 0 0 1-11.39 6.32 529.83 529.83 0 0 1-5.53 3.01l-2.03 1.09-1.21.66-2.21 1.16-.13.07-.37.2-1.98 1.03-3.74 1.97a657.16 657.16 0 0 1-25.77 12.72c-1.7.8-3.37 1.57-5 2.3l-.65.3c-1.4.64-2.78 1.25-4.13 1.85a474.23 474.23 0 0 1-6.27 2.7c-1.98.83-3.9 1.63-5.74 2.37h-.03a418.7 418.7 0 0 1-6 2.35l-3.5 1.3c-.38.13-.75.28-1.13.4a196.5 196.5 0 0 1-12.31 4.02c-.87.25-1.7.5-2.52.71a94.18 94.18 0 0 1-12.8 2.67l-.89.1-.84.08c-.28.03-.55.06-.81.06-2.01.13-3.65.1-4.91-.1a3.15 3.15 0 0 1-2.6-3.8c.68-3.15.33-5.9-.64-8.46a10.03 10.03 0 0 0-.34-.85v-.03a20.43 20.43 0 0 0-.94-1.85c-4.65-8.38-14.85-15.68-14.85-30.77l.03.17c.39 2.59 2.3 5.42 4.27 6.55.25.15.51.3.79.4.1.07.2.12.3.16l.08.03c.3.15.64.28 1 .4.25.1.5.19.76.27a6.36 6.36 0 0 0 .94.28l.61.15a.3.3 0 0 1 .12.03l.4.08c.12.03.24.06.36.07.12.03.24.06.37.07l.2.04.7.1a.31.31 0 0 0 .09.02l.3.05c.18.03.35.05.53.06h.06a6 6 0 0 0 .94.1l.24.03c1.34.11 2.76.15 4.26.15a63.66 63.66 0 0 0 1.76-.06 60.48 60.48 0 0 0 2.06-.12h.03c.7-.05 1.39-.12 2.1-.19a87.92 87.92 0 0 0 4.16-.51l1.04-.18 1.66-.27a57.64 57.64 0 0 0 2.01-.37l.61-.11c.76-.15 1.55-.31 2.32-.49a144.57 144.57 0 0 0 4.61-1.07c.7-.17 1.4-.34 2.13-.54.7-.18 1.43-.37 2.16-.58l2.28-.63 2.51-.75c1.52-.46 3.06-.94 4.61-1.45l1.79-.59 1.7-.57.06.03 5.59 3.21a268.06 268.06 0 0 0 12.22-4.55 190.99 190.99 0 0 0 6.83-2.83 192.2 192.2 0 0 0 3.77-1.65c2.24-.98 4.5-2.02 6.75-3.09a209.06 209.06 0 0 0 3.4-1.62 256.67 256.67 0 0 0 3.57-1.77c.81-.4 1.63-.8 2.43-1.22.55-.28 1.1-.55 1.64-.84a310.45 310.45 0 0 0 9.34-5.05 427.38 427.38 0 0 0 3.38-1.92s51.73-30.15 74.23-43.14a13748.5 13748.5 0 0 1 28.83-16.65l.94-.54 4.33-2.5h.01Z"></path></mask><g mask="url(#cargo-insurance-2023-hero-image_svg__a)"><path fill="#E0EDF0" stroke="#0F4757" stroke-linecap="round" stroke-linejoin="round" stroke-width=".86" d="M615.13 401.95c-13.19 9.23-50.47 31.83-60.12 37.3l-2.23 1.26a879.22 879.22 0 0 1-11.46 6.37 424.7 424.7 0 0 1-5.57 3.02 68 68 0 0 1-2.03 1.08l-1.22.67-2.23 1.17-.13.07-.38.19-1.99 1.05-3.76 1.97a664.56 664.56 0 0 1-25.94 12.8 687.65 687.65 0 0 1-5.68 2.63l-4.16 1.86a423.18 423.18 0 0 1-12.1 5.1l-.02.01a437.2 437.2 0 0 1-9.57 3.67c-.38.13-.75.28-1.13.42l-1.43.5a200.97 200.97 0 0 1-13.5 4.26 94.52 94.52 0 0 1-13.77 2.78l-.85.09-.8.06c-2.03.13-5.64.16-7.05-.82-.49-.34-.1-1.32-.51-3.11-.46-2.02-2.77-5-3-6.64.42.93 3.44 2.98 5.6 3.21 1.28.14 2.93.23 4.95.1l.8-.06.85-.1.9-.09a94.53 94.53 0 0 0 12.88-2.68 77.8 77.8 0 0 0 2.53-.72 193.36 193.36 0 0 0 10.96-3.55l1.43-.5 1.13-.41 3.53-1.31a437.22 437.22 0 0 0 6.04-2.36l.02-.01c1.87-.75 3.8-1.55 5.8-2.39a444.37 444.37 0 0 0 6.3-2.71 481.59 481.59 0 0 0 9.84-4.49 626.6 626.6 0 0 0 25.94-12.8l3.77-1.97c.65-.36 1.31-.7 1.98-1.06l.38-.18c.05-.03.08-.06.13-.07l2.23-1.18 1.22-.66 2.04-1.09a535.9 535.9 0 0 0 5.56-3.02 1100.69 1100.69 0 0 0 11.46-6.37l2.24-1.26c9.65-5.47 19.93-11.5 30.9-18.13l.21-.12c.85-.5 1.7-1.02 2.56-1.55 4.3-2.6 13.59-8.2 18.01-11.1 5.52-3.62 10.06-6.15 14.02-9.8l-.52 1s0 0 0 0a58.5 58.5 0 0 1-2.07 3.48c-2 3.13-2.99 6.18-2.99 6.18v.01Z"></path></g><path stroke="#3B3B3B" stroke-linecap="round" stroke-linejoin="round" stroke-width=".86" d="M635.21 367.35c-.87 12.78-12.78 16.11-17.98 29.05a43.7 43.7 0 0 1-1 2.29c-.2.43-.42.88-.65 1.32v.03c-.37.72-.76 1.47-1.17 2.22v.01a60.39 60.39 0 0 1-2.07 3.46 54.7 54.7 0 0 1-6.68 8.61h0a24.93 24.93 0 0 1-4.66 3.88 1202.53 1202.53 0 0 1-15.62 9.57 1298.65 1298.65 0 0 1-30.91 18.13l-2.21 1.25a935.68 935.68 0 0 1-11.39 6.32 529.83 529.83 0 0 1-5.53 3.01l-2.03 1.09-1.21.66-2.21 1.16-.13.07-.37.2-1.98 1.03-3.74 1.97a657.16 657.16 0 0 1-25.77 12.72c-1.7.8-3.37 1.57-5 2.3l-.65.3c-1.4.64-2.78 1.25-4.13 1.85a474.23 474.23 0 0 1-6.27 2.7c-1.98.83-3.9 1.63-5.74 2.37h-.03a418.7 418.7 0 0 1-6 2.35l-3.5 1.3c-.38.13-.75.28-1.13.4a196.5 196.5 0 0 1-12.31 4.02c-.87.25-1.7.5-2.52.71a94.18 94.18 0 0 1-12.8 2.67l-.89.1-.84.08c-.28.03-.55.06-.81.06-2.01.13-3.65.1-4.91-.1a3.15 3.15 0 0 1-2.6-3.8c.68-3.15.33-5.9-.64-8.46a10.03 10.03 0 0 0-.34-.85v-.03a20.43 20.43 0 0 0-.94-1.85c-4.65-8.38-14.85-15.68-14.85-30.77l.03.17c.39 2.59 2.3 5.42 4.27 6.55.25.15.51.3.79.4.1.07.2.12.3.16l.08.03c.3.15.64.28 1 .4a9.77 9.77 0 0 0 .97.33h0a6.36 6.36 0 0 0 .73.22l.61.15a.3.3 0 0 1 .12.03l.4.08c.12.03.24.06.36.07.12.03.24.06.37.07l.2.04.7.1a.31.31 0 0 0 .09.02l.3.05c.18.03.35.05.53.06h.06a6 6 0 0 0 .94.1l.24.03c1.34.11 2.76.15 4.26.15a63.66 63.66 0 0 0 1.76-.06 60.48 60.48 0 0 0 2.06-.12h.03c.7-.05 1.39-.12 2.1-.19a87.92 87.92 0 0 0 4.16-.51l1.04-.18 1.66-.27a57.64 57.64 0 0 0 2.01-.37l.61-.11c.76-.15 1.55-.31 2.32-.49a144.57 144.57 0 0 0 4.61-1.07c.7-.17 1.4-.34 2.13-.54.7-.18 1.43-.37 2.16-.58l2.28-.63 2.51-.75c1.52-.46 3.06-.94 4.61-1.45l1.79-.59 1.7-.57.06.03 5.59 3.21h0a268.06 268.06 0 0 0 12.22-4.55 190.99 190.99 0 0 0 6.83-2.83 192.2 192.2 0 0 0 3.77-1.65c2.24-.98 4.5-2.02 6.75-3.09a209.06 209.06 0 0 0 3.4-1.62 256.67 256.67 0 0 0 3.57-1.77c.81-.4 1.63-.8 2.43-1.22.55-.28 1.1-.55 1.64-.84a310.45 310.45 0 0 0 9.34-5.05 427.38 427.38 0 0 0 3.38-1.92s51.73-30.15 74.23-43.14a13748.5 13748.5 0 0 1 28.83-16.65l.94-.54 4.33-2.5h.01Z"></path><path fill="#7CB9C8" stroke="#0F4757" stroke-linecap="round" stroke-linejoin="round" stroke-width=".86" d="m523.69 403.1 23.3-13.47-11.3-6.53-23.32 13.46 11.32 6.54Z"></path><path fill="#2B2829" stroke="#24303E" stroke-linecap="round" stroke-linejoin="round" stroke-width=".86" d="M523.69 403.1v11.8l-11.32-6.53v-11.81l11.32 6.54Z"></path><path fill="#CBD0D4" stroke="#052439" stroke-linecap="round" stroke-linejoin="round" stroke-width=".86" d="M547 389.63v11.8l-23.31 13.48V403.1l23.3-13.47Z"></path><path fill="#CBD0D4" stroke="#052439" stroke-linecap="round" stroke-linejoin="round" stroke-width=".86" d="m535 409.63 23.32-13.46-11.32-6.54-23.31 13.47 11.31 6.53Z"></path><path fill="#CBD0D4" stroke="#052439" stroke-linecap="round" stroke-linejoin="round" stroke-width=".86" d="M535 409.63v11.8l-11.31-6.52V403.1l11.31 6.53Zm23.32-13.46v11.8L535 421.45v-11.8l23.32-13.47Z"></path><path fill="#7CB9C8" stroke="#0F4757" stroke-linecap="round" stroke-linejoin="round" stroke-width=".86" d="m489.05 410.02 23.32-13.46-11.33-6.53-23.31 13.46 11.32 6.53Z"></path><path fill="#7CB9C8" stroke="#0F4757" stroke-linecap="round" stroke-linejoin="round" stroke-width=".86" d="M489.05 410.02v11.8l-11.32-6.53v-11.8l11.32 6.53Zm23.32-13.46v11.8l-23.32 13.46v-11.8l23.32-13.46Z"></path><path fill="#7CB9C8" stroke="#0F4757" stroke-linecap="round" stroke-linejoin="round" stroke-width=".86" d="m500.37 416.56 23.32-13.46-11.32-6.54-23.32 13.46 11.32 6.54Zm0 0v11.8l-11.32-6.54v-11.8l11.32 6.54Zm23.32-13.46v11.8l-23.32 13.47v-11.81l23.32-13.46Z"></path><path fill="#7CB9C8" stroke="#0F4757" stroke-linecap="round" stroke-linejoin="round" stroke-width=".86" d="M511.69 423.1 535 409.62l-11.31-6.53-23.32 13.46 11.32 6.53Zm0 0v11.8l-11.32-6.53v-11.81l11.32 6.53ZM535 409.63v11.8l-23.3 13.47v-11.8l23.3-13.48Zm-45.95-11.42v11.81l-11.32-6.53v-11.8l11.32 6.52Zm23.32-13.46v11.81l-23.32 13.46v-11.8l23.32-13.47Z"></path><path fill="#7CB9C8" stroke="#0F4757" stroke-linecap="round" stroke-linejoin="round" stroke-width=".86" d="m500.37 404.75 23.32-13.46-11.32-6.54-23.32 13.46 11.32 6.55Z"></path><path fill="#7CB9C8" stroke="#0F4757" stroke-linecap="round" stroke-linejoin="round" stroke-width=".86" d="M500.37 404.75v11.81l-11.32-6.54v-11.8l11.32 6.53Zm23.32-13.45v11.8l-23.32 13.46v-11.8l23.32-13.46Z"></path><path fill="#CBD0D4" stroke="#052439" stroke-linecap="round" stroke-linejoin="round" stroke-width=".86" d="M511.69 411.29 535 397.83l-11.31-6.53-23.32 13.46 11.32 6.53Zm0 0v11.8l-11.32-6.53v-11.8l11.32 6.53ZM535 397.83v11.8l-23.3 13.47v-11.8l23.3-13.47Z"></path><path fill="#E0EDF0" stroke="#0F4757" stroke-linecap="round" stroke-linejoin="round" stroke-width=".86" d="m500.37 392.95 23.32-13.46-11.32-6.54-23.32 13.47 11.32 6.53Z"></path><path fill="#7CB9C8" stroke="#0F4757" stroke-linecap="round" stroke-linejoin="round" stroke-width=".86" d="M500.37 392.95v11.8l-11.32-6.54v-11.8l11.32 6.54Z"></path><path fill="#E0EDF0" stroke="#0F4757" stroke-linecap="round" stroke-linejoin="round" stroke-width=".86" d="M523.69 379.49v11.8l-23.32 13.46v-11.8l23.32-13.46Z"></path><path fill="#7CB9C8" stroke="#0F4757" stroke-linecap="round" stroke-linejoin="round" stroke-width=".86" d="m465.73 423.48 23.32-13.46-11.32-6.53-23.31 13.46 11.31 6.53Z"></path><path fill="#7CB9C8" stroke="#0F4757" stroke-linecap="round" stroke-linejoin="round" stroke-width=".86" d="M465.73 423.48v11.8l-11.31-6.53v-11.8l11.31 6.53Zm23.32-13.46v11.8l-23.32 13.46v-11.8l23.32-13.46Z"></path><path fill="#7CB9C8" stroke="#0F4757" stroke-linecap="round" stroke-linejoin="round" stroke-width=".86" d="m477.05 430.02 23.32-13.46-11.32-6.54-23.32 13.46 11.32 6.54Zm0 0v11.8l-11.32-6.54v-11.8l11.32 6.54Zm23.32-13.46v11.8l-23.32 13.47v-11.81l23.32-13.46Z"></path><path fill="#7CB9C8" stroke="#0F4757" stroke-linecap="round" stroke-linejoin="round" stroke-width=".86" d="m488.38 436.55 23.3-13.46-11.3-6.53-23.33 13.46 11.33 6.53Z"></path><path fill="#566AE1" stroke="#344085" stroke-linecap="round" stroke-linejoin="round" stroke-width=".86" d="M488.38 436.55v11.8l-11.33-6.52v-11.81l11.33 6.53Z"></path><path fill="#C4CBF7" stroke="#344085" stroke-linecap="round" stroke-linejoin="round" stroke-width=".86" d="M511.69 423.1v11.8l-23.31 13.46v-11.8l23.3-13.47Z"></path><path fill="#7CB9C8" stroke="#0F4757" stroke-linecap="round" stroke-linejoin="round" stroke-width=".86" d="m465.73 411.68 23.32-13.47-11.32-6.53-23.31 13.46 11.31 6.54Z"></path><path fill="#175F74" stroke="#0F4757" stroke-linecap="round" stroke-linejoin="round" stroke-width=".86" d="M465.73 411.68v11.8l-11.31-6.53v-11.8l11.31 6.53Z"></path><path fill="#7CB9C8" stroke="#0F4757" stroke-linecap="round" stroke-linejoin="round" stroke-width=".86" d="M489.05 398.21v11.81l-23.32 13.46v-11.8l23.32-13.47Z"></path><path fill="#C4CBF7" stroke="#344085" stroke-linecap="round" stroke-linejoin="round" stroke-width=".86" d="m465.73 400.2 23.32-13.46-11.32-6.54-23.31 13.46 11.31 6.54Z"></path><path fill="#566AE1" stroke="#344085" stroke-linecap="round" stroke-linejoin="round" stroke-width=".86" d="M465.73 400.2V412l-11.31-6.53v-11.8l11.31 6.53Z"></path><path fill="#45DABE" stroke="#24303E" stroke-linecap="round" stroke-linejoin="round" stroke-width=".86" d="M489.05 386.74v11.8L465.73 412v-11.8l23.32-13.46Z"></path><path fill="#7CB9C8" stroke="#0F4757" stroke-linecap="round" stroke-linejoin="round" stroke-width=".86" d="m477.05 418.21 23.32-13.46-11.32-6.54-23.32 13.47 11.32 6.53Z"></path><path fill="#7CB9C8" stroke="#0F4757" stroke-linecap="round" stroke-linejoin="round" stroke-width=".86" d="M477.05 418.21v11.81l-11.32-6.54v-11.8l11.32 6.53Zm23.32-13.46v11.81l-23.32 13.46v-11.8l23.32-13.47Z"></path><path fill="#BAF8EA" stroke="#24303E" stroke-linecap="round" stroke-linejoin="round" stroke-width=".86" d="m488.38 424.75 23.3-13.46-11.3-6.54-23.33 13.46 11.33 6.55Z"></path><path fill="#4394A7" stroke="#0F4757" stroke-linecap="round" stroke-linejoin="round" stroke-width=".86" d="M488.38 424.75v11.8l-11.33-6.53v-11.8l11.33 6.54Zm23.31-13.46v11.8l-23.31 13.46v-11.8l23.3-13.46Z"></path><path fill="#CBD0D4" stroke="#052439" stroke-linecap="round" stroke-linejoin="round" stroke-width=".86" d="m453.74 443.48 23.31-13.46-11.32-6.54-23.3 13.47 11.3 6.53Z"></path><path fill="#86949E" stroke="#052439" stroke-linecap="round" stroke-linejoin="round" stroke-width=".86" d="M453.74 443.48v11.8l-11.32-6.53v-11.8l11.32 6.53Z"></path><path fill="#CBD0D4" stroke="#052439" stroke-linecap="round" stroke-linejoin="round" stroke-width=".86" d="M477.05 430.02v11.8l-23.31 13.47v-11.81l23.31-13.46Z"></path><path fill="#F0EEEB" stroke="#3B3B3B" stroke-linecap="round" stroke-linejoin="round" stroke-width=".86" d="M468 451.48h-.05l-.05.01a63.47 63.47 0 0 1-1.7.58l-1.79.59c-1.55.5-3.1.98-4.6 1.44l-2.52.75c-.77.22-1.53.44-2.28.64l-2.16.58a172.45 172.45 0 0 1-9.06 2.1l-.61.1a91.5 91.5 0 0 1-3.67.65l-1.04.17c-1.43.21-2.82.4-4.17.52-.7.07-1.4.15-2.09.2h-.03a57.96 57.96 0 0 1-2.06.11c-6.39.25-11.48-.5-14.83-2.44a8.13 8.13 0 0 1-3.88-4.5 9.12 9.12 0 0 1-.15-.54l-.12-.48v-.09c-1.07-5.99 4.25-14.8 14.51-24.75l4.32 2.49c-10.32 9.78-14.7 17.42-14.12 21.31 0 .07.02.12.03.18l.05.18.04.14c0 .06.02.12.05.18.12.32.36.73.91 1.19.2.18.47.36.79.55a13.1 13.1 0 0 0 4.45 1.42h.01c1.47.25 3.3.4 5.57.4.7 0 1.43-.02 2.16-.05 8.8-.37 20.06-2.82 32.5-6.84l5.59 3.21h0Z"></path><path fill="#4394A7" stroke="#0F4757" stroke-linecap="round" stroke-linejoin="round" stroke-width=".86" d="m453.74 431.67 23.31-13.46-11.32-6.53-23.3 13.46 11.3 6.53Z"></path><path fill="#175F74" stroke="#0F4757" stroke-linecap="round" stroke-linejoin="round" stroke-width=".86" d="M453.74 431.67v11.81l-11.32-6.53v-11.8l11.32 6.52Z"></path><path fill="#4394A7" stroke="#0F4757" stroke-linecap="round" stroke-linejoin="round" stroke-width=".86" d="M477.05 418.21v11.81l-23.31 13.46v-11.8l23.31-13.47Z"></path><path fill="#CBCAC7" stroke="#3B3B3B" stroke-linecap="round" stroke-linejoin="round" stroke-width=".86" d="M440.22 435.58c-7.56 6.37-14.18 13-18.05 19.16-2.2-.36-3.6-.93-4.45-1.42a5.88 5.88 0 0 1-.79-.55 2.78 2.78 0 0 1-.96-1.36l-.04-.15-.05-.18c0-.06-.03-.11-.03-.17-.58-3.9 3.81-11.54 14.12-21.32l1.28.75 8.88 5.19.07.05h.02Z"></path><path fill="#F0EEEB" d="m582.1 336.67 53.12 30.67c-8.06 4.64-20.98 12.12-34.1 19.7-22.5 13-74.22 43.15-74.22 43.15a248.93 248.93 0 0 1-8.05 4.48 301.66 301.66 0 0 1-6.31 3.33c-.81.42-1.62.83-2.43 1.22a200.89 200.89 0 0 1-3.58 1.77 178.41 178.41 0 0 1-3.4 1.62 291.89 291.89 0 0 1-6.74 3.1 175.39 175.39 0 0 1-3.77 1.64c-1.25.54-2.5 1.06-3.74 1.58l-3.1 1.25a266.92 266.92 0 0 1-12.2 4.55h-.02l-5.59-3.21h.05c17.68-5.74 37.74-14.68 56.48-25.52l74.23-43.15 3.13-1.8 17.82-10.3 5.92-3.42c-5.24-3.03-12.32-7.1-19.38-11.2"></path><path stroke="#3B3B3B" stroke-linecap="round" stroke-linejoin="round" stroke-width=".86" d="m582.1 336.67 53.12 30.67c-8.06 4.64-20.98 12.12-34.1 19.7-22.5 13-74.22 43.15-74.22 43.15a248.93 248.93 0 0 1-8.05 4.48 301.66 301.66 0 0 1-6.31 3.33c-.81.42-1.62.83-2.43 1.22a200.89 200.89 0 0 1-3.58 1.77 178.41 178.41 0 0 1-3.4 1.62 291.89 291.89 0 0 1-6.74 3.1 175.39 175.39 0 0 1-3.77 1.64c-1.25.54-2.5 1.06-3.74 1.58l-3.1 1.25a266.92 266.92 0 0 1-12.2 4.55h-.02l-5.59-3.21h.05c17.68-5.74 37.74-14.68 56.48-25.52l74.23-43.15 3.13-1.8 17.82-10.3 5.92-3.42c-5.24-3.03-12.32-7.1-19.38-11.2"></path><path fill="#F0EEEB" stroke="#3B3B3B" stroke-linecap="round" stroke-linejoin="round" stroke-width=".86" d="m619.66 370.76-22.25 12.85v-24.23l22.25-12.84v24.22Z"></path><path fill="#CBCAC7" stroke="#3B3B3B" stroke-linecap="round" stroke-linejoin="round" stroke-width=".86" d="m559.85 337.69 37.56 21.69v24.23l-37.56-21.7V337.7Z"></path><path fill="#F0EEEB" stroke="#3B3B3B" stroke-linecap="round" stroke-linejoin="round" stroke-width=".86" d="m582.1 324.85 37.56 21.69-22.25 12.84-37.56-21.7 22.25-12.83Z"></path><path fill="#F0EEEB" stroke="#3B3B3B" stroke-linecap="round" stroke-linejoin="round" stroke-width=".86" d="m607.64 344.86-13.3 7.68v-19.71l13.3-7.69v19.72Z"></path><path fill="#CBCAC7" stroke="#3B3B3B" stroke-linecap="round" stroke-linejoin="round" stroke-width=".86" d="m571.87 319.85 22.46 12.98v19.71l-22.46-12.97v-19.72Z"></path><path fill="#C4CBF7" stroke="#344085" stroke-linecap="round" stroke-linejoin="round" stroke-width=".86" d="m575.35 326.74 15.2 8.77v10.79l-15.2-8.78v-10.78Z"></path><path fill="#F0EEEB" stroke="#3B3B3B" stroke-linecap="round" stroke-linejoin="round" stroke-width=".86" d="m585.17 312.17 22.47 12.97-13.3 7.69-22.47-12.98 13.3-7.68Z"></path><path fill="#7CB9C8" stroke="#0F4757" stroke-linecap="round" stroke-linejoin="round" stroke-width=".86" d="M593.49 316.4c0 .55-.35 1.1-1.1 1.53a5.84 5.84 0 0 1-5.29 0c-.73-.42-1.1-.98-1.1-1.53s.36-1.1 1.1-1.52a5.79 5.79 0 0 1 5.3 0c.73.42 1.09.97 1.09 1.52Z"></path><path fill="#7CB9C8" stroke="#0F4757" stroke-linecap="round" stroke-linejoin="round" stroke-width=".86" d="M593.49 316.4v5.5c0 .56-.35 1.11-1.1 1.53a5.84 5.84 0 0 1-5.29 0c-.73-.42-1.1-.97-1.1-1.52v-5.5c0 .54.36 1.1 1.1 1.52 1.46.84 3.83.84 5.3 0 .73-.42 1.09-.98 1.09-1.53Z"></path><path stroke="#24303E" stroke-linecap="round" stroke-linejoin="round" stroke-width=".86" d="M589.76 316.4V290m-25.09 50.48 28.18 16.27"></path><path fill="#CBD0D4" stroke="#052439" stroke-linecap="round" stroke-linejoin="round" stroke-width=".86" d="m477.05 406.4 23.32-13.45-11.32-6.53-23.32 13.46 11.32 6.53Z"></path><path fill="#86949E" stroke="#052439" stroke-linecap="round" stroke-linejoin="round" stroke-width=".86" d="M477.05 406.4v11.81l-11.32-6.53v-11.8l11.32 6.53Z"></path><path fill="#CBD0D4" stroke="#052439" stroke-linecap="round" stroke-linejoin="round" stroke-width=".86" d="M500.37 392.95v11.8l-23.32 13.46v-11.8l23.32-13.46Z"></path><path fill="#E7E9FA" stroke="#344085" stroke-linecap="round" stroke-linejoin="round" stroke-width=".86" d="m488.38 412.95 23.3-13.46-11.3-6.54-23.33 13.46 11.33 6.54Z"></path><path fill="#C4CBF7" stroke="#344085" stroke-linecap="round" stroke-linejoin="round" stroke-width=".86" d="M488.38 412.95v11.8l-11.33-6.54v-11.8l11.33 6.54Z"></path><path fill="#E7E9FA" stroke="#344085" stroke-linecap="round" stroke-linejoin="round" stroke-width=".86" d="M511.69 399.49v11.8l-23.31 13.46v-11.8l23.3-13.46Z"></path><path fill="#BAF8EA" stroke="#24303E" stroke-linecap="round" stroke-linejoin="round" stroke-width=".86" d="m477.05 394.6 23.32-13.46-11.32-6.53-23.32 13.46 11.32 6.53Z"></path><path fill="#4394A7" stroke="#0F4757" stroke-linecap="round" stroke-linejoin="round" stroke-width=".86" d="M477.05 394.6v11.8l-11.32-6.52v-11.8l11.32 6.52Z"></path><path fill="#7CB9C8" stroke="#0F4757" stroke-linecap="round" stroke-linejoin="round" stroke-width=".86" d="M500.37 381.14v11.8l-23.32 13.47v-11.8l23.32-13.47Z"></path><path fill="#E7E9FA" stroke="#344085" stroke-linecap="round" stroke-linejoin="round" stroke-width=".86" d="m477.05 382.8 23.32-13.46-11.32-6.53-23.32 13.46 11.32 6.53Z"></path><path fill="#C4CBF7" stroke="#344085" stroke-linecap="round" stroke-linejoin="round" stroke-width=".86" d="M477.05 382.8v11.8l-11.32-6.53v-11.8l11.32 6.53Z"></path><path fill="#E7E9FA" stroke="#344085" stroke-linecap="round" stroke-linejoin="round" stroke-width=".86" d="M500.37 369.34v11.8l-23.32 13.46v-11.8l23.32-13.46Z"></path><path fill="#7A7978" stroke="#3B3B3B" stroke-linecap="round" stroke-linejoin="round" stroke-width=".86" d="M449.7 470.73a8.23 8.23 0 0 1-7.4.76c-2.16-.98-2.36-2.88-.44-4.27a8.23 8.23 0 0 1 7.4-.76c2.16.98 2.36 2.88.43 4.27Z"></path><path fill="#CBCAC7" stroke="#3B3B3B" stroke-linecap="round" stroke-linejoin="round" stroke-width=".86" d="M449.7 470.73a8.22 8.22 0 0 1-7.4.76 3.18 3.18 0 0 1-1.36-1.04c2.15.7 5.07.3 6.82-.97 1.37-.98 1.67-2.24.94-3.23.2.06.37.13.56.21 2.16.98 2.36 2.89.44 4.28v-.01Z"></path><path fill="#175F74" stroke="#0F4757" stroke-linecap="round" stroke-linejoin="round" stroke-width=".86" d="M570.44 351.19c0 1.4-.98 1.97-2.2 1.27a4.85 4.85 0 0 1-2.18-3.8c0-1.4.98-1.97 2.19-1.27 1.2.7 2.19 2.4 2.19 3.8Zm9.66 5.58c0 1.4-.99 1.96-2.2 1.26s-2.18-2.4-2.18-3.8.98-1.96 2.19-1.26c1.2.7 2.19 2.4 2.19 3.8Zm9.66 5.57c0 1.4-.98 1.97-2.2 1.27a4.85 4.85 0 0 1-2.18-3.8c0-1.4.98-1.97 2.19-1.27 1.2.7 2.19 2.4 2.19 3.8Zm-19.32-.98c0 1.4-.98 1.96-2.2 1.26a4.85 4.85 0 0 1-2.18-3.8c0-1.4.98-1.96 2.19-1.26 1.2.7 2.19 2.4 2.19 3.8Zm9.66 5.58c0 1.4-.99 1.97-2.2 1.27s-2.18-2.4-2.18-3.8.98-1.97 2.19-1.27c1.2.7 2.19 2.4 2.19 3.8Zm9.66 5.58c0 1.4-.98 1.96-2.2 1.26a4.85 4.85 0 0 1-2.18-3.8c0-1.4.98-1.96 2.19-1.26 1.2.7 2.19 2.4 2.19 3.8Z"></path><path fill="#4394A7" stroke="#0F4757" stroke-linecap="round" stroke-linejoin="round" stroke-width=".86" d="M570.02 352.5c-.4.36-1.01.38-1.7-.02-1.2-.7-2.2-2.4-2.2-3.78s.95-1.94 2.13-1.3c-.31.25-.5.7-.5 1.3 0 1.39 1 3.1 2.2 3.78a.12.12 0 0 0 .07.03Zm9.66 5.6c-.4.34-1.01.35-1.7-.04a4.84 4.84 0 0 1-2.2-3.79c0-1.38.94-1.93 2.12-1.3-.31.25-.5.71-.5 1.3 0 1.4 1 3.1 2.2 3.79a.6.6 0 0 0 .08.04Zm9.66 5.58c-.4.33-1.01.35-1.7-.05a4.82 4.82 0 0 1-2.2-3.78c0-1.39.94-1.94 2.12-1.3-.31.25-.5.7-.5 1.3 0 1.39 1 3.1 2.2 3.78l.08.05Zm-19.32-1c-.4.36-1.01.38-1.7-.02a4.84 4.84 0 0 1-2.2-3.8c0-1.4.95-1.94 2.13-1.3-.31.25-.5.7-.5 1.3 0 1.4 1 3.1 2.2 3.8a.12.12 0 0 0 .07.03Zm9.66 5.58c-.4.35-1.02.37-1.7-.02a4.84 4.84 0 0 1-2.2-3.8c0-1.41.94-1.94 2.12-1.3-.31.24-.5.7-.5 1.3 0 1.4 1 3.1 2.2 3.8a.12.12 0 0 0 .08.02Zm9.66 5.58c-.4.35-1.02.37-1.7-.03a4.82 4.82 0 0 1-2.2-3.8c0-1.4.94-1.92 2.12-1.28-.31.25-.5.7-.5 1.28 0 1.4 1 3.1 2.2 3.8a.12.12 0 0 0 .08.03Z"></path><path fill="#CBD0D4" stroke="#052439" stroke-linecap="round" stroke-linejoin="round" stroke-width=".86" d="M565.43 372.35c0 .86-.42 1.68-1.25 2.43-.28.26-.62.5-1 .73-3 1.74-7.9 1.74-10.9 0a5.77 5.77 0 0 1-1.01-.73 3.3 3.3 0 0 1-1.25-2.28v-.3c.06-1.09.81-2.16 2.25-3 3.02-1.73 7.9-1.73 10.9 0 1.44.84 2.2 1.91 2.25 3l.01.15Z"></path><path fill="#86949E" stroke="#052439" stroke-linecap="round" stroke-linejoin="round" stroke-width=".86" d="M565.43 372.35v4.85c0 1.14-.75 2.28-2.26 3.15-3 1.74-7.88 1.74-10.9 0-1.5-.87-2.25-2-2.25-3.15v-4.7c.04.8.46 1.59 1.25 2.28.28.26.62.5 1 .73 3.02 1.74 7.9 1.74 10.9 0a5.77 5.77 0 0 0 1.01-.73c.83-.74 1.25-1.57 1.25-2.43Z"></path><path fill="#CBD0D4" stroke="#052439" stroke-linecap="round" stroke-linejoin="round" stroke-width=".86" d="M582.84 382.38c0 .86-.42 1.68-1.25 2.43a5.87 5.87 0 0 1-1.01.73c-3 1.74-7.88 1.74-10.9 0a5.87 5.87 0 0 1-1-.73 3.3 3.3 0 0 1-1.25-2.28v-.3c.05-1.09.81-2.16 2.25-3 3.02-1.73 7.9-1.73 10.9 0 1.44.84 2.2 1.91 2.25 3a.9.9 0 0 1 0 .15Z"></path><path fill="#86949E" stroke="#052439" stroke-linecap="round" stroke-linejoin="round" stroke-width=".86" d="M582.84 382.38v4.86c0 1.13-.75 2.27-2.26 3.14-3 1.74-7.88 1.74-10.9 0-1.5-.87-2.26-2-2.25-3.14v-4.7c.03.8.46 1.58 1.24 2.27.29.26.62.5 1.01.73 3.02 1.74 7.9 1.74 10.9 0a5.87 5.87 0 0 0 1-.73c.84-.74 1.26-1.57 1.26-2.43Z"></path><path fill="#E7E9FA" stroke="#344085" stroke-linecap="round" stroke-linejoin="round" stroke-width=".86" d="m482.27 204.77-18.4 11.77-38.7-28.89a220.72 220.72 0 0 0-41.73-24.75 170.98 170.98 0 0 0-26.24-9.3 165.5 165.5 0 0 0-5.19-1.25c-3.45-.77-6.87-1.43-10.3-1.92l-8.97-1.3h-.03l-11.3-1.66-18.41-2.7L321.39 133l38.72 5.67c3.4.5 6.86 1.15 10.31 1.91 1.73.38 3.46.83 5.19 1.25a169 169 0 0 1 26.24 9.3 220.16 220.16 0 0 1 41.72 24.76l38.7 28.9h0v-.02Z"></path><path fill="#E7E9FA" stroke="#344085" stroke-linecap="round" stroke-linejoin="round" stroke-width=".86" d="M482.27 204.77v110c0 12.98-3.95 23.9-11.67 30.37a82.55 82.55 0 0 1-9.02 6.55v.03l-16.6 10.6a82.28 82.28 0 0 0 7-5.22c.08-.06.13-.12.22-.18 4.79-4.03 8.13-9.77 9.97-16.67a54.1 54.1 0 0 0 1.7-13.72V216.55l18.4-11.77v0Z"></path><path fill="#C4CBF7" stroke="#344085" stroke-linecap="round" stroke-linejoin="round" stroke-width=".86" d="M425.16 187.67a220.67 220.67 0 0 0-41.73-24.75 170.84 170.84 0 0 0-26.24-9.3 167.6 167.6 0 0 0-5.18-1.26 134.7 134.7 0 0 0-10.3-1.91l-8.97-1.31h-.03l-11.3-1.65-18.41-2.71v109.99c0 12.98 3.98 27.47 11.7 40.83 18.44 31.9 33.3 55.87 58.96 79.25 22.03-3.95 52.46-.31 70.26-11.84l1.06-.67a82.71 82.71 0 0 0 7-5.22c.09-.07.14-.13.23-.19 4.79-4.02 8.13-9.76 9.97-16.66a54.1 54.1 0 0 0 1.7-13.72V216.57l-38.7-28.9h-.02Z"></path><path fill="#566AE1" stroke="#344085" stroke-linecap="round" stroke-linejoin="round" stroke-width=".86" d="M419.84 202.26a193.7 193.7 0 0 0-36.76-21.81c-12.42-5.55-24.82-9.23-36.79-11l-22.45-3.3-6.06-.89v95.5c0 9.73 3 20.3 8.45 29.7 12.52 21.72 22.9 42.89 51.7 69.66 4.68-.9 50.14-4.15 60.64-12.96 5.42-4.56 9.77-18.43 9.77-28.15v-95.52l-28.5-21.25v.03Z"></path><path fill="#E7E9FA" stroke="#344085" stroke-linecap="round" stroke-linejoin="round" stroke-width=".86" d="m433.87 250.5-66.8 49.54-27.46-35.8 14.19-9.64 15.85 21.33 53.02-39.75 11.2 14.3v.02Z"></path></svg>