<svg xmlns="http://www.w3.org/2000/svg" xmlns:xlink="http://www.w3.org/1999/xlink" fill="none" viewBox="0 0 270 149"><defs><path id="cargo-insurance-2023-benefits-expansive_svg__a" fill="#ACC457" d="M158.53 76.03V76c-.11-.1.02.36 0 .03Z"></path></defs><path fill="#ADF1E4" stroke="#1D5A4F" stroke-linecap="round" stroke-linejoin="round" stroke-width=".5" d="M181.16 98.89A52.4 52.4 0 1 0 88.2 50.48a52.4 52.4 0 0 0 92.96 48.4Z"></path><path fill="#45D6BA" stroke="#1D5A4F" stroke-linecap="round" stroke-linejoin="round" stroke-width=".5" d="M129.02 26.65c-1.27-.3-2.47.45-3.77.64a3.45 3.45 0 0 1-1.12 0c-1.06-.2-2.07-.6-3.05-1.07-.63-.3-1.28-.9-2-.98-.76-.08-1.15.41-1.74.81-.86.57-1.89.6-2.82.97-.61.23-1.06 1.04-1.7 1.17-.6.12-.87-.25-1.66-.22-.79.03-7.7 3.56-13.98 10.1-8.8 9.2-12.5 20.78-12.5 20.78l.62-.73c1-1.27 2.29-1.52 2.3.45 0 .5-.02 1.1.44 1.41.32.21 1.37.2 1.55-.19.31-.66-.23-1.36-.43-1.97-.39-1.23-.92-3.86.47-4.65.5-.29 1.24-.46 1.6-.95.54-.74-.03-1.36-.06-2.15-.02-.59.23-1.06.55-1.52A11.11 11.11 0 0 1 94.55 46c1.05-.74 2.43-.63 3.37-1.59.69-.7 1.21-1.6 2.13-2.04.89-.43 2.07 0 2.63-1.02.1-.19 1-2.2.87-2.32.5.47.45 1.37 1.19 1.61 1 .33 1.97-.69 2.5-1.4.86-1.15 1.9-2.37 2.31-3.75 1.02-3.39-2.85-2.89-4.11-2.21 1.06-1.04.63-.53 2-1.18.27-.13 1.18-.66 1.5-.57.67.2.41 1.32 1.23 1.55.74.21.6-.04 1.19-.37.62-.33 1.35-.17 1.95-.56.41-.27.71-.74 1.03-1.1.71-.79 1.7-1.9 2.84-1.19-.42-.26-2.18 2.17-2.33 2.41-.25.42-.5.9-.47 1.4 0 .23.77 2 .85 1.94 0 0 2.84-1.89 2.96-2.02.12-.12 4.24-2.02 4.24-2.02.23-.1 1.32.33 1.56.41.7.2 1.55.65 2.26.3 1.28-.63 2.22-1.87 3.02-3 .49-.69.76-2.34-.26-2.59l.01-.04Zm18.1 96.72a3.9 3.9 0 0 1-2.64-.23c-1.07-.49-2.15-.21-4-1.18-1.83-.96-3.4-.32-4.53-.17-1.13.13-2.25-.02-4.33.08-2.09.1-2.39-.78-3.15-.8-.77-.03-1.79-.7-4.4-1.56-2.62-.86-3.39-.75-4.96-.46-1.57.29-1.55 1.66-2.85 1.72-1.3.04-.89-.03-1.6-.12-.72-.08-2.8-.52-3.46-.62-.65-.08-.87-1.27-1.48-2.71-.61-1.46-.67-.46-1.22-1.21-.57-.74-1.35-.32-1.5.26-.14.6-1.8 1.65-1.8 1.65s1.27.76 3.35 2.1c11.96 6.87 26.3 9.14 39.72 5.18-.15-.42-.76-2.06-1.15-1.92v0Zm31.44-25.66c-.56 0-1.64-.14-2.1.3-.53.53.13 1.08-.16 1.73-.29.67-1.6.69-2.2.79-2.25.35-3.56 2.86-5.78 2.93-.6.02-1.32-.58-1.9-.36-.95.36-.7 2.2-.94 2.97-.46 1.55-1.33 2.32-2.77 2.88-.82.3-2.6.7-2.64 1.84-.03.95 1.33 1.26 2.05 1.25.9-.01 1.79-.73 2.65-.64 1.78.17-.3 2.34.38 3.17.43.53 2.66.7 3.2.26a52.26 52.26 0 0 0 11.15-12.98c-.1-.39.93-2.43.8-3.34-.07-.56-.87-.77-1.73-.79v0Zm-3.09-14.73c-1.5 2.34-1.48-1.26-2.04 3.41-.09.75-.2 1.54-.48 2.24-.58 1.5-.8 2.54.1 3.96.15.26 1.53 2.45 1.87 2.19 1.03-.85 1.57-3.19 1.95-4.4.47-1.53.8-3.11.9-4.7.06-.86.38-2.96-.44-3.54-.32-.23-.36-1.5-1.86.85v-.01Zm-4.37.84a1.66 1.66 0 0 0-.74-.13c-.56 0-1.45.02-1.5.76-.06 1-1.2.33-.46 2.15.43 1.07.2 1.9 1.14 2.73.29.26 2.05-1.22 2.24-1.43.19-.22.1-.36.39-.33-.17-.94-.56-1.84-.68-2.8-.07-.5-.13-.8-.38-.93v-.02Zm-32.25 12.19s-.17.34-1.31.9c-1.14.57-1.46.4-1.62 1.06-.17.66-.21 2.07-.21 2.07s-1.24.17-1 1c.23.83.52.9.6.93.09.02.24.47.71.39.47-.08.99-.55 1.57-1.14.58-.58.96-1.92 1.15-2.32.17-.4.44-.99.5-1.4.07-.4.04-2.11-.4-1.5v0Z"></path><use xlink:href="#cargo-insurance-2023-benefits-expansive_svg__a"></use><use xlink:href="#cargo-insurance-2023-benefits-expansive_svg__a"></use><path fill="#45D6BA" stroke="#1D5A4F" stroke-linecap="round" stroke-linejoin="round" stroke-width=".5" d="M181.4 60.21a4.46 4.46 0 0 1-1.02-1.22 2.98 2.98 0 0 1-.36-1.27c-.07-1.12.63-2.14.5-3.27-.13-1.14-.82-1.93-1.7-2.62a80.85 80.85 0 0 1-4.04-4.2.55.55 0 0 1 .1-.8c.6-.4 1.61-.96 2.21-.45.88.74 1.74 1.54 1.4.36-.35-1.17-1.51-1.58-1.2-2.2.03-.06.03-.15.02-.26a.26.26 0 0 0-.08-.18 52.65 52.65 0 0 0-2.44-3.15 7.27 7.27 0 0 0-1.8-.7 5.1 5.1 0 0 1-1.92-.76c-.54-.35-1.04-.93-1.74-.94-.83-.02-1.59.5-2.43.49-1.75-.01-3.84-.92-5.41-1.63-1.45-.66-2.17-2.12-3.36-3.1-.64-.53-2.37-1.1-2.54.2-.1.77.4 1.09-.62 1.32-.79.19-1.58-.04-2.36-.07a4.68 4.68 0 0 0-3 1c-.42.3-.65.56-1.18.3-.42-.22-.65-.66-1.13-.8-.5-.13-1.01-.02-1.51-.02-.52 0-.97-.13-1.48-.24-.72-.17-1.52-.2-2.13-.66-.23-.16-.34-.38-.6-.53-.36-.19-.8-.19-1.18-.32-.83-.3-1.04-.5-1.85-.13-1.19.55-2.72.47-3.83 1.14-.63.38-.62.35-1.8.86-1.2.51-1.05.8-1.92.75-.89-.06-.85-.06-1.28.2-.42.25.32 1.64.43 2.61.11.98.37.6.11.98s-.44-.1-1.81-.08h-2.07a.42.42 0 0 1-.33-.17.89.89 0 0 1 0-1.1c.36-.54.29-.98.23-1.2a.37.37 0 0 0-.1-.18c-.2-.19-.74-.62-1.13-.23-.48.49-.68.53-.98.98-.35.53.45 1.26-.51 1.14-.65-.08-1.31-1.01-1.99-.8-.63.22-.74 1.08-.6 1.64.18.77.83.92 1.46 1.27.97.56.88 1.69 1.04 2.65.06.4.44 1.66-.42 1.45-.35-.08-.64-.31-.99-.35-.32-.03-.68.06-1 .05-1.12-.04-.63.17-1.18.36-.86.3-1.7 2.9-.93 3.5.73.57 2.3.07 3.08-.13 1.43-.36 2.6-1.42 4.01-1.9.79-.26 1.77-.9 2.35-.18.5.6.79 1.4.81 2.18.02.48-.06.73.24 1.12.7.91 1.38.19 1.5-.63a.43.43 0 0 1 .49-.35.43.43 0 0 0 .49-.36c.06-.5-.08-.7-.67-1a2.2 2.2 0 0 1-1.1-1.1c-.1-.3.2-.62.51-.54.92.25 1.8.69 2.12 1.65.31.95-.28 1.83-.25 2.79.02 1.02.7 1.95 1.65 1.08.54-.5.86-1.86 1.25-.7a4.85 4.85 0 0 0 2.52 3.05c.99.57 2.38 1.88 1.15 3-1.22 1.1-2.98-.48-4.11-.94-1.5-.61-2.27.37-3.66.58-1.25.2-1.39-1.27-1.7-2.15-.16-.42-.36-.8-.57-1.18-.3-.55-.36-1.15-.87-1.53-.54-.41-1.27-.5-1.9-.7-1.1-.38-2.13-1-3.32-1.07-.58-.03-1.22-.09-1.79.07-.35.1-.44.3-.7.45-.83.46-1.92 0-2.81.44-.64.3-1.32.68-1.79 1.25-.57.7-.75 1.63-1.36 2.32-.61.7-1.46 1.1-2.12 1.75-.86.87-1.22 2.12-1.72 3.2-.47 1.04-1.2 1.64-1.93 2.49-1.87 2.17-1.64 6.13-.22 8.46.4.63-1.1-.61 1.04 1.04a10.44 10.44 0 0 0 8.58 1.83c1.35-.37 2.27 1.24 2.48 2.3.28 1.41.14 2.86.03 4.28-.06.86-.04 1.75.1 2.59.25 1.4 1.29 2.33.84 3.83-.45 1.52-1.6 2.72-2.08 4.23a5.97 5.97 0 0 0 .7 4.42 6.39 6.39 0 0 1 1.2 2.95c.2 1.52-.35 3.22.53 4.62 1.62 2.6 5.37-.97 6.68-2.1a31.27 31.27 0 0 0 5.66-5.89c.61-.87 1.36-1.6 2.03-2.45.65-.84.93-1.82 1.32-2.8.39-.98.73-1.92.85-2.98.11-.96.21-1.87.9-2.61.91-.98 1.98-1.84 2.95-2.75 1.55-1.49 3.53-2.92 4.04-5.11.12-.51.23-1.03.42-1.53a.41.41 0 0 0-.37-.57c-1.66-.12-3.61-.03-4.51-1.64-1-1.79-1.14-4.14-1.33-6.13-.1-.97-.08-2.59 1.28-2.49 2.95.24 1.16 4.25 1.6 5.9a4 4 0 0 0 1.3 1.94c.7.61 2.9 2.5 3.92 1.47.41-.41 2.2-2.16 2.18-3.4-.03-1.25-1.42-5.57.65-5.65 2.07-.08 5.05 1.78 5.09 2 .04.23 1.39 2.37 1.74 2.63.36.27 2.57 3.02 2.06 3.23-.45.19-1.65 2.46-1.85 3.33a.47.47 0 0 0 .06.32c.1.18.32.56.67 1.38a50.2 50.2 0 0 1 1.23 2.92.37.37 0 0 0 .18.21l2.12 1.33a.42.42 0 0 0 .64-.4l-.35-3.57s-.1-1.08.75-1.94c.84-.84 2.03-3.3 2.54-3.25.51.06 2-.1 2-.09 0 0 1.45 1.01 1.76 2.13.31 1.12.47 1.82.98 2.46.5.65-.57-.74.96 1.21a51.06 51.06 0 0 0 2.63 3.07.42.42 0 0 0 .52.08c.72-.4 2.47-1.48 1.8-1.93-.83-.55-.65-.58-1.28-2.31a5.64 5.64 0 0 1-.27-2.96.45.45 0 0 1 .14-.24c.23-.2.78-.7 1.08-1.14.38-.55 1.33.99 2.38-1.5 1.04-2.5 1.28-2.35.62-4.65s-1.34-1.4-1.44-3.88a8.47 8.47 0 0 0-.46-2.39c-.19-.54-.82-1.18-.53-1.84.25-.56.62-.24.94.11a9.02 9.02 0 0 1 1.63 2.66c.25.61.3 1.76 1.08 1.98.67.2 1.62-.77 1.84-1.34.34-.95-.79-1.52-1.39-2.03v.07Zm-87.23 46.92c-1.23-1.51-.37-3.5-.4-5.23-.06-2.23-.28-4.46.66-6.55.45-1 1.2-1.77 1.56-2.84.38-1.07.73-2.37.56-3.52-.27-1.75-1.19-3.37-1.58-5.1a16.4 16.4 0 0 1-.43-5.4c.03-.28 1.34-1.34-.22-2.46-1.55-1.12-2.2-1.22-2.3-1.31-.1-.1-1.9-2.45-1.35-3.33.55-.88 1.18-.69.69-1.3-.5-.63-1.88-2.81-1.88-2.81s-1.65-.85-1.84-.85c-.19 0-4.35-1.86-4.35-1.86l-.02.03a52.56 52.56 0 0 0 .82 24.01c2.45 9.96 9.44 19.2 13.43 23.2.22-.04.68-.17.66-.77a2.12 2.12 0 0 0-.74-1.52c-.98-.93-2.4-1.32-3.28-2.4h.01Z"></path><path fill="#566AE1" fill-rule="evenodd" d="M132.45 7.97a14 14 0 0 0-2.66.1.23.23 0 0 1-.26-.2.24.24 0 0 1 .2-.27 14.53 14.53 0 0 1 2.74-.1.24.24 0 0 1-.02.47Zm4.4.7a.23.23 0 0 1 .3-.14c.89.34 1.75.76 2.6 1.25.12.07.16.21.1.32a.23.23 0 0 1-.33.1A18.23 18.23 0 0 0 137 8.96a.24.24 0 0 1-.13-.3Zm-10.97.24a.24.24 0 0 1-.12.31c-.76.34-1.5.74-2.23 1.2a.23.23 0 0 1-.33-.08.24.24 0 0 1 .08-.32 17.93 17.93 0 0 1 2.3-1.23.23.23 0 0 1 .3.12Zm17.43 3.71a.23.23 0 0 1 .33-.02c.7.62 1.39 1.3 2.07 2.01a.24.24 0 0 1-.01.34.23.23 0 0 1-.33-.01 30.83 30.83 0 0 0-2.04-1.98.24.24 0 0 1-.02-.34Zm-23.1.07a.24.24 0 0 1-.02.34 27.96 27.96 0 0 0-1.77 1.83.23.23 0 0 1-.33.02.24.24 0 0 1-.02-.33 28.22 28.22 0 0 1 1.8-1.87.23.23 0 0 1 .34.01Zm-4.46 5.22a.24.24 0 0 1 .06.33c-.47.7-.93 1.41-1.38 2.16a.23.23 0 0 1-.32.08.24.24 0 0 1-.08-.32c.46-.76.92-1.49 1.4-2.19a.23.23 0 0 1 .32-.06Zm32.68.35a.23.23 0 0 1 .33.05 48.78 48.78 0 0 1 1.63 2.37c.07.11.04.26-.07.33a.23.23 0 0 1-.32-.07 48.29 48.29 0 0 0-1.62-2.35.24.24 0 0 1 .05-.33Zm4.07 6.47a.23.23 0 0 1 .32.1c.44.83.88 1.69 1.3 2.57a.24.24 0 0 1-.1.31.23.23 0 0 1-.32-.1 65.27 65.27 0 0 0-1.3-2.56.24.24 0 0 1 .1-.32Zm3.25 6.93a.23.23 0 0 1 .3.13c.36.88.7 1.77 1.04 2.69a.24.24 0 0 1-.13.3.23.23 0 0 1-.3-.14 85.75 85.75 0 0 0-1.04-2.67.24.24 0 0 1 .13-.31Zm2.59 7.2c.12-.03.25.04.3.16.27.9.55 1.83.8 2.77a.24.24 0 0 1-.15.29.23.23 0 0 1-.3-.17 79.5 79.5 0 0 0-.8-2.75.24.24 0 0 1 .15-.3Zm2.02 7.4a.23.23 0 0 1 .28.18c.22.92.43 1.86.63 2.81a.24.24 0 0 1-.19.28.23.23 0 0 1-.27-.18c-.2-.95-.4-1.88-.62-2.8a.24.24 0 0 1 .17-.29Zm1.52 7.52a.23.23 0 0 1 .27.19c.16.94.3 1.89.45 2.85a.23.23 0 1 1-.47.07c-.13-.96-.28-1.9-.44-2.84a.24.24 0 0 1 .2-.27Zm1.06 7.6a.23.23 0 0 1 .26.2c.1.95.2 1.9.28 2.87a.23.23 0 0 1-.21.26.23.23 0 0 1-.26-.22c-.08-.96-.17-1.91-.28-2.86a.23.23 0 0 1 .21-.26Zm.62 7.64a.23.23 0 0 1 .25.22 136.03 136.03 0 0 1 .12 2.89.23.23 0 0 1-.22.24.23.23 0 0 1-.25-.23 134.98 134.98 0 0 0-.12-2.88.23.23 0 0 1 .22-.24Zm.2 7.67c.14 0 .24.1.24.24 0 .97-.02 1.93-.04 2.88a.23.23 0 0 1-.24.23.23.23 0 0 1-.23-.24c.03-.95.04-1.91.04-2.87a.24.24 0 0 1 .24-.24Zm-.22 7.67c.13 0 .23.12.22.25a131.33 131.33 0 0 1-.2 2.88.23.23 0 0 1-.26.21.23.23 0 0 1-.21-.25c.08-.95.14-1.9.2-2.87a.23.23 0 0 1 .25-.22Zm-.68 7.64a.24.24 0 0 1 .2.26c-.11.97-.24 1.92-.38 2.86a.23.23 0 0 1-.27.2.24.24 0 0 1-.2-.27c.14-.94.27-1.89.39-2.84a.23.23 0 0 1 .26-.21Zm-1.17 7.58c.13.03.21.15.19.28-.19.95-.38 1.9-.59 2.82a.23.23 0 0 1-.28.18.24.24 0 0 1-.17-.28c.2-.92.4-1.86.58-2.81a.23.23 0 0 1 .27-.19Zm-1.71 7.47a.24.24 0 0 1 .16.3l-.8 2.76a.23.23 0 1 1-.45-.14c.28-.9.54-1.82.8-2.75a.23.23 0 0 1 .29-.17Zm-2.34 7.3a.24.24 0 0 1 .13.3 68.03 68.03 0 0 1-1.08 2.67.23.23 0 0 1-.31.13.24.24 0 0 1-.12-.31c.37-.87.73-1.75 1.07-2.66a.23.23 0 0 1 .3-.14Zm-3.12 6.99a.24.24 0 0 1 .1.32 48.54 48.54 0 0 1-1.43 2.5.23.23 0 0 1-.32.08.24.24 0 0 1-.08-.32c.49-.8.96-1.62 1.41-2.48a.23.23 0 0 1 .32-.1Zm-4.1 6.43a.24.24 0 0 1 .03.34 31.3 31.3 0 0 1-1.9 2.18.23.23 0 0 1-.32 0 .24.24 0 0 1 0-.33 30.63 30.63 0 0 0 1.86-2.15.23.23 0 0 1 .33-.04Zm-28.95.93a.23.23 0 0 1 .33.01 31.12 31.12 0 0 0 2.06 2.05.24.24 0 0 1 .02.34.23.23 0 0 1-.33.02 31.82 31.82 0 0 1-2.1-2.09.24.24 0 0 1 .02-.33Zm23.52 4.4a.24.24 0 0 1-.06.33 18.64 18.64 0 0 1-2.49 1.47.23.23 0 0 1-.3-.11.24.24 0 0 1 .1-.32c.82-.4 1.63-.88 2.42-1.43a.23.23 0 0 1 .33.06Zm-17.58.63a.23.23 0 0 1 .32-.08c.85.5 1.71.92 2.59 1.27.12.05.18.18.13.3a.23.23 0 0 1-.3.14 18.87 18.87 0 0 1-2.66-1.3.24.24 0 0 1-.08-.33Zm10.38 2.13a.23.23 0 0 1 .27.2.24.24 0 0 1-.2.27 14.37 14.37 0 0 1-2.92.12.24.24 0 0 1-.22-.25.23.23 0 0 1 .25-.22 13.99 13.99 0 0 0 2.83-.12ZM99.77 28.73a.25.25 0 0 1 .29-.2c.9.15 1.84.34 2.8.57a.25.25 0 0 1-.12.49 39.94 39.94 0 0 0-2.77-.57.25.25 0 0 1-.2-.29Zm-4.22-.37a.25.25 0 0 1-.25.26c-1 0-1.93.1-2.8.25a.25.25 0 0 1-.08-.5c.9-.16 1.85-.24 2.87-.25a.25.25 0 0 1 .26.24Zm11.57 2.23a.25.25 0 0 1 .31-.16l1.35.47a.25.25 0 1 1-.16.47 67.7 67.7 0 0 0-1.35-.46.25.25 0 0 1-.15-.32Zm-18.78-.28a.25.25 0 0 1-.03.35 6.95 6.95 0 0 0-1.77 2.13.25.25 0 0 1-.44-.23 7.46 7.46 0 0 1 1.9-2.29.25.25 0 0 1 .34.04Zm-3.05 6.83a.25.25 0 0 1 .25.25c0 .9.1 1.85.29 2.86a.25.25 0 1 1-.5.1 17.48 17.48 0 0 1-.3-2.96.25.25 0 0 1 .26-.25Zm1.53 7.62a.25.25 0 0 1 .32.14c.32.88.69 1.78 1.1 2.7a.25.25 0 0 1-.45.2 42.19 42.19 0 0 1-1.12-2.72.25.25 0 0 1 .15-.32Zm3.28 7.07a.25.25 0 0 1 .34.1c.46.83.96 1.67 1.48 2.52a.25.25 0 0 1-.42.26 72.72 72.72 0 0 1-1.5-2.54.25.25 0 0 1 .1-.34Zm4.14 6.63a.25.25 0 0 1 .35.07c.54.78 1.1 1.57 1.7 2.37a.25.25 0 1 1-.4.3c-.6-.8-1.17-1.6-1.71-2.39a.25.25 0 0 1 .06-.35Zm4.66 6.26a.25.25 0 0 1 .36.04c.6.75 1.21 1.5 1.85 2.26a.25.25 0 1 1-.38.32 135.1 135.1 0 0 1-1.86-2.27.25.25 0 0 1 .03-.35Zm5.05 5.96a.25.25 0 0 1 .36.02l1.97 2.15a.25.25 0 1 1-.36.35 155.8 155.8 0 0 1-1.99-2.17.25.25 0 0 1 .02-.35Zm5.35 5.68a.25.25 0 0 1 .36 0c.68.69 1.37 1.38 2.07 2.06a.25.25 0 1 1-.35.36 169.64 169.64 0 0 1-2.08-2.07.25.25 0 0 1 0-.35Zm5.61 5.43a.25.25 0 0 1 .36 0l2.16 1.96a.25.25 0 0 1-.33.37 195.05 195.05 0 0 1-2.17-1.97.25.25 0 0 1-.02-.36Zm5.84 5.2a.25.25 0 0 1 .35-.04 205.15 205.15 0 0 0 2.25 1.89.25.25 0 0 1-.32.38 208.1 208.1 0 0 1-2.25-1.89.25.25 0 0 1-.03-.35Zm6.04 4.94a.25.25 0 0 1 .35-.05l2.32 1.79a.25.25 0 1 1-.3.4 185.97 185.97 0 0 1-2.33-1.8.25.25 0 0 1-.04-.34Zm58.1 9.46a.25.25 0 0 1 .31.18c.34 1.24.57 2.43.68 3.55a.25.25 0 1 1-.5.05 21.41 21.41 0 0 0-.66-3.47.25.25 0 0 1 .17-.31Zm-51.86-4.78a.25.25 0 0 1 .35-.05l2.4 1.68a.25.25 0 1 1-.3.4c-.79-.54-1.59-1.1-2.39-1.68a.25.25 0 0 1-.06-.35Zm6.44 4.4a.25.25 0 0 1 .34-.07c.83.54 1.65 1.06 2.47 1.57a.25.25 0 0 1-.26.42c-.83-.5-1.65-1.03-2.48-1.57a.25.25 0 0 1-.07-.35Zm6.65 4.09a.25.25 0 0 1 .34-.1c.85.5 1.7.97 2.54 1.43a.25.25 0 0 1-.24.44 127.48 127.48 0 0 1-2.55-1.43.25.25 0 0 1-.1-.34Zm6.87 3.7a.25.25 0 0 1 .33-.12l2.63 1.25a.25.25 0 1 1-.2.45c-.88-.4-1.76-.82-2.65-1.25a.25.25 0 0 1-.11-.34Zm7.11 3.18a.25.25 0 0 1 .33-.15c.93.37 1.84.7 2.74 1.02a.25.25 0 1 1-.16.47 72.58 72.58 0 0 1-2.77-1.02.25.25 0 0 1-.14-.32Zm18.52 3.33a.25.25 0 0 1-.2.29c-.92.16-1.91.23-2.96.23a.25.25 0 1 1 0-.5 16.91 16.91 0 0 0 2.87-.22.25.25 0 0 1 .29.2Zm-11.11-.88a.25.25 0 0 1 .3-.18c.98.24 1.93.45 2.85.61a.25.25 0 0 1-.1.5 41.84 41.84 0 0 1-2.87-.63.25.25 0 0 1-.18-.3Z" clip-rule="evenodd"></path><path stroke="#566AE1" stroke-linecap="round" stroke-width=".5" d="M185 110.47c-.27.88-1 2-2 3"></path><path fill="#566AE1" fill-rule="evenodd" d="M80.4 70.25a.25.25 0 0 1-.2.29l-.78.13a9.06 9.06 0 0 0-1.47.5.25.25 0 1 1-.2-.46 9.56 9.56 0 0 1 1.58-.53l.78-.14a.25.25 0 0 1 .29.2Zm107.88-.03a.25.25 0 0 1 .35-.08 25.72 25.72 0 0 1 1.9 1.26.25.25 0 1 1-.3.4 25.01 25.01 0 0 0-1.86-1.23.25.25 0 0 1-.09-.35Zm4.63 3.8a.25.25 0 0 1 .35.1c.23.39.37.8.37 1.19a4.71 4.71 0 0 1-.27 1.55.25.25 0 1 1-.47-.17c.16-.46.24-.92.24-1.39 0-.27-.1-.58-.3-.93a.25.25 0 0 1 .08-.35Zm-118.26.59a.25.25 0 0 1 .25.24c0 .45.1.94.34 1.46.16.35.35.7.56 1.04a.25.25 0 0 1-.42.27 8.76 8.76 0 0 1-.6-1.1 4.2 4.2 0 0 1-.38-1.66.25.25 0 0 1 .24-.25Zm3.47 5.7a.25.25 0 0 1 .35-.04c.32.26.65.5.97.7.55.35 1.1.68 1.68 1a.25.25 0 1 1-.24.43 25.38 25.38 0 0 1-1.71-1 12.9 12.9 0 0 1-1.01-.73.25.25 0 0 1-.04-.36Zm112.06.1a.25.25 0 0 1-.05.36 21.1 21.1 0 0 1-2.57 1.62.25.25 0 1 1-.24-.44 21.01 21.01 0 0 0 2.5-1.58.25.25 0 0 1 .36.05Zm-7.06 3.74a.25.25 0 0 1-.14.32c-.9.34-1.85.68-2.85 1a.25.25 0 1 1-.15-.48c.99-.32 1.93-.65 2.82-.99a.25.25 0 0 1 .32.15Zm-96.31.52a.25.25 0 0 1 .32-.16 80.16 80.16 0 0 0 3.27 1.04.25.25 0 1 1-.14.48 85.74 85.74 0 0 1-3.3-1.04.25.25 0 0 1-.15-.32Zm88.69 1.88a.25.25 0 0 1-.19.3c-.94.25-1.92.48-2.93.7a.25.25 0 0 1-.1-.48c1-.23 1.97-.46 2.91-.7a.25.25 0 0 1 .3.18ZM94.84 87a.25.25 0 0 1 .3-.18c.95.22 1.9.44 2.87.64a.25.25 0 1 1-.1.49c-.97-.2-1.93-.42-2.89-.65a.25.25 0 0 1-.18-.3Zm72.83 1.25a.25.25 0 0 1-.2.29l-2.97.5a.25.25 0 0 1-.07-.5c1-.15 1.98-.32 2.95-.5a.25.25 0 0 1 .29.2Zm-65.13.32a.25.25 0 0 1 .29-.2l2.91.44a.25.25 0 0 1-.07.5c-.98-.14-1.95-.3-2.92-.45a.25.25 0 0 1-.2-.3Zm57.22.89a.25.25 0 0 1-.22.28l-2.98.34a.25.25 0 0 1-.06-.5 174.38 174.38 0 0 0 2.98-.34.25.25 0 0 1 .28.22Zm-49.43.2a.25.25 0 0 1 .28-.23c.98.11 1.95.21 2.93.3a.25.25 0 0 1-.05.5l-2.94-.3a.25.25 0 0 1-.22-.28Zm41.47.62a.25.25 0 0 1-.23.27l-3 .22a.25.25 0 0 1-.03-.5l2.99-.22a.25.25 0 0 1 .27.23Zm-8.25.25a.25.25 0 1 1 .02.5c-1 .04-2 .08-3 .1a.25.25 0 0 1-.01-.5c1-.02 2-.05 3-.1Zm-18.16.26a.25.25 0 0 1 .26-.24l2.65.09a.25.25 0 1 1-.01.5l-2.66-.1a.25.25 0 0 1-.24-.25Zm7.09.17a.25.25 0 0 1 .25-.24 235.16 235.16 0 0 0 2.83 0 .25.25 0 0 1 .25.25.25.25 0 0 1-.25.25 222.26 222.26 0 0 1-2.83 0 .25.25 0 0 1-.25-.26Z" clip-rule="evenodd"></path><path fill="#566AE1" d="M117.78 90.27a.25.25 0 0 1 .27-.22l2.94.3a.25.25 0 0 1-.05.5l-2.94-.3a.25.25 0 0 1-.22-.28Z"></path></svg>