<svg xmlns="http://www.w3.org/2000/svg" xmlns:xlink="http://www.w3.org/1999/xlink" fill="none" viewBox="0 0 270 149"><defs><path id="cargo-insurance-2023-benefits-affordable_svg__a" fill="#ADF1E4" stroke="#1D5A4F" stroke-linecap="round" stroke-linejoin="round" stroke-width=".5" d="M155.62 121.2v-7.14c9.16 3.48 21.18 3.38 30.14-.31v7.16c-8.97 3.68-21 3.78-30.14.28Z"></path><path id="cargo-insurance-2023-benefits-affordable_svg__b" fill="#ADF1E4" stroke="#1D5A4F" stroke-linecap="round" stroke-linejoin="round" stroke-width=".5" d="M111.41 140.47v-7.54c9.66 3.68 22.36 3.57 31.8-.32v7.55c-9.45 3.89-22.15 3.99-31.8.3Z"></path><path id="cargo-insurance-2023-benefits-affordable_svg__c" fill="#ADF1E4" stroke="#1D5A4F" stroke-linecap="round" stroke-linejoin="round" stroke-width=".5" d="M147.17 112.1v-7.14c9.15 3.49 21.18 3.38 30.14-.3v7.15c-8.97 3.68-21.01 3.78-30.14.28Z"></path></defs><path fill="#F0EEEB" stroke="#3B3B3B" stroke-linecap="round" stroke-linejoin="round" stroke-width=".5" d="M76.79 44.58 62 120.86l4.44 3.82 49-21.49 5.18-69-6.47-11.21-4.43-3.66L76.8 44.58Zm32.41-14.02c2.35-.8 3.87.52 3.39 2.95a8.58 8.58 0 0 1-5.13 5.85c-2.35.8-3.86-.53-3.38-2.95a8.58 8.58 0 0 1 5.12-5.85Z"></path><path fill="#fff" stroke="#3B3B3B" stroke-linecap="round" stroke-linejoin="round" stroke-width=".5" d="m81.5 48.38-14.8 76.45 52.26-18.03 13.05-67.83-17.82-15.95L81.48 48.4l.01-.01Z"></path><path stroke="#3B3B3B" stroke-linecap="round" stroke-linejoin="round" stroke-width=".5" d="m81.18 48.13-4.2-3.63m-1.47 53.15-4.07 21.05 45.2-15.6 11.73-60.94-15.4-13.81-28.3 21.94-9.16 47.36Z"></path><path fill="#344085" stroke="#344085" stroke-linecap="round" stroke-linejoin="round" stroke-width=".25" d="M105.79 61.15c4.9-1.88 7.15.2 6.26 5.59l-.76.3c.8-4.9-1.33-6.74-5.86-4.93-5.26 2.1-8.3 6.09-9 9.71-1.12 5.8 2.62 5.14 6.65 4.46 3.93-.68 7.79-1.02 6.6 5.17-.95 4.93-4.67 9.11-9.99 11.36l-.8 4.23-.77.3.8-4.23c-5.72 2.14-8.2-.58-7.2-5.89l.77-.3c-.94 4.92 1.49 7.37 6.99 5.17 5.03-2 8.57-5.84 9.43-10.33 1.07-5.5-2.55-5.13-6.21-4.51-4.28.7-8.28 1.38-7.03-5.12.76-3.97 3.9-8.28 9.35-10.66l.81-4.23.77-.3-.81 4.22v0Z"></path><path fill="#F0EEEB" stroke="#3B3B3B" stroke-linecap="round" stroke-linejoin="round" stroke-width=".5" d="m82.22 50.35-.08 77.7 5.08 2.91 44.04-30.35-7.97-68.73-8.48-9.8-5.03-2.75-27.56 31.03v-.01Zm29.17-19.9c2.16-1.23 3.9-.21 3.88 2.26a8.57 8.57 0 0 1-3.93 6.72c-2.15 1.23-3.89.21-3.88-2.26a8.6 8.6 0 0 1 3.93-6.71Z"></path><path fill="#fff" stroke="#3B3B3B" stroke-linecap="round" stroke-linejoin="round" stroke-width=".5" d="m87.55 53.19-.03 77.86 47.9-27.58-.02-69.07-20.52-12.3-27.32 31.09h0Zm27.25-20.25c2.48-1.41 4.46-.25 4.45 2.59a9.83 9.83 0 0 1-4.5 7.7c-2.47 1.4-4.46.24-4.44-2.6a9.83 9.83 0 0 1 4.5-7.69Z"></path><path stroke="#3B3B3B" stroke-linecap="round" stroke-linejoin="round" stroke-width=".5" d="m87.2 53.01-4.8-2.78m8.63 4.24L91 124.14l41.43-23.85-.02-62.06-17.74-10.65-23.64 26.9Z"></path><path fill="#3B3B3B" d="M113.83 61.14c4.46-2.77 7.07-1.16 7.21 4.3l-.7.44c-.13-4.97-2.57-6.38-6.68-3.75-4.77 3.06-7 7.55-7 11.23 0 5.9 3.56 4.56 7.39 3.12 3.72-1.4 7.45-2.47 7.45 3.83 0 5.02-2.85 9.82-7.66 13.03v4.31l-.7.45v-4.31c-5.22 3.17-8.17 1-8.17-4.42l.7-.45c0 5.02 2.85 6.96 7.83 3.76 4.57-2.93 7.32-7.35 7.32-11.92 0-5.58-3.48-4.56-6.96-3.26-4.08 1.5-7.87 2.92-7.87-3.7 0-4.03 2.26-8.86 7.18-12.22v-4.31l.7-.45v4.31l-.04.01Z"></path><path fill="#CBCAC7" stroke="#3B3B3B" stroke-linecap="round" stroke-linejoin="round" stroke-width=".5" d="M120.93 15.99c-1.14-3.68-3.15-7.47-6.45-9.63-3.28-2.17-7.19-1.6-10.26.68-6.49 4.84-7.46 13.66-6.01 21.11.62-.53 1.21-.87 2.04-1.55-.97-5.91-.37-12.73 4.26-16.95 2.3-2.1 5.4-3.34 8.33-1.7 2.82 1.59 4.59 4.75 5.64 7.7 1.2 3.38 1.76 7.2 1.13 10.76a10.76 10.76 0 0 1-3.03 6.06c-.83.78-2.8 1.27-2.8 1.27l-1.91 2.3s3.06.82 6.27-2c1.86-1.62 2.9-4 3.43-6.38.85-3.82.5-7.94-.65-11.66h.01Z"></path><path fill="#E1F7F3" stroke="#1D5A4F" stroke-linecap="round" stroke-linejoin="round" stroke-width=".5" d="M151.46 119.24c-5.26-3.03-7.88-7-7.8-10.97h-.03v-6.66a9.46 9.46 0 0 0 .73 3.21 11.9 11.9 0 0 0 1.9 3.07 18.9 18.9 0 0 0 5.19 4.22c10.43 6 27.35 6 37.77-.04a18.17 18.17 0 0 0 5.43-4.53c.71-.9 1.26-1.84 1.63-2.8a9.05 9.05 0 0 0 .73-3.4v7.22c-.08 3.87-2.69 7.7-7.8 10.66-10.42 6.02-27.32 6.03-37.76.02h0Z"></path><path fill="#45D6BA" stroke="#1D5A4F" stroke-linecap="round" stroke-linejoin="round" stroke-width=".5" d="M151.46 112.1a19.43 19.43 0 0 1-5.2-4.22 11.79 11.79 0 0 1-1.89-3.07 9.36 9.36 0 0 1-.73-3.21v-.13c-.14-4.03 2.48-8.1 7.82-11.16 10.42-6.02 27.32-6.03 37.76-.02 5.3 3.04 7.87 7.04 7.82 11.03a9.32 9.32 0 0 1-.73 3.41 11.28 11.28 0 0 1-1.63 2.8 18.48 18.48 0 0 1-5.44 4.53c-10.42 6.02-27.34 6.04-37.77.04h-.01Z"></path><path fill="#1D5A4F" stroke="#1D5A4F" stroke-linecap="round" stroke-linejoin="round" stroke-width=".5" d="M149.67 102c-.59-2.96 1.4-6.01 5.98-8.28 8.1-4.04 21.26-4.04 29.38-.02 4.57 2.27 6.56 5.3 6 8.26-.46-2.28-2.47-4.5-6-6.26-8.11-4-21.27-4-29.38.03-3.54 1.74-5.53 3.99-5.98 6.27v0Z"></path><path fill="#ADF1E4" stroke="#1D5A4F" stroke-linecap="round" stroke-linejoin="round" stroke-width=".5" d="M149.67 102c.45-2.27 2.45-4.5 5.98-6.26 8.1-4.04 21.26-4.04 29.38-.02 3.53 1.74 5.54 3.96 6 6.25-.44 2.3-2.45 4.54-5.98 6.3-8.1 4.03-21.26 4.03-29.38.02-3.54-1.76-5.55-4-6-6.28h0Z"></path><path stroke="#24303E" stroke-linecap="round" stroke-linejoin="round" stroke-width=".5" d="m176.47 104.73 2.08 1.2m-16.66-9.6 2.09 1.2m6.25 3.61c-1.9 1.1-4.84 1.18-6.55.18-1.72-.99-1.59-2.69.3-3.78 1.9-1.1 4.85-1.18 6.56-.18m-.3 3.78c1.88-1.1 4.83-1.17 6.54-.18 1.72.99 1.59 2.69-.3 3.78-1.9 1.1-4.85 1.18-6.56.19"></path><path fill="#45D6BA" stroke="#1D5A4F" stroke-linecap="round" stroke-linejoin="round" stroke-width=".5" d="M151.46 119.24c-5.26-3.03-7.88-7-7.8-10.97h-.03v-6.67a9.4 9.4 0 0 0 .72 3.21 12.14 12.14 0 0 0 1.9 3.07c1.27 1.52 3 2.95 5.18 4.2a28.45 28.45 0 0 0 4.17 1.95v7.14a29.13 29.13 0 0 1-4.16-1.95l.02.02Z"></path><use xlink:href="#cargo-insurance-2023-benefits-affordable_svg__a" stroke-linecap="round" stroke-linejoin="round" stroke-width=".5"></use><use xlink:href="#cargo-insurance-2023-benefits-affordable_svg__a" stroke-linecap="round" stroke-linejoin="round" stroke-width=".5"></use><path fill="#E1F7F3" stroke="#1D5A4F" stroke-linecap="round" stroke-linejoin="round" stroke-width=".5" d="M107.02 138.4c-5.55-3.19-8.3-7.4-8.23-11.58h-.02v-7.02a9.97 9.97 0 0 0 .76 3.4c.46 1.1 1.13 2.2 2 3.23a20.04 20.04 0 0 0 5.48 4.46c11 6.34 28.86 6.33 39.85-.03a19.28 19.28 0 0 0 5.74-4.79c.74-.95 1.32-1.94 1.72-2.95a9.64 9.64 0 0 0 .78-3.6v7.63c-.08 4.07-2.84 8.13-8.24 11.25-11 6.35-28.83 6.37-39.85.03l.01-.03Z"></path><path fill="#45D6BA" stroke="#1D5A4F" stroke-linecap="round" stroke-linejoin="round" stroke-width=".5" d="M107 130.87a20.37 20.37 0 0 1-5.47-4.46 12.25 12.25 0 0 1-2-3.23 9.91 9.91 0 0 1-.76-3.4v-.14c-.14-4.25 2.61-8.54 8.24-11.77 11-6.35 28.82-6.36 39.85-.03 5.58 3.22 8.3 7.44 8.25 11.65a9.65 9.65 0 0 1-.78 3.6 11.87 11.87 0 0 1-1.72 2.95 19.64 19.64 0 0 1-5.74 4.78c-10.99 6.35-28.85 6.38-39.85.04h-.01Z"></path><path fill="#1D5A4F" stroke="#1D5A4F" stroke-linecap="round" stroke-linejoin="round" stroke-width=".5" d="M105.13 120.22c-.62-3.12 1.48-6.35 6.3-8.74 8.56-4.25 22.44-4.26 31.01-.02 4.82 2.4 6.93 5.6 6.33 8.72-.48-2.4-2.6-4.76-6.33-6.6-8.56-4.23-22.44-4.23-31 .02-3.73 1.85-5.83 4.2-6.31 6.61v.01Z"></path><path fill="#ADF1E4" stroke="#1D5A4F" stroke-linecap="round" stroke-linejoin="round" stroke-width=".5" d="M105.13 120.22c.48-2.4 2.58-4.76 6.3-6.6 8.56-4.26 22.44-4.27 31.01-.03 3.72 1.85 5.85 4.18 6.33 6.6-.46 2.43-2.58 4.79-6.3 6.64-8.56 4.26-22.44 4.27-31.01.03-3.74-1.86-5.84-4.2-6.32-6.63h-.01Z"></path><path stroke="#1D5A4F" stroke-linecap="round" stroke-linejoin="round" stroke-width=".5" d="m133.42 123.1 2.1 1.58m-17.5-10.44 2.2 1.26m6.6 3.8c-2 1.15-5.1 1.24-6.92.2-1.81-1.06-1.67-2.84.32-4 2-1.15 5.1-1.24 6.92-.19m-.32 4c2-1.15 5.1-1.24 6.92-.2 1.81 1.06 1.67 2.85-.32 4-2 1.15-5.1 1.24-6.92.2"></path><path fill="#45D6BA" stroke="#1D5A4F" stroke-linecap="round" stroke-linejoin="round" stroke-width=".5" d="M107.02 138.4c-5.55-3.19-8.3-7.4-8.23-11.58h-.02v-7.03a10.16 10.16 0 0 0 .75 3.4c.47 1.1 1.13 2.18 2.01 3.23a20.11 20.11 0 0 0 5.47 4.45 29.48 29.48 0 0 0 4.4 2.06v7.54a29.24 29.24 0 0 1-4.4-2.07h.02Z"></path><use xlink:href="#cargo-insurance-2023-benefits-affordable_svg__b" stroke-linecap="round" stroke-linejoin="round" stroke-width=".5"></use><use xlink:href="#cargo-insurance-2023-benefits-affordable_svg__b" stroke-linecap="round" stroke-linejoin="round" stroke-width=".5"></use><path fill="#E1F7F3" stroke="#1D5A4F" stroke-linecap="round" stroke-linejoin="round" stroke-width=".5" d="M143 110.15c-5.26-3.04-7.87-7.01-7.8-10.98h-.03V92.5a9.48 9.48 0 0 0 .73 3.22 11.9 11.9 0 0 0 1.9 3.06 18.89 18.89 0 0 0 5.19 4.22c10.43 6 27.36 6 37.77-.03a18.16 18.16 0 0 0 5.44-4.54c.7-.9 1.25-1.84 1.63-2.8a9.07 9.07 0 0 0 .73-3.4v7.22c-.08 3.87-2.7 7.71-7.8 10.66-10.43 6.02-27.33 6.03-37.77.03h.01Z"></path><path fill="#45D6BA" stroke="#1D5A4F" stroke-linecap="round" stroke-linejoin="round" stroke-width=".5" d="M142.99 103a19.43 19.43 0 0 1-5.2-4.22 11.75 11.75 0 0 1-1.89-3.07 9.34 9.34 0 0 1-.73-3.21v-.13c-.13-4.03 2.48-8.09 7.82-11.16 10.42-6.01 27.32-6.03 37.76-.02 5.3 3.05 7.88 7.05 7.82 11.04a9.34 9.34 0 0 1-.73 3.4 11.28 11.28 0 0 1-1.63 2.8 18.48 18.48 0 0 1-5.43 4.53c-10.42 6.02-27.35 6.05-37.78.04h0Z"></path><path fill="#1D5A4F" stroke="#1D5A4F" stroke-linecap="round" stroke-linejoin="round" stroke-width=".5" d="M141.2 92.91c-.58-2.96 1.4-6.02 5.98-8.29 8.1-4.03 21.26-4.03 29.38-.02 4.57 2.27 6.57 5.31 6 8.27-.46-2.29-2.47-4.5-6-6.26-8.11-4.01-21.27-4-29.38.02-3.54 1.74-5.52 3.99-5.98 6.27v.01Z"></path><path fill="#ADF1E4" stroke="#1D5A4F" stroke-linecap="round" stroke-linejoin="round" stroke-width=".5" d="M141.2 92.91c.46-2.28 2.45-4.51 5.98-6.27 8.1-4.03 21.26-4.03 29.38-.02 3.53 1.74 5.54 3.96 6 6.26-.44 2.3-2.45 4.53-5.97 6.29-8.1 4.03-21.26 4.03-29.39.02-3.54-1.75-5.54-3.99-5.99-6.28h-.01Z"></path><path stroke="#1D5A4F" stroke-linecap="round" stroke-linejoin="round" stroke-width=".5" d="m168.02 95.64 1.98 1.5m-16.58-9.9 2.09 1.2m6.25 3.6c-1.9 1.09-4.84 1.17-6.55.17-1.72-.99-1.58-2.68.31-3.78 1.9-1.1 4.84-1.17 6.55-.18m-.3 3.8c1.89-1.1 4.83-1.18 6.54-.19 1.73 1 1.59 2.7-.3 3.79-1.9 1.1-4.84 1.17-6.55.18"></path><path fill="#45D6BA" stroke="#1D5A4F" stroke-linecap="round" stroke-linejoin="round" stroke-width=".5" d="M143 110.15c-5.26-3.04-7.87-7.01-7.8-10.98h-.03V92.5a9.38 9.38 0 0 0 .72 3.21 12.14 12.14 0 0 0 1.9 3.07 18.9 18.9 0 0 0 5.19 4.2 28.4 28.4 0 0 0 4.16 1.96v7.13a29.06 29.06 0 0 1-4.16-1.95l.02.03Z"></path><use xlink:href="#cargo-insurance-2023-benefits-affordable_svg__c" stroke-linecap="round" stroke-linejoin="round" stroke-width=".5"></use><use xlink:href="#cargo-insurance-2023-benefits-affordable_svg__c" stroke-linecap="round" stroke-linejoin="round" stroke-width=".5"></use></svg>