<svg xmlns="http://www.w3.org/2000/svg" fill="none" viewBox="0 0 270 149"><path fill="#7CB9C8" d="m148.34 139.91-6.95-3.88a1.6 1.6 0 0 1-.81-1.36l-.14-72.38c0-1 .71-2.23 1.58-2.74l68.06-39.02a1.8 1.8 0 0 1 1.63-.07l7.66 3.54"></path><path stroke="#0F4757" stroke-linecap="round" stroke-linejoin="round" stroke-width=".5" d="m148.34 139.91-6.95-3.88a1.6 1.6 0 0 1-.81-1.36l-.14-72.38c0-1 .71-2.23 1.58-2.74l68.06-39.02a1.8 1.8 0 0 1 1.63-.07l7.66 3.54"></path><path fill="#E0EDF0" stroke="#0F4757" stroke-linecap="round" stroke-linejoin="round" stroke-width=".5" d="m218.26 24.1-34.41 19.74-34.42 19.75c-.44.25-.84.68-1.12 1.18a3.3 3.3 0 0 0-.48 1.58l.29 73.13c0 .49.63.7.94.32l13.6-16.82c.24-.32.56-.6.91-.8l52.5-30.58a4.25 4.25 0 0 0 2.1-3.56l1.7-63c0-.5-.18-.86-.47-1.02-.29-.16-.69-.14-1.12.11h0l-.02-.03Z"></path><path fill="#7CB9C8" d="M167.7 74.62c2.53-4.34 2.56-9.05.05-10.51-2.5-1.47-6.6.86-9.13 5.2-2.54 4.35-2.57 9.06-.06 10.53 2.5 1.46 6.6-.87 9.13-5.22Z"></path><path fill="#4394A7" d="M164.29 74.02c1.2-1.34 1.87-3.29 1.6-4.68-.27-1.38-1.42-1.83-2.73-1.07a6.36 6.36 0 0 0-2.74 4.23c-.27 1.7.4 2.88 1.6 2.82a11.44 11.44 0 0 0-3.14 4.69c1.14.5 2.63.34 4.28-.62a12.84 12.84 0 0 0 4.28-4.33c-.65-1.04-1.78-1.45-3.15-1.04Z"></path><path fill="#566AE1" d="M172.25 84.13a1.73 1.73 0 0 0-2.33-.63l-10.7 6.31a1.69 1.69 0 0 0-.55 2.34 1.71 1.71 0 0 0 2.34.63l10.69-6.32c.8-.47 1.05-1.51.56-2.33Z"></path><path fill="#7CB9C8" d="m197.93 57.72-20.34 11.74c-2.09 1.2-4.23-1.82-3.84-5.45.17-1.68.88-3.07 1.84-3.63l20.34-11.74c2.08-1.2 4.23 1.82 3.84 5.45-.17 1.68-.88 3.07-1.84 3.63Z"></path><path fill="#164E5E" d="M177.52 62.13c.98-.55 1.16-.94 1.16-1.71l.52-.3.02 6.43-.56.32-.02-4.86-1.12.62v-.5Zm3.88-1.2a3.9 3.9 0 0 1 1.86-3.2c1.13-.63 1.88-.06 1.88 1.1v2.4a3.86 3.86 0 0 1-1.85 3.18c-1.13.64-1.88.07-1.88-1.08v-2.4h-.01Zm3.18-1.8c0-.84-.53-1.27-1.34-.82a2.74 2.74 0 0 0-1.3 2.3V63c0 .84.52 1.27 1.32.82a2.79 2.79 0 0 0 1.33-2.3v-2.4Zm1.89-.8c.27-.15.48-.02.48.29a1 1 0 0 1-.48.81c-.27.14-.47.02-.47-.28 0-.3.2-.66.47-.8v-.02Zm0 3.13c.28-.15.5-.03.5.28a1 1 0 0 1-.5.82c-.25.14-.46.02-.46-.28 0-.31.2-.67.47-.8v-.02Zm1.34-4.13c0-1.15.72-2.54 1.86-3.18 1.13-.64 1.88-.07 1.88 1.09v2.4a3.86 3.86 0 0 1-1.85 3.18c-1.13.64-1.88.07-1.88-1.08v-2.4h-.01Zm3.18-1.79c0-.84-.53-1.27-1.34-.82a2.75 2.75 0 0 0-1.3 2.3v2.4c0 .84.52 1.27 1.32.82a2.79 2.79 0 0 0 1.33-2.3v-2.4Zm3.27-.56c.65-.68 1.27-1.36 1.27-2.27 0-.77-.44-.98-1.14-.59a2.44 2.44 0 0 0-1.25 2.15l-.55.3c0-1.21.74-2.42 1.8-3.01 1-.56 1.68-.24 1.68.86 0 1.23-.85 2.2-1.52 2.92-1.08 1.17-1.33 1.75-1.33 2.85l2.88-1.61v.57l-3.5 1.95a5.1 5.1 0 0 1 1.65-4.1l.01-.01Z"></path><path fill="#C4CBF7" d="m56.56 124.36-7.54-5.54A2.51 2.51 0 0 1 48 116.8V54.34c0-1.05.73-2.3 1.64-2.83l70.17-40.26a1.84 1.84 0 0 1 1.7-.08l7.89 3.65"></path><path stroke="#344085" stroke-linecap="round" stroke-linejoin="round" stroke-width=".5" d="m56.56 124.36-7.54-5.54A2.51 2.51 0 0 1 48 116.8V54.34c0-1.05.73-2.3 1.64-2.83l70.17-40.26a1.84 1.84 0 0 1 1.7-.08l7.89 3.65"></path><path fill="#E7E9FA" stroke="#344085" stroke-linecap="round" stroke-linejoin="round" stroke-width=".5" d="m128.24 14.95-35.5 20.37-35.49 20.36c-.45.26-.86.7-1.16 1.23-.3.51-.48 1.1-.48 1.6v63.74c0 1.05.36 1.77.95 2.12.6.34 1.4.3 2.3-.23l56.65-32.28a1.38 1.38 0 0 1 1.38.01c2.18 1.31 8.93 5.07 11.74 6.63a.84.84 0 0 0 1.24-.73V15.89c0-.52-.19-.89-.48-1.06-.3-.16-.7-.15-1.17.11h.02Z"></path><path stroke="#344085" stroke-linecap="round" stroke-linejoin="round" stroke-width=".5" d="m77.08 102.86-10.74 6.25m34.68-20.16-20.08 11.66m33.63-19.56-9.07 5.31m-3.18-15.2L65.55 92.4M84 90.33c-6.29 3.76-12.7 7.18-18.98 10.92m30.9-17.78-4.87 2.8-2.7 1.55m-12.3-9.52c-3.67 2.12-7.09 4.04-10.64 6.19m49.7-28.9-34.74 20.2"></path><path fill="#C4CBF7" d="M73.8 67.58c2.54-4.34 2.57-9.05.06-10.51-2.5-1.47-6.6.86-9.14 5.2-2.54 4.35-2.56 9.06-.06 10.53 2.51 1.46 6.6-.87 9.14-5.22Z"></path><path fill="#566AE1" d="M70.4 66.97c1.2-1.34 1.88-3.28 1.6-4.68-.27-1.38-1.41-1.83-2.73-1.07a6.36 6.36 0 0 0-2.73 4.23c-.28 1.7.4 2.88 1.6 2.83a11.44 11.44 0 0 0-3.15 4.68c1.14.5 2.63.34 4.28-.61A12.83 12.83 0 0 0 73.55 68c-.65-1.04-1.78-1.45-3.15-1.04Z"></path><path fill="#C4CBF7" d="M103.92 50.27 83.58 62c-2.08 1.2-4.22-1.82-3.84-5.46.18-1.68.88-3.06 1.85-3.62l20.33-11.74c2.09-1.2 4.23 1.82 3.85 5.45-.18 1.68-.88 3.06-1.85 3.63Z"></path><path fill="#566AE1" d="M83.52 54.69c.97-.55 1.15-.95 1.15-1.71l.53-.3.02 6.43-.56.32-.02-4.86-1.12.62v-.5Zm3.87-1.22a3.9 3.9 0 0 1 1.87-3.18c1.13-.64 1.87-.07 1.87 1.08v2.4a3.86 3.86 0 0 1-1.85 3.19c-1.13.64-1.88.07-1.88-1.09v-2.4Zm3.18-1.79c0-.84-.52-1.27-1.33-.82a2.74 2.74 0 0 0-1.31 2.3v2.4c.01.84.53 1.27 1.33.82a2.78 2.78 0 0 0 1.33-2.3v-2.41l-.01.01Zm1.9-.79c.28-.15.49-.02.49.29s-.21.65-.49.8c-.26.15-.47.03-.47-.27 0-.3.21-.67.47-.8v-.02Zm.01 3.13c.28-.16.49-.03.49.28a1 1 0 0 1-.49.82c-.26.14-.47.02-.47-.28 0-.32.21-.67.47-.81v-.01Zm1.33-4.13a3.9 3.9 0 0 1 1.87-3.18c1.13-.64 1.87-.07 1.87 1.09v2.4c.01 1.15-.72 2.55-1.85 3.18s-1.88.07-1.88-1.08v-2.4ZM97 48.1c0-.84-.52-1.27-1.33-.82a2.74 2.74 0 0 0-1.31 2.3v2.4c.01.84.53 1.27 1.33.82A2.79 2.79 0 0 0 97 50.5v-2.4Zm1.4-.77a3.9 3.9 0 0 1 1.86-3.18c1.14-.63 1.88-.06 1.88 1.09v2.4a3.86 3.86 0 0 1-1.85 3.19c-1.13.63-1.88.06-1.88-1.1v-2.4h-.01Zm3.18-1.78c0-.85-.52-1.28-1.34-.83a2.75 2.75 0 0 0-1.3 2.3v2.4c0 .84.52 1.27 1.32.82a2.79 2.79 0 0 0 1.33-2.3v-2.4Z"></path></svg>