<svg xmlns="http://www.w3.org/2000/svg" fill="none" viewBox="0 0 270 149"><g clip-path="url(#cargo-insurance-2023-benefits-expedited_svg__a)"><path fill="#F0EEEB" stroke="#3B3B3B" stroke-linecap="round" stroke-linejoin="round" stroke-width=".5" d="M121.5 136.69 48.37 94.57l98.45-56.85a3.04 3.04 0 0 1 2.68 0l62.6 36.07 8.96 5.4-99.58 57.5v0Z"></path><path fill="#F0EEEB" stroke="#3B3B3B" stroke-linecap="round" stroke-linejoin="round" stroke-width=".5" d="m121.64 131.67-73.1-42.13 98.44-56.86a3.01 3.01 0 0 1 2.67 0l62.6 36.08 8.96 5.4-99.58 57.5h.01Z"></path><path fill="#F0EEEB" stroke="#3B3B3B" stroke-linecap="round" stroke-linejoin="round" stroke-width=".5" d="m121.39 126.37-73.1-42.13 99.78-57.62 63.95 36.84 8.96 5.4-99.58 57.5h-.01Z"></path><path fill="#fff" stroke="#3B3B3B" stroke-linecap="round" stroke-linejoin="round" stroke-width=".5" d="M121.69 121.04 48.59 78.9l99.78-57.62 63.95 36.84.1 10.5-90.73 52.4v0Z"></path><path fill="#CBCAC7" d="m212.2 68.7-1.38.8L200 63.36l10.8-6.14 1.32.79"></path><path stroke="#3B3B3B" stroke-linecap="round" stroke-linejoin="round" stroke-width=".5" d="m212.2 68.7-1.38.8L200 63.36l10.8-6.14 1.32.79"></path><path fill="#E0EDF0" d="m168.07 65.39-41.64-24.06 6.52-3.76 41.64 24.04-6.52 3.77Zm-38.1-3.19L110.4 50.45l6.51-3.77 19.6 11.75-6.52 3.77Zm-3.4 18.21L92.68 60.84l6.52-3.77 33.87 19.57-6.5 3.77Zm-19.3 13.92-35.1-20.28 6.74-3.9 35.11 20.28-6.75 3.9Z"></path><path fill="#CBCAC7" d="m154.62 45.96-18.5-10.7 1.57-.9 18.5 10.69-1.57.91Z"></path><path fill="#E0EDF0" d="m186.26 76.12-16.34-9.45 6.52-3.76 16.35 9.44-6.53 3.77Zm-15.95 9.33L153.96 76l6.52-3.76 16.35 9.44-6.52 3.77Zm-17.9 10.22-16.34-9.45 6.52-3.76 16.34 9.44-6.52 3.77Z"></path><path fill="#CBCAC7" d="m187.51 65.4-8.7-5.02 1.57-.9 8.7 5.01-1.57.9Z"></path><path stroke="#45D6BA" stroke-miterlimit="10" stroke-width=".5" d="M131.53 100.5c1.2.78 1.2 1.7-.05 2.47l-.47-.27c1.06-.66 1.05-1.4-.13-2.08-1.12-.65-2.4-.74-3.34-.19-1.2.7-.26 1.5.34 2.07.85.8 1.75 1.73.25 2.58-1.29.74-2.9.62-4.32-.12l-1.06.61-.44-.25 1.07-.62c-1.4-.9-1.35-1.99-.02-2.75l.48.28c-1.14.66-1.16 1.6.24 2.4 1.2.69 2.54.78 3.57.19 1.15-.66.45-1.38-.26-2.05-.93-.87-1.8-1.76-.35-2.6 1.16-.67 2.59-.64 4.05.08l1.06-.61.44.25-1.07.61Z"></path><path fill="#45D6BA" d="M158.67 67.26c-4.17-1.16-10.49-1.88-17.83-1.54l.21-2.08c.04-.33-.47-.6-1.06-.6l-2.75.08c-.54.02-.95.25-.94.55l.1 4.3c0 .35.62.63 1.26.56 6.25-.76 12-.94 20.52-.33 1.13.08 1.5-.66.51-.95h-.02Z"></path><path fill="#45D6BA" fill-rule="evenodd" d="M154.9 61.34c1.05 1.66.37 3.73-.62 5.17-.57.82 1.66.1 2.83-1.1.46-.48.7-.98.77-1.52.2.51.35 1.02.43 1.53.4 2.5-.91 5.1-3.64 6.62-7.5 4.16-16.7 1.65-19.51.2-2.66-1.37-4.27-3.34-4.83-5.22-.55-1.89 1.9-5.22 1.9-5.22s1.45-1.56 2.61-2.16c1.2-.63 2.3-1.29 3.93-1.66 2.99-.66 6.64-.84 10.62.04 2.5.55 4.55 1.77 5.52 3.32Zm-.26-4.33c-.36-.14-.9-.02-1.44.22a14.74 14.74 0 0 0-3.6-1.02 25.6 25.6 0 0 0-10 .24 21.12 21.12 0 0 0-5.1 1.91c-1.52.81-2.9 1.87-3.93 3.03-1.98 2.22-2.4 4.46-1.83 6.44.58 1.97 2.33 3.92 5 5.34 2.8 1.5 6.77 2.5 10.51 2.51 3.24.01 8.19-.66 12.25-3.07 4.05-2.4 5.56-5.35 5.14-8.13-.43-2.8-2.91-5.9-7-7.48Z" clip-rule="evenodd"></path></g><defs><clipPath id="cargo-insurance-2023-benefits-expedited_svg__a"><path fill="#fff" d="M48 21h173.51v116H48z"></path></clipPath></defs></svg>