<svg height="512" viewBox="0 0 32 32" width="512" xmlns="http://www.w3.org/2000/svg"><g id="Fingerprint_x2C__fingerprint_identification_x2C__identification"><g fill="rgb(0,0,0)"><path d="m15.121 30.987c-.088 0-.178-.023-.259-.073-.236-.144-.311-.451-.167-.687 2.414-3.971 4.035-8.736 4.819-14.163.275-1.917-1.056-3.7-2.967-3.975-1.907-.275-3.686 1.049-3.961 2.943-.786 5.447-2.501 9.978-5.098 13.466-.164.221-.478.27-.699.103-.222-.165-.268-.478-.103-.699 2.496-3.354 4.148-7.731 4.911-13.012.353-2.438 2.636-4.14 5.092-3.79 2.458.354 4.169 2.645 3.815 5.107-.804 5.562-2.47 10.454-4.954 14.54-.095.155-.26.24-.429.24z"/><path d="m5.778 27.102c-.099 0-.2-.029-.287-.091-.226-.159-.28-.471-.122-.697.405-.576.791-1.194 1.145-1.838.134-.241.437-.329.68-.196.242.133.33.438.196.68-.373.674-.777 1.324-1.203 1.93-.097.137-.252.212-.409.212z"/><path d="m17.444 30.969c-.083 0-.167-.021-.244-.063-.241-.135-.327-.439-.192-.681 2.219-3.968 3.728-8.637 4.485-13.876.432-3.007-1.661-5.807-4.667-6.239-2.997-.434-5.788 1.65-6.221 4.638-.429 2.969-1.151 5.664-2.147 8.009-.108.254-.403.371-.656.265-.254-.108-.373-.402-.265-.656.963-2.266 1.662-4.878 2.079-7.762.512-3.533 3.813-5.987 7.352-5.485 3.552.512 6.025 3.819 5.514 7.372-.775 5.361-2.323 10.146-4.602 14.222-.091.163-.261.256-.436.256z"/><path d="m10.418 30.937c-.103 0-.206-.031-.295-.097-.134-.098-.205-.25-.205-.403 0-.103.031-.207.097-.295 2.829-3.858 4.691-8.784 5.536-14.638.04-.272.298-.465.566-.423.25.036.429.25.429.495 0 .023-.001.047-.005.071-.869 6.019-2.793 11.095-5.719 15.086-.098.133-.25.204-.404.204z"/><path d="m8.65 29.982c-.104 0-.209-.032-.299-.1-.221-.166-.266-.479-.101-.7 2.718-3.631 4.509-8.33 5.323-13.966.197-1.361 1.473-2.312 2.831-2.117.662.095 1.246.442 1.646.977s.567 1.193.473 1.854c-.035.242-.071.482-.11.72-.044.272-.301.46-.574.414-.272-.044-.458-.301-.414-.574.038-.231.073-.465.107-.702.118-.819-.452-1.581-1.27-1.699-.829-.118-1.58.439-1.7 1.27-.838 5.803-2.692 10.656-5.512 14.422-.097.132-.248.201-.4.201z"/><path d="m12.838 30.891c-.094 0-.19-.027-.274-.083-.231-.152-.294-.462-.143-.692 2.169-3.292 3.735-7.229 4.653-11.702.055-.27.316-.445.59-.389.271.056.445.32.389.59-.944 4.598-2.559 8.652-4.798 12.05-.095.147-.254.226-.417.226z"/><path d="m19.699 31c-.078 0-.156-.018-.23-.056-.245-.127-.34-.429-.213-.674 1.11-2.136 2.042-4.469 2.768-6.933.078-.263.354-.417.621-.338.265.078.416.356.338.621-.744 2.525-1.7 4.917-2.839 7.11-.09.172-.265.27-.445.27z"/><path d="m4.694 25.114c-.09 0-.181-.024-.263-.075-.235-.146-.307-.454-.162-.688 1.653-2.668 2.783-6.044 3.359-10.033.67-4.612 4.985-7.83 9.619-7.18 4.646.67 7.88 4.993 7.212 9.636-.233 1.611-.533 3.178-.892 4.66-.065.269-.336.434-.604.368-.269-.065-.433-.335-.368-.604.352-1.451.646-2.988.874-4.567.589-4.097-2.265-7.912-6.364-8.503-4.09-.579-7.898 2.265-8.489 6.333-.596 4.125-1.772 7.63-3.498 10.416-.093.153-.257.237-.424.237z"/><path d="m8.823 4.072c-.169 0-.335-.086-.429-.242-.143-.237-.066-.544.17-.687 2.853-1.72 6.232-2.409 9.523-1.945 1.832.264 3.581.873 5.2 1.812.239.139.32.444.182.684-.139.238-.445.319-.684.182-1.507-.874-3.136-1.441-4.84-1.687-3.058-.434-6.207.209-8.864 1.811-.081.049-.17.072-.258.072z"/><path d="m3.552 17.459c-.041 0-.082-.005-.122-.015-.268-.067-.431-.339-.363-.606.244-.972.446-2.011.603-3.09.308-2.124 1.164-4.139 2.475-5.831.168-.218.484-.258.701-.089.218.169.258.483.089.701-1.205 1.555-1.992 3.409-2.275 5.361-.161 1.113-.37 2.186-.622 3.19-.059.228-.263.379-.486.379z"/><path d="m25.252 28.339c-.059 0-.119-.01-.177-.032-.258-.098-.389-.386-.291-.645 1.22-3.229 2.111-6.75 2.646-10.462.901-6.279-3.48-12.126-9.766-13.032-3.313-.469-6.663.527-9.192 2.732-.208.18-.523.16-.706-.048-.182-.208-.16-.524.048-.706 2.749-2.396 6.388-3.477 9.991-2.969 6.832.985 11.593 7.339 10.615 14.165-.546 3.785-1.455 7.376-2.701 10.673-.075.201-.265.324-.467.324z"/><path d="m22.071 30.715c-.072 0-.145-.016-.214-.049-.25-.119-.355-.417-.237-.666 1.849-3.881 3.138-8.283 3.831-13.082.626-4.365-1.797-8.555-5.893-10.189-.257-.102-.382-.393-.279-.649.102-.257.394-.382.649-.279 4.526 1.806 7.204 6.436 6.512 11.26-.708 4.899-2.026 9.397-3.917 13.37-.086.179-.265.284-.452.284z"/><path d="m3.875 22.471c-.073 0-.147-.016-.218-.05-.249-.12-.352-.419-.231-.668 1.048-2.161 1.796-4.759 2.224-7.72.828-5.704 6.154-9.688 11.877-8.873.273.039.463.292.425.565-.039.274-.288.469-.565.425-5.177-.736-10 2.866-10.749 8.025-.442 3.063-1.22 5.76-2.313 8.014-.087.178-.265.282-.45.282z"/></g><g><g><path d="m2.5 26c.276 0 .5.224.5.5v2.5h2.5c.276 0 .5.224.5.5s-.224.5-.5.5h-3c-.276 0-.5-.224-.5-.5v-3c0-.276.224-.5.5-.5z" fill="rgb(0,0,0)"/></g><g><path d="m29.5 26c.276 0 .5.224.5.5v3c0 .276-.224.5-.5.5h-3c-.276 0-.5-.224-.5-.5s.224-.5.5-.5h2.5v-2.5c0-.276.224-.5.5-.5z" fill="rgb(0,0,0)"/></g><g><path d="m29.5 6c-.276 0-.5-.224-.5-.5v-2.5h-2.5c-.276 0-.5-.224-.5-.5s.224-.5.5-.5h3c.276 0 .5.224.5.5v3c0 .276-.224.5-.5.5z" fill="rgb(0,0,0)"/></g><g><path d="m2.5 6c-.276 0-.5-.224-.5-.5v-3c0-.276.224-.5.5-.5h3c.276 0 .5.224.5.5s-.224.5-.5.5h-2.5v2.5c0 .276-.224.5-.5.5z" fill="rgb(0,0,0)"/></g></g></g></svg>