<svg height="512" viewBox="0 0 64 64" width="512" xmlns="http://www.w3.org/2000/svg"><g id="Icons"><g><g><path d="m57.916 34.084h-23.916v23.916c12.763-.972 22.944-11.153 23.916-23.916z" fill="#fab400"/></g><g><path d="m38 34.084h-4v23.916c1.368-.104 2.699-.335 4-.642z" fill="#dc9600"/></g><g><path d="m8.498 20.958c-1.6 3.373-2.498 7.144-2.498 11.126 0 13.686 10.576 24.894 24 25.916v-24.755z" fill="#64c8f0"/></g><g><path d="m10 32.084c0-3.273.615-6.4 1.72-9.285l-3.222-1.841c-1.6 3.373-2.498 7.144-2.498 11.126 0 13.686 10.576 24.894 24 25.916v-.626c-11.465-2.709-20-12.997-20-25.29z" fill="#46aad2"/></g><g><path d="m57.916 30.084c-1.022-13.424-12.23-24-25.916-24-8.948 0-16.838 4.521-21.516 11.402l22.047 12.598z" fill="#fa6450"/></g><g><path d="m33.731 6.148c-.572-.038-1.148-.064-1.731-.064-8.948 0-16.838 4.521-21.516 11.402l22.047 12.598h3.516l-22.047-12.598c4.364-6.42 11.525-10.781 19.731-11.338z" fill="#dc4632"/></g></g></g></svg>