<?xml version="1.0" encoding="iso-8859-1"?>
<!-- Generator: Adobe Illustrator 19.0.0, SVG Export Plug-In . SVG Version: 6.00 Build 0)  -->
<svg version="1.1" id="Capa_1" xmlns="http://www.w3.org/2000/svg" xmlns:xlink="http://www.w3.org/1999/xlink" x="0px" y="0px"
	 viewBox="0 0 512.001 512.001" style="enable-background:new 0 0 512.001 512.001;" xml:space="preserve">
<g>
	<g>
		<g>
			
				<rect x="260.48" y="192.021" transform="matrix(-0.7071 -0.7071 0.7071 -0.7071 316.3866 530.093)" width="14.999" height="14.999"/>
			
				<rect x="295.8" y="156.664" transform="matrix(0.7071 0.7071 -0.7071 0.7071 204.9142 -166.3824)" width="14.999" height="14.999"/>
			
				<rect x="278.156" y="174.341" transform="matrix(-0.7071 -0.7071 0.7071 -0.7071 359.064 512.4113)" width="14.999" height="14.999"/>
			
				<rect x="313.475" y="138.987" transform="matrix(0.7071 0.7071 -0.7071 0.7071 197.594 -184.0587)" width="14.999" height="14.999"/>
			
				<rect x="348.83" y="103.628" transform="matrix(0.7071 0.7071 -0.7071 0.7071 182.9468 -219.4148)" width="14.999" height="14.999"/>
			
				<rect x="331.157" y="121.308" transform="matrix(0.7071 0.7071 -0.7071 0.7071 190.27 -201.7395)" width="14.999" height="14.999"/>
			
				<rect x="375.758" y="165.881" transform="matrix(-0.7071 -0.7071 0.7071 -0.7071 531.6636 566.9824)" width="14.999" height="14.999"/>
			
				<rect x="305.048" y="236.588" transform="matrix(-0.7071 -0.7071 0.7071 -0.7071 360.9576 637.6887)" width="14.999" height="14.999"/>
			
				<rect x="358.084" y="183.553" transform="matrix(-0.7071 -0.7071 0.7071 -0.7071 488.9971 584.654)" width="14.999" height="14.999"/>
			
				<rect x="393.441" y="148.194" transform="matrix(-0.7071 -0.7071 0.7071 -0.7071 574.356 549.2943)" width="14.999" height="14.999"/>
			
				<rect x="322.732" y="218.902" transform="matrix(-0.7071 -0.7071 0.7071 -0.7071 403.6501 620.0003)" width="14.999" height="14.999"/>
			
				<rect x="340.408" y="201.233" transform="matrix(-0.7071 -0.7071 0.7071 -0.7071 446.3206 602.3356)" width="14.999" height="14.999"/>
			<path d="M344.56,254.18l55.026,81.68l12.439-8.381l-56.66-84.105l119.207-119.206c11.582-11.583,20.228-29.323,23.129-47.457
				c3.307-20.679-1.179-38.374-12.631-49.826c-11.453-11.453-29.149-15.935-49.826-12.631c-18.134,2.9-35.876,11.547-47.458,23.129
				L268.58,156.589l-84.105-56.66l-8.381,12.44l81.68,55.026l-111.9,111.899l-16.489,28.351l-103.7-14.36L0.047,318.922
				l77.629,77.628l-9.545,16.41l30.861,30.862l16.411-9.545l77.723,77.723l25.637-25.637l-14.38-103.839l28.277-16.446
				L344.56,254.18z M21.26,318.922l9.757-9.756l90.218,12.494l-23.031,39.6l-26.739-26.739l-10.606,10.605l29.544,29.544
				l-4.926,8.469L21.26,318.922z M193.126,490.788l-64.217-64.217l8.469-4.926l29.544,29.544l10.606-10.606l-26.739-26.738
				l39.6-23.032l12.494,90.219L193.126,490.788z M101.434,425.05l-14.53-14.53l70.955-121.999L398.392,47.989
				c19.077-19.079,58.72-27.85,76.07-10.499c17.35,17.349,8.582,56.992-10.499,76.071L223.432,354.094L101.434,425.05z"/>
			<path d="M453.524,58.524c-15.646-15.645-41.104-15.645-56.749,0l10.607,10.606c9.798-9.798,25.738-9.796,35.536,0
				c4.746,4.746,7.36,11.056,7.36,17.768c0,6.712-2.614,13.022-7.36,17.767l10.605,10.607c7.58-7.58,11.755-17.656,11.755-28.374
				C465.277,76.18,461.102,66.103,453.524,58.524z"/>
			<path d="M511.955,347.142L469.1,304.289l-12.775,12.775l-10.119-34.353l35.265-35.265l-42.853-42.853l-11.912,11.911
				l-4.942-16.777l-14.388,4.238l63.892,216.921l-21.087,21.087L340.009,278.437l-12.438,8.381l120.344,178.635l40.26-40.26
				l-12.348-41.921L511.955,347.142z M431.534,232.89l7.085-7.085l21.642,21.641l-18.879,18.878L431.534,232.89z M471,366.884
				l-9.848-33.435l7.948-7.949l21.642,21.641L471,366.884z"/>
			
				<rect x="161.188" y="335.863" transform="matrix(-0.7071 -0.7071 0.7071 -0.7071 45.1736 705.4368)" width="14.999" height="14.999"/>
			
				<rect x="122.911" y="345.013" transform="matrix(-0.7071 -0.7071 0.7071 -0.7071 -47.2376 743.7158)" width="14.999" height="73.257"/>
			
				<rect x="178.864" y="318.184" transform="matrix(-0.7071 -0.7071 0.7071 -0.7071 87.8501 687.7553)" width="14.999" height="14.999"/>
			
				<rect x="334.242" y="428.366" transform="matrix(0.7071 -0.7071 0.7071 0.7071 -199.6347 389.77)" width="72.869" height="14.999"/>
			
				<rect x="325.065" y="466.52" transform="matrix(-0.7071 -0.7071 0.7071 -0.7071 232.539 1044.3606)" width="14.999" height="14.999"/>
			
				<rect x="307.389" y="484.189" transform="matrix(-0.7071 -0.7071 0.7071 -0.7071 189.8712 1062.0254)" width="14.999" height="14.999"/>
			
				<rect x="386.367" y="438.506" transform="matrix(-0.7071 -0.7071 0.7071 -0.7071 338.9082 1083.5588)" width="14.999" height="66.167"/>
			
				<rect x="33.486" y="172.653" transform="matrix(0.7071 0.7071 -0.7071 0.7071 139.3919 23.7845)" width="14.999" height="14.999"/>
			
				<rect x="15.805" y="190.343" transform="matrix(-0.7071 -0.7071 0.7071 -0.7071 -100.1116 354.2175)" width="14.999" height="14.999"/>
			
				<rect x="71.048" y="106.966" transform="matrix(0.7071 0.7071 -0.7071 0.7071 123.8357 -13.7768)" width="14.999" height="71.257"/>
			<rect x="31.347" y="85.516" transform="matrix(0.7071 0.7071 -0.7071 0.7071 98.6548 8.683)" width="14.999" height="75.825"/>
			
				<rect x="107.353" y="130.974" transform="matrix(0.7071 0.7071 -0.7071 0.7071 151.9254 -32.2177)" width="14.999" height="72.617"/>
			
				<rect x="337.245" y="360.878" transform="matrix(0.7071 0.7071 -0.7071 0.7071 381.8265 -127.438)" width="14.999" height="72.617"/>
			<path d="M233.517,171.945L69.981,61.773l21.088-21.087l216.92,63.892l4.238-14.388l-16.777-4.942l11.912-11.912l-42.853-42.853
				l-35.264,35.265L194.89,55.628l12.775-12.775L164.811,0l-36.128,36.128L86.761,23.78l-40.26,40.261l178.635,120.344
				L233.517,171.945z M264.508,51.694l21.642,21.641l-7.085,7.085l-33.436-9.848L264.508,51.694z M164.811,21.212l21.641,21.641
				l-7.949,7.949l-33.435-9.848L164.811,21.212z"/>
		</g>
	</g>
</g>
<g>
</g>
<g>
</g>
<g>
</g>
<g>
</g>
<g>
</g>
<g>
</g>
<g>
</g>
<g>
</g>
<g>
</g>
<g>
</g>
<g>
</g>
<g>
</g>
<g>
</g>
<g>
</g>
<g>
</g>
</svg>
