<svg id="Layer_3" height="512" viewBox="0 0 64 64" width="512" xmlns="http://www.w3.org/2000/svg" data-name="Layer 3"><path d="m37 12 3.088-5.4a2.4 2.4 0 0 0 -.388-2.9 2.406 2.406 0 0 0 -3.4 0l-.3.3-.586-.586a4.828 4.828 0 0 0 -3.414-1.414 4.828 4.828 0 0 0 -3.414 1.414l-.586.586-.3-.3a2.406 2.406 0 0 0 -3.4 0 2.4 2.4 0 0 0 -.388 2.9l3.088 5.4" fill="#c18e59"/><path d="m38.008 10.235a21.419 21.419 0 0 0 -1.361-6.818 2.388 2.388 0 0 0 -.347.283l-.3.3-.586-.586a4.828 4.828 0 0 0 -6.828 0l-.586.586-.3-.3a2.406 2.406 0 0 0 -3.789 2.9l3.089 5.4h10z" fill="#c69467"/><path d="m37 12 2.558 2.239a15.934 15.934 0 0 1 5.442 11.992 15.936 15.936 0 0 1 -3.693 10.2 4.357 4.357 0 0 1 -3.348 1.569h-11.918a4.357 4.357 0 0 1 -3.348-1.568 15.937 15.937 0 0 1 -3.693-10.2 15.933 15.933 0 0 1 5.444-11.995l2.556-2.237z" fill="#976947"/><path d="m37.954 12.835-.954-.835h-10l-2.557 2.237a15.871 15.871 0 0 0 -4.27 17.956 21.509 21.509 0 0 0 17.781-19.358z" fill="#c18e59"/><circle cx="32" cy="25" fill="#f7d881" r="9"/><path d="m52 39.094v-2.094a2 2 0 0 0 -2-2h-.131a2 2 0 0 0 -1.462.635l-12.331 13.212a4 4 0 0 0 -1.076 2.73v10.423h12v-2.343a4 4 0 0 1 1.172-2.829l7.828-7.828 6-11v-17a3 3 0 0 0 -3-3 3 3 0 0 0 -3 3v13z" fill="#fadfb2"/><path d="m12 39v-2a2 2 0 0 1 2-2h.131a2 2 0 0 1 1.462.635l12.331 13.212a4 4 0 0 1 1.076 2.73v10.423h-12v-2.343a4 4 0 0 0 -1.172-2.829l-7.828-7.828-6-11v-17a3 3 0 0 1 3-3 3 3 0 0 1 3 3v13z" fill="#fadfb2"/><path d="m42.836 42.546h11.327v2h-11.327z" fill="#f5cf88" transform="matrix(.618 -.786 .786 .618 -15.706 54.776)"/><path d="m14.5 37.798h2v11.402h-2z" fill="#f5cf88" transform="matrix(.789 -.614 .614 .789 -23.441 18.679)"/><path d="m31 5h2v7h-2z" fill="#ce9d6f"/><path d="m32.922 12h2.154l1.852-4.629-1.857-.743z" fill="#ce9d6f"/><path d="m28.928 6.628-1.857.743 1.852 4.629h2.154z" fill="#ce9d6f"/><path d="m33 24v-3a1 1 0 0 1 1 1v1h2v-1a3 3 0 0 0 -3-3v-1h-2v1a3 3 0 0 0 -3 3v1a3 3 0 0 0 3 3v3a1 1 0 0 1 -1-1v-1h-2v1a3 3 0 0 0 3 3v1h2v-1a3 3 0 0 0 3-3v-1a3 3 0 0 0 -3-3zm-3-1v-1a1 1 0 0 1 1-1v3a1 1 0 0 1 -1-1zm4 5a1 1 0 0 1 -1 1v-3a1 1 0 0 1 1 1z" fill="#f2c351"/><g fill="#e7e4dd"><path d="m47 6h2v10h-2z"/><path d="m47 2h2v2h-2z"/><path d="m51 18h2v10h-2z"/><path d="m51 14h2v2h-2z"/><path d="m15 6h2v10h-2z"/><path d="m15 2h2v2h-2z"/><path d="m11 18h2v10h-2z"/><path d="m11 14h2v2h-2z"/></g><path d="m37.03 17.536a9 9 0 0 0 -11.953 13.212 21.578 21.578 0 0 0 11.953-13.212z" fill="#f9df9b"/><path d="m30 27h-2v1a2.96 2.96 0 0 0 .2 1.063 21.785 21.785 0 0 0 1.8-1.293z" fill="#f7d881"/><path d="m33 19v-1h-2v1a3 3 0 0 0 -3 3v1a3 3 0 0 0 3 3v.9a21.642 21.642 0 0 0 2.6-2.834 2.993 2.993 0 0 0 -.6-.066v-3a1 1 0 0 1 1 1v1h.392a21.47 21.47 0 0 0 1.313-2.273 3 3 0 0 0 -2.705-1.727zm-2 5a1 1 0 0 1 -1-1v-1a1 1 0 0 1 1-1z" fill="#f7d881"/><path d="m59 17a4 4 0 0 0 -4 4v12.653l-2.082 2.647a3 3 0 0 0 -2.918-2.3h-.132a3.012 3.012 0 0 0 -2.193.953l-12.331 13.212a4.987 4.987 0 0 0 -1.344 3.411v10.424a1 1 0 0 0 1 1h12a1 1 0 0 0 1-1v-2.343a2.983 2.983 0 0 1 .878-2.122l7.829-7.828a1 1 0 0 0 .17-.229l6-11a.989.989 0 0 0 .123-.478v-17a4 4 0 0 0 -4-4zm2 20.744-5.809 10.65-7.727 7.727a4.968 4.968 0 0 0 -1.464 3.536v1.343h-10v-9.424a2.986 2.986 0 0 1 .807-2.047l12.33-13.212a1 1 0 0 1 .731-.317h.132a1 1 0 0 1 1 1v1.744l-6.787 8.637 1.573 1.236 11-14a1 1 0 0 0 .214-.617v-13a2 2 0 0 1 4 0z"/><path d="m16.323 34.953a3.008 3.008 0 0 0 -2.192-.953h-.131a3 3 0 0 0 -2.918 2.3l-2.082-2.647v-12.653a4 4 0 1 0 -8 0v17a1 1 0 0 0 .122.478l6 11a1 1 0 0 0 .17.229l7.829 7.828a2.984 2.984 0 0 1 .879 2.122v2.343a1 1 0 0 0 1 1h12a1 1 0 0 0 1-1v-10.424a4.983 4.983 0 0 0 -1.345-3.411zm11.677 26.047h-10v-1.343a4.969 4.969 0 0 0 -1.465-3.536l-7.726-7.727-5.809-10.65v-16.744a2 2 0 0 1 4 0v13a1 1 0 0 0 .213.617l11 14 1.573-1.236-6.786-8.637v-1.744a1 1 0 0 1 1-1h.131a1 1 0 0 1 .73.317l12.331 13.212a2.99 2.99 0 0 1 .808 2.047z"/><path d="m26.04 39h11.918a5.341 5.341 0 0 0 4.116-1.928 16.934 16.934 0 0 0 -1.858-23.587l-1.942-1.7 2.683-4.694a3.415 3.415 0 0 0 -.549-4.1 3.489 3.489 0 0 0 -4.375-.373 5.83 5.83 0 0 0 -8.067 0 3.406 3.406 0 0 0 -4.924 4.47l2.683 4.694-1.941 1.7a16.934 16.934 0 0 0 -1.859 23.588 5.338 5.338 0 0 0 4.115 1.93zm-1.034-34.592a1.436 1.436 0 0 1 1.987 0l.3.3a1 1 0 0 0 1.414 0l.586-.586a3.921 3.921 0 0 1 5.415 0l.585.586a1 1 0 0 0 1.414 0l.3-.3a1.436 1.436 0 0 1 1.987 0 1.406 1.406 0 0 1 .226 1.692l-2.8 4.9h-.943l1.452-3.629-1.857-.743-1.75 4.372h-.322v-6h-2v6h-.324l-1.748-4.372-1.857.743 1.451 3.629h-.942l-2.8-4.9a1.406 1.406 0 0 1 .226-1.692zm.094 10.581 2.275-1.989h9.249l2.276 1.991a14.934 14.934 0 0 1 1.639 20.8 3.348 3.348 0 0 1 -2.581 1.209h-11.918a3.352 3.352 0 0 1 -2.58-1.209 14.935 14.935 0 0 1 1.641-20.8z"/><path d="m28 27v1a3 3 0 0 0 3 3v1h2v-1a3 3 0 0 0 3-3v-1a3 3 0 0 0 -3-3v-3a1 1 0 0 1 1 1v1h2v-1a3 3 0 0 0 -3-3v-1h-2v1a3 3 0 0 0 -3 3v1a3 3 0 0 0 3 3v3a1 1 0 0 1 -1-1v-1zm5-1a1 1 0 0 1 1 1v1a1 1 0 0 1 -1 1zm-3-3v-1a1 1 0 0 1 1-1v3a1 1 0 0 1 -1-1z"/><path d="m32 35a10 10 0 1 0 -10-10 10.011 10.011 0 0 0 10 10zm0-18a8 8 0 1 1 -8 8 8.009 8.009 0 0 1 8-8z"/><path d="m47 6h2v10h-2z"/><path d="m47 2h2v2h-2z"/><path d="m51 18h2v10h-2z"/><path d="m51 14h2v2h-2z"/><path d="m15 6h2v10h-2z"/><path d="m15 2h2v2h-2z"/><path d="m11 18h2v10h-2z"/><path d="m11 14h2v2h-2z"/></svg>