<svg height="512" viewBox="0 0 64 64" width="512" xmlns="http://www.w3.org/2000/svg"><g id="outline"><path d="m28 62h5a1 1 0 0 0 1-1v-4a1 1 0 0 0 -1-1h-5.923l-.077-.193v-43.807h9v5.751a11 11 0 0 0 -2.595 19.049l1.2-1.6a8.93 8.93 0 0 1 -3.605-7.2c0-.144.01-.287.017-.43l4.333-2.47a2.987 2.987 0 0 1 3.15.1l1.724 1.15a4.988 4.988 0 0 0 5.547 0l2.578-1.718a9.048 9.048 0 0 1 .651 3.368h2a10.942 10.942 0 0 0 -7-10.249v-5.751h3a1 1 0 0 0 1-1v-4a1 1 0 0 0 -1-1h-3v-2a1 1 0 0 0 -1-1h-6a1 1 0 0 0 -1 1v2h-9v-4h-2v4h-3a1 1 0 0 0 -1 1v4a1 1 0 0 0 1 1h3v38.807l-4-10v-8.807h2v-2h-16v2h2v8.808l-7.929 19.821a1 1 0 0 0 .929 1.371zm4-4v2h-3.323l-.8-2zm15.4-35.134-2.734 1.822a2.992 2.992 0 0 1 -3.328 0l-1.725-1.149a4.97 4.97 0 0 0 -5.254-.181l-2.839 1.622a8.938 8.938 0 0 1 5.78-5.566 1 1 0 0 0 .7-.954v-6.46h4v6.46a1 1 0 0 0 .7.954 8.941 8.941 0 0 1 4.7 3.452zm-9.4-17.866h4v1h-4zm-15 5v-2h23v2zm-12.071 31.371a1 1 0 0 0 .071-.371v-9h8v9a1 1 0 0 0 .071.371l1.716 4.289-1.235.927a3 3 0 0 1 -3.344.172l-.811-.487a4.973 4.973 0 0 0 -4.808-.184l-1.934.966zm-3.392 8.479 3.947-1.973a2.985 2.985 0 0 1 2.885.11l.81.487a4.988 4.988 0 0 0 5.573-.287l.8-.6 4.971 12.413h-23.046z"/><path d="m34 32h2v25a5.006 5.006 0 0 0 5 5h14a5.006 5.006 0 0 0 5-5v-25h2v-2h-28zm4 0h20v13.406l-4.9 2.671a2.989 2.989 0 0 1 -2.873 0l-3.5-1.91a4.982 4.982 0 0 0 -4.789 0l-3.938 2.148zm0 18.594 4.9-2.671a2.991 2.991 0 0 1 2.873 0l3.5 1.91a4.977 4.977 0 0 0 4.789 0l3.938-2.148v9.315a3 3 0 0 1 -3 3h-14a3 3 0 0 1 -3-3z"/><path d="m7 56h2v2h-2z"/><path d="m12 56h11v2h-11z"/><path d="m9 52h2v2h-2z"/><path d="m14 52h2v2h-2z"/><path d="m19 52h2v2h-2z"/><path d="m40 56h2v2h-2z"/><path d="m44 56h11v2h-11z"/><path d="m42 52h2v2h-2z"/><path d="m47 52h2v2h-2z"/><path d="m52 52h2v2h-2z"/><path d="m20 21a3 3 0 1 0 -3-3 3 3 0 0 0 3 3zm0-4a1 1 0 1 1 -1 1 1 1 0 0 1 1-1z"/><path d="m9 24a3 3 0 1 0 3-3 3 3 0 0 0 -3 3zm4 0a1 1 0 1 1 -1-1 1 1 0 0 1 1 1z"/><path d="m55 16a3 3 0 1 0 -3 3 3 3 0 0 0 3-3zm-3 1a1 1 0 1 1 1-1 1 1 0 0 1 -1 1z"/><path d="m56 27a3 3 0 1 0 -3-3 3 3 0 0 0 3 3zm0-4a1 1 0 1 1 -1 1 1 1 0 0 1 1-1z"/></g></svg>