<svg id="Layer_1" fill="#6B7280"  stroke="#6B7280" enable-background="new 0 0 512 512" viewBox="0 0 512 512" xmlns="http://www.w3.org/2000/svg"><g clip-rule="evenodd" fill-rule="evenodd"><path d="m328.53 285.07h-35.94c-.23-15.99 0-59.1 0-75.12 0-34.02 27.33-51.14 61.26-52.02l-.03-.03 4.14-14.09c9.07 4.17 18.96 5.64 28.18 5.5 6.83-.08 13.72-1.98 20.13-5.3l2.86 13.89-.03.03c34.02.85 61.4 17.94 61.4 52.02 0 16.02.23 59.13 0 75.12h-35.94z" fill="#e6a583"/><path d="m292.58 285.07c-.23-15.99 0-59.1 0-75.12 0-32.03 24.24-49.07 55.39-51.68l.08.43c2.55 15.22 13.78 28.69 33.68 40.37 19.9-11.68 31.12-25.14 33.65-40.37l.14-.4c30.95 2.72 54.96 19.76 54.96 51.65 0 16.02.23 59.13 0 75.12-59.29 0-118.59 0-177.9 0z" fill="#378f8d"/><path d="m435.79 66.55c-.94 11.65.4 23.02.4 28.74 0 30.05-25.4 53.69-50.06 54.03-24.66.37-54.28-10.77-59.53-54.03-.08-.6-.14-1.22-.2-1.81 20.21-3.35 31.75-14.71 34.58-34.16 18.91 7.37 56.67 14.66 74.81 7.23z" fill="#f9c5a5"/><path d="m381.39 27.69c14.37 0 15.51 7.99 44.22-.85 8.73-2.66 15.48 10.97 11.42 30.53-.14.71-.25 1.42-.4 2.13-.4 2.32-.68 4.71-.85 7.06-18.14 7.43-55.9.14-74.81-7.23-2.83 19.45-14.37 30.81-34.58 34.16-.06-.54-.11-1.11-.14-1.64-3.31-41.12 25.69-64.16 55.14-64.16z" fill="#8ad4bd"/><path d="m194.9 285.07h35.94c.23-15.99 0-59.1 0-75.12 0-34.02-27.33-51.14-61.26-52.02l.03-.03-4.14-14.09c-9.04 4.17-18.96 5.64-28.18 5.5-6.83-.08-13.72-1.98-20.13-5.3l-2.86 13.89.03.03c-34.02.85-61.4 17.94-61.4 52.02 0 16.02-.2 59.13 0 75.12h35.94z" fill="#e6a583"/><path d="m230.85 285.07c.23-15.99 0-59.1 0-75.12 0-32.03-24.21-49.07-55.39-51.68l-.08.43c-2.55 15.22-13.75 28.69-33.68 40.37-19.9-11.68-31.12-25.14-33.65-40.37l-.14-.4c-30.95 2.72-54.96 19.76-54.96 51.65 0 16.02-.2 59.13 0 75.12z" fill="#378f8d"/><path d="m87.64 66.55c.94 11.65-.4 23.02-.4 28.74 0 30.05 25.4 53.69 50.06 54.03 24.66.37 54.28-10.77 59.53-54.03.08-.6.14-1.22.2-1.81-20.21-3.35-31.75-14.71-34.58-34.16-18.88 7.37-56.64 14.66-74.81 7.23z" fill="#f9c5a5"/><path d="m142.04 27.69c-14.37 0-15.51 7.99-44.22-.85-8.7-2.66-15.48 10.97-11.42 30.53.14.71.28 1.42.4 2.13.4 2.32.68 4.71.85 7.06 18.17 7.43 55.93.14 74.81-7.23 2.83 19.45 14.37 30.81 34.58 34.16.06-.54.11-1.11.14-1.64 3.31-41.12-25.69-64.16-55.14-64.16z" fill="#8ad4bd"/><path d="m221.77 191.56h-13.46c-7.74 0-14.06-6.29-14.06-14.06v-75.2c0-37.76 30.61-68.4 68.4-68.4s68.43 30.64 68.43 68.4v75.2c0 7.77-6.32 14.06-14.06 14.06h-18.28z" fill="#ffd059"/><path d="m173.9 285.07c.08-20.95.37-49.15.37-60.52 0-34.61 83.68-24.07 64.86-64.35 8.45 5.58 18.34 7.85 27.84 7.71 6.18-.08 12.22-1.73 17.69-4.65-3.49 8.5-5.3 19.64 20.47 31.52 20.66 9.52 44.42 11.4 44.42 35.43 0 11.17-.06 35.72-.17 54.85h-175.48z" fill="#f9c5a5"/><path d="m173.9 285.07c.08-20.95.37-49.15.37-60.52 0-18.79 24.6-24.26 44.14-31.78l3.37 2.52c3.12 22.39 16.95 42.15 41.47 59.27 24.52-17.12 38.32-36.88 41.47-59.27l.6-.43c20.64 9.47 44.22 11.4 44.22 35.35 0 11.17-.06 35.72-.17 54.85h-175.47z" fill="#9a4267"/><path d="m308.54 121.8c0 26.5-19.98 45.81-41.58 46.12-21.57.31-45.24-11.74-49.52-47.34-4.31-35.63 12.44-53.94 34.84-58.88-.17 1.47-.25 2.95-.25 4.45 0 23.67 21.66 42.83 48.39 42.83 7.19.01 8.12 1.57 8.12 12.82z" fill="#facbae"/></g><path d="m335.33 405.26h-134.9c-15.11-.08-15.68 30.9 0 30.9h126.6c5.61 0 10.18 4.56 10.18 10.2 0 5.61-4.56 10.18-10.18 10.18h-126.6-.28c-5.39.14-10.38-1.64-15.19-3.54-23.19-9.21-25.09-48.44-4.82-61.43 9.75-7.68 9.69-10.15 8.45-15.85l-22.11-102.7c-1.28-5.81-6.18-9.75-12.19-9.75h-16.5c-5.61 0-10.18-4.56-10.18-10.18 0-5.64 4.56-10.18 10.18-10.18h16.5c7.74 0 14.91 2.64 20.58 7.2 4.79 3.85 8.48 9.07 10.52 15.22l25.77 118.35h134.67v11.08c-.01 5.8-4.75 10.5-10.5 10.5z" fill="#7e939f"/><path d="m229.6 429.27c6.52 0 12.42 2.64 16.7 6.92s6.92 10.18 6.92 16.7-2.64 12.44-6.92 16.7c-4.28 4.28-10.18 6.94-16.7 6.94s-12.44-2.66-16.72-6.94c-4.25-4.25-6.92-10.18-6.92-16.7s2.66-12.42 6.92-16.7c4.27-4.28 10.2-6.92 16.72-6.92z" fill="#607784"/><path d="m327.85 429.27c6.52 0 12.42 2.64 16.7 6.92s6.92 10.18 6.92 16.7-2.64 12.44-6.92 16.7c-4.28 4.28-10.18 6.94-16.7 6.94-6.55 0-12.44-2.66-16.72-6.94-4.28-4.25-6.92-10.18-6.92-16.7s2.64-12.42 6.92-16.7c4.27-4.28 10.17-6.92 16.72-6.92z" fill="#607784"/><path clip-rule="evenodd" d="m189.69 285.07h197.43l-41.3 98.62h-134.68z" fill="#8ad4bd" fill-rule="evenodd"/><path d="m182.03 287.14c-.06-.23-.11-.45-.17-.71l-4.11-18.94c-1.13-4.05-4.54-8.53-7.82-11.17-4.42-3.54-9.78-5.41-15.56-5.41h-16.5c-2.86 0-2.86 4.37 0 4.37h16.5c4.85 0 9.27 1.64 12.84 4.48 7.6 6.09 7.4 14.14 9.64 23.16.08.31.17.62.23.96l19.42 90.17c.94 4.39 1.42 7.63-.68 12.16-1.62 3.54-4.71 6.97-10.66 11.65l-.62.43c-15.34 10.29-13.1 40.73 3.43 47.31 3.2 1.25 6.94 2.64 10.4 2.92.2-1.47.51-2.95.94-4.37-25.06-1.45-24.12-46.97 1.22-46.86v-.03h134.9c3.06 0 2.47-3.69 2.47-5.58h-133.1zm14.18-10.06h5.16v-29.37c0-4.42 3.6-8.02 8.02-8.02 4.39 0 7.99 3.6 7.99 8.02v29.37h88.81v-29.37c0-4.42 3.6-8.02 8.02-8.02 4.39 0 7.99 3.6 7.99 8.02v29.37h19.3l.08-46.86c0-15.17-16.53-19.02-30.81-24.46-2.41 8.99-6.46 17.57-12.19 25.71-7.4 10.6-17.6 20.47-30.56 29.54-2.66 1.96-6.41 2.13-9.27.11-21.52-15.02-38.27-34.19-43.71-58.56-14.57 5.22-32.71 10.77-32.71 22l-.14 21.32c4.71 4.39 9.55 11.59 11.08 17.77zm161.26 0h61.74v-55.13c0-4.42 3.6-8.02 8.02-8.02s7.99 3.6 7.99 8.02v55.13h27.44l-.11-67.12c0-25.4-17.55-38.86-40.96-42.83-5.53 16.89-19.28 28.94-35.63 38.75-2.41 1.47-5.56 1.62-8.19.06-16.3-9.55-30.33-22.17-35.77-38.86l-2.83.51v9.95c0 7.46-3.74 14.17-9.61 18.2 15.53 6.09 28.06 13.58 28.06 34.5zm35.04 16.02-38.61 92.15v9.55c0 10.18-8.31 18.48-18.48 18.48h-134.9c-.45-.45-2.15.77-2.98 3.46-1.25 4.08-.48 11.42 2.98 11.42h9.44c.54-.17 7.68-6.89 19.73-6.89 12.02 0 19.19 6.72 19.7 6.89h58.82c.51-.17 7.68-6.89 19.7-6.89 22.42 0 37.84 22.85 29.23 43.68-8.67 20.95-35.74 26.14-51.56 10.29-3-2.98-5.41-6.63-7.03-10.72h-39.49c-8.48 21.29-35.8 26.67-51.73 10.72-3-3-5.41-6.63-7.03-10.74-6.6.17-12.25-1.76-18.2-4.11-21.86-8.67-28.66-36.96-20.47-57.63 2.83-7.14 7.46-13.38 13.86-17.63 3.69-2.92 5.36-4.54 5.84-5.56l-18.63-86.47h-109.67v-.03c-4.34 0-7.91-3.51-7.97-7.88-.28-23.05-.03-43.43-.03-75.23 0-37.08 28.32-56.75 62.79-59.61l.48-2.35c-17.21-11.25-28.97-30.93-28.97-52.7 0-1.64.14-4.2.31-7.2.48-8.93.94-19.33-.99-29.14-2.47-12.47-1.9-26.25 5.13-34.55 4.2-4.93 10.29-7.06 16.47-5.16 26.5 8.14 25.46.45 41.87.45 25.26 0 48.42 14.66 58.22 38.49 29.96-42.29 92.52-43.17 123.62-1.62 10.18-22.9 32.91-36.88 57.51-36.88 16.41 0 15.36 7.68 41.87-.45 10.18-3.15 18.14 4.25 21.2 14.23 2.01 6.58 2.47 15.48.4 25.48-1.96 9.81-1.47 20.21-.99 29.14.17 3 .31 5.56.31 7.2 0 21.77-11.76 41.47-28.97 52.7l.48 2.35c.17 0 .34 0 .51.03v-.03c34.44 3.03 62.28 22.93 62.28 59.61 0 31.8.25 52.19-.03 75.23-.06 4.37-3.63 7.88-7.97 7.88v.03c-26.01.01-52.03.01-78.05.01zm-51.94 82.6 34.61-82.6h-175.49l17.97 82.6zm-43.99 72.85c.23-1.5.54-2.95.94-4.37h-37.45c.4 1.42.71 2.86.94 4.37zm37.33-10.12c-12.81-5.3-25.77 7.65-20.47 20.47 5.3 12.78 23.64 12.78 28.94 0 3.3-7.97-.53-17.18-8.47-20.47zm-98.22 0c-12.84-5.3-25.8 7.65-20.49 20.47 5.3 12.78 23.64 12.78 28.94 0 3.29-7.97-.54-17.18-8.45-20.47zm-76.42-161.35-.54-2.41h.03c-.51-2.15-2.13-3.37-4.39-3.37h-16.5c-16.13 0-24.29-19.62-12.87-31.07 3.32-3.29 7.85-5.3 12.87-5.3h16.5c4.11 0 8.14.62 11.96 1.79v-12.16c0-16.67 12.22-24.83 26.99-30.95-4.31-4.05-7-9.75-7-16.07v-9.55c-1.53-.34-3.09-.65-4.71-.91-5.44 16.7-19.47 29.31-35.77 38.86-2.64 1.56-5.78 1.42-8.19-.06-16.38-9.81-30.13-21.85-35.66-38.75-23.13 3.91-40.96 17.32-40.96 42.83l-.08 67.12h27.44v-55.13c0-4.42 3.57-8.02 7.99-8.02s7.99 3.6 7.99 8.02v55.13zm157.38-155.28c0 14.97-5.53 28.01-14.12 37.53-3.34 3.71-7.14 6.86-11.28 9.41-.57 1.96-.77 3.97.06 5.84 1.16 2.69 4 5.67 9.58 9.01h16.21c3.32 0 6.07-2.75 6.07-6.07v-75.2c0-33.36-27.07-60.43-60.43-60.43s-60.41 27.07-60.41 60.43v75.2c0 3.32 2.72 6.07 6.07 6.07h11.57c.82-.37 1.59-.71 2.35-1.08 8.05-3.74 13.46-8.53 10.43-17.06-1.76-1.3-3.46-2.72-5.07-4.25-9.1-8.73-15.9-21.57-18.08-39.69-2.24-18.51.79-33.08 7.26-44.02 7.63-12.87 19.81-20.49 33.82-23.58 5.27-1.13 10.35 3.17 9.58 8.99-1.33 10.26 3.6 20.78 11.31 27.58 7.34 6.49 17.55 10.52 28.91 10.52 6.63 0 11.11 1.22 13.95 6.63 1.82 3.31 2.22 7.51 2.22 14.17zm-41.7 53.29c-7.85 1.5-16.92.82-24.69-1.28-.85 10.54-9.04 17.29-20.15 22.65 3.54 19.87 16.47 35.57 33.22 48.27 15.93-12.1 28.49-26.99 32.66-45.61-11.91-6.51-19.51-14.02-21.04-24.03zm15.71-26.45c6.07-6.75 9.98-16.04 9.98-26.84 0-2.18 0-3.8-.03-4.88-.03.06-.06.06-.14.06-27.04 0-52.1-17.92-55.9-44.16-16.7 8.25-21.63 25.97-19.11 46.83 1.7 14.03 6.63 23.7 13.21 29.99 7.88 7.54 18.31 10.46 28.29 10.32 8.84-.12 17.4-4.34 23.7-11.32zm9.8-33.25c-.37-.57-.17-.11 0 .45zm-114.15 36.31v-12.84c-3.4 3.49-7.17 6.46-11.25 8.96l.74 2.49zm0-44.3.08-8.28c-14.83-4.76-25.06-14.65-29.68-29.37-17.15 5.27-42.15 9.72-60.69 7.09-.06 6.8-.71 12.87-.71 18.45 0 12.42 5.07 23.56 12.7 31.78 7.54 8.14 18.31 14.15 29.45 14.31 23.09.32 41.65-9.97 48.85-33.98zm2.47-24.35c.2-.74.4-1.45.6-2.18-.99-13.58-6.32-24.32-14.06-31.89-8.87-8.67-20.98-13.29-33.19-13.29-12.61 0-15.53 8.25-46.09-1.05 0 0-4.93 5.64-1.76 21.15l.85 4.73c17.89 4.03 49.44-2.75 64.54-8.62 4.73-1.84 10.03 1.33 10.77 6.32 1.78 12.27 7.43 20.46 18.34 24.83zm145.93-6.49c.68 1.87 1.28 3.8 1.81 5.75 9.92-4.54 14.97-12.59 16.64-24.09.71-4.99 6.04-8.16 10.77-6.32 15.11 5.87 46.66 12.64 64.54 8.62l.85-4.73c3.17-15.51-1.76-21.15-1.76-21.15-30.56 9.3-33.48 1.05-46.09 1.05-23.52-.01-43.13 16.07-46.76 40.87zm4.36 21.94.08 14.26c4 9.86 10.01 16.58 16.89 20.98 8.93 5.7 19.81 7.79 30.08 7.65 11.14-.17 21.91-6.18 29.45-14.31 7.62-8.22 12.7-19.36 12.7-31.78 0-5.58-.65-11.65-.71-18.45-18.54 2.64-43.54-1.81-60.69-7.09-4.41 13.97-13.94 23.75-27.8 28.74zm.09 42.21v10.66l8.67-1.08.71-2.47c-3.32-2.01-6.46-4.39-9.38-7.11zm-178.84 13.57c-11.79 3.49-25.54 4.31-37.19.74-.85 4.2-.91 7.8-4.9 9.95 4.31 10.09 13.41 18.25 23.56 24.75 10.23-6.55 19.42-14.77 23.67-25-1.84-1.13-3.17-3-3.6-5.19zm240.15.74c-11.65 3.57-25.4 2.75-37.19-.74l-1.73 5.9c-.57 1.96-1.81 3.51-3.43 4.51 4.25 10.23 13.44 18.48 23.7 25.03 10.18-6.52 19.28-14.68 23.56-24.8-3.92-2.13-4.06-5.73-4.91-9.9z"/></svg>