<?xml version="1.0" encoding="UTF-8" standalone="no"?>
<!-- Created with Inkscape (http://www.inkscape.org/) -->

<svg
   version="1.1"
   id="svg6438"
   xml:space="preserve"
   width="682.66669"
   height="682.66669"
   viewBox="0 0 682.66669 682.66669"
   xmlns="http://www.w3.org/2000/svg"
   xmlns:svg="http://www.w3.org/2000/svg"><defs
     id="defs6442"><clipPath
       clipPathUnits="userSpaceOnUse"
       id="clipPath6452"><path
         d="M 0,512 H 512 V 0 H 0 Z"
         id="path6450" /></clipPath></defs><g
     id="g6444"
     transform="matrix(1.3333333,0,0,-1.3333333,0,682.66667)"><g
       id="g6446"><g
         id="g6448"
         clip-path="url(#clipPath6452)"><g
           id="g6454"
           transform="translate(398.2803,35.4902)"><path
             d="M 0,0 V -27.99 H -390.78 V 0 c 0,79.46 148.66,92.359 148.66,92.359 h 93.46 C -148.66,92.359 0,79.46 0,0"
             style="fill:#ffe26f;fill-opacity:1;fill-rule:nonzero;stroke:none"
             id="path6456" /></g><g
           id="g6458"
           transform="translate(398.2803,35.4902)"><path
             d="m 0,0 v -27.99 h -390.78 v 13 h 349.79 c 8.28,0 14.99,6.71 14.99,14.99 0,39.729 -37.17,62.82 -74.33,75.979 -37.16,13.151 -74.33,16.38 -74.33,16.38 h 26 C -148.66,92.359 0,79.46 0,0"
             style="fill:#ffba4c;fill-opacity:1;fill-rule:nonzero;stroke:none"
             id="path6460" /></g><g
           id="g6462"
           transform="translate(249.6172,125.7227)"><path
             d="m 0,0 c 0,-25.8 -20.92,-46.71 -46.73,-46.71 -25.81,0 -46.73,20.91 -46.73,46.71 9.11,0 14.21,9.779 16.52,22.229 1.05,5.681 1.52,11.931 1.52,18.061 l 28.69,20.439 30.26,-19.519 c 0,-5.981 0.3,-12.15 1.1,-17.84 C -13.57,10.439 -9.21,0 0,0"
             style="fill:#ffdcc5;fill-opacity:1;fill-rule:nonzero;stroke:none"
             id="path6464" /></g><g
           id="g6466"
           transform="translate(234.2471,149.0928)"><path
             d="m 0,0 c -9.3,-9.58 -20.18,-14.73 -31.35,-14.69 -10.72,-0.02 -21.17,4.7 -30.22,13.549 1.05,5.681 1.52,11.931 1.52,18.061 L -31.36,37.359 -1.1,17.84 C -1.1,11.859 -0.8,5.689 0,0"
             style="fill:#ffc6bb;fill-opacity:1;fill-rule:nonzero;stroke:none"
             id="path6468" /></g><g
           id="g6470"
           transform="translate(203.8999,91.3291)"><path
             d="m 0,0 -54.822,-17.951 1.338,53.648 20.374,13.326 z"
             style="fill:#ffba4c;fill-opacity:1;fill-rule:nonzero;stroke:none"
             id="path6472" /></g><g
           id="g6474"
           transform="translate(203.8999,91.3291)"><path
             d="M 0,0 54.373,-17.951 53.035,35.697 32.109,49.023 Z"
             style="fill:#ffba4c;fill-opacity:1;fill-rule:nonzero;stroke:none"
             id="path6476" /></g><g
           id="g6478"
           transform="translate(231.4243,81.3291)"><path
             d="M 0,0 -12.63,-32.225 H -41.64 L -53.95,0 -27.524,10 Z"
             style="fill:#f4536f;fill-opacity:1;fill-rule:nonzero;stroke:none"
             id="path6480" /></g><g
           id="g6482"
           transform="translate(230.0298,7.5)"><path
             d="m 0,0 h -51.36 l 3.47,13 7.64,28.6 h 29.01 L -3.51,13 Z"
             style="fill:#cc5466;fill-opacity:1;fill-rule:nonzero;stroke:none"
             id="path6484" /></g><g
           id="g6486"
           transform="translate(230.0298,7.5)"><path
             d="m 0,0 h -51.36 l 3.47,13 h 44.38 z"
             style="fill:#af2f48;fill-opacity:1;fill-rule:nonzero;stroke:none"
             id="path6488" /></g><g
           id="g6490"
           transform="translate(110.3066,269.9512)"><path
             d="M 0,0 C -15.376,0 -27.894,12.368 -28.082,27.746 -28.274,43.394 -15.645,56.181 0,56.181 Z"
             style="fill:#ef9a9a;fill-opacity:1;fill-rule:nonzero;stroke:none"
             id="path6492" /></g><g
           id="g6494"
           transform="translate(295.4727,269.9512)"><path
             d="M 0,0 C 15.376,0 27.894,12.368 28.082,27.746 28.274,43.394 15.646,56.181 0,56.181 Z"
             style="fill:#ef9a9a;fill-opacity:1;fill-rule:nonzero;stroke:none"
             id="path6496" /></g><g
           id="g6498"
           transform="translate(294.6396,251.1719)"><path
             d="m 0,0 c 0,-21.89 -18.61,-48.04 -55.31,-77.74 -1.42,-1.15 -2.89,-2.24 -4.41,-3.24 -9.44,-6.291 -20.58,-9.68 -32.02,-9.66 -13.29,-0.02 -26.18,4.55 -36.48,12.93 -36.68,29.68 -55.29,55.83 -55.29,77.71 0,2.32 0.09,4.649 0.29,6.88 0.91,9.28 1.13,35.39 0.68,60 -0.12,6.46 -0.29,12.809 -0.5,18.73 L -0.52,84.84 C -1.5,56.47 -1.42,18.52 -0.29,6.939 -0.09,4.649 0,2.32 0,0"
             style="fill:#ffdcc5;fill-opacity:1;fill-rule:nonzero;stroke:none"
             id="path6500" /></g><g
           id="g6502"
           transform="translate(294.6396,251.1719)"><path
             d="m 0,0 c 0,-21.89 -18.61,-48.04 -55.31,-77.74 -1.42,-1.15 -2.89,-2.24 -4.41,-3.24 24.72,28.3 37.21,63.04 37.21,80.98 0,2.31 -0.09,4.64 -0.29,6.93 -0.27,7.91 -0.4,18.6 -0.41,30.29 0,8.84 -8.31,15.3 -16.89,13.16 -15.33,-3.81 -32.7,-6 -51.11,-6 -37.54,0 -70.84,9.13 -91.33,22.5 -0.12,6.46 -0.29,12.809 -0.5,18.73 L -0.52,84.84 C -1.5,56.47 -1.42,18.52 -0.29,6.939 -0.09,4.649 0,2.32 0,0"
             style="fill:#ffc6bb;fill-opacity:1;fill-rule:nonzero;stroke:none"
             id="path6504" /></g><g
           id="g6506"
           transform="translate(311.6133,363.1562)"><path
             d="m 0,0 c 0,-26.811 -48.35,-50.88 -108.13,-50.88 -28.34,0 -54.15,5.409 -73.45,13.949 -21.44,9.481 -34.87,22.83 -34.87,36.931 0,5.319 1.91,10.5 5.44,15.39 H -4.79 C -1.64,10.739 0,5.02 0,0"
             style="fill:#6f7f8f;fill-opacity:1;fill-rule:nonzero;stroke:none"
             id="path6508" /></g><g
           id="g6510"
           transform="translate(311.6133,363.1562)"><path
             d="m 0,0 c 0,-26.811 -48.35,-50.88 -108.13,-50.88 -28.34,0 -54.15,5.409 -73.45,13.949 13.03,-2.29 27.39,-3.58 42.45,-3.58 59.78,0 108.13,20.311 108.13,42.921 0,4.23 -1.64,9.06 -4.79,12.98 h 31 C -1.64,10.739 0,5.02 0,0"
             style="fill:#57616c;fill-opacity:1;fill-rule:nonzero;stroke:none"
             id="path6512" /></g><g
           id="g6514"
           transform="translate(346.5937,429.5957)"><path
             d="M 0,0 C 0,-19.1 -14.551,-37.27 -38.301,-51.05 H -245.99 c -9.25,5.37 -17.111,11.41 -23.24,17.91 -9.63,10.17 -15.05,21.48 -15.05,33.14 0,35.431 50,66.84 115.949,73.57 8.491,0.87 17.241,1.33 26.191,1.33 C -63.69,74.86 0,39.99 0,0"
             style="fill:#ffe26f;fill-opacity:1;fill-rule:nonzero;stroke:none"
             id="path6516" /></g><g
           id="g6518"
           transform="translate(346.5937,429.5957)"><path
             d="M 0,0 C 0,-19.1 -14.551,-37.27 -38.301,-51.05 H -245.99 c -9.25,5.37 -17.111,11.41 -23.24,17.91 h 203.37 c 25.2,0 39.86,17.25 39.86,37.14 0,39.4 -66.71,65.971 -142.331,69.57 8.491,0.87 17.241,1.33 26.191,1.33 C -63.69,74.86 0,39.99 0,0"
             style="fill:#ffba4c;fill-opacity:1;fill-rule:nonzero;stroke:none"
             id="path6520" /></g><g
           id="g6522"
           transform="translate(504.5,254.0605)"><path
             d="m 0,0 v -230.23 c 0,-9.02 -7.311,-16.331 -16.33,-16.331 h -177.28 l 30.72,56.25 V 0 c 0,9.02 7.31,16.329 16.329,16.329 H -16.33 C -7.311,16.329 0,9.02 0,0"
             style="fill:#f4536f;fill-opacity:1;fill-rule:nonzero;stroke:none"
             id="path6524" /></g><g
           id="g6526"
           transform="translate(504.5,254.0605)"><path
             d="m 0,0 v -230.23 c 0,-9.02 -7.311,-16.331 -16.33,-16.331 h -26 c 9.019,0 16.33,7.311 16.33,16.331 V 0 c 0,9.02 -7.311,16.329 -16.33,16.329 h 26 C -7.311,16.329 0,9.02 0,0"
             style="fill:#cc5466;fill-opacity:1;fill-rule:nonzero;stroke:none"
             id="path6528" /></g><g
           id="g6530"
           transform="translate(412.6152,206.5703)"><path
             d="M 0,0 -26.356,-1.735 -6.142,-18.898 -12.775,-44.936 9.937,-30.58 32.647,-44.936 26.015,-18.898 46.258,-1.735 19.873,0 9.937,24.962 Z"
             style="fill:#ffe26f;fill-opacity:1;fill-rule:nonzero;stroke:none"
             id="path6532" /></g><g
           id="g6534"
           transform="translate(412.6152,93.0391)"><path
             d="m 0,0 -26.356,-1.734 20.214,-17.164 -6.633,-26.037 22.712,14.356 22.71,-14.356 -6.632,26.037 L 46.258,-1.734 19.873,0 9.937,24.963 Z"
             style="fill:#ffe26f;fill-opacity:1;fill-rule:nonzero;stroke:none"
             id="path6536" /></g><g
           id="g6538"
           transform="translate(322.9346,470.4209)"><path
             d="m 0,0 c 14.949,-11.899 23.654,-26.011 23.654,-40.822 0,-19.532 -15.138,-37.167 -39.769,-51.049"
             style="fill:none;stroke:#000000;stroke-width:15;stroke-linecap:round;stroke-linejoin:round;stroke-miterlimit:10;stroke-dasharray:none;stroke-opacity:1"
             id="path6540" /></g><g
           id="g6542"
           transform="translate(100.6055,378.5498)"><path
             d="m 0,0 c -23.746,13.776 -38.292,31.944 -38.292,51.049 0,40.004 63.771,74.901 142.271,74.901 33.952,0 65.098,-6.528 89.515,-17.174"
             style="fill:none;stroke:#000000;stroke-width:15;stroke-linecap:round;stroke-linejoin:round;stroke-miterlimit:10;stroke-dasharray:none;stroke-opacity:1"
             id="path6544" /></g><g
           id="g6546"
           transform="translate(165.7593,378.5498)"><path
             d="m 0,0 h 141.06 c 3.156,-4.653 4.794,-10.373 4.794,-15.398 0,-26.804 -48.354,-50.876 -108.125,-50.876 -59.772,0 -108.329,24.072 -108.329,50.876 0,5.319 1.913,10.504 5.446,15.398 h 30.733"
             style="fill:none;stroke:#000000;stroke-width:15;stroke-linecap:round;stroke-linejoin:round;stroke-miterlimit:10;stroke-dasharray:none;stroke-opacity:1"
             id="path6548" /></g><g
           id="g6550"
           transform="translate(110.3301,269.9346)"><path
             d="M 0,0 C -15.389,0 -27.917,12.375 -28.106,27.763 -28.298,43.42 -15.659,56.215 0,56.215"
             style="fill:none;stroke:#000000;stroke-width:15;stroke-linecap:butt;stroke-linejoin:miter;stroke-miterlimit:10;stroke-dasharray:none;stroke-opacity:1"
             id="path6552" /></g><g
           id="g6554"
           transform="translate(295.4492,269.9346)"><path
             d="M 0,0 C 15.389,0 27.917,12.375 28.105,27.763 28.298,43.42 15.658,56.215 0,56.215"
             style="fill:none;stroke:#000000;stroke-width:15;stroke-linecap:butt;stroke-linejoin:miter;stroke-miterlimit:10;stroke-dasharray:none;stroke-opacity:1"
             id="path6556" /></g><g
           id="g6558"
           transform="translate(174.2036,166.9326)"><path
             d="M 0,0 C 0,-9.644 -1.162,-19.287 -3.934,-26.581"
             style="fill:none;stroke:#000000;stroke-width:15;stroke-linecap:butt;stroke-linejoin:round;stroke-miterlimit:10;stroke-dasharray:none;stroke-opacity:1"
             id="path6560" /></g><g
           id="g6562"
           transform="translate(150.3921,127.2188)"><path
             d="m 0,0 c -27.373,-3.359 -142.892,-21.683 -142.892,-91.729 v -27.99"
             style="fill:none;stroke:#000000;stroke-width:15;stroke-linecap:round;stroke-linejoin:miter;stroke-miterlimit:10;stroke-dasharray:none;stroke-opacity:1"
             id="path6564" /></g><g
           id="g6566"
           transform="translate(256.0098,127.1416)"><path
             d="M 0,0 C 14.792,-1.849 52.655,-7.755 85.604,-22.769"
             style="fill:none;stroke:#000000;stroke-width:15;stroke-linecap:butt;stroke-linejoin:miter;stroke-miterlimit:10;stroke-dasharray:none;stroke-opacity:1"
             id="path6568" /></g><g
           id="g6570"
           transform="translate(77.2295,7.5)"><path
             d="M 0,0 V 27.496"
             style="fill:none;stroke:#000000;stroke-width:15;stroke-linecap:round;stroke-linejoin:round;stroke-miterlimit:10;stroke-dasharray:none;stroke-opacity:1"
             id="path6572" /></g><g
           id="g6574"
           transform="translate(203.8999,89.8945)"><path
             d="m 0,0 -54.822,-16.517 1.338,53.649 19.85,13.326 z"
             style="fill:none;stroke:#000000;stroke-width:15;stroke-linecap:butt;stroke-linejoin:round;stroke-miterlimit:10;stroke-dasharray:none;stroke-opacity:1"
             id="path6576" /></g><g
           id="g6578"
           transform="translate(233.147,166.9326)"><path
             d="M 0,0 C 0,-9.644 1.162,-19.287 3.934,-26.581"
             style="fill:none;stroke:#000000;stroke-width:15;stroke-linecap:butt;stroke-linejoin:round;stroke-miterlimit:10;stroke-dasharray:none;stroke-opacity:1"
             id="path6580" /></g><g
           id="g6582"
           transform="translate(205.4512,89.8945)"><path
             d="M 0,0 52.821,-16.517 51.484,37.132 31.634,50.458 Z"
             style="fill:none;stroke:#000000;stroke-width:15;stroke-linecap:butt;stroke-linejoin:round;stroke-miterlimit:10;stroke-dasharray:none;stroke-opacity:1"
             id="path6584" /></g><g
           id="g6586"
           transform="translate(189.7842,49.1045)"><path
             d="M 0,0 -12.31,32.225"
             style="fill:none;stroke:#000000;stroke-width:15;stroke-linecap:butt;stroke-linejoin:round;stroke-miterlimit:10;stroke-dasharray:none;stroke-opacity:1"
             id="path6588" /></g><g
           id="g6590"
           transform="translate(231.4243,81.3291)"><path
             d="M 0,0 -12.63,-32.225"
             style="fill:none;stroke:#000000;stroke-width:15;stroke-linecap:butt;stroke-linejoin:round;stroke-miterlimit:10;stroke-dasharray:none;stroke-opacity:1"
             id="path6592" /></g><g
           id="g6594"
           transform="translate(178.6689,7.5)"><path
             d="m 0,0 11.115,41.604 h 29.01 L 51.356,0"
             style="fill:none;stroke:#000000;stroke-width:15;stroke-linecap:round;stroke-linejoin:round;stroke-miterlimit:10;stroke-dasharray:none;stroke-opacity:1"
             id="path6596" /></g><g
           id="g6598"
           transform="translate(294.124,336.0068)"><path
             d="m 0,0 c -0.976,-28.369 -0.901,-66.316 0.235,-77.903 0.196,-2.287 0.285,-4.616 0.285,-6.935 0,-21.888 -18.605,-48.039 -55.31,-77.737 -10.292,-8.369 -23.164,-12.927 -36.434,-12.9 -13.286,-0.025 -26.173,4.541 -36.476,12.926 -36.68,29.676 -55.286,55.826 -55.286,77.713 0,2.319 0.089,4.648 0.284,6.878 1.149,11.708 1.199,50.26 0.186,78.729"
             style="fill:none;stroke:#000000;stroke-width:15;stroke-linecap:round;stroke-linejoin:round;stroke-miterlimit:10;stroke-dasharray:none;stroke-opacity:1"
             id="path6600" /></g><g
           id="g6602"
           transform="translate(165.4878,467.2236)"><path
             d="M 0,0 V -16.948"
             style="fill:none;stroke:#000000;stroke-width:15;stroke-linecap:round;stroke-linejoin:round;stroke-miterlimit:10;stroke-dasharray:none;stroke-opacity:1"
             id="path6604" /></g><g
           id="g6606"
           transform="translate(184.4878,430.2236)"><path
             d="M 0,0 V -16.948"
             style="fill:none;stroke:#000000;stroke-width:15;stroke-linecap:round;stroke-linejoin:round;stroke-miterlimit:10;stroke-dasharray:none;stroke-opacity:1"
             id="path6608" /></g><g
           id="g6610"
           transform="translate(222.4878,430.2236)"><path
             d="M 0,0 V -16.948"
             style="fill:none;stroke:#000000;stroke-width:15;stroke-linecap:round;stroke-linejoin:round;stroke-miterlimit:10;stroke-dasharray:none;stroke-opacity:1"
             id="path6612" /></g><g
           id="g6614"
           transform="translate(203.4878,467.2236)"><path
             d="M 0,0 V -16.948"
             style="fill:none;stroke:#000000;stroke-width:15;stroke-linecap:round;stroke-linejoin:round;stroke-miterlimit:10;stroke-dasharray:none;stroke-opacity:1"
             id="path6616" /></g><g
           id="g6618"
           transform="translate(241.4878,467.2236)"><path
             d="M 0,0 V -16.948"
             style="fill:none;stroke:#000000;stroke-width:15;stroke-linecap:round;stroke-linejoin:round;stroke-miterlimit:10;stroke-dasharray:none;stroke-opacity:1"
             id="path6620" /></g><g
           id="g6622"
           transform="translate(223.4097,218)"><path
             d="m 0,0 c -5.54,-4.658 -12.695,-7.468 -20.51,-7.468 -7.815,0 -14.97,2.81 -20.51,7.468"
             style="fill:none;stroke:#000000;stroke-width:15;stroke-linecap:round;stroke-linejoin:round;stroke-miterlimit:10;stroke-dasharray:none;stroke-opacity:1"
             id="path6624" /></g><g
           id="g6626"
           transform="translate(194.4653,253.9326)"><path
             d="m 0,0 c 2.276,1.913 5.215,3.067 8.424,3.067 3.21,0 6.149,-1.154 8.425,-3.067"
             style="fill:none;stroke:#000000;stroke-width:15;stroke-linecap:round;stroke-linejoin:round;stroke-miterlimit:10;stroke-dasharray:none;stroke-opacity:1"
             id="path6628" /></g><g
           id="g6630"
           transform="translate(504.5,74.3779)"><path
             d="m 0,0 v 179.678 c 0,9.019 -7.312,16.331 -16.332,16.331 h -130.224 c -9.019,0 -16.331,-7.312 -16.331,-16.331 v -25.812"
             style="fill:none;stroke:#000000;stroke-width:15;stroke-linecap:round;stroke-linejoin:round;stroke-miterlimit:10;stroke-dasharray:none;stroke-opacity:1"
             id="path6632" /></g><g
           id="g6634"
           transform="translate(341.6133,193.6416)"><path
             d="m 0,0 v -129.891 l -30.72,-56.251 h 177.275 c 9.019,0 16.332,7.313 16.332,16.332 v 16.279"
             style="fill:none;stroke:#000000;stroke-width:15;stroke-linecap:round;stroke-linejoin:round;stroke-miterlimit:10;stroke-dasharray:none;stroke-opacity:1"
             id="path6636" /></g><g
           id="g6638"
           transform="translate(412.6152,206.5703)"><path
             d="M 0,0 -26.356,-1.735 -6.142,-18.898 -12.775,-44.936 9.937,-30.58 32.647,-44.936 26.015,-18.898 46.258,-1.735 19.873,0 9.937,24.962 Z"
             style="fill:none;stroke:#000000;stroke-width:15;stroke-linecap:round;stroke-linejoin:round;stroke-miterlimit:10;stroke-dasharray:none;stroke-opacity:1"
             id="path6640" /></g><g
           id="g6642"
           transform="translate(412.6152,93.0391)"><path
             d="m 0,0 -26.356,-1.734 20.214,-17.164 -6.633,-26.037 22.712,14.356 22.71,-14.356 -6.632,26.037 L 46.258,-1.734 19.873,0 9.937,24.963 Z"
             style="fill:none;stroke:#000000;stroke-width:15;stroke-linecap:round;stroke-linejoin:round;stroke-miterlimit:10;stroke-dasharray:none;stroke-opacity:1"
             id="path6644" /></g></g></g></g></svg>
