<svg id="icons" viewBox="0 0 64 64" xmlns="http://www.w3.org/2000/svg"><circle cx="23" cy="11" fill="#d7e9ff" r="3"/><path d="m7.98 22.96a10.65393 10.65393 0 0 1 -3.98-7.96c0-7.18 8.51-13 19-13s19 5.82 19 13a10.66687 10.66687 0 0 1 -4 7.98h-.02v-.71h-.1a.88165.88165 0 0 0 .12-.26v-4h-30v4a1.24027 1.24027 0 0 0 .08.19l-.1.06zm18.02-11.96a3 3 0 1 0 -3 3 2.996 2.996 0 0 0 3-3z" fill="#94c1ff"/><path d="m8 18.01h30v4h-30z" fill="#5c9eff"/><path d="m8 22.01h30a.88165.88165 0 0 1 -.12.26c-.51.89-3.07 3.74-14.9 3.74-12.16 0-14.5-3.01-14.9-3.81a1.24027 1.24027 0 0 1 -.08-.19z" fill="#94c1ff"/><path d="m60 48a6 6 0 1 0 -6 6 6.00475 6.00475 0 0 0 6-6zm3-3v14h-18v-22h18z" fill="#94c1ff"/><path d="m63 59v3h-17.17-.83v-3z" fill="#fff"/><path d="m22.98 26.01c11.83 0 14.39-2.85 14.9-3.74h.1v5.73a15 15 0 1 1 -30 0v-5.74l.1-.06c.4.8 2.74 3.81 14.9 3.81z" fill="#d7e9ff"/><path d="m30 44-1.56 4-2.44-1.35-3-1.65-3 1.65-2.44 1.35-1.56-4v-2.72a15.00675 15.00675 0 0 0 13.99-.02l.01.02z" fill="#fff"/><path d="m24 49 2.11 5-3.11 8-3.11-8 2.11-5z" fill="#d7e9ff"/><path d="m26 46.65-2 2.35h-2l-2-2.35 3-1.65z" fill="#d7e9ff"/><path d="m20 46.65 2 2.35-2.11 5-2.33-6z" fill="#fff"/><path d="m28.44 48-2.33 6-2.11-5 2-2.35z" fill="#fff"/><path d="m19.89 54 3.11 8h-3l-6-8 2-2-4-4 2-2 2-2 1.56 4z" fill="#94c1ff"/><path d="m56.23 50.23c-.35 2.21-1.22 3.77-2.23 3.77s-1.88-1.56-2.23-3.77a14.71118 14.71118 0 0 0 4.46 0z" fill="#fff"/><path d="m54 42c1.01 0 1.88 1.56 2.23 3.77a14.71118 14.71118 0 0 0 -4.46 0c.35-2.21 1.22-3.77 2.23-3.77z" fill="#fff"/><path d="m45 62h-19l6-8-2-2 4-4-2-2h5a7.9978 7.9978 0 0 1 8 8z" fill="#5c9eff"/><path d="m60 48a6.00475 6.00475 0 0 1 -6 6c1.01 0 1.88-1.56 2.23-3.77 2.21-.35 3.77-1.22 3.77-2.23z" fill="#fff"/><path d="m54 42c-1.01 0-1.88 1.56-2.23 3.77-2.21.35-3.77 1.22-3.77 2.23a6.00475 6.00475 0 0 1 6-6z" fill="#fff"/><path d="m48 48c0 1.01 1.56 1.88 3.77 2.23.35 2.21 1.22 3.77 2.23 3.77a6.00475 6.00475 0 0 1 -6-6z" fill="#fff"/><path d="m32 46 2 2-4 4 2 2-6 8h-3l3.11-8 2.33-6 1.56-4z" fill="#94c1ff"/><path d="m51.77 45.77a14.71118 14.71118 0 0 0 0 4.46c-2.21-.35-3.77-1.22-3.77-2.23s1.56-1.88 3.77-2.23z" fill="#fff"/><path d="m60 48c0 1.01-1.56 1.88-3.77 2.23a14.71118 14.71118 0 0 0 0-4.46c2.21.35 3.77 1.22 3.77 2.23z" fill="#fff"/><path d="m56.23 45.77a14.71118 14.71118 0 0 1 0 4.46 14.71118 14.71118 0 0 1 -4.46 0 14.71118 14.71118 0 0 1 0-4.46 14.71118 14.71118 0 0 1 4.46 0z" fill="#e6e9ed"/><path d="m54 42a6.00475 6.00475 0 0 1 6 6c0-1.01-1.56-1.88-3.77-2.23-.35-2.21-1.22-3.77-2.23-3.77z" fill="#fff"/><path d="m14 54 6 8h-19v-8a7.9978 7.9978 0 0 1 8-8h5l-2 2 4 4z" fill="#5c9eff"/><g fill="#116fff"><path d="m1 55.001a.99943.99943 0 0 1 -1-1 9.01193 9.01193 0 0 1 9.002-9.002 1 1 0 0 1 0 2 7.00933 7.00933 0 0 0 -7.002 7.002.99943.99943 0 0 1 -1 1z"/><path d="m45 55a.99943.99943 0 0 1 -1-1 7.00849 7.00849 0 0 0 -7-7 1 1 0 0 1 0-2 9.00984 9.00984 0 0 1 9 9 .99943.99943 0 0 1 -1 1z"/><path d="m9.002 46.999a1 1 0 0 1 0-2l4.999-.001a1 1 0 0 1 0 2z"/><path d="m1.001 62.999a1 1 0 0 1 -1-1l-.001-7.998a1 1 0 0 1 2 0l.001 7.998a1.00005 1.00005 0 0 1 -1 1z"/><path d="m45 62.999a.99942.99942 0 0 1 -1-1v-7.999a1 1 0 0 1 2 0v7.999a.99942.99942 0 0 1 -1 1z"/><path d="m16 44.99805a.99943.99943 0 0 1 -1-1v-2.71973a1 1 0 0 1 2 0v2.71973a.99943.99943 0 0 1 -1 1z"/><path d="m30 44.99805a.99943.99943 0 0 1 -1-1v-2.71973a1 1 0 0 1 2 0v2.71973a.99943.99943 0 0 1 -1 1z"/><path d="m17.55762 49a1.00014 1.00014 0 0 1 -.48438-1.876l5.44336-3.002a1.0005 1.0005 0 1 1 .9668 1.752l-5.4434 3.002a1.00274 1.00274 0 0 1 -.48238.124z"/><path d="m28.44238 49a1.00274 1.00274 0 0 1 -.48242-.124l-5.44336-3.002a1.0005 1.0005 0 1 1 .9668-1.752l5.44336 3.002a1.00014 1.00014 0 0 1 -.48438 1.876z"/><path d="m12 49a1 1 0 0 1 -.707-1.707l4-4.00195a.99989.99989 0 0 1 1.414 1.41403l-4 4.002a.99676.99676 0 0 1 -.707.29292z"/><path d="m16 52.99805a.99676.99676 0 0 1 -.707-.293l-4-3.998a.99989.99989 0 0 1 1.414-1.41405l4 3.99805a1 1 0 0 1 -.707 1.707z"/><path d="m14 54.99805a1 1 0 0 1 -.707-1.707l2-2a.99989.99989 0 0 1 1.414 1.41403l-2 2a.99676.99676 0 0 1 -.707.29297z"/><path d="m20.001 62.99805a.99556.99556 0 0 1 -.80078-.40039l-6-8a.99961.99961 0 1 1 1.5996-1.19922l6 8a1.0001 1.0001 0 0 1 -.79882 1.59961z"/><path d="m23 62.99805a.99911.99911 0 0 1 -.93164-.6377l-7-18a.99961.99961 0 0 1 1.86328-.72461l7 18a.99943.99943 0 0 1 -.56934 1.294.98466.98466 0 0 1 -.3623.06831z"/><path d="m34 49a.99676.99676 0 0 1 -.707-.293l-4-4.002a.99989.99989 0 0 1 1.414-1.414l4 4.00195a1 1 0 0 1 -.707 1.70705z"/><path d="m30 52.99805a1 1 0 0 1 -.707-1.707l4-3.99805a.99989.99989 0 0 1 1.414 1.414l-4 3.998a.99676.99676 0 0 1 -.707.29305z"/><path d="m32 54.99805a.99676.99676 0 0 1 -.707-.293l-2-2a.99989.99989 0 0 1 1.414-1.41405l2 2a1 1 0 0 1 -.707 1.707z"/><path d="m25.999 62.99805a1.0001 1.0001 0 0 1 -.79882-1.59961l6-8a.99961.99961 0 1 1 1.5996 1.19922l-6 8a.99556.99556 0 0 1 -.80078.40039z"/><path d="m23 62.99805a.98466.98466 0 0 1 -.3623-.06836.99943.99943 0 0 1 -.56934-1.294l7-18a.99961.99961 0 0 1 1.86328.72461l-7 18a.99911.99911 0 0 1 -.93164.63775z"/><path d="m37 47h-5a1 1 0 0 1 0-2h5a1 1 0 0 1 0 2z"/><path d="m19.88867 54.99805a1.0005 1.0005 0 0 1 -.9209-1.38867l2.11133-4.998a.99956.99956 0 0 1 1.8418.77734l-2.11133 4.998a.99941.99941 0 0 1 -.9209.61133z"/><path d="m26.11133 54.99805a.99941.99941 0 0 1 -.9209-.61133l-2.11133-5a.99956.99956 0 1 1 1.8418-.77734l2.11133 5a1.0005 1.0005 0 0 1 -.9209 1.38867z"/><path d="m24 50h-2a1 1 0 0 1 0-2h2a1 1 0 0 1 0 2z"/><path d="m24 50a1.00005 1.00005 0 0 1 -.76074-1.64844l2-2.34765a.9996.9996 0 1 1 1.52148 1.29687l-2 2.34766a.9952.9952 0 0 1 -.76074.35156z"/><path d="m22 50a.9952.9952 0 0 1 -.76074-.35156l-2-2.34766a.9996.9996 0 1 1 1.52148-1.29687l2 2.34765a1.00005 1.00005 0 0 1 -.76074 1.64844z"/><path d="m22.98438 44.001a16.01833 16.01833 0 0 1 -16-16 1 1 0 0 1 2 0 14 14 0 0 0 28 0 1 1 0 0 1 2 0 16.01834 16.01834 0 0 1 -16 16z"/><path d="m7.98438 29.001a.99942.99942 0 0 1 -1-1v-5.74123a1 1 0 0 1 2 0v5.74123a.99943.99943 0 0 1 -1 1z"/><path d="m37.98438 29.001a.99942.99942 0 0 1 -1-1v-5.73537a1 1 0 0 1 2 0v5.73537a.99943.99943 0 0 1 -1 1z"/><path d="m22.98438 27.00977c-14.08887 0-15.7627-3.97266-15.95508-4.76856a1.00009 1.00009 0 0 1 1.9297-.52344c.07129.15821 1.66407 3.292 14.0254 3.292 12.627 0 14.04882-3.27149 14.06152-3.30469a.971.971 0 0 1 1.2041-.69824 1.02627 1.02627 0 0 1 .71973 1.24121c-.19924.79495-1.90237 4.76172-15.98537 4.76172z"/><path d="m37.999 23.00586h-29.998a1 1 0 1 1 0-2h29.998a1 1 0 0 1 0 2z"/><path d="m37.999 19.00586h-29.998a1 1 0 1 1 0-2h29.998a1 1 0 0 1 0 2z"/><path d="m8.001 23.00586a.99942.99942 0 0 1 -1-1v-4a1 1 0 0 1 2 0v4a.99943.99943 0 0 1 -1 1z"/><path d="m38 23.00586a.99943.99943 0 0 1 -1-1v-4a1 1 0 0 1 2 0v4a.99943.99943 0 0 1 -1 1z"/><path d="m39 44.01172h-6a1 1 0 0 1 0-2h6a1 1 0 0 1 0 2z"/><path d="m13 44.01172h-6a1 1 0 0 1 0-2h6a1 1 0 0 1 0 2z"/><path d="m38.001 23.97949a1 1 0 0 1 -.66016-1.751 9.64859 9.64859 0 0 0 3.65916-7.22849c0-6.61719-8.0752-12-18-12s-18 5.38281-18 12a9.64551 9.64551 0 0 0 3.65918 7.22852.99988.99988 0 0 1 -1.32031 1.502 11.73246 11.73246 0 0 1 -4.33887-8.73052c0-7.71973 8.97168-14 20-14s20 6.28027 20 14a11.58034 11.58034 0 0 1 -4.33887 8.73047.99618.99618 0 0 1 -.66013.24902z"/><path d="m23 15a4 4 0 1 1 4-4 4.004 4.004 0 0 1 -4 4zm0-6a2 2 0 1 0 2 2 2.0026 2.0026 0 0 0 -2-2z"/><path d="m63 60h-18a.99943.99943 0 0 1 -1-1v-22.00195a.99942.99942 0 0 1 1-1h18a.99942.99942 0 0 1 1 1v22.00195a.99943.99943 0 0 1 -1 1zm-17-2h16v-20.00195h-16z"/><path d="m63 63h-18a.99943.99943 0 0 1 -1-1v-17.00195a1 1 0 0 1 2 0v16.00195h16v-16.00195a1 1 0 0 1 2 0v17.00195a.99943.99943 0 0 1 -1 1z"/><path d="m54 55a7 7 0 1 1 7-7 7.00849 7.00849 0 0 1 -7 7zm0-12a5 5 0 1 0 5 5 5.00588 5.00588 0 0 0 -5-5z"/><path d="m54 55c-2.23242 0-3.40039-3.52148-3.40039-7s1.16797-7 3.40039-7 3.40039 3.52148 3.40039 7-1.16797 7-3.40039 7zm-.002-12c-.40235.06543-1.39844 1.89844-1.39844 5s.99609 4.93457 1.40234 5c.40235-.06543 1.39844-1.89844 1.39844-5s-.99604-4.93457-1.40229-5z"/><path d="m54 51.40039c-3.47852 0-7-1.168-7-3.40039s3.52148-3.40039 7-3.40039 7 1.16797 7 3.40039-3.52148 3.40039-7 3.40039zm0-4.80078c-3.10156 0-4.93457.99609-5 1.40234.06543.40235 1.89844 1.39844 5 1.39844s4.93457-.99609 5-1.40234c-.06543-.40235-1.89844-1.39844-5-1.39844z"/></g></svg>