<svg id="Layer_1" height="512" viewBox="0 0 66 66" width="512" xmlns="http://www.w3.org/2000/svg"><g><circle cx="42.1" cy="12.8" r="9.4" style="fill:none;stroke:#000;stroke-linecap:round;stroke-linejoin:round;stroke-miterlimit:10;stroke-width:1.5"/><path d="m41.7 18v-1.3c-.7 0-1.5-.2-1.9-.6l.3-.8c.5.3 1.1.5 1.8.5.9 0 1.5-.5 1.5-1.2s-.5-1.1-1.4-1.5c-1.3-.5-2.1-1.1-2.1-2.2s.7-1.9 1.9-2v-1.3h.8v1.2c.8 0 1.3.2 1.6.4l-.3.8c-.3-.2-.8-.4-1.6-.4-1 0-1.3.6-1.3 1.1 0 .7.5 1 1.6 1.4 1.3.5 2 1.2 2 2.3 0 1-.7 1.9-2 2.2v1.4z"/><path d="m55.7 46v12.6c-1.2 0-2.1.9-2.1 2.1h-6.4c0-1.1-.9-2.1-2.1-2.1v-12.6" style="fill:none;stroke:#000;stroke-linecap:round;stroke-linejoin:round;stroke-miterlimit:10;stroke-width:1.5"/><path d="m59 46v15.6c0 1.5-1.2 2.6-2.6 2.6h-11.8c-1.5 0-2.6-1.2-2.6-2.6v-15.6" style="fill:none;stroke:#000;stroke-linecap:round;stroke-linejoin:round;stroke-miterlimit:10;stroke-width:1.5"/><path d="m46.5 50.7h1c0-.6.2-1.1.4-1.5l.6.2c-.2.3-.4.8-.4 1.4 0 .7.4 1.1.9 1.1s.9-.4 1.1-1.1c.4-1 .8-1.6 1.7-1.6.8 0 1.4.6 1.5 1.4h1v.6h-.9c0 .6-.2 1-.3 1.2l-.6-.2c.1-.2.3-.6.3-1.2 0-.7-.4-1-.8-1-.5 0-.7.4-1.1 1.2-.4 1-.9 1.5-1.8 1.5-.8 0-1.5-.5-1.6-1.5h-1z"/><g style="fill:none;stroke:#000;stroke-linecap:round;stroke-linejoin:round;stroke-miterlimit:10;stroke-width:1.5"><path d="m34.2 46h28.1c1.1 0 2-.9 2-2v-14.3c0-1.1-.9-2-2-2h-28.1c-1.1 0-2 .9-2 2v14.3c0 1.1.9 2 2 2z"/><path d="m64.3 32.1h-32.1"/><path d="m55.9 40.7c.4.4 1 .6 1.5.6 1.3 0 2.3-1 2.3-2.3s-1-2.3-2.3-2.3c-.6 0-1.1.2-1.5.6"/><circle cx="54.3" cy="39" r="2.3"/><path d="m48 37.3h-11.3"/><path d="m48 40.7h-11.3"/><path d="m36.6 56.8h-33.1"/><path d="m17.2 5.5h6"/><path d="m18.3 60.5h3.7"/><path d="m8 60.5h3.6"/><path d="m28.7 60.5h3.7"/><path d="m7.9 20.2h-6.1l4.1-10.5h4.7z"/><path d="m10.6 9.7h4.7l-1.3 10.5h-6.1"/><path d="m15.3 9.7h4.8v10.5h-6.1"/><path d="m20.1 9.7h4.7l1.4 10.5h-6.1"/><path d="m24.8 9.7h4.7l2.8 10.5h-6.1"/><path d="m36.4 20.2h-4.1"/><path d="m29.5 9.7h3.7"/><path d="m38.4 21.5v1.5c0 1.9-1.4 3.4-3.1 3.4-1.7 0-3.1-1.5-3.1-3.4v-2.8 2.8c0 1.9-1.4 3.4-3.1 3.4-1.7 0-3.1-1.5-3.1-3.4v-2.8 2.8c0 1.9-1.4 3.5-3.1 3.5-1.7 0-3.1-1.5-3.1-3.5v-2.8 2.8c0 1.9-1.4 3.4-3.1 3.4-1.7 0-3.1-1.5-3.1-3.4v-2.8 2.8c0 1.9-1.4 3.4-3.1 3.4-1.7 0-3.1-1.5-3.1-3.4v-2.8 2.8c0 1.9-1.4 3.5-3.1 3.5-1.7 0-3.1-1.5-3.1-3.5v-2.8"/><path d="m3.5 15.4v-10.4c0-1.8 1.2-3.3 2.8-3.3h27.6c1.5 0 2.8 1.5 2.8 3.3"/><path d="m36.6 46v15.6c0 1.5-1 2.7-2.3 2.7h-28.5c-1.3 0-2.3-1.2-2.3-2.7v-35.1"/><path d="m36.6 27.8v-1.3"/><circle cx="13.4" cy="50" r="2"/><path d="m10.2 44.6h14.7l2.5-9.6h-19.7z"/><circle cx="24" cy="50" r="2"/><path d="m15.4 50h6.6"/><path d="m24 48v-3.4"/><path d="m27.4 35 .6-2.4c.2-.8.9-1.3 1.7-1.3h2.1"/><circle cx="60.5" cy="5.4" r="1.2"/><path d="m64.3 5.5c0 2.1-3.8 7.9-3.8 7.9s-3.8-5.8-3.8-7.9 1.7-3.8 3.8-3.8 3.8 1.7 3.8 3.8z"/></g></g></svg>