<svg id="Layer_1" enable-background="new 0 0 512 512" height="512" viewBox="0 0 512 512" width="512" xmlns="http://www.w3.org/2000/svg"><path d="m486.903 68.885h-461.806c-13.838 0-25.097 11.259-25.097 25.097v282.614c0 13.838 11.259 25.095 25.097 25.095h203.571v27.586h-49.624c-3.822 0-6.919 3.099-6.919 6.919s3.097 6.919 6.919 6.919h153.911c3.822 0 6.919-3.099 6.919-6.919s-3.097-6.919-6.919-6.919h-49.626v-27.586h66.933v14.423c0 14.887 12.113 27 27.002 27h107.732c14.89 0 27.005-12.113 27.005-27v-210.075-112.057c-.001-13.838-11.26-25.097-25.098-25.097zm-461.806 13.838h461.806c6.209 0 11.259 5.05 11.259 11.259v88.503c-3.9-2.189-8.386-3.45-13.167-3.45h-107.732c-14.89 0-27.002 12.115-27.002 27.005v116.66h-336.423v-228.718c0-6.209 5.05-11.259 11.259-11.259zm339.002 150.447h134.064v144.516h-134.064zm-94.609 196.106h-26.984v-27.586h26.984zm-244.393-41.423c-6.209 0-11.259-5.05-11.259-11.257v-40.059h336.423v51.316zm459.899 41.423h-107.733c-7.259 0-13.164-5.905-13.164-13.162v-24.59h134.064v24.59c-.001 7.257-5.906 13.162-13.167 13.162zm13.166-209.944h-134.063v-13.293c0-7.261 5.905-13.167 13.164-13.167h107.732c7.261 0 13.167 5.905 13.167 13.167zm-170.759 142.318c0 3.82-3.097 6.919-6.919 6.919h-128.967c-3.822 0-6.919-3.099-6.919-6.919s3.097-6.919 6.919-6.919h128.967c3.822 0 6.919 3.099 6.919 6.919zm120.84 46.234c0 3.82-3.097 6.919-6.919 6.919h-20.39c-3.822 0-6.919-3.099-6.919-6.919s3.097-6.919 6.919-6.919h20.39c3.822 0 6.919 3.1 6.919 6.919zm7.424-201.782c0 3.822-3.097 6.919-6.919 6.919h-35.237c-3.822 0-6.919-3.097-6.919-6.919s3.097-6.919 6.919-6.919h35.237c3.822 0 6.919 3.097 6.919 6.919zm-273.619 38.077c-10.64 0-19.297 8.658-19.297 19.3 0 10.64 8.658 19.297 19.297 19.297 10.64 0 19.297-8.658 19.297-19.297.001-10.643-8.657-19.3-19.297-19.3zm0 24.759c-3.011 0-5.459-2.45-5.459-5.459 0-3.011 2.448-5.462 5.459-5.462s5.459 2.45 5.459 5.462c.001 3.008-2.447 5.459-5.459 5.459zm-96.306-96.615c-2.703-2.703-2.703-7.083 0-9.784 53.104-53.104 139.51-53.104 192.613 0 2.703 2.7 2.703 7.081 0 9.784-1.351 1.351-3.122 2.027-4.892 2.027s-3.541-.676-4.892-2.027c-47.707-47.707-125.338-47.707-173.046 0-2.702 2.702-7.081 2.702-9.783 0zm162.714 20.117c2.703 2.7 2.703 7.083 0 9.784-1.351 1.351-3.122 2.027-4.892 2.027s-3.541-.676-4.892-2.027c-31.216-31.219-82.021-31.223-113.248 0-2.703 2.703-7.081 2.703-9.784 0s-2.703-7.083 0-9.784c36.62-36.62 96.201-36.615 132.816 0zm-29.901 29.899c2.703 2.703 2.703 7.083 0 9.784-1.351 1.351-3.122 2.027-4.892 2.027s-3.541-.676-4.892-2.027c-7.137-7.137-16.628-11.07-26.723-11.07s-19.586 3.932-26.723 11.07c-2.698 2.703-7.081 2.703-9.784 0-2.703-2.7-2.703-7.081 0-9.784 9.75-9.752 22.716-15.124 36.507-15.124s26.757 5.371 36.507 15.124z"/></svg>