<?xml version="1.0" encoding="UTF-8" standalone="no"?>
<!-- Created with Inkscape (http://www.inkscape.org/) -->

<svg
   version="1.1"
   id="svg129"
   xml:space="preserve"
   width="682.66669"
   height="682.66669"
   viewBox="0 0 682.66669 682.66669"
   xmlns="http://www.w3.org/2000/svg"
   xmlns:svg="http://www.w3.org/2000/svg"><defs
     id="defs133"><clipPath
       clipPathUnits="userSpaceOnUse"
       id="clipPath147"><path
         d="M 0,512 H 512 V 0 H 0 Z"
         id="path145" /></clipPath><clipPath
       clipPathUnits="userSpaceOnUse"
       id="clipPath159"><path
         d="M 0,512 H 512 V 0 H 0 Z"
         id="path157" /></clipPath><clipPath
       clipPathUnits="userSpaceOnUse"
       id="clipPath173"><path
         d="M 0,512 H 512 V 0 H 0 Z"
         id="path171" /></clipPath><clipPath
       clipPathUnits="userSpaceOnUse"
       id="clipPath199"><path
         d="M 0,512 H 512 V 0 H 0 Z"
         id="path197" /></clipPath></defs><g
     id="g135"
     transform="matrix(1.3333333,0,0,-1.3333333,0,682.66667)"><path
       d="M 406.478,204.83 H 306.006 v 109.976 h 100.472 z"
       style="fill:#ffe6b4;fill-opacity:1;fill-rule:nonzero;stroke:#000000;stroke-width:20;stroke-linecap:round;stroke-linejoin:round;stroke-miterlimit:10;stroke-dasharray:none;stroke-opacity:1"
       id="path137" /><path
       d="m 475.033,204.83 h -68.555 v 232.979 h 68.555 z"
       style="fill:#c0dbff;fill-opacity:1;fill-rule:nonzero;stroke:none"
       id="path139" /><g
       id="g141"><g
         id="g143"
         clip-path="url(#clipPath147)"><path
           d="m 475.033,204.83 h -68.555 v 232.979 h 68.555 z"
           style="fill:none;stroke:#000000;stroke-width:20;stroke-linecap:round;stroke-linejoin:round;stroke-miterlimit:10;stroke-dasharray:none;stroke-opacity:1"
           id="path149" /></g></g><path
       d="M 492.029,437.808 H 389.482 v 53.793 h 102.547 z"
       style="fill:#a0c8ff;fill-opacity:1;fill-rule:nonzero;stroke:none"
       id="path151" /><g
       id="g153"><g
         id="g155"
         clip-path="url(#clipPath159)"><path
           d="M 492.029,437.808 H 389.482 v 53.793 h 102.547 z"
           style="fill:none;stroke:#000000;stroke-width:20;stroke-linecap:round;stroke-linejoin:round;stroke-miterlimit:10;stroke-dasharray:none;stroke-opacity:1"
           id="path161" /></g></g><g
       id="g163"
       transform="translate(285.8022,20.3984)"><path
         d="M 0,0 H -129.441 V 184.431 H 216.198 V 0 H 90.413"
         style="fill:#ffda8f;fill-opacity:1;fill-rule:nonzero;stroke:none"
         id="path165" /></g><g
       id="g167"><g
         id="g169"
         clip-path="url(#clipPath173)"><g
           id="g175"
           transform="translate(285.8022,20.3984)"><path
             d="M 0,0 H -129.441 V 184.431 H 216.198 V 0 H 90.413"
             style="fill:none;stroke:#000000;stroke-width:20;stroke-linecap:round;stroke-linejoin:round;stroke-miterlimit:10;stroke-dasharray:none;stroke-opacity:1"
             id="path177" /></g><g
           id="g179"
           transform="translate(331.1919,20.3984)"><path
             d="M 0,0 Z"
             style="fill:#ffda8f;fill-opacity:1;fill-rule:nonzero;stroke:none"
             id="path181" /></g><g
           id="g183"
           transform="translate(331.1919,20.3984)"><path
             d="M 0,0 V 0"
             style="fill:none;stroke:#000000;stroke-width:20;stroke-linecap:round;stroke-linejoin:round;stroke-miterlimit:10;stroke-dasharray:none;stroke-opacity:1"
             id="path185" /></g></g></g><path
       d="m 263.706,75.669 h -60.572 v 63.061 h 60.572 z"
       style="fill:#faf7f5;fill-opacity:1;fill-rule:nonzero;stroke:#000000;stroke-width:20;stroke-linecap:round;stroke-linejoin:round;stroke-miterlimit:10;stroke-dasharray:none;stroke-opacity:1"
       id="path187" /><path
       d="m 458.883,75.669 h -60.572 v 63.061 h 60.572 z"
       style="fill:#faf7f5;fill-opacity:1;fill-rule:nonzero;stroke:#000000;stroke-width:20;stroke-linecap:round;stroke-linejoin:round;stroke-miterlimit:10;stroke-dasharray:none;stroke-opacity:1"
       id="path189" /><path
       d="m 361.294,75.669 h -60.572 v 63.061 h 60.572 z"
       style="fill:#faf7f5;fill-opacity:1;fill-rule:nonzero;stroke:#000000;stroke-width:20;stroke-linecap:round;stroke-linejoin:round;stroke-miterlimit:10;stroke-dasharray:none;stroke-opacity:1"
       id="path191" /><g
       id="g193"><g
         id="g195"
         clip-path="url(#clipPath199)"><g
           id="g201"
           transform="translate(314.6592,374.0298)"><path
             d="m 0,0 c -20.247,-6.535 -41.958,4.58 -48.493,24.827 -6.536,20.246 4.579,41.958 24.826,48.493 C -3.42,79.855 18.291,68.74 24.827,48.494 26.238,44.121 26.826,39.68 26.676,35.339 37.735,34.953 47.873,27.752 51.468,16.614 56.056,2.401 48.253,-12.839 34.041,-17.427 19.829,-22.015 4.588,-14.212 0,0"
             style="fill:#faf7f5;fill-opacity:1;fill-rule:nonzero;stroke:none"
             id="path203" /></g><g
           id="g205"
           transform="translate(314.6592,374.0298)"><path
             d="m 0,0 c -20.247,-6.535 -41.958,4.58 -48.493,24.827 -6.536,20.246 4.579,41.958 24.826,48.493 C -3.42,79.855 18.291,68.74 24.827,48.494 26.238,44.121 26.826,39.68 26.676,35.339 37.735,34.953 47.873,27.752 51.468,16.614 56.056,2.401 48.253,-12.839 34.041,-17.427 19.829,-22.015 4.588,-14.212 0,0 Z"
             style="fill:none;stroke:#000000;stroke-width:20;stroke-linecap:round;stroke-linejoin:round;stroke-miterlimit:10;stroke-dasharray:none;stroke-opacity:1"
             id="path207" /></g><g
           id="g209"
           transform="translate(156.3613,20.3984)"><path
             d="M 0,0 H -146.361 V 75.283 L 0,153.795 Z"
             style="fill:#faf7f5;fill-opacity:1;fill-rule:nonzero;stroke:none"
             id="path211" /></g><g
           id="g213"
           transform="translate(156.3613,20.3984)"><path
             d="M 0,0 H -146.361 V 75.283 L 0,153.795 Z"
             style="fill:none;stroke:#000000;stroke-width:20;stroke-linecap:round;stroke-linejoin:round;stroke-miterlimit:10;stroke-dasharray:none;stroke-opacity:1"
             id="path215" /></g></g></g></g></svg>
