<?xml version="1.0" encoding="UTF-8" standalone="no"?>
<!-- Created with Inkscape (http://www.inkscape.org/) -->

<svg
   version="1.1"
   id="svg2115"
   xml:space="preserve"
   width="682.66669"
   height="682.66669"
   viewBox="0 0 682.66669 682.66669"
   xmlns="http://www.w3.org/2000/svg"
   xmlns:svg="http://www.w3.org/2000/svg"><defs
     id="defs2119"><clipPath
       clipPathUnits="userSpaceOnUse"
       id="clipPath2129"><path
         d="M 0,512 H 512 V 0 H 0 Z"
         id="path2127" /></clipPath></defs><g
     id="g2121"
     transform="matrix(1.3333333,0,0,-1.3333333,0,682.66667)"><g
       id="g2123"><g
         id="g2125"
         clip-path="url(#clipPath2129)"><g
           id="g2131"
           transform="translate(193.3301,202.02)"><path
             d="m 0,0 c 21.06,68.65 61.13,110.11 61.13,110.11 v 47.7 l -73.74,60.55 64.89,58.17 c 17.63,15.81 44.37,15.71 61.88,-0.23 l 6.92,-6.3 c 15.98,-14.56 40.42,-14.56 56.41,0 l 6.92,6.3 c 13.69,12.46 33.02,15.24 49.23,8.3"
             style="fill:none;stroke:#000000;stroke-width:15;stroke-linecap:round;stroke-linejoin:round;stroke-miterlimit:10;stroke-dasharray:none;stroke-opacity:1"
             id="path2133" /></g><g
           id="g2135"
           transform="translate(450.7803,468.5298)"><path
             d="m 0,0 53.72,-48.15 -73.741,-60.55 v -47.7 c 0,0 73.741,-76.3 73.741,-193.25 0,0 -64.18,-23.43 -161.89,-23.43 -8.79,0 -17.31,0.19 -25.53,0.54"
             style="fill:none;stroke:#000000;stroke-width:15;stroke-linecap:round;stroke-linejoin:round;stroke-miterlimit:10;stroke-dasharray:none;stroke-opacity:1"
             id="path2137" /></g><g
           id="g2139"
           transform="translate(421.0146,198.6914)"><path
             d="M 0,0 C 5.191,-27.68 9.119,-60.265 9.68,-96.764"
             style="fill:none;stroke:#000000;stroke-width:15;stroke-linecap:round;stroke-linejoin:round;stroke-miterlimit:10;stroke-dasharray:none;stroke-opacity:1"
             id="path2141" /></g><g
           id="g2143"
           transform="translate(456.5098,183.0874)"><path
             d="M 0,0 C 4.13,-22 7.46,-47.1 8.931,-74.8"
             style="fill:none;stroke:#000000;stroke-width:15;stroke-linecap:round;stroke-linejoin:round;stroke-miterlimit:10;stroke-dasharray:none;stroke-opacity:1"
             id="path2145" /></g><g
           id="g2147"
           transform="translate(254.46,359.8311)"><path
             d="M 0,0 V 46.537"
             style="fill:none;stroke:#000000;stroke-width:15;stroke-linecap:round;stroke-linejoin:round;stroke-miterlimit:10;stroke-dasharray:none;stroke-opacity:1"
             id="path2149" /></g><g
           id="g2151"
           transform="translate(430.7637,359.8311)"><path
             d="M 0,0 V 46.537"
             style="fill:none;stroke:#000000;stroke-width:15;stroke-linecap:round;stroke-linejoin:round;stroke-miterlimit:10;stroke-dasharray:none;stroke-opacity:1"
             id="path2153" /></g><g
           id="g2155"
           transform="translate(430.7637,312.1245)"><path
             d="M 0,0 C -58.325,-10.18 -117.973,-10.18 -176.298,0"
             style="fill:none;stroke:#000000;stroke-width:15;stroke-linecap:round;stroke-linejoin:round;stroke-miterlimit:10;stroke-dasharray:none;stroke-opacity:1"
             id="path2157" /></g><g
           id="g2159"
           transform="translate(112.5996,201.6802)"><path
             d="m 0,0 c 56.5,1.24 112.99,0.37 169.49,-2.58 16.21,-0.84 29.521,-13.14 31.571,-29.24 4.939,-38.61 4.939,-77.22 0,-115.83 -2.05,-16.1 -15.361,-28.4 -31.571,-29.25 -79.769,-4.16 -159.54,-4.16 -239.309,0 -16.21,0.85 -29.521,13.15 -31.58,29.25 -4.931,38.61 -4.931,77.22 0,115.83 2.059,16.1 15.37,28.4 31.58,29.24 13.29,0.69 26.59,1.27 39.88,1.73"
             style="fill:none;stroke:#000000;stroke-width:15;stroke-linecap:round;stroke-linejoin:round;stroke-miterlimit:10;stroke-dasharray:none;stroke-opacity:1"
             id="path2161" /></g><g
           id="g2163"
           transform="translate(222.96,87.1299)"><path
             d="m 0,0 c 19.71,0.52 39.41,1.3 59.12,2.33 16.21,0.84 29.53,13.13 31.58,29.23 1.1,8.53 1.94,17.06 2.55,25.58"
             style="fill:none;stroke:#000000;stroke-width:15;stroke-linecap:round;stroke-linejoin:round;stroke-miterlimit:10;stroke-dasharray:none;stroke-opacity:1"
             id="path2165" /></g><g
           id="g2167"
           transform="translate(8.6396,144.27)"><path
             d="m 0,0 c 0.63,-8.52 1.471,-17.05 2.561,-25.58 2.049,-16.1 15.359,-28.39 31.58,-29.23 22.529,-1.18 45.069,-2.03 67.599,-2.55"
             style="fill:none;stroke:#000000;stroke-width:15;stroke-linecap:round;stroke-linejoin:round;stroke-miterlimit:10;stroke-dasharray:none;stroke-opacity:1"
             id="path2169" /></g><g
           id="g2171"
           transform="translate(202.8193,63.1938)"><path
             d="m 0,0 c -24.107,-1.319 -48.215,-1.319 -72.322,0 -10.551,0.577 -18.962,8.928 -19.811,19.46 -1.165,14.456 -1.165,28.912 0,43.367 0.849,10.532 9.26,18.883 19.811,19.46 24.107,1.319 48.215,1.319 72.322,0 10.551,-0.577 18.962,-8.928 19.811,-19.46 1.165,-14.455 1.165,-28.911 0,-43.367 C 18.962,8.928 10.551,0.577 0,0 Z"
             style="fill:none;stroke:#000000;stroke-width:15;stroke-linecap:round;stroke-linejoin:round;stroke-miterlimit:10;stroke-dasharray:none;stroke-opacity:1"
             id="path2173" /></g><g
           id="g2175"
           transform="translate(166.6592,88.8521)"><path
             d="m 0,0 c -9.865,0 -19.849,0.234 -29.747,0.697 -0.599,9.834 -0.599,19.744 0,29.576 9.898,0.463 19.882,0.698 29.747,0.698 9.863,0 19.847,-0.235 29.745,-0.698 0.599,-9.833 0.599,-19.743 0,-29.576 C 19.847,0.234 9.863,0 0,0 Z"
             style="fill:none;stroke:#000000;stroke-width:15;stroke-linecap:round;stroke-linejoin:round;stroke-miterlimit:10;stroke-dasharray:none;stroke-opacity:1"
             id="path2177" /></g><g
           id="g2179"
           transform="translate(282.085,199.1035)"><path
             d="m 0,0 c -6.742,68.34 -212.275,102.595 -212.275,173.644 0,71.048 107.845,53.281 92.619,-21.571 C -134.883,77.221 -247.306,52.188 -239.306,0"
             style="fill:none;stroke:#000000;stroke-width:15;stroke-linecap:round;stroke-linejoin:round;stroke-miterlimit:10;stroke-dasharray:none;stroke-opacity:1"
             id="path2181" /></g><g
           id="g2183"
           transform="translate(287.21,489.0674)"><path
             d="M 0,0 C 2.39,-11.25 21.12,-93.96 55.4,-105.97 89.68,-93.96 108.42,-11.25 110.81,0"
             style="fill:none;stroke:#000000;stroke-width:15;stroke-linecap:round;stroke-linejoin:round;stroke-miterlimit:10;stroke-dasharray:none;stroke-opacity:1"
             id="path2185" /></g></g></g></g></svg>
