<svg id="Layer_1" enable-background="new 0 0 512 512" viewBox="0 0 512 512" xmlns="http://www.w3.org/2000/svg"><g clip-rule="evenodd" fill-rule="evenodd"><path d="m128.918 326.527c0-34.439-28.021-62.455-62.459-62.455-1.597 0-3.192.082-4.784.204l-3.144.241-.084-3.152c-.048-1.789-.081-3.578-.081-5.367 0-44.391 14.672-87.061 42.104-121.944l6.121-7.784-1.112 14.212c-.215 2.741 1.828 5.173 4.577 5.392.137.011.275.014.413.014 2.602 0 4.758-2.011 4.966-4.603l2.264-28.171c.117-1.459-.409-2.901-1.444-3.937-1.033-1.035-2.481-1.567-3.938-1.45l-28.171 2.264c-2.745.22-4.807 2.64-4.589 5.385.217 2.737 2.642 4.8 5.378 4.581l15.129-1.211-4.499 5.462c-30.688 37.256-47.197 83.51-47.197 131.789 0 2.8.06 5.6.177 8.398l.093 2.246-2.13.72c-25.305 8.558-42.503 32.371-42.503 59.165 0 34.441 28.013 62.46 62.455 62.46 34.442.001 62.458-28.015 62.458-62.459zm127.08-195.963c-69.166 0-125.433 56.267-125.433 125.433 0 69.164 56.27 125.428 125.433 125.428 69.16 0 125.438-56.266 125.438-125.428-.001-69.164-56.276-125.433-125.438-125.433zm-70.53-1.651c-34.434 0-62.459-28.02-62.459-62.455 0-34.437 28.024-62.455 62.459-62.455 26.797 0 50.605 17.191 59.165 42.498l.72 2.129 2.246-.093c2.798-.116 5.599-.177 8.398-.177 48.286 0 94.53 16.51 131.795 47.197l5.467 4.502-1.22-15.124c-.222-2.749 1.845-5.159 4.59-5.381 2.74-.222 5.161 1.845 5.38 4.584l2.259 28.171c.117 1.463-.417 2.899-1.453 3.937-.934.935-2.206 1.464-3.527 1.464-.134 0-.268-.003-.401-.014l-28.181-2.264c-2.742-.22-4.796-2.645-4.579-5.385.217-2.739 2.643-4.801 5.381-4.581l14.248 1.147-7.814-6.146c-34.879-27.433-77.558-42.104-121.944-42.104-1.791 0-3.582.029-5.372.077l-3.161.084.251 3.153c.127 1.59.212 3.184.212 4.78 0 34.436-28.026 62.456-62.46 62.456zm268.086 121.714c.053 1.79.081 3.58.081 5.371 0 44.391-14.679 87.059-42.108 121.944l-6.145 7.816 1.146-14.249c.22-2.74-1.839-5.161-4.579-5.382-2.737-.22-5.172 1.839-5.391 4.579l-2.259 28.181c-.117 1.46.419 2.892 1.453 3.927.942.943 2.203 1.473 3.537 1.473.134 0 .268-.008.401-.019l28.167-2.264c2.747-.221 4.816-2.641 4.594-5.39-.222-2.75-2.645-4.796-5.392-4.576l-15.115 1.212 4.499-5.463c30.684-37.256 47.197-83.513 47.197-131.789 0-2.804-.07-5.607-.177-8.408l-.085-2.239 2.122-.717c25.311-8.56 42.498-32.371 42.498-59.17 0-34.441-28.018-62.459-62.459-62.459-34.436 0-62.46 28.023-62.46 62.459s28.023 62.459 62.46 62.459c1.601 0 3.201-.081 4.797-.199l3.127-.231zm-127.017 132.45c34.435 0 62.45 28.026 62.45 62.459s-28.015 62.459-62.45 62.459c-26.798 0-50.605-17.201-59.17-42.504l-.719-2.125-2.241.089c-2.801.111-5.605.168-8.408.168-48.276 0-94.535-16.501-131.784-47.196l-5.467-4.505 1.22 15.136c.221 2.741-1.846 5.158-4.586 5.376-.137.011-.275.019-.413.019-2.605 0-4.763-2-4.971-4.598l-2.259-28.181c-.117-1.457.413-2.894 1.445-3.929s2.475-1.57 3.932-1.453l28.171 2.264c2.742.22 4.807 2.635 4.589 5.379-.219 2.74-2.635 4.807-5.377 4.587l-14.244-1.146 7.81 6.144c34.877 27.439 77.547 42.104 121.935 42.104 1.787 0 3.573-.029 5.359-.072l3.143-.075-.223-3.136c-.113-1.599-.2-3.202-.2-4.806-.002-34.437 28.018-62.458 62.458-62.458z" fill="#cf9756"/><path d="m186.845 62.459h-2.759c-4.542 0-8.311-3.772-8.311-8.315s3.769-8.311 8.311-8.311h3.882c2.669 0 5.178 1.31 6.741 3.472 1.295 1.791 3.792 2.19 5.583.895 1.794-1.297 2.184-3.793.889-5.585-2.155-2.983-5.275-5.161-8.811-6.169l-2.903-.828v-3.849c0-2.211-1.787-4.004-3.999-4.004-2.214 0-4.004 1.79-4.004 4.004v4.024l-2.693.931c-6.554 2.265-10.994 8.466-10.994 15.42 0 8.993 7.315 16.314 16.309 16.314h2.759c4.54 0 8.311 3.77 8.311 8.311 0 4.543-3.769 8.311-8.311 8.311h-3.882c-2.669 0-5.175-1.304-6.74-3.465-1.296-1.79-3.792-2.198-5.584-.901-1.794 1.297-2.185 3.797-.89 5.589 2.154 2.98 5.274 5.16 8.808 6.165l2.906.826v3.856c0 2.214 1.791 3.999 4.004 3.999 2.211 0 3.999-1.788 3.999-3.999v-4.023l2.692-.931c6.557-2.269 10.995-8.467 10.995-15.425.001-8.994-7.316-16.312-16.308-16.312zm267.95 108.823h-25.064l5.389-6.543c3.767-4.573 9.048-7.772 15.086-7.772 6.892 0 12.76 4.126 16.562 9.645 1.255 1.822 3.75 2.282 5.572 1.027 1.819-1.254 2.273-3.741 1.021-5.56-5.348-7.77-13.559-13.115-23.155-13.115-12.365 0-22.148 8.94-26.796 19.882l-1.035 2.436h-8.019c-2.207 0-3.999 1.792-3.999 3.999 0 2.204 1.795 3.999 3.999 3.999h5.927l-.162 4.156c-.026.676-.044 1.352-.044 2.028s.018 1.353.044 2.028l.162 4.155h-5.927c-2.207 0-3.999 1.792-3.999 3.999s1.793 3.999 3.999 3.999h8.019l1.035 2.436c4.648 10.942 14.431 19.882 26.796 19.882 9.596 0 17.808-5.344 23.154-13.115 1.251-1.818.804-4.309-1.018-5.563-1.824-1.254-4.32-.788-5.575 1.034-3.801 5.518-9.671 9.645-16.562 9.645-6.039 0-11.32-3.204-15.086-7.777l-5.389-6.543h25.065c2.206 0 3.999-1.792 3.999-3.999s-1.792-3.999-3.999-3.999h-26.362l-.267-3.713c-.059-.822-.09-1.646-.09-2.471 0-.824.031-1.648.09-2.47l.267-3.713h26.362c2.204 0 3.999-1.795 3.999-3.999 0-2.206-1.792-3.998-3.999-3.998zm-137.789 292.268c.516-2.762.775-5.565.893-8.371l.161-3.832h14.254c2.213 0 4.004-1.785 4.004-3.999 0-2.216-1.788-4.004-4.004-4.004h-14.46l-.136-3.859c-.13-3.689-.234-7.377-.234-11.069 0-6.644 5.399-12.041 12.042-12.041 4.327 0 8.323 2.362 10.464 6.117 1.09 1.911 3.54 2.581 5.451 1.49 1.912-1.093 2.596-3.536 1.501-5.452-3.564-6.239-10.224-10.152-17.416-10.152-11.052 0-20.04 8.987-20.04 20.039 0 3.602.099 7.2.215 10.799l.133 4.129h-5.989c-2.209 0-3.999 1.795-3.999 4.004 0 2.207 1.792 3.999 3.999 3.999h6.277l-.231 4.219c-.334 6.092-1.467 11.573-4.538 16.896-.807 1.399-.695 3.156.288 4.438.984 1.282 2.639 1.853 4.201 1.434 12.056-3.232 26.286-3.234 38.342 0 .339.091.692.142 1.043.142 1.807 0 3.389-1.228 3.857-2.974.569-2.124-.71-4.323-2.832-4.892-9.268-2.483-19.411-3.169-28.97-2.341l-5.243.454zm-273.832-141.763c0 2.212 1.793 3.999 4.004 3.999h15.277v11.297h-15.277c-2.212 0-4.004 1.792-4.004 4.004s1.793 3.999 4.004 3.999h15.277v12.438c0 2.207 1.798 3.999 4.004 3.999 2.211 0 3.999-1.788 3.999-3.999v-12.438h15.291c2.211 0 3.999-1.788 3.999-3.999s-1.787-4.004-3.999-4.004h-15.291v-11.297h15.291c2.211 0 3.999-1.788 3.999-3.999s-1.788-3.999-3.999-3.999h-15.143l18.376-19.514c1.509-1.603 1.45-4.143-.156-5.656-1.61-1.517-4.141-1.435-5.658.173l-16.711 17.716-16.701-17.717c-1.516-1.608-4.047-1.688-5.657-.172-1.606 1.513-1.671 4.052-.161 5.656l18.376 19.514h-15.136c-2.211 0-4.004 1.787-4.004 3.999zm156.706-115.372c-.266-.049-.539-.098-.807-.132-7.571-.96-17.441.792-21.877 7.713-3.335 5.203-2.122 11.289.996 16.302 2.923 4.7 6.965 10.603 12.035 13.176 5.218 2.648 10.985 1.41 16.196-.606 2.862-1.108 6.1-2.225 9.213-1.866 2.68.309 4.743 1.606 6.983 2.991 6.471 4 11.441 5.97 19.169 6.713 2.885.277 5.08 1.829 6.976 3.935 2.123 2.358 3.983 5.384 5.675 8.069 1.558 2.472 3.108 4.935 4.839 7.292 1.839 2.503 3.765 5.234 5.204 7.994l2.157 4.135-4.415 1.502c-.238.081-.478.152-.719.226-4.284 1.332-8.199 2.78-11.583 5.867-5.174 4.719-6.787 11.487-6.885 18.268l-.006.429-.097.418c-.67 2.887-1.527 5.992-2.914 8.626-.914 1.735-1.929 2.975-3.251 4.391-3.935 4.217-5.381 7.636-6.58 13.334l-2.086 9.912-5.249-8.664c-1.618-2.671-2.005-6.345-2.395-9.394-.556-4.34-1.178-8.352-2.603-12.521-1.987-5.81-5.156-10.971-9.067-15.684l-.053-.064-.05-.066c-3.751-4.922-4.121-8.782-4.168-14.67-.027-3.379-.096-6.646-1.341-9.845-1.674-4.304-5.094-7.294-9.014-9.56-4.65-2.689-9.018-5.726-13.098-9.222-3.099-2.655-5.915-5.502-8.745-8.431-8.048-8.327-13.317-12.998-25.745-13.369l-4.925-.147 1.157-4.79c8.364-34.631 32.381-63.653 64.7-78.521l1.013-.466 1.108.126c12.459 1.41 27.634 10.782 32.831 22.411 3.203 7.167 1.959 13.953-2.895 20.028l-.113.141-.125.13c-10.436 10.885-24.412 16.636-39.446 13.889zm141.66 121.789c-8.636-8.815-20.668-22.619-22.328-35.349-1.133-8.686 2.623-14.596 7.274-21.446 4.974-7.325 9.252-14.203 5.428-23.221-3.701-8.727-8.634-12.327-16.553-16.792-7.292-4.112-12.026-7.503-17.043-14.49-3.415-4.757-7.536-12.38-4.181-18.1 2.405-4.1 8.405-6.4 12.723-7.533 5.319-1.396 11.051-1.954 16.533-2.168 8.92-.348 18.006.203 26.879 1.1l1.888.191 1.046 1.583c12.587 19.045 19.231 41.189 19.231 64.019 0 26.157-8.725 51.326-24.896 71.88l-2.815 3.578zm-156.072-208.289c-29.477 0-53.461-23.978-53.461-53.457s23.984-53.456 53.461-53.456c29.478 0 53.456 23.978 53.456 53.456.001 29.479-23.978 53.457-53.456 53.457zm260.069 12.087c29.485 0 53.461 23.976 53.461 53.461s-23.976 53.461-53.461 53.461c-29.48 0-53.461-23.98-53.461-53.461s23.98-53.461 53.461-53.461zm-65.553 313.535c0 29.476-23.967 53.461-53.447 53.461-29.478 0-53.461-23.983-53.461-53.461s23.983-53.461 53.461-53.461c29.479 0 53.447 23.984 53.447 53.461zm-313.526-65.553c-29.479 0-53.452-23.979-53.452-53.456 0-29.478 23.974-53.452 53.452-53.452 29.483 0 53.457 23.969 53.457 53.452 0 29.481-23.974 53.456-53.457 53.456z" fill="#fed96d"/><path d="m91.894 301.016-12.027 12.772h5.882c4.419 0 7.999 3.58 7.999 7.999s-3.58 7.999-7.999 7.999h-11.291v3.297h11.291c4.419 0 7.999 3.584 7.999 8.004 0 4.419-3.58 7.999-7.999 7.999h-11.291v8.438c0 4.419-3.58 7.999-7.999 7.999-4.41 0-8.004-3.58-8.004-7.999v-8.438h-11.277c-4.419 0-8.004-3.58-8.004-7.999s3.585-8.004 8.004-8.004h11.277v-3.297h-11.277c-4.419 0-8.004-3.58-8.004-7.999s3.585-7.999 8.004-7.999h5.876l-12.027-12.772c-3.033-3.212-2.882-8.282.33-11.31 3.216-3.028 8.277-2.877 11.31.34l13.791 14.63 13.8-14.63c3.028-3.217 8.089-3.367 11.31-.34 3.208 3.028 3.359 8.098.326 11.31zm-25.436 74.968c27.28 0 49.457-22.186 49.457-49.456s-22.177-49.452-49.457-49.452c-27.271 0-49.452 22.181-49.452 49.452.001 27.269 22.182 49.456 49.452 49.456zm65.46-49.457c0-36.09-29.36-65.455-65.459-65.455-1.684 0-3.353.085-5.014.212-.047-1.764-.08-3.533-.08-5.287 0-43.981 14.602-85.934 41.462-120.09l-.34 4.339c-.359 4.405 2.929 8.263 7.329 8.617.222.014.429.024.651.024 4.127 0 7.631-3.174 7.956-7.362l2.264-28.171c.188-2.339-.66-4.641-2.311-6.297-1.66-1.66-3.971-2.509-6.301-2.32l-28.171 2.264c-4.41.349-7.688 4.207-7.339 8.612s4.212 7.692 8.608 7.334l8.075-.646c-30.982 37.613-47.881 84.481-47.881 133.697 0 2.835.061 5.683.179 8.523-25.87 8.749-44.542 33.237-44.542 62.007 0 36.1 29.359 65.459 65.454 65.459 36.1 0 65.46-29.36 65.46-65.46zm225.03 150.011c-.962 3.58-4.193 5.938-7.721 5.938-.689 0-1.392-.09-2.08-.278-11.352-3.042-24.912-3.042-36.269 0-3.122.84-6.443-.292-8.41-2.863-1.971-2.561-2.202-6.061-.58-8.872 2.679-4.646 3.698-9.438 4.009-15.116h-2.052c-4.41 0-7.999-3.58-7.999-7.999 0-4.424 3.589-8.004 7.999-8.004h1.858c-.108-3.358-.217-7.027-.217-10.928 0-13.258 10.777-24.039 24.04-24.039 8.603 0 16.602 4.66 20.889 12.168 2.188 3.83.849 8.721-2.99 10.909-3.83 2.193-8.721.849-10.909-2.981-1.439-2.528-4.122-4.099-6.99-4.099-4.429 0-8.042 3.599-8.042 8.041 0 3.858.109 7.452.231 10.928h10.598c4.424 0 8.004 3.58 8.004 8.004 0 4.419-3.58 7.999-8.004 7.999h-10.418c-.128 3.038-.41 6.009-.958 8.938 10.239-.887 20.908-.071 30.35 2.462 4.27 1.142 6.802 5.528 5.661 9.792zm-30.411 18.46c27.27 0 49.447-22.191 49.447-49.461s-22.177-49.461-49.447-49.461-49.461 22.191-49.461 49.461c-.001 27.27 22.19 49.461 49.461 49.461zm0-114.921c36.09 0 65.45 29.369 65.45 65.459s-29.36 65.459-65.45 65.459c-28.78 0-53.258-18.682-62.012-44.542-2.849.113-5.688.17-8.528.17-49.211 0-96.083-16.889-133.692-47.881l.651 8.074c.349 4.401-2.929 8.258-7.339 8.607-.222.019-.434.028-.651.028-4.132 0-7.631-3.165-7.961-7.358l-2.259-28.181c-.189-2.33.66-4.627 2.311-6.287 1.66-1.66 3.966-2.514 6.297-2.325l28.171 2.264c4.41.349 7.692 4.207 7.339 8.608-.349 4.41-4.207 7.692-8.607 7.339l-4.339-.349c34.147 26.865 76.1 41.462 120.08 41.462 1.759 0 3.528-.028 5.287-.071-.118-1.66-.208-3.33-.208-5.019 0-36.087 29.36-65.457 65.46-65.457zm111.67-212.795h16.588c4.41 0 7.999 3.58 7.999 7.999 0 4.414-3.589 7.999-7.999 7.999h-22.639c-.052.721-.08 1.448-.08 2.184s.028 1.462.08 2.184h22.639c4.41 0 7.999 3.58 7.999 7.999s-3.589 7.999-7.999 7.999h-16.588c3.216 3.905 7.447 6.32 11.999 6.32 4.971 0 9.81-2.886 13.268-7.914 2.514-3.641 7.494-4.561 11.135-2.061 3.636 2.504 4.556 7.485 2.047 11.126-6.49 9.438-16.13 14.847-26.45 14.847-13.31 0-24.86-9.093-30.478-22.318h-5.372c-4.41 0-7.999-3.58-7.999-7.999s3.589-7.999 7.999-7.999h1.769c-.028-.722-.047-1.453-.047-2.184s.019-1.462.047-2.184h-1.769c-4.41 0-7.999-3.585-7.999-7.999 0-4.419 3.589-7.999 7.999-7.999h5.372c5.617-13.225 17.168-22.318 30.478-22.318 10.319 0 19.96 5.41 26.45 14.847 2.509 3.637 1.589 8.617-2.047 11.121-3.641 2.509-8.622 1.585-11.135-2.052-3.457-5.032-8.296-7.914-13.268-7.914-4.551 0-8.782 2.41-11.999 6.316zm7.33 67.642c27.28 0 49.461-22.186 49.461-49.461s-22.181-49.461-49.461-49.461c-27.271 0-49.461 22.186-49.461 49.461 0 27.276 22.19 49.461 49.461 49.461zm65.459-49.461c0-36.095-29.36-65.459-65.459-65.459-36.09 0-65.459 29.365-65.459 65.459 0 36.095 29.369 65.459 65.459 65.459 1.689 0 3.358-.085 5.018-.208.052 1.759.08 3.523.08 5.282 0 43.976-14.607 85.929-41.467 120.09l.349-4.339c.358-4.405-2.929-8.263-7.329-8.612-4.4-.359-8.263 2.929-8.622 7.329l-2.259 28.181c-.18 2.33.66 4.627 2.32 6.287 1.509 1.514 3.537 2.354 5.66 2.354.208 0 .42-.009.642-.028l28.167-2.264c4.41-.359 7.692-4.207 7.343-8.622-.363-4.396-4.202-7.688-8.622-7.324l-8.06.646c30.982-37.618 47.881-84.49 47.881-133.697 0-2.835-.071-5.679-.179-8.523 25.87-8.748 44.537-33.231 44.537-62.011zm-347.219-131.319c0-8.881 5.731-16.451 13.687-19.201v-1.174c0-4.419 3.58-8.004 8.004-8.004 4.419 0 7.999 3.584 7.999 8.004v.83c4.348 1.24 8.249 3.915 10.956 7.674 2.594 3.58 1.792 8.579-1.787 11.168-3.58 2.589-8.579 1.788-11.169-1.792-.821-1.137-2.132-1.816-3.5-1.816h-3.882c-2.33 0-4.311 1.972-4.311 4.311s1.981 4.315 4.311 4.315h2.759c11.202 0 20.309 9.112 20.309 20.309 0 8.881-5.726 16.451-13.687 19.205v1.174c0 4.419-3.58 7.999-7.999 7.999-4.424 0-8.004-3.58-8.004-7.999v-.835c-4.349-1.236-8.249-3.915-10.956-7.669-2.594-3.58-1.792-8.584 1.788-11.173s8.579-1.783 11.169 1.797c.825 1.137 2.132 1.811 3.5 1.811h3.882c2.33 0 4.311-1.971 4.311-4.311 0-2.335-1.981-4.311-4.311-4.311h-2.759c-11.202.002-20.31-9.111-20.31-20.312zm21.691-37.142c-27.27 0-49.461 22.186-49.461 49.456s22.191 49.457 49.461 49.457 49.456-22.186 49.456-49.457-22.185-49.456-49.456-49.456zm0 114.911c-36.09 0-65.459-29.364-65.459-65.454 0-36.095 29.369-65.454 65.459-65.454 28.78 0 53.258 18.672 62.007 44.537 2.844-.118 5.693-.179 8.523-.179 49.221 0 96.078 16.899 133.701 47.881l-.651-8.065c-.354-4.405 2.929-8.258 7.339-8.612 4.401-.358 8.258 2.929 8.612 7.334l2.259 28.171c.189 2.339-.66 4.641-2.32 6.297-1.5 1.509-3.542 2.344-5.65 2.344-.222 0-.429-.005-.641-.024l-28.181-2.264c-4.401-.349-7.678-4.207-7.329-8.612s4.212-7.688 8.612-7.334l4.339.349c-34.151-26.86-76.114-41.462-120.09-41.462-1.75 0-3.523.028-5.292.075.132 1.66.222 3.33.222 5.018 0 36.09-29.37 65.454-65.46 65.454zm158.93 193.492c-12.942-13.211-20.083-24.318-21.219-33.067-.981-7.485 2.538-12.673 6.617-18.682 4.74-6.98 10.631-15.663 5.801-27.03-4.678-11.055-11.9-15.125-18.271-18.715-5.339-3.014-10.39-5.863-15.758-13.338-1.99-2.773-6.372-9.664-3.98-13.744 1.127-1.919 8.881-11.032 52.282-6.645 11.73 17.748 18.568 38.995 18.568 61.814-.001 26.166-8.99 50.277-24.04 69.407zm-200.831-69.407c0 61.998 50.437 112.426 112.43 112.426 30.067 0 57.418-11.857 77.618-31.157-16.229-16.399-24.638-30.142-26.299-42.858-1.769-13.508 4.589-22.889 9.24-29.737 4.509-6.65 5.561-8.867 4.32-11.796-2.57-6.042-5.891-7.919-11.409-11.027-5.999-3.387-13.461-7.598-20.889-17.937-8.202-11.4-9.895-22.474-4.792-31.175 6.782-11.565 23.969-16.706 52.291-15.583-20.413-20.719-48.773-33.59-80.081-33.59-7.81 0-15.432.802-22.79 2.325 8.956 5.466 16.489 13.131 20.21 21.441 5.018 11.239 3.316 22.88-4.783 32.779-.118.146-.25.292-.377.434-14.022 14.795-31.972 21.073-50.541 17.677l-.259-.047c-5.693-.693-9.424 1.151-10.159 2.307-.321.5.127 1.934 1.089 3.481 6.528 10.494 7.91 9.966 13.697 7.716 13.343-5.16 19.79-2.245 26.841 2.108 3.58 2.212 6.971 4.306 14.003 4.98 11.291 1.08 16.795 9.829 21.658 17.55 1.391 2.193 2.82 4.467 4.372 6.584 6.589 8.98 10.527 16.328 8.339 22.993-2.061 6.264-7.943 8.098-12.22 9.428-6.301 1.957-10.088 3.136-10.051 13.498.009.59-.062 1.179-.189 1.759-2.542 11.517-5.712 15.63-9.282 19.46-1.731 1.858-2.679 2.877-3.716 8.098-.033.132-.061.25-.094.382-1.49 5.938-6.438 10.928-12.31 12.399-1.155.292-2.32.429-3.457.429-3.74 0-7.301-1.518-9.971-4.358-5.839-5.792-6.688-12.503-7.452-18.422-.83-6.541-1.698-13.3-9.088-22.158-.061-.08-.118-.16-.189-.231-6.65-8.622-6.711-16.371-6.763-22.035-.038-5.485-.047-6.627-4.358-9.117-12.291-7.103-19.04-14.093-24.46-19.705-6.65-6.881-9.782-10.121-19.639-9.768-.32 3.443-.49 6.923-.49 10.447zm65.611-102.21c11.791 1.335 25.28 10.343 29.628 20.068 2.49 5.579 1.722 10.782-2.368 15.899-10.14 10.579-22.861 15.097-35.84 12.725-.472-.085-.811-.141-1.023-.165-11.027-1.401-21.139 2.335-25.747 9.522-3.811 5.947-3.462 13.446.967 20.573 8.57 13.772 16.734 20.512 33.072 14.187 6.98-2.703 8.301-1.891 12.65.797 4.282 2.646 10.14 6.263 20.889 7.291 3.132.307 5.348 3.325 9.65 10.154 1.533 2.429 3.113 4.948 4.999 7.527 2.632 3.57 4.085 5.948 4.882 7.476-.207.071-.42.132-.618.193-6.843 2.127-20.974 6.523-21.28 27.898-1.741 7.499-3.339 9.221-5.193 11.192-3.08 3.316-5.787 6.768-7.57 15.239-.957-1.58-1.316-3.731-1.849-7.829-.958-7.542-2.278-17.861-12.56-30.251-3.278-4.301-3.311-7.65-3.349-12.277-.052-6.655-.132-15.767-12.352-22.837-10.348-5.98-15.989-11.819-20.969-16.97-7.24-7.494-13.668-14.145-28.501-14.588 8.148-33.744 31.561-61.599 62.482-75.824zm46.82-26.223c70.817 0 128.438 57.611 128.438 128.433 0 70.817-57.621 128.428-128.438 128.428-70.822 0-128.433-57.611-128.433-128.428 0-70.822 57.611-128.433 128.433-128.433z" fill="#5e362a"/></g></svg>