<svg id="Layer_1" viewBox="0 0 128 128" xmlns="http://www.w3.org/2000/svg" data-name="Layer 1"><path d="m79.16669 34.83331v9.16669h.83331a6.00656 6.00656 0 0 1 6 6v12h4a6.00656 6.00656 0 0 1 6 6v19.5h20.66669v-52.5z" fill="#e1ebf4"/><path d="m0 114v8s5.75-1.25 10.25 1.91667 11.83333 1.33333 18.25-1.25 16.08333 5.33333 20.75 4 14.75-7.5 21.83333-3.16667 14.41667.66667 18.75-.66667 14.75 1 19.5 3.08333 13.33334-5.24999 18.66667-3.91666v-8s-8.66667-.5-14.75 3.16667-14.08333-3.66667-18.25-3.08334-10.91667 5.83334-18.41667 3.91667-12.25-5.66667-19.83333-2.58333-11.83333 2.83333-15.16667.58333-11.75-2.66667-17.41667.16667-7.25 3-12.75.33333a27.5957 27.5957 0 0 0 -11.41666-2.5z" fill="#81d9e3"/><path d="m126 118a16.61847 16.61847 0 0 0 -8.66895 2.22266 14.03 14.03 0 0 1 -13.66943 0 18.016 18.016 0 0 0 -17.3374 0 14.02344 14.02344 0 0 1 -13.666 0 16.61584 16.61584 0 0 0 -8.66799-2.22266 16.60976 16.60976 0 0 0 -8.665 2.22266 12.69719 12.69719 0 0 1 -6.8306 1.77734 12.70156 12.70156 0 0 1 -6.832-1.77734 16.61706 16.61706 0 0 0 -8.66751-2.22266 16.61443 16.61443 0 0 0 -8.6665 2.22266 12.69778 12.69778 0 0 1 -6.83106 1.77734 12.69967 12.69967 0 0 1 -6.83154-1.77734 16.60913 16.60913 0 0 0 -8.66602-2.22266 2 2 0 0 0 0 4 12.69778 12.69778 0 0 1 6.83105 1.77734 16.61443 16.61443 0 0 0 8.66651 2.22266 16.60913 16.60913 0 0 0 8.666-2.22266 12.69967 12.69967 0 0 1 6.83156-1.77734 12.70345 12.70345 0 0 1 6.83252 1.77734 16.61177 16.61177 0 0 0 8.66699 2.22266 16.60509 16.60509 0 0 0 8.66553-2.22314 12.70127 12.70127 0 0 1 6.83007-1.77686 12.704 12.704 0 0 1 6.833 1.77734 18.01215 18.01215 0 0 0 17.33545 0 14.02907 14.02907 0 0 1 13.66895 0 18.016 18.016 0 0 0 17.3374 0 12.71029 12.71029 0 0 1 6.83497-1.77734 2 2 0 0 0 0-4z" fill="#0f423c" opacity=".3"/><g fill="#2d4356"><path d="m90 47h4a2 2 0 0 0 0-4h-4a2 2 0 0 0 0 4z"/><path d="m102 47h4a2 2 0 0 0 0-4h-4a2 2 0 0 0 0 4z"/><path d="m90 55h4a2 2 0 0 0 0-4h-4a2 2 0 0 0 0 4z"/><path d="m102 55h4a2 2 0 0 0 0-4h-4a2 2 0 0 0 0 4z"/><path d="m102 63h4a2 2 0 0 0 0-4h-4a2 2 0 0 0 0 4z"/><path d="m102 71h4a2 2 0 0 0 0-4h-4a2 2 0 0 0 0 4z"/><path d="m88.27747 62h1.72253a5.96314 5.96314 0 0 1 3.30957 1h.69043a2 2 0 0 0 0-4h-4a2.0001 2.0001 0 0 0 -2 2 1.97966 1.97966 0 0 0 .27747 1z"/></g><path d="m16.392 111.9541c.33618.0271.69312.0459 1.10553.0459a8.85207 8.85207 0 0 0 4.99561-1.33105 20.56487 20.56487 0 0 1 10.50198-2.66895 20.567 20.567 0 0 1 10.5 2.667 8.857 8.857 0 0 0 4.99951 1.333 8.85151 8.85151 0 0 0 4.99512-1.33105 20.55538 20.55538 0 0 1 10.50048-2.66895 20.56507 20.56507 0 0 1 10.50244 2.668 10.04536 10.04536 0 0 0 9.99658.00049 22.00745 22.00745 0 0 1 21.00684-.00049 10.0511 10.0511 0 0 0 10.00049 0 26.82322 26.82322 0 0 1 3.3269-1.49664c.93752-5.13083 2.9618-13.50089 6.17652-20.17136l-1.875-.875h-90.5l-11.125-10.25-18.25.125s-3.875 8.25 1.625 15.875c5.036 6.98175 11.10205 12.4964 11.517 18.0791z" fill="#d68751"/><path d="m126 112a16.61847 16.61847 0 0 0 -8.66895 2.22266 14.03 14.03 0 0 1 -13.66943 0 18.016 18.016 0 0 0 -17.3374 0 14.02344 14.02344 0 0 1 -13.666 0 16.61584 16.61584 0 0 0 -8.66799-2.22266 16.60976 16.60976 0 0 0 -8.665 2.22266 12.69719 12.69719 0 0 1 -6.8306 1.77734 12.70156 12.70156 0 0 1 -6.832-1.77734 16.61706 16.61706 0 0 0 -8.66751-2.22266 16.61443 16.61443 0 0 0 -8.6665 2.22266 12.69778 12.69778 0 0 1 -6.83106 1.77734 12.69967 12.69967 0 0 1 -6.83154-1.77734 16.60913 16.60913 0 0 0 -8.66602-2.22266 2 2 0 0 0 0 4 12.69778 12.69778 0 0 1 6.83105 1.77734 16.61443 16.61443 0 0 0 8.66651 2.22266 16.60913 16.60913 0 0 0 8.666-2.22266 12.69967 12.69967 0 0 1 6.83156-1.77734 12.70345 12.70345 0 0 1 6.83252 1.77734 16.61177 16.61177 0 0 0 8.66699 2.22266 16.60509 16.60509 0 0 0 8.66553-2.22314 12.70127 12.70127 0 0 1 6.83007-1.77686 12.704 12.704 0 0 1 6.833 1.77734 18.01215 18.01215 0 0 0 17.33545 0 14.02907 14.02907 0 0 1 13.66895 0 18.016 18.016 0 0 0 17.3374 0 12.71029 12.71029 0 0 1 6.83497-1.77734 2 2 0 0 0 0-4z" fill="#2d4356"/><path d="m126 120a16.61847 16.61847 0 0 0 -8.66895 2.22266 14.03 14.03 0 0 1 -13.66943 0 18.016 18.016 0 0 0 -17.3374 0 14.02344 14.02344 0 0 1 -13.666 0 16.61584 16.61584 0 0 0 -8.66799-2.22266 16.60976 16.60976 0 0 0 -8.665 2.22266 12.69719 12.69719 0 0 1 -6.8306 1.77734 12.70156 12.70156 0 0 1 -6.832-1.77734 16.61706 16.61706 0 0 0 -8.66751-2.22266 16.61443 16.61443 0 0 0 -8.6665 2.22266 12.69778 12.69778 0 0 1 -6.83106 1.77734 12.69967 12.69967 0 0 1 -6.83154-1.77734 16.60913 16.60913 0 0 0 -8.66602-2.22266 2 2 0 0 0 0 4 12.69778 12.69778 0 0 1 6.83105 1.77734 16.61443 16.61443 0 0 0 8.66651 2.22266 16.60913 16.60913 0 0 0 8.666-2.22266 12.69967 12.69967 0 0 1 6.83156-1.77734 12.70345 12.70345 0 0 1 6.83252 1.77734 16.61177 16.61177 0 0 0 8.66699 2.22266 16.60509 16.60509 0 0 0 8.66553-2.22314 12.70127 12.70127 0 0 1 6.83007-1.77686 12.704 12.704 0 0 1 6.833 1.77734 18.01215 18.01215 0 0 0 17.33545 0 14.02907 14.02907 0 0 1 13.66895 0 18.016 18.016 0 0 0 17.3374 0 12.71029 12.71029 0 0 1 6.83497-1.77734 2 2 0 0 0 0-4z" fill="#2d4356"/><path d="m52 95a7 7 0 1 0 7 7 7.00771 7.00771 0 0 0 -7-7zm0 10a3 3 0 1 1 3-3 3.00883 3.00883 0 0 1 -3 3z" fill="#2d4356"/><circle cx="52" cy="102" fill="#e1ebf4" r="3"/><path d="m72 95a7 7 0 1 0 7 7 7.00771 7.00771 0 0 0 -7-7zm0 10a3 3 0 1 1 3-3 3.00883 3.00883 0 0 1 -3 3z" fill="#2d4356"/><circle cx="72" cy="102" fill="#e1ebf4" r="3"/><path d="m127.74 87.02a1.993 1.993 0 0 0 -1.74-1.02h-2v-8a2.00587 2.00587 0 0 0 -2-2h-4v-40.03l8.74-6.9a2.00532 2.00532 0 0 0 .76-1.57v-8.5a2.00587 2.00587 0 0 0 -2-2h-4.5v-8a2.00587 2.00587 0 0 0 -2-2h-15v-5a2 2 0 0 0 -4 0v5h-4v-2a2 2 0 0 0 -4 0v2h-16a2.00587 2.00587 0 0 0 -2 2v8h-4.5a2.00587 2.00587 0 0 0 -2 2v8.5a2.00532 2.00532 0 0 0 .76 1.57l8.74 6.9v8.03h3a6.63937 6.63937 0 0 1 1 .09v-7.09h33v39h-14a2.00587 2.00587 0 0 0 -2 2v8h-6v-18a2.00587 2.00587 0 0 0 -2-2h-8v-16a2.00587 2.00587 0 0 0 -2-2h-8v-9a2.00587 2.00587 0 0 0 -2-2h-40a2.00587 2.00587 0 0 0 -2 2v9h-8a2.00587 2.00587 0 0 0 -2 2v16h-8a2.00587 2.00587 0 0 0 -2 2v8h-5.07a1.99867 1.99867 0 0 0 -1.88 1.31c-.05.13-4.71 13.3 6.4 22.65a16.94783 16.94783 0 0 1 6.37 11.36 8.32217 8.32217 0 0 0 3.68.68c.13 0 .25-.01.37-.01-.13-3.32-1.34-9.63-7.84-15.1a16.29024 16.29024 0 0 1 -5.6-8.89h15.54a2 2 0 1 0 0-4h-15.99a18.40463 18.40463 0 0 1 .46-4h16.53a2.031 2.031 0 0 1 1.42.59l8.02 8.1a5.2394 5.2394 0 0 0 4.11 1.31h88.04q-1.35 2.505-2.38 4.88h-23.18a2 2 0 0 0 0 4h21.58a60.80445 60.80445 0 0 0 -3.07 11.78 22.895 22.895 0 0 1 4.41-1.84 62.60748 62.60748 0 0 1 7.79-19.78 2.0004 2.0004 0 0 0 .03-2.02zm-49.74-35.02v14h-16v-14zm-26-11h16v7h-16zm6 11v14h-16v-14zm-26-11h16v7h-16zm-4 39.57-2.77-2.79a6.03513 6.03513 0 0 0 -4.26-1.78h-8.97v-6h16zm-6-14.57v-14h16v14zm26 20h-13.49a3.1612 3.1612 0 0 1 -1.26-.12l-1.25-1.27v-14.61h16zm20 0h-16v-16h16zm20 0h-16v-16h16zm-10-75h39v6h-39zm1.69 22-8.19-6.47v-5.53h52v5.53l-8.19 6.47zm40.31 53h-18v-6h18z" fill="#2d4356"/><path d="m78 11h39v6h-39z" fill="#ffdb80"/><path d="m123.5 21v5.53l-8.19 6.47h-35.62l-8.19-6.47v-5.53z" fill="#d68751"/><path d="m102 80h18v6h-18z" fill="#ffdb80"/><path d="m28 70v10.57l-2.77-2.79a6.03513 6.03513 0 0 0 -4.26-1.78h-8.97v-6z" fill="#fc785e"/><path d="m22 52h16v14h-16z" fill="#ffdb80"/><path d="m32 41h16v7h-16z" fill="#fc785e"/><path d="m52 41h16v7h-16z" fill="#ffdb80"/><path d="m42 52h16v14h-16z" fill="#fc785e"/><path d="m62 52h16v14h-16z" fill="#ffdb80"/><path d="m72 70h16v16h-16z" fill="#ffdb80"/><path d="m52 70h16v16h-16z" fill="#fc785e"/><path d="m48 70v16h-13.49a3.1612 3.1612 0 0 1 -1.26-.12l-1.25-1.27v-14.61z" fill="#ffdb80"/><path d="m32 95a6.99465 6.99465 0 0 0 -2.97 13.33 23.21678 23.21678 0 0 1 3.97-.33c.86 0 1.64.05 2.38.12a6.99378 6.99378 0 0 0 -3.38-13.12zm0 10a3 3 0 1 1 3-3 3.00883 3.00883 0 0 1 -3 3z" fill="#2d4356"/><circle cx="32" cy="102" fill="#e1ebf4" r="3"/><path d="m55 102a3 3 0 0 1 -6 0 2.77187 2.77187 0 0 1 .18-1 2.98811 2.98811 0 0 0 5.64 0 2.77187 2.77187 0 0 1 .18 1z" fill="#9fa5aa" opacity=".5"/><path d="m75 102a3 3 0 0 1 -6 0 2.77187 2.77187 0 0 1 .18-1 2.98811 2.98811 0 0 0 5.64 0 2.77187 2.77187 0 0 1 .18 1z" fill="#9fa5aa" opacity=".5"/><path d="m123.5 24.53v2l-8.19 6.47h-35.62l-8.19-6.47v-2l8.19 6.47h35.62z" fill="#72492d" opacity=".4"/><path d="m71.5 21h52v2h-52z" fill="#e5d0c3" opacity=".3"/><path d="m78 11h39v2h-39z" fill="#f9edd2" opacity=".5"/><path d="m32 41h16v2h-16z" fill="#f9dbd7" opacity=".3"/><path d="m52 41h16v2h-16z" fill="#f9edd2" opacity=".5"/><path d="m62 52h16v2h-16z" fill="#f9edd2" opacity=".5"/><path d="m42 52h16v2h-16z" fill="#f9dbd7" opacity=".3"/><path d="m22 52h16v2h-16z" fill="#f9edd2" opacity=".5"/><path d="m12 70h16v2h-16z" fill="#f9dbd7" opacity=".3"/><path d="m32 70h16v2h-16z" fill="#f9edd2" opacity=".5"/><path d="m52 70h16v2h-16z" fill="#f9dbd7" opacity=".3"/><path d="m72 70h16v2h-16z" fill="#f9edd2" opacity=".5"/><path d="m102 80h18v2h-18z" fill="#f9edd2" opacity=".5"/><path d="m122.56 90c-.36.67-.71 1.34-1.03 2h-87.01a5.2394 5.2394 0 0 1 -4.11-1.31l-8.02-8.1a2.031 2.031 0 0 0 -1.42-.59h-16.53a19.05925 19.05925 0 0 0 -.34 2h-.12a18.40463 18.40463 0 0 1 .46-4h16.53a2.031 2.031 0 0 1 1.42.59l8.02 8.1a5.2394 5.2394 0 0 0 4.11 1.31z" fill="#e5d0c3" opacity=".3"/><path d="m35 102a3 3 0 0 1 -6 0 2.77187 2.77187 0 0 1 .18-1 2.98811 2.98811 0 0 0 5.64 0 2.77187 2.77187 0 0 1 .18 1z" fill="#9fa5aa" opacity=".5"/></svg>