<svg height="512" viewBox="0 0 60 60" width="512" xmlns="http://www.w3.org/2000/svg"><g id="Page-1" fill="none" fill-rule="evenodd"><g id="033---Air-Carrier" fill-rule="nonzero"><g id="Icons" transform="translate(1 1)"><path id="Shape" d="m6.729 58h46.271c.5522847 0 1-.4477153 1-1v-1.586c.0000566-.2651948.1054506-.5195073.293-.707l3.414-3.414c.1875494-.1874927.2929434-.4418052.293-.707v-2.586c0-.5522847-.4477153-1-1-1h-56c-.3650826-.0001525-.70123429.1986625-.87695862.5186724-.17572433.3200098-.16309079.7103504.03295862 1.0183276l5.727 9c.18403295.2891026.50329347.4638279.846.463z" fill="#e8edfc"/><path id="Shape" d="m57 47h-3c.5522847 0 1 .4477153 1 1v2.586c-.0000566.2651948-.1054506.5195073-.293.707l-3.414 3.414c-.1875494.1874927-.2929434.4418052-.293.707v1.586c0 .5522847-.4477153 1-1 1h3c.5522847 0 1-.4477153 1-1v-1.586c.0000566-.2651948.1054506-.5195073.293-.707l3.414-3.414c.1875494-.1874927.2929434-.4418052.293-.707v-2.586c0-.5522847-.4477153-1-1-1z" fill="#cad9fc"/><path id="Shape" d="m2 43h14v3c0 .5522847-.4477153 1-1 1h-12c-.55228475 0-1-.4477153-1-1z" fill="#a4c2f7" transform="matrix(-1 0 0 -1 18 90)"/><path id="Shape" d="m5 37h8v5c0 .5522847-.4477153 1-1 1h-6c-.55228475 0-1-.4477153-1-1z" fill="#a4c2f7" transform="matrix(-1 0 0 -1 18 80)"/><circle id="Oval" cx="39" cy="19" fill="#a4c2f7" r="19"/><path id="Shape" d="m39 0c-.506 0-1 .037-1.5.076 9.8781364.77398056 17.4992499 9.01558824 17.4992499 18.924 0 9.9084118-7.6211135 18.1500194-17.4992499 18.924.5.039.994.076 1.5.076 10.4934101-.0000002 18.9999997-8.5065899 18.9999997-19 0-10.49341014-8.5065896-18.99999984-18.9999997-19z" fill="#7facfa"/><g fill="#e8edfc"><path id="Shape" d="m43 10.71v18.82c.0006263.3090143-.0713035.6138597-.21.89l-1.51 3.03c-.1710655.3395038-.5198431.5526457-.9.55h-2.76c-.3801569.0026457-.7289345-.2104962-.9-.55l-1.51-3.03c-.1386965-.2761403-.2106263-.5809857-.21-.89v-18.82c-.0020684-.5832694.0995101-1.16226716.3-1.71h7.4c.2004899.54773284.3020684 1.1267306.3 1.71z"/><path id="Shape" d="m42.7 9h-7.4c.1395799-.37250968.3207245-.72808997.54-1.06l2.33-3.49c.1826305-.28090255.4949476-.4503705.83-.4503705s.6473695.16946795.83.4503705l2.33 3.49c.2192755.33191003.4004201.68749032.54 1.06z"/><path id="Shape" d="m52.95 20.66-.55 1.66c-.1411508.4046466-.5214529.6768629-.95.68h-8.45v-11l9.62 7.56c.3282914.2621993.4597482.7003888.33 1.1z"/><path id="Shape" d="m49.27 27.49-1.59 1.06c-.3974027.2621051-.9244844.2077237-1.26-.13l-3.42-3.42v-2h5l1.61 3.21c.2226439.4516627.0774284.9983565-.34 1.28z"/><path id="Shape" d="m35 12v11h-8.45c-.4285471-.0031371-.8088492-.2753534-.95-.68l-.55-1.66c-.1297482-.3996112.0017086-.8378007.33-1.1z"/><path id="Shape" d="m35 23v2l-3.42 3.42c-.3355156.3377237-.8625973.3921051-1.26.13l-1.59-1.06c-.4174284-.2816435-.5626439-.8283373-.34-1.28l1.61-3.21z"/></g></g><g id="Icons_copy_2" fill="#fff" transform="translate(1 1)"><path id="Shape" d="m5.885 57.537c.18365202.2885021.50200367.4631429.844.463l3 .0000001c-.34199633.0001428-.66034798-.174498-.844-.4630001l-5.727-9c-.19585763-.307675-.20867257-.6975802-.03344041-1.0174517.17523217-.3198716.51071615-.5189715.87544041-.5195483h1v-3c0-.5522847.44771525-1 1-1h2v-5c0-.5522847.44771525-1 1-1h-3c-.55228475 0-1 .4477153-1 1v5h-2c-.55228475 0-1 .4477153-1 1v3h-1c-.3650826-.0001525-.70123429.1986625-.87695862.5186724-.17572433.3200098-.16309079.7103504.03295862 1.0183276z"/><path id="Shape" d="m20 19c0 10.4934102 8.5065898 19 19 19 .506 0 1-.037 1.5-.076-9.8781364-.7739806-17.4992499-9.0155882-17.4992499-18.924 0-9.90841176 7.6211135-18.15001944 17.4992499-18.924-.5-.039-.994-.076-1.5-.076-10.4934102 0-19 8.50658975-19 19z"/></g><g id="Icons_copy"><path id="Shape" d="m21.758 11.828 1.824.818c-1.0420324 2.311686-1.58126 4.8183101-1.582 7.354h-2c.0004991-2.8177774.5997314-5.6032876 1.758-8.172z" fill="#fff"/><g fill="#428dff"><path id="Shape" d="m58 47h-40v-2c0-1.1045695-.8954305-2-2-2h-1v-4c0-1.1045695-.8954305-2-2-2h-2v-2h1c.5522847 0 1-.4477153 1-1s-.4477153-1-1-1h-1v-2c.5522847 0 1-.4477153 1-1s-.4477153-1-1-1c0-.5522847-.4477153-1-1-1-.55228475 0-1 .4477153-1 1-.55228475 0-1 .4477153-1 1s.44771525 1 1 1v2h-1c-.55228475 0-1 .4477153-1 1s.44771525 1 1 1h1v2h-2c-1.1045695 0-2 .8954305-2 2v4h-1c-1.1045695 0-2 .8954305-2 2v2c-.72980689.0004248-1.40144217.3983401-1.75239848 1.0382213s-.32550801 1.4201265.06639848 2.0357787l5.728 9c.36604795.57784 1.0029766.9274522 1.687.926h46.271c1.1045695 0 2-.8954305 2-2v-1.586l3.414-3.414c.3764121-.3741062.5874371-.8833028.586-1.414v-2.586c0-1.1045695-.8954305-2-2-2zm-51-8h6v4h-6zm-3 6h12v2h-12zm54 6h-50c-.55228475 0-1 .4477153-1 1s.44771525 1 1 1h48.586l-2 2c-.3764121.3741062-.5874371.8833028-.586 1.414v1.586h-46.271l-5.729-9h56z"/><path id="Shape" d="m21.446 17.026c-.5522847.0027614-1.0022385-.4427153-1.005-.995-.0027614-.5522847.4427153-1.0022386.995-1.005h.01c.5522847 0 1 .4477153 1 1s-.4477153 1-1 1z"/><path id="Shape" d="m40 0c-7.8790275.00738429-15.0203028 4.63774303-18.242 11.828-.1193242.2455782-.1297424.5300463-.0287015.783695.1010409.2536488.3042031.4530372.5597015.549305.4993183.1875085 1.0593325-.0355444 1.293-.515 3.7725555-8.38817118 13.2674854-12.57654855 22.0059293-9.70719498 8.7384438 2.86935357 13.9022746 11.87107848 11.967955 20.86285248-1.9343196 8.9917739-10.3429762 15.0737715-19.4883272 14.0959448-9.1453511-.9778267-16.078043-8.7001309-16.0675571-17.8976023 0-.5522847-.4477153-1-1-1s-1 .4477153-1 1c0 11.045695 8.954305 20 20 20s20-8.954305 20-20-8.954305-20-20-20z"/><path id="Shape" d="m43.992 8.383-2.328-3.492c-.3709464-.55631025-.9953579-.89044874-1.664-.89044874s-1.2930536.33413849-1.664.89044874l-2.328 3.492c-.6420038.99259537-.9913506 2.1459944-1.008 3.328v.8l-9.249 7.27c-.6524626.5245972-.9107464 1.399095-.648 2.194l.551 1.655c.27145.8178759 1.0362541 1.369921 1.898 1.37h1.83l-.882 1.763c-.4512571.9024116-.1596942 1.9996313.68 2.559l1.583 1.055c.793353.5290148 1.8498413.4243706 2.524-.25l1.713-1.713v2.114c.0005215.4657063.108669.924991.316 1.342l1.513 3.03c.3385618.6771006 1.0319813 1.1034625 1.789 1.1h2.764c.7570187.0034625 1.4504382-.4228994 1.789-1.1l1.513-3.026c.1841483-.426434.2911413-.8821697.316-1.346v-2.114l1.713 1.713c.6741587.6743706 1.730647.7790148 2.524.25l1.583-1.055c.8396942-.5593687 1.1312571-1.6565884.68-2.559l-.882-1.763h1.83c.8616854.0012125 1.6272771-.5496106 1.9-1.367l.551-1.655c.2626616-.797954.0019066-1.6751113-.654-2.2l-9.245-7.264v-.8c-.0165726-1.1829539-.3659026-2.33733726-1.008-3.331zm-8.992 17.203-3.127 3.127-1.583-1.055 1.328-2.658h3.382zm0-7.2-1.447.723c-.4942949.2468713-.6948713.8477051-.448 1.342s.8477051.6948713 1.342.448l.553-.281v2.382h-7.448l-.558-1.649 8.006-6.293zm5-12.386 2 3h-4zm3 24h-3c-.5522847 0-1 .4477153-1 1s.4477153 1 1 1h2.382l-1 2h-2.764l-1.518-3.024c-.0667066-.139876-.1008938-.2930346-.1-.448v-18.817c.002478-.2386397.0262389-.4765827.071-.711h5.858c.0452515.2343459.0690167.4723333.071.711zm5.127-1.287-3.127-3.127v-.586h3.382l1.329 2.658zm4.873-7.368-.552 1.655h-7.448v-2.382l.553.277c.4942949.2468713 1.0951287.0462949 1.342-.448s.0462949-1.0951287-.448-1.342l-1.447-.723v-3.324z"/><path id="Shape" d="m40 13c-.5522847 0-1 .4477153-1 1v1c0 .5522847.4477153 1 1 1s1-.4477153 1-1v-1c0-.5522847-.4477153-1-1-1z"/></g></g></g></g></svg>