<svg id="Capa_1" enable-background="new 0 0 512 512" height="512" viewBox="0 0 512 512" width="512" xmlns="http://www.w3.org/2000/svg"><g><path d="m256 19.805-226 134.298v281.897h226 226v-281.897z" fill="#ff9100"/><path d="m482 154.103-226-134.298v416.195h226z" fill="#ff641a"/><path d="m256 0-256 152.065 15.205 25.87 240.795-143.13 240.795 143.13 15.205-25.87z" fill="#575f64"/><path d="m512 152.065-256-152.065v34.805l240.795 143.13z" fill="#474f54"/><path d="m256 120h-75v30h75 75v-30z" fill="#ff641a"/><path d="m256 120h75v30h-75z" fill="#f03800"/><path d="m361 270h-105-105l-30 30v136h135 135v-136z" fill="#575f64"/><path d="m391 300-30-30h-105v166h135z" fill="#474f54"/><path d="m361 210h-105-105l-30 30v60h135 135v-60z" fill="#cfdde2"/><path d="m391 240-30-30h-105v90h135z" fill="#b6c4cf"/><path d="m256 180h-135v60h135 135v-60z" fill="#ececf1"/><path d="m256 180h135v60h-135z" fill="#cfdde2"/><path d="m256 421h-256v30h256 30v-30z" fill="#57d9ad"/><path d="m256 421h30v30h-30z" fill="#26bfa6"/><path d="m391 361h-120v151h120 121v-151z" fill="#ffda2d"/><path d="m391 361h121v151h-121z" fill="#fdbf00"/></g></svg>