<svg id="Outline" viewBox="0 0 512 512" xmlns="http://www.w3.org/2000/svg"><g id="Outline-2" data-name="Outline"><path d="m54 193h28.27c11.97 0 21.71-9.74 21.71-21.71v-77.43h7.99c14.97 0 23.23-17.38 13.8-28.99l-40.85-50.29c-8.69-10.71-25.03-10.69-33.71.02l-40.75 50.29c-9.42 11.63-1.14 28.97 13.81 28.97h8.03v77.43c0 11.97 9.74 21.71 21.71 21.71zm-29.73-111.14c-4.86 0-7.55-5.64-4.49-9.42l40.75-50.29c3.88-4.79 11.19-4.8 15.08 0l40.85 50.29c3.07 3.78.38 9.42-4.49 9.42h-13.99c-3.31 0-6 2.69-6 6v83.43c0 5.35-4.35 9.71-9.71 9.71h-28.27c-5.35 0-9.71-4.35-9.71-9.71v-83.43c0-3.31-2.69-6-6-6h-14.03z"/><path d="m204.22 177.64c-9.24 10.08-21.5 11.67-32.81 4.25-2.77-1.82-6.49-1.05-8.31 1.72s-1.05 6.49 1.72 8.31c16.27 10.68 35.18 8.06 48.24-6.17 2.24-2.44 2.07-6.24-.37-8.48s-6.24-2.07-8.48.37z"/><path d="m256 324c-14.34 0-26 11.66-26 26v72c0 14.34 11.66 26 26 26s26-11.66 26-26v-72c0-14.34-11.66-26-26-26zm14 98c0 7.72-6.28 14-14 14s-14-6.28-14-14v-72c0-7.72 6.28-14 14-14s14 6.28 14 14z"/><path d="m158 324c-14.34 0-26 11.66-26 26v72c0 14.34 11.66 26 26 26s26-11.66 26-26v-72c0-14.34-11.66-26-26-26zm14 98c0 7.72-6.28 14-14 14s-14-6.28-14-14v-72c0-7.72 6.28-14 14-14s14 6.28 14 14z"/><path d="m328 350v72c0 14.34 11.66 26 26 26s26-11.66 26-26v-72c0-14.34-11.66-26-26-26s-26 11.66-26 26zm40 0v72c0 7.72-6.28 14-14 14s-14-6.28-14-14v-72c0-7.72 6.28-14 14-14s14 6.28 14 14z"/><path d="m476 219h-45.39c8.9-23.01 8.85-22.64 9.77-26h17.61c11.97 0 21.71-9.74 21.71-21.71v-77.43h8.03c14.96 0 23.23-17.36 13.81-28.97l-40.76-50.29c-8.69-10.72-25.03-10.71-33.71-.02-44.34 54.59-41.31 50.75-42.23 52.25l-43.57-16.85c-8.71-3.37-18.54.98-21.9 9.69l-8.43 21.8-31.66 32.4c-4.73 4.85-8.37 10.51-10.82 16.82l-9.66 24.98c-16.76-12.3-37.68-14.66-56-7.29.34-13.93-2.69-27.43-8.92-39.52-5.15-9.99-18.01-12.94-26.92-6.17l-9.7 7.36c-8.5 6.45-9.35 18.53-2.58 26.29 5.83 6.67 8.62 12.61 9.6 21.09-1.49.09-2.95.16-4.39.18-31.53.52-57.42 26.14-57.8 61.4h-66.09c-16.54 0-30 13.46-30 30v19c0 16.54 13.46 30 30 30h2.33l5.44 21.74-29.03 29.03c-7.02 7.02-7.02 18.44 0 25.46l14.38 14.38c7.03 7.03 18.42 7.04 25.46 0l5.14-5.14 20.44 81.65c6.03 24.07 27.57 40.89 52.38 40.89h246.91c24.82 0 46.36-16.81 52.38-40.89l20.44-81.65 5.14 5.14c7.03 7.03 18.42 7.04 25.46 0l14.38-14.38c7.02-7.02 7.02-18.44 0-25.46l-29.03-29.03 5.44-21.74h2.33c16.54 0 30-13.46 30-30v-19c0-16.54-13.46-30-30-30zm-39.61-196.85c3.88-4.78 11.19-4.79 15.08 0l40.76 50.29c3.06 3.78.37 9.42-4.49 9.42h-14.03c-3.31 0-6 2.69-6 6v83.43c0 5.35-4.35 9.71-9.71 9.71h-15.82c.1-3.87.15-1.71-3.76-50.4l8.38-21.67c3.38-8.73-.96-18.52-9.69-21.9l-40.65-15.72 39.94-49.17zm-105.83 41.85c.98-2.54 3.84-3.8 6.38-2.82l95.83 37.05c2.54.98 3.8 3.84 2.82 6.38l-6.71 17.35-105.03-40.61zm73.61 103.11 23.22-23.77s2.7 33.65 2.71 33.79l-25.93-10.03zm24.73 22.43c-.82 3.05-.91 2.97-11.16 29.47h-36.95l16.17-41.82zm-111.28-97.73 104.05 40.23-29.67 30.37-104.05-40.23zm-36.77 40.49 104.91 40.56-17.84 46.15h-81.37c.69-21.77-5.78-40.97-18.21-54.72 12.28-31.76 11.51-29.92 12.51-31.99zm-117.14-3.86c-2.34-2.68-2-6.71.79-8.83l9.7-7.36c3.04-2.31 7.31-1.19 9.01 2.11 5.99 11.62 8.49 24.81 7.33 38.37-4.66 1.36-9.52 2.47-14.37 3.29-1.3-10.86-5.11-19.19-12.46-27.59zm-3.63 41.17c14.91-.25 32.72-4 46.46-9.8 31.24-13.18 69.76 10.63 68 59.2h-160.46c.38-28.43 20.74-48.98 46-49.4zm-113.99 210.52c-2.34 2.34-6.14 2.35-8.49 0l-14.38-14.38c-2.34-2.34-2.34-6.15 0-8.49l97.03-97.03c2.34-2.34 6.15-2.34 8.49 0l14.38 14.38c2.34 2.34 2.34 6.15 0 8.49zm4.6-82.12h14.82l-11.85 11.85zm369.5 164.2c-4.69 18.72-21.44 31.8-40.74 31.8h-246.91c-19.3 0-36.06-13.08-40.74-31.8l-22.19-88.63 75.57-75.57h221.63l75.57 75.57zm68.58-104.94c2.34 2.34 2.34 6.15 0 8.49l-14.38 14.38c-2.34 2.34-6.13 2.35-8.49 0l-97.03-97.03c-2.34-2.34-2.34-6.15 0-8.49l14.38-14.38c2.34-2.34 6.15-2.34 8.49 0zm-42.29-59.26h14.82l-2.97 11.85zm47.52-30c0 9.93-8.08 18-18 18h-41.52l-34.26-34.26c-7.03-7.03-18.42-7.04-25.46 0l-14.38 14.38c-5.37 5.37-6.61 13.3-3.77 19.88h-201.24c2.84-6.58 1.59-14.51-3.77-19.88l-14.38-14.38c-7.03-7.03-18.42-7.04-25.46 0l-34.26 34.26h-41.52c-9.92 0-18-8.07-18-18v-19c0-9.93 8.08-18 18-18h440c9.92 0 18 8.07 18 18v19z"/><path d="m233 88h8c8.27 0 15-6.73 15-15v-7h7c8.27 0 15-6.73 15-15v-8c0-8.27-6.73-15-15-15h-7v-7c0-8.27-6.73-15-15-15h-8c-8.27 0-15 6.73-15 15v7h-7c-8.27 0-15 6.73-15 15v8c0 8.27 6.73 15 15 15h7v7c0 8.27 6.73 15 15 15zm-22-34c-1.65 0-3-1.35-3-3v-8c0-1.65 1.35-3 3-3h13c3.31 0 6-2.69 6-6v-13c0-1.65 1.35-3 3-3h8c1.65 0 3 1.35 3 3v13c0 3.31 2.69 6 6 6h13c1.65 0 3 1.35 3 3v8c0 1.65-1.35 3-3 3h-13c-3.31 0-6 2.69-6 6v13c0 1.65-1.35 3-3 3h-8c-1.65 0-3-1.35-3-3v-13c0-3.31-2.69-6-6-6z"/></g></svg>