<?xml version="1.0" encoding="UTF-8"?>
<svg xmlns="http://www.w3.org/2000/svg" viewBox="0 0 512 512" width="512" height="512"><g id="line_xpand_copy" data-name="line xpand copy"><rect x="96" y="136" width="320" height="272" fill="#f2e6c7"/><path d="M416,360v48H96V136h72V296a63.982,63.982,0,0,0,64,64Z" fill="#f2d8a5"/><rect x="24" y="408" width="464" height="80" fill="#eaab6c"/><path d="M488,456v32H24V408H96v16a31.991,31.991,0,0,0,32,32Z" fill="#db8a42"/><path d="M128,200h0a32,32,0,0,1-32-32V136h64v32A32,32,0,0,1,128,200Zm160-32V136H224v32a32,32,0,0,0,32,32h0A32,32,0,0,0,288,168Zm128,0V136H352v32a32,32,0,0,0,32,32h0A32,32,0,0,0,416,168ZM160,72H112L96,136h64Zm128,0H224v64h64Zm112,0H352v64h64Zm0-48H112V72H400Z" fill="#ea4450"/><path d="M155.84,183.76A31.994,31.994,0,0,1,96,168V136h24v16a31.991,31.991,0,0,0,32,32A30.93,30.93,0,0,0,155.84,183.76ZM280,184a31.991,31.991,0,0,1-32-32V136H224v32a31.994,31.994,0,0,0,59.84,15.76A30.93,30.93,0,0,1,280,184ZM129.92,80.24,132,72H112L96,136h64V119.92A31.956,31.956,0,0,1,129.92,80.24ZM280,120a31.991,31.991,0,0,1-32-32V72H224v64h64V120Zm132,0h-4a31.991,31.991,0,0,1-32-32V72H352v64h64ZM192,48a31.933,31.933,0,0,1-30.96-24H112V72H400V48Z" fill="#ce293d"/><path d="M192,200h0a32,32,0,0,1-32-32V136h64v32A32,32,0,0,1,192,200Zm160-32V136H288v32a32,32,0,0,0,32,32h0A32,32,0,0,0,352,168ZM224,72H160v64h64Zm128,0H288v64h64ZM240,248H144V408h96Zm136,16H280v64h96Z" fill="#92d7ef"/><path d="M219.84,183.76A31.994,31.994,0,0,1,160,168V136h24v16a31.991,31.991,0,0,0,32,32A30.93,30.93,0,0,0,219.84,183.76ZM344,184a31.991,31.991,0,0,1-32-32V136H288v32a31.994,31.994,0,0,0,59.84,15.76A30.93,30.93,0,0,1,344,184ZM216,120a31.991,31.991,0,0,1-32-32V72H160v64h64V120Zm128,0a31.991,31.991,0,0,1-32-32V72H288v64h64V120ZM232,360a63.982,63.982,0,0,1-64-64V248H144V408h96V360Zm112-64a31.991,31.991,0,0,1-32-32H280v64h96V296Z" fill="#54c4e2"/><path d="M488,200c0,48.6-88,144-88,144s-88-95.4-88-144a88,88,0,0,1,176,0Z" fill="#fbb03b"/><path d="M440.8,294.64C419.84,322.48,400,344,400,344s-88-95.36-88-144a87.889,87.889,0,0,1,75.36-87.04A87.111,87.111,0,0,0,368,168C368,203.76,415.6,264.88,440.8,294.64Z" fill="#f7931e"/><circle cx="400" cy="200" r="40" fill="#f2e6c7"/><path d="M399.12,239.92a39.924,39.924,0,0,1-30.48-64.72C371.36,193.84,384.16,217.52,399.12,239.92Z" fill="#f2d8a5"/><path d="M488,400H424V328.578C451.76,295.4,496,236.767,496,200a95.71,95.71,0,0,0-79.363-94.412L408,71.028V24a8,8,0,0,0-8-8H312a8,8,0,0,0-8,8h0a8,8,0,0,0,8,8h80V64H120V32H280a8,8,0,0,0,8-8h0a8,8,0,0,0-8-8H112a8,8,0,0,0-8,8V71.027L88.236,134.084,88,136V400H24a8,8,0,0,0-8,8v80a8,8,0,0,0,8,8H488a8,8,0,0,0,8-8V408A8,8,0,0,0,488,400Zm-8-200c0,23.742-25.555,67.672-70.109,120.52-3.907,4.621-7.289,8.519-9.907,11.5-4.3-4.864-10.6-12.168-17.773-20.985A548.208,548.208,0,0,1,344.742,259.7C328.555,234.309,320,213.668,320,200v-.938a79.1,79.1,0,0,1,25.078-57.23,83.4,83.4,0,0,1,11.313-8.906A79.163,79.163,0,0,1,400,120a63.379,63.379,0,0,1,9.023.559c.079.011.157.023.235.031A79.771,79.771,0,0,1,480,200ZM333.694,272A568.944,568.944,0,0,0,368,318.858V320H288V272Zm-28.682-85.34A23.888,23.888,0,0,1,296,168V144h26A94.552,94.552,0,0,0,305.012,186.66ZM280,168a24,24,0,0,1-48,0V144h48Zm-64,0a24,24,0,0,1-48,0V144h48Zm183.754-63.991A95.6,95.6,0,0,0,360,112.7V80h33.75ZM344,122.148q-3.819,2.757-7.352,5.852H296V80h48ZM280,128H232V80h48Zm-64,0H168V80h48Zm-64,0H106.247l12-48H152Zm-48,16h48v24a24,24,0,0,1-48,0Zm0,55.795a39.462,39.462,0,0,0,56-8.043,39.636,39.636,0,0,0,64,0,39.628,39.628,0,0,0,63.93.085,39.674,39.674,0,0,0,16.376,12.9c1.244,13.732,7.773,30.907,19.513,51.267H280a8,8,0,0,0-8,8v64a8,8,0,0,0,8,8h96a7.821,7.821,0,0,0,4.754-1.734c7.814,9.151,13.078,14.849,13.387,15.179A7.981,7.981,0,0,0,400,352h.016a8.015,8.015,0,0,0,5.875-2.582s.783-.856,2.109-2.332V400H248V248a8,8,0,0,0-8-8H144a8,8,0,0,0-8,8V400H104ZM232,400H152V256h80Zm248,80H32V416H480Z"/><path d="M184,432H120a8,8,0,0,0,0,16h64a8,8,0,0,0,0-16Z"/><path d="M368,440H320a8,8,0,0,0,0,16h48a8,8,0,0,0,0-16Z"/><path d="M353.453,188.4A46.711,46.711,0,0,0,352,200a48.052,48.052,0,0,0,48,48,48.585,48.585,0,0,0,19.141-3.922c.031-.016.062-.031.1-.047A48,48,0,0,0,400,152,47.72,47.72,0,0,0,353.453,188.4ZM432,200a32.232,32.232,0,0,1-19.195,29.383A32.557,32.557,0,0,1,400,232a32.034,32.034,0,0,1-32-32,30.773,30.773,0,0,1,.977-7.715A31.791,31.791,0,0,1,400,168a31.829,31.829,0,0,1,32,32Z"/></g></svg>
