<?xml version="1.0" encoding="UTF-8"?>
<svg xmlns="http://www.w3.org/2000/svg" xmlns:xlink="http://www.w3.org/1999/xlink" version="1.1" id="Capa_1" x="0px" y="0px" viewBox="0 0 512 512" style="enable-background:new 0 0 512 512;" xml:space="preserve" width="512" height="512">
<g id="Expense_4_">
	<g id="Color_8_">
		<g>
			<g>
				<g>
					<path style="fill:#FFE54E;" d="M227.253,231.555C256.9,208.699,276,172.83,276,132.5c0-69.036-55.964-125-125-125&#10;&#9;&#9;&#9;&#9;&#9;&#9;c-0.267,0-0.534,0.001-0.802,0.003L96.485,31.156L59,183.5l118.229,66.667L227.253,231.555z"/>
					<path style="fill:#FFDB2F;" d="M107.877,108.75c0-41.695,16.689-78.609,42.322-101.247C81.532,7.934,26,63.732,26,132.5&#10;&#9;&#9;&#9;&#9;&#9;&#9;c0,69.036,55.964,125,125,125c28.706,0,55.151-9.677,76.253-25.945c-5.747,1.237-11.66,1.883-17.697,1.883&#10;&#9;&#9;&#9;&#9;&#9;&#9;C153.4,233.438,107.877,177.613,107.877,108.75z"/>
				</g>
				<g>
					<path style="fill:#FECC29;" d="M172.723,225.004C214.722,215.18,246,177.493,246,132.5c0-52.467-42.533-95-95-95&#10;&#9;&#9;&#9;&#9;&#9;&#9;c-9.39,0-18.462,1.363-27.029,3.9L85.613,82.647l52.985,142.357L172.723,225.004z"/>
					<path style="fill:#FFBD1C;" d="M107.877,108.75c0-24.809,5.909-47.926,16.095-67.35C84.671,53.043,56,89.423,56,132.5&#10;&#9;&#9;&#9;&#9;&#9;&#9;c0,52.467,42.533,95,95,95c7.474,0,14.746-0.864,21.723-2.496C134.774,206.911,107.877,161.683,107.877,108.75z"/>
				</g>
			</g>
			<g>
				<g>
					<path style="fill:#FECC29;" d="M119.037,436.079L151,442.167l105-20c11.046,0,20-8.954,20-20v-42.333c0,0,0,0,0,0&#10;&#9;&#9;&#9;&#9;&#9;&#9;c0-11.046-8.954-20-20-20l-105-20l-31.963,6.088L46,381L119.037,436.079z"/>
					<path style="fill:#FFBD1C;" d="M119.037,325.921L46,339.833c-11.046,0-20,8.954-20,20v42.333c0,11.046,8.954,20,20,20&#10;&#9;&#9;&#9;&#9;&#9;&#9;l73.037,13.912c-11.334-14.201-18.321-33.639-18.321-55.079S107.703,340.122,119.037,325.921z"/>
				</g>
				<g>
					<path style="fill:#FFE54E;" d="M110.182,339.833H256c11.046,0,20-8.954,20-20V277.5c0-11.046-8.954-20-20-20H100.007&#10;&#9;&#9;&#9;&#9;&#9;&#9;L46,298.667L110.182,339.833z"/>
					<path style="fill:#FFDB2F;" d="M100.007,257.5H46c-11.046,0-20,8.954-20,20v42.333c0,11.046,8.954,20,20,20h64.182&#10;&#9;&#9;&#9;&#9;&#9;&#9;c-9.602-13.763-15.4-31.634-15.4-51.166C94.781,277.596,96.645,267.058,100.007,257.5z"/>
				</g>
				<g>
					<path style="fill:#FFE54E;" d="M120.357,504.5H256c11.046,0,20-8.954,20-20v-42.333c0-11.046-8.954-20-20-20H110.181&#10;&#9;&#9;&#9;&#9;&#9;&#9;L46,463.333L120.357,504.5z"/>
					<path style="fill:#FFDB2F;" d="M110.181,422.167H46c-11.046,0-20,8.954-20,20V484.5c0,11.046,8.954,20,20,20h74.357&#10;&#9;&#9;&#9;&#9;&#9;&#9;c-9.602-13.763-15.401-31.635-15.401-51.167C104.956,442.262,106.819,431.725,110.181,422.167z"/>
				</g>
			</g>
		</g>
		<g>
			<g>
				<path style="fill:#FD7A6E;" d="M429.168,486.411l54.245-60.272c5.792-6.435,1.225-16.69-7.433-16.69h-27.546V267.5&#10;&#9;&#9;&#9;&#9;&#9;c0-5.523-4.477-10-10-10h-25.59l-34.41,19.5v180L429.168,486.411z"/>
				<path style="fill:#FB695B;" d="M412.844,257.5h-34.41c-5.523,0-10,4.477-10,10v141.948h-27.546&#10;&#9;&#9;&#9;&#9;&#9;c-8.658,0-13.225,10.254-7.433,16.69l67.546,75.052c3.972,4.414,10.893,4.414,14.866,0l13.301-14.779&#10;&#9;&#9;&#9;&#9;&#9;c-25.904-28.815-42.171-70.421-42.171-116.687C386.996,334.143,396.618,283.87,412.844,257.5z"/>
			</g>
			<g>
				<path style="fill:#FB695B;" d="M438.434,174.167h-60c-5.523,0-10,4.477-10,10v32c0,5.523,4.477,10,10,10h60&#10;&#9;&#9;&#9;&#9;&#9;c5.523,0,10-4.477,10-10v-32C448.434,178.644,443.957,174.167,438.434,174.167z"/>
				<path style="fill:#FB695B;" d="M438.434,90.833h-60c-5.523,0-10,4.477-10,10v32c0,5.523,4.477,10,10,10h60&#10;&#9;&#9;&#9;&#9;&#9;c5.523,0,10-4.477,10-10v-32C448.434,95.31,443.957,90.833,438.434,90.833z"/>
				<path style="fill:#FB695B;" d="M438.434,7.5h-60c-5.523,0-10,4.477-10,10v32c0,5.523,4.477,10,10,10h60c5.523,0,10-4.477,10-10&#10;&#9;&#9;&#9;&#9;&#9;v-32C448.434,11.977,443.957,7.5,438.434,7.5z"/>
			</g>
		</g>
	</g>
	<g id="Lineal_92_">
		<g>
			<path style="fill:none;stroke:#000000;stroke-width:15;stroke-linecap:round;stroke-linejoin:round;stroke-miterlimit:10;" d="&#10;&#9;&#9;&#9;&#9;M38.343,78.272C30.433,94.675,26,113.07,26,132.5c0,69.036,55.964,125,125,125s125-55.964,125-125s-55.964-125-125-125&#10;&#9;&#9;&#9;&#9;c-37.03,0-70.299,16.102-93.188,41.687"/>
			
				<circle style="fill:none;stroke:#000000;stroke-width:15;stroke-linecap:round;stroke-linejoin:round;stroke-miterlimit:10;" cx="151" cy="132.5" r="95"/>
			<g>
				<path style="fill:none;stroke:#000000;stroke-width:15;stroke-linecap:round;stroke-linejoin:round;stroke-miterlimit:10;" d="&#10;&#9;&#9;&#9;&#9;&#9;M126,157.5c0,13.807,11.193,25,25,25s25-11.193,25-25s-11.193-25-25-25s-25-11.193-25-25s11.193-25,25-25s25,11.193,25,25"/>
				
					<line style="fill:none;stroke:#000000;stroke-width:15;stroke-linecap:round;stroke-linejoin:round;stroke-miterlimit:10;" x1="151" y1="82.5" x2="151" y2="67.5"/>
				
					<line style="fill:none;stroke:#000000;stroke-width:15;stroke-linecap:round;stroke-linejoin:round;stroke-miterlimit:10;" x1="151" y1="197.5" x2="151" y2="182.5"/>
			</g>
		</g>
		<g>
			<path style="fill:none;stroke:#000000;stroke-width:15;stroke-linecap:round;stroke-linejoin:round;stroke-miterlimit:10;" d="&#10;&#9;&#9;&#9;&#9;M256,339.833H46c-11.046,0-20-8.954-20-20V277.5c0-11.046,8.954-20,20-20h210c11.046,0,20,8.954,20,20v42.333&#10;&#9;&#9;&#9;&#9;C276,330.879,267.046,339.833,256,339.833z"/>
			<g>
				<path style="fill:none;stroke:#000000;stroke-width:15;stroke-linecap:round;stroke-linejoin:round;stroke-miterlimit:10;" d="&#10;&#9;&#9;&#9;&#9;&#9;M256,339.833c11.046,0,20,8.954,20,20v42.333c0,11.046-8.954,20-20,20"/>
				<path style="fill:none;stroke:#000000;stroke-width:15;stroke-linecap:round;stroke-linejoin:round;stroke-miterlimit:10;" d="&#10;&#9;&#9;&#9;&#9;&#9;M46,422.167c-11.046,0-20-8.954-20-20v-42.333c0-11.046,8.954-20,20-20"/>
			</g>
			<path style="fill:none;stroke:#000000;stroke-width:15;stroke-linecap:round;stroke-linejoin:round;stroke-miterlimit:10;" d="&#10;&#9;&#9;&#9;&#9;M256,504.5H46c-11.046,0-20-8.954-20-20v-42.333c0-11.046,8.954-20,20-20h210c11.046,0,20,8.954,20,20V484.5&#10;&#9;&#9;&#9;&#9;C276,495.546,267.046,504.5,256,504.5z"/>
		</g>
		<g>
			<g>
				<path style="fill:none;stroke:#000000;stroke-width:15;stroke-linecap:round;stroke-linejoin:round;stroke-miterlimit:10;" d="&#10;&#9;&#9;&#9;&#9;&#9;M448.434,327.5v-60c0-5.523-4.477-10-10-10h-60c-5.523,0-10,4.477-10,10v141.948h-27.546c-8.658,0-13.225,10.254-7.433,16.69&#10;&#9;&#9;&#9;&#9;&#9;l67.546,75.052c3.972,4.414,10.893,4.414,14.866,0l67.546-75.052c5.792-6.435,1.225-16.69-7.433-16.69h-27.546V362.5"/>
			</g>
			<path style="fill:none;stroke:#000000;stroke-width:15;stroke-linecap:round;stroke-linejoin:round;stroke-miterlimit:10;" d="&#10;&#9;&#9;&#9;&#9;M438.434,174.167h-60c-5.523,0-10,4.477-10,10v32c0,5.523,4.477,10,10,10h60c5.523,0,10-4.477,10-10v-32&#10;&#9;&#9;&#9;&#9;C448.434,178.644,443.957,174.167,438.434,174.167z"/>
			<path style="fill:none;stroke:#000000;stroke-width:15;stroke-linecap:round;stroke-linejoin:round;stroke-miterlimit:10;" d="&#10;&#9;&#9;&#9;&#9;M438.434,90.833h-60c-5.523,0-10,4.477-10,10v32c0,5.523,4.477,10,10,10h60c5.523,0,10-4.477,10-10v-32&#10;&#9;&#9;&#9;&#9;C448.434,95.31,443.957,90.833,438.434,90.833z"/>
			<path style="fill:none;stroke:#000000;stroke-width:15;stroke-linecap:round;stroke-linejoin:round;stroke-miterlimit:10;" d="&#10;&#9;&#9;&#9;&#9;M438.434,7.5h-60c-5.523,0-10,4.477-10,10v32c0,5.523,4.477,10,10,10h60c5.523,0,10-4.477,10-10v-32&#10;&#9;&#9;&#9;&#9;C448.434,11.977,443.957,7.5,438.434,7.5z"/>
		</g>
		<g>
			
				<line style="fill:none;stroke:#000000;stroke-width:15;stroke-linecap:round;stroke-linejoin:round;stroke-miterlimit:10;" x1="87.704" y1="372.387" x2="87.694" y2="384.264"/>
			
				<line style="fill:none;stroke:#000000;stroke-width:15;stroke-linecap:round;stroke-linejoin:round;stroke-miterlimit:10;" x1="214.305" y1="372.511" x2="214.296" y2="384.387"/>
			
				<line style="fill:none;stroke:#000000;stroke-width:15;stroke-linecap:round;stroke-linejoin:round;stroke-miterlimit:10;" x1="134.301" y1="389.584" x2="167.679" y2="389.613"/>
		</g>
	</g>
</g>















</svg>
