<svg id="Layer_1" viewBox="0 0 64 64" xmlns="http://www.w3.org/2000/svg" data-name="Layer 1"><path d="m5.306 20.052v40.948a1 1 0 0 0 1 1h51.388a1.006 1.006 0 0 0 .392-.08.989.989 0 0 0 .285-.193.919.919 0 0 0 .066-.074.978.978 0 0 0 .141-.21.753.753 0 0 0 .045-.095.973.973 0 0 0 .07-.348v-40.948a1 1 0 0 0 -1-1h-14.933v-6.052a11 11 0 0 0 -10.987-11 11 11 0 0 0 -10.986 11v6.055h-14.481a1 1 0 0 0 -1 .997zm47.168 37.33 2.732 2.618h-5.464zm4.22 1.275-3.22-3.086v-29.071a1 1 0 0 0 -2 0v29.071l-3.221 3.086v-37.6h8.441zm-28.5-39.6v-6.057a3.583 3.583 0 1 1 7.165 0v6.055zm-5.407-6.057a8.987 8.987 0 1 1 17.973 0v6.055h-3.405v-6.055a5.583 5.583 0 1 0 -11.165 0v6.055h-3.4zm-15.481 8.052h14.469.012 5.4.013 9.14.012 5.408.012 4.481v38.948h-38.947z"/><path d="m43.416 36.271a1 1 0 0 0 -.05-.246 1.009 1.009 0 0 0 -.046-.119c-.01-.021-.012-.044-.024-.064l-5.187-9.009a.965.965 0 0 0 -.1-.125c-.015-.019-.026-.039-.043-.057a1.015 1.015 0 0 0 -.277-.206c-.01 0-.015-.013-.025-.018s-.031 0-.047-.011a1 1 0 0 0 -.3-.073c-.019 0-.036-.007-.055-.007s-.016 0-.025 0h-20.922a.181.181 0 0 0 -.023 0c-.019 0-.038.006-.058.007a1 1 0 0 0 -.3.073c-.015.006-.031 0-.046.011s-.016.014-.025.018a1 1 0 0 0 -.277.206c-.017.018-.028.038-.044.057a1.062 1.062 0 0 0 -.1.125l-5.186 9.009c-.012.02-.015.043-.025.064a1 1 0 0 0 -.045.119.952.952 0 0 0 -.05.246c0 .025-.014.045-.014.07s.008.027.008.042a1 1 0 0 0 .063.31c.005.014.006.029.011.043a1.012 1.012 0 0 0 .175.274l15.65 17.379c.01.011.025.015.036.026a.728.728 0 0 0 .077.069.943.943 0 0 0 .174.113c.029.015.055.032.085.044.012.005.021.016.033.02s.013 0 .019 0a.982.982 0 0 0 .319.056.993.993 0 0 0 .32-.056h.018s.021-.015.034-.02c.03-.012.056-.029.085-.044a.943.943 0 0 0 .174-.113 1 1 0 0 0 .077-.069c.01-.011.025-.015.035-.026l15.658-17.379a1.008 1.008 0 0 0 .174-.274c.006-.014.007-.03.012-.044a.966.966 0 0 0 .062-.309c0-.015.009-.027.009-.042s-.013-.041-.014-.07zm-27.19-6.779 2.75 5.849h-6.118zm15.364 7.849-4.811 13.417-4.816-13.417zm-9.136-2 4.325-6.251 4.321 6.251zm6.233-7.008h6.981l-2.823 6.01zm-7.974 6.01-2.823-6.01h6.981zm-.871 3 4.281 11.935-10.748-11.937zm13.874 0h6.468l-10.749 11.933zm.87-2 2.747-5.848 3.367 5.846z"/></svg>