<?xml version="1.0"?>
<svg xmlns="http://www.w3.org/2000/svg" viewBox="0 0 64 64" width="512" height="512"><g id="_30-Vegan" data-name="30-Vegan"><path d="M58,35H54a1,1,0,0,1-1-1V29a6.6,6.6,0,0,0-.561-3.043C49.734,24.278,48,20.8,48,17c0-5.514,3.589-10,8-10s8,4.486,8,10c0,3.8-1.734,7.278-4.439,8.957A6.6,6.6,0,0,0,59,29v5A1,1,0,0,1,58,35Zm-3-2h2V29a7.832,7.832,0,0,1,.992-4.318,1.007,1.007,0,0,1,.342-.323C60.562,23.091,62,20.2,62,17c0-4.411-2.691-8-6-8s-6,3.589-6,8c0,3.2,1.438,6.091,3.666,7.359a1.007,1.007,0,0,1,.342.323A7.832,7.832,0,0,1,55,29Z"/><path d="M56,57a4,4,0,0,1-4-4V34a1,1,0,0,1,1-1h1V53a2,2,0,0,0,4,0V33h1a1,1,0,0,1,1,1V53A4,4,0,0,1,56,57Z"/><path d="M9,35H5a1,1,0,0,1-1-1V29a6.59,6.59,0,0,0-.562-3.045C1.125,24.493,0,21.56,0,17V10a3,3,0,0,1,6,0v7H4V10a1,1,0,0,0-2,0v7c0,3.931.872,6.338,2.666,7.359a1.007,1.007,0,0,1,.342.323A7.832,7.832,0,0,1,6,29v4H8V29a7.832,7.832,0,0,1,.992-4.318,1.007,1.007,0,0,1,.342-.323C11.128,23.338,12,20.931,12,17V10a1,1,0,0,0-2,0v7H8V10a3,3,0,0,1,6,0v7c0,4.56-1.125,7.493-3.438,8.955A6.59,6.59,0,0,0,10,29v5A1,1,0,0,1,9,35Z"/><path d="M7,57a4,4,0,0,1-4-4V34a1,1,0,0,1,1-1H5V53a2,2,0,0,0,4,0V33h1a1,1,0,0,1,1,1V53A4,4,0,0,1,7,57Z"/><path d="M10,17H8V10a1,1,0,0,0-2,0v7H4V10a3,3,0,0,1,6,0Z"/><path d="M3.1,45.741A31.549,31.549,0,0,1,0,32a32.155,32.155,0,0,1,1.29-9.021l1.92.561A30.143,30.143,0,0,0,2,32,29.585,29.585,0,0,0,4.9,44.878Z"/><path d="M59.87,47.733l-1.74-.986a30.053,30.053,0,0,0,2.437-23.922l1.905-.611a32.058,32.058,0,0,1-2.6,25.519Z"/><path d="M52.119,9.742a30,30,0,0,0-39.444-.687l-1.289-1.53a32.007,32.007,0,0,1,42.075.733Z"/><path d="M32,64A31.779,31.779,0,0,1,9.187,54.441l1.426-1.4a29.994,29.994,0,0,0,42.068.688l1.379,1.447A31.839,31.839,0,0,1,32,64Z"/><path d="M32,55A23,23,0,1,1,49.834,17.467l-1.549,1.265a21,21,0,1,0,3.761,19.55l1.908.6A22.891,22.891,0,0,1,32,55Z"/><path d="M54.906,34.09l-1.992-.18c.058-.639.086-1.264.086-1.91h2C55,32.706,54.97,33.39,54.906,34.09Z"/><path d="M22.03,44.276a4.162,4.162,0,0,1-2.964-1.228C13.179,37.16,13.7,26.694,20.194,20.194s16.967-7.015,22.854-1.128a4.191,4.191,0,0,1,0,5.928L24.994,43.048A4.162,4.162,0,0,1,22.03,44.276ZM32.7,17.021a15.831,15.831,0,0,0-11.09,4.587C15.975,27.243,15.447,36.6,20.48,41.634a2.245,2.245,0,0,0,3.1,0L41.634,23.58a2.192,2.192,0,0,0,0-3.1h0A12.508,12.508,0,0,0,32.7,17.021Z"/><path d="M41.213,47a5.753,5.753,0,0,1-4.093-1.7,21.611,21.611,0,0,1-3.845-5.087,16.555,16.555,0,0,0-2.924-3.941l1.414-1.414a18.55,18.55,0,0,1,3.242,4.354,19.6,19.6,0,0,0,3.527,4.674,3.879,3.879,0,0,0,5.357,0,3.789,3.789,0,0,0,0-5.357,19.6,19.6,0,0,0-4.674-3.527,18.55,18.55,0,0,1-4.354-3.242l1.414-1.414a16.555,16.555,0,0,0,3.941,2.924,21.611,21.611,0,0,1,5.087,3.845A5.788,5.788,0,0,1,41.213,47Z"/><path d="M24.852,28.243a3.393,3.393,0,1,1,2.4-5.792h0a3.392,3.392,0,0,1-2.4,5.792Zm0-4.785a1.393,1.393,0,1,0,.985.407A1.394,1.394,0,0,0,24.852,23.458Z"/><path d="M35.007,27.116a3.394,3.394,0,1,1,2.4-.994A3.369,3.369,0,0,1,35.007,27.116Zm0-4.786a1.392,1.392,0,0,0-.986,2.378,1.426,1.426,0,0,0,1.971,0,1.393,1.393,0,0,0-.985-2.378Z"/><path d="M23.723,38.4a3.392,3.392,0,0,1-2.4-5.791,3.473,3.473,0,0,1,4.8,0h0a3.392,3.392,0,0,1-2.4,5.791Zm0-4.786a1.395,1.395,0,1,0,.985.409h0A1.387,1.387,0,0,0,23.723,33.612Z"/></g></svg>
