<svg height="512" viewBox="0 0 60 60" width="512" xmlns="http://www.w3.org/2000/svg"><g id="011---Social-Life-Support"><path id="Shape" d="m57 8h-6c1.5470806-2.06277417 1.2718336-4.96373772-.6355851-6.69874474-1.9074188-1.73500702-4.821411-1.73500702-6.7288298 0-1.9074187 1.73500702-2.1826657 4.63597057-.6355851 6.69874474h-6c-1.6568542 0-3 1.34314575-3 3v24c0 1.6568542 1.3431458 3 3 3h2v1c0 1.6568542 1.3431458 3 3 3h1v1c0 1.6568542 1.3431458 3 3 3v2c0 2.6521649-1.0535684 5.195704-2.9289322 7.0710678s-4.4189029 2.9289322-7.0710678 2.9289322h-12c-5.5228475 0-10-4.4771525-10-10v-2h9c1.6568542 0 3-1.3431458 3-3v-34c0-1.65685425-1.3431458-3-3-3h-20c-1.65685425 0-3 1.34314575-3 3v34c0 1.6568542 1.34314575 3 3 3h9v2c0 6.627417 5.372583 12 12 12h12c6.627417 0 12-5.372583 12-12v-2c1.6568542 0 3-1.3431458 3-3v-1h1c1.6568542 0 3-1.3431458 3-3v-1h2c1.6568542 0 3-1.3431458 3-3v-24c0-1.65685425-1.3431458-3-3-3zm-55 6h22v24h-22zm1-6h20c.5522847 0 1 .44771525 1 1v3h-22v-3c0-.55228475.44771525-1 1-1zm-1 35v-3h22v3c0 .5522847-.4477153 1-1 1h-9v-1c0-.5522847-.4477153-1-1-1s-1 .4477153-1 1v1h-9c-.55228475 0-1-.4477153-1-1zm42-38c0-1.65685425 1.3431458-3 3-3s3 1.34314575 3 3-1.3431458 3-3 3-3-1.34314575-3-3zm5 38c0 .5522847-.4477153 1-1 1h-2c-.5522847 0-1-.4477153-1-1v-1h4zm4-4c0 .5522847-.4477153 1-1 1h-10c-.5522847 0-1-.4477153-1-1v-1h12zm5-4c0 .5522847-.4477153 1-1 1h-20c-.5522847 0-1-.4477153-1-1v-24c0-.5522847.4477153-1 1-1h20c.5522847 0 1 .4477153 1 1z"/><path id="Shape" d="m54 12h-14c-1.1045695 0-2 .8954305-2 2v18c0 1.1045695.8954305 2 2 2h14c1.1045695 0 2-.8954305 2-2v-18c0-1.1045695-.8954305-2-2-2zm0 2v6h-14v-2h3c.5522847 0 1-.4477153 1-1s-.4477153-1-1-1h-3v-2zm-14 18v-2h3c.5522847 0 1-.4477153 1-1s-.4477153-1-1-1h-3v-2h3c.5522847 0 1-.4477153 1-1s-.4477153-1-1-1h-3v-2h14v10z"/><circle id="Oval" cx="47" cy="5" r="1"/><path id="Shape" d="m5 21c.26580298.0015368.52128117-.1028135.71-.29l3-3c.39212217-.3921222.39212217-1.0278778 0-1.42s-1.02787783-.3921222-1.42 0l-3 3c-.28845995.2860905-.37516186.7182668-.21937095 1.0934815s.52310588.6188811.92937095.6165185z"/><path id="Shape" d="m15 19c.53 0 .67-.26 1.71-1.29.3921222-.3921222.3921222-1.0278778 0-1.42s-1.0278778-.3921222-1.42 0l-1 1c-.2884599.2860905-.3751619.7182668-.219371 1.0934815.155791.3752147.5231059.6188811.929371.6165185z"/><path id="Shape" d="m5.71 28.71 7-7c.3921222-.3921222.3921222-1.0278778 0-1.42s-1.0278778-.3921222-1.42 0l-7 7c-.28845995.2860905-.37516186.7182668-.21937095 1.0934815s.52310588.6188811.92937095.6165185c.26580298.0015368.52128117-.1028135.71-.29z"/><path id="Shape" d="m21.71 19.29c-.1877666-.1893127-.4433625-.2957983-.71-.2957983s-.5222334.1064856-.71.2957983l-11 11c-.28845995.2860905-.37516186.7182668-.21937095 1.0934815s.52310588.6188811.92937095.6165185c.265803.0015368.5212812-.1028135.71-.29l11-11c.1893127-.1877666.2957983-.4433625.2957983-.71s-.1064856-.5222334-.2957983-.71z"/><path id="Shape" d="m6.29 33.29-1 1c-.39212214.3921222-.39212212 1.0278778.00000004 1.42.39212215.3921221 1.02787778.3921221 1.41999996 0l1-1c.39212214-.3921222.39212212-1.0278778-.00000004-1.42-.39212215-.3921221-1.02787778-.3921221-1.41999996 0z"/><path id="Shape" d="m20.29 27.29-7 7c-.3921221.3921222-.3921221 1.0278778 0 1.42.3921222.3921221 1.0278778.3921221 1.42 0l7-7c.3921221-.3921222.3921221-1.0278778 0-1.42-.3921222-.3921221-1.0278778-.3921221-1.42 0z"/></g></svg>