<svg clip-rule="evenodd" fill-rule="evenodd" height="512" image-rendering="optimizeQuality" shape-rendering="geometricPrecision" text-rendering="geometricPrecision" viewBox="0 0 18062 18062" width="512" xmlns="http://www.w3.org/2000/svg"><g id="Layer_x0020_1"><path d="m4835 7885c-1304 0-2365-1061-2365-2365s1061-2365 2365-2365 2365 1061 2365 2365-1061 2365-2365 2365zm9114-2177-608-1262-1263-608c-231-111-231-442 0-554l1263-607 608-1263c111-231 442-231 553 0l608 1263 1263 607c231 112 231 443 0 554l-1263 608-608 1262c-111 231-442 231-553 0zm-1030-2147 785 378c63 30 113 81 143 144l378 784 378-784c30-63 81-114 144-144l785-378-785-378c-63-30-114-81-144-143l-378-785-378 785c-30 62-80 113-143 143zm-9359 13087-608-1262-1262-608c-232-112-232-442 0-554l1262-608 608-1262c111-231 442-231 554 0l607 1262 1263 608c231 112 231 442 0 554l-1263 608-607 1262c-112 231-443 231-554 0zm-1029-2147 784 378c63 30 114 81 144 143l378 785 378-785c30-62 80-113 143-143l785-378-785-378c-62-30-113-81-143-143l-378-785-378 785c-30 62-81 113-144 143zm10696 3561c-53 0-106-13-153-41l-4515-2606c-95-55-153-157-153-266v-5213c0-110 58-211 153-266l4515-2607c95-54 212-54 307 0l4514 2607c95 55 154 156 154 266v5213c0 109-59 211-154 266l-4514 2606c-48 27-101 41-154 41zm-4207-3091 4207 2430 4208-2430v-4858l-4208-2429-4207 2429zm4054 1526-3195-1844c-147-85-197-273-112-420 84-147 272-197 419-112l3041 1756 2888-1668v-3511c0-170 137-307 307-307s307 137 307 307v3689c0 109-58 211-153 266l-3195 1844c-95 55-213 55-307 0zm153-1590c-1304 0-2365-1061-2365-2365s1061-2365 2365-2365 2365 1061 2365 2365-1061 2365-2365 2365zm0-4116c-965 0-1751 786-1751 1751 0 966 786 1751 1751 1751 966 0 1751-785 1751-1751 0-965-785-1751-1751-1751zm-8546 208-4514-2607c-95-54-154-156-154-266v-5212c0-110 59-212 154-266l4514-2607c95-55 213-55 308 0l4514 2607c95 54 154 156 154 266v5212c0 110-59 212-154 266l-4514 2607c-95 54-213 54-308 0zm-4053-3050 4207 2429 4207-2429v-4858l-4207-2429-4207 2429zm4207 1567c-53 0-106-14-154-41l-3194-1845c-147-84-197-272-113-419 85-147 273-197 420-112l3041 1755 2888-1667v-3511c0-170 137-308 307-308 169 0 307 138 307 308v3688c0 110-59 212-154 266l-3194 1845c-48 27-101 41-154 41zm0-5747c-965 0-1751 786-1751 1751s786 1751 1751 1751 1751-786 1751-1751-786-1751-1751-1751z"/></g></svg>