<svg height="512" viewBox="0 0 512 512" width="512" xmlns="http://www.w3.org/2000/svg"><g id="Out_line" data-name="Out line"><path d="m128 88a40 40 0 1 0 -40 40 40.04552 40.04552 0 0 0 40-40zm-40 24a24 24 0 1 1 24-24 24.0275 24.0275 0 0 1 -24 24z"/><path d="m72 88h16v-16a16.01833 16.01833 0 0 0 -16 16z"/><path d="m88 184a16.01833 16.01833 0 0 0 -16 16h16z"/><path d="m72 312h16v-16a16.01833 16.01833 0 0 0 -16 16z"/><path d="m88 408a16.01833 16.01833 0 0 0 -16 16h16z"/><path d="m200 88h16v-16a16.01833 16.01833 0 0 0 -16 16z"/><path d="m200 200h16v-16a16.01833 16.01833 0 0 0 -16 16z"/><path d="m200 312h16v-16a16.01833 16.01833 0 0 0 -16 16z"/><path d="m200 424h16v-16a16.01833 16.01833 0 0 0 -16 16z"/><path d="m256 88a40 40 0 1 0 -40 40 40.04552 40.04552 0 0 0 40-40zm-40 24a24 24 0 1 1 24-24 24.0275 24.0275 0 0 1 -24 24z"/><path d="m88 240a40 40 0 1 0 -40-40 40.04552 40.04552 0 0 0 40 40zm0-64a24 24 0 1 1 -24 24 24.0275 24.0275 0 0 1 24-24z"/><path d="m256 200a40 40 0 1 0 -40 40 40.04552 40.04552 0 0 0 40-40zm-40 24a24 24 0 1 1 24-24 24.0275 24.0275 0 0 1 -24 24z"/><path d="m144 56h16v16h-16z"/><path d="m144 88h16v16h-16z"/><path d="m144 120h16v16h-16z"/><path d="m144 152h16v16h-16z"/><path d="m144 184h16v16h-16z"/><path d="m144 216h16v16h-16z"/><path d="m144 280h16v16h-16z"/><path d="m144 312h16v16h-16z"/><path d="m144 344h16v16h-16z"/><path d="m144 376h16v16h-16z"/><path d="m144 408h16v16h-16z"/><path d="m144 440h16v16h-16z"/><path d="m160 472h-16v8h-88a24.0275 24.0275 0 0 1 -24-24v-80h16v-16h-16v-96h16v-16h-16v-96h16v-16h-16v-80a24.0275 24.0275 0 0 1 24-24h88v8h16v-8h88a24.0275 24.0275 0 0 1 24 24v80h-16v16h16v96h-16v16h16v96h-16v16h24a8.00008 8.00008 0 0 0 8-8v-312a40.04552 40.04552 0 0 0 -40-40h-192a40.04552 40.04552 0 0 0 -40 40v400a40.04552 40.04552 0 0 0 40 40h152v-16h-48z"/><path d="m88 272a40 40 0 1 0 40 40 40.04552 40.04552 0 0 0 -40-40zm0 64a24 24 0 1 1 24-24 24.0275 24.0275 0 0 1 -24 24z"/><path d="m256 312a40 40 0 1 0 -40 40 40.04552 40.04552 0 0 0 40-40zm-40 24a24 24 0 1 1 24-24 24.0275 24.0275 0 0 1 -24 24z"/><path d="m48 424a40 40 0 1 0 40-40 40.04552 40.04552 0 0 0 -40 40zm40-24a24 24 0 1 1 -24 24 24.0275 24.0275 0 0 1 24-24z"/><path d="m192 424a23.98469 23.98469 0 0 1 17.99414-23.24512l-3.98828-15.49414a40.01022 40.01022 0 0 0 0 77.47852l3.98828-15.49414a23.98469 23.98469 0 0 1 -17.99414-23.24512z"/><path d="m224 136h16v16h-16z"/><path d="m192 136h16v16h-16z"/><path d="m160 136h16v16h-16z"/><path d="m128 136h16v16h-16z"/><path d="m96 136h16v16h-16z"/><path d="m64 136h16v16h-16z"/><path d="m224 248h16v16h-16z"/><path d="m192 248h16v16h-16z"/><path d="m160 248h16v16h-16z"/><path d="m128 248h16v16h-16z"/><path d="m96 248h16v16h-16z"/><path d="m64 248h16v16h-16z"/><path d="m224 360h16v16h-16z"/><path d="m192 360h16v16h-16z"/><path d="m160 360h16v16h-16z"/><path d="m128 360h16v16h-16z"/><path d="m96 360h16v16h-16z"/><path d="m64 360h16v16h-16z"/><path d="m336 400a47.7759 47.7759 0 0 0 -16 2.752v-10.752a8.00008 8.00008 0 0 0 -8-8h-80a8.00008 8.00008 0 0 0 -8 8v32a8.00008 8.00008 0 0 0 8 8h24v16h-24a8.00008 8.00008 0 0 0 -8 8v32a8.00008 8.00008 0 0 0 8 8h80a7.982 7.982 0 0 0 6.48218-3.32422 47.99455 47.99455 0 1 0 17.51782-92.67578zm16.24146 20.44434-43.797 43.79785a31.97839 31.97839 0 0 1 43.797-43.79785zm-112.24146-20.44434h64v12.26123a48.40639 48.40639 0 0 0 -3.73877 3.73877h-60.26123zm32 32h18.7522a47.7703 47.7703 0 0 0 -2.7522 16h-16zm-32 32h50.7522a48.03939 48.03939 0 0 0 9.51025 16.00146l-60.26245-.00146zm96 16a31.79376 31.79376 0 0 1 -16.24146-4.44434l43.797-43.79785a31.97865 31.97865 0 0 1 -27.55554 48.24219z"/><path d="m456 192.667v-72.667a8.00008 8.00008 0 0 0 -8-8h-136a8.00008 8.00008 0 0 0 -8 8v80h8v8h24v-16h-16v-16h120v16h-48v16h56a32.03635 32.03635 0 0 1 32 32h-176v16h176v192h-80v16h80v8a8.00917 8.00917 0 0 1 -8 8h-80v16h80a24.02718 24.02718 0 0 0 24-24v-232a48.07781 48.07781 0 0 0 -40-47.333zm-136-32.667v-32h120v32z"/><path d="m360 352h40v16h-40z"/><path d="m376 384h56v16h-56z"/><path d="m448 328v-48a8.00008 8.00008 0 0 0 -8-8h-120a8.00008 8.00008 0 0 0 -8 8v48a8.00008 8.00008 0 0 0 8 8h120a8.00008 8.00008 0 0 0 8-8zm-16-8h-104v-32h104z"/></g></svg>