<?xml version="1.0" encoding="UTF-8"?>
<svg xmlns="http://www.w3.org/2000/svg" xmlns:xlink="http://www.w3.org/1999/xlink" version="1.1" id="Capa_1" x="0px" y="0px" viewBox="0 0 512 512" style="enable-background:new 0 0 512 512;" xml:space="preserve" width="512" height="512">
<g>
	<g>
		<path style="fill:#8B8089;" d="M124.409,29.72h36.07c55.38,0,100.274,44.893,100.274,100.273v78.062H24.133v-78.063&#10;&#9;&#9;&#9;C24.133,74.612,69.029,29.72,124.409,29.72z"/>
		<path style="fill:#7B7179;" d="M160.479,29.72h-20c55.38,0,100.275,44.895,100.275,100.275v78.061h19.999v-78.062&#10;&#9;&#9;&#9;C260.753,74.613,215.859,29.72,160.479,29.72z"/>
		<path style="fill:#EAF6FF;" d="M7.5,461.569v-113.41c0-14.124,10.051-26.25,23.93-28.869l111.015-20.954l111.015,20.954&#10;&#9;&#9;&#9;c13.879,2.62,23.929,14.744,23.929,28.868v113.41c0,2.235-1.812,4.045-4.046,4.045H11.548C9.313,465.613,7.5,463.803,7.5,461.569z&#10;&#9;&#9;&#9;"/>
		<path style="fill:#D8ECFE;" d="M253.459,319.289l-98.36-18.565v5.777c0,4.639,3.301,8.621,7.859,9.481l75.925,14.33&#10;&#9;&#9;&#9;c10.733,2.026,18.506,11.403,18.506,22.326v112.975h15.954c2.235,0,4.046-1.811,4.046-4.045v-113.41&#10;&#9;&#9;&#9;C277.389,334.034,267.338,321.909,253.459,319.289z"/>
		<path style="fill:#FED2A4;" d="M109.79,254.963v53.247c0,18.035,14.618,32.652,32.652,32.652s32.657-14.618,32.657-32.652v-53.247&#10;&#9;&#9;&#9;H109.79z"/>
		<path style="fill:#FFBD86;" d="M155.099,254.963v51.538c0,4.639,3.301,8.621,7.859,9.481l10.649,2.01&#10;&#9;&#9;&#9;c0.969-3.089,1.493-6.374,1.493-9.782v-53.247H155.099z"/>
		<path style="fill:#FFBD86;" d="M20.918,205.29v6.939c0,10.851,8.793,19.643,19.644,19.643h203.76&#10;&#9;&#9;&#9;c10.851,0,19.649-8.792,19.649-19.643v-6.939c0-10.851-8.798-19.649-19.649-19.649H40.562&#10;&#9;&#9;&#9;C29.711,185.641,20.918,194.439,20.918,205.29z"/>
		<path style="fill:#FED2A4;" d="M230.622,153.912v46.587c0,48.622-38.893,88.922-87.514,89.277&#10;&#9;&#9;&#9;c-49.006,0.358-88.843-39.258-88.843-88.171v-62.251c0-3.002,1.088-5.902,3.063-8.163l19.469-22.289&#10;&#9;&#9;&#9;c2.301-2.635,5.909-3.74,9.295-2.848l135.303,35.868C226.835,143.363,230.622,148.285,230.622,153.912z"/>
		<path style="fill:#A79BA7;" d="M210.099,445.694v30.167c0,3.545,2.874,6.419,6.419,6.419h251.899c3.545,0,6.419-2.874,6.419-6.419&#10;&#9;&#9;&#9;v-30.167H210.099z"/>
		<path style="fill:#8B8089;" d="M454.837,445.694v30.167c0,3.545-2.874,6.419-6.419,6.419h20c3.545,0,6.419-2.874,6.419-6.419&#10;&#9;&#9;&#9;v-30.167H454.837z"/>
		<path style="fill:#B3DAFE;" d="M210.099,445.694l30.086-150.964c0.677-3.398,3.66-5.845,7.125-5.845h249.922&#10;&#9;&#9;&#9;c4.583,0,8.021,4.191,7.125,8.685l-29.521,148.124H210.099z"/>
		<path style="fill:#8AC9FE;" d="M497.233,288.885h-20c4.583,0,8.021,4.191,7.125,8.685l-29.521,148.124h20l29.521-148.124&#10;&#9;&#9;&#9;C505.253,293.076,501.815,288.885,497.233,288.885z"/>
		<path style="fill:#EAF6FF;" d="M358.094,347.497c-10.931,0-19.793,8.861-19.793,19.793c0,10.931,8.861,19.792,19.793,19.792&#10;&#9;&#9;&#9;c10.931,0,19.793-8.861,19.793-19.792C377.886,356.358,369.025,347.497,358.094,347.497z"/>
		<path style="fill:#FD8087;" d="M375.784,42.2c-37.368,0-67.66,30.292-67.66,67.66c0,43.257,49.039,75.859,63.619,84.596&#10;&#9;&#9;&#9;c2.491,1.493,5.592,1.493,8.083,0c14.58-8.737,63.619-41.338,63.619-84.596C443.445,72.492,413.152,42.2,375.784,42.2z&#10;&#9;&#9;&#9; M375.784,133.638c-13.132,0-23.777-10.646-23.777-23.777s10.645-23.777,23.777-23.777s23.777,10.645,23.777,23.777&#10;&#9;&#9;&#9;S388.916,133.638,375.784,133.638z"/>
		<path style="fill:#FE646F;" d="M375.784,42.2c-3.398,0-6.736,0.257-10,0.741c32.625,4.834,57.66,32.95,57.66,66.919&#10;&#9;&#9;&#9;c0,38.494-38.834,68.55-57.66,80.859c2.329,1.523,4.353,2.775,5.959,3.737c2.491,1.492,5.592,1.492,8.083,0&#10;&#9;&#9;&#9;c14.58-8.737,63.619-41.338,63.619-84.596C443.445,72.493,413.152,42.2,375.784,42.2z"/>
	</g>
	<g>
		<path style="fill:none;stroke:#000000;stroke-width:15;stroke-linecap:round;stroke-linejoin:round;stroke-miterlimit:10;" d="&#10;&#9;&#9;&#9;M24.133,194.52v-64.528c0-26.53,10.307-50.652,27.127-68.592"/>
		<path style="fill:none;stroke:#000000;stroke-width:15;stroke-linecap:round;stroke-linejoin:round;stroke-miterlimit:10;" d="&#10;&#9;&#9;&#9;M79.15,40.49c13.6-6.89,28.969-10.77,45.259-10.77h36.07c55.38,0,100.274,44.893,100.274,100.273V194.5"/>
		
			<line style="fill:none;stroke:#000000;stroke-width:15;stroke-linecap:round;stroke-linejoin:round;stroke-miterlimit:10;" x1="235.95" y1="315.99" x2="175.1" y2="304.5"/>
		<path style="fill:none;stroke:#000000;stroke-width:15;stroke-linecap:round;stroke-linejoin:round;stroke-miterlimit:10;" d="&#10;&#9;&#9;&#9;M109.79,304.5l-78.36,14.79C17.55,321.91,7.5,334.029,7.5,348.159v113.41c0,2.23,1.808,4.044,4.048,4.044H210.1"/>
		<path style="fill:none;stroke:#000000;stroke-width:15;stroke-linecap:round;stroke-linejoin:round;stroke-miterlimit:10;" d="&#10;&#9;&#9;&#9;M175.099,283.44v24.77c0,18.03-14.617,32.652-32.657,32.652c-18.03,0-32.652-14.622-32.652-32.652v-24.69"/>
		<path style="fill:none;stroke:#000000;stroke-width:15;stroke-linecap:round;stroke-linejoin:round;stroke-miterlimit:10;" d="&#10;&#9;&#9;&#9;M230.62,185.641h13.702c6.87,0,12.925,3.516,16.431,8.859c2.033,3.098,3.218,6.8,3.218,10.79v6.939&#10;&#9;&#9;&#9;c0,10.85-8.789,19.643-19.649,19.643H224.97"/>
		<path style="fill:none;stroke:#000000;stroke-width:15;stroke-linecap:round;stroke-linejoin:round;stroke-miterlimit:10;" d="&#10;&#9;&#9;&#9;M59.6,231.871H40.562c-10.85,0-19.644-8.793-19.644-19.643v-6.939c0-3.98,1.185-7.679,3.214-10.77&#10;&#9;&#9;&#9;c3.512-5.349,9.559-8.879,16.429-8.879H54.27"/>
		<path style="fill:none;stroke:#000000;stroke-width:15;stroke-linecap:round;stroke-linejoin:round;stroke-miterlimit:10;" d="&#10;&#9;&#9;&#9;M230.622,153.912v46.587c0,48.622-38.893,88.922-87.514,89.277c-49.006,0.358-88.843-39.258-88.843-88.171v-62.251&#10;&#9;&#9;&#9;c0-3.002,1.088-5.902,3.063-8.163l19.469-22.289c2.301-2.635,5.909-3.74,9.295-2.848l135.303,35.868&#10;&#9;&#9;&#9;C226.835,143.363,230.622,148.285,230.622,153.912z"/>
		
			<line style="fill:none;stroke:#000000;stroke-width:15;stroke-linecap:round;stroke-linejoin:round;stroke-miterlimit:10;" x1="53.256" y1="465.614" x2="53.256" y2="398.66"/>
		<g>
			
				<line style="fill:none;stroke:#000000;stroke-width:15;stroke-linecap:round;stroke-linejoin:round;stroke-miterlimit:10;" x1="178.867" y1="189.493" x2="178.867" y2="200.407"/>
			<path style="fill:none;stroke:#000000;stroke-width:15;stroke-linecap:round;stroke-linejoin:round;stroke-miterlimit:10;" d="&#10;&#9;&#9;&#9;&#9;M165.832,161.841c7.326-4.789,21.922-6.304,29.231,1.873"/>
			
				<line style="fill:none;stroke:#000000;stroke-width:15;stroke-linecap:round;stroke-linejoin:round;stroke-miterlimit:10;" x1="106.022" y1="189.493" x2="106.022" y2="200.407"/>
			<path style="fill:none;stroke:#000000;stroke-width:15;stroke-linecap:round;stroke-linejoin:round;stroke-miterlimit:10;" d="&#10;&#9;&#9;&#9;&#9;M119.056,161.841c-7.326-4.789-21.922-6.304-29.231,1.873"/>
		</g>
		<path style="fill:none;stroke:#000000;stroke-width:15;stroke-linecap:round;stroke-linejoin:round;stroke-miterlimit:10;" d="&#10;&#9;&#9;&#9;M122.492,232.84c4.684,5.054,11.88,8.287,19.952,8.287c8.072,0,15.268-3.233,19.952-8.287"/>
		<path style="fill:none;stroke:#000000;stroke-width:15;stroke-linecap:round;stroke-linejoin:round;stroke-miterlimit:10;" d="&#10;&#9;&#9;&#9;M210.099,445.694v30.167c0,3.545,2.874,6.419,6.419,6.419h251.899c3.545,0,6.419-2.874,6.419-6.419v-30.167H210.099z"/>
		<path style="fill:none;stroke:#000000;stroke-width:15;stroke-linecap:round;stroke-linejoin:round;stroke-miterlimit:10;" d="&#10;&#9;&#9;&#9;M210.099,445.694l30.086-150.964c0.677-3.398,3.66-5.845,7.125-5.845h249.922c4.583,0,8.021,4.191,7.125,8.685l-11.664,58.525"/>
		
			<line style="fill:none;stroke:#000000;stroke-width:15;stroke-linecap:round;stroke-linejoin:round;stroke-miterlimit:10;" x1="485.718" y1="391.095" x2="474.837" y2="445.694"/>
		<path style="fill:none;stroke:#000000;stroke-width:15;stroke-linecap:round;stroke-linejoin:round;stroke-miterlimit:10;" d="&#10;&#9;&#9;&#9;M358.094,347.497c-10.931,0-19.793,8.861-19.793,19.793c0,10.931,8.861,19.792,19.793,19.792c10.931,0,19.793-8.861,19.793-19.792&#10;&#9;&#9;&#9;C377.886,356.358,369.025,347.497,358.094,347.497z"/>
		<path style="fill:none;stroke:#000000;stroke-width:15;stroke-linecap:round;stroke-linejoin:round;stroke-miterlimit:10;" d="&#10;&#9;&#9;&#9;M375.784,42.2c-37.368,0-67.66,30.292-67.66,67.66c0,43.257,49.039,75.859,63.619,84.596c2.491,1.493,5.592,1.493,8.083,0&#10;&#9;&#9;&#9;c14.58-8.737,63.619-41.338,63.619-84.596C443.445,72.492,413.152,42.2,375.784,42.2z M375.784,133.638&#10;&#9;&#9;&#9;c-13.132,0-23.777-10.646-23.777-23.777s10.645-23.777,23.777-23.777s23.777,10.645,23.777,23.777&#10;&#9;&#9;&#9;S388.916,133.638,375.784,133.638z"/>
	</g>
</g>















</svg>
