<svg height="512" viewBox="0 0 48 48" width="512" xmlns="http://www.w3.org/2000/svg"><g id="_15-graph" data-name="15-graph"><circle cx="10" cy="10" fill="#ffd241" r="9"/><path d="m6 10a8.99836 8.99836 0 0 1 6.5-8.64075 9 9 0 1 0 0 17.2815 8.99841 8.99841 0 0 1 -6.5-8.64075z" fill="#ffb028"/><path d="m17 37h6v10h-6z" fill="#6ee1ef"/><path d="m27 33h6v14h-6z" fill="#ffd241"/><path d="m37 27h6v20h-6z" fill="#ef4136"/><path d="m0 43 17-16h10l11-11 5 5 4-20-20 4 5 5-9 9h-10l-13 12z" fill="#ef4136"/><path d="m47.707.293a.99711.99711 0 0 0 -.90332-.27344l-20 4a.99994.99994 0 0 0 -.51068 1.68744l4.29294 4.293-8 8h-9.58594a.99928.99928 0 0 0 -.707.293l-12 12a.99989.99989 0 0 0 1.414 1.414l11.70706-11.707h9.58594a.99928.99928 0 0 0 .707-.293l9-9a.99962.99962 0 0 0 0-1.41406l-3.67868-3.67868 16.69727-3.33936-3.33985 16.69678-3.67874-3.67868a.99962.99962 0 0 0 -1.41406 0l-10.707 10.707h-9.58594a.99928.99928 0 0 0 -.707.293l-16 16a.99989.99989 0 0 0 1.414 1.414l15.70706-15.707h9.58594a.99928.99928 0 0 0 .707-.293l10.293-10.29294 4.293 4.293a.99981.99981 0 0 0 1.6875-.51074l4-20a1.0005 1.0005 0 0 0 -.2735-.90332z"/><path d="m23 36h-6a.99943.99943 0 0 0 -1 1v10a.99943.99943 0 0 0 1 1h6a.99943.99943 0 0 0 1-1v-10a.99943.99943 0 0 0 -1-1zm-1 10h-4v-8h4z"/><path d="m33 32h-6a.99943.99943 0 0 0 -1 1v14a.99943.99943 0 0 0 1 1h6a.99943.99943 0 0 0 1-1v-14a.99943.99943 0 0 0 -1-1zm-1 14h-4v-12h4z"/><path d="m43 26h-6a.99943.99943 0 0 0 -1 1v20a.99943.99943 0 0 0 1 1h6a.99943.99943 0 0 0 1-1v-20a.99943.99943 0 0 0 -1-1zm-1 20h-4v-18h4z"/><path d="m9 7h4a1 1 0 0 0 0-2h-2v-1a1 1 0 0 0 -2 0v1a2.91555 2.91555 0 0 0 -3 3 2.91555 2.91555 0 0 0 3 3h1.98828a.91836.91836 0 0 1 1.01172 1 .915.915 0 0 1 -1 1h-4a1 1 0 0 0 0 2h2v1a1 1 0 0 0 2 0v-1a2.91555 2.91555 0 0 0 3-3 2.91555 2.91555 0 0 0 -3-3h-1.98828a.91836.91836 0 0 1 -1.01172-1 .915.915 0 0 1 1-1z"/><path d="m5.55469 18.96a1.00012 1.00012 0 0 0 .89062-1.791 8.00034 8.00034 0 1 1 10.208-2.7251 1 1 0 1 0 1.66211 1.1123 9.99971 9.99971 0 1 0 -12.76073 3.4038z"/></g></svg>