<svg id="Layer_1" height="512" viewBox="0 0 64 64" width="512" xmlns="http://www.w3.org/2000/svg" data-name="Layer 1"><g fill="#e8eaea"><path d="m30 7.41v-2.41a2 2 0 0 1 2-2 2 2 0 0 1 2 2v2.41"/><path d="m30 13h4v40h-4z"/><path d="m36.59 10h22.41a2 2 0 0 1 2 2 2 2 0 0 1 -2 2h-22.41"/><path d="m27.41 14h-22.41a2 2 0 0 1 -2-2 2 2 0 0 1 2-2h22.41"/></g><path d="m27 51h10a10 10 0 0 1 10 10 0 0 0 0 1 0 0h-30a0 0 0 0 1 0 0 10 10 0 0 1 10-10z" fill="#8c93ba"/><circle cx="32" cy="12" fill="#f7c23c" r="5"/><path d="m15 48a16.46 16.46 0 0 0 11-15.39v-1.28l-11-7.33-11 7.33v1.28a16.46 16.46 0 0 0 11 15.39z" fill="#71c967"/><path d="m49 48a16.46 16.46 0 0 0 11-15.39v-1.28l-11-7.33-11 7.33v1.28a16.46 16.46 0 0 0 11 15.39z" fill="#71c967"/><path d="m59 9h-21.81a6.05 6.05 0 0 0 -2.19-2.19v-1.81a3 3 0 0 0 -3-3 3 3 0 0 0 -3 3v1.81a6.05 6.05 0 0 0 -2.19 2.19h-21.81a3 3 0 0 0 -3 3 3 3 0 0 0 3 3h9v8.46l-10.55 7a1 1 0 0 0 -.45.83v1.28a17.55 17.55 0 0 0 11.66 16.37 1 1 0 0 0 .68 0 17.55 17.55 0 0 0 11.66-16.33v-1.28a1 1 0 0 0 -.45-.83l-10.55-7.04v-8.46h10.81a6.05 6.05 0 0 0 2.19 2.19v32.81h-2a11 11 0 0 0 -11 11 1 1 0 0 0 1 1h30a1 1 0 0 0 1-1 11 11 0 0 0 -11-11h-2v-32.81a6.05 6.05 0 0 0 2.19-2.19h10.81v8.46l-10.55 7a1 1 0 0 0 -.45.83v1.28a17.55 17.55 0 0 0 11.66 16.37 1 1 0 0 0 .68 0 17.55 17.55 0 0 0 11.66-16.33v-1.28a1 1 0 0 0 -.45-.83l-10.55-7.04v-8.46h9a3 3 0 0 0 3-3 3 3 0 0 0 -3-3zm-34 23.61a15.53 15.53 0 0 1 -10 14.32 15.53 15.53 0 0 1 -10-14.32v-.74l10-6.67 10 6.67zm34 0a15.53 15.53 0 0 1 -10 14.32 15.53 15.53 0 0 1 -10-14.32v-.74l10-6.67 10 6.67zm-27-16.61a4 4 0 1 1 4-4 4 4 0 0 1 -4 4zm-1-11a1 1 0 0 1 1-1 1 1 0 0 1 .71.31.93.93 0 0 1 .29.69v1.09a5.6 5.6 0 0 0 -2 0zm-26 8a1 1 0 0 1 -1-1 1 1 0 0 1 .31-.71.93.93 0 0 1 .69-.29h21.09a6.64 6.64 0 0 0 -.09 1 6.64 6.64 0 0 0 .09 1zm40.94 47h-27.88a9 9 0 0 1 8.94-8h10a9 9 0 0 1 8.94 8zm-12.94-10h-2v-32.09a5.6 5.6 0 0 0 2 0zm26.69-37.29a.93.93 0 0 1 -.69.29h-21.09a6.64 6.64 0 0 0 .09-1 6.64 6.64 0 0 0 -.09-1h21.09a1 1 0 0 1 1 1 1 1 0 0 1 -.31.71z"/><path d="m12.76 36.35a1 1 0 1 0 -1.52 1.3l2.57 3a1 1 0 0 0 .76.35h.15a1 1 0 0 0 .77-.6l3.43-8a1 1 0 0 0 -1.84-.78l-2.79 6.52z"/><path d="m46.76 36.35a1 1 0 1 0 -1.52 1.3l2.57 3a1 1 0 0 0 .76.35h.15a1 1 0 0 0 .77-.6l3.43-8a1 1 0 0 0 -1.84-.78l-2.79 6.52z"/></svg>