<?xml version="1.0" encoding="iso-8859-1"?>
<!-- Generator: Adobe Illustrator 19.0.0, SVG Export Plug-In . SVG Version: 6.00 Build 0)  -->
<svg version="1.1" id="Capa_1" xmlns="http://www.w3.org/2000/svg" xmlns:xlink="http://www.w3.org/1999/xlink" x="0px" y="0px"
	 viewBox="0 0 512 512" style="enable-background:new 0 0 512 512;" xml:space="preserve">
<g>
	<g>
		<g>
			<path d="M256.083,452.271h-153.6V332.8h100.35c4.717,0,8.533-3.821,8.533-8.533s-3.817-8.533-8.533-8.533H93.95
				c-4.717,0-8.533,3.821-8.533,8.533v42.667H25.6c-4.708,0-8.533-3.829-8.533-8.533V153.596c0-4.704,3.825-8.533,8.533-8.533
				h68.237c0.007,0,0.014,0.004,0.021,0.004s0.014-0.004,0.021-0.004h238.892c0.007,0,0.014,0.004,0.021,0.004
				s0.014-0.004,0.021-0.004h68.254c4.708,0,8.533,3.829,8.533,8.533V230.4c0,4.713,3.817,8.533,8.533,8.533
				s8.533-3.821,8.533-8.533v-76.804c0-14.117-11.483-25.6-25.6-25.6h-59.742V85.333c0-0.001-0.001-0.002-0.001-0.002
				c0,0,0.001-0.002,0.001-0.002c0-0.114-0.06-0.208-0.065-0.321c-0.04-1.021-0.209-2.028-0.596-2.956
				c-0.435-1.045-1.068-1.985-1.858-2.771l-68.241-68.241c-0.782-0.784-1.716-1.41-2.754-1.844
				c-1.031-0.431-2.145-0.664-3.287-0.664H93.858c-4.717,0-8.533,3.821-8.533,8.533v110.929H25.6c-14.117,0-25.6,11.483-25.6,25.6
				V358.4C0,372.517,11.483,384,25.6,384h59.817v76.804c0,4.713,3.817,8.533,8.533,8.533h162.133c4.717,0,8.533-3.821,8.533-8.533
				C264.617,456.092,260.8,452.271,256.083,452.271z M273.058,37.667l39.129,39.129h-39.129V37.667z M102.392,25.6h153.6v59.729
				c0,4.713,3.817,8.533,8.533,8.533h59.733v34.133H102.392V25.6z"/>
			<path d="M509.5,292.612l-37.65-37.654c-4.833-4.833-11.258-7.496-18.1-7.496H263.167c-6.842,0-13.267,2.662-18.1,7.496
				l-37.65,37.654c-3.333,3.333-3.333,8.733,0,12.067l38.383,38.388c3.2,3.2,8.867,3.2,12.067,0l15.283-15.287v167.154
				c0,4.713,3.817,8.533,8.533,8.533h153.542c4.717,0,8.533-3.821,8.533-8.533V327.775l15.292,15.292c3.2,3.2,8.867,3.2,12.067,0
				l38.383-38.388C512.833,301.346,512.833,295.946,509.5,292.612z M392.595,264.529l-34.137,45.514l-34.137-45.514H392.595z
				 M465.083,324.967l-23.825-23.825c-2.442-2.437-6.1-3.163-9.3-1.85c-3.192,1.321-5.267,4.433-5.267,7.883V486.4H290.217V307.175
				c0-3.45-2.083-6.563-5.267-7.883c-3.192-1.317-6.858-0.592-9.3,1.85l-23.817,23.821l-26.317-26.317l31.617-31.621
				c1.608-1.608,3.75-2.496,6.033-2.496h39.823l47.994,63.99c0.093,0.166,0.237,0.296,0.342,0.456l0.366,0.488
				c0.073,0.097,0.192,0.129,0.268,0.222c0.422,0.509,0.77,1.068,1.323,1.482c0.393,0.296,0.839,0.442,1.261,0.659
				c0.152,0.08,0.289,0.162,0.444,0.233c1.098,0.486,2.238,0.816,3.403,0.816c0.023,0,0.044-0.016,0.067-0.016
				c0.023,0,0.044,0.016,0.067,0.016c1.165,0,2.305-0.33,3.403-0.816c0.156-0.071,0.292-0.153,0.444-0.233
				c0.422-0.218,0.868-0.364,1.261-0.659c0.553-0.414,0.901-0.972,1.323-1.482c0.077-0.094,0.195-0.125,0.268-0.222l0.366-0.488
				c0.105-0.16,0.249-0.291,0.342-0.456l47.994-63.99h39.823c2.283,0,4.425,0.888,6.033,2.496l31.617,31.621L465.083,324.967z"/>
		</g>
	</g>
</g>
<g>
</g>
<g>
</g>
<g>
</g>
<g>
</g>
<g>
</g>
<g>
</g>
<g>
</g>
<g>
</g>
<g>
</g>
<g>
</g>
<g>
</g>
<g>
</g>
<g>
</g>
<g>
</g>
<g>
</g>
</svg>
