<svg clip-rule="evenodd" fill-rule="evenodd" height="92" image-rendering="optimizeQuality" shape-rendering="geometricPrecision" text-rendering="geometricPrecision" viewBox="0 0 26232 16707" width="145" xmlns="http://www.w3.org/2000/svg"><g id="Layer_x0020_1"><g id="_250528344"><path d="m1379 9827h22700v3977h-22700z" fill="#2a68a6"/><path d="m16650 9827h7430v2886l-1423 22-1323-1778h-4684z" fill="#275c91"/><g fill="#1d2f42"><circle cx="5666" cy="14511" r="2196"/><circle cx="18414" cy="14511" r="2196"/><rect height="2866" rx="682" width="6000" x="9040" y="12594"/></g><g><path d="m920 12352h1490v1886h-1490c-136 0-247-111-247-248v-1391c0-136 111-247 247-247z" fill="#1d2f42"/><path d="m408 12539h265v1524h-265c-62 0-113-50-113-112v-1300c0-62 51-112 113-112z" fill="#f7635b"/><path d="m1465 12494h141c68 0 124 55 124 123v1355c0 69-56 124-124 124h-141c-62 0-113-50-113-112v-1378c0-62 51-112 113-112z" fill="#ffc42e"/></g><path d="m21044 15147h3043c136 0 248-111 248-247v-1360c0-137-112-248-248-248h-3043z" fill="#1d2f42"/><rect fill="#ffc42e" height="572" rx="135" ry="110" width="1471" x="22338" y="13905"/><circle cx="5666" cy="14511" fill="#c6cbd6" r="1220"/><circle cx="18414" cy="14511" fill="#c6cbd6" r="1220"/><path d="m12040 12236h1500v358h-1500z" fill="#b9c1c9"/><path d="m0 0h14511v11358h-14511z" fill="#ffc42e"/><path d="m595 657h13310v10067h-13310z" fill="#dea71d"/><path d="m24599 13545h-265v1350h265c62 0 113-51 113-113v-1125c0-62-51-112-113-112z" fill="#f7635b"/><g><path d="m761 807h12989v9744h-12989z" fill="#edb423"/><g><g fill="#ffc42e"><path d="m776 807h975l-990 889v-876z"/><path d="m2933 807h974l-3146 2827v-875z"/><path d="m5089 807h975l-5303 4766v-876z"/><path d="m7246 807h974l-7459 6704v-876z"/><path d="m9402 807h975l-9616 8642v-876z"/><path d="m11559 807h974l-10841 9744h-931v-39z"/><path d="m13750 906v745l-9902 8900h-974l10803-9710z"/><path d="m13750 2714v876l-7745 6961h-975z"/><path d="m13750 4652v876l-5589 5023h-974z"/><path d="m13750 6590v876l-3432 3085h-975z"/><path d="m13750 8528v876l-1276 1147h-974z"/></g><path d="m13750 10467v84h-94z" fill="none"/></g></g><path d="m25458 9543h692c45 0 82 37 82 82v1772c0 45-37 82-82 82h-692z" fill="#ffc42e"/><path d="m16650 556h6028l3167 5106v6670l-3188 48-1323-1778h-4684z" fill="#ff576b"/><path d="m17952 6304v2996h4004 31l19 26 1297 1742 1144-18 15-3822h123l-15 3882-1 61-60 1-1235 20-32 1-19-26-1298-1743h-4035-62v-62-3058z" fill="#f7455a" fill-rule="nonzero"/><path d="m17890 2292v4012h4083l1316 906 1235-10v-128l75-79c91-97 137-213 134-348l-3-213c-4-263-74-488-216-710l-2379-3698c-95-146-244-228-418-228h-3330c-274 0-497 223-497 496z" fill="#76c1ec"/><path d="m24564 7030 35-37c91-97 137-213 134-348l-3-213c-4-263-74-488-216-710l-2379-3698c-95-146-244-228-418-228h-3330c-205 0-382 125-457 303 87-77 201-123 326-123h3331c174 0 323 81 417 227l2380 3699c142 221 212 446 216 710l3 213c1 74-12 142-39 205z" fill="#f7455a"/><path d="m17890 6494h4083l1316 906 1235-11 12-189-1235 10-1316-906h-4095z" fill="#ff8795"/><circle cx="18414" cy="14511" fill="#ecf0f1" r="1083"/><circle cx="5666" cy="14511" fill="#ecf0f1" r="1083"/><circle cx="5666" cy="14511" fill="#c6cbd6" r="407"/><circle cx="18414" cy="14511" fill="#c6cbd6" r="407"/><path d="m1379 11358h13132v406h-13132z" fill="#275c91"/><path d="m16650 556h6052l3143 5106-304 74-3008-4884h-5883z" fill="#ff8795"/></g></g></svg>