<svg id="Layer_1" enable-background="new 0 0 512 512" viewBox="0 0 512 512" xmlns="http://www.w3.org/2000/svg"><g><g clip-rule="evenodd" fill-rule="evenodd"><path d="m312.1 372.7v66h-250.4c-12.3 0-22.3-11.1-22.3-24.6v-41.4h51.3z" fill="#f99f39"/><path d="m331 217h63c8.2 0 15.2 5 17.8 12.8l36.1 104.8h12.6c6.7 0 12.1 5.6 12.1 12.3v72.9c0 10.4-8.5 18.9-18.9 18.9h-141.6v-202.8c0-10.4 8.5-18.9 18.9-18.9z" fill="#f99f39"/><path d="m331 217h63c8.2 0 15.2 5 17.8 12.8l36.1 104.8h12.6c6.7 0 12.1 5.6 12.1 12.3v53.7c-41-7.2-82.8-30.3-118.7-69.3-16.4-17.8-30.4-37.7-41.8-58.8v-36.5c0-10.5 8.5-19 18.9-19z" fill="#ffcd05"/><path d="m437.4 255.9 27.1 78.6h-79.3c-9.8 0-17.7-7.9-17.7-17.7v-56c0-9.8 8-17.7 17.7-17.7h34.4c8.1.1 15.1 5.1 17.8 12.8z" fill="#e9cfcf"/><path d="m400 400.4c22.3 0 40.3 18 40.3 40.3s-18 40.3-40.3 40.3-40.3-18.1-40.3-40.3 18.1-40.3 40.3-40.3z" fill="#785e5e"/><path d="m400 400.4c22.3 0 40.3 18 40.3 40.3 0 1.6-.1 3.1-.3 4.6-7.4 8.5-18.3 13.9-30.5 13.9-22.3 0-40.3-18.1-40.3-40.3 0-1.6.1-3.1.3-4.6 7.4-8.5 18.4-13.9 30.5-13.9z" fill="#8d7373"/><path d="m312.1 372.7v31.1h-272.7v-31.1h51.3z" fill="#ffcd05"/><path d="m131.7 400.4c22.3 0 40.3 18 40.3 40.3s-18 40.3-40.3 40.3-40.3-18.1-40.3-40.3 18.1-40.3 40.3-40.3z" fill="#785e5e"/><path d="m131.7 400.4c22.3 0 40.3 18 40.3 40.3 0 1.6-.1 3.1-.3 4.6-7.4 8.5-18.3 13.9-30.5 13.9-22.3 0-40.3-18.1-40.3-40.3 0-1.6.1-3.1.3-4.6 7.4-8.5 18.3-13.9 30.5-13.9z" fill="#8d7373"/><path d="m228.6 400.4c22.3 0 40.3 18 40.3 40.3s-18 40.3-40.3 40.3-40.3-18.1-40.3-40.3 18.1-40.3 40.3-40.3z" fill="#785e5e"/><path d="m228.6 400.4c22.3 0 40.3 18 40.3 40.3 0 1.6-.1 3.1-.3 4.6-7.4 8.5-18.3 13.9-30.5 13.9-22.3 0-40.3-18.1-40.3-40.3 0-1.6.1-3.1.3-4.6 7.4-8.5 18.3-13.9 30.5-13.9z" fill="#8d7373"/><path d="m131.7 427.2c7.5 0 13.5 6 13.5 13.5s-6 13.5-13.5 13.5-13.5-6.1-13.5-13.5 6.1-13.5 13.5-13.5z" fill="#e9cfcf"/><path d="m228.6 427.2c7.5 0 13.5 6 13.5 13.5s-6 13.5-13.5 13.5-13.5-6.1-13.5-13.5 6-13.5 13.5-13.5z" fill="#e9cfcf"/><path d="m400 427.2c7.5 0 13.5 6 13.5 13.5s-6.1 13.5-13.5 13.5-13.5-6.1-13.5-13.5 6.1-13.5 13.5-13.5z" fill="#e9cfcf"/><path d="m59.2 247.1h106.7c7.3 0 13.2 5.9 13.2 13.2v99.2c0 7.3-6 13.2-13.2 13.2h-106.7c-7.3 0-13.2-6-13.2-13.2v-99.2c0-7.3 5.9-13.2 13.2-13.2z" fill="#d99b56"/><path d="m59.2 247.1h106.7c7.3 0 13.2 5.9 13.2 13.2v84.3c-36.8 1.9-78.9-20.4-107.4-60.6-8-11.3-14.3-23.2-18.9-35.2 1.9-1.1 4.1-1.7 6.4-1.7z" fill="#dab46a"/><path d="m90.6 247.1h43.9v49.5l-21.9-10.6-22 10.6z" fill="#cb3727"/><path d="m192.3 247.1h106.7c7.3 0 13.2 5.9 13.2 13.2v99.2c0 7.3-5.9 13.2-13.2 13.2h-106.7c-7.3 0-13.2-6-13.2-13.2v-99.2c0-7.3 5.9-13.2 13.2-13.2z" fill="#d99b56"/><path d="m192.3 247.1h106.7c7.3 0 13.2 5.9 13.2 13.2v84.3c-36.8 1.9-78.9-20.4-107.4-60.6-8-11.3-14.3-23.2-18.9-35.2 1.8-1.1 4-1.7 6.4-1.7z" fill="#dab46a"/><path d="m223.7 247.1h43.8v49.5l-21.8-10.6-22 10.6z" fill="#cb3727"/><path d="m59.2 121.4h106.7c7.3 0 13.2 6 13.2 13.2v99.2c0 7.3-6 13.2-13.2 13.2h-106.7c-7.3 0-13.2-6-13.2-13.2v-99.2c0-7.2 5.9-13.2 13.2-13.2z" fill="#d99b56"/><path d="m59.2 121.4h106.7c7.3 0 13.2 6 13.2 13.2v84.3c-36.8 1.9-78.9-20.4-107.4-60.6-8-11.3-14.3-23.2-18.9-35.2 1.9-1.1 4.1-1.7 6.4-1.7z" fill="#dab46a"/><path d="m90.6 121.4h43.9v49.6l-21.9-10.6-22 10.6z" fill="#cb3727"/><path d="m192.3 121.4h106.7c7.3 0 13.2 6 13.2 13.2v99.2c0 7.3-5.9 13.2-13.2 13.2h-106.7c-7.3 0-13.2-6-13.2-13.2v-99.2c0-7.2 5.9-13.2 13.2-13.2z" fill="#d99b56"/><path d="m192.3 121.4h106.7c7.3 0 13.2 6 13.2 13.2v84.3c-36.8 1.9-78.9-20.4-107.4-60.6-8-11.3-14.3-23.2-18.9-35.2 1.8-1.1 4-1.7 6.4-1.7z" fill="#dab46a"/><path d="m223.7 121.4h43.8v49.6l-21.8-10.6-22 10.6z" fill="#cb3727"/><path d="m386.2 31c32.9 0 59.5 26.6 59.5 59.5 0 29.8-32.4 80.1-53.1 106.9-1.6 2.1-3.8 3.1-6.4 3.1s-4.8-1.1-6.4-3.1c-20.7-26.8-53.1-77-53.1-106.9 0-32.9 26.6-59.5 59.5-59.5z" fill="#f04843"/><path d="m386.2 31c32.9 0 59.5 26.6 59.5 59.5 0 18.4-12.3 44.6-26.6 68.2-17.5-3.7-35.1-13.9-50.4-30.5-17.7-19.2-29.1-43.7-33.5-68.5 10.5-17.2 29.4-28.7 51-28.7z" fill="#f48683"/><path d="m386.2 55.7c20.1 0 36.4 16.3 36.4 36.4s-16.3 36.4-36.4 36.4-36.4-16.3-36.4-36.4 16.3-36.4 36.4-36.4z" fill="#fff"/></g><path d="m386.2 51.7c22.3 0 40.4 18.1 40.4 40.4s-18.1 40.4-40.4 40.4-40.4-18.1-40.4-40.4 18-40.4 40.4-40.4zm22.9 17.5c-12.7-12.7-33.2-12.7-45.8 0-12.6 12.6-12.6 33.2 0 45.8 12.6 12.7 33.2 12.7 45.8 0s12.6-33.2 0-45.8zm-22.9-42.2c35.1 0 63.5 28.4 63.5 63.5 0 32.7-35.8 85.8-53.9 109.3-4.9 6.3-14.3 6.3-19.2 0-18.2-23.5-53.9-76.6-53.9-109.3 0-35.1 28.4-63.5 63.5-63.5zm39.2 24.3c-21.7-21.7-56.8-21.7-78.5 0-10.1 10-16.3 23.9-16.3 39.2 0 30.4 35.5 82.7 52.2 104.4 1.6 2.2 4.9 2.2 6.5 0 16.8-21.7 52.2-74.1 52.2-104.4.2-15.3-6.1-29.2-16.1-39.2zm-201.7 66.1h75.3c9.5 0 17.2 7.7 17.2 17.2v83.9c4-3.4 9.2-5.5 14.9-5.5h63c9.9 0 18.4 6.1 21.6 15.4l3.7 10.7c10.1 0 18.6 6 21.9 15.4l26.8 77.8s8.7 4.2 8.7 14.5v72.9c0 12.6-10.3 22.9-22.9 22.9h-9.5c-1 23.6-20.5 42.3-44.2 42.3-23.8 0-43.2-18.7-44.2-42.3h-82.9c-1 23.6-20.5 42.3-44.2 42.3-23.8 0-43.2-18.7-44.2-42.3h-8.7c-1 23.6-20.5 42.3-44.2 42.3-23.8 0-43.2-18.7-44.2-42.3h-25.9c-15 0-26.3-13.5-26.3-28.6v-41.4c0-2.2 1.8-4 4-4h5.3c-1.7-2.7-2.7-5.8-2.7-9.2v-99.2c0-5.3 2.4-10 6.2-13.2-3.8-3.2-6.2-8-6.2-13.2v-99.2c0-9.5 7.7-17.2 17.2-17.2h106.7c5.3 0 10 2.4 13.2 6.2 3.2-3.8 7.9-6.2 13.2-6.2h31.4zm47.8 8.1v45.5c0 2.8-3 5-6 3.5l-19.8-9.6-20.3 9.8c-2.7 1.3-5.7-.7-5.7-3.6v-45.6h-27.4c-5 0-9.2 4.1-9.2 9.2v99.2c0 5 4.2 9.2 9.2 9.2h106.7c5 0 9.2-4.2 9.2-9.2v-99.2c0-5-4.1-9.2-9.2-9.2zm-43.8 0v39.2l16.3-7.9c1-.5 2.3-.5 3.5 0l16.1 7.8v-39.2h-35.9zm71.3 125.6h-27.4v45.6c0 2.9-3 5-6 3.5l-19.8-9.6-20.3 9.8c-2.7 1.3-5.7-.7-5.7-3.6v-45.6h-27.4c-5 0-9.2 4.1-9.2 9.2v99.2c0 5 4.1 9.2 9.2 9.2h106.6c5 0 9.2-4.2 9.2-9.2v-99.3c-.1-5.1-4.2-9.2-9.2-9.2zm-35.5 0h-35.8v39.2l16.3-7.8c1-.5 2.3-.6 3.5 0l16.1 7.8v-39.2zm-82.2-4-2.2-2.2-2.2 2.2 2.2 2.2zm-42.8-121.6v45.5c0 2.8-3 5-6 3.5l-19.8-9.6-20.3 9.8c-2.7 1.3-5.7-.7-5.7-3.6v-45.6h-27.5c-5 0-9.2 4.1-9.2 9.2v99.2c0 5 4.1 9.2 9.2 9.2h106.7c5 0 9.2-4.2 9.2-9.2v-99.2c0-5-4.2-9.2-9.2-9.2zm-43.9 0v39.2l16.3-7.9c1-.5 2.3-.5 3.5 0l16 7.8v-39.2h-35.8zm71.3 125.6h-27.4v45.6c0 2.9-3 5-6 3.5l-19.8-9.6-20.3 9.8c-2.7 1.3-5.7-.7-5.7-3.6v-45.6h-27.5c-5 0-9.2 4.1-9.2 9.2v99.2c0 5 4.1 9.2 9.2 9.2h106.7c5 0 9.2-4.2 9.2-9.2v-99.2c0-5.2-4.2-9.3-9.2-9.3zm-35.5 0h-35.8v39.2l16.3-7.8c1-.5 2.3-.6 3.5 0l16 7.8zm185.8 9.1v174.5h40c3-21.7 21.6-38.3 43.9-38.3s40.9 16.5 43.9 38.3h9.8c8.2 0 14.9-6.7 14.9-14.9v-72.9c0-4.5-3.5-8.3-8.2-8.3h-75.3c-12 0-21.7-9.7-21.7-21.7v-56c0-12 9.8-21.7 21.7-21.7h25.8l-2.8-8.1c-2.1-6.2-7.6-10-14.1-10h-63c-8.2 0-14.9 6.7-14.9 14.9zm-17.2 116.5h-255.6v37.3c0 10.8 7.7 20.6 18.3 20.6h26.1c2.9-21.7 21.6-38.3 43.9-38.3s40.9 16.5 43.9 38.3h9.1c3-21.7 21.6-38.3 43.9-38.3s40.9 16.5 43.9 38.3h35.7v-58h-9.2zm101 46.5c15.5 0 23.4 18.9 12.4 29.9s-29.9 3.2-29.9-12.4c0-9.6 7.8-17.5 17.5-17.5zm6.7 10.8c-6-6-16.2-1.7-16.2 6.7s10.3 12.7 16.2 6.7c3.7-3.7 3.7-9.7 0-13.4zm-178.1-10.8c15.5 0 23.4 18.9 12.4 29.9s-29.9 3.2-29.9-12.4c0-9.6 7.8-17.5 17.5-17.5zm6.7 10.8c-6-6-16.2-1.7-16.2 6.7s10.3 12.7 16.2 6.7c3.7-3.7 3.7-9.7 0-13.4zm-103.6-10.8c15.5 0 23.4 18.9 12.4 29.9s-29.9 3.2-29.9-12.4c0-9.6 7.8-17.5 17.5-17.5zm6.7 10.8c-6-6-16.2-1.7-16.2 6.7s10.3 12.7 16.2 6.7c3.7-3.7 3.7-9.7 0-13.4zm115.9-19c-14.2-14.2-37.2-14.2-51.3 0-14.2 14.2-14.2 37.2 0 51.3 14.2 14.2 37.2 14.2 51.3 0 14.1-14.1 14.1-37.1 0-51.3zm-96.9 0c-21.8-21.8-59.9-8.3-61.9 23.8-1.2 20.3 15.3 38.1 36.3 38.1 20 0 36.3-16.2 36.3-36.3-.1-9.9-4.2-19-10.7-25.6zm268.3 0c-14.2-14.2-37.2-14.2-51.3 0-14.2 14.2-14.2 37.2 0 51.3 14.2 14.2 37.2 14.2 51.3 0 14.2-14.1 14.1-37.1 0-51.3zm33.2-84.4-25.3-73.3c-2.1-6.2-7.5-10-14.1-10h-34.4c-7.5 0-13.7 6.2-13.7 13.7v56c0 7.5 6.2 13.7 13.7 13.7h73.8z"/></g></svg>