<svg enable-background="new 0 0 512 512" height="512" viewBox="0 0 512 512" width="512" xmlns="http://www.w3.org/2000/svg" xmlns:xlink="http://www.w3.org/1999/xlink"><linearGradient id="lg1"><stop offset="0" stop-color="#02afd0"/><stop offset="1" stop-color="#6956a3"/></linearGradient><linearGradient id="SVGID_1_" gradientUnits="userSpaceOnUse" x1="287.462" x2="413.283" xlink:href="#lg1" y1="346.22" y2="220.399"/><linearGradient id="SVGID_2_" gradientUnits="userSpaceOnUse" x1="319.439" x2="381.304" xlink:href="#lg1" y1="297.339" y2="235.473"/><linearGradient id="SVGID_3_" gradientUnits="userSpaceOnUse" x1="260.414" x2="316.181" xlink:href="#lg1" y1="85.261" y2="29.494"/><linearGradient id="SVGID_4_" gradientUnits="userSpaceOnUse" x1="224.639" x2="351.957" xlink:href="#lg1" y1="153.729" y2="26.411"/><linearGradient id="SVGID_5_" gradientUnits="userSpaceOnUse" x1="71.584" x2="188.321" xlink:href="#lg1" y1="289.219" y2="172.482"/><linearGradient id="SVGID_6_" gradientUnits="userSpaceOnUse" x1="109.339" x2="150.564" xlink:href="#lg1" y1="249.056" y2="207.83"/><linearGradient id="SVGID_7_" gradientUnits="userSpaceOnUse" x1="97.317" x2="349.511" xlink:href="#lg1" y1="550.567" y2="298.374"/><linearGradient id="SVGID_8_" gradientUnits="userSpaceOnUse" x1="49.234" x2="77.802" xlink:href="#lg1" y1="470.002" y2="441.435"/><g id="Backup" display="none"><g display="inline"><g><ellipse cx="350.373" cy="267.403" fill="#ffd15b" rx="95.123" ry="42.702"/><path d="m350.373 341.918c52.534 0 95.123-19.116 95.123-42.702v-31.815c0 23.585-42.589 42.704-95.123 42.704-52.537 0-95.127-19.118-95.127-42.704v31.815c0 23.586 42.59 42.702 95.127 42.702z" fill="#935b50"/><g style="fill:none;stroke:#000;stroke-width:8;stroke-linecap:round;stroke-linejoin:round;stroke-miterlimit:10"><path d="m255.246 267.401c0-23.583 42.59-42.701 95.127-42.701 52.534 0 95.123 19.118 95.123 42.701v31.815c0 23.585-42.589 42.702-95.123 42.702-52.537 0-95.127-19.116-95.127-42.702z"/><path d="m255.246 267.401c0 23.585 42.59 42.704 95.127 42.704 52.534 0 95.123-19.118 95.123-42.704"/><g><g><path d="m350.373 266.406c0 7.78-8.822 14.086-19.696 14.086-10.882 0-19.7-6.306-19.7-14.086 0-7.779 8.818-14.086 19.7-14.086"/><path d="m350.373 266.406c0-7.779 8.818-14.086 19.697-14.086s19.701 6.308 19.701 14.086c0 7.78-8.822 14.086-19.701 14.086"/></g><path d="m294.162 266.406h16.815"/><path d="m406.58 266.406h-16.809"/></g></g></g><g><path d="m348.059 137.805c-4.197-16.557-21.612-30.104-38.693-30.104h-.162l-20.905 31.184-20.905-31.184h-.162c-17.081 0-34.494 13.547-38.695 30.104l-2.867 11.296c15.694 16.645 37.946 27.038 62.63 27.038 24.683 0 46.933-10.393 62.628-27.038z" fill="#01d0fb"/><g stroke="#000" stroke-linecap="round" stroke-linejoin="round" stroke-miterlimit="10" stroke-width="8"><path d="m259.123 51.294c0-22.009 13.061-30.431 29.175-30.431 16.113 0 29.174 8.422 29.174 30.431 0 22.007-13.061 49.267-29.174 49.267-16.114 0-29.175-27.259-29.175-49.267z" fill="#ffcebf"/><circle cx="288.297" cy="90.069" fill="none" r="86.069"/><path d="m350.926 148.186-2.867-10.381c-4.197-16.557-21.612-30.104-38.693-30.104h-.162l-20.905 31.184-20.905-31.184h-.162c-17.081 0-34.494 13.547-38.695 30.104l-2.867 10.381" fill="none"/></g></g><g stroke="#000" stroke-linecap="round" stroke-linejoin="round" stroke-miterlimit="10" stroke-width="8"><path d="m185.097 233.063 24.367-15.526c-1.312-9.655-4.324-18.764-8.754-27.007l-28.861 1.763c-5.548-6.423-12.534-11.564-20.472-14.898l-7.229-27.944c-4.611-.823-9.35-1.277-14.197-1.277s-9.587.454-14.197 1.277l-7.228 27.944c-7.938 3.334-14.926 8.476-20.472 14.898l-28.861-1.763c-4.429 8.243-7.441 17.352-8.754 27.007l24.367 15.526c.725 8.764 3.476 16.953 7.806 24.082l-10.575 26.848c6.566 6.842 14.319 12.538 22.948 16.72l22.311-18.388c4.066.952 8.299 1.47 12.655 1.47s8.592-.518 12.656-1.47l22.311 18.388c8.629-4.184 16.381-9.877 22.945-16.723l-10.572-26.845c4.328-7.129 7.078-15.318 7.806-24.082zm-55.146 20.544c-13.898 0-25.166-11.267-25.166-25.164 0-13.898 11.268-25.164 25.166-25.164 13.9 0 25.164 11.266 25.164 25.164 0 13.897-11.263 25.164-25.164 25.164z" fill="#3a313a"/><g><path d="m476.236 433.12c-4.999-12.281-20.455-17.711-34.34-12.057l-8.895 3.621c3.26-7.044 3.352-15.048-.535-21.675-6.636-11.301-22.414-14.493-35.264-7.236-.484-1.681-1.16-3.322-2.076-4.881-6.713-11.434-22.788-14.587-35.717-6.995l-71.844 42.171c-1.766-3.775-4.403-7.302-7.888-10.221l-91.292-64.56h-106.938l-.006 104.871 126.917 51.836 147.894.006 103.827-42.267c13.885-5.656 21.155-20.328 16.157-32.613z" fill="#ffcebf"/><g fill="none"><path d="m396.75 396.022-88.533 51.967-21.457 3.116"/><path d="m433.022 424.684-86.209 35.088h-79.093v-.002c6.707-.107 13.054-2.763 17.374-7.926 5.935-7.087 6.548-17.102 2.483-25.78"/><path d="m188.385 414.192 60.328 38.635c5.662 4.739 12.504 7.035 19.008 6.933"/></g><path d="m34.186 476.266c0 7.334 6 13.335 13.334 13.337l31.991.001c7.334.001 13.335-6 13.335-13.334l.004-138.351c0-7.334-6.001-13.335-13.336-13.337l-31.994-.002c-7.334-.001-13.335 6-13.335 13.334z" fill="#01d0fb"/><circle cx="63.517" cy="455.718" fill="#3a313a" r="16.209"/></g></g></g></g><g id="Main" display="none"><g display="inline"><g><ellipse cx="350.373" cy="267.403" fill="#ffd15b" rx="95.123" ry="42.702"/><path d="m350.373 341.918c52.534 0 95.123-19.116 95.123-42.702v-31.815c0 23.585-42.589 42.704-95.123 42.704-52.537 0-95.127-19.118-95.127-42.704v31.815c0 23.586 42.59 42.702 95.127 42.702z" fill="#935b50"/><g style="fill:none;stroke:#000;stroke-width:8;stroke-linecap:round;stroke-linejoin:round;stroke-miterlimit:10"><path d="m255.246 267.401c0-23.583 42.59-42.701 95.127-42.701 52.534 0 95.123 19.118 95.123 42.701v31.815c0 23.585-42.589 42.702-95.123 42.702-52.537 0-95.127-19.116-95.127-42.702z"/><path d="m255.246 267.401c0 23.585 42.59 42.704 95.127 42.704 52.534 0 95.123-19.118 95.123-42.704"/><g><g><path d="m350.373 266.406c0 7.78-8.822 14.086-19.696 14.086-10.882 0-19.7-6.306-19.7-14.086 0-7.779 8.818-14.086 19.7-14.086"/><path d="m350.373 266.406c0-7.779 8.818-14.086 19.697-14.086s19.701 6.308 19.701 14.086c0 7.78-8.822 14.086-19.701 14.086"/></g><path d="m294.162 266.406h16.815"/><path d="m406.58 266.406h-16.809"/></g></g></g><g><path d="m348.059 137.805c-4.197-16.557-21.612-30.104-38.693-30.104h-.162l-20.905 31.184-20.905-31.184h-.162c-17.081 0-34.494 13.547-38.695 30.104l-2.867 11.296c15.694 16.645 37.946 27.038 62.63 27.038 24.683 0 46.933-10.393 62.628-27.038z" fill="#01d0fb"/><g stroke="#000" stroke-linecap="round" stroke-linejoin="round" stroke-miterlimit="10" stroke-width="8"><path d="m259.123 51.294c0-22.009 13.061-30.431 29.175-30.431 16.113 0 29.174 8.422 29.174 30.431 0 22.007-13.061 49.267-29.174 49.267-16.114 0-29.175-27.259-29.175-49.267z" fill="#ffcebf"/><circle cx="288.297" cy="90.069" fill="none" r="86.069"/><path d="m350.926 148.186-2.867-10.381c-4.197-16.557-21.612-30.104-38.693-30.104h-.162l-20.905 31.184-20.905-31.184h-.162c-17.081 0-34.494 13.547-38.695 30.104l-2.867 10.381" fill="none"/></g></g><g stroke="#000" stroke-linecap="round" stroke-linejoin="round" stroke-miterlimit="10" stroke-width="8"><path d="m185.097 233.063 24.367-15.526c-1.312-9.655-4.324-18.764-8.754-27.007l-28.861 1.763c-5.548-6.423-12.534-11.564-20.472-14.898l-7.229-27.944c-4.611-.823-9.35-1.277-14.197-1.277s-9.587.454-14.197 1.277l-7.228 27.944c-7.938 3.334-14.926 8.476-20.472 14.898l-28.861-1.763c-4.429 8.243-7.441 17.352-8.754 27.007l24.367 15.526c.725 8.764 3.476 16.953 7.806 24.082l-10.575 26.848c6.566 6.842 14.319 12.538 22.948 16.72l22.311-18.388c4.066.952 8.299 1.47 12.655 1.47s8.592-.518 12.656-1.47l22.311 18.388c8.629-4.184 16.381-9.877 22.945-16.723l-10.572-26.845c4.328-7.129 7.078-15.318 7.806-24.082zm-55.146 20.544c-13.898 0-25.166-11.267-25.166-25.164 0-13.898 11.268-25.164 25.166-25.164 13.9 0 25.164 11.266 25.164 25.164 0 13.897-11.263 25.164-25.164 25.164z" fill="#3a313a"/><g><path d="m476.236 433.12c-4.999-12.281-20.455-17.711-34.34-12.057l-8.895 3.621c3.26-7.044 3.352-15.048-.535-21.675-6.636-11.301-22.414-14.493-35.264-7.236-.484-1.681-1.16-3.322-2.076-4.881-6.713-11.434-22.788-14.587-35.717-6.995l-71.844 42.171c-1.766-3.775-4.403-7.302-7.888-10.221l-91.292-64.56h-106.938l-.006 104.871 126.917 51.836 147.894.006 103.827-42.267c13.885-5.656 21.155-20.328 16.157-32.613z" fill="#ffcebf"/><g fill="none"><path d="m396.75 396.022-88.533 51.967-21.457 3.116"/><path d="m433.022 424.684-86.209 35.088h-79.093v-.002c6.707-.107 13.054-2.763 17.374-7.926 5.935-7.087 6.548-17.102 2.483-25.78"/><path d="m188.385 414.192 60.328 38.635c5.662 4.739 12.504 7.035 19.008 6.933"/></g><path d="m34.186 476.266c0 7.334 6 13.335 13.334 13.337l31.991.001c7.334.001 13.335-6 13.335-13.334l.004-138.351c0-7.334-6.001-13.335-13.336-13.337l-31.994-.002c-7.334-.001-13.335 6-13.335 13.334z" fill="#01d0fb"/><circle cx="63.517" cy="455.718" fill="#3a313a" r="16.209"/></g></g></g></g><g id="Shadow"><g><g><ellipse cx="350.373" cy="267.403" fill="#ffd15b" rx="95.123" ry="42.702"/><path d="m350.373 341.918c52.534 0 95.123-19.116 95.123-42.702v-31.815c0 23.585-42.589 42.704-95.123 42.704-52.537 0-95.127-19.118-95.127-42.704v31.815c0 23.586 42.59 42.702 95.127 42.702z" fill="#935b50"/></g><g><path d="m348.059 137.805c-4.197-16.557-21.612-30.104-38.693-30.104h-.162l-20.905 31.184-20.905-31.184h-.162c-17.081 0-34.494 13.547-38.695 30.104l-2.867 11.296c15.694 16.645 37.946 27.038 62.63 27.038 24.683 0 46.933-10.393 62.628-27.038z" fill="#01d0fb"/><path d="m259.123 51.294c0-22.009 13.061-30.431 29.175-30.431 16.113 0 29.174 8.422 29.174 30.431 0 22.007-13.061 49.267-29.174 49.267-16.114 0-29.175-27.259-29.175-49.267z" fill="#ffcebf"/></g><path d="m185.097 233.063 24.367-15.526c-1.312-9.655-4.324-18.764-8.754-27.007l-28.861 1.763c-5.548-6.423-12.534-11.564-20.472-14.898l-7.229-27.944c-4.611-.823-9.35-1.277-14.197-1.277s-9.587.454-14.197 1.277l-7.228 27.944c-7.938 3.334-14.926 8.476-20.472 14.898l-28.861-1.763c-4.429 8.243-7.441 17.352-8.754 27.007l24.367 15.526c.725 8.764 3.476 16.953 7.806 24.082l-10.575 26.848c6.566 6.842 14.319 12.538 22.948 16.72l22.311-18.388c4.066.952 8.299 1.47 12.655 1.47s8.592-.518 12.656-1.47l22.311 18.388c8.629-4.184 16.381-9.877 22.945-16.723l-10.572-26.845c4.328-7.129 7.078-15.318 7.806-24.082zm-55.146 20.544c-13.898 0-25.166-11.267-25.166-25.164 0-13.898 11.268-25.164 25.166-25.164 13.9 0 25.164 11.266 25.164 25.164 0 13.897-11.263 25.164-25.164 25.164z" fill="#3a313a"/><g><path d="m476.236 433.12c-4.999-12.281-20.455-17.711-34.34-12.057l-8.895 3.621c3.26-7.044 3.352-15.048-.535-21.675-6.636-11.301-22.414-14.493-35.264-7.236-.484-1.681-1.16-3.322-2.076-4.881-6.713-11.434-22.788-14.587-35.717-6.995l-71.844 42.171c-1.766-3.775-4.403-7.302-7.888-10.221l-91.292-64.56h-106.938l-.006 104.871 126.917 51.836 147.894.006 103.827-42.267c13.885-5.656 21.155-20.328 16.157-32.613z" fill="#ffcebf"/><path d="m34.186 476.266c0 7.334 6 13.335 13.334 13.337l31.991.001c7.334.001 13.335-6 13.335-13.334l.004-138.351c0-7.334-6.001-13.335-13.336-13.337l-31.994-.002c-7.334-.001-13.335 6-13.335 13.334z" fill="#01d0fb"/><circle cx="63.517" cy="455.718" fill="#3a313a" r="16.209"/></g></g></g><g id="Line" style="display:none;fill:none;stroke:#000;stroke-width:8;stroke-linecap:round;stroke-linejoin:round;stroke-miterlimit:10"><path d="m255.246 267.401c0-23.583 42.59-42.701 95.127-42.701 52.534 0 95.123 19.118 95.123 42.701v31.815c0 23.585-42.589 42.702-95.123 42.702-52.537 0-95.127-19.116-95.127-42.702z" display="inline"/><path d="m255.246 267.401c0 23.585 42.59 42.704 95.127 42.704 52.534 0 95.123-19.118 95.123-42.704" display="inline"/><g display="inline"><g><path d="m350.373 266.406c0 7.78-8.822 14.086-19.696 14.086-10.882 0-19.7-6.306-19.7-14.086 0-7.779 8.818-14.086 19.7-14.086"/><path d="m350.373 266.406c0-7.779 8.818-14.086 19.697-14.086s19.701 6.308 19.701 14.086c0 7.78-8.822 14.086-19.701 14.086"/></g><path d="m294.162 266.406h16.815"/><path d="m406.58 266.406h-16.809"/></g><circle cx="288.297" cy="90.069" display="inline" r="86.069"/><path d="m350.926 148.186-2.867-10.381c-4.197-16.557-21.612-30.104-38.693-30.104h-.162l-20.905 31.184-20.905-31.184h-.162c-17.081 0-34.494 13.547-38.695 30.104l-2.867 10.381" display="inline"/><path d="m396.75 396.022-88.533 51.967-21.457 3.116" display="inline"/><path d="m433.022 424.684-86.209 35.088h-79.093v-.002c6.707-.107 13.054-2.763 17.374-7.926 5.935-7.087 6.548-17.102 2.483-25.78" display="inline"/><path d="m188.385 414.192 60.328 38.635c5.662 4.739 12.504 7.035 19.008 6.933" display="inline"/></g><g id="Base"><g><path d="m355.373 296.105c-49.294 0-86.127-17.794-86.127-33.704 0-15.909 36.833-33.701 86.127-33.701 49.292 0 86.123 17.792 86.123 33.701 0 15.91-36.831 33.704-86.123 33.704zm19.697-39.785c6.534 0 10.701 3.34 10.701 5.086s-4.167 5.086-10.701 5.086c-4.963 0-9 4.038-9 9s4.037 9 9 9c11.853 0 22.169-5.633 26.508-14.086h10.002c4.963 0 9-4.038 9-9s-4.037-9-9-9h-10.001c-4.34-8.453-14.656-14.086-26.509-14.086-16.092 0-28.697 10.141-28.697 23.086 0 1.746-4.165 5.086-10.696 5.086-6.533 0-10.7-3.34-10.7-5.086 0-1.747 4.167-5.086 10.7-5.086 4.963 0 9-4.038 9-9s-4.037-9-9-9c-11.852 0-22.168 5.634-26.508 14.086h-10.007c-4.963 0-9 4.038-9 9s4.037 9 9 9h10.007c4.34 8.453 14.656 14.086 26.508 14.086 16.092 0 28.696-10.141 28.696-23.086 0-1.746 4.166-5.086 10.697-5.086z" fill="#fee45a"/><path d="m355.373 327.918c-49.294 0-86.127-17.793-86.127-33.702v-2.025c18.83 13.7 50.446 21.914 86.127 21.914 35.679 0 67.293-8.213 86.123-21.914v2.025c0 15.909-36.831 33.702-86.123 33.702z" fill="#ab695d"/><path d="m293.298 162.139c-19.765 0-38.384-7.414-52.744-20.94l1.705-6.18c2.763-10.89 14.1-20.825 25.603-22.915l17.961 26.792c1.673 2.497 4.468 3.988 7.476 3.988s5.803-1.492 7.477-3.99l17.964-26.797c11.654 2.065 22.796 11.871 25.618 23.001l1.684 6.101c-14.363 13.526-32.98 20.94-52.744 20.94z" fill="#62dbfb"/><path d="m293.298 86.561c-9.239 0-20.175-21.827-20.175-40.267 0-14.621 6.411-21.431 20.175-21.431s20.174 6.81 20.174 21.431c0 18.44-10.936 40.267-20.174 40.267z" fill="#ffdfcf"/><path d="m98.908 284.937c-4.013-2.36-7.794-5.118-11.295-8.239l8.373-21.255c1.024-2.601.77-5.58-.681-7.969-3.735-6.149-5.932-12.929-6.529-20.152-.229-2.785-1.774-5.346-4.134-6.849l-19.302-12.3c.994-4.574 2.436-9.023 4.305-13.294l22.861 1.397c.191.011.367.016.542.016 2.625 0 5.11-1.137 6.82-3.12 4.681-5.42 10.609-9.736 17.144-12.48 2.572-1.08 4.527-3.339 5.228-6.042l5.722-22.124c2.343-.233 4.683-.351 6.989-.351 2.308 0 4.648.118 6.991.352l5.723 22.122c.698 2.702 2.652 4.961 5.227 6.043 6.533 2.744 12.462 7.061 17.146 12.484 1.714 1.981 4.193 3.117 6.806 3.117.187 0 .374-.006.562-.018l22.855-1.396c1.868 4.269 3.31 8.719 4.304 13.294l-19.303 12.299c-2.357 1.503-3.901 4.062-4.133 6.845-.6 7.227-2.797 14.007-6.529 20.155-1.451 2.391-1.705 5.37-.682 7.969l8.37 21.254c-3.498 3.12-7.279 5.878-11.294 8.239l-17.662-14.557c-1.607-1.325-3.64-2.056-5.723-2.056-.693 0-1.387.081-2.063.24-3.466.812-7.033 1.225-10.593 1.225-3.561 0-7.128-.413-10.605-1.227-.666-.157-1.359-.238-2.052-.238-2.083 0-4.116.73-5.725 2.056zm36.043-95.658c-18.839 0-34.166 15.326-34.166 34.164s15.327 34.164 34.166 34.164c18.838 0 34.164-15.326 34.164-34.164s-15.326-34.164-34.164-34.164z" fill="#685e68"/><g fill="#ffdfcf"><path d="m326.255 445.772s80.091-47.012 80.111-47.024c.084-.042.171-.087.263-.139 3.151-1.78 6.646-2.721 10.104-2.721 5.668 0 10.517 2.496 12.972 6.676 1.761 3.003 2.176 6.599 1.22 10.292l-80.873 32.917h-23.797z"/><path d="m304.081 435.222c.28-3.315.052-6.7-.685-10.076l65.57-38.488c3.231-1.897 6.83-2.9 10.408-2.9 4.183 0 7.921 1.359 10.582 3.751l-79.777 46.827z"/><path d="m215.125 493.995-108.279-44.224.004-94.483h83.677l88.63 62.677c2.253 1.947 4.021 4.273 5.258 6.917l.153.326.022.035c2.54 5.712 2.015 11.751-1.396 15.825-2.432 2.906-6.11 4.569-10.375 4.695l-.519.002c-4.533 0-9.083-1.718-12.811-4.838-.283-.238-.592-.465-.913-.671l-60.338-38.642c-1.452-.93-3.129-1.422-4.85-1.422-3.085 0-5.92 1.55-7.583 4.147-1.296 2.024-1.727 4.433-1.212 6.781.515 2.349 1.913 4.356 3.938 5.652l59.876 38.346c6.871 5.574 15.336 8.642 23.874 8.646l.439.008h79.093c1.169 0 2.312-.224 3.394-.664l86.568-35.234.046-.028 8.469-3.447c2.567-1.045 5.229-1.575 7.913-1.575 6.779 0 12.549 3.411 14.697 8.688 3.14 7.717-1.892 17.087-11.216 20.886l-102.194 41.602z"/></g><path d="m72.563 475.603c6.657-1.079 12.449-4.773 16.282-9.992v5.659c0 1.16-.442 2.215-1.28 3.053s-1.894 1.281-3.052 1.281zm-20.042 0c-2.39 0-4.335-1.946-4.335-4.337v-5.658c3.833 5.22 9.625 8.916 16.282 9.996zm-4.336-142.69c0-2.39 1.944-4.334 4.335-4.334l31.993.002c2.391 0 4.337 1.946 4.337 4.337l-.003 102.908c-4.592-6.252-11.995-10.318-20.33-10.318-8.336 0-15.739 4.067-20.331 10.321z" fill="#62dbfb"/><path d="m68.517 457.928c-3.975 0-7.209-3.234-7.209-7.209s3.234-7.209 7.209-7.209c3.976 0 7.21 3.234 7.21 7.209s-3.235 7.209-7.21 7.209z" fill="#685e68"/></g></g><g id="Blue" display="none"><g display="inline"><path d="m350.373 228.7c-49.396 0-91.127 17.723-91.127 38.701 0 20.979 41.731 38.704 91.127 38.704 49.394 0 91.123-17.724 91.123-38.704 0-20.978-41.729-38.701-91.123-38.701zm56.207 41.706h-13.374c-2.326 8.154-11.653 14.086-23.136 14.086-2.209 0-4-1.791-4-4s1.791-4 4-4c8.511 0 15.701-4.619 15.701-10.086s-7.19-10.086-15.701-10.086c-8.509 0-15.697 4.619-15.697 10.086 0 10.142-10.408 18.086-23.696 18.086-11.482 0-20.809-5.932-23.136-14.086h-13.379c-2.209 0-4-1.791-4-4s1.791-4 4-4h13.379c2.327-8.154 11.653-14.086 23.136-14.086 2.209 0 4 1.791 4 4s-1.791 4-4 4c-8.511 0-15.7 4.619-15.7 10.086s7.189 10.086 15.7 10.086c8.508 0 15.696-4.619 15.696-10.086 0-10.142 10.409-18.086 23.697-18.086 11.482 0 20.81 5.932 23.137 14.086h13.373c2.209 0 4 1.791 4 4s-1.791 4-4 4z" fill="#f9f7f8"/><g fill="#9bc9ff"><path d="m441.496 286.106c-15.029 16.623-49.734 27.999-91.123 27.999-41.391 0-76.098-11.376-91.127-27.999v13.11c0 20.979 41.731 38.702 91.127 38.702 49.394 0 91.123-17.723 91.123-38.702z"/><path d="m346.646 147.713-2.442-8.844c-3.586-14.139-18.359-26.114-32.91-27.103l-19.673 29.345c-.742 1.108-1.988 1.772-3.322 1.772s-2.58-.665-3.322-1.772l-19.673-29.345c-14.549.989-29.322 12.961-32.891 27.022l-2.464 8.924c14.888 15.068 35.544 24.426 58.35 24.426s43.459-9.357 58.347-24.425z"/><path d="m288.298 96.561c13.321 0 25.174-25.313 25.174-45.267 0-21.846-13.689-26.431-25.174-26.431s-25.175 4.585-25.175 26.431c0 19.954 11.854 45.267 25.175 45.267z"/><path d="m76.956 229.689c1.055.672 1.734 1.798 1.837 3.044.662 8.003 3.097 15.517 7.238 22.334.648 1.068.761 2.379.303 3.542l-9.619 24.42c5.302 5.177 11.252 9.515 17.742 12.934l20.295-16.727c.962-.793 2.242-1.094 3.456-.808 7.738 1.812 15.757 1.811 23.487 0 1.214-.287 2.493.014 3.456.808l20.294 16.727c6.495-3.422 12.444-7.761 17.74-12.935l-9.616-24.418c-.458-1.163-.346-2.473.303-3.542 4.139-6.816 6.574-14.331 7.238-22.336.104-1.245.783-2.371 1.837-3.042l22.17-14.125c-1.236-7.29-3.505-14.294-6.766-20.882l-26.259 1.604c-1.253.078-2.455-.434-3.271-1.378-5.186-6.003-11.753-10.784-18.993-13.825-1.151-.484-2.011-1.477-2.323-2.686l-6.575-25.416c-7.364-1.073-14.595-1.073-21.957 0l-6.573 25.416c-.313 1.209-1.173 2.203-2.324 2.687-7.242 3.042-13.81 7.822-18.993 13.825-.814.944-2.018 1.451-3.271 1.378l-26.259-1.604c-3.26 6.589-5.529 13.593-6.766 20.882zm52.995-30.41c16.081 0 29.164 13.083 29.164 29.164s-13.083 29.164-29.164 29.164c-16.082 0-29.166-13.083-29.166-29.164s13.084-29.164 29.166-29.164z"/></g><path d="m411.733 395.888c-4.318 0-8.663 1.165-12.563 3.368-.075.042-.158.062-.234.1-.057.037-.103.083-.161.117l-88.533 51.967c-.445.262-.938.435-1.449.509l-21.181 3.076c-.223.25-.44.508-.672.748h59.091l83.927-34.16c2.229-5.751 1.909-11.721-.94-16.581-3.363-5.725-9.825-9.144-17.285-9.144z" fill="#f9f7f8"/><path d="m292.768 446.191 14.1-2.048 85.395-50.124c-.184-.377-.376-.747-.584-1.101-3.367-5.736-9.836-9.16-17.303-9.16-4.468 0-8.941 1.241-12.939 3.588l-68.879 40.43c2.111 6.244 2.155 12.683.21 18.415z" fill="#f9f7f8"/><path d="m96.85 355.288-.004 102.842 112.298 45.865 146.325.005 103.103-41.972c11.875-4.838 18.139-17.13 13.96-27.401-2.919-7.17-10.506-11.803-19.328-11.803-3.334 0-6.631.654-9.798 1.944l-8.808 3.585c-.023.01-.043.026-.067.036l-86.209 35.088c-.479.195-.991.295-1.508.295h-79.093c-.037 0-.07-.01-.107-.011-.104.001-.209.002-.313.002-7.501 0-14.912-2.723-20.952-7.701l-60.12-38.502c-1.86-1.191-2.402-3.666-1.211-5.526s3.664-2.403 5.525-1.211l60.328 38.635c.143.092.28.192.41.301 4.635 3.879 10.312 6.004 16.02 6.004.119 0 .238-.001.358-.003.021 0 .043.005.064.005 5.813-.109 10.891-2.41 14.305-6.489 4.732-5.652 5.48-13.858 1.963-21.437-.014-.027-.033-.05-.047-.078-1.573-3.363-3.831-6.305-6.712-8.747l-90.116-63.728h-90.266z" fill="#f9f7f8"/><path d="m79.514 485.604c2.478 0 4.817-.975 6.587-2.745 1.771-1.771 2.745-4.11 2.745-6.589l.004-138.351c0-5.147-4.188-9.336-9.337-9.337l-31.993-.002c-5.148 0-9.335 4.187-9.335 9.334l.001 138.353c0 5.147 4.188 9.336 9.335 9.337l31.99.001.003 4zm-15.997-9.676c-11.144 0-20.209-9.066-20.209-20.209s9.065-20.209 20.209-20.209 20.21 9.066 20.21 20.209-9.067 20.209-20.21 20.209z" fill="#9bc9ff"/><path d="m63.517 443.509c-6.732 0-12.209 5.477-12.209 12.209s5.477 12.209 12.209 12.209 12.21-5.477 12.21-12.209-5.478-12.209-12.21-12.209z" fill="#f9f7f8"/></g></g><g id="Glyph" display="none"><path d="m259.292 271.646c0 21.313 42.394 39.318 92.573 39.318 50.178 0 92.569-18.005 92.569-39.318 0-21.311-42.392-39.315-92.569-39.315-50.179 0-92.573 18.004-92.573 39.315zm112.583-19.385c11.665 0 21.14 6.026 23.504 14.31h13.585c2.244 0 4.063 1.82 4.063 4.063 0 2.244-1.819 4.063-4.063 4.063h-13.586c-2.363 8.283-11.838 14.31-23.503 14.31-2.244 0-4.063-1.819-4.063-4.063s1.819-4.063 4.063-4.063c8.646 0 15.95-4.692 15.95-10.246s-7.305-10.247-15.95-10.247c-8.644 0-15.946 4.693-15.946 10.247 0 10.303-10.573 18.373-24.072 18.373-11.665 0-21.14-6.026-23.503-14.31h-13.592c-2.244 0-4.063-1.819-4.063-4.063s1.819-4.063 4.063-4.063h13.592c2.363-8.284 11.838-14.31 23.503-14.31 2.244 0 4.063 1.82 4.063 4.063 0 2.244-1.819 4.063-4.063 4.063-8.646 0-15.95 4.693-15.95 10.247s7.304 10.246 15.95 10.246c8.643 0 15.945-4.692 15.945-10.246 0-10.303 10.574-18.374 24.073-18.374zm-20.01 91.021c-50.18 0-92.573-18.004-92.573-39.316v-13.318c15.268 16.886 50.525 28.443 92.573 28.443 42.046 0 77.302-11.557 92.569-28.443v13.318c.001 21.311-42.391 39.316-92.569 39.316zm-88.635-291.174c0-22.192 13.907-26.851 25.574-26.851s25.573 4.658 25.573 26.851c0 20.27-12.041 45.985-25.573 45.985-13.533.001-25.574-25.715-25.574-45.985zm-187.255 184.319c.672 8.13 3.146 15.763 7.353 22.689.659 1.085.773 2.417.308 3.599l-9.771 24.808c5.386 5.259 11.431 9.666 18.023 13.139l20.617-16.993c.978-.805 2.277-1.111 3.511-.82 7.861 1.841 16.007 1.84 23.86 0 1.233-.291 2.533.014 3.511.82l20.616 16.992c6.599-3.477 12.642-7.884 18.021-13.14l-9.769-24.806c-.465-1.182-.352-2.513.308-3.598 4.204-6.924 6.679-14.559 7.354-22.691.104-1.265.795-2.408 1.865-3.091l22.522-14.35c-1.256-7.405-3.561-14.521-6.873-21.214l-26.676 1.63c-1.272.079-2.494-.44-3.323-1.4-5.268-6.099-11.939-10.956-19.295-14.044-1.17-.492-2.043-1.5-2.36-2.729l-6.679-25.819c-7.481-1.09-14.827-1.09-22.306 0l-6.678 25.819c-.318 1.229-1.191 2.238-2.361 2.729-7.357 3.09-14.028 7.946-19.295 14.044-.827.959-2.049 1.474-3.323 1.4l-26.676-1.63c-3.312 6.693-5.617 13.809-6.873 21.214l22.522 14.35c1.072.683 1.762 1.826 1.867 3.092zm51.969-33.985c16.336 0 29.627 13.291 29.627 29.627s-13.291 29.627-29.627 29.627c-16.337 0-29.629-13.291-29.629-29.627s13.292-29.627 29.629-29.627zm160.163 259.805 21.517-3.125c.52-.076 1.02-.251 1.473-.517l89.938-52.792c.06-.035.105-.082.163-.119.077-.038.162-.058.238-.101 3.962-2.238 8.376-3.421 12.763-3.421 7.578 0 14.143 3.474 17.558 9.289 2.895 4.937 3.22 11.001.955 16.844l-85.259 34.702h-60.028c.235-.245.456-.507.682-.76zm5.239-8.974c1.976-5.823 1.931-12.364-.215-18.707l69.973-41.072c4.062-2.385 8.605-3.646 13.145-3.646 7.585 0 14.156 3.478 17.577 9.306.212.36.407.735.594 1.119l-86.75 50.919zm144.081-18.121 8.947-3.642c3.217-1.31 6.566-1.975 9.953-1.975 8.963 0 16.67 4.707 19.635 11.991 4.245 10.434-2.117 22.921-14.181 27.836l-104.739 42.638-148.648-.005-114.08-46.593.004-104.474h91.698l91.547 64.739c2.927 2.481 5.221 5.47 6.818 8.886.014.028.034.051.048.079 3.573 7.699 2.813 16.035-1.994 21.777-3.469 4.144-8.627 6.48-14.532 6.592-.021 0-.043-.005-.065-.005-.122.002-.243.003-.363.003-5.799 0-11.565-2.158-16.274-6.099-.132-.111-.271-.213-.416-.306l-61.286-39.249c-1.891-1.211-4.403-.659-5.613 1.23-1.21 1.89-.659 4.403 1.23 5.614l61.074 39.113c6.136 5.058 13.665 7.823 21.285 7.823.105 0 .212-.001.318-.002.037.001.071.011.108.011h80.349c.524 0 1.046-.102 1.532-.299l87.577-35.646c.024-.01.043-.027.068-.037zm-393.222 58.159 32.498.001.003 4.063v-4.063c2.518 0 4.895-.991 6.691-2.789 1.799-1.799 2.789-4.176 2.789-6.693l.004-140.547c0-5.229-4.255-9.484-9.485-9.485l-32.501-.003c-5.229 0-9.482 4.254-9.482 9.482l.001 140.548c0 5.23 4.254 9.485 9.482 9.486zm16.25-50.889c11.32 0 20.531 9.209 20.531 20.53 0 11.32-9.211 20.53-20.531 20.53s-20.529-9.21-20.529-20.53c0-11.321 9.209-20.53 20.529-20.53zm-12.402 20.53c0-6.839 5.563-12.403 12.402-12.403 6.84 0 12.404 5.564 12.404 12.403s-5.564 12.403-12.404 12.403c-6.839 0-12.402-5.564-12.402-12.403zm240.752-279.954c50.452 0 91.498-41.046 91.498-91.499s-41.046-91.499-91.498-91.499c-50.453 0-91.5 41.046-91.5 91.499s41.047 91.499 91.5 91.499zm-4.303-8.237c1.425.073 2.859.11 4.303.11s2.877-.037 4.303-.11c-1.426.073-2.859.11-4.303.11s-2.878-.037-4.303-.11zm4.303-166.634c45.971 0 83.371 37.4 83.371 83.372 0 31.491-17.553 58.953-43.384 73.134 7.123-3.913 13.617-8.836 19.286-14.575l-2.48-8.984c-3.644-14.363-18.651-26.528-33.433-27.533l-19.985 29.811c-.754 1.125-2.02 1.801-3.375 1.801s-2.621-.675-3.375-1.801l-19.985-29.811c-14.779 1.005-29.787 13.167-33.412 27.451l-2.504 9.066c5.664 5.733 12.151 10.651 19.267 14.563-25.82-14.185-43.363-41.64-43.363-73.121-.001-45.973 37.399-83.373 83.372-83.373zm5.462 166.546c1.033-.068 2.067-.133 3.091-.238-1.025.104-2.058.17-3.091.238zm4.281-.39c1.004-.118 2.009-.232 3.002-.386-.994.153-1.998.269-3.002.386zm4.094-.582c1.015-.17 2.031-.34 3.034-.548-1.003.207-2.02.378-3.034.548zm3.991-.769c1.04-.227 2.078-.458 3.104-.724-1.026.265-2.064.497-3.104.724zm3.854-.938c1.084-.293 2.166-.594 3.233-.929-1.067.335-2.149.636-3.233.929zm3.803-1.122c1.12-.361 2.234-.734 3.333-1.141-1.1.407-2.213.781-3.333 1.141zm3.741-1.301c1.146-.431 2.285-.879 3.407-1.358-1.122.478-2.26.927-3.407 1.358zm3.668-1.477c1.168-.503 2.324-1.028 3.464-1.583-1.141.555-2.296 1.08-3.464 1.583zm3.578-1.642c1.185-.579 2.355-1.183 3.509-1.816-1.153.633-2.324 1.238-3.509 1.816zm-41.925 8.221c-1.036-.068-2.074-.134-3.1-.239 1.025.106 2.063.171 3.1.239zm-4.277-.388c-1.008-.118-2.018-.234-3.016-.388.999.154 2.008.27 3.016.388zm-4.083-.579c-1.025-.172-2.05-.344-3.061-.553 1.011.209 2.036.381 3.061.553zm-3.982-.766c-1.052-.229-2.101-.464-3.137-.732 1.036.269 2.085.502 3.137.732zm-3.889-.946c-1.085-.293-2.167-.594-3.233-.928 1.066.334 2.149.635 3.233.928zm-3.808-1.123c-1.119-.36-2.231-.733-3.328-1.139 1.097.405 2.209.778 3.328 1.139zm-3.739-1.302c-1.146-.43-2.282-.878-3.403-1.357 1.121.479 2.258.927 3.403 1.357zm-3.678-1.48c-1.162-.501-2.314-1.024-3.449-1.577 1.135.553 2.287 1.075 3.449 1.577zm-3.59-1.65c-1.177-.575-2.337-1.175-3.481-1.803 1.144.629 2.305 1.228 3.481 1.803z" display="inline"/></g><g id="Outline"><path d="m251.246 267.401v31.815c0 26.188 43.542 46.702 99.127 46.702 55.583 0 99.123-20.514 99.123-46.702v-31.815c0-26.188-43.54-46.701-99.123-46.701-55.585 0-99.127 20.514-99.127 46.701zm99.127 70.517c-49.396 0-91.127-17.723-91.127-38.702v-13.11c15.029 16.622 49.736 27.999 91.127 27.999 41.389 0 76.094-11.376 91.123-27.999v13.11c0 20.979-41.729 38.702-91.123 38.702zm0-31.813c-49.396 0-91.127-17.724-91.127-38.704 0-20.978 41.731-38.701 91.127-38.701 49.394 0 91.123 17.723 91.123 38.701 0 20.98-41.729 38.704-91.123 38.704z"/><path d="m406.58 262.406h-13.373c-2.327-8.154-11.654-14.086-23.137-14.086-13.288 0-23.697 7.944-23.697 18.086 0 5.467-7.188 10.086-15.696 10.086-8.511 0-15.7-4.619-15.7-10.086s7.189-10.086 15.7-10.086c2.209 0 4-1.791 4-4s-1.791-4-4-4c-11.482 0-20.809 5.932-23.136 14.086h-13.379c-2.209 0-4 1.791-4 4s1.791 4 4 4h13.379c2.327 8.154 11.653 14.086 23.136 14.086 13.288 0 23.696-7.944 23.696-18.086 0-5.467 7.188-10.086 15.697-10.086 8.511 0 15.701 4.619 15.701 10.086s-7.19 10.086-15.701 10.086c-2.209 0-4 1.791-4 4s1.791 4 4 4c11.482 0 20.81-5.932 23.136-14.086h13.374c2.209 0 4-1.791 4-4s-1.791-4-4-4z"/><path d="m288.298 104.561c18.683 0 33.174-28.634 33.174-53.267 0-21.56-12.401-34.431-33.174-34.431s-33.175 12.872-33.175 34.431c0 24.633 14.491 53.267 33.175 53.267zm0-79.698c11.484 0 25.174 4.585 25.174 26.431 0 19.953-11.853 45.267-25.174 45.267s-25.175-25.313-25.175-45.267c0-21.845 13.69-26.431 25.175-26.431z"/><path d="m288.298 180.139c49.664 0 90.068-40.405 90.068-90.069s-40.404-90.07-90.068-90.07c-49.665 0-90.07 40.405-90.07 90.069s40.405 90.07 90.07 90.07zm-58.35-32.426 2.464-8.924c3.568-14.061 18.342-26.033 32.891-27.022l19.673 29.345c.742 1.108 1.988 1.772 3.322 1.772s2.58-.665 3.322-1.772l19.673-29.345c14.551.989 29.324 12.964 32.91 27.103l2.442 8.844c-14.888 15.068-35.542 24.425-58.348 24.425s-43.461-9.358-58.349-24.426zm58.35-139.713c45.253 0 82.068 36.816 82.068 82.069 0 19.013-6.517 36.521-17.409 50.451l-1.021-3.698c-4.63-18.263-23.727-33.121-42.57-33.121h-.162c-1.334 0-2.58.665-3.322 1.772l-17.583 26.228-17.583-26.228c-.742-1.108-1.988-1.772-3.322-1.772h-.162c-18.841 0-37.938 14.857-42.551 33.039l-1.044 3.779c-10.892-13.929-17.408-31.437-17.408-50.449-.001-45.254 36.815-82.07 82.069-82.07z"/><path d="m48.29 220.91 22.73 14.483c.909 7.752 3.36 15.315 7.159 22.09l-9.864 25.043c-.572 1.454-.246 3.108.836 4.235 6.994 7.289 15.1 13.193 24.09 17.55 1.408.681 3.082.481 4.288-.513l20.815-17.156c7.675 1.529 15.549 1.528 23.214 0l20.815 17.156c.73.602 1.634.913 2.545.913.593 0 1.189-.132 1.744-.401 8.997-4.362 17.101-10.268 24.087-17.553 1.081-1.127 1.407-2.781.835-4.234l-9.861-25.04c3.796-6.774 6.247-14.336 7.159-22.09l22.73-14.483c1.316-.838 2.024-2.366 1.814-3.912-1.357-9.993-4.451-19.535-9.194-28.362-.739-1.375-2.198-2.189-3.768-2.099l-26.928 1.645c-5.305-5.737-11.732-10.416-18.773-13.666l-6.744-26.068c-.392-1.514-1.63-2.661-3.169-2.936-4.979-.889-9.992-1.34-14.9-1.34-4.909 0-9.923.451-14.9 1.34-1.54.275-2.777 1.422-3.169 2.936l-6.743 26.068c-7.043 3.25-13.471 7.929-18.774 13.666l-26.927-1.645c-1.561-.091-3.03.725-3.768 2.1-4.742 8.827-7.836 18.369-9.194 28.361-.209 1.546.499 3.073 1.815 3.912zm39.521-24.624c1.254.073 2.457-.434 3.271-1.378 5.184-6.002 11.751-10.783 18.993-13.825 1.151-.483 2.011-1.477 2.324-2.687l6.573-25.416c7.362-1.072 14.593-1.073 21.957 0l6.575 25.416c.313 1.209 1.172 2.202 2.323 2.686 7.24 3.041 13.808 7.822 18.993 13.825.816.944 2.019 1.456 3.271 1.378l26.259-1.604c3.261 6.588 5.529 13.593 6.766 20.882l-22.17 14.125c-1.054.672-1.733 1.797-1.837 3.042-.664 8.005-3.1 15.521-7.238 22.336-.648 1.069-.761 2.379-.303 3.542l9.616 24.418c-5.296 5.174-11.245 9.513-17.74 12.935l-20.294-16.727c-.963-.794-2.242-1.094-3.456-.808-7.73 1.811-15.749 1.812-23.487 0-1.214-.286-2.494.015-3.456.808l-20.295 16.727c-6.49-3.419-12.44-7.756-17.742-12.934l9.619-24.42c.458-1.163.346-2.474-.303-3.542-4.142-6.817-6.576-14.332-7.238-22.334-.103-1.246-.782-2.372-1.837-3.044l-22.17-14.125c1.236-7.29 3.506-14.293 6.766-20.882z"/><path d="m129.951 257.607c16.081 0 29.164-13.083 29.164-29.164s-13.083-29.164-29.164-29.164c-16.082 0-29.166 13.083-29.166 29.164s13.084 29.164 29.166 29.164zm0-50.328c11.67 0 21.164 9.494 21.164 21.164s-9.494 21.164-21.164 21.164c-11.671 0-21.166-9.494-21.166-21.164s9.495-21.164 21.166-21.164z"/><path d="m47.52 493.603 31.99.001h.004c4.615 0 8.963-1.807 12.244-5.089 3.281-3.281 5.088-7.63 5.088-12.245v-9.499l110 44.927c.48.196.994.297 1.513.297l147.893.005c.517 0 1.029-.1 1.508-.295l103.828-42.267c15.96-6.502 24.193-23.47 18.354-37.826-4.151-10.198-14.647-16.788-26.738-16.788-4.374 0-8.686.853-12.814 2.534l-1.222.498c.826-5.914-.265-11.781-3.251-16.873-4.814-8.2-13.854-13.095-24.183-13.095-4.202 0-8.41.829-12.376 2.421-.245-.493-.506-.974-.781-1.442-4.818-8.208-13.866-13.108-24.201-13.108-5.891 0-11.766 1.622-16.989 4.689l-68.302 40.092c-1.849-2.899-4.137-5.497-6.837-7.758-.083-.07-.17-.137-.259-.2l-91.292-64.559c-.676-.478-1.482-.734-2.31-.734h-91.537v-9.369c0-9.558-7.776-17.335-17.336-17.337l-31.997-.002c-9.557 0-17.332 7.776-17.332 17.334l.001 138.353c0 9.555 7.775 17.333 17.334 17.335zm31.994-3.999-.003-4-31.99-.001c-5.147-.001-9.335-4.189-9.335-9.337l-.001-138.353c0-5.147 4.187-9.334 9.335-9.334l31.993.002c5.148.001 9.337 4.189 9.337 9.337l-.004 138.352c0 2.479-.975 4.818-2.745 6.589-1.77 1.77-4.109 2.745-6.587 2.745zm204.429-61.842c.014.028.033.051.047.078 3.518 7.578 2.77 15.784-1.963 21.437-3.414 4.079-8.492 6.379-14.305 6.489-.021 0-.043-.005-.064-.005-.12.002-.239.003-.358.003-5.708 0-11.385-2.125-16.02-6.004-.13-.109-.268-.209-.41-.301l-60.328-38.635c-1.861-1.192-4.334-.649-5.525 1.211s-.649 4.334 1.211 5.526l60.12 38.502c6.04 4.979 13.451 7.701 20.952 7.701.104 0 .209-.001.313-.002.037.001.07.011.107.011h79.093c.517 0 1.029-.1 1.508-.295l86.209-35.088c.024-.01.044-.026.067-.036l8.808-3.585c3.167-1.29 6.464-1.944 9.798-1.944 8.822 0 16.409 4.633 19.328 11.803 4.179 10.271-2.085 22.563-13.96 27.401l-103.102 41.971-146.325-.005-112.298-45.866.004-102.842h90.266l90.116 63.728c2.88 2.443 5.138 5.384 6.711 8.747zm90.432-44.004c7.467 0 13.936 3.424 17.303 9.16.208.354.4.724.584 1.101l-85.395 50.124-14.1 2.048c1.945-5.732 1.901-12.171-.211-18.415l68.879-40.43c3.999-2.347 8.472-3.588 12.94-3.588zm55.582 37.854-83.927 34.16h-59.091c.231-.24.449-.498.672-.748l21.181-3.076c.512-.074 1.004-.247 1.449-.509l88.533-51.967c.059-.034.104-.081.161-.117.076-.038.159-.057.234-.1 3.9-2.203 8.245-3.368 12.563-3.368 7.46 0 13.922 3.419 17.283 9.144 2.851 4.86 3.171 10.83.942 16.581z"/><path d="m83.727 455.718c0-11.144-9.066-20.209-20.21-20.209s-20.209 9.066-20.209 20.209 9.065 20.209 20.209 20.209 20.21-9.065 20.21-20.209zm-20.21 12.21c-6.732 0-12.209-5.477-12.209-12.209s5.477-12.209 12.209-12.209 12.21 5.477 12.21 12.209-5.478 12.209-12.21 12.209z"/></g><g id="Outline_Blue" display="none" fill="#57a4ff"><path d="m251.246 267.401v31.815c0 26.188 43.542 46.702 99.127 46.702 55.583 0 99.123-20.514 99.123-46.702v-31.815c0-26.188-43.54-46.701-99.123-46.701-55.585 0-99.127 20.514-99.127 46.701zm99.127 70.517c-49.396 0-91.127-17.723-91.127-38.702v-13.11c15.029 16.622 49.736 27.999 91.127 27.999 41.389 0 76.094-11.376 91.123-27.999v13.11c0 20.979-41.729 38.702-91.123 38.702zm0-31.813c-49.396 0-91.127-17.724-91.127-38.704 0-20.978 41.731-38.701 91.127-38.701 49.394 0 91.123 17.723 91.123 38.701 0 20.98-41.729 38.704-91.123 38.704z" display="inline"/><path d="m406.58 262.406h-13.373c-2.327-8.154-11.654-14.086-23.137-14.086-13.288 0-23.697 7.944-23.697 18.086 0 5.467-7.188 10.086-15.696 10.086-8.511 0-15.7-4.619-15.7-10.086s7.189-10.086 15.7-10.086c2.209 0 4-1.791 4-4s-1.791-4-4-4c-11.482 0-20.809 5.932-23.136 14.086h-13.379c-2.209 0-4 1.791-4 4s1.791 4 4 4h13.379c2.327 8.154 11.653 14.086 23.136 14.086 13.288 0 23.696-7.944 23.696-18.086 0-5.467 7.188-10.086 15.697-10.086 8.511 0 15.701 4.619 15.701 10.086s-7.19 10.086-15.701 10.086c-2.209 0-4 1.791-4 4s1.791 4 4 4c11.482 0 20.81-5.932 23.136-14.086h13.374c2.209 0 4-1.791 4-4s-1.791-4-4-4z" display="inline"/><path d="m288.298 104.561c18.683 0 33.174-28.634 33.174-53.267 0-21.56-12.401-34.431-33.174-34.431s-33.175 12.872-33.175 34.431c0 24.633 14.491 53.267 33.175 53.267zm0-79.698c11.484 0 25.174 4.585 25.174 26.431 0 19.953-11.853 45.267-25.174 45.267s-25.175-25.313-25.175-45.267c0-21.845 13.69-26.431 25.175-26.431z" display="inline"/><path d="m288.298 180.139c49.664 0 90.068-40.405 90.068-90.069s-40.404-90.07-90.068-90.07c-49.665 0-90.07 40.405-90.07 90.069s40.405 90.07 90.07 90.07zm-58.35-32.426 2.464-8.924c3.568-14.061 18.342-26.033 32.891-27.022l19.673 29.345c.742 1.108 1.988 1.772 3.322 1.772s2.58-.665 3.322-1.772l19.673-29.345c14.551.989 29.324 12.964 32.91 27.103l2.442 8.844c-14.888 15.068-35.542 24.425-58.348 24.425s-43.461-9.358-58.349-24.426zm58.35-139.713c45.253 0 82.068 36.816 82.068 82.069 0 19.013-6.517 36.521-17.409 50.451l-1.021-3.698c-4.63-18.263-23.727-33.121-42.57-33.121h-.162c-1.334 0-2.58.665-3.322 1.772l-17.583 26.228-17.583-26.228c-.742-1.108-1.988-1.772-3.322-1.772h-.162c-18.841 0-37.938 14.857-42.551 33.039l-1.044 3.779c-10.892-13.929-17.408-31.437-17.408-50.449-.001-45.254 36.815-82.07 82.069-82.07z" display="inline"/><path d="m48.29 220.91 22.73 14.483c.909 7.752 3.36 15.315 7.159 22.09l-9.864 25.043c-.572 1.454-.246 3.108.836 4.235 6.994 7.289 15.1 13.193 24.09 17.55 1.408.681 3.082.481 4.288-.513l20.815-17.156c7.675 1.529 15.549 1.528 23.214 0l20.815 17.156c.73.602 1.634.913 2.545.913.593 0 1.189-.132 1.744-.401 8.997-4.362 17.101-10.268 24.087-17.553 1.081-1.127 1.407-2.781.835-4.234l-9.861-25.04c3.796-6.774 6.247-14.336 7.159-22.09l22.73-14.483c1.316-.838 2.024-2.366 1.814-3.912-1.357-9.993-4.451-19.535-9.194-28.362-.739-1.375-2.198-2.189-3.768-2.099l-26.928 1.645c-5.305-5.737-11.732-10.416-18.773-13.666l-6.744-26.068c-.392-1.514-1.63-2.661-3.169-2.936-4.979-.889-9.992-1.34-14.9-1.34-4.909 0-9.923.451-14.9 1.34-1.54.275-2.777 1.422-3.169 2.936l-6.743 26.068c-7.043 3.25-13.471 7.929-18.774 13.666l-26.927-1.645c-1.561-.091-3.03.725-3.768 2.1-4.742 8.827-7.836 18.369-9.194 28.361-.209 1.546.499 3.073 1.815 3.912zm39.521-24.624c1.254.073 2.457-.434 3.271-1.378 5.184-6.002 11.751-10.783 18.993-13.825 1.151-.483 2.011-1.477 2.324-2.687l6.573-25.416c7.362-1.072 14.593-1.073 21.957 0l6.575 25.416c.313 1.209 1.172 2.202 2.323 2.686 7.24 3.041 13.808 7.822 18.993 13.825.816.944 2.019 1.456 3.271 1.378l26.259-1.604c3.261 6.588 5.529 13.593 6.766 20.882l-22.17 14.125c-1.054.672-1.733 1.797-1.837 3.042-.664 8.005-3.1 15.521-7.238 22.336-.648 1.069-.761 2.379-.303 3.542l9.616 24.418c-5.296 5.174-11.245 9.513-17.74 12.935l-20.294-16.727c-.963-.794-2.242-1.094-3.456-.808-7.73 1.811-15.749 1.812-23.487 0-1.214-.286-2.494.015-3.456.808l-20.295 16.727c-6.49-3.419-12.44-7.756-17.742-12.934l9.619-24.42c.458-1.163.346-2.474-.303-3.542-4.142-6.817-6.576-14.332-7.238-22.334-.103-1.246-.782-2.372-1.837-3.044l-22.17-14.125c1.236-7.29 3.506-14.293 6.766-20.882z" display="inline"/><path d="m129.951 257.607c16.081 0 29.164-13.083 29.164-29.164s-13.083-29.164-29.164-29.164c-16.082 0-29.166 13.083-29.166 29.164s13.084 29.164 29.166 29.164zm0-50.328c11.67 0 21.164 9.494 21.164 21.164s-9.494 21.164-21.164 21.164c-11.671 0-21.166-9.494-21.166-21.164s9.495-21.164 21.166-21.164z" display="inline"/><path d="m47.52 493.603 31.99.001h.004c4.615 0 8.963-1.807 12.244-5.089 3.281-3.281 5.088-7.63 5.088-12.245v-9.499l110 44.927c.48.196.994.297 1.513.297l147.893.005c.517 0 1.029-.1 1.508-.295l103.828-42.267c15.96-6.502 24.193-23.47 18.354-37.826-4.151-10.198-14.647-16.788-26.738-16.788-4.374 0-8.686.853-12.814 2.534l-1.222.498c.826-5.914-.265-11.781-3.251-16.873-4.814-8.2-13.854-13.095-24.183-13.095-4.202 0-8.41.829-12.376 2.421-.245-.493-.506-.974-.781-1.442-4.818-8.208-13.866-13.108-24.201-13.108-5.891 0-11.766 1.622-16.989 4.689l-68.302 40.092c-1.849-2.899-4.137-5.497-6.837-7.758-.083-.07-.17-.137-.259-.2l-91.292-64.559c-.676-.478-1.482-.734-2.31-.734h-91.537v-9.369c0-9.558-7.776-17.335-17.336-17.337l-31.997-.002c-9.557 0-17.332 7.776-17.332 17.334l.001 138.353c0 9.555 7.775 17.333 17.334 17.335zm31.994-3.999-.003-4-31.99-.001c-5.147-.001-9.335-4.189-9.335-9.337l-.001-138.353c0-5.147 4.187-9.334 9.335-9.334l31.993.002c5.148.001 9.337 4.189 9.337 9.337l-.004 138.352c0 2.479-.975 4.818-2.745 6.589-1.77 1.77-4.109 2.745-6.587 2.745zm204.429-61.842c.014.028.033.051.047.078 3.518 7.578 2.77 15.784-1.963 21.437-3.414 4.079-8.492 6.379-14.305 6.489-.021 0-.043-.005-.064-.005-.12.002-.239.003-.358.003-5.708 0-11.385-2.125-16.02-6.004-.13-.109-.268-.209-.41-.301l-60.328-38.635c-1.861-1.192-4.334-.649-5.525 1.211s-.649 4.334 1.211 5.526l60.12 38.502c6.04 4.979 13.451 7.701 20.952 7.701.104 0 .209-.001.313-.002.037.001.07.011.107.011h79.093c.517 0 1.029-.1 1.508-.295l86.209-35.088c.024-.01.044-.026.067-.036l8.808-3.585c3.167-1.29 6.464-1.944 9.798-1.944 8.822 0 16.409 4.633 19.328 11.803 4.179 10.271-2.085 22.563-13.96 27.401l-103.102 41.971-146.325-.005-112.298-45.866.004-102.842h90.266l90.116 63.728c2.88 2.443 5.138 5.384 6.711 8.747zm90.432-44.004c7.467 0 13.936 3.424 17.303 9.16.208.354.4.724.584 1.101l-85.395 50.124-14.1 2.048c1.945-5.732 1.901-12.171-.211-18.415l68.879-40.43c3.999-2.347 8.472-3.588 12.94-3.588zm55.582 37.854-83.927 34.16h-59.091c.231-.24.449-.498.672-.748l21.181-3.076c.512-.074 1.004-.247 1.449-.509l88.533-51.967c.059-.034.104-.081.161-.117.076-.038.159-.057.234-.1 3.9-2.203 8.245-3.368 12.563-3.368 7.46 0 13.922 3.419 17.283 9.144 2.851 4.86 3.171 10.83.942 16.581z" display="inline"/><path d="m83.727 455.718c0-11.144-9.066-20.209-20.21-20.209s-20.209 9.066-20.209 20.209 9.065 20.209 20.209 20.209 20.21-9.065 20.21-20.209zm-20.21 12.21c-6.732 0-12.209-5.477-12.209-12.209s5.477-12.209 12.209-12.209 12.21 5.477 12.21 12.209-5.478 12.209-12.21 12.209z" display="inline"/></g><g id="Gradient" display="none"><path d="m251.246 267.401v31.815c0 26.188 43.542 46.702 99.127 46.702 55.583 0 99.123-20.514 99.123-46.702v-31.815c0-26.188-43.54-46.701-99.123-46.701-55.585 0-99.127 20.514-99.127 46.701zm99.127 70.517c-49.396 0-91.127-17.723-91.127-38.702v-13.11c15.029 16.622 49.736 27.999 91.127 27.999 41.389 0 76.094-11.376 91.123-27.999v13.11c0 20.979-41.729 38.702-91.123 38.702zm0-31.813c-49.396 0-91.127-17.724-91.127-38.704 0-20.978 41.731-38.701 91.127-38.701 49.394 0 91.123 17.723 91.123 38.701 0 20.98-41.729 38.704-91.123 38.704z" display="inline" fill="url(#SVGID_1_)"/><path d="m406.58 262.406h-13.373c-2.327-8.154-11.654-14.086-23.137-14.086-13.288 0-23.697 7.944-23.697 18.086 0 5.467-7.188 10.086-15.696 10.086-8.511 0-15.7-4.619-15.7-10.086s7.189-10.086 15.7-10.086c2.209 0 4-1.791 4-4s-1.791-4-4-4c-11.482 0-20.809 5.932-23.136 14.086h-13.379c-2.209 0-4 1.791-4 4s1.791 4 4 4h13.379c2.327 8.154 11.653 14.086 23.136 14.086 13.288 0 23.696-7.944 23.696-18.086 0-5.467 7.188-10.086 15.697-10.086 8.511 0 15.701 4.619 15.701 10.086s-7.19 10.086-15.701 10.086c-2.209 0-4 1.791-4 4s1.791 4 4 4c11.482 0 20.81-5.932 23.136-14.086h13.374c2.209 0 4-1.791 4-4s-1.791-4-4-4z" display="inline" fill="url(#SVGID_2_)"/><path d="m288.298 104.561c18.683 0 33.174-28.634 33.174-53.267 0-21.56-12.401-34.431-33.174-34.431s-33.175 12.872-33.175 34.431c0 24.633 14.491 53.267 33.175 53.267zm0-79.698c11.484 0 25.174 4.585 25.174 26.431 0 19.953-11.853 45.267-25.174 45.267s-25.175-25.313-25.175-45.267c0-21.845 13.69-26.431 25.175-26.431z" display="inline" fill="url(#SVGID_3_)"/><path d="m288.298 180.139c49.664 0 90.068-40.405 90.068-90.069s-40.404-90.07-90.068-90.07c-49.665 0-90.07 40.405-90.07 90.069s40.405 90.07 90.07 90.07zm-58.35-32.426 2.464-8.924c3.568-14.061 18.342-26.033 32.891-27.022l19.673 29.345c.742 1.108 1.988 1.772 3.322 1.772s2.58-.665 3.322-1.772l19.673-29.345c14.551.989 29.324 12.964 32.91 27.103l2.442 8.844c-14.888 15.068-35.542 24.425-58.348 24.425s-43.461-9.358-58.349-24.426zm58.35-139.713c45.253 0 82.068 36.816 82.068 82.069 0 19.013-6.517 36.521-17.409 50.451l-1.021-3.698c-4.63-18.263-23.727-33.121-42.57-33.121h-.162c-1.334 0-2.58.665-3.322 1.772l-17.583 26.228-17.583-26.228c-.742-1.108-1.988-1.772-3.322-1.772h-.162c-18.841 0-37.938 14.857-42.551 33.039l-1.044 3.779c-10.892-13.929-17.408-31.437-17.408-50.449-.001-45.254 36.815-82.07 82.069-82.07z" display="inline" fill="url(#SVGID_4_)"/><path d="m48.29 220.91 22.73 14.483c.909 7.752 3.36 15.315 7.159 22.09l-9.864 25.043c-.572 1.454-.246 3.108.836 4.235 6.994 7.289 15.1 13.193 24.09 17.55 1.408.681 3.082.481 4.288-.513l20.815-17.156c7.675 1.529 15.549 1.528 23.214 0l20.815 17.156c.73.602 1.634.913 2.545.913.593 0 1.189-.132 1.744-.401 8.997-4.362 17.101-10.268 24.087-17.553 1.081-1.127 1.407-2.781.835-4.234l-9.861-25.04c3.796-6.774 6.247-14.336 7.159-22.09l22.73-14.483c1.316-.838 2.024-2.366 1.814-3.912-1.357-9.993-4.451-19.535-9.194-28.362-.739-1.375-2.198-2.189-3.768-2.099l-26.928 1.645c-5.305-5.737-11.732-10.416-18.773-13.666l-6.744-26.068c-.392-1.514-1.63-2.661-3.169-2.936-4.979-.889-9.992-1.34-14.9-1.34-4.909 0-9.923.451-14.9 1.34-1.54.275-2.777 1.422-3.169 2.936l-6.743 26.068c-7.043 3.25-13.471 7.929-18.774 13.666l-26.927-1.645c-1.561-.091-3.03.725-3.768 2.1-4.742 8.827-7.836 18.369-9.194 28.361-.209 1.546.499 3.073 1.815 3.912zm39.521-24.624c1.254.073 2.457-.434 3.271-1.378 5.184-6.002 11.751-10.783 18.993-13.825 1.151-.483 2.011-1.477 2.324-2.687l6.573-25.416c7.362-1.072 14.593-1.073 21.957 0l6.575 25.416c.313 1.209 1.172 2.202 2.323 2.686 7.24 3.041 13.808 7.822 18.993 13.825.816.944 2.019 1.456 3.271 1.378l26.259-1.604c3.261 6.588 5.529 13.593 6.766 20.882l-22.17 14.125c-1.054.672-1.733 1.797-1.837 3.042-.664 8.005-3.1 15.521-7.238 22.336-.648 1.069-.761 2.379-.303 3.542l9.616 24.418c-5.296 5.174-11.245 9.513-17.74 12.935l-20.294-16.727c-.963-.794-2.242-1.094-3.456-.808-7.73 1.811-15.749 1.812-23.487 0-1.214-.286-2.494.015-3.456.808l-20.295 16.727c-6.49-3.419-12.44-7.756-17.742-12.934l9.619-24.42c.458-1.163.346-2.474-.303-3.542-4.142-6.817-6.576-14.332-7.238-22.334-.103-1.246-.782-2.372-1.837-3.044l-22.17-14.125c1.236-7.29 3.506-14.293 6.766-20.882z" display="inline" fill="url(#SVGID_5_)"/><path d="m129.951 257.607c16.081 0 29.164-13.083 29.164-29.164s-13.083-29.164-29.164-29.164c-16.082 0-29.166 13.083-29.166 29.164s13.084 29.164 29.166 29.164zm0-50.328c11.67 0 21.164 9.494 21.164 21.164s-9.494 21.164-21.164 21.164c-11.671 0-21.166-9.494-21.166-21.164s9.495-21.164 21.166-21.164z" display="inline" fill="url(#SVGID_6_)"/><path d="m47.52 493.603 31.99.001h.004c4.615 0 8.963-1.807 12.244-5.089 3.281-3.281 5.088-7.63 5.088-12.245v-9.499l110 44.927c.48.196.994.297 1.513.297l147.893.005c.517 0 1.029-.1 1.508-.295l103.828-42.267c15.96-6.502 24.193-23.47 18.354-37.826-4.151-10.198-14.647-16.788-26.738-16.788-4.374 0-8.686.853-12.814 2.534l-1.222.498c.826-5.914-.265-11.781-3.251-16.873-4.814-8.2-13.854-13.095-24.183-13.095-4.202 0-8.41.829-12.376 2.421-.245-.493-.506-.974-.781-1.442-4.818-8.208-13.866-13.108-24.201-13.108-5.891 0-11.766 1.622-16.989 4.689l-68.302 40.092c-1.849-2.899-4.137-5.497-6.837-7.758-.083-.07-.17-.137-.259-.2l-91.292-64.559c-.676-.478-1.482-.734-2.31-.734h-91.537v-9.369c0-9.558-7.776-17.335-17.336-17.337l-31.997-.002c-9.557 0-17.332 7.776-17.332 17.334l.001 138.353c0 9.555 7.775 17.333 17.334 17.335zm31.994-3.999-.003-4-31.99-.001c-5.147-.001-9.335-4.189-9.335-9.337l-.001-138.353c0-5.147 4.187-9.334 9.335-9.334l31.993.002c5.148.001 9.337 4.189 9.337 9.337l-.004 138.352c0 2.479-.975 4.818-2.745 6.589-1.77 1.77-4.109 2.745-6.587 2.745zm204.429-61.842c.014.028.033.051.047.078 3.518 7.578 2.77 15.784-1.963 21.437-3.414 4.079-8.492 6.379-14.305 6.489-.021 0-.043-.005-.064-.005-.12.002-.239.003-.358.003-5.708 0-11.385-2.125-16.02-6.004-.13-.109-.268-.209-.41-.301l-60.328-38.635c-1.861-1.192-4.334-.649-5.525 1.211s-.649 4.334 1.211 5.526l60.12 38.502c6.04 4.979 13.451 7.701 20.952 7.701.104 0 .209-.001.313-.002.037.001.07.011.107.011h79.093c.517 0 1.029-.1 1.508-.295l86.209-35.088c.024-.01.044-.026.067-.036l8.808-3.585c3.167-1.29 6.464-1.944 9.798-1.944 8.822 0 16.409 4.633 19.328 11.803 4.179 10.271-2.085 22.563-13.96 27.401l-103.102 41.971-146.325-.005-112.298-45.866.004-102.842h90.266l90.116 63.728c2.88 2.443 5.138 5.384 6.711 8.747zm90.432-44.004c7.467 0 13.936 3.424 17.303 9.16.208.354.4.724.584 1.101l-85.395 50.124-14.1 2.048c1.945-5.732 1.901-12.171-.211-18.415l68.879-40.43c3.999-2.347 8.472-3.588 12.94-3.588zm55.582 37.854-83.927 34.16h-59.091c.231-.24.449-.498.672-.748l21.181-3.076c.512-.074 1.004-.247 1.449-.509l88.533-51.967c.059-.034.104-.081.161-.117.076-.038.159-.057.234-.1 3.9-2.203 8.245-3.368 12.563-3.368 7.46 0 13.922 3.419 17.283 9.144 2.851 4.86 3.171 10.83.942 16.581z" display="inline" fill="url(#SVGID_7_)"/><path d="m83.727 455.718c0-11.144-9.066-20.209-20.21-20.209s-20.209 9.066-20.209 20.209 9.065 20.209 20.209 20.209 20.21-9.065 20.21-20.209zm-20.21 12.21c-6.732 0-12.209-5.477-12.209-12.209s5.477-12.209 12.209-12.209 12.21 5.477 12.21 12.209-5.478 12.209-12.21 12.209z" display="inline" fill="url(#SVGID_8_)"/></g></svg>