<?xml version="1.0"?>
<svg xmlns="http://www.w3.org/2000/svg" xmlns:xlink="http://www.w3.org/1999/xlink" data-name="Layer 1" id="Layer_1" viewBox="0 0 256 256"><defs><style>.cls-1,.cls-4,.cls-7,.cls-8{fill:none;}.cls-1,.cls-2,.cls-4{stroke:#b2dbf7;}.cls-1,.cls-2,.cls-4,.cls-7,.cls-8{stroke-linecap:round;stroke-linejoin:round;}.cls-1,.cls-2,.cls-4,.cls-8{stroke-width:1.98px;}.cls-2{fill:#f3fcff;}.cls-3{fill:#dff3fa;}.cls-4{stroke-dasharray:1.02 0.77 2.55 1.02;}.cls-5{fill:#5e9fe1;}.cls-6{fill:#4194d8;}.cls-7,.cls-8{stroke:#1779da;}.cls-7{stroke-width:3.96px;}.cls-9{fill:#b2dbf7;}.cls-10{fill:#91c0db;}.cls-11{fill:#7ab2ce;}.cls-12{clip-path:url(#clip-path);}</style><clipPath id="clip-path"><rect class="cls-1" height="34.46" width="36.07" x="210.71" y="11.7"/></clipPath></defs><title/><line class="cls-2" x1="248.16" x2="239.26" y1="156.26" y2="156.26"/><line class="cls-2" x1="248.16" x2="200.69" y1="197.8" y2="197.8"/><polyline class="cls-1" points="248.16 197.8 239.26 197.8 239.26 135.49 248.16 135.49"/><circle class="cls-2" cx="249.15" cy="197.8" r="4.95"/><circle class="cls-2" cx="249.15" cy="156.26" r="4.95"/><line class="cls-2" x1="248.16" x2="239.26" y1="177.03" y2="177.03"/><circle class="cls-2" cx="249.15" cy="177.03" r="4.95"/><circle class="cls-2" cx="249.15" cy="135.49" r="4.95"/><circle class="cls-2" cx="200.69" cy="197.8" r="4.95"/><line class="cls-2" x1="10.15" x2="16.73" y1="129.85" y2="129.85"/><line class="cls-2" x1="10.15" x2="47.44" y1="160.56" y2="160.56"/><polyline class="cls-1" points="10.15 160.56 16.73 160.56 16.73 114.5 10.15 114.5"/><circle class="cls-2" cx="9.42" cy="160.56" r="3.66"/><circle class="cls-2" cx="9.42" cy="129.85" r="3.66"/><line class="cls-2" x1="10.15" x2="16.73" y1="145.21" y2="145.21"/><circle class="cls-2" cx="9.42" cy="145.21" r="3.66"/><circle class="cls-2" cx="9.42" cy="114.5" r="3.66"/><circle class="cls-2" cx="47.44" cy="160.56" r="3.66"/><line class="cls-2" x1="10.15" x2="16.73" y1="206.53" y2="206.53"/><line class="cls-2" x1="10.15" x2="47.44" y1="175.82" y2="175.82"/><polyline class="cls-1" points="10.15 175.82 16.73 175.82 16.73 221.88 10.15 221.88"/><circle class="cls-2" cx="9.42" cy="175.82" r="3.66"/><circle class="cls-2" cx="9.42" cy="206.53" r="3.66"/><line class="cls-2" x1="10.15" x2="16.73" y1="191.18" y2="191.18"/><circle class="cls-2" cx="9.42" cy="191.18" r="3.66"/><circle class="cls-2" cx="9.42" cy="221.89" r="3.66"/><circle class="cls-2" cx="47.44" cy="175.82" r="3.66"/><polygon class="cls-3" points="61.29 152.67 136.42 152.67 173.98 87.61 136.42 22.54 61.29 22.54 23.73 87.61 61.29 152.67"/><polyline class="cls-1" points="143.61 165.13 172.39 115.29 188.37 87.61"/><line class="cls-1" x1="9.34" x2="54.1" y1="87.61" y2="165.13"/><line class="cls-1" x1="143.61" x2="54.1" y1="10.08" y2="10.08"/><line class="cls-1" x1="195.75" x2="181.91" y1="87.61" y2="87.61"/><line class="cls-1" x1="16.72" x2="2.88" y1="87.61" y2="87.61"/><line class="cls-1" x1="147.54" x2="140.61" y1="4.09" y2="16.08"/><line class="cls-1" x1="58.02" x2="51.1" y1="159.14" y2="171.12"/><line class="cls-1" x1="147.54" x2="140.61" y1="171.12" y2="159.14"/><line class="cls-1" x1="58.02" x2="51.1" y1="16.08" y2="4.09"/><line class="cls-1" x1="147.77" x2="144.8" y1="87.61" y2="87.61"/><line class="cls-4" x1="142.25" x2="137.4" y1="87.61" y2="87.61"/><line class="cls-1" x1="136.89" x2="133.92" y1="87.61" y2="87.61"/><line class="cls-1" x1="49.94" x2="52.91" y1="87.61" y2="87.61"/><line class="cls-4" x1="55.46" x2="60.31" y1="87.61" y2="87.61"/><line class="cls-1" x1="60.82" x2="63.79" y1="87.61" y2="87.61"/><line class="cls-1" x1="74.4" x2="75.88" y1="129.96" y2="127.39"/><line class="cls-4" x1="77.16" x2="79.58" y1="125.19" y2="120.99"/><line class="cls-1" x1="79.84" x2="81.32" y1="120.55" y2="117.98"/><line class="cls-1" x1="123.31" x2="121.83" y1="45.25" y2="47.82"/><line class="cls-4" x1="120.55" x2="118.13" y1="50.03" y2="54.22"/><line class="cls-1" x1="117.87" x2="116.39" y1="54.67" y2="57.24"/><line class="cls-1" x1="74.4" x2="75.88" y1="45.25" y2="47.82"/><line class="cls-4" x1="77.16" x2="79.58" y1="50.03" y2="54.22"/><line class="cls-1" x1="79.84" x2="81.32" y1="54.67" y2="57.24"/><line class="cls-1" x1="123.31" x2="121.83" y1="129.96" y2="127.39"/><line class="cls-4" x1="120.55" x2="118.13" y1="125.19" y2="120.99"/><line class="cls-1" x1="117.87" x2="116.39" y1="120.55" y2="117.98"/><polyline class="cls-1" points="135.13 51.33 127.46 38.05 112.13 38.05"/><polyline class="cls-1" points="148.41 100.88 156.07 87.61 148.41 74.33"/><polyline class="cls-1" points="112.13 137.16 127.46 137.16 135.13 123.88"/><polyline class="cls-1" points="62.58 123.88 70.25 137.16 85.58 137.16"/><polyline class="cls-1" points="85.58 38.05 70.25 38.05 62.58 51.33"/><polyline class="cls-1" points="49.3 74.33 41.64 87.61 49.3 100.88"/><polyline class="cls-1" points="118.03 120.83 137.22 87.61 118.03 54.38"/><polyline class="cls-1" points="79.67 54.38 60.49 87.61 79.67 120.83"/><rect class="cls-5" height="112.28" width="139.32" x="23.2" y="99.44"/><rect class="cls-6" height="112.28" width="14.75" x="147.77" y="99.44"/><rect class="cls-7" height="112.28" width="139.32" x="23.2" y="99.44"/><polygon class="cls-5" points="233.78 211.71 162.52 211.71 162.52 126.67 197.82 126.67 233.78 164.71 233.78 211.71"/><rect class="cls-3" height="17.54" width="219.72" x="18.64" y="211.71"/><polygon class="cls-3" points="173.56 137.34 192.36 137.34 221.09 166.34 221.09 174.13 173.56 174.13 173.56 137.34"/><polygon class="cls-6" points="197.82 126.67 183.12 126.67 221.09 164.71 221.09 211.71 233.78 211.71 233.78 164.71 197.82 126.67"/><line class="cls-8" x1="180.09" x2="186.81" y1="184.23" y2="184.23"/><polygon class="cls-9" points="192.36 137.34 181.84 137.34 210.57 166.34 210.57 174.13 221.09 174.13 221.09 166.34 192.36 137.34"/><polygon class="cls-7" points="233.78 211.71 162.52 211.71 162.52 126.67 197.82 126.67 233.78 164.71 233.78 211.71"/><polygon class="cls-7" points="173.56 137.34 192.36 137.34 221.09 166.34 221.09 174.13 173.56 174.13 173.56 137.34"/><line class="cls-8" x1="221.09" x2="221.09" y1="179.61" y2="211.71"/><line class="cls-8" x1="173.56" x2="173.56" y1="182.72" y2="211.71"/><path class="cls-10" d="M215.47,159.27h.92a6.92,6.92,0,0,1,6.92,6.92v8.34a6.92,6.92,0,0,1-6.92,6.92h-.92a3.25,3.25,0,0,1-3.25-3.25V162.52A3.25,3.25,0,0,1,215.47,159.27Z"/><path class="cls-11" d="M216.39,159.27h-.92a3.21,3.21,0,0,0-1.63.45,6.92,6.92,0,0,1,4.48,6.47v8.35a6.92,6.92,0,0,1-4.48,6.47,3.21,3.21,0,0,0,1.63.45h.92a6.92,6.92,0,0,0,6.93-6.92v-8.35A6.92,6.92,0,0,0,216.39,159.27Z"/><path class="cls-7" d="M215.47,159.27h.92a6.92,6.92,0,0,1,6.92,6.92v8.34a6.92,6.92,0,0,1-6.92,6.92h-.92a3.25,3.25,0,0,1-3.25-3.25V162.52A3.25,3.25,0,0,1,215.47,159.27Z"/><path class="cls-9" d="M238.35,229.25H165l1.7-6.8a14.16,14.16,0,0,1,13.74-10.74h57.93Z"/><rect class="cls-7" height="17.54" width="219.72" x="18.64" y="211.71"/><circle class="cls-10" cx="66.25" cy="226.85" r="26.5"/><circle class="cls-3" cx="66.25" cy="226.85" r="9.17"/><path class="cls-11" d="M66.25,200.35a26.48,26.48,0,0,0-5.67.61,26.5,26.5,0,0,1,0,51.77,26.5,26.5,0,1,0,5.67-52.38Z"/><circle class="cls-7" cx="66.25" cy="226.85" r="26.5"/><path class="cls-9" d="M66.25,217.67a9.12,9.12,0,0,0-2.83.45,9.18,9.18,0,0,1,0,17.45,9.17,9.17,0,1,0,2.83-17.9Z"/><circle class="cls-7" cx="66.25" cy="226.85" r="9.17"/><circle class="cls-10" cx="201.47" cy="226.85" r="26.5"/><circle class="cls-3" cx="201.47" cy="226.85" r="9.17"/><path class="cls-11" d="M201.47,200.35a26.41,26.41,0,0,0-5.67.61,26.5,26.5,0,0,1,0,51.77,26.5,26.5,0,1,0,5.67-52.38Z"/><circle class="cls-7" cx="201.47" cy="226.85" r="26.5"/><path class="cls-9" d="M201.47,217.67a9.18,9.18,0,0,0-2.84.45,9.17,9.17,0,0,1,0,17.45,9.17,9.17,0,1,0,2.84-17.9Z"/><circle class="cls-7" cx="201.47" cy="226.85" r="9.17"/><polygon class="cls-6" points="91.47 200.49 47.74 179.99 47.74 128.29 91.47 148.8 91.47 200.49"/><polygon class="cls-5" points="91.47 200.49 135.19 179.99 135.19 128.29 91.47 148.8 91.47 200.49"/><polygon class="cls-6" points="128.59 131.39 128.59 183.08 135.19 179.99 135.19 128.29 128.59 131.39"/><polygon class="cls-5" points="91.47 107.58 47.74 128.29 91.47 148.8 135.19 128.29 91.47 107.58"/><polygon class="cls-10" points="65.46 136.6 73.79 140.51 117.61 119.96 109.09 115.93 65.46 136.6"/><polygon class="cls-11" points="66.19 137.01 66.19 154.12 69.6 153.73 74.47 158.29 74.47 140.51 66.19 137.01"/><polygon class="cls-7" points="91.47 200.49 135.19 179.99 135.19 128.29 91.47 148.8 91.47 200.49"/><polygon class="cls-7" points="91.47 107.58 47.74 128.29 91.47 148.8 135.19 128.29 91.47 107.58"/><polygon class="cls-7" points="91.47 200.49 47.74 179.99 47.74 128.29 91.47 148.8 91.47 200.49"/><polygon class="cls-8" points="66.19 137.01 66.19 154.12 69.6 153.73 74.47 158.29 74.47 140.51 66.19 137.01"/><polygon class="cls-8" points="65.46 136.6 73.79 140.51 117.61 119.96 109.09 115.93 65.46 136.6"/><polygon class="cls-3" points="112.69 184.57 130.82 176.07 130.82 161.1 112.69 169.6 112.69 184.57"/><line class="cls-8" x1="127" x2="116.63" y1="166.64" y2="171.51"/><line class="cls-8" x1="127" x2="116.63" y1="170.4" y2="175.27"/><line class="cls-8" x1="123.68" x2="116.63" y1="175.72" y2="179.03"/><polygon class="cls-9" points="127.89 162.47 127.89 177.44 130.82 176.07 130.82 161.1 127.89 162.47"/><polygon class="cls-8" points="112.69 184.57 130.82 176.07 130.82 161.1 112.69 169.6 112.69 184.57"/><polygon class="cls-10" points="71.92 182.3 80.19 185.95 80.19 173.28 71.92 169.64 71.92 182.3"/><polygon class="cls-10" points="76.05 166.29 82.67 177.43 69.44 171.61 76.05 166.29"/><polygon class="cls-10" points="56.98 175.73 65.26 179.37 65.26 166.71 56.98 163.07 56.98 175.73"/><polygon class="cls-10" points="61.12 159.72 67.74 170.86 54.5 165.04 61.12 159.72"/><path class="cls-3" d="M91.53,68.61,58,75.31v40.52c0,14.75,9,27.82,22.28,32.43l11.23,3.89,11.23-3.89c13.3-4.61,22.28-17.68,22.28-32.43V75.31Z"/><path class="cls-9" d="M121.08,74.51l.18,41.32c0,14.75-9,27.82-22.28,32.43l-9.34,3.24,1.89.65,11.23-3.89c13.3-4.61,22.28-17.68,22.28-32.43V75.31C123.79,75.5,122.35,74.43,121.08,74.51Z"/><path class="cls-7" d="M91.53,68.61,58,75.31v40.52c0,14.75,9,27.82,22.28,32.43l11.23,3.89,11.23-3.89c13.3-4.61,22.28-17.68,22.28-32.43V75.31Z"/><path class="cls-3" d="M91.53,78.75,68.06,83.44v32.1c0,10.33,6.29,19.49,15.61,22.72L91.53,141l7.87-2.73C108.71,135,115,125.87,115,115.54V83.44Z"/><path class="cls-1" d="M91.53,78.75,68.06,83.44v32.1c0,10.33,6.29,19.49,15.61,22.72L91.53,141l7.87-2.73C108.71,135,115,125.87,115,115.54V83.44Z"/><circle class="cls-10" cx="91.53" cy="146.15" r="1.81"/><circle class="cls-9" cx="91.53" cy="135.08" r="0.85"/><circle class="cls-10" cx="84.77" cy="144.34" r="1.81"/><circle class="cls-10" cx="98.3" cy="144.34" r="1.81"/><line class="cls-1" x1="84.77" x2="98.3" y1="84.69" y2="84.69"/><line class="cls-1" x1="84.77" x2="98.3" y1="89.87" y2="89.87"/><line class="cls-1" x1="87.49" x2="95.57" y1="95.04" y2="95.04"/><polygon class="cls-5" points="86.76 113.78 80.29 107.31 74.53 113.07 81 119.54 86.76 125.3 92.51 119.54 108.54 103.52 102.78 97.76 86.76 113.78"/><polygon class="cls-8" points="86.76 113.78 80.29 107.31 74.53 113.07 81 119.54 86.76 125.3 92.51 119.54 108.54 103.52 102.78 97.76 86.76 113.78"/><path class="cls-3" d="M8.36,8.58h0a22.07,22.07,0,0,1,31.23,0h0a22.07,22.07,0,0,1,4.08,25.61L29.91,61.32a6.66,6.66,0,0,1-11.87,0L4.28,34.19A22.07,22.07,0,0,1,8.36,8.58Z"/><circle class="cls-9" cx="23.98" cy="22.95" r="10.59"/><rect class="cls-3" height="51.66" width="50.74" x="203.37" y="3.1"/><rect class="cls-1" height="51.66" width="50.74" x="203.37" y="3.1"/><rect class="cls-1" height="51.66" width="50.74" x="203.37" y="3.1"/><rect class="cls-9" height="3.31" rx="1.66" width="3.31" x="207.2" y="48.67"/><rect class="cls-9" height="3.31" rx="1.66" width="3.31" x="246.97" y="48.67"/><rect class="cls-9" height="3.31" rx="1.66" width="3.31" x="207.2" y="5.87"/><rect class="cls-9" height="3.31" rx="1.66" width="3.31" x="246.97" y="5.87"/><g class="cls-12"><line class="cls-1" x1="253.85" x2="203.64" y1="-28.77" y2="0.38"/><line class="cls-1" x1="253.85" x2="203.64" y1="-18.02" y2="11.13"/><line class="cls-1" x1="253.85" x2="203.64" y1="-7.27" y2="21.88"/><line class="cls-1" x1="253.85" x2="203.64" y1="3.48" y2="32.63"/><line class="cls-1" x1="253.85" x2="203.64" y1="14.23" y2="43.38"/><line class="cls-1" x1="253.85" x2="203.64" y1="24.98" y2="54.14"/><line class="cls-1" x1="253.85" x2="203.64" y1="35.73" y2="64.89"/></g><rect class="cls-1" height="34.46" width="36.07" x="210.71" y="11.7"/><rect class="cls-3" height="17.21" width="17.6" x="229.18" y="11.7"/><rect class="cls-1" height="17.21" width="17.6" x="229.18" y="11.7"/><line class="cls-1" x1="232.86" x2="243.1" y1="16.22" y2="16.22"/><line class="cls-1" x1="232.86" x2="243.1" y1="20.57" y2="20.57"/><line class="cls-1" x1="232.86" x2="239.14" y1="24.92" y2="24.92"/><circle class="cls-3" cx="223.06" cy="122.47" r="14.7"/><line class="cls-1" x1="223.06" x2="223.06" y1="110.23" y2="111.36"/><line class="cls-1" x1="223.06" x2="223.06" y1="133.57" y2="134.7"/><line class="cls-1" x1="235.29" x2="234.16" y1="122.47" y2="122.47"/><line class="cls-1" x1="211.95" x2="210.82" y1="122.47" y2="122.47"/><line class="cls-9" x1="221.09" x2="225.02" y1="120.5" y2="124.43"/><polygon class="cls-9" points="215.2 130.32 221.09 120.5 230.91 114.61 225.02 124.43 215.2 130.32"/><path class="cls-9" d="M222.11,72h-2.82V69.14h-2.81V72h-2.81v2.81h2.81v2.81h-5.63V72h-5.62V60.7h11.25v5.63h2.81V63.52h2.82v2.81h2.81v8.44h-2.81ZM208,63.52v5.62h5.63V63.52H208Zm14.07-2.82h2.81v2.82h-2.81ZM216.48,72h2.81v2.81h-2.81Zm-11.25,2.81H208v2.81h-2.81ZM208,77.58h2.81V80.4H208Zm14.07,0h2.81V80.4h-2.81Zm-5.63,0h2.81V80.4h-2.81Zm-7-12.66h2.81v2.82h-2.81Z"/><line class="cls-1" x1="230.1" x2="250.07" y1="63.62" y2="63.62"/><line class="cls-1" x1="230.1" x2="250.07" y1="70.55" y2="70.55"/><line class="cls-1" x1="230.1" x2="241.59" y1="77.48" y2="77.48"/><path class="cls-9" d="M222.11,95.06h-2.82V92.24h-2.81v2.82h-2.81v2.81h2.81v2.81h-5.63V95.06h-5.62V83.8h11.25v5.63h2.81V86.62h2.82v2.81h2.81v8.44h-2.81ZM208,86.62v5.62h5.63V86.62H208Zm14.07-2.82h2.81v2.82h-2.81Zm-5.63,11.26h2.81v2.81h-2.81Zm-11.25,2.81H208v2.81h-2.81Zm2.81,2.81h2.81v2.81H208Zm14.07,0h2.81v2.81h-2.81Zm-5.63,0h2.81v2.81h-2.81Zm-7-12.66h2.81v2.82h-2.81Z"/><line class="cls-1" x1="230.1" x2="250.07" y1="86.72" y2="86.72"/><line class="cls-1" x1="230.1" x2="250.07" y1="93.65" y2="93.65"/><line class="cls-1" x1="230.1" x2="241.59" y1="100.58" y2="100.58"/><path class="cls-1" d="M148.28,20.9h28.19a6.43,6.43,0,0,1,6.43,6.43h0a6.43,6.43,0,0,1-6.43,6.43H164.61a6.43,6.43,0,0,0-5.75,9.3l7.42,14.84A6.44,6.44,0,0,0,172,61.46h11.86"/><polygon class="cls-3" points="107.34 253.89 105.11 247.19 98.4 244.96 105.11 242.72 107.34 236.02 109.58 242.72 116.28 244.96 109.58 247.19 107.34 253.89"/><polygon class="cls-3" points="130.82 253.89 128.58 247.19 121.88 244.96 128.58 242.72 130.82 236.02 133.05 242.72 139.75 244.96 133.05 247.19 130.82 253.89"/><polygon class="cls-3" points="154.29 253.89 152.06 247.19 145.36 244.96 152.06 242.72 154.29 236.02 156.53 242.72 163.23 244.96 156.53 247.19 154.29 253.89"/></svg>
