<svg height="512" viewBox="0 0 413.37 467.97" width="512" xmlns="http://www.w3.org/2000/svg"><g id="Calque_2" data-name="Calque 2"><g id="_32-_Luggage_Tag" data-name="32- Luggage Tag"><path d="m408.91 138.92-31.5-99.66a53.34 53.34 0 0 0 -73-32.41l-141.34 64.72a53.27 53.27 0 0 0 -22.55 19.49l-129.93 200.61a53.43 53.43 0 0 0 -5.77 46l1.8 5.33a53.34 53.34 0 0 0 24.62 29.6l156 86.69a53.31 53.31 0 0 0 72.37-20.47l145-257.69a53.28 53.28 0 0 0 4.3-42.21zm-113.86-1c-17.67 13.89-38.42 19.3-54.75 15.87-3.16-18.36 7.24-41.32 27.83-57.5 17.66-13.89 38.4-19.29 54.73-15.86 3.14 18.35-7.22 41.31-27.81 57.49z" fill="#9290fd"/><path d="m322.86 80.43c-16.33-3.45-37.07 2-54.74 15.85-20.59 16.18-31 39.14-27.83 57.5-8.33-1.74-15.51-5.8-20.55-12.2-14.89-19-5.33-51.33 21.37-72.31s60.4-22.61 75.3-3.65a32.52 32.52 0 0 1 6.45 14.81z" fill="#8989fd"/><path d="m404.54 181.13-145 257.69a53.31 53.31 0 0 1 -72.37 20.47l-156-86.69a53.34 53.34 0 0 1 -24.55-29.6l-1.8-5.34a53.18 53.18 0 0 1 -2.62-21.15l160.2 92.19a53.32 53.32 0 0 0 73.27-20.46l125.54-227.45a53.35 53.35 0 0 0 4.15-41.79l-36.95-116.95a53.27 53.27 0 0 1 49 37.21l31.5 99.66a53.28 53.28 0 0 1 -4.37 42.21z" fill="#8989fd"/><path d="m263.43 270.32-55.53 85.75a32.21 32.21 0 0 1 -43.1 10.4l-89.47-51.47a32.2 32.2 0 0 1 -11-45.42l52.06-80.39a32.2 32.2 0 0 1 41.35-11.34l92.97 46.15a32.2 32.2 0 0 1 12.72 46.32z" fill="#c8c5fd"/><path d="m226 257.35-92.94-46.13a8 8 0 0 0 -7.06 14.33l92.94 46.13a7.91 7.91 0 0 0 3.55.84 8 8 0 0 0 3.51-15.17z" fill="#e9e9fd"/><path d="m201.31 299.42-92.94-46.13a8 8 0 0 0 -7.11 14.34l92.94 46.12a7.91 7.91 0 0 0 3.55.84 8 8 0 0 0 3.56-15.17z" fill="#e9e9fd"/><g fill="#4200dd"><path d="m410.82 138.32-31.5-99.66a55.31 55.31 0 0 0 -75.78-33.66l-141.31 64.75a55.13 55.13 0 0 0 -23.39 20.25l-129.93 200.58a55.06 55.06 0 0 0 -6 47.74l1.8 5.34a55.17 55.17 0 0 0 25.55 30.68l156 86.69a55.4 55.4 0 0 0 75.09-21.23l145-257.69a55.52 55.52 0 0 0 4.47-43.79zm-8 41.83-145 257.69a51.43 51.43 0 0 1 -69.66 19.69l-156-86.68a51.21 51.21 0 0 1 -23.7-28.47l-1.75-5.38a51.07 51.07 0 0 1 5.56-44.28l129.92-200.58a51.29 51.29 0 0 1 21.71-18.76l141.3-64.71a51.31 51.31 0 0 1 70.3 31.19l31.5 99.66a51.5 51.5 0 0 1 -4.2 40.63z"/><path d="m250.23 156.79c.94 0 1.88 0 2.84-.07 14.63-.71 30-6.83 43.21-17.23s22.81-23.86 27-37.91c4.22-14.3 2.36-27.51-5.26-37.2-15.55-19.79-50.59-18.3-78.11 3.32s-37.25 55.32-21.7 75.11c7.09 9.07 18.4 13.98 32.02 13.98zm69.17-56.35c-3.91 13.27-13 26-25.59 35.91s-27.13 15.7-40.94 16.37a48.17 48.17 0 0 1 -10.81-.64c-2.36-17.81 8.46-39.42 27.29-54.23 16.06-12.62 35.75-18.55 51.77-15.7a44.12 44.12 0 0 1 -1.72 18.29zm-77.06-29.6c13.86-10.84 29.66-16.44 43.54-16.44 11.92 0 22.4 4.1 29 12.45a30.3 30.3 0 0 1 5.46 11.09c-17-2.49-36.73 3.65-53.42 16.77-19.72 15.5-30.82 37.33-28.95 56.43a31.72 31.72 0 0 1 -16.61-10.8c-14.23-18.06-4.8-49.24 20.98-69.5z"/><path d="m344.11 45.09a2 2 0 0 0 -3.81 1.21l23.15 73.26a51.52 51.52 0 0 1 -4 40.26l-125.53 227.46a51.31 51.31 0 0 1 -70.52 19.72l-109.4-63a2 2 0 0 0 -2 3.47l109.4 62.96a55 55 0 0 0 27.49 7.4 55.74 55.74 0 0 0 15-2.07 54.88 54.88 0 0 0 33.55-26.55l125.56-227.46a55.56 55.56 0 0 0 4.32-43.4z"/><path d="m74.33 316.72 89.48 51.49a34.19 34.19 0 0 0 45.77-11.06l55.53-85.74a34.2 34.2 0 0 0 -13.51-49.24l-92.94-46.12a34.19 34.19 0 0 0 -43.92 12l-52.06 80.43a34.2 34.2 0 0 0 11.65 48.24zm-8.33-46.07 52.06-80.38a30.16 30.16 0 0 1 38.78-10.64l93 46.12a30.21 30.21 0 0 1 11.92 43.48l-55.54 85.77a30.2 30.2 0 0 1 -40.42 9.76l-89.47-51.5a30.21 30.21 0 0 1 -10.33-42.61z"/><path d="m125.06 227.35 92.94 46.12a10 10 0 1 0 8.89-17.91l-92.89-46.13a10 10 0 1 0 -8.89 17.92zm-.93-11.63a6 6 0 0 1 5.38-3.34 6.08 6.08 0 0 1 2.66.63l92.94 46.13a6 6 0 0 1 -2.67 11.38 6 6 0 0 1 -2.66-.63l-92.95-46.13a6 6 0 0 1 -3-3.46 5.89 5.89 0 0 1 .3-4.58z"/><path d="m100.37 269.42 92.94 46.12a9.8 9.8 0 0 0 4.44 1 10 10 0 0 0 4.45-19l-92.94-46.04a10 10 0 1 0 -8.89 17.92zm-.93-11.63a6 6 0 0 1 8-2.7l92.94 46.12a6 6 0 1 1 -5.29 10.79l-92.95-46.13a6 6 0 0 1 -3-3.46 5.93 5.93 0 0 1 .3-4.62z"/></g></g></g></svg>