<svg id="Capa_1" enable-background="new 0 0 512 512" height="512" viewBox="0 0 512 512" width="512" xmlns="http://www.w3.org/2000/svg"><g><path d="m456.368 183.068h-144.786v191.677h148.703v-35.397c0-4.943 4.045-8.988 8.988-8.988h18.5v-20.15c0-17.999-3.242-35.851-9.571-52.701z" fill="#ffd301"/><path d="m311.582 183.068h40.105v191.677h-40.105z" fill="#ffc20c"/><path d="m424.746 296.165c3.854 3.095 8.65 4.783 13.594 4.783h49.142c-.919-14.843-4.036-29.485-9.277-43.439l-21.538-73.426-104.978-2.03v68.705c0 5.781 4.687 10.468 10.468 10.468h11.447c4.944 0 9.739 1.687 13.593 4.783z" fill="#23a8fe"/><path d="m416.75 266.009c-3.854-3.096-8.65-4.783-13.593-4.783h-11.447c-5.781 0-10.468-4.687-10.468-10.468v-68.134l-29.554-.571v68.705c0 5.781 4.687 10.468 10.468 10.468h11.447c4.943 0 9.739 1.687 13.594 4.783l37.549 30.156c3.855 3.096 8.65 4.783 13.594 4.783h29.554c-4.944 0-9.739-1.687-13.594-4.783z" fill="#0193fa"/><g><path d="m370.301 296.243h-7.104c-4.204 0-7.611-3.407-7.611-7.611s3.408-7.611 7.611-7.611h7.104c4.204 0 7.611 3.407 7.611 7.611.001 4.203-3.407 7.611-7.611 7.611z" fill="#dfebfa"/></g><path d="m468.259 329.345c-4.944 0-8.988 4.045-8.988 8.988v36.412h16.563c6.567 0 11.94-5.373 11.94-11.94v-33.46z" fill="#ff4756"/><path d="m480.184 329.345h-11.925c-4.943 0-8.988 4.045-8.988 8.988v36.412h11.925v-36.412c0-4.944 4.044-8.988 8.988-8.988z" fill="#fc2d39"/><path d="m454.214 175.724c-4.83-12.86-17.128-21.378-30.866-21.378h-106.181c-3.084 0-5.584 2.5-5.584 5.584v24.153h145.083z" fill="#fee55a"/><path d="m357.272 154.345h-40.105c-3.084 0-5.584 2.5-5.584 5.584v24.153h40.105v-24.152c0-3.084 2.5-5.585 5.584-5.585z" fill="#ffd301"/><path d="m7.898 115.503h305.714v209.782h-305.714z" fill="#ff656f"/><path d="m7.898 115.503h33.237v209.782h-33.237z" fill="#ff4756"/><path d="m313.612 117.532v-13.234c0-9.115-7.389-16.504-16.504-16.504h-272.706c-9.115 0-16.504 7.389-16.504 16.504v13.234z" fill="#ff4756"/><path d="m57.639 87.795h-33.237c-9.115 0-16.504 7.389-16.504 16.504v13.234h33.237v-13.234c0-9.115 7.389-16.504 16.504-16.504z" fill="#fc2d39"/><g><path d="m504.384 245.541c-3.221 0-6.212-2.06-7.247-5.292l-9.942-31.057h-25.396c-4.204 0-7.611-3.407-7.611-7.611s3.408-7.611 7.611-7.611h30.951c3.31 0 6.24 2.139 7.249 5.29l11.637 36.348c1.281 4.004-.925 8.288-4.929 9.57-.771.245-1.553.363-2.323.363z" fill="#dfebfa"/></g><path d="m12.241 324.27c-6.76 0-12.241 5.481-12.241 12.242v26.293c0 6.567 5.373 11.94 11.94 11.94h301.672v-50.475c-19.981 0-289.323 0-301.371 0z" fill="#dfebfa"/><path d="m33.237 362.805v-26.293c0-6.761 5.481-12.241 12.241-12.241-18.487 0-30.862 0-33.237 0-6.76-.001-12.241 5.48-12.241 12.241v26.293c0 6.567 5.373 11.94 11.94 11.94h33.237c-6.567 0-11.94-5.373-11.94-11.94z" fill="#b1dbfc"/><circle cx="381.241" cy="374.745" fill="#665e68" r="49.46"/><path d="m358.44 374.745c0-22.695 15.292-41.807 36.131-47.628-4.242-1.185-8.709-1.832-13.329-1.832-27.316 0-49.46 22.144-49.46 49.46s22.144 49.46 49.46 49.46c4.62 0 9.087-.647 13.329-1.832-20.839-5.821-36.131-24.932-36.131-47.628z" fill="#554e56"/><circle cx="381.241" cy="374.745" fill="#dfebfa" r="24.73"/><path d="m383.17 374.745c0-8.748 4.546-16.429 11.401-20.825-3.847-2.468-8.419-3.904-13.329-3.904-13.658 0-24.73 11.072-24.73 24.73s11.072 24.73 24.73 24.73c4.91 0 9.482-1.437 13.329-3.905-6.855-4.397-11.401-12.078-11.401-20.826z" fill="#b1dbfc"/><circle cx="95.033" cy="374.745" fill="#665e68" r="49.46"/><path d="m72.232 374.745c0-22.695 15.292-41.807 36.131-47.628-4.242-1.185-8.709-1.832-13.329-1.832-27.316 0-49.46 22.144-49.46 49.46s22.144 49.46 49.46 49.46c4.62 0 9.087-.647 13.329-1.832-20.839-5.821-36.131-24.932-36.131-47.628z" fill="#554e56"/><circle cx="95.033" cy="374.745" fill="#dfebfa" r="24.73"/><path d="m96.962 374.745c0-8.748 4.546-16.429 11.401-20.825-3.847-2.468-8.419-3.904-13.329-3.904-13.658 0-24.73 11.072-24.73 24.73s11.072 24.73 24.73 24.73c4.91 0 9.482-1.437 13.329-3.905-6.855-4.397-11.401-12.078-11.401-20.826z" fill="#b1dbfc"/></g></svg>