<svg enable-background="new 0 0 512 512" viewBox="0 0 512 512" xmlns="http://www.w3.org/2000/svg" xmlns:xlink="http://www.w3.org/1999/xlink"><linearGradient id="lg1"><stop offset=".0036" stop-color="#e6e7e8"/><stop offset="1" stop-color="#f1f2f2"/></linearGradient><linearGradient id="SVGID_1_" gradientUnits="userSpaceOnUse" x1="53.723" x2="458.279" xlink:href="#lg1" y1="235.521" y2="235.521"/><linearGradient id="SVGID_2_" gradientUnits="userSpaceOnUse" x1="140.54" x2="371.463" y1="349.439" y2="349.439"><stop offset="0" stop-color="#ff374a"/><stop offset="1" stop-color="#ffa653"/></linearGradient><linearGradient id="SVGID_3_" gradientUnits="userSpaceOnUse" x1="140.552" x2="371.451" y1="349.439" y2="349.439"><stop offset="0" stop-color="#ffa906"/><stop offset="1" stop-color="#f0e814"/></linearGradient><linearGradient id="SVGID_4_" gradientUnits="userSpaceOnUse" x1="210.251" x2="301.751" xlink:href="#lg1" y1="317.587" y2="317.587"/><g id="_x33_8_Location"><g><path d="m304.935 451.913h-18-79.869-46.475-57.616c-27.201 0-49.252-22.051-49.252-49.252v-181.353l78.196-78.147 124.082-124.032 124.082 124.032 78.196 78.147v181.353c0 27.201-22.051 49.252-49.253 49.252h-57.616z" fill="url(#SVGID_1_)"/><path d="m371.463 321.464c0 95.043-115.461 171.41-115.461 171.41s-115.462-76.366-115.462-171.41c0-63.78 51.741-115.462 115.462-115.462 63.779.001 115.461 51.682 115.461 115.462z" fill="url(#SVGID_2_)"/><path d="m371.451 321.462c0 95.045-115.449 171.402-115.449 171.402s-115.449-76.357-115.449-171.402c0-63.783 51.724-115.449 115.449-115.449 63.782 0 115.449 51.666 115.449 115.449z" fill="url(#SVGID_3_)"/><path d="m301.751 317.557c0 25.253-20.496 45.75-45.75 45.75s-45.75-20.496-45.75-45.75 20.496-45.691 45.75-45.691 45.75 20.438 45.75 45.691z" fill="url(#SVGID_4_)"/><g><path d="m409.026 459.151h-57.616c-3.997 0-7.239-3.243-7.239-7.239 0-3.997 3.243-7.239 7.239-7.239h57.616c23.169 0 42.016-18.847 42.016-42.011v-178.352l-195.041-194.946-195.038 194.946v178.352c0 23.164 18.847 42.011 42.013 42.011h57.616c3.997 0 7.239 3.242 7.239 7.239s-3.243 7.239-7.239 7.239h-57.616c-31.15 0-56.492-25.341-56.492-56.489v-181.354c0-1.923.763-3.761 2.121-5.118l202.278-202.18c2.828-2.828 7.409-2.828 10.236 0l202.279 202.18c1.357 1.357 2.121 3.195 2.121 5.118v181.354c.001 31.148-25.341 56.489-56.493 56.489z"/></g><g><path d="m480.266 250.561c-1.852 0-3.704-.707-5.118-2.121l-22-22c-2.828-2.828-2.828-7.409 0-10.237s7.409-2.828 10.237 0l22 22c2.828 2.828 2.828 7.409 0 10.236-1.414 1.415-3.267 2.122-5.119 2.122z"/></g><g><path d="m31.734 250.561c-1.852 0-3.704-.707-5.118-2.121-2.828-2.828-2.828-7.409 0-10.236l22.002-22c2.828-2.828 7.409-2.828 10.236 0 2.828 2.828 2.828 7.409 0 10.237l-22.002 22c-1.414 1.413-3.266 2.12-5.118 2.12z"/></g><g><path d="m256.001 500.111c-1.39 0-2.781-.401-3.992-1.202-4.85-3.205-118.709-79.634-118.709-177.447 0-67.659 55.042-122.701 122.701-122.701s122.701 55.042 122.701 122.701c0 97.812-113.86 174.242-118.709 177.447-1.211.802-2.601 1.202-3.992 1.202zm0-286.871c-59.675 0-108.223 48.548-108.223 108.223 0 80.191 88.207 148.184 108.223 162.577 20.016-14.393 108.223-82.387 108.223-162.577 0-59.676-48.548-108.223-108.223-108.223z"/></g><g><path d="m256.001 370.548c-29.216 0-52.988-23.772-52.988-52.992 0-29.187 23.772-52.931 52.988-52.931 29.215 0 52.988 23.744 52.988 52.931 0 29.22-23.772 52.992-52.988 52.992zm0-91.445c-21.237 0-38.509 17.249-38.509 38.453 0 21.237 17.273 38.514 38.509 38.514s38.509-17.278 38.509-38.514c.001-21.204-17.272-38.453-38.509-38.453z"/></g></g></g><g id="Layer_1"/></svg>