<svg xmlns="http://www.w3.org/2000/svg" xml:space="preserve" viewBox="0 0 750 500"><path d="M86.113 322.613h26.481v11.19H86.113zM71.341 336.723h26.481v11.19H71.341zM426.823 216.593h26.481v11.19h-26.481zM412.052 230.703h26.481v11.19h-26.481zM397.338 216.593h26.481v11.19h-26.481zM652.178 336.723h26.481v11.19h-26.481zM637.407 62.843h26.481v11.19h-26.481zM652.178 76.953h26.481v11.19h-26.481zM86.113 62.843h26.481v11.19H86.113zM213.217 229.43l-6.432 14.183 4.343 1.967c1.277.578 2.092 1.831 2.154 3.232q.051 1.162.227 2.318c.211 1.383-.346 2.767-1.482 3.581l-3.875 2.776 9.073 12.664 3.875-2.776c1.137-.815 2.627-.896 3.868-.252q1.038.539 2.122.961c1.307.509 2.231 1.684 2.368 3.079l.465 4.745 15.498-1.529-.474-4.761c-.139-1.396.555-2.717 1.736-3.475a23 23 0 0 0 1.864-1.335c1.092-.87 2.559-1.103 3.831-.527l4.375 1.981 6.432-14.183-4.352-1.975c-1.277-.58-2.091-1.835-2.151-3.236a22 22 0 0 0-.223-2.309c-.209-1.381.347-2.764 1.483-3.578l3.876-2.777-9.073-12.664-3.876 2.777c-1.135.814-2.624.895-3.865.254a21 21 0 0 0-2.115-.954c-1.307-.508-2.234-1.682-2.372-3.077l-.471-4.756-15.498 1.529.47 4.758c.137 1.392-.556 2.708-1.732 3.463a23 23 0 0 0-1.871 1.34c-1.098.875-2.572 1.108-3.85.528zm14.338 8.046c5.727-4.103 13.688-2.788 17.791 2.939s2.795 13.698-2.932 17.802-13.706 2.785-17.809-2.942-2.777-13.696 2.95-17.799M645.849 109.715l-6.522 3.763 1.153 1.996a1.79 1.79 0 0 1-.063 1.877q-.308.471-.564.975c-.306.603-.915.99-1.591.99h-2.305v7.532h2.305c.676 0 1.285.388 1.591.99q.257.504.564.975c.37.568.403 1.29.063 1.877l-1.153 1.996 6.522 3.763 1.154-2.005c.339-.588.984-.911 1.661-.877a11 11 0 0 0 1.108 0c.674-.035 1.316.287 1.654.871l1.161 2.01 6.522-3.763-1.154-2.002a1.79 1.79 0 0 1 .066-1.877q.306-.469.562-.971a1.79 1.79 0 0 1 1.59-.989h2.306v-7.532h-2.306a1.79 1.79 0 0 1-1.59-.989q-.255-.502-.562-.97a1.79 1.79 0 0 1-.066-1.878l1.154-2.002-6.522-3.763-1.155 2.002c-.338.586-.981.908-1.656.873a12 12 0 0 0-1.112 0c-.678.035-1.323-.288-1.662-.876zm3.37 7.199a6.164 6.164 0 0 1 6.165 6.165 6.17 6.17 0 0 1-6.165 6.171 6.174 6.174 0 0 1-6.171-6.171 6.17 6.17 0 0 1 6.171-6.165M88.389 142.534l4.573 5.982 1.83-1.401a1.79 1.79 0 0 1 1.869-.179q.507.244 1.04.433c.637.226 1.1.78 1.187 1.45l.298 2.286 7.469-.972-.297-2.286a1.79 1.79 0 0 1 .776-1.706q.467-.32.894-.685a1.79 1.79 0 0 1 1.853-.305l2.128.886 2.89-6.953-2.137-.886c-.626-.26-1.031-.858-1.084-1.534a12 12 0 0 0-.143-1.099c-.121-.664.115-1.343.651-1.753l1.844-1.411-4.573-5.982-1.836 1.403a1.79 1.79 0 0 1-1.87.177 11 11 0 0 0-1.035-.432 1.79 1.79 0 0 1-1.186-1.45l-.298-2.286-7.469.972.298 2.286a1.79 1.79 0 0 1-.775 1.705q-.464.318-.89.683a1.79 1.79 0 0 1-1.853.308l-2.134-.886-2.89 6.953 2.135.887c.624.26 1.027.856 1.08 1.53a11 11 0 0 0 .143 1.104c.122.668-.115 1.349-.655 1.761zm6.704-4.271a6.163 6.163 0 0 1 5.318-6.909 6.168 6.168 0 1 1-5.318 6.909M220.869 76.136h81.05v98.313h-81.05z" style="fill:#ebebeb"/><path d="M230.131 85.109h62.528v80.368h-62.528z" style="fill:#fff"/><path d="M230.131 85.109h2.44v80.368h-2.44zM301.92 76.136h2.44v98.313h-2.44zM251.085 96.189h14.743v43.925h-14.743z" style="fill:#dbdbdb"/><path d="M244.653 126.098h39.313v21.52h-39.313z" style="fill:none;stroke:#ebebeb;stroke-miterlimit:10"/><path d="M445.64 76.136h81.05v98.313h-81.05z" style="fill:#ebebeb"/><path d="M454.902 85.109h62.528v80.368h-62.528z" style="fill:#fff"/><path d="M454.902 85.109h2.44v80.368h-2.44zM526.691 76.136h2.44v98.313h-2.44zM475.856 96.189h14.743v43.925h-14.743z" style="fill:#dbdbdb"/><path d="M469.424 126.098h39.313v21.52h-39.313z" style="fill:none;stroke:#ebebeb;stroke-miterlimit:10"/><path d="M333.255 76.136h81.05v98.313h-81.05z" style="fill:#ebebeb"/><path d="M342.516 85.109h62.528v80.367h-62.528z" style="fill:#fff"/><path d="M342.516 85.109h2.44v80.367h-2.44zM414.305 76.136h2.44v98.313h-2.44z" style="fill:#dbdbdb"/><path d="M367.725 105.884h12.631v31.936h-12.631z" style="fill:#ebebeb"/><path d="M359.725 125.293h33.931v22.015h-33.931z" style="fill:none;stroke:#dbdbdb;stroke-miterlimit:10"/><ellipse cx="375" cy="433.828" rx="313.704" ry="24.687" style="fill:#ebebeb"/><path d="M191.041 302.935h31.653v68.382h-31.653z" style="fill:#ffc727"/><path d="M215.446 302.935h7.248v68.382h-7.248z" style="opacity:.1"/><path d="M232.743 277.092h31.653v94.225h-31.653z" style="fill:#ffc727"/><path d="M257.148 277.092h7.248v94.225h-7.248z" style="opacity:.1"/><path d="M149.425 318.336h31.653v52.981h-31.653z" style="fill:#ffc727"/><path d="M173.83 318.336h7.248v52.981h-7.248z" style="opacity:.1"/><path d="M274.446 242.677h31.653v128.64h-31.653z" style="fill:#ffc727"/><path d="M298.851 242.677h7.248v128.64h-7.248z" style="opacity:.1"/><path d="M138.212 350.778v-13.186s115.29-7.558 161.876-105.91l4.631.917c.001.001-30.932 100.812-166.507 118.179" style="fill:#37474f"/><path d="m309.044 235.909-14.566-3.714 12.069-9.265z" style="fill:#37474f"/><path d="m52.775 371.112 80.556-.243 80.556-.088L375 370.613l161.113.167 80.556.088 80.556.244-80.556.245-80.556.088-161.113.166-161.113-.167-80.556-.089z" style="fill:#263238"/><path d="M656.324 311.126s9.344-33.538 16.806-44.928 21.371-23.901 21.371-23.901-.327 51.707-38.177 68.829" style="fill:#ffc727"/><path d="M656.993 310.552c3.201-5.204 5.921-10.692 8.518-16.25 1.15-5.951 2.548-11.943 4.64-17.635.039-.108.19-.049.165.059-1.24 5.299-2.682 10.55-3.992 15.832 3.772-8.162 7.357-16.428 11.849-24.144.908-3.74 2.627-7.337 4.331-10.732.049-.098.212-.046.165.059-1.199 2.627-2.061 5.333-2.915 8.05 2.124-3.415 4.452-6.707 7.099-9.807.164-.192.491.021.33.227-6.007 7.666-10.153 16.387-14.101 25.217 4.268-4.563 8.149-9.555 11.724-14.654.037-.053.116.002.082.057-3.691 5.869-7.942 11.132-12.555 16.276-2.876 6.469-5.703 12.965-9.132 19.119 6.851-5.791 12.121-13.283 17.337-20.513.117-.163.368.009.257.177-5.218 7.933-10.619 15.403-18.127 21.278-1.535 2.69-3.179 5.318-5.016 7.837-.304.417-.928-.015-.659-.453" style="fill:#263238"/><path d="M651.302 311.174s16.795-30.924 11.916-60.906-10.103-40.658-10.103-40.658-26.4 46.633-1.813 101.564" style="fill:#ffc727"/><path d="M644.408 262.558c1.34 8.659 3.691 16.763 6.483 24.97.047-11.003.257-22.007.551-33.007-1.934-6.689-2.905-13.536-3.17-20.492-.008-.204.296-.191.312.006.497 5.985 1.548 11.824 2.942 17.633.255-9.077.556-18.153.886-27.225.005-.153.237-.149.237.004-.014 14.177-.006 28.358-.096 42.537 2.168-5.461 3.526-11.082 4.842-16.845.012-.054.102-.041.098.015-.504 6.622-2.518 13.024-4.957 19.169-.065 9.064-.163 18.127-.365 27.188 2.841-9.635 5.876-18.967 6.698-29.149.011-.135.215-.134.212.004-.223 11.229-3.117 22.626-6.82 33.186a.6.6 0 0 1-.187.266q-.124 4.968-.29 9.936c-.016.475-.728.461-.737-.013a970 970 0 0 1-.166-20.33c-3.773-8.709-5.781-18.422-6.621-27.835-.007-.084.135-.102.148-.018" style="fill:#263238"/><path d="M645.559 257.776c.532 2.657 1.031 5.463 1.173 8.17.005.093-.137.106-.16.019-.695-2.623-1.074-5.45-1.382-8.146-.024-.21.328-.249.369-.043M655.379 235.171c.016-.093.158-.063.159.025.023 1.858-.352 3.849-.842 5.635-.041.15-.257.081-.228-.067.366-1.86.593-3.73.911-5.593" style="fill:#263238"/><path d="M646.987 312.915s-3.537-32.093-14.814-46.791-27.572-20.797-27.572-20.797 13.572 55.604 42.386 67.588" style="fill:#ffc727"/><path d="M626.649 287.749c4.592 5.049 9.132 9.9 14.499 14.112a231 231 0 0 0-8.898-18.464c-5.741-3.835-11.462-7.839-15.434-13.598-.064-.093.067-.195.139-.108 4.115 5.022 9.232 8.8 14.564 12.38a250 250 0 0 0-16.446-26.148c-.154-.214.156-.455.324-.251a153 153 0 0 1 9.938 13.551c-1.311-3.308-2.46-6.716-3.789-9.995-.037-.092.094-.144.14-.059 2.191 4.062 4.434 8.577 5.558 13.077a164 164 0 0 1 10.968 20.836c-.868-4.767-1.798-9.505-2.924-14.223-.021-.089.128-.13.157-.043 1.695 5.181 2.929 10.516 3.514 15.937a168 168 0 0 1 5.235 14.019c.041.127-.144.21-.194.082a223 223 0 0 0-2.393-5.866c-.037-.01-.073.001-.11-.028-5.575-4.284-10.992-9.292-14.895-15.176-.02-.031.022-.063.047-.035" style="fill:#263238"/><path d="M612.581 263.11c1.169.97 2.26 2.008 3.398 3.016 1.006.891 2.197 1.699 3.05 2.739.033.04-.014.103-.062.081-1.284-.596-2.392-1.685-3.45-2.611-1.115-.976-2.13-1.95-3.067-3.093-.067-.082.048-.2.131-.132" style="fill:#263238"/><path d="m672.688 309.599-1.167 15.291-3.518 46.222h-30.675l-3.518-46.222-1.167-15.291h40.045" style="fill:#455a64"/><path d="m672.688 309.599-1.167 15.291h-37.712l-1.167-15.291h40.046" style="fill:#37474f"/><path d="M629.916 302.097h45.497v11.722h-45.497z" style="fill:#455a64" transform="rotate(-180 652.664 307.959)"/><path d="M238.735 416.685c-2.055.668-60.716.151-62.941-1.282-.847-.539-1.27-9.087-1.488-19.43-.048-2.234-4.477-38.228-4.477-38.228l39.216.231 3.081 38.22s22.371 10.243 24.642 12.077c2.26 1.835 4.022 7.745 1.967 8.412" style="fill:#eb9481"/><path d="M238.73 416.69c-2.05.66-60.71.15-62.94-1.29-.66-.43-1.07-5.83-1.32-13.18 9.96 1.51 44.03 6.55 51.54 5.81 5.11-.5 1.82-3.65-1.85-6.22 5.71 2.72 11.52 5.58 12.61 6.46 2.26 1.84 4.02 7.75 1.96 8.42" style="fill:#263238"/><path d="M113.988 212.416s44.585 78.03 45.737 83.484c1.771 8.381 12.101 99.721 12.101 99.721l43.882-.27s-8.685-81.552-16.124-105.623c-4.061-13.141-25.419-48.763-35.433-66.344-.895-1.572-.63-8.764-.63-8.764z" style="fill:#455a64"/><path d="M211.488 388.033c-6.804-.133-27.402-.702-36.47.032-.069.006-.069.12 0 .131 3.112.486 29.666.159 36.47.025.128-.003.128-.185 0-.188M121.673 219.62c2.926 4.717 6.019 9.339 9.013 14.016 2.995 4.679 5.98 9.366 8.923 14.076 5.884 9.416 11.611 18.927 17.229 28.496 2.635 4.488 5.141 9.015 6.929 13.897 1.771 4.836 2.954 9.859 3.814 14.918.866 5.097 1.414 10.239 1.929 15.379.547 5.473 1.086 10.946 1.629 16.42 1.111 11.199 3.636 31.077 4.747 42.276.136 1.374.269 2.747.39 4.122.018.201-.343.237-.366.035-1.257-11.13-3.692-30.969-4.822-42.112l-1.687-16.643c-.523-5.158-1.017-10.322-1.753-15.457-.723-5.043-1.681-10.068-3.154-14.959-1.538-5.11-3.746-9.917-6.372-14.578-5.375-9.538-11.071-18.918-16.769-28.274-5.748-9.437-11.545-18.848-17.563-28.123a171 171 0 0 0-2.264-3.412c-.061-.086.091-.168.147-.077" style="fill:#263238"/><path d="M131.632 419.872c-2.159-.159-57.66-23.447-59.189-25.608-.051-.072-.08-.214-.08-.413.035-1.918 3.98-8.584 7.317-17.353.209-.561 19.257-32.741 19.257-32.741l36.281 14.935-20.567 32.198s16.894 17.895 18.308 20.443c1.405 2.548.825 8.688-1.327 8.539" style="fill:#eb9481"/><path d="M131.63 419.87c-2.16-.16-57.66-23.44-59.19-25.61-.05-.07-.08-.21-.08-.41.03-1.54 2.59-6.16 5.33-12.47 10.01 7.37 41.34 26.85 47.24 27.27 3.11.22.53-4.92-1.52-8.35 4.36 4.75 8.86 9.77 9.55 11.03 1.4 2.55.82 8.69-1.33 8.54" style="fill:#263238"/><path d="M117.923 391.702 77.315 374.72s53.871-82.306 54.313-87.839c.392-4.902-21.308-47.862-22.031-60.313-.78-13.437 5.813-23.749 12.996-30.11l40.928 18.161s-3.577 7.307-10.625 11.178c0 0 20.983 49.607 19.571 64.762-1.42 15.24-54.544 101.143-54.544 101.143" style="fill:#455a64"/><path d="M119.832 383.962c-5.87-2.61-4.149-1.944-10.048-4.488-2.887-1.245-21.866-9.41-24.762-10.099-.064-.015-.106.086-.051.121 2.52 1.586 21.638 9.419 24.548 10.608 5.947 2.431 4.266 1.668 10.24 4.031.112.045.183-.123.073-.173M159.837 224.98c-4.398.889-8.719 2.385-12.874 4-.163.063-.09.305.084.257 4.319-1.203 8.711-2.323 12.954-3.756.334-.112.174-.569-.164-.501" style="fill:#263238"/><path d="M154.864 223.186a19 19 0 0 0-1.109 2.242c-.251.595-.571 1.232-.576 1.884-.001.126.169.159.248.083.494-.475.764-1.174 1.08-1.77.367-.69.749-1.374 1.095-2.074.231-.464-.477-.808-.738-.365" style="fill:#263238"/><path d="M155.424 219.234c.266-.645.534-1.288.814-1.927.29-.661.626-1.313.864-1.993.038-.107.207-.033.163.075-.265.646-.442 1.336-.656 2a91 91 0 0 1-.672 1.993 41 41 0 0 1-1.495 3.646c.688-.001 1.398-.022 2.027-.326.683-.33 1.105-1.047 1.447-1.696.38-.72.731-1.457 1.122-2.171.432-.79.909-1.571 1.198-2.428.037-.108.203-.034.163.075-.656 1.77-1.301 3.538-2.307 5.163-.395.639-.717 1.305-1.435 1.548-.77.261-1.608.198-2.405.131-.099.026-.225-.039-.19-.158.395-1.32.835-2.658 1.362-3.932M153.532 227.413c1.457 3.191 2.734 6.367 4.094 9.545 1.329 3.105 2.57 6.245 3.774 9.401a246 246 0 0 1 6.495 19.42 201 201 0 0 1 2.568 9.798c.774 3.296 1.53 6.625 1.826 10.004.297 3.39.015 6.734-.969 9.996-.997 3.309-6.399 14.533-7.934 17.622-.939 1.888-1.25 1.628-.795.674 1.29-2.703 8.729-18.296 9.115-24.75.2-3.34-1.203-8.071-1.918-11.329-.73-3.326-1.56-6.629-2.468-9.91-1.791-6.465-3.934-12.806-6.142-19.138-1.237-3.548-2.568-7.06-3.823-10.601-1.265-3.567-2.576-6.778-3.98-10.672-.037-.102.112-.159.157-.06M122.675 216.554c.734-.262 1.743.199 2.487.333.954.172 1.92.282 2.888.327a22 22 0 0 0 2.87-.063c.952-.081 1.923-.186 2.756-.692 1.403-.852 2.588-2.369 3.548-3.676 1.054-1.436 2.151-3.09 2.79-4.761.039-.103.186-.03.153.071-.32.975-.56 1.959-.962 2.911-.379.895-.865 1.75-1.379 2.573-.96 1.537-2.06 3.177-3.686 4.078-1.705.945-3.886.861-5.773.728a22 22 0 0 1-3.245-.473c-.771-.172-2.069-.312-2.553-.997-.088-.123-.039-.308.106-.359" style="fill:#263238"/><path d="M89.061 367.085c6.834-10.069 35.588-59.569 41.99-69.956 1.531-2.484 3.296-4.963 4.296-7.723 1.088-3.001.527-5.927-.388-8.887-1.679-5.429-3.788-10.717-6.071-15.918-2.29-5.216-4.761-10.349-7.191-15.5-2.41-5.109-4.978-10.237-6.788-15.598-1.728-5.12-2.345-10.415-.905-15.687 1.428-5.23 4.438-9.904 7.573-14.263.827-1.15 1.669-2.289 2.499-3.437.063-.088.196.021.13.107-3.452 4.542-6.823 9.352-8.881 14.71-1.017 2.647-1.689 5.439-1.786 8.279-.099 2.881.407 5.748 1.222 8.503 1.585 5.358 4.13 10.445 6.497 15.489 2.42 5.157 4.907 10.284 7.237 15.482 2.345 5.23 4.533 10.538 6.318 15.988.795 2.426 1.682 4.966 1.596 7.554-.095 2.835-1.48 5.372-2.911 7.745-6.232 10.333-34.844 59.479-41.636 69.508q-1.284 1.897-2.575 3.79c-.106.159-.332-.03-.226-.186M126.564 118.087c-8.62 7.39-6.22 18.166-9.82 24.012-2.201 3.575-9.371 7.35-10.797 11.469-2.342 6.768 3.396 9.198 2.112 12.877-1.818 5.211-8.796 4.806-10.052 13.332s8.124 17.594 30.387 20.051 34.495-5.695 35.293-12.928-6.608-9.641-7.113-15.043c-.322-3.452 4.251-5.855 4.482-12.208s-5.959-8.419-6.846-13.813c-.891-5.42 1.969-18.506-5.959-25.199-7.927-6.694-17.434-6.197-21.687-2.55" style="fill:#263238"/><path d="M127.563 118.28c-2.454 1.728-4.328 3.95-5.723 6.602-1.45 2.756-2.41 5.744-3.182 8.751-.457 1.777-.876 3.602-1.729 5.24-.739 1.419-1.808 2.62-2.989 3.688-2.408 2.178-5.283 3.833-7.446 6.281-2.049 2.318-3.643 5.419-2.825 8.578.445 1.718 1.578 3.12 2.282 4.724.666 1.519.936 3.407-.368 4.67-1.114 1.078-2.727 1.573-3.991 2.456a14 14 0 0 0-3.248 3.15c-1.834 2.484-2.627 5.51-2.05 8.562 1.31 6.926 7.808 10.864 13.807 13.345.837.346 1.677.682 2.518 1.017.13.052.24-.135.107-.194-6.02-2.694-13.007-5.857-15.319-12.588-1.041-3.031-.701-6.235 1.038-8.936.835-1.297 1.941-2.433 3.18-3.348 1.211-.894 2.609-1.443 3.84-2.292 1.247-.86 1.965-2.122 1.893-3.658-.076-1.626-.871-3.046-1.657-4.426-.832-1.461-1.538-2.938-1.421-4.663.11-1.617.86-3.144 1.781-4.449 1.873-2.654 4.648-4.395 7.135-6.405 2.503-2.021 4.505-4.354 5.418-7.494.462-1.588.748-3.222 1.147-4.826.37-1.487.799-2.961 1.328-4.4 1.046-2.849 2.536-5.606 4.706-7.759a12 12 0 0 1 1.839-1.51c.077-.047.002-.167-.071-.116M164.675 181.594a8.3 8.3 0 0 0-1.54-3.24c-.775-.981-1.711-1.81-2.569-2.714-.813-.856-1.583-1.821-1.82-3.007-.285-1.423.313-2.788.98-4.012.701-1.284 1.48-2.502 1.993-3.88.495-1.329.77-2.735.848-4.15.163-2.96-.707-5.77-2.24-8.279-.759-1.243-1.614-2.425-2.382-3.662-.846-1.362-1.514-2.786-1.974-4.325-1.002-3.352-1.219-6.888-2.038-10.286-.84-3.483-2.094-6.856-3.616-10.097-.038-.081-.156-.007-.118.073 1.381 2.92 2.416 5.98 3.162 9.122.707 2.979.98 6.015 1.506 9.025.258 1.474.587 2.941 1.129 4.339.508 1.308 1.201 2.529 1.933 3.722 1.504 2.453 3.059 4.874 3.474 7.782a13.6 13.6 0 0 1-1.436 8.334c-1.171 2.214-2.81 4.653-1.786 7.245.866 2.194 2.959 3.509 4.348 5.327 1.531 2.004 1.978 4.585 1.506 7.037-1.199 6.234-7.445 9.326-13.295 9.634-.183.01-.177.287.007.285 5.085-.061 10.617-2.296 13.001-7.056 1.105-2.208 1.497-4.802.927-7.217" style="fill:#263238"/><path d="M151.344 164.904c13.968 12.684 32.265 26.052 41.84 23.408 8.654-2.389 20.637-13.426 33.724-25.328 2.6-2.365-16.848-21.613-19.363-18.82-4.959 5.506-14.977 19.404-18.918 21.109-1.69.731-21.615-7.774-34.583-11.845-15.745-4.944-8.266 6.421-2.7 11.476" style="fill:#eb9481"/><path d="M237.426 158.453c-4.559 3.35-11.988 7.852-15.368 8.385-3.172.5-16.657-19.926-14.64-22.531 6.276-8.108 18.834-13.994 24.602-13.754s10.13 24.429 5.406 27.9" style="fill:#eb9481"/><path d="M72.312 333.961c10.646 5.764 30.134 8.092 39.082-9.311s33.537-112.643 35.042-114.793 92.262-82.234 94.202-82.962c1.941-.729 280.43-74.485 280.43-74.485" style="fill:none;stroke:#263238;stroke-miterlimit:10"/><path d="M223.074 131.966c-1.149 2.768 2.772 2.537 2.772 2.537s-5.563 1.693-5.643 5.005c-.069 3.193 4.657 2.747 4.996 2.719-.294.092-5.365 1.781-5.102 5.118.275 3.468 4.942 2.205 5.244 2.122-.25.174-3.514 2.53-2.739 5.02 1.335 4.278 9.848-1.517 13.381-.691 0 0 1.093 4.735 1.11 4.918 0 0 6.402-3.935 7.25-8.762.447-2.545-1.836-3.464-1.836-3.464s2.839-1.432 2.715-4.065c-.067-1.352-2.289-2.447-2.289-2.447s2.225-1.241 1.969-3.577c-.198-1.865-2.396-2.673-2.396-2.673s1.583-2.183.762-4.022c-1.65-3.714-17.729-3.664-20.194 2.262" style="fill:#eb9481"/><path d="M242.176 133.544c.053.004.07-.07.016-.083-5.292-1.274-11.496-1.052-16.56 1.032-.166.068-.127.368.07.327 5.63-1.15 10.718-1.722 16.474-1.276M243.011 139.943c.062.005.072-.098.006-.114-5.46-1.283-12.442-.841-17.995 2.249-.19.106-.255.392-.027.287 3.849-1.775 12.837-2.85 18.016-2.422M225.026 149.817c5.44-2.757 11.215-3.493 17.257-3.396.079.001.072-.11.007-.129-2.942-.853-6.8-.513-9.778.005-2.853.496-5.328 1.518-7.581 3.33-.088.07-.021.249.095.19" style="fill:#263238"/><path d="M225.846 134.503c-1.038.43-2.043.939-2.974 1.545-.914.608-1.803 1.349-2.245 2.286-.215.463-.277.971-.133 1.441.151.478.409.94.771 1.272.714.683 1.841.883 2.813.779l2.443-.263-2.204 1.097c-.962.479-1.91 1.12-2.659 1.881-.749.758-1.294 1.713-1.218 2.677.06 1.008.66 1.802 1.636 2.002.956.237 2.108.083 3.107-.213l2.792-.826-2.358 1.687a9.5 9.5 0 0 0-1.769 1.639c-.5.615-.904 1.32-.961 2.03-.059.696.263 1.432.847 1.757.609.351 1.462.37 2.269.309 1.648-.145 3.286-.646 4.935-1.061.825-.215 1.653-.432 2.492-.609.833-.16 1.71-.338 2.552-.136-.852-.113-1.682.154-2.495.365-.814.238-1.618.515-2.424.792-1.612.554-3.241 1.094-4.985 1.347-.866.095-1.81.167-2.733-.284-.949-.473-1.427-1.557-1.35-2.544.074-1.007.576-1.845 1.125-2.551a10.4 10.4 0 0 1 1.943-1.854l.434.86c-1.178.359-2.378.565-3.668.287-.634-.14-1.286-.501-1.712-1.064-.431-.563-.622-1.218-.662-1.878-.075-1.371.691-2.557 1.541-3.389.876-.855 1.864-1.499 2.957-2.024l.24.834c-1.239.091-2.522-.225-3.426-1.147-.441-.458-.716-1.024-.871-1.622-.159-.617-.038-1.293.247-1.83.594-1.085 1.6-1.74 2.575-2.302a15 15 0 0 1 3.128-1.29" style="fill:#263238"/><path d="M209.084 142.356s13.684-22.151 19.431-13.428c1.708 2.592 5.628 15.277 3.096 16.113-3.27 1.08-5.894-3.909-7.045-7.302 0 0-3.155 7.617-9.113 7.001-3.738-.386-6.369-2.384-6.369-2.384" style="fill:#eb9481"/><path d="M227.992 128.234c.827.903 1.396 2.011 1.925 3.11.527 1.107.947 2.262 1.32 3.428.718 2.347 1.357 4.689 1.665 7.17.068.624.111 1.261-.006 1.952a2.6 2.6 0 0 1-.403 1.04c-.11.164-.224.295-.421.449a1.9 1.9 0 0 1-.543.276c-.738.255-1.493.139-2.138-.112-.64-.275-1.18-.68-1.657-1.126-.944-.907-1.617-1.992-2.174-3.105-.572-1.111-.998-2.272-1.395-3.437l.797.016c-.397.882-.87 1.671-1.409 2.439a13.7 13.7 0 0 1-1.827 2.115 9.5 9.5 0 0 1-2.299 1.575 7.2 7.2 0 0 1-2.655.719 8.1 8.1 0 0 0 2.514-.98c.772-.459 1.448-1.053 2.062-1.697a13 13 0 0 0 1.627-2.116c.468-.752.888-1.563 1.195-2.364l.391-1.019.406 1.035c.438 1.115.871 2.234 1.447 3.267.561 1.034 1.19 2.048 2.018 2.815.795.753 1.88 1.319 2.768 1.015.803-.199.845-1.533.742-2.666-.098-1.174-.322-2.362-.546-3.546a56 56 0 0 0-.773-3.537c-.646-2.313-1.29-4.682-2.631-6.716" style="fill:#263238"/><path d="m174.49 184.513 7.547-21.735s-18.387-8.404-28.913-10.671-13.162 2.179-3.736 11.853 25.102 20.553 25.102 20.553" style="fill:#ffc727"/><path d="M178.182 162.26c-1.341 2.813-2.437 5.757-3.524 8.675-1.079 2.893-2.076 5.821-2.927 8.79-.016.057.075.09.098.035 1.204-2.878 2.309-5.798 3.383-8.727 1.061-2.894 2.177-5.786 3.078-8.735.019-.062-.08-.096-.108-.038" style="fill:#263238"/><path d="m178.362 173.362-3.873 11.149s-15.679-10.876-25.104-20.549c-3.242-3.333-5.053-6.037-5.607-8.068z" style="opacity:.1"/><path d="m164.268 215.262-52.874-9.17s12.792-37.472 23.956-50.897c5.48-6.59 13.548-3.916 16.85-1.05 1.05.91 11.364 15.142 12.38 21.07.876 5.232-2.691 10.822-2.691 10.822z" style="fill:#ffc727"/><path d="M153.453 183.957c-2.391.251-4.789.583-7.12 1.185-1.16.299-2.297.651-3.433 1.027-.566.188-1.135.356-1.708.522-.588.17-1.219.329-1.834.35-.055.002-.054.084.001.086.598.015 1.171.028 1.767-.036.567-.061 1.13-.184 1.684-.321 1.179-.293 2.343-.64 3.519-.944 2.372-.615 4.743-1.229 7.154-1.671.111-.021.083-.21-.03-.198M159.386 186.07a53 53 0 0 0-5.95-.274c-.995.014-1.981.085-2.97.183a48 48 0 0 0-1.415.163c-.518.067-1.028.204-1.546.263-.054.006-.054.09.002.086.491-.041.991-.002 1.483-.014q.742-.021 1.484-.042c.991-.026 1.981-.041 2.972-.077 1.983-.071 3.958-.122 5.943-.124.108-.001.099-.154-.003-.164" style="fill:#263238"/><path d="M129.409 158.542c-20.19 16.989-39.468 54.868-31.201 59.556 7.554 4.284 33.053 3.981 43.671 2.677 3.119-.383-.352-24.602-3.688-24.197-4.031.49-14.231.805-14.632.731-.859-.158 11.909-26.722 15.992-36.493 5.69-13.611-2.56-8.653-10.142-2.274" style="fill:#eb9481"/><path d="M170.092 194.691c1.156 2.333-.789 4.2-.789 4.2s1.801 1.039 2.344 2.961c.622 2.201-2.556 4.142-2.556 4.142s1.605 1.429 1.975 3.517c.384 2.167-2.544 4.583-2.544 4.583s.764 2.152-.211 4.186c-1.667 3.477-7.52 4.133-11.236 4.588s-14.683-1.736-16.815-1.942l-3.124-23.826s16.084-6.78 20.53-6.695c3.744.072 11.128 1.667 12.426 4.286" style="fill:#eb9481"/><path d="M169.089 198.529c-3.963-1.032-8.016-.836-12.072-.87-.09-.001-.09.141 0 .14 4.034-.013 8.019.776 12.046.923.111.005.133-.165.026-.193M168.974 205.692c-.903-.206-1.873-.114-2.791-.076q-1.483.063-2.963.173a113 113 0 0 0-5.913.59c-.087.011-.092.147 0 .14a141 141 0 0 1 8.876-.384c.919-.014 1.89.047 2.789-.171.135-.033.139-.241.002-.272M168.438 214.097c-.778-.211-1.724-.01-2.516.065q-1.349.129-2.697.243c-1.799.152-3.598.302-5.4.391-.09.005-.09.145 0 .141 1.832-.081 3.665-.137 5.497-.234q1.35-.071 2.697-.158c.764-.049 1.725-.023 2.43-.357.04-.019.028-.08-.011-.091" style="fill:#263238"/><path d="m107.719 180.05 21.141 9.079s9.695-17.741 12.708-28.077-1.234-13.284-11.555-4.573c-10.323 8.712-22.294 23.571-22.294 23.571" style="fill:#ffc727"/><path d="M129.608 184.604c-2.71-1.539-5.568-2.842-8.401-4.135-2.809-1.282-5.658-2.486-8.559-3.547-.056-.02-.095.069-.042.096 2.785 1.406 5.618 2.717 8.463 3.998 2.811 1.265 5.616 2.585 8.493 3.693.062.024.103-.073.046-.105" style="fill:#263238"/><path d="M138.797 168.822c-1.353 3.527-2.896 6.969-4.521 10.372a152 152 0 0 1-2.538 5.056c-.902 1.658-1.778 3.328-2.785 4.932l-.055.088-.083-.041a51 51 0 0 1-1.497-.761q.796.27 1.583.562l-.137.047 2.394-5.117 2.451-5.089c.832-1.689 1.656-3.383 2.531-5.053.859-1.678 1.73-3.35 2.657-4.996" style="fill:#263238"/><path d="M134.804 177.316c.404-.934.932-1.784 1.488-2.613.572-.819 1.174-1.618 1.9-2.331-.403.935-.93 1.784-1.488 2.613-.572.818-1.174 1.617-1.9 2.331" style="fill:#263238"/><path d="M139.306 154.439c.499.809 6.591 5.105 10.539 3.576 1.285-.5-1.132-7.635-1.132-7.635l-.058-.568-.818-7.943-10.544-2.668-1.501-.318a547 547 0 0 0 .92 5.223c.023.153.044.297.072.438.067.402.137.812.216 1.219.059.31.114.611.187.935.065.326.135.641.2.967.713 3.2 1.713 6.428 1.919 6.774" style="fill:#eb9481"/><path d="M136.643 143.724c4.084 5.174 9.584 6.001 12.012 6.088l-.818-7.943-10.544-2.668-1.501-.318s.368 2.158.851 4.841" style="fill:#263238"/><path d="M155.102 126.174c5.925 12.7-1.012 17.683-3.752 18.957-2.487 1.157-11.103 4.781-18.309-7.238s-3.174-18.789 2.374-21.737c5.549-2.948 13.762-2.683 19.687 10.018" style="fill:#eb9481"/><path d="M149.86 123.396c-.314.105-.621.149-.942.22-.363.081-.643.182-1.004.041-.194-.076-.313-.357-.257-.552.129-.454.549-.663.982-.778.469-.125.863-.1 1.305.099.427.195.331.832-.084.97M143.093 129.809c.318-.092.596-.23.901-.354.344-.14.633-.215.85-.536.116-.172.055-.471-.102-.6-.364-.3-.828-.234-1.249-.083-.457.164-.767.407-1.018.822-.242.402.199.873.618.751M145.799 130.531c-.023-.029-.047.074-.028.108.451.841.826 1.881.194 2.548-.019.021.004.062.031.044.878-.6.366-1.975-.197-2.7" style="fill:#263238"/><path d="M144.593 130.017c-1.427.578-.166 3.389 1.156 2.853 1.3-.526.04-3.337-1.156-2.853" style="fill:#263238"/><path d="M144.108 130.414c-.174.269-.289.658-.572.819-.327.188-.718.009-1.068-.173-.036-.019-.05.016-.034.054.233.542.688 1.002 1.302.823.56-.163.724-.809.615-1.411-.02-.112-.173-.221-.243-.112M150.448 127.988c-.008-.036.086.011.101.048.356.886.913 1.84 1.831 1.783.029-.002.045.043.014.052-1.024.287-1.751-.987-1.946-1.883" style="fill:#263238"/><path d="M150.827 126.733c1.359-.724 2.706 2.046 1.448 2.717-1.238.659-2.586-2.111-1.448-2.717" style="fill:#263238"/><path d="M151.493 126.634c.29.04.637.202.907.092.313-.128.391-.536.445-.918.006-.039.039-.027.057.009.272.522.366 1.159-.094 1.508-.419.319-.981.03-1.363-.436-.071-.086-.068-.272.048-.255M148.804 137.647c.295.124.62.326.952.226.319-.096.626-.378.866-.6.024-.022.064-.003.056.03-.096.432-.496.837-.936.927-.429.088-.766-.18-1.008-.509-.033-.046.027-.092.07-.074M150.976 132.841s.777 1.211 1.06 1.821c.026.057-.109.153-.311.26-.008.008-.012.014-.024.012-.999.667-2.256.796-3.318.22-.07-.04-.021-.139.052-.126 1.077.218 2.037-.041 2.999-.467-.035-.189-1.4-2.029-1.307-2.081.32-.183 1.082-.26 1.531-.327-1.546-2.569-3.491-4.869-4.991-7.45-.052-.093.073-.186.141-.113 2.209 2.267 4.053 5.184 5.717 7.796.211.323-1.257.446-1.549.455" style="fill:#263238"/><path d="M151.258 134.952s-.219.99-.854 1.596a1.6 1.6 0 0 1-.867.454c-.721.119-1.001-.466-1.109-1.025-.09-.459-.057-.904-.057-.904s1.335.46 2.887-.121" style="fill:#263238"/><path d="M150.404 136.548a1.6 1.6 0 0 1-.867.454c-.721.119-1.001-.466-1.109-1.025.723-.238 1.617-.075 1.976.571" style="fill:#ff9cbd"/><path d="M134.428 138.582c3.049-1.729-1.027-11.746-1.541-12.97.364.754 2.305 4.742 2.687 4.742.096-.003.405-.257.879-.693l.007-.005a10.4 10.4 0 0 1-.62-1.465c-.088-.231.329.43.89 1.217.151-.14.311-.298.49-.459-.465-.834-.959-1.909-1.262-3.143-.102-.418.868 1.201 1.984 2.475 1.841-1.696 4.54-4.069 7.384-5.673a27 27 0 0 1 2.039-1.052c-.601-1.162-1.379-2.329-1.155-2.107a12.7 12.7 0 0 1 1.609 1.903q.497-.224.918-.394c-.775-1.681-2.918-3.89-2.447-3.627 1.813 1.028 3.079 2.435 3.687 3.21 1.231-.367 1.654-.309 1.534-.615-.219-.552-2.873-5.458-8.198-6.958-5.788-1.631-14.389 2.142-15.818 10.05 0 0-3.653 5.548-2.248 9.624 1.4 4.07 7.418 6.937 9.181 5.94" style="fill:#263238"/><path d="M135.514 137.926s-4.373-3.06-5.864-1.355 2.844 6.873 5.331 6.889c2.486.016 2.546-2.286 2.546-2.286z" style="fill:#eb9481"/><path d="M130.93 138.022c-.036.009-.025.061.01.063 1.762.062 3.089 1.19 4.194 2.459-.664-.401-1.399-.486-1.962.335-.029.043.032.092.072.067.579-.364 1.073-.421 1.681-.072.431.247.801.623 1.167.956.122.111.343-.053.233-.192l-.025-.031c-.677-1.972-3.197-4.155-5.37-3.585" style="fill:#263238"/><path d="m148.775 150.376-.918 6.846-9.715-5.901-1.547 3.077s10.722 10.572 10.626 9.995l1.201-6.005 4.642 2.787-2.674-9.277z" style="fill:#ebebeb"/><path d="M152.001 156.516c-.493-1.517-.947-3.059-1.51-4.551-.02-.053-.112-.056-.109.012.069 1.568 1.985 7.359 2.337 8.775l-.02-.012c-.195-.122-4.258-2.409-4.278-2.351-.339.991-1.229 5.368-1.267 5.755-1.698-1.68-8.752-8.214-10.641-9.731-.054-.043-.127.022-.079.077 1.587 1.827 10.755 10.485 10.841 10.434.076.033 1.192-5.363 1.24-6.341.726.539 4.921 3.218 4.874 2.986-.316-1.568-.895-3.534-1.388-5.053" style="fill:#263238"/><path d="M165.019 115.017c-1.461-2.225-2.283-4.728-2.283-7.373 0-9.34 10.257-16.914 22.902-16.914s22.893 7.574 22.893 16.914-10.248 16.914-22.893 16.914c-6.132 0-11.69-1.776-15.797-4.68l-7.889 2.006z" style="fill:#ffc727"/><path d="M193.873 107.643a2.375 2.375 0 1 0 4.75 0 2.375 2.375 0 0 0-4.75 0" style="fill:#263238"/><circle cx="185.636" cy="107.643" r="2.375" style="fill:#263238"/><circle cx="175.024" cy="107.643" r="2.375" style="fill:#263238"/><path d="m318.553 388.305-80.691 14.596c-43.393 7.255-95.196 9.276-170.243 1.589l81.107-13.562c65.613 5.421 126.434 4.633 169.827-2.623" style="fill:#ffc727"/><path d="m323.582 414.672-86.609 14.248c29.412-4.918 60.139-13.377 81.881-24.079 120.595-58.309 171.309-260.268 172.032-262.197h97.093c-.723 1.929-12.161 34.98-60.594 127.244-29.947 54.825-74.217 95.199-127.423 121.391-21.742 10.703-46.968 18.475-76.38 23.393" style="fill:#ffc727"/><g style="opacity:.3"><path d="m323.582 414.672-86.609 14.248c29.412-4.918 60.139-13.377 81.881-24.079 120.595-58.309 171.309-260.268 172.032-262.197h97.093c-.723 1.929-12.161 34.98-60.594 127.244-29.947 54.825-74.217 95.199-127.423 121.391-21.742 10.703-46.968 18.475-76.38 23.393" style="fill:#fff"/></g><path d="m468.328 132.523 22.559 10.122c-.723 1.929-48.495 200.443-172.032 262.197-75.29 37.636-139.68 35.377-250.45 26.228l-.786-26.578c107.61 8.888 190.182 2.377 241.67-24.575C425.475 319.1 468.156 132.978 468.328 132.523" style="fill:#ffc727"/><path d="m468.328 132.523 22.559 10.122c-.723 1.929-48.495 200.443-172.032 262.197-75.29 37.636-139.68 35.377-250.45 26.228l-.786-26.578c107.61 8.888 190.182 2.377 241.67-24.575C425.475 319.1 468.156 132.978 468.328 132.523" style="opacity:.1"/><path d="M468.328 132.523h104.648l15.003 10.122h-97.093z" style="fill:#ffc727"/><path d="m548.034 67.473 68.047 86.325-160.367-.431z" style="fill:#ffc727"/><g style="opacity:.3"><path d="m548.034 67.473 68.047 86.325-160.367-.431z" style="fill:#fff"/></g><path d="m455.714 153.367-27.58-21.161 92.319-85.893 27.581 21.16z" style="fill:#ffc727"/><path d="m455.714 153.367-27.58-21.161 92.319-85.893 27.581 21.16z" style="opacity:.1"/><path d="M499.619 433.622c1.999.645 58.978-.094 61.128-1.501.826-.52 1.203-8.829 1.369-18.882l.002-.315c.039-2.071-5.263-36.819-5.263-36.819l-38.116.382 6.614 36.503.022.624s-21.684 10.038-23.886 11.835c-2.184 1.789-3.869 7.537-1.87 8.173" style="fill:#ad6359"/><path d="M499.614 433.618c1.029.331 16.509.296 31.641-.009 3.042-.061 6.066-.131 8.952-.209 10.791-.296 19.708-.741 20.536-1.281.819-.514 1.194-8.594 1.36-18.461 0-.139.009-.279.009-.419 0-.105 0-.218.009-.322h-.043l-36.722.07.017.628s-21.686 10.033-23.883 11.828c-2.19 1.794-3.872 7.539-1.876 8.175" style="fill:#a6a6a6"/><path d="M500.236 431.404c9.602-.36 48.364-.908 57.883-.534.077.003.078.056.001.061-9.509.565-48.275.798-57.882.631-.203-.004-.205-.15-.002-.158M521.263 413.148c3.77-.754 8.401-.234 11.324 2.422.113.103-.035.262-.158.225-3.744-1.127-7.236-1.836-11.145-2.169-.276-.024-.292-.424-.021-.478M518.556 414.827c3.771-.754 8.401-.234 11.324 2.421.113.103-.035.262-.158.225-3.744-1.127-7.236-1.836-11.145-2.169-.275-.023-.291-.422-.021-.477M515.849 416.507c3.771-.754 8.401-.234 11.324 2.421.113.103-.035.262-.158.225-3.745-1.127-7.237-1.836-11.145-2.169-.275-.023-.291-.423-.021-.477" style="fill:#263238"/><path d="M524.602 413.121h38.723s-12.966-81.609-12.643-83.283c.166-.863 50.068-89.136 50.068-89.136h-43.783s-40.524 63.141-46.084 79.039c-4.041 11.558 13.719 93.38 13.719 93.38" style="fill:#263238"/><path d="M523.664 405.603c2.334-.189 4.662-.382 7.002-.487 2.327-.104 4.663-.123 6.993-.172 4.659-.098 9.316-.166 13.975-.224 1.33-.016 2.659.015 3.989.009 1.32-.006 2.673.138 3.987.04.099-.007.098.155-.004.156-1.164.011-2.335.243-3.498.326-1.166.083-2.331.201-3.497.276-2.329.15-4.661.266-6.992.364-4.657.197-9.32.252-13.981.275-2.666.014-5.323-.186-7.979-.375-.122-.01-.113-.179.005-.188M545.421 326.561c.613-2.464 2.015-4.639 3.313-6.788l8.769-14.52a6370 6370 0 0 1 17.869-29.389c2.961-4.843 5.952-9.668 8.93-14.5 2.749-4.46 8.985-16.388 9.692-17.54.052-.086.193-.046.15.045-1.999 4.204-4.632 9.452-7.098 13.832-2.708 4.81-5.602 9.52-8.418 14.267-5.768 9.727-11.64 19.392-17.481 29.075-2.948 4.886-5.912 9.762-8.871 14.642-1.422 2.345-2.888 4.67-4.254 7.049-1.367 2.381-2.2 4.772-2.142 7.545.058 2.781.547 5.578.904 8.333a1565 1565 0 0 0 3.453 25.046 3027 3027 0 0 0 5.089 33.498c.219 1.388.448 2.775.677 4.161.022.133-.181.185-.205.051-1.997-11.158-3.942-22.321-5.632-33.531-1.69-11.213-3.229-22.445-4.716-33.686-.331-2.514-.651-5.091-.029-7.59" style="fill:#455a64"/><path d="M685.612 436.716c-2.005.625-58.974-.697-61.109-2.126-.821-.529-1.112-8.841-1.176-18.895l.001-.315c-.017-2.072-15.094-36.889-15.094-36.889l37.239.759 14.619 36.572-.029.623s21.58 10.259 23.764 12.078c2.165 1.812 3.791 7.577 1.785 8.193" style="fill:#ad6359"/><path d="M685.612 436.716c-2.005.625-58.974-.697-61.109-2.126-.821-.529-1.112-8.841-1.176-18.895l.001-.315s-2.547-6.974-2.553-7.271l36.766.65 2.55 7.063-.029.623s21.58 10.259 23.764 12.078c2.166 1.812 3.792 7.577 1.786 8.193" style="fill:#ebebeb"/><path d="M685.612 436.716c-2.005.625-58.974-.697-61.109-2.126-.821-.529-1.112-8.841-1.176-18.895l.001-.315 36.763.442-.029.623s21.58 10.259 23.764 12.078c2.166 1.812 3.792 7.577 1.786 8.193" style="fill:#a6a6a6"/><path d="M685.018 434.492c-9.598-.459-48.352-1.403-57.875-1.127-.077.002-.079.055-.001.061 9.503.662 48.264 1.292 57.872 1.223.204-.001.207-.147.004-.157M664.179 416.021c-3.763-.793-8.398-.32-11.348 2.305-.114.102.032.262.155.227 3.755-1.089 7.255-1.762 11.167-2.055.276-.02.296-.42.026-.477M666.869 417.729c-3.763-.793-8.398-.32-11.348 2.305-.114.102.032.263.155.227 3.756-1.089 7.255-1.762 11.167-2.055.275-.021.295-.421.026-.477M669.558 419.436c-3.763-.793-8.398-.32-11.348 2.305-.114.102.032.262.155.227 3.756-1.089 7.255-1.762 11.167-2.055.276-.021.296-.42.026-.477" style="fill:#263238"/><path d="M561.569 240.702s5.247 31.98 5.605 33.009c0 0 1.95.924 5.47 2.55l42.491 140.058 47.044.166-55.833-175.783z" style="fill:#263238"/><path d="M565.468 272.72c4.085 1.622 7.997 3.838 11.729 6.143.146.091.036.319-.123.242-3.958-1.923-7.999-3.775-11.846-5.913-.303-.168-.074-.597.24-.472M566.977 254.398c.646 3.827 1.004 7.715 1.435 11.571.103.925.214 1.849.314 2.775.092.848.191 1.702.665 2.434.834 1.289 2.324 1.894 3.673 2.484.156.068.093.315-.079.261-1.371-.429-2.89-.993-3.9-2.063-1.23-1.302-1.191-3.272-1.382-4.946-.47-4.137-.919-8.327-.901-12.496 0-.098.158-.12.175-.02" style="fill:#455a64"/><path d="M571.63 255.573c.135 2.756.443 5.514.673 8.264q.168 2.037.292 4.077c.085 1.382.245 2.798.201 4.182-.003.093-.151.116-.168.019-.226-1.309-.258-2.671-.366-3.995a162 162 0 0 1-.286-4.184c-.156-2.785-.232-5.588-.482-8.366-.007-.087.132-.085.136.003M577.637 282.131c3.259 7.939 38.067 121.769 38.439 122.759.029.078-.096.128-.134.054-4.654-9.1-34.357-111.79-37.322-119.792q-.55-1.487-1.11-2.969c-.028-.074.097-.125.127-.052M614.784 408.434c1.359-.19 2.766-.185 4.135-.28 1.377-.096 2.758-.124 4.138-.155 2.76-.062 5.519-.095 8.28-.128 5.48-.065 10.961-.09 16.441-.089 3.13.001 6.255.167 9.383.231.098.002.102.152.003.156-2.759.112-5.514.282-8.274.386-2.757.104-5.52.116-8.279.156-5.56.08-11.122.172-16.683.158a152 152 0 0 1-4.63-.06c-1.497-.05-3.045-.037-4.532-.214-.098-.012-.063-.15.018-.161" style="fill:#455a64"/><path d="M567.443 192.497c-9.352-6.639-23.453-22.788-26.239-29.157-3.584-8.194-9.89-36.468-7.051-39.769 1.566-1.821 21.967.884 23.138 3.161s1.717 27.176 2.041 29.07 9.638 19.758 14.862 28.271c6.119 9.971-.664 12.745-6.751 8.424" style="fill:#ad6359"/><path d="M534.479 130.292c.024-.182-1.523-2.448-.953-5.435.571-2.992 2.613-6.168 2.043-7.979-.904-2.872-3.674-7.477-2.591-8.52 2.234-2.151 5.03-.671 8.245 4.609.837 1.375 2.073 4.843 3.109 5.02 1.811.31 2.568-2.854 2.78-5.756.41-5.613-.137-13.835 3.578-14.897 1.404-.4 2.071 1.635 2.37 4.151.143-3.652.691-7.279 2.233-7.785.881-.293 1.538.114 2.034.951.283-.965.81-1.628 1.656-1.763 1.438-.237 2.445 1.045 3.14 2.854.23-.271.557-.432 1.012-.416 3.886.073 5.574 14.146 4.214 17.686-3.992 10.42-11.283 19.426-11.283 19.426-5.219 1.598-21.586-2.134-21.587-2.146" style="fill:#ad6359"/><path d="M552.449 117.793c1.111-2.337 1.789-4.954 1.783-7.551-.007-3.073-.835-6.076-1.139-9.118-.008-.082-.14-.065-.128.017.22 1.483.288 2.996.448 4.488.156 1.455.359 2.918.413 4.381.098 2.681-.338 5.304-1.419 7.767-.011.026.03.042.042.016M557.394 118.721c.965-2.796 1.963-5.655 2.342-8.603.415-3.226-.294-6.457-.95-9.605a128 128 0 0 0-1.306-5.644c-.02-.078-.145-.065-.128.017.7 3.219 1.307 6.459 1.809 9.714.473 3.063.388 6.06-.335 9.076-.407 1.699-.944 3.364-1.48 5.026-.01.03.037.05.048.019M562.44 118.476c1.094-2.61 2.056-4.882 2.213-7.746.209-3.793-.758-8.252-1.107-9.824a110 110 0 0 0-1.299-5.172c-.019-.07-.141-.038-.123.032a92 92 0 0 1 2.146 11.707c.219 1.881.235 3.774-.128 5.639-.359 1.844-1.055 3.607-1.72 5.357-.005.011.013.019.018.007" style="fill:#263238"/><path d="m559.151 134.983-25.847 5.471s5.475 20.251 7.711 24.949 20.111 25.143 27.088 28.809 11.577-.093 7.221-9.44-13.899-27.188-14.492-29.186c-.592-1.997-1.681-20.603-1.681-20.603" style="fill:#455a64"/><path d="M573.77 192.14c-.58.45-1.14.93-1.62 1.52.7-.3 1.31-.71 1.9-1.14.58-.45 1.14-.93 1.61-1.52-.69.3-1.3.71-1.89 1.14m-5.98-10.28c-.28.7-.42 1.42-.53 2.14-.09.73-.15 1.46-.07 2.21.28-.7.42-1.42.53-2.14.09-.73.15-1.46.07-2.21m-25.66-26.09c-.45-.58-.92-1.14-1.51-1.62.29.7.7 1.31 1.14 1.9.45.58.92 1.14 1.51 1.61-.3-.69-.71-1.3-1.14-1.89m-4.77-16.18-.49.1c.45.58.91 1.13 1.5 1.6-.27-.62-.62-1.17-1.01-1.7m23.31 36.33c-.45-.58-.92-1.14-1.51-1.62.29.7.7 1.31 1.14 1.9.45.58.92 1.14 1.51 1.61-.3-.69-.71-1.3-1.14-1.89m-5.38-17.87c-.58.45-1.14.92-1.61 1.51.69-.3 1.3-.7 1.89-1.14.58-.45 1.14-.92 1.61-1.51-.69.3-1.3.7-1.89 1.14m-4.55-21.29c-.06.06-.1.11-.15.17.18-.08.36-.16.53-.25zM563.43 165c-.73-.09-1.46-.15-2.21-.07.7.28 1.42.42 2.14.53.73.09 1.46.15 2.21.07-.7-.28-1.42-.42-2.14-.53m-17.88-19.44c-.73-.09-1.46-.15-2.21-.07.7.28 1.42.43 2.14.54.73.09 1.46.15 2.21.07-.7-.28-1.42-.43-2.14-.54m2.99 19.69c-.28.7-.42 1.42-.53 2.14-.09.73-.15 1.46-.07 2.21.28-.7.42-1.42.53-2.14.09-.73.15-1.46.07-2.21m10.09-22.93c-.28.7-.43 1.43-.54 2.15-.09.73-.15 1.46-.07 2.21.28-.7.43-1.42.53-2.15.1-.72.16-1.45.08-2.21" style="fill:#fff"/><path d="M558.064 142.215c-3.652.961-18.741 4.348-22.051 4.859-.23.036-.308-.101-.074-.169 10.875-3.143 18.452-4.074 22.082-4.833.091-.019.136.119.043.143M568.105 194.214c-4.995-2.623-15.571-13.847-22.004-21.737l25.15 3.976c1.546 3.058 2.972 5.957 4.076 8.322 4.354 9.346-.246 13.107-7.222 9.439" style="fill:#263238"/><path d="M609.164 245.122s-60.397 8.333-60.528 8.229c-.886-.71 2.248-65.271 4.643-70.81 2.568-5.939 10.567-9.039 15.075-6.518 11.286 6.31 25.61 32.078 29.029 40.075 5.651 13.173 11.397 25.422 11.781 29.024" style="fill:#455a64"/><path d="m560.67 175.92-.02-.02c-.15.05-.3.1-.44.17.03.04.06.09.09.13.45.58.92 1.14 1.51 1.61-.3-.69-.71-1.3-1.14-1.89m-1.44 63.5c-.28.7-.43 1.43-.54 2.15-.09.73-.15 1.46-.07 2.21.28-.7.43-1.42.53-2.15.1-.72.16-1.45.08-2.21m20.96-40.36c-.28.7-.43 1.43-.54 2.15-.09.73-.15 1.46-.07 2.21.28-.7.43-1.42.53-2.15.1-.72.16-1.45.08-2.21m-12.4-17.2c-.28.7-.42 1.42-.53 2.14-.09.73-.15 1.46-.07 2.21.28-.7.42-1.42.53-2.14.09-.73.15-1.46.07-2.21m15.88 66.59c-.03.06-.05.13-.07.19.02 0 .05 0 .08-.01 0-.06 0-.12-.01-.18m-13.57-26.46c-.28.7-.42 1.42-.53 2.14-.09.73-.15 1.46-.07 2.21.28-.7.42-1.42.53-2.14.09-.73.15-1.46.07-2.21m-15.99-18c-.28.7-.42 1.42-.53 2.15-.09.72-.15 1.45-.07 2.21.28-.7.42-1.42.53-2.15.09-.73.15-1.46.07-2.21m40.82 21.72c-.29.7-.43 1.42-.54 2.15-.09.72-.15 1.46-.07 2.21.28-.7.42-1.42.53-2.15.1-.73.16-1.46.08-2.21m-10.53-32.4c-.26 0-.52.01-.78.04.34.13.68.24 1.02.32zm-17.29 8.98c-.73-.09-1.46-.15-2.21-.07.7.28 1.42.43 2.14.54.73.09 1.46.15 2.21.07-.7-.28-1.42-.43-2.14-.54m17.95 18.99c-.73-.09-1.46-.15-2.21-.07.7.28 1.42.42 2.14.53.73.09 1.46.15 2.21.07-.7-.28-1.42-.42-2.14-.53m-33.83-3.44c-.45-.06-.91-.1-1.38-.11-.01.1-.01.2-.02.3.45.12.89.2 1.34.27.73.09 1.46.15 2.21.07-.7-.28-1.42-.42-2.15-.53m36.78 24.54c-.73-.09-1.46-.15-2.21-.07.7.28 1.42.42 2.15.53.72.09 1.45.15 2.21.07-.71-.28-1.43-.42-2.15-.53m-18.72-5.92c-.73-.09-1.46-.15-2.21-.07.7.28 1.42.42 2.15.53.72.09 1.45.15 2.21.07-.71-.28-1.43-.42-2.15-.53m-18.72-1.8c-.53-.06-1.05-.11-1.59-.11-.01.09-.01.17-.01.25.5.15 1.02.24 1.53.32.73.1 1.46.15 2.21.07-.7-.28-1.42-.42-2.14-.53m23.2-42.52c-.58.45-1.14.93-1.62 1.52.7-.3 1.31-.71 1.9-1.14.58-.45 1.14-.93 1.61-1.52-.69.3-1.3.71-1.89 1.14m21.06 24.08c-.58.45-1.14.92-1.61 1.51.69-.3 1.3-.7 1.89-1.14.58-.45 1.14-.92 1.61-1.51-.69.3-1.3.7-1.89 1.14m-18.51-3.1c-.58.45-1.14.92-1.61 1.51.69-.3 1.3-.7 1.89-1.14.58-.45 1.14-.92 1.61-1.51-.69.3-1.3.7-1.89 1.14m24.43 27.58c-.58.44-1.14.92-1.61 1.51.69-.3 1.3-.71 1.89-1.14.58-.45 1.14-.93 1.62-1.51-.7.29-1.31.7-1.9 1.14m-26.99 4.44c-.58.44-1.14.92-1.61 1.51.69-.3 1.3-.71 1.89-1.14.58-.45 1.14-.93 1.62-1.51-.7.29-1.31.7-1.9 1.14m-15.53-18.76c-.58.44-1.14.92-1.61 1.51.69-.3 1.3-.71 1.89-1.14.58-.45 1.14-.93 1.62-1.51-.7.29-1.31.7-1.9 1.14m18.98-42.48c-.07-.1-.15-.2-.23-.29 0-.01-.01-.02-.02-.03q-.405-.465-.81-.9l-.03-.03c-.13-.13-.27-.25-.42-.37.3.7.7 1.31 1.14 1.9.45.58.92 1.14 1.51 1.61-.3-.69-.7-1.3-1.14-1.89m11.32 23.15c-.45-.58-.92-1.14-1.51-1.62.3.7.7 1.31 1.14 1.9.45.58.92 1.14 1.51 1.61-.3-.69-.7-1.3-1.14-1.89m15.84 25.08-.01-.01c-.33-.39-.67-.75-1.08-1.08.29.7.7 1.31 1.14 1.9.2.25.38.49.6.73-.21-.5-.43-1.01-.65-1.54M565.33 250c.16.38.35.73.56 1.06l.44-.06c-.3-.36-.62-.69-1-1m-14.54-1.68c-.45-.58-.92-1.14-1.51-1.62.29.7.7 1.31 1.14 1.9.45.58.92 1.14 1.51 1.61-.3-.69-.71-1.3-1.14-1.89m31.44-15.66c-.45-.58-.92-1.14-1.51-1.62.29.7.7 1.31 1.14 1.9.45.58.92 1.14 1.51 1.61-.3-.69-.71-1.3-1.14-1.89m-22.11-40.03c-.45-.58-.92-1.14-1.51-1.62.29.7.7 1.31 1.14 1.9.45.58.92 1.14 1.51 1.61-.3-.69-.71-1.3-1.14-1.89m3.57 19.88c-.45-.58-.92-1.14-1.51-1.62.29.7.7 1.31 1.14 1.9.45.58.92 1.14 1.51 1.61-.3-.69-.71-1.3-1.14-1.89" style="fill:#fff"/><path d="M556.093 185.496c2.828.471 10.113-5.113 11.395-9.63.086-.31-.998-3.115-2.154-6.586-.693-2.109-1.415-4.474-1.919-6.679l-13.065 6.516s2.414 4.313 3.268 8.163c.068.323.104.629.111.927.005.043.004.096.014.155.112 1.782-.908 6.592 2.35 7.134" style="fill:#ad6359"/><path d="M562.745 162.933c.202 3.095.266 13.211-7.559 15.18a9 9 0 0 1-1.443.253c-.009-.062-.008-.116-.015-.16a5.3 5.3 0 0 0-.111-.923c-.849-3.856-3.266-8.163-3.266-8.163zM550.375 140.165s-5.042.854-6.958 5.337c-1.915 4.483-1.974 9.632-1.625 9.964.35.332 8.583-15.301 8.583-15.301" style="fill:#263238"/><path d="M567.384 150.074c.373 5.247-5.462 18.818-9.674 21.178-6.105 3.42-14.483 1.961-16.981-5.008-2.421-6.755 5.496-24.308 10.05-26.286 6.707-2.912 16.054 2.366 16.605 10.116" style="fill:#ad6359"/><path d="M550.896 156.079c.022-.031.052.075.034.111-.434.896-.78 1.995-.093 2.663.021.021-.002.065-.03.048-.94-.588-.466-2.043.089-2.822" style="fill:#263238"/><path d="M552.131 155.493c1.511.541.318 3.523-1.082 3.022-1.378-.494-.185-3.476 1.082-3.022M545.792 153.836c.007-.038-.09.015-.104.053-.34.935-.888 1.95-1.846 1.922-.03-.001-.046.047-.013.055 1.078.265 1.791-1.089 1.963-2.03" style="fill:#263238"/><path d="M545.354 152.541c-1.441-.707-2.75 2.226-1.415 2.881 1.313.646 2.622-2.288 1.415-2.881M554.56 153.128c-.443-.084-.838-.236-1.267-.365-.485-.146-.886-.211-1.222-.619-.18-.219-.135-.632.061-.827.456-.454 1.094-.423 1.685-.272.641.164 1.093.455 1.485.986.381.515-.158 1.209-.742 1.097M544.297 150.913c.326.312.679.545 1.033.82.4.31.686.598 1.213.635.283.02.593-.257.638-.53.105-.635-.291-1.136-.757-1.53-.506-.427-1.005-.626-1.665-.637-.64-.011-.892.83-.462 1.242M549.116 164.252c-.308.128-.648.337-.994.231-.332-.102-.651-.398-.9-.63-.025-.023-.066-.004-.059.031.098.451.514.874.972.971.447.094.799-.184 1.053-.526.036-.048-.027-.096-.072-.077M549.252 161.097c-.838.595-1.773.729-2.659.559a4.2 4.2 0 0 1-1.152-.401 1 1 0 0 1-.206-.111 3 3 0 0 1-.19-.112c-.102-.059-.125-.172-.102-.281l.003-.007a.4.4 0 0 1 .047-.091l.003-.007.034-.08c.265-.719.767-1.773.767-1.773-.312.026-1.876.092-1.706-.271 1.414-3.003 2.987-6.342 5.029-9.032.063-.092.209-.007.159.091-1.245 2.94-2.999 5.641-4.297 8.574.487.009 1.296-.013 1.665.143.089.07-1.006 2.02-1.1 2.352 0 0-.006.014-.007.036 1.134.631 2.179.63 3.66.292.089-.024.137.068.052.119" style="fill:#263238"/><path d="M546.004 161.063s.29 1.103 1.031 1.756c.272.242.597.424.995.472.815.101 1.104-.568 1.201-1.202.081-.52.024-1.019.024-1.019s-1.481.577-3.251-.007" style="fill:#263238"/><path d="M547.035 162.819c.272.242.597.424.995.472.815.101 1.104-.568 1.201-1.202-.824-.235-1.821-.012-2.196.73" style="fill:#ff9cbd"/><path d="M562.785 162.218c-1.667-.121-1.644-5.266-1.46-7.176.162-1.684 1.537-6.69 1.591-7.047s-8.148 1.742-11.478-.812-4.532-6.898-3.974-8.49 6.769-3.778 10.883-2.417 7.586 8.607 7.586 8.607-.996-2.935-.862-3.092 2.336 1.895 2.096 3.938c0 0 .388-2.531.602-2.498s1.465 2.815.421 4.151c0 0 1.556 2.939.91 5.247-.645 2.309-4.357 9.731-6.315 9.589" style="fill:#263238"/><path d="M549.074 145.364c.938.968 1.858 1.989 3.055 2.646 1.294.709 2.842.915 4.301.921 1.491.006 2.951-.258 4.366-.725 1.239-.409 2.434-1.019 3.704-1.319.317-.075.468.399.224.57-2.409 1.694-5.843 2.557-8.759 2.373-3.068-.194-5.4-1.799-6.916-4.442-.009-.016.01-.04.025-.024" style="fill:#263238"/><path d="M561.717 161.096s4.329-3.761 6.113-2.106-2.268 7.663-4.922 7.959-2.977-2.156-2.977-2.156z" style="fill:#ad6359"/><path d="M566.626 160.683c.04.006.034.063-.004.068-1.875.263-3.167 1.618-4.205 3.098.664-.503 1.44-.676 2.134.138.036.043-.024.102-.069.079-.66-.324-1.194-.329-1.805.111-.433.312-.786.755-1.139 1.152-.118.132-.372-.018-.27-.179l.024-.036c.5-2.18 2.948-4.796 5.334-4.431" style="fill:#263238"/><path d="M556.356 196.579c-12.091-2.362-35.64-12.776-39.307-15.48-7.688-5.669-23.326-33.429-21.98-37.869.743-2.45 21.766-3.243 23.912-1.544s11.438 22.5 12.584 24.196 24.876 17.706 30.082 22.272c9.409 8.253 2.579 9.963-5.291 8.425" style="fill:#ad6359"/><path d="M517.52 149.333s4.439-7.935 7.098-13.26c1.484-2.971 3.572-8.292 3.664-10.973.137-4.011-1.853-20.871-5.951-20.477-3.71.357-.161 14.625-.161 14.625s-2.308-14.714-6.696-13.463 1.765 16.839 1.765 16.839-2.71-15.065-7.031-13.059c-3.265 1.516 1.512 15.948 1.512 15.948s-2.419-12.933-5.845-11.518c-3.785 1.563-.211 15.161-.211 15.161-8.101 5.061-11.356 8.609-10.675 15.007.109 1.034 22.531 5.17 22.531 5.17" style="fill:#ad6359"/><path d="M523.692 125.521c-.208-1.738-.408-3.499-.77-5.213a56 56 0 0 0-1.305-5.089c-1.276-4.102-2.717-6.47-2.643-6.314 1.727 3.69 3.12 9.804 3.482 11.519.362 1.71.809 3.402 1.172 5.113.009.043.069.025.064-.016M517.528 126.942c-.362-2.208-.641-4.413-1.101-6.606a125 125 0 0 0-1.81-7.364c-.047-.165-.304-.167-.264.001.521 2.167 1.138 5.299 1.633 7.472.494 2.165 1.075 4.328 1.489 6.509.008.034.059.021.053-.012M512.457 129.112c-.381-3.403-1.389-6.731-2.457-9.972-.053-.161-.137-.048-.092.12.879 3.299 1.592 5.882 2.43 9.866.013.062.127.058.119-.014" style="fill:#263238"/><path d="m497.492 153.163 27.451-2.827s5.711 13.228 6.849 14.803 26.872 18.542 31.997 22.798c5.125 4.257 4.245 12.173-6.804 10.002-9.529-1.872-35.293-12.552-40.159-15.811-4.865-3.257-19.334-28.965-19.334-28.965" style="fill:#455a64"/><path d="M560.12 192.63c-.45-.58-.92-1.14-1.51-1.62.29.7.7 1.31 1.14 1.9.45.58.92 1.14 1.51 1.61-.3-.69-.71-1.3-1.14-1.89m-10.99-.48c-.58.45-1.14.92-1.61 1.51.69-.3 1.3-.7 1.89-1.14.58-.45 1.14-.92 1.61-1.51-.69.3-1.3.7-1.89 1.14m1.18-10.86c-.73-.09-1.46-.15-2.21-.07.7.28 1.42.43 2.14.54.73.09 1.46.15 2.21.07-.7-.28-1.42-.43-2.14-.54m-9.8 4.95c-.28.7-.42 1.42-.53 2.15-.09.72-.15 1.45-.07 2.21.28-.7.42-1.42.53-2.15.09-.73.15-1.46.07-2.21m-34.37-29.54c-.45-.58-.92-1.14-1.51-1.62.29.7.7 1.31 1.14 1.9.45.58.92 1.14 1.51 1.61-.3-.69-.71-1.3-1.14-1.89m28.41 13.81c-.45-.58-.92-1.14-1.51-1.62.3.7.7 1.31 1.14 1.9.45.58.92 1.14 1.51 1.61-.3-.69-.7-1.3-1.14-1.89m-12.21 3.5c-.58.45-1.14.92-1.61 1.51.69-.3 1.3-.7 1.89-1.14.58-.45 1.14-.92 1.61-1.51-.69.3-1.3.7-1.89 1.14m18.51 3.1c-.58.45-1.14.92-1.61 1.51.69-.3 1.3-.7 1.89-1.14.58-.45 1.14-.92 1.61-1.51-.69.3-1.3.7-1.89 1.14m-21.06-24.08c-.58.45-1.14.93-1.62 1.52.7-.3 1.31-.71 1.9-1.14.58-.45 1.14-.93 1.61-1.52-.69.3-1.3.71-1.89 1.14m9.89 29.47c-.73-.09-1.46-.15-2.21-.07.7.28 1.42.42 2.14.53.73.09 1.46.15 2.21.07-.7-.28-1.42-.42-2.14-.53m-15.8-17.26c-.73-.09-1.46-.15-2.21-.07.7.28 1.42.43 2.14.54.73.09 1.46.15 2.21.07-.7-.28-1.42-.43-2.14-.54m5.39 16.62c-.19.47-.31.96-.41 1.44.13.07.26.14.4.21.05-.54.07-1.09.01-1.65m6.94-21.91c-.28.7-.43 1.43-.54 2.15-.09.73-.15 1.46-.07 2.21.28-.7.43-1.42.53-2.15.1-.72.16-1.45.08-2.21" style="fill:#fff"/><path d="M503.203 159.626c3.766-.283 19.134-2.007 22.429-2.603.229-.041.258-.196.015-.184-11.306.578-18.771 2.171-22.45 2.638-.092.012-.09.156.006.149M562.166 200.517c-2.3-.729-4.463-1.764-6.603-2.827-2.128-1.091-4.223-2.244-6.21-3.605 2.259.833 4.415 1.865 6.549 2.936a102 102 0 0 1 3.163 1.682c1.049.573 2.071 1.194 3.101 1.814" style="fill:#263238"/><path d="M555.499 197.245c-.786-.043-1.527-.229-2.258-.448-.725-.237-1.439-.509-2.108-.925.786.042 1.527.228 2.258.448.725.238 1.439.51 2.108.925M563.79 187.938c-1.1-.595-2.048-1.359-2.959-2.163-.896-.822-1.753-1.686-2.458-2.72 1.102.594 2.05 1.357 2.96 2.163.894.822 1.751 1.687 2.457 2.72" style="fill:#263238"/></svg>