<?xml version="1.0" encoding="UTF-8"?>
<svg xmlns="http://www.w3.org/2000/svg" id="Layer_1" data-name="Layer 1" viewBox="0 0 64 64" width="512" height="512"><path d="M54.839,7.562c-2,.03-6.6,1.487-14.946,10.788l-6.077-1.372.992-.991a1,1,0,0,0,0-1.408l-2-2a1.02,1.02,0,0,0-1.409,0l-3.145,3.145L23,14.536l1.18-1.18a1,1,0,0,0,0-1.407l-2-2a1,1,0,0,0-1.408,0L17.43,13.28l-2.613-.59a2.663,2.663,0,0,0-2.652.906,2.173,2.173,0,0,0,.63,3.292L31.26,27.006,20.6,37.679,11.537,35.8a1,1,0,0,0-.943.311l-2.84,3.168A1,1,0,0,0,8,40.805l9.724,5.526,5.385,9.6a1,1,0,0,0,1.458.316l3.368-2.474a1,1,0,0,0,.387-1l-1.832-9.192,10.7-10.7,10.1,18.04a2.257,2.257,0,0,0,.357.467,2.174,2.174,0,0,0,3.069,0,2.354,2.354,0,0,0,.633-2.2l-.616-2.771,3.254-3.254a1,1,0,0,0,0-1.408l-2-2a1,1,0,0,0-1.408,0l-1.084,1.084-1.171-5.269,3.033-3.034a1,1,0,0,0,0-1.408l-2-2a1.02,1.02,0,0,0-1.408,0l-.863.863-1.27-5.713c8.461-7.737,10.319-12.606,10.666-14.824A1.624,1.624,0,0,0,56.1,8.122,1.708,1.708,0,0,0,54.839,7.562ZM32.1,13.284l2,2-1.438,1.438L29.4,15.983ZM21.465,10.653l2,2-1.626,1.627-3.259-.736Zm-8.19,5.358a1.174,1.174,0,0,1-.34-1.778,1.675,1.675,0,0,1,1.663-.567l24.473,5.523L32,26.269ZM50.011,50.68a1.173,1.173,0,0,1-1.655,0,1.2,1.2,0,0,1-.194-.254L37.93,32.145,44.972,25.1l5.4,24.306A1.362,1.362,0,0,1,50.011,50.68Zm1.268-10.219,2,2-2.8,2.8-.727-3.268ZM48.646,29.832l2,2-2.583,2.584-.726-3.268ZM44.91,23.751,25.6,43.063a.5.5,0,0,0-.137.452l1.886,9.451L23.985,55.44l-5.453-9.72a.493.493,0,0,0-.189-.19L8.5,39.942l2.835-3.167,9.322,1.938a.507.507,0,0,0,.455-.136L40.443,19.23C48.667,10.012,53,8.589,54.856,8.562a.6.6,0,0,1,.492.215.632.632,0,0,1,.143.516C55.226,10.992,53.666,15.8,44.91,23.751Z"/></svg>
