<svg id="Layer_1" fill="#6B7280"  stroke="#6B7280" enable-background="new 0 0 512 512" viewBox="0 0 512 512" xmlns="http://www.w3.org/2000/svg"><path d="m481.95 316.371c-12.534-18.13-29.616-32.292-49.611-41.182v-90.596c9.179-2.089 16.056-10.301 16.056-20.103v-13.709c0-11.376-9.255-20.632-20.631-20.632h-87.596c-11.376 0-20.632 9.256-20.632 20.632v13.709c0 9.802 6.878 18.014 16.057 20.103v90.596c-12.017 5.343-22.972 12.603-32.529 21.472v-77.655c0-2.376-1.206-4.59-3.201-5.879-1.996-1.29-4.509-1.479-6.676-.502l-120.595 54.365c-2.509 1.131-4.123 3.628-4.123 6.381v85.387h-41.179v-180.849c0-3.866-3.134-7-7-7h-63.39c-3.866 0-7 3.134-7 7v180.849h-33.9c-3.866 0-7 3.134-7 7v130.243c0 3.866 3.134 7 7 7h367.966c65.635 0 119.034-53.398 119.034-119.034 0-24.302-7.279-47.677-21.05-67.596zm-148.414-151.881v-13.709c0-3.657 2.975-6.632 6.632-6.632h87.596c3.657 0 6.631 2.975 6.631 6.632v13.709c0 3.657-2.975 6.632-6.631 6.632h-87.596c-3.657 0-6.632-2.975-6.632-6.632zm11.643 121.851c2.665-1.06 4.414-3.637 4.414-6.505v-94.714h68.747v94.714c0 2.868 1.749 5.445 4.414 6.505 17.165 6.825 31.726 17.72 42.797 31.321-35.173-8.265-54.26-2.378-72.788 3.357-21.411 6.627-41.712 12.905-89.698-3.268v-.916c10.983-13.215 25.299-23.808 42.114-30.494zm-162.71 50.091h64.087c3.866 0 7-3.134 7-7s-3.134-7-7-7h-64.087v-22.061h64.087c3.866 0 7-3.134 7-7s-3.134-7-7-7h-64.087v-8.478l106.595-48.054v82.297c-1.052 1.389-2.086 2.794-3.082 4.234-8.922 12.906-15.1 27.267-18.358 42.387h-85.156v-22.325zm-118.569-151.523h49.39v17.146h-32.805c-3.866 0-7 3.134-7 7s3.134 7 7 7h32.805v142.703h-49.39zm-40.9 217.85h130.1c3.866 0 7-3.134 7-7s-3.134-7-7-7h-130.1v-16.001h242.474c-.346 3.709-.542 7.446-.542 11.209 0 .154.005.306.006.46h-64.192c-3.866 0-7 3.134-7 7v97.574h-170.746zm184.747 86.242v-54.512h38.728c3.866 0 7-3.134 7-7s-3.134-7-7-7h-38.728v-22.062h58.066c4.776 39.257 28.736 72.675 62.196 90.574zm176.219 0c-57.916 0-105.034-47.118-105.034-105.034 0-19.759 5.428-38.472 15.139-54.509 26.495 9.341 45.818 12.531 61.31 12.531 16.975 0 29.354-3.831 41.519-7.596 19.95-6.175 38.832-12.001 80.299.994 7.608 14.647 11.8 31.21 11.8 48.58.001 57.916-47.117 105.034-105.033 105.034zm16.846-427.932c4.555-14.69 8.488-27.377.295-41.568-1.933-3.348-.786-7.629 2.562-9.562 3.348-1.934 7.629-.786 9.562 2.562 11.253 19.491 5.781 37.141.953 52.714-4.2 13.547-7.827 25.248-.953 37.154 1.933 3.348.786 7.629-2.562 9.562-1.102.637-2.306.939-3.494.939-2.419 0-4.772-1.255-6.068-3.501-9.934-17.207-4.813-33.726-.295-48.3zm-47.285 0c4.554-14.69 8.487-27.377.295-41.568-1.933-3.348-.786-7.629 2.562-9.562 3.35-1.934 7.63-.786 9.562 2.562 11.253 19.491 5.781 37.141.953 52.713-4.2 13.548-7.827 25.248-.953 37.154 1.933 3.348.786 7.629-2.562 9.562-1.102.637-2.306.939-3.494.939-2.419 0-4.772-1.255-6.068-3.501-9.934-17.206-4.813-33.725-.295-48.299zm-265.26 91.519c14.229 0 27.237-6.86 35.248-18.254 10.001 3.035 20.937 2.333 30.47-1.972 11.858 11.086 27.579 17.349 43.926 17.349 20.115 0 38.706-9.216 50.846-24.934 4.809 1.794 9.935 2.727 15.102 2.727 23.783 0 43.132-19.349 43.132-43.131 0-23.783-19.349-43.132-43.132-43.132-5.643 0-11.207 1.104-16.378 3.225-12.162-14.718-30.275-23.343-49.569-23.343-7.758 0-15.282 1.352-22.437 4.025-9.452-10.196-22.873-16.146-36.893-16.146-27.703 0-50.241 22.538-50.241 50.241 0 2.386.166 4.752.496 7.087-.189-.002-.379-.004-.569-.004-23.783 0-43.131 19.349-43.131 43.131s19.347 43.131 43.13 43.131zm0-72.263c2.723 0 5.416.374 8.005 1.112 2.549.729 5.292-.049 7.082-2.005 1.791-1.956 2.322-4.755 1.374-7.231-1.584-4.134-2.387-8.495-2.387-12.959 0-19.983 16.257-36.241 36.241-36.241 11.465 0 22.379 5.52 29.194 14.767 1.987 2.695 5.604 3.606 8.632 2.173 6.748-3.197 13.983-4.818 21.504-4.818 16.708 0 32.286 8.271 41.671 22.125 2.081 3.071 6.195 3.985 9.381 2.086 4.489-2.677 9.64-4.092 14.895-4.092 16.063 0 29.132 13.068 29.132 29.132 0 16.063-13.068 29.131-29.132 29.131-4.934 0-9.808-1.256-14.096-3.632-3.242-1.798-7.327-.753-9.31 2.381-9.288 14.688-25.191 23.458-42.542 23.458-14.236 0-27.866-6.074-37.396-16.665-2.275-2.528-6.038-3.057-8.922-1.249-8.373 5.249-19.108 5.856-28.017 1.585-3.438-1.647-7.562-.242-9.277 3.162-4.987 9.896-14.962 16.044-26.033 16.044-16.063 0-29.131-13.068-29.131-29.132.001-16.064 13.069-29.132 29.132-29.132zm360.01 285.614c0 5.567-4.541 10.107-10.107 10.107s-10.107-4.54-10.107-10.107 4.541-10.107 10.107-10.107 10.107 4.54 10.107 10.107zm-103.375 55.185c0 5.567-4.541 10.107-10.107 10.107s-10.107-4.541-10.107-10.107 4.541-10.108 10.107-10.108 10.107 4.541 10.107 10.108zm84.598 20.713c0 3.897-3.178 7.075-7.075 7.075s-7.075-3.178-7.075-7.075 3.178-7.075 7.075-7.075 7.075 3.178 7.075 7.075zm-100.535-75.353c-3.897 0-7.075-3.179-7.075-7.075s3.178-7.075 7.075-7.075 7.075 3.178 7.075 7.075-3.178 7.075-7.075 7.075zm63.349 24.851c0 3.897-3.178 7.075-7.075 7.075s-7.075-3.178-7.075-7.075 3.178-7.075 7.075-7.075 7.075 3.178 7.075 7.075z"/></svg>