<svg id="Layer_1" fill="#6B7280"  stroke="#6B7280" enable-background="new 0 0 512 512" viewBox="0 0 512 512" xmlns="http://www.w3.org/2000/svg"><path d="m307.495 376.002c-2.474-1.428-5.524-1.429-8 0l-41.497 23.958c-2.476 1.429-4 4.07-4 6.928v26.758c0 2.858 1.524 5.499 4 6.928 1.237.714 2.619 1.072 4 1.072s2.763-.357 4-1.072l41.497-23.958c2.476-1.429 4-4.07 4-6.928v-26.758c0-2.857-1.524-5.498-4-6.928zm-12 29.068-25.497 14.72v-8.283l25.497-14.72zm146.35-115.57v-153.5s0 0 0 0c0-2.858-1.524-5.499-4-6.928l-207.846-120c-2.475-1.429-5.525-1.429-8 0l-207.847 120c-2.476 1.429-4 4.07-4 6.928s0 0 0 0v240c0 2.858 1.524 5.499 4 6.928l207.847 120c1.237.714 2.619 1.072 4 1.072s2.763-.357 4-1.072l118.145-68.21c16.239 17.194 39.234 27.943 64.695 27.943 49.08 0 89.009-39.929 89.009-89.009 0-38.928-25.122-72.095-60.003-84.152zm-24.001-153.5-57.785 33.362-191.846-110.762 57.786-33.363zm-191.845 110.762-191.846-110.762 57.785-33.362 191.846 110.762zm73.785-42.6-191.846-110.762 44.275-25.562 191.847 110.762zm8 13.857 44.275-25.563v76.033l-44.275 25.562zm-281.632-68.163 191.847 110.763v221.525l-191.847-110.763zm207.847 332.288v-221.525l57.785-33.362v80.65c0 2.858 1.524 5.499 4 6.928 1.237.714 2.618 1.072 4 1.072 1.381 0 2.763-.357 4-1.072l60.275-34.799c2.476-1.429 4-4.07 4-6.928v-89.889l57.785-33.362v135.74c-4.247-.624-8.588-.953-13.006-.953-49.08 0-89.009 39.929-89.009 89.009 0 17.818 5.267 34.428 14.319 48.361zm178.84-35.483c-40.257 0-73.009-32.751-73.009-73.009s32.752-73.009 73.009-73.009 73.009 32.751 73.009 73.009-32.752 73.009-73.009 73.009zm51.357-111.372c-3.793-3.772-8.838-5.856-14.18-5.818-5.343.021-10.354 2.121-14.111 5.915l-33.734 34.07-12.415-12.416c-7.806-7.806-20.504-7.803-28.308 0-7.803 7.804-7.803 20.501 0 28.305l26.623 26.623c3.902 3.902 9.028 5.853 14.153 5.853 5.126 0 10.252-1.951 14.154-5.853 10.105-10.106 20.297-20.443 30.152-30.44 5.914-5.999 11.829-11.998 17.758-17.982 7.753-7.822 7.711-20.499-.092-28.257zm-11.272 16.997c-5.938 5.994-11.862 12.002-17.786 18.01-9.836 9.977-20.008 20.293-30.073 30.359-1.565 1.566-4.115 1.565-5.679 0l-26.623-26.623c-1.565-1.565-1.565-4.113 0-5.679.782-.783 1.811-1.174 2.839-1.174 1.029 0 2.058.392 2.84 1.174l18.101 18.101c1.501 1.5 3.536 2.343 5.657 2.343h.02c2.129-.005 4.168-.859 5.665-2.371l39.391-39.783c1.005-1.015 2.188-1.17 2.803-1.172.658-.011 1.813.146 2.837 1.164 1.556 1.549 1.561 4.083.008 5.651z"/></svg>