<svg id="Layer_1" fill="#6B7280"  stroke="#6B7280"  enable-background="new 0 0 512 512" viewBox="0 0 512 512" xmlns="http://www.w3.org/2000/svg"><path d="m477.456 135.571-217.433-126.486c-2.486-1.446-5.559-1.446-8.045 0l-85.186 49.555v-16.732c0-4.418-3.582-8-8-8h-38.009c-4.418 0-8 3.582-8 8v48.15l-78.238 45.513c-3.125 1.818-4.643 5.507-3.702 8.998.942 3.491 4.108 5.917 7.724 5.917h32.038v31.038h-13.301c-12.281 0-22.273 9.992-22.273 22.273v277.931c0 12.281 9.992 22.273 22.273 22.273h148.373c4.69 0 9.179-1.474 12.914-4.147 8.692 2.694 17.925 4.147 27.491 4.147 4.904 0 9.72-.384 14.421-1.119 1.193.706 2.58 1.119 4.066 1.119h204.401c4.418 0 8-3.582 8-8v-203.23c0-12.858-10.461-23.32-23.319-23.32h-12.255v-118.965h32.038c3.616 0 6.782-2.426 7.724-5.917.941-3.491-.577-7.18-3.702-8.998zm-348.673-85.663h22.009v18.039l-22.009 12.803zm-71.479 147.615h148.373c3.458 0 6.272 2.814 6.272 6.273v87.746h-160.918v-87.746c0-3.459 2.814-6.273 6.273-6.273zm0 290.477c-3.459 0-6.273-2.814-6.273-6.273v-174.185h160.918v16.876c-34.462 13.639-58.901 47.293-58.901 86.548 0 32.005 16.247 60.287 40.925 77.034zm111.744-77.034c0-42.477 34.557-77.034 77.034-77.034 42.476 0 77.033 34.557 77.033 77.034s-34.557 77.034-77.033 77.034c-42.477 0-77.034-34.557-77.034-77.034zm162.474-36.794c9.479-8.988 22.064-14.067 35.247-14.067 28.25 0 51.233 22.983 51.233 51.233s-22.983 51.233-51.233 51.233c-13.304 0-25.972-5.159-35.476-14.287 5.025-11.43 7.822-24.053 7.822-37.318 0-13.063-2.711-25.502-7.593-36.794zm-33.332 113.828c9.93-6.739 18.493-15.345 25.183-25.311 12.051 10.191 27.375 15.882 43.395 15.882 37.072 0 67.233-30.161 67.233-67.233s-30.161-67.233-67.233-67.233c-15.864 0-31.074 5.594-43.08 15.616-7.085-10.694-16.317-19.846-27.08-26.835h164.36v155.114zm162.779-195.231v24.117h-188.401v-24.117c0-4.036 3.284-7.32 7.32-7.32h173.762c4.036.001 7.319 3.284 7.319 7.32zm-27.574-158.283c-4.418 0-8 3.582-8 8v126.964h-145.507c-12.858 0-23.32 10.461-23.32 23.32v25.758c-3.444-.388-6.941-.595-10.487-.595-6.204 0-12.265.616-18.132 1.779v-115.916c0-12.281-9.991-22.273-22.272-22.273h-119.072v-39.038c0-4.418-3.582-8-8-8h-10.376l187.771-109.23 187.771 109.231zm-375.311 135.3v-35.984c0-4.418 3.582-8 8-8s8 3.582 8 8v35.984c0 4.418-3.582 8-8 8s-8-3.582-8-8zm16 60.958v35.984c0 4.418-3.582 8-8 8s-8-3.582-8-8v-35.984c0-4.418 3.582-8 8-8s8 3.582 8 8zm265.155-29.654c0-4.418 3.582-8 8-8h38.178c4.418 0 8 3.582 8 8s-3.582 8-8 8h-38.178c-4.418 0-8-3.581-8-8zm93.246 0c0-4.418 3.582-8 8-8s8 3.582 8 8-3.582 8-8 8-8-3.582-8-8zm-21.198 0c0-4.418 3.582-8 8-8s8 3.582 8 8-3.582 8-8 8c-4.419 0-8-3.582-8-8zm-121.729 91.759h-29.908l2.232-38.327c.204-3.495-1.888-6.716-5.164-7.951-3.275-1.235-6.974-.198-9.128 2.561l-51.29 65.675c-1.883 2.411-2.226 5.683-.885 8.432s4.132 4.492 7.19 4.492h29.399l-4.577 39.217c-.413 3.537 1.562 6.921 4.845 8.302 1.004.422 2.057.626 3.098.626 2.363 0 4.67-1.049 6.224-2.971l54.185-67.026c1.938-2.397 2.326-5.695.998-8.477s-4.137-4.553-7.219-4.553zm-43.036 48.51 2.415-20.701c.265-2.268-.452-4.541-1.97-6.246s-3.692-2.681-5.976-2.681h-21.988l25.416-32.542-1.234 21.195c-.128 2.199.656 4.353 2.167 5.955s3.616 2.51 5.819 2.51h21.632z"/></svg>