<svg id="Layer_1" fill="#6B7280"  stroke="#6B7280" enable-background="new 0 0 512 512" height="512" viewBox="0 0 512 512" width="512" xmlns="http://www.w3.org/2000/svg"><g id="_x32_0_Wine"><g><path d="m395.892 479.039h-13.92c-3.206 0-5.815-2.606-5.815-5.812v-73.813c0-12.573 7.493-24.052 19.084-29.239.039-.017.076-.039.114-.056 50.401-22.598 71.195-81.204 34.192-145.436-2.781-4.831-8.055-7.83-13.763-7.83h-117.759c-5.706 0-10.98 3-13.763 7.828-36.879 64.039-16.435 122.796 34.308 145.495 11.591 5.188 19.084 16.664 19.084 29.239v73.813c0 3.206-2.606 5.812-5.812 5.812h-13.922c-15.232 0-27.625 12.393-27.625 27.628 0 2.945 2.388 5.333 5.333 5.333h122.56c2.945 0 5.333-2.388 5.333-5.333-.002-15.236-12.396-27.629-27.629-27.629zm-73.705-118.96c-18.078-8.331-33.352-23.58-41.033-43.178 49.809 37.887 103.324-28.111 155.38-13.437-9.505 50.621-66.499 78.701-114.347 56.615zm-28.684-130.074c.886-1.534 2.617-2.487 4.521-2.487h117.76c1.904 0 3.636.953 4.518 2.487 10.613 18.418 18.439 41.634 17.487 62.782-61.271-15.811-114.56 59.998-161.414 4.696-2.446-22.61 5.833-47.868 17.128-67.478zm8.316 271.328c2.239-6.747 8.61-11.628 16.099-11.628h13.922c9.086 0 16.479-7.393 16.479-16.479v-73.813c0-8.037-2.339-15.704-6.42-22.302 10.368 1.658 20.121 1.549 30.034-.04-4.096 6.607-6.443 14.291-6.443 22.342v73.813c0 9.086 7.394 16.479 16.482 16.479h13.92c7.49 0 13.862 4.88 16.101 11.628z"/><path d="m174.535 110.352v-55.123c0-3.665-1.858-6.901-4.682-8.822l3.327-28.555c1.105-9.469-6.29-17.851-15.891-17.851h-24.117c-9.551 0-17.001 8.335-15.891 17.851l3.326 28.557c-2.822 1.921-4.68 5.157-4.68 8.821v55.122c0 68.155-52.297 101.882-52.297 199.385v174.648c0 15.227 10.213 27.615 22.766 27.615h117.669c12.552 0 22.766-12.388 22.766-27.615v-174.648c0-97.789-52.296-130.853-52.296-199.385zm-41.363-99.686h24.118c3.222 0 5.661 2.802 5.297 5.951l-3.256 27.945h-28.199l-3.254-27.945c-.365-3.149 2.073-5.951 5.294-5.951zm-58.874 316.563h56.643c2.94 0 5.333 2.393 5.333 5.333v90.812c0 2.94-2.393 5.333-5.333 5.333h-56.643zm141.867 157.156c0 9.187-5.541 16.948-12.099 16.948h-117.669c-6.557 0-12.099-7.76-12.099-16.948v-45.01h56.643c8.823 0 16-7.177 16-16v-90.812c0-8.823-7.177-16-16-16h-56.643v-6.825c0-95.146 52.297-127.501 52.297-199.385v-55.124h37.274v55.122c0 70.126 52.297 105.608 52.297 199.385v174.649z"/></g></g></svg>