<svg clip-rule="evenodd" fill="#6B7280"   fill-rule="evenodd" height="512" image-rendering="optimizeQuality" shape-rendering="geometricPrecision" text-rendering="geometricPrecision" viewBox="0 0 1.70666 1.70666" width="512" xmlns="http://www.w3.org/2000/svg"><g id="Layer_x0020_1"><g id="_659354800"><g><path id="_659357272" d="m1.45908 1.62935c-.0964409 0-.174902-.0784606-.174902-.174902 0-.0964409.0784606-.174902.174902-.174902.096437 0 .174898.0784606.174898.174902 0 .0964409-.0784606.174902-.174898.174902zm0-.310724c-.0748937 0-.135823.0609331-.135823.135823 0 .0748937.0609291.135819.135823.135819.0748898 0 .135819-.0609252.135819-.135819 0-.0748937-.0609291-.135823-.135819-.135823z"/></g><g><path id="_659356216" d="m1.45908 1.54854c-.0518898 0-.0940984-.0422126-.0940984-.0940945 0-.0518858.0422087-.0940984.0940984-.0940984.0518858 0 .0940945.0422126.0940945.0940984 0 .0518819-.0422087.0940945-.0940945.0940945zm0-.149106c-.0303346 0-.0550197.0246772-.0550197.0550157 0 .0303386.0246811.0550118.0550197.0550118.0303346 0 .0550157-.0246732.0550157-.0550118s-.0246811-.0550157-.0550157-.0550157z"/></g><g><path id="_659356432" d="m1.18597 1.47735h-.319173c-.00525984 0-.0102953-.00211811-.0139764-.00587795-.00367717-.00376378-.0056811-.00884646-.00556299-.0141024.00002362-.00097244.00003937-.00195669.00003937-.00292913 0-.0748937-.0609252-.135823-.135819-.135823-.0748937 0-.135823.0609331-.135823.135823 0 .00098819.00001968.00197244.00003937.00295276.00011417.00525591-.0018937.0103307-.00557087.0140866-.00367323.00375591-.00870866.00587008-.0139646.00587008h-.0829764c-.00524016 0-.0102559-.00210236-.0139291-.00584252-.00367717-.00373622-.00569291-.0087874-.0056063-.0140315.00001575-.00101181.00003543-.00202362.00003543-.00303937 0-.0748937-.0609252-.135823-.135819-.135823-.0748937 0-.135823.0609291-.135823.135823 0 .00099606.00001968.00198819.00003937.00298425.0001063.00524409-.00190551.010315-.00558268.014063-.00367717.00374803-.00870472.0058622-.0139528.0058622l-.142945.00000394c-.00651575 0-.0126024-.00324803-.0162323-.00866142-.00362598-.00540945-.0043189-.0122756-.00184252-.0183031l.0984724-.239736c.00301181-.00733071.0101535-.0121181.0180748-.0121181h1.06789c.0107913 0 .0195394.00875197.0195394.0195394v.239736c.00000394.0107992-.00874803.0195433-.0195354.0195433zm-.300331-.0390787h.280791v-.200657h-1.03526l-.0824252.200657h.0949567c.0081811-.0888937.0831693-.158736.174157-.158736.0909882 0 .165976.0698425.174161.158736h.0452913c.00818504-.0888937.0831693-.158736.174161-.158736.0909882 0 .165972.0698425.174161.158736z"/></g><g><path id="_659356888" d="m.31787 1.62935c-.0964409 0-.174906-.0784606-.174906-.174902 0-.0964409.0784646-.174902.174906-.174902.096437 0 .174902.0784606.174902.174902-.00000394.0964409-.0784606.174902-.174902.174902zm0-.310724c-.0748937 0-.135823.0609331-.135823.135823 0 .0748937.0609252.135819.135823.135819.0748937 0 .135819-.0609252.135819-.135819 0-.0748937-.0609291-.135823-.135819-.135823z"/></g><g><path id="_659356648" d="m.31787 1.54854c-.0518858 0-.0940984-.0422126-.0940984-.0940945 0-.0518858.0422126-.0940984.0940984-.0940984.0518819 0 .0940945.0422126.0940945.0940984.00000394.0518819-.0422087.0940945-.0940945.0940945zm0-.149106c-.0303346 0-.0550157.0246772-.0550157.0550157 0 .0303386.0246772.0550118.0550157.0550118.0303346 0 .0550118-.0246732.0550118-.0550118s-.0246772-.0550157-.0550118-.0550157z"/></g><g><path id="_659356384" d="m.71148 1.62935c-.0964409 0-.174906-.0784606-.174906-.174902 0-.0964409.0784646-.174902.174906-.174902.096437 0 .174902.0784606.174902.174902 0 .0964409-.0784606.174902-.174902.174902zm0-.310724c-.0748937 0-.135823.0609331-.135823.135823 0 .0748937.0609252.135819.135823.135819.0748937 0 .135819-.0609252.135819-.135819 0-.0748937-.0609252-.135823-.135819-.135823z"/></g><g><path id="_659356288" d="m.71148 1.54854c-.0518858 0-.0940984-.0422126-.0940984-.0940945 0-.0518858.0422126-.0940984.0940984-.0940984.0518819 0 .0940945.0422126.0940945.0940984 0 .0518819-.0422126.0940945-.0940945.0940945zm0-.149106c-.0303346 0-.0550157.0246772-.0550157.0550157 0 .0303386.0246772.0550118.0550157.0550118.0303346 0 .0550118-.0246732.0550118-.0550118s-.0246772-.0550157-.0550118-.0550157z"/></g><g><path id="_659356864" d="m.362063 1.23762h-.14752c-.0107913 0-.0195433-.00874803-.0195433-.0195394v-.0881732c0-.0107913.00875197-.0195394.0195433-.0195394h.14752c.0107913 0 .0195394.00874803.0195394.0195394v.0881732c0 .0107953-.00875197.0195394-.0195394.0195394zm-.127984-.0390787h.108441v-.0490945h-.108441z"/></g><g><path id="_659356720" d="m.458717 1.14944h-.337437c-.0107874 0-.0195394-.00874803-.0195394-.0195394v-.113606c0-.0107913.00875197-.0195433.0195394-.0195433h.337437c.0107913 0 .0195394.00875197.0195394.0195433v.113606c0 .0107913-.00874409.0195394-.0195394.0195394zm-.317894-.0390787h.298354v-.0745276h-.298354z"/></g><g><path id="_659355424" d="m.358673 1.03584h-.167866c-.0107913 0-.0195433-.00875197-.0195433-.0195394v-.217051c0-.0107913.00875197-.0195394.0195433-.0195394h.0839331c.0080748 0 .015315.00496063.0182244.0124921l.0839331.217047c.00232283.00601181.00153543.0127795-.0021063.0180984-.00364567.00531496-.00967717.00849213-.0161181.00849213zm-.148331-.0390827h.119823l-.0688228-.177969h-.051v.177969z"/></g><g><path id="_659355808" d="m.336154.977602c-.00218898 0-.0043937-.00036614-.00650394-.00111417-.00538189-.00189764-.00966535-.00605118-.0117244-.011378l-.0614094-.158815c-.00347244-.00898425.00011811-.0191575.00845276-.0239685l.618551-.357118c.00449213-.00258661.00983071-.00329134.0148268-.00194882.00500394.00133858.00927559.00461417.0118661.00910236l.0842598.145945c.00259055.00448819.00329134.00982283.00194882.0148307-.00133858.00500394-.00461811.00927559-.0091063.0118622l-.641398.369988c-.00300394.00173622-.00637402.00261417-.00976378.00261417zm-.0371535-.169795.0471496.121933.604697-.348823-.0647126-.112094z"/></g><g><path id="_659355880" d="m.963953.584079c-.00169685 0-.0033937-.00021654-.00505906-.00066535-.00500394-.00134252-.00927165-.00461417-.0118661-.0091063l-.0570748-.0988701c-.0053937-.00934646-.00219291-.0212953.00715354-.026689l.418906-.241854c.00624803-.00361024.0139882-.00347638.0201142.00034252.00612598.0038189.00964567.0107087.00915354.0179094-.00023228.0033937.00053937.00673228.00223228.00966929l.0366969.0635551c.00169291.00292913.00419291.00526378.00724409.00675591.00648819.00317323.0106969.00966142.0109449.0168819.00024803.00722047-.0035.0139843-.00975984.0175984l-.418909.241858c-.003.00172441-.00637402.00261417-.00977559.00261417zm-.0303819-.111256.0375354.0650236.379681-.219209c-.00014567-.00024409-.00029134-.00048819-.00043307-.00074016l-.0366969-.0635472c-.0001378-.00024409-.00027953-.00048819-.00041732-.00073622l-.379669.219209z"/></g><g><path id="_659355976" d="m1.39917.346c-.0201024 0-.0388031-.0107638-.0488071-.0280906l-.0366969-.0635591c-.00748819-.0129764-.0094685-.028126-.0055748-.0426614.0038937-.0145394.013185-.0266732.0261654-.0341614l.160575-.0927087c.00850394-.00490945.0181929-.00750394.0280118-.00750394.0201063 0 .0388071.0107638.0488071.0280906l.0366929.0635551c.00749213.0129724.00947244.028122.00557874.0426575-.0038937.0145394-.013185.0266732-.0261654.0341614l-.160575.0927087c-.00850787.00491339-.0181969.00751181-.0280118.00751181zm.123673-.229606c-.00301181 0-.0058622.00075984-.00847244.00226772l-.160579.0927126c-.00393701.00227165-.00676378.00597244-.00795276.0104291-.00119291.00445276-.00060236.00907087.00167323.0130039l.0366929.0635551c.00304724.00527559.00877953.00855118.0149646.00855118.00301181 0 .00586614-.00076772.00848031-.00227165l.160571-.0927126c.00394094-.00227165.00675984-.00597244.00795276-.0104252.00118898-.00445276.00059843-.0090748-.00167717-.0130118l-.0366929-.0635512c-.00304331-.00527165-.00877559-.00854724-.0149606-.00854724z"/></g><g><path id="_659355904" d="m1.57799.465197c-.0107913 0-.0195394-.00874803-.0195394-.0195394v-.216803c0-.0107874.00874803-.0195394.0195394-.0195394.0107913 0 .0195394.00875197.0195394.0195394v.216803c0 .0107913-.00875197.0195394-.0195394.0195394z"/></g><g><path id="_659355592" d="m1.6263.646634h-.0966024c-.0219961 0-.0398858-.0178937-.0398858-.0398858v-.14074c0-.0219961.0178898-.0398898.0398858-.0398898h.0966024c.0219961 0 .0398898.0178937.0398898.0398898v.14074c0 .0219961-.0178937.0398858-.0398898.0398858zm-.0966024-.181437c-.00040551 0-.00080709.00040551-.00080709.00081102v.14074c0 .00040551.00040158.00080709.00080709.00080709h.0966024c.00039764 0 .00081102-.00040945.00081102-.00080709v-.14074c0-.00040551-.00040158-.00081102-.00081102-.00081102z"/></g><g><path id="_659356048" d="m1.5373.797874c-.0332126 0-.0602402-.0270236-.0602402-.0602362 0-.0107874.00875197-.0195394.0195433-.0195394.0107874 0 .0195394.00875197.0195394.0195394 0 .0116654.00948819.0211535.0211575.0211535.0116654 0 .0211535-.00948819.0211535-.0211535v-.110543c0-.0107913.00875197-.0195394.0195433-.0195394.0107874 0 .0195394.00874803.0195394.0195394v.110543c0 .0332126-.0270197.0602362-.0602362.0602362z"/></g><g><path id="_659355112" d="m1.18597 1.23762h-.123307c-.0107913 0-.0195394-.00874803-.0195394-.0195394v-.235445c0-.0107874.00874803-.0195394.0195394-.0195394h.123307c.0107913 0 .0195394.00875197.0195394.0195433v.235441c0 .0107953-.00875197.0195394-.0195394.0195394zm-.103768-.0390787h.0842244v-.196362h-.0842244z"/></g><g><path id="_659354872" d="m1.68706 1.47735h-.0726614c-.00524409 0-.0102756-.00211024-.0139528-.0058622-.00367717-.00374409-.00568504-.00881496-.00558661-.014063.00001968-.00100394.00003937-.00198819.00003937-.00299213 0-.0748898-.0609252-.135815-.135819-.135815-.0748937 0-.135819.0609252-.135819.135815 0 .00098819.00001575.00195669.00003937.00293701.00012205.00525591-.00188583.0103425-.00556299.0140984-.00367717.00376378-.0087126.00588189-.0139724.00588189h-.117791c-.0107913 0-.0195394-.00874803-.0195394-.0195394v-.61002c0-.0107913.00874803-.0195394.0195394-.0195394h.355394c.00685433 0 .0132165.00359449.016748.00947244l.145697.242374c.00182677.00304331.0027874.00651969.0027874.0100669v.36765c0 .0107913-.00874803.0195354-.0195394.0195354zm-.0538189-.0390787h.0342795v-.342681l-.137209-.22826h-.324799v.570945h.0794094c.00818898-.0888898.0831732-.158736.174161-.158736.0909921 0 .165972.0698425.174157.158732z"/></g><g><path id="_659355304" d="m1.58431 1.2269h-.295587c-.0107913 0-.0195433-.00875197-.0195433-.0195433v-.256807c0-.0107913.00875197-.0195433.0195433-.0195433h.194524c.00685433 0 .0132126.00359843.016748.00947638l.101063.168126c.00182677.00303937.00279134.00651969.00279134.0100669v.0886772c0 .0107992-.00874803.0195472-.0195394.0195472zm-.276047-.0390827h.256508v-.0637205l-.0925787-.154004h-.163929v.217724z"/></g><g><path id="_659354896" d="m1.30567 1.29494h-.0417441c-.0107913 0-.0195394-.00874803-.0195394-.0195394 0-.0107913.00874803-.0195394.0195394-.0195394h.0417441c.0107913 0 .0195394.00874803.0195394.0195394 0 .0107913-.00874803.0195394-.0195394.0195394z"/></g><g><path id="_659355256" d="m1.63496 1.62935h-1.56324c-.0107874 0-.0195394-.00875197-.0195394-.0195394 0-.0107913.00875197-.0195433.0195394-.0195433h1.56324c.0107874 0 .0195394.00875197.0195394.0195433 0 .0107874-.00875197.0195394-.0195394.0195394z"/></g></g></g></svg>