<svg fill="#6B7280"  stroke="#6B7280" id="Layer_1" enable-background="new 0 0 512 512" viewBox="0 0 512 512" xmlns="http://www.w3.org/2000/svg"><path d="m394.428 150.916c-2.34-3.077-1.741-7.469 1.336-9.809 3.076-2.34 7.469-1.742 9.809 1.336 18.211 23.954 30.499 52.237 35.536 81.794.649 3.811-1.913 7.427-5.725 8.076-.397.067-.794.101-1.184.101-3.351 0-6.311-2.412-6.893-5.825-4.659-27.341-16.029-53.508-32.879-75.673zm-319.354 104.79c.095.004.188.006.282.006 3.738 0 6.84-2.954 6.989-6.723 1.417-35.72 13.598-69.636 35.228-98.082 2.34-3.077 1.742-7.469-1.336-9.809-3.075-2.339-7.468-1.743-9.809 1.336-23.376 30.743-36.541 67.397-38.071 106-.153 3.864 2.854 7.119 6.717 7.272zm246.366 161.338c-20.802 8.462-42.819 12.753-65.44 12.753-49.708 0-97.142-21.366-130.138-58.62-2.564-2.894-6.986-3.162-9.882-.599-2.894 2.563-3.161 6.987-.599 9.882 35.652 40.251 86.905 63.337 140.618 63.337 24.438 0 48.23-4.639 70.716-13.786 3.581-1.456 5.303-5.54 3.846-9.121s-5.545-5.303-9.121-3.846zm-192.44-246.047v-137.768c0-13.36 10.869-24.229 24.229-24.229h210.114c10.84 0 19.657 8.819 19.657 19.659v142.338c0 13.36-10.869 24.229-24.229 24.229h-65.053c.652 10.503 3.211 20.87 6.147 27.948h12.234c9.644 0 17.488 7.845 17.488 17.488s-7.845 17.487-17.488 17.487h-112.195c-9.644 0-17.488-7.846-17.488-17.488s7.845-17.487 17.488-17.487h12.167c2.792-6.985 5.185-17.323 5.72-27.948h-64.562c-13.36.001-24.229-10.869-24.229-24.229zm183.099 66.178h-112.195c-1.891 0-3.488 1.597-3.488 3.487s1.598 3.488 3.488 3.488h112.194c1.891 0 3.488-1.597 3.488-3.487s-1.597-3.488-3.487-3.488zm-32.393-41.948h-47.911c-.435 9.517-2.197 19.532-4.872 27.948h58.017c-2.819-8.493-4.711-18.513-5.234-27.948zm89.294-24.23v-10.043h-226v10.043c0 5.641 4.589 10.229 10.229 10.229h205.541c5.641.001 10.23-4.588 10.23-10.229zm-5.656-147.997h-24.159v123.954h29.815v-118.295c0-3.12-2.537-5.659-5.656-5.659zm-220.344 10.229v113.725h182.185v-123.954h-171.956c-5.64 0-10.229 4.589-10.229 10.229zm14.548 79.238h30.142c2.501 0 4.812-1.334 6.062-3.5l11.097-19.222 9.817 27.662c1.025 2.889 3.799 4.781 6.874 4.653 3.062-.121 5.69-2.222 6.484-5.183l11.656-43.505 8.668 58.69c.469 3.176 3.038 5.625 6.232 5.943.233.022.466.034.696.034 2.926 0 5.578-1.833 6.584-4.634l20.208-56.258h28.567c3.866 0 7-3.134 7-7s-3.134-7-7-7h-33.49c-2.953 0-5.589 1.854-6.588 4.634l-12.438 34.626-9.528-64.519c-.485-3.283-3.209-5.774-6.522-5.966-3.313-.194-6.305 1.971-7.164 5.177l-14.576 54.404-7.36-20.739c-.913-2.573-3.239-4.381-5.959-4.63-2.716-.249-5.335 1.104-6.7 3.471l-16.661 28.859h-26.101c-3.866 0-7 3.134-7 7s3.134 7.003 7 7.003zm-44.559 169.613v16.901c0 6.518-3.84 12.142-9.367 14.772v146.619c0 23.506-19.122 42.628-42.627 42.628s-42.627-19.122-42.627-42.627v-146.619c-5.528-2.63-9.368-8.254-9.368-14.773v-16.901c0-9.025 7.343-16.368 16.367-16.368h71.255c9.024 0 16.367 7.343 16.367 16.368zm-89.989 16.901c0 1.283 1.084 2.367 2.367 2.367h71.255c1.283 0 2.367-1.084 2.367-2.367v-16.901c0-1.284-1.084-2.368-2.367-2.368h-71.255c-1.283 0-2.367 1.084-2.367 2.368zm66.622 161.392v-145.024h-57.254v145.024c0 15.785 12.842 28.627 28.627 28.627s28.627-12.842 28.627-28.627zm413.378 8.902v26.725c0 3.866-3.134 7-7 7h-149.826c-3.866 0-7-3.134-7-7v-26.725c0-3.866 3.134-7 7-7h7.07c-12.96-25.522-16.123-51.847-9.388-78.411 6.046-23.845 19.979-47.49 41.394-70.338-.426-1.879-.659-3.831-.659-5.837 0-7.208 2.909-13.749 7.61-18.515l-5.107-8.846c-.928-1.607-1.18-3.519-.699-5.312s1.654-3.322 3.262-4.251l.394-.227-10.361-17.947c-1.933-3.348-.785-7.629 2.562-9.562l20.762-11.987c3.35-1.931 7.63-.785 9.562 2.562l10.362 17.946.394-.228c1.607-.928 3.518-1.18 5.312-.699s3.322 1.654 4.251 3.262l43.371 75.121c.928 1.607 1.18 3.519.699 5.312-.48 1.794-1.654 3.322-3.262 4.251l-.394.227 5.083 8.804c.928 1.607 1.18 3.519.699 5.312-.48 1.794-1.654 3.322-3.262 4.251l-20.763 11.987c-1.073.619-2.282.938-3.5.938-.606 0-1.216-.079-1.812-.238-1.794-.48-3.322-1.654-4.251-3.262l-5.083-8.804-.394.227c-1.103.636-2.306.938-3.493.938-2.42 0-4.772-1.255-6.069-3.501l-12.833-22.227c-1.135.296-2.301.512-3.49.656-23.041 52.294-19.485 92.169 11.418 128.4h10.299v-8.062h-6.826c-3.866 0-7-3.134-7-7v-20.773c0-3.866 3.134-7 7-7h66.526c3.866 0 7 3.134 7 7v20.773c0 3.866-3.134 7-7 7h-6.827v8.062h7.269c3.866-.002 7 3.132 7 6.998zm-66.967-29.062h52.526v-6.773h-52.526zm13.826 22.062h24.873v-8.062h-24.873zm-51.268-154.587c0 6.828 5.556 12.384 12.384 12.384s12.384-5.556 12.384-12.384-5.556-12.384-12.384-12.384-12.384 5.556-12.384 12.384zm62.593 38.108-8.638 4.987 1.583 2.742 8.638-4.987zm-36.915-78.849-21.55 12.442 1.598 2.768c2.127-.555 4.358-.853 6.658-.853 14.548 0 26.384 11.836 26.384 26.384 0 7.208-2.909 13.749-7.611 18.516l9.342 16.181 21.55-12.441zm-22.094-3.41 8.638-4.987-6.861-11.884-8.638 4.987zm-32.988 198.738h38.537c-27.101-37.274-29.565-79.314-7.847-130.66-2.787-1.298-5.312-3.064-7.469-5.204-29.7 33.046-54.802 81.527-23.221 135.864zm119.813 14h-135.826v12.725h135.826zm-134.908-384.298c3.866 0 7-3.134 7-7s-3.134-7-7-7-7 3.134-7 7 3.135 7 7 7zm0-39.028c3.866 0 7-3.134 7-7s-3.134-7-7-7-7 3.134-7 7 3.135 7 7 7zm0 64.056c-3.866 0-7 3.134-7 7s3.134 7 7 7 7-3.134 7-7-3.134-7-7-7z"/></svg>