<?xml version="1.0"?>
<svg xmlns="http://www.w3.org/2000/svg" fill="#6B7280"  stroke="#6B7280" data-name="Layer 1" id="Layer_1" viewBox="0 0 512 512"><title/><path d="M474.53,89.91a7.93,7.93,0,0,0,.91-1.1,4.23,4.23,0,0,0,.22-.42,7.67,7.67,0,0,0,.43-.8c.08-.21.13-.43.2-.64s.15-.45.2-.68a7.2,7.2,0,0,0,.14-1.39V42.46a7.1,7.1,0,0,0-.14-1.38c-.05-.24-.14-.45-.2-.68s-.12-.43-.2-.64a7.67,7.67,0,0,0-.43-.8,4.23,4.23,0,0,0-.22-.42,7.18,7.18,0,0,0-2-2c-.13-.08-.27-.14-.41-.22a5.64,5.64,0,0,0-.81-.42,4.61,4.61,0,0,0-.63-.2,5.82,5.82,0,0,0-.68-.2,7.2,7.2,0,0,0-1.39-.14H243.74a7.08,7.08,0,0,0-5,2.07L37.47,238.72a7.47,7.47,0,0,0-.91,1.11c-.09.13-.15.28-.23.42a7.44,7.44,0,0,0-.42.79c-.08.21-.13.43-.2.64s-.15.45-.2.68a7.2,7.2,0,0,0-.14,1.39v42.5a7.08,7.08,0,0,0,7.09,7.09H127v39.08L37.45,422a7,7,0,0,0-2.07,5v42.53a7.08,7.08,0,0,0,7.09,7.08h225.8a7.18,7.18,0,0,0,1.38-.14c.23,0,.44-.13.66-.19s.45-.12.66-.21a5.91,5.91,0,0,0,.79-.41c.14-.08.29-.14.43-.23a7.39,7.39,0,0,0,1.1-.91L474.55,273.26a7.09,7.09,0,0,0,2.08-5V225.71a7.2,7.2,0,0,0-.14-1.39c-.05-.22-.13-.42-.19-.64s-.12-.46-.21-.68-.26-.49-.39-.74-.16-.32-.26-.48a7.1,7.1,0,0,0-.89-1.08h0l0,0a7.22,7.22,0,0,0-1-.85,5.7,5.7,0,0,0-.54-.3,7.06,7.06,0,0,0-.67-.35,6,6,0,0,0-.72-.23c-.2-.06-.39-.13-.6-.18a7.09,7.09,0,0,0-1.13-.11,1.9,1.9,0,0,0-.25,0l-84.19-.28V179.07ZM373.26,171.15l-97.92,97.92V246.68L462.46,59.56V82L373.3,171.11ZM246.68,49.55H452.44L265.32,236.66H59.56ZM127,352.45V420H59.52ZM49.54,434.12H134.1a7.08,7.08,0,0,0,7.08-7.09V286.25a7.08,7.08,0,0,0-7.08-7.08H49.54V250.83H261.17v28.34H176.6a7.08,7.08,0,0,0-7.08,7.08V427a7.08,7.08,0,0,0,7.08,7.09h84.57v28.33H49.54ZM381.87,232.49l70.62.24L265.28,420H194Zm-106.53,220V429.92L462.46,242.81v22.51Zm95.87-229.31L183.69,410.27V293.34h84.57a7,7,0,0,0,5.41-2.57l97.54-97.53Z"/></svg>
