<?xml version="1.0"?>
<svg xmlns="http://www.w3.org/2000/svg" fill="#6B7280"  stroke="#6B7280" id="stroke" viewBox="0 0 340 340" width="512" height="512"><path d="M112.566,278.827a3.5,3.5,0,0,0-3.5,3.5v32.92A18.273,18.273,0,0,0,127.318,333.5h83.417a18.273,18.273,0,0,0,18.252-18.253V192.817h6.851a3.5,3.5,0,0,0,3.5-3.5V169.431a15.011,15.011,0,0,0-15-14.994H154.726a3.5,3.5,0,0,0,0,7h69.617a8,8,0,0,1,8,7.994v16.386h-89.5a3.5,3.5,0,0,0,0,7h79.148v19.1H151.462a15.143,15.143,0,0,0-15.126,15.126v58.572a15.142,15.142,0,0,0,15.126,15.126h70.525v14.5A11.265,11.265,0,0,1,210.735,326.5H127.318a11.265,11.265,0,0,1-11.252-11.253v-32.92A3.5,3.5,0,0,0,112.566,278.827Zm30.77,6.789V227.044a8.135,8.135,0,0,1,8.126-8.126h70.525v74.824H151.462A8.135,8.135,0,0,1,143.336,285.616Z"/><path d="M332.048,121.281l-14.971-4.833a14.61,14.61,0,0,1-9.659-10.426L301.7,82.2a3.5,3.5,0,0,0-6.793-.056l-6.129,23.77a14.5,14.5,0,0,1-9.227,10.067l-15.1,5.331a3.5,3.5,0,0,0,.143,6.648l15.019,4.586a14.551,14.551,0,0,1,9.926,10.7l5.344,23.731a3.5,3.5,0,0,0,3.4,2.731h.012A3.5,3.5,0,0,0,301.7,167l5.57-24.026a14.546,14.546,0,0,1,10.011-10.641l14.688-4.364a3.5,3.5,0,0,0,.078-6.685Zm-16.759,4.339a21.56,21.56,0,0,0-14.837,15.77l-2.111,9.1-1.979-8.788a21.565,21.565,0,0,0-14.711-15.856l-4.844-1.479,5.069-1.79a21.487,21.487,0,0,0,13.675-14.92L298.172,97.5l2.439,10.157a21.652,21.652,0,0,0,14.316,15.452l4.223,1.364Z"/><path d="M8.005,54.941l15.019,4.587a14.551,14.551,0,0,1,9.926,10.7l5.344,23.732a3.5,3.5,0,0,0,3.4,2.73h.011a3.5,3.5,0,0,0,3.41-2.709l5.57-24.026A14.549,14.549,0,0,1,60.7,59.313l14.688-4.364a3.5,3.5,0,0,0,.079-6.686L60.494,43.432A14.61,14.61,0,0,1,50.835,33L45.111,9.182a3.5,3.5,0,0,0-6.792-.056L32.19,32.9a14.5,14.5,0,0,1-9.228,10.067l-15.1,5.331a3.5,3.5,0,0,0,.144,6.647Zm17.287-5.377a21.489,21.489,0,0,0,13.676-14.92l2.62-10.162,2.44,10.157A21.655,21.655,0,0,0,58.343,50.093l4.223,1.363L58.705,52.6a21.56,21.56,0,0,0-14.836,15.77l-2.111,9.1-1.979-8.789A21.562,21.562,0,0,0,25.068,52.834l-4.845-1.48Z"/><path d="M7.736,306.3S76.547,333.5,76.977,333.5a3.5,3.5,0,0,0,3.254-2.211L84.8,319.767a10.947,10.947,0,0,0-6.132-14.2L64.116,299.8l7.971-20.091,18.066,7.168a8.957,8.957,0,0,0,11.628-5.023l3.289-8.29a8.968,8.968,0,0,0-4.133-11.215l48.919-123.307a11.42,11.42,0,0,0-5.5-14.4l6.079-15.323A8.561,8.561,0,0,0,145.9,98.3l2.536-6.392a7.536,7.536,0,0,0-4.227-9.787l-3.84-1.524L165.04,18.4a3.5,3.5,0,0,0-6.507-2.581l-24.675,62.2-3.84-1.524a7.544,7.544,0,0,0-9.787,4.228L117.7,87.112a8.561,8.561,0,0,0-10.857,4.906l-6.079,15.32a11.4,11.4,0,0,0-13.877,6.718L37.963,237.363a8.952,8.952,0,0,0-10.7,5.331l-3.289,8.291A8.967,8.967,0,0,0,29,262.612l18.066,7.168L39.1,289.87,24.541,284.1a10.949,10.949,0,0,0-14.2,6.132L5.773,301.751A3.5,3.5,0,0,0,7.736,306.3ZM127.437,83l14.186,5.628a.536.536,0,0,1,.3.7l-2.53,6.379L124.207,89.68l2.531-6.379A.538.538,0,0,1,127.437,83ZM113.344,94.6a1.578,1.578,0,0,1,2.049-.885l27.653,10.971a1.578,1.578,0,0,1,.884,2.048l-6.06,15.276-30.586-12.134ZM93.389,116.637a4.408,4.408,0,0,1,5.725-2.472l41.763,16.568a4.41,4.41,0,0,1,2.472,5.725l-6.31,15.907-8.352-3.313a3.5,3.5,0,0,0-2.581,6.507l8.351,3.313L129.089,172.4l-8.351-3.314a3.5,3.5,0,0,0-2.581,6.507l8.351,3.313-5.368,13.532-16.073-6.377a3.5,3.5,0,0,0-2.581,6.507l16.072,6.376-5.368,13.531-8.351-3.313a3.5,3.5,0,0,0-2.582,6.506l8.352,3.314-5.368,13.531L96.89,229.2a3.5,3.5,0,1,0-2.582,6.507l8.351,3.314-8.208,20.689-49.96-19.82Zm-62.9,136.928,3.289-8.29a1.953,1.953,0,0,1,2.54-1.1l61.153,24.26a1.959,1.959,0,0,1,1.1,2.541l-3.289,8.29a1.957,1.957,0,0,1-2.54,1.1L31.581,256.105A1.959,1.959,0,0,1,30.484,253.565Zm23.089,18.8,12.007,4.764-7.97,20.09L45.6,292.452ZM16.852,292.809A3.939,3.939,0,0,1,21.96,290.6l54.13,21.475a3.939,3.939,0,0,1,2.206,5.108l-3.281,8.27L13.57,301.079Z"/><path d="M206.773,244.03H196.408V233.665a3.5,3.5,0,0,0-3.5-3.5h-18.6a3.5,3.5,0,0,0-3.5,3.5V244.03H160.442a3.5,3.5,0,0,0-3.5,3.5v18.6a3.5,3.5,0,0,0,3.5,3.5h10.365V280a3.5,3.5,0,0,0,3.5,3.5h18.6a3.5,3.5,0,0,0,3.5-3.5V269.63h10.365a3.5,3.5,0,0,0,3.5-3.5v-18.6A3.5,3.5,0,0,0,206.773,244.03Zm-3.5,18.6H192.908a3.5,3.5,0,0,0-3.5,3.5V276.5h-11.6V266.13a3.5,3.5,0,0,0-3.5-3.5H163.942v-11.6h10.365a3.5,3.5,0,0,0,3.5-3.5V237.165h11.6V247.53a3.5,3.5,0,0,0,3.5,3.5h10.365Z"/><path d="M314.6,293.742H263.643a19.879,19.879,0,1,0,0,39.758H314.6a19.879,19.879,0,0,0,0-39.758Zm-63.831,19.879a12.894,12.894,0,0,1,12.879-12.879h21.976V326.5H263.643A12.894,12.894,0,0,1,250.764,313.621ZM314.6,326.5H292.619V300.742H314.6a12.879,12.879,0,0,1,0,25.758Z"/><path d="M259.094,248.181a34.345,34.345,0,0,0,5.269,7.176c.023.024.038.053.06.077a34.278,34.278,0,0,0,57.992-31.9c-.007-.031-.023-.058-.031-.088a34.2,34.2,0,0,0-8.514-15.477c-.021-.023-.035-.05-.056-.072a34.278,34.278,0,0,0-57.992,31.9c.01.041.028.077.039.117A34.342,34.342,0,0,0,259.094,248.181Zm43.166,7.376a27.321,27.321,0,0,1-29.254-1.889l43.323-23.831A27.322,27.322,0,0,1,302.26,255.557Zm-34.529-6.977a54.5,54.5,0,0,1-4.35-7.908l47.125-25.921a54.4,54.4,0,0,1,4.35,7.907Zm8.246-40.807a27.319,27.319,0,0,1,29.254,1.89l-43.323,23.83A27.323,27.323,0,0,1,275.977,207.773Z"/><circle cx="297.368" cy="61.693" r="3.8"/></svg>
