<svg fill="#6B7280"  stroke="#6B7280" id="Layer_1" viewBox="0 0 512 512" xmlns="http://www.w3.org/2000/svg" data-name="Layer 1"><path d="m224.475 81.633a7 7 0 0 1 9.562-2.563l38.106 22a7 7 0 1 1 -7 12.125l-38.106-22a7 7 0 0 1 -2.562-9.562zm68.668 130.244-38.106 22a7 7 0 1 0 7 12.123l38.106-22a7 7 0 0 0 -7-12.125zm-97.817-132.807-38.106 22a7 7 0 1 0 7 12.125l38.106-22a7 7 0 0 0 -7-12.125zm47.355 181.33a7 7 0 0 0 -7 7v44a7 7 0 0 0 14 0v-44a7 7 0 0 0 -7-7zm251.672-73.615a35.807 35.807 0 0 1 -62.739 23.619l-46.014 26.566v90.6a7 7 0 0 1 -3.5 6.063l-78.461 45.3v53.1a35.83 35.83 0 1 1 -14 0v-53.1l-78.461-45.3a7 7 0 0 1 -3.5-6.063v-90.6l-74.958-43.278-45.32 26.164a35.926 35.926 0 1 1 -7.014-12.115l45.332-26.173v-90.6a7 7 0 0 1 3.5-6.063l81.961-47.32a7 7 0 0 1 7 0l78.461 45.3 45.996-26.555a35.926 35.926 0 1 1 7.016 12.116l-46.009 26.563v86.558l74.957 43.278 46-26.554a35.826 35.826 0 1 1 69.755-11.5zm-139.622-141.958a21.831 21.831 0 1 0 21.83-21.827 21.854 21.854 0 0 0 -21.83 21.827zm-279.424 186.532a21.83 21.83 0 1 0 -21.83 21.831 21.855 21.855 0 0 0 21.83-21.831zm139.375-6.514 74.961-43.278v-86.558l-74.962-43.279-74.961 43.279v86.558zm81.961 220.5a21.831 21.831 0 1 0 21.83 21.83 21.855 21.855 0 0 0 -21.83-21.833zm74.957-208.375-74.961-43.278-74.957 43.278v86.559l74.961 43.278 74.957-43.279zm108.749-50.182a21.83 21.83 0 1 0 -21.83 21.83 21.854 21.854 0 0 0 21.834-21.83z"/></svg>