<svg id="Layer_1" enable-background="new 0 0 512 512" viewBox="0 0 512 512" xmlns="http://www.w3.org/2000/svg"><g><g><path clip-rule="evenodd" d="m318.797 25.992 121.582 70.195-121.581 70.195-.001 140.391-121.582-70.195v-140.391z" fill="#c48958" fill-rule="evenodd"/><g><path clip-rule="evenodd" d="m396.039 70.588-32.902-18.997-121.581 70.196v46.097l32.901 18.996v-46.097z" fill="#d8ecfe" fill-rule="evenodd"/></g><path clip-rule="evenodd" d="m318.798 306.773v-140.391l121.581-70.195v140.39z" fill="#e6c498" fill-rule="evenodd"/></g><g><g><path clip-rule="evenodd" d="m202.763 308.083 107.25 28.738c27.745 7.434 28.712 61.047-4.475 52.154 18.757 5.027 36.014.672 55.793-10.747l72.949-42.117c29.136-16.821 71.299 18.343 41.548 35.52l-143.447 82.82c-11.292 6.52-23.333 8.105-35.928 4.73l-97.169-26.037c-12.594-3.375-24.635-1.789-35.927 4.729l-21.198 12.238-53.282-92.288 77.959-45.01c11.292-6.52 23.333-8.105 35.927-4.73z" fill="#eac0ac" fill-rule="evenodd"/></g><path clip-rule="evenodd" d="m77.847 338.718 75.342 130.497-29.059 16.777-98.133-117.338z" fill="#388bb5" fill-rule="evenodd"/></g><path clip-rule="evenodd" d="m205.215 178.201c0 4.418-3.582 8-8 8s-8-3.582-8-8v-82.014c0-3.231 1.916-6.015 4.674-7.277l120.939-69.824c2.585-1.486 5.656-1.36 8.048.064l44.261 25.535 32.902 18.996-.007.013.106.062 44.121 25.473c2.527 1.432 4.091 4.052 4.087 6.958h.034v140.39c0 3.164-1.837 5.899-4.503 7.197l-120.607 69.633c-2.942 1.839-6.007 1.838-8.948-.002l-117.195-67.663c-.135-.078-.266-.16-.395-.245h-74.373c-4.401 0-7.969-3.568-7.969-7.969s3.568-7.969 7.969-7.969h125.191c4.401 0 7.969 3.568 7.969 7.969s-3.568 7.969-7.969 7.969h-18.923l82.17 47.441v-121.976l-28.34-16.362v32.28h-.018c.005 6.067-6.611 10.012-11.982 6.906l-32.398-18.705c-2.666-1.298-4.503-4.033-4.503-7.197v-41.518l-28.341-16.362zm25.931 16.031h-74.324c-4.401 0-7.969 3.568-7.969 7.969s3.568 7.969 7.969 7.969h74.324c4.401 0 7.969-3.568 7.969-7.969s-3.568-7.969-7.969-7.969zm-146.393 140.518c-2.192-3.814-7.061-5.129-10.875-2.938l-51.349 29.646c-4.978 2.633-5.849 8.506-2.658 12.321l98.134 117.338.003-.003c2.443 2.927 6.71 3.76 10.121 1.784l29.059-16.777-.008-.014c3.796-2.198 5.102-7.055 2.914-10.861l-7.055-12.22 14.285-8.247c9.471-5.467 19.309-6.754 29.896-3.917l97.169 26.037c14.602 3.912 28.889 2.021 41.99-5.542l143.447-82.82-.008-.014c11.23-6.492 15.118-15.285 14.003-24.219-1.144-9.166-7.692-17.001-15.476-22.241-12.796-8.613-31.937-12.153-48.035-2.859l-72.949 42.117c-7.311 4.221-14.193 7.389-20.862 9.364 6.792-18.714-2.838-45.798-24.425-51.582l-107.25-28.738c-14.602-3.912-28.889-2.021-41.99 5.543l.008.014-71.052 41.022zm57.547 131.536-16.347 9.438-87.748-104.921 36.726-21.203zm102.366-85.35c-4.263-1.139-6.795-5.518-5.656-9.781s5.518-6.795 9.781-5.656l58.809 15.757c8.952 2.399 13.211-1.54 14.619-8.733 2.079-10.623-3.243-25.029-14.269-27.984l-107.25-28.738c-10.586-2.836-20.382-1.557-29.865 3.918l-.008-.014-71.07 41.033 45.317 78.491 14.314-8.264c13.113-7.57 27.357-9.454 41.958-5.542l97.169 26.037c10.585 2.836 20.383 1.557 29.865-3.918l143.447-82.82.008.014c6.988-4.091 7.641-8.44 3.813-13.661-7.201-9.822-24.782-15.345-37.4-8.061l-72.948 42.119c-20.017 11.557-39.701 17.488-61.825 11.56zm187.713-270.932-105.582 60.958v121.977l105.582-60.958zm-174.877 11.792 16.955 9.789 105.635-60.989-16.955-9.79zm8.955 23.566-16.902-9.758v27.683l16.902 9.758zm129.582-65.577-105.651 60.997 28.409 16.402 105.651-60.998zm-154.499 32.795 105.65-60.998-28.393-16.392-105.651 60.997z" fill-rule="evenodd"/></g></svg>