<svg fill="#FFBA0C" stroke="#FFBA0C" id="Capa_1" enable-background="new 0 0 512 512" height="512" viewBox="0 0 512 512" width="512" xmlns="http://www.w3.org/2000/svg"><g><path d="m503.522 298.203-139.567-71.161c7.757-3.445 14.446-12.805 14.313-22.623v-118.441c-.011-3.266-.985-8.514-3.645-13.074-2.274-3.748-5.491-6.808-9.293-8.844l-98.1-52.701c-6.975-3.752-15.311-3.78-22.311-.077-.047.024-.095.049-.142.074l-26.473 14.222c-3.649 1.96-5.018 6.507-3.058 10.156s6.508 5.016 10.156 3.058l26.421-14.193c.032-.017.064-.034.097-.051 2.574-1.367 5.64-1.358 8.205.022l94.468 50.749-98.589 50.263-98.593-50.262 37.441-20.114c3.649-1.96 5.018-6.507 3.058-10.156-1.96-3.65-6.51-5.018-10.156-3.058l-41.071 22.064c-3.8 2.035-7.015 5.092-9.297 8.84-.001.002-.002.004-.004.007-.001.001-.001.002-.002.003-2.385 3.931-3.645 8.451-3.645 13.073v118.44c0 9.457 5.133 17.947 13.394 22.155l98.106 50.015c3.327 1.699 7.051 2.597 10.77 2.597 3.718 0 7.441-.898 10.765-2.595l80.675-41.13 52.818 26.933-144.259 73.542-144.264-73.542 21.424-10.923c3.69-1.881 5.156-6.398 3.275-10.088-1.882-3.691-6.398-5.155-10.088-3.275l-117.873 60.094c-5.229 2.666-8.478 7.968-8.478 13.838s3.249 11.172 8.479 13.839l79.25 40.401v35.469c0 12.112 6.565 22.979 17.13 28.357l137.428 70.059c4.194 2.141 8.881 3.279 13.565 3.303.05.001.098.008.149.008 4.736 0 9.479-1.144 13.714-3.307l66.928-34.121c3.69-1.881 5.157-6.398 3.275-10.088-1.882-3.691-6.399-5.156-10.088-3.275l-66.326 33.814v-129.9l76.262 38.88c4.264 2.174 8.939 3.26 13.617 3.26 4.676 0 9.354-1.087 13.616-3.26l42.265-21.547-.003 27.818c0 6.346-3.505 12.23-8.935 14.993l-40.14 20.465c-3.69 1.881-5.157 6.398-3.275 10.088 1.325 2.599 3.957 4.095 6.688 4.095 1.146 0 2.31-.264 3.4-.82l40.135-20.462c10.564-5.375 17.127-16.242 17.127-28.358l.003-35.466 79.258-40.405c5.229-2.666 8.479-7.969 8.478-13.838 0-5.871-3.248-11.174-8.478-13.839zm-349.582-84.994c-3.162-1.611-5.205-5.062-5.205-8.791v-116.684l99.77 50.862v122.822zm109.565 48.208v-122.821l99.764-50.862v116.684c0 3.73-2.042 7.181-5.207 8.792zm-248.505 50.623c0-.326.168-.412.291-.474l79.935-40.753 144.261 73.541-74.064 37.76c-4.26 2.172-9.347 2.172-13.608 0l-136.523-69.599c-.124-.062-.292-.148-.292-.475zm96.667 104.7c-5.431-2.765-8.939-8.649-8.939-14.992v-27.822l42.274 21.551c4.263 2.173 8.94 3.26 13.617 3.26s9.354-1.087 13.617-3.26l76.264-38.882v129.9zm385.043-104.225-136.524 69.599c-4.262 2.173-9.347 2.172-13.608 0l-74.062-37.759 144.259-73.543 79.936 40.754c.123.062.29.148.29.475 0 .326-.169.412-.291.474z"/></g></svg>