<?xml version="1.0" encoding="UTF-8"?>
<svg fill="#FFBA0C" stroke="#FFBA0C"  xmlns="http://www.w3.org/2000/svg" viewBox="0 0 512 512" width="512" height="512"><g id="QR_Code" data-name="QR Code"><path d="M482.98,5H417.57a24.015,24.015,0,0,0,0,48.03h41.39V94.42a24.02,24.02,0,1,0,48.04,0V29.01A24.042,24.042,0,0,0,482.98,5ZM492,94.42a9.02,9.02,0,1,1-18.04,0V45.53a7.5,7.5,0,0,0-7.5-7.5H417.57a9.015,9.015,0,0,1,0-18.03h65.41A9.025,9.025,0,0,1,492,29.01Z"/><path d="M29.01,118.44A24.047,24.047,0,0,0,53.03,94.42V53.03H94.42A24.015,24.015,0,1,0,94.42,5H29.01A24.037,24.037,0,0,0,5,29.01V94.42A24.042,24.042,0,0,0,29.01,118.44ZM20,29.01A9.02,9.02,0,0,1,29.01,20H94.42a9.015,9.015,0,1,1,0,18.03H45.53a7.5,7.5,0,0,0-7.5,7.5V94.42a9.015,9.015,0,1,1-18.03,0Z"/><path d="M482.98,393.561a24.041,24.041,0,0,0-24.02,24.009v41.4H417.57a24.015,24.015,0,0,0,0,48.03h65.41A24.047,24.047,0,0,0,507,482.98V417.57A24.041,24.041,0,0,0,482.98,393.561ZM492,482.98a9.03,9.03,0,0,1-9.02,9.02H417.57a9.015,9.015,0,0,1,0-18.03h48.89a7.5,7.5,0,0,0,7.5-7.5v-48.9a9.02,9.02,0,0,1,18.04,0Z"/><path d="M94.42,507a24.015,24.015,0,1,0,0-48.03H53.03v-41.4a24.015,24.015,0,0,0-48.03,0v65.41A24.042,24.042,0,0,0,29.01,507ZM20,482.98V417.57a9.015,9.015,0,0,1,18.03,0v48.9a7.5,7.5,0,0,0,7.5,7.5H94.42a9.015,9.015,0,1,1,0,18.03H29.01A9.025,9.025,0,0,1,20,482.98Z"/><path d="M77.3,413.57a19.55,19.55,0,0,0,5.755,13.911A19.789,19.789,0,0,0,96.99,433.26H203.8a19.688,19.688,0,0,0,19.7-19.69V306.75a19.686,19.686,0,0,0-19.7-19.689H96.99a19.823,19.823,0,0,0-13.923,5.765A19.564,19.564,0,0,0,77.3,306.75Zm15-106.82a4.66,4.66,0,0,1,1.374-3.317,4.72,4.72,0,0,1,3.316-1.372H203.8a4.686,4.686,0,0,1,3.315,1.36,4.761,4.761,0,0,1,1.385,3.329V413.57a4.748,4.748,0,0,1-1.373,3.317,4.673,4.673,0,0,1-3.327,1.373H96.99a4.688,4.688,0,0,1-4.69-4.69Z"/><path d="M124.8,393.26H176a7.5,7.5,0,0,0,7.5-7.5v-51.2a7.5,7.5,0,0,0-7.5-7.5H124.8a7.5,7.5,0,0,0-7.5,7.5v51.2A7.5,7.5,0,0,0,124.8,393.26Zm7.5-51.2h36.2v36.2H132.3Z"/><path d="M217.722,81.616A19.607,19.607,0,0,0,203.8,75.86H96.99a19.824,19.824,0,0,0-13.923,5.767A19.573,19.573,0,0,0,77.3,95.56V202.37a19.688,19.688,0,0,0,19.69,19.69H168.5V247H150.4a7.5,7.5,0,0,0-7.5,7.5v12.561H132.3V245.28a7.5,7.5,0,0,0-15,0v29.281a7.5,7.5,0,0,0,7.5,7.5h25.6a7.5,7.5,0,0,0,7.5-7.5V262H216a7.5,7.5,0,0,0,0-15H183.5V222.06h20.3a19.575,19.575,0,0,0,13.934-5.767A19.831,19.831,0,0,0,223.5,202.37V142.06H266a7.5,7.5,0,0,0,7.5-7.5v-30a7.5,7.5,0,0,0-15,0v22.5h-35V95.56A19.629,19.629,0,0,0,217.722,81.616ZM208.5,202.37a4.723,4.723,0,0,1-1.373,3.317,4.675,4.675,0,0,1-3.327,1.373H96.99a4.688,4.688,0,0,1-4.69-4.69V95.56a4.689,4.689,0,0,1,4.69-4.7H203.8a4.689,4.689,0,0,1,4.7,4.7Z"/><path d="M176,115.861H124.8a7.5,7.5,0,0,0-7.5,7.5v51.2a7.5,7.5,0,0,0,7.5,7.5H176a7.5,7.5,0,0,0,7.5-7.5v-51.2A7.5,7.5,0,0,0,176,115.861Zm-7.5,51.2H132.3v-36.2h36.2Z"/><path d="M434.689,95.56A19.686,19.686,0,0,0,415,75.86H308.189a19.82,19.82,0,0,0-13.922,5.767A19.573,19.573,0,0,0,288.5,95.56v91.5H260.25v-12.5a7.5,7.5,0,0,0-15,0v50a7.5,7.5,0,0,0,15,0v-22.5H288.5v.31a19.771,19.771,0,0,0,5.755,13.911,19.518,19.518,0,0,0,13.934,5.779H393.56v50H383.5V257.52a7.5,7.5,0,0,0-15,0v22.041a7.5,7.5,0,0,0,7.5,7.5h25.06a7.5,7.5,0,0,0,7.5-7.5v-57.5H415a19.507,19.507,0,0,0,13.912-5.755,19.789,19.789,0,0,0,5.777-13.935Zm-15,106.81a4.711,4.711,0,0,1-1.383,3.328A4.627,4.627,0,0,1,415,207.06H308.189a4.688,4.688,0,0,1-4.689-4.69V95.56a4.689,4.689,0,0,1,4.689-4.7H415a4.719,4.719,0,0,1,3.316,1.373,4.67,4.67,0,0,1,1.373,3.327Z"/><path d="M387.2,115.861H336a7.5,7.5,0,0,0-7.5,7.5v51.2a7.5,7.5,0,0,0,7.5,7.5h51.2a7.5,7.5,0,0,0,7.5-7.5v-51.2A7.5,7.5,0,0,0,387.2,115.861Zm-7.5,51.2H343.5v-36.2h36.2Z"/><path d="M434.689,234.56a7.5,7.5,0,0,0-15,0V256a7.5,7.5,0,0,0,15,0Z"/><path d="M434.689,394.561v-100a7.5,7.5,0,0,0-15,0v12.5H396a7.5,7.5,0,0,0,0,15h23.689v25H396a7.5,7.5,0,0,0-7.5,7.5v32.5H376a7.5,7.5,0,0,0,0,15h20a7.5,7.5,0,0,0,7.5-7.5v-32.5h16.189v32.5a7.5,7.5,0,0,0,15,0Z"/><path d="M423.5,425.76a7.5,7.5,0,0,0-7.5-7.5H361.21v-17.2a7.5,7.5,0,0,0-15,0v4.849H336a7.5,7.5,0,0,0,0,15h10.21v4.85a7.5,7.5,0,0,0,7.5,7.5H416A7.5,7.5,0,0,0,423.5,425.76Z"/><path d="M353.71,382.061a7.5,7.5,0,0,0,7.5-7.5v-12.5H376a7.5,7.5,0,0,0,7.5-7.5v-20a7.5,7.5,0,1,0-15,0v12.5H353.71a7.5,7.5,0,0,0-7.5,7.5v20A7.5,7.5,0,0,0,353.71,382.061Z"/><path d="M316.95,393.26a7.5,7.5,0,0,0,7.5-7.5V362.035a7.5,7.5,0,0,0-.5-14.974H279.24a7.5,7.5,0,0,0,0,15h30.21v23.7A7.5,7.5,0,0,0,316.95,393.26Z"/><path d="M248.65,418.26a7.5,7.5,0,1,0,0,15h36.2a7.5,7.5,0,0,0,7.5-7.5v-23.7H296a7.5,7.5,0,0,0,0-15H260.25v-32.5a7.5,7.5,0,1,0-15,0v40a7.5,7.5,0,0,0,7.5,7.5h24.6v16.2Z"/><path d="M252.75,248.5a7.5,7.5,0,0,0-7.5,7.5v48.561a7.5,7.5,0,0,0,7.5,7.5H301.6a7.5,7.5,0,0,0,0-15H260.25V256A7.5,7.5,0,0,0,252.75,248.5Z"/><path d="M353.5,324.561a7.5,7.5,0,0,0-7.5-7.5H306a7.5,7.5,0,0,0,0,15h40A7.5,7.5,0,0,0,353.5,324.561Z"/><path d="M316,237.06a7.5,7.5,0,0,0-7.5,7.5v12.5H284.85a7.5,7.5,0,0,0,0,15H328.5v22.5a7.5,7.5,0,0,0,7.5,7.5h17.71a7.5,7.5,0,0,0,0-15H343.5v-22.5a7.5,7.5,0,0,0-7.5-7.5H323.5v-12.5A7.5,7.5,0,0,0,316,237.06Z"/></g></svg>
