<svg fill="#FFBA0C" stroke="#FFBA0C" id="Layer_1" height="512" viewBox="0 0 128 128" width="512" xmlns="http://www.w3.org/2000/svg" data-name="Layer 1"><path d="m55.44 78.42h-49.91a1 1 0 0 0 -.87.51 1 1 0 0 0 0 1l20.84 34.4a1 1 0 0 0 .85.49h29.09a1 1 0 0 0 1-1v-34.4a1 1 0 0 0 -1-1zm-1 34.41h-27.51l-19.63-32.41h47.14z"/><path d="m3.43 74.45h39.08a1 1 0 0 0 .89-.53l4.52-8.44 2.15 3.34a1 1 0 0 0 .84.46 1 1 0 0 0 .54-.16 1 1 0 0 0 .3-1.38l-12.92-20a1 1 0 0 0 -.84-.46h-26.16a1 1 0 1 0 0 2h4.1l-13.37 23.72a1 1 0 0 0 .87 1.49zm14.8-25.2h19.22l9.23 14.31-4.76 8.89h-36.78z"/><path d="m79.38 66 25 43.22a1 1 0 0 0 .87.5 1 1 0 0 0 .86-.51l19.38-35.25a1 1 0 0 0 0-1l-14.59-25.21a1 1 0 0 0 -1.36-.36l-29.8 17.2a1 1 0 0 0 -.36 1.41zm30.29-16.33 13.75 23.82-18.25 33.2-23.56-40.87z"/><path d="m73.31 74.05a1 1 0 0 0 -1.35.43l-10.88 21.21a1 1 0 0 0 0 1l13.11 22.61a1 1 0 0 0 .86.5 1 1 0 0 0 .87-1.5l-2-3.55 27.21-.27a1 1 0 0 0 .86-1.5l-19.6-33.85a1 1 0 0 0 -.89-.5l-9.57.31 1.81-3.54a1 1 0 0 0 -.43-1.35zm7.69 6.6 18.35 31.85-26.63.26-9.61-16.64 7.77-15.12z"/><path d="m25.13 36.08 29.8 17.2a1 1 0 0 0 .49.14 1 1 0 0 0 .87-.5l25-43.22a1 1 0 0 0 0-1 1 1 0 0 0 -.87-.5h-39.77a1 1 0 0 0 -.86.5l-15 26a.94.94 0 0 0 -.1.75 1 1 0 0 0 .44.63zm16.1-25.88h37.42l-23.59 40.85-28.06-16.2z"/><path d="m66.21 44.74 5.05 8.14-4 .19a1 1 0 0 0 0 2l23.8-1.18a1 1 0 0 0 .94-.49l13.08-22.66a1 1 0 0 0 -.37-1.37 1 1 0 0 0 -1.36.37l-2 3.55-13.89-23.43a1 1 0 0 0 -.86-.49 1 1 0 0 0 -.86.5l-19.55 33.84a1 1 0 0 0 .02 1.03zm20.4-32.39 13.55 22.93-9.61 16.64-17 .84-5.32-8.56z"/></svg>