<svg xmlns="http://www.w3.org/2000/svg" xmlns:xlink="http://www.w3.org/1999/xlink" width="637" height="521" viewBox="0 0 637 521">
  <defs>
    <filter id="Rectangle_2955" x="0" y="208" width="432" height="313" filterUnits="userSpaceOnUse">
      <feOffset dy="3" input="SourceAlpha"/>
      <feGaussianBlur stdDeviation="3" result="blur"/>
      <feFlood flood-color="#d6d6d6"/>
      <feComposite operator="in" in2="blur"/>
      <feComposite in="SourceGraphic"/>
    </filter>
    <filter id="Path_1240" x="40" y="0" width="597" height="208" filterUnits="userSpaceOnUse">
      <feOffset dy="3" input="SourceAlpha"/>
      <feGaussianBlur stdDeviation="3" result="blur-2"/>
      <feFlood flood-color="#d6d6d6"/>
      <feComposite operator="in" in2="blur-2"/>
      <feComposite in="SourceGraphic"/>
    </filter>
    <clipPath id="clip-path">
      <rect width="30" height="13" fill="none"/>
    </clipPath>
    <clipPath id="clip-path-2">
      <rect width="31" height="15" fill="none"/>
    </clipPath>
    <clipPath id="clip-path-3">
      <rect width="30" height="15" fill="none"/>
    </clipPath>
  </defs>
  <g id="Group_2432" data-name="Group 2432" transform="translate(-1072 -3038)">
    <g id="Group_1040" data-name="Group 1040" transform="translate(1001.169 3224.939)">
      <g transform="matrix(1, 0, 0, 1, 70.83, -186.94)" filter="url(#Rectangle_2955)">
        <rect id="Rectangle_2955-2" data-name="Rectangle 2955" width="414" height="295" transform="translate(9 214)" fill="#fff"/>
      </g>
      <g id="Group_1039" data-name="Group 1039" transform="translate(79.831 36.283)">
        <path id="Path_936" data-name="Path 936" d="M0,0H413.267" transform="translate(0.601 28.035)" fill="none" stroke="#3182c2" stroke-width="1"/>
        <text id="Cost_Details" data-name="Cost  Details" transform="translate(11 12.778)" fill="#3182c2" font-size="13" font-family="Muli-Bold, Muli" font-weight="700"><tspan x="0" y="0" xml:space="preserve">Cost  Details</tspan></text>
        <rect id="Rectangle_770" data-name="Rectangle 770" width="105" height="5" transform="translate(1 23.778)" fill="#3182c2"/>
        <g id="Group_1030" data-name="Group 1030" transform="translate(0 44.062)">
          <text id="Details" transform="translate(10 9.715)" font-size="10" font-family="Muli-Bold, Muli" font-weight="700"><tspan x="0" y="0">Details</tspan></text>
          <text id="Origin_Terminal_Charges" data-name="Origin Terminal Charges" transform="translate(10 33.715)" fill="#707070" font-size="9" font-family="Muli-Bold, Muli" font-weight="700"><tspan x="0" y="0">Origin Terminal Charges</tspan></text>
          <text id="Factory_THC" data-name="Factory THC" transform="translate(19 58.715)" fill="#707070" font-size="10" font-family="Muli-Regular, Muli"><tspan x="0" y="0">Factory THC</tspan></text>
          <path id="Path_797" data-name="Path 797" d="M1732,2764h412.515" transform="translate(-1731.731 -2696.341)" fill="none" stroke="#707070" stroke-width="1" opacity="0.652"/>
          <text id="Seal_Fee" data-name="Seal Fee" transform="translate(19 82.715)" fill="#707070" font-size="10" font-family="Muli-Regular, Muli"><tspan x="0" y="0">Seal Fee</tspan></text>
          <text id="BL_fee_-_Non_Haz" data-name="BL fee - Non Haz" transform="translate(19 105.715)" fill="#707070" font-size="9" font-family="Muli-Regular, Muli"><tspan x="0" y="0">BL fee - Non Haz</tspan></text>
          <path id="Path_799" data-name="Path 799" d="M1732,2764h412.515" transform="translate(-1731.731 -2648.263)" fill="none" stroke="#707070" stroke-width="1" opacity="0.652"/>
          <path id="Path_800" data-name="Path 800" d="M1732,2764h412.515" transform="translate(-1731.731 -2672.302)" fill="none" stroke="#707070" stroke-width="1" opacity="0.652"/>
          <path id="Path_801" data-name="Path 801" d="M1732,2764h412.515" transform="translate(-1731.731 -2720.381)" fill="none" stroke="#707070" stroke-width="1" opacity="0.652"/>
          <text id="Rate" transform="translate(220 9.715)" font-size="10" font-family="Muli-Bold, Muli" font-weight="700"><tspan x="-22.48" y="0">Rate</tspan></text>
          <text id="Type" transform="translate(283 9.715)" font-size="10" font-family="Muli-Bold, Muli" font-weight="700"><tspan x="-11.26" y="0">Type</tspan></text>
          <text id="Cost_INR" data-name="Cost INR" transform="translate(383 8.715)" font-size="9" font-family="Muli-Bold, Muli" font-weight="700"><tspan x="-37.404" y="0">Cost INR</tspan></text>
          <path id="Path_802" data-name="Path 802" d="M1732,2764h412.515" transform="translate(-1731.731 -2744.42)" fill="none" stroke="#707070" stroke-width="1" opacity="0.652"/>
          <path id="Path_803" data-name="Path 803" d="M1732,2764h412.515" transform="translate(-1731.731 -2624.224)" fill="none" stroke="#707070" stroke-width="1" opacity="0.652"/>
          <path id="Path_804" data-name="Path 804" d="M1732,2764h412.515" transform="translate(-1731.731 -2600.184)" fill="none" stroke="#707070" stroke-width="1" opacity="0.652"/>
          <text id="_7260" data-name="₹7260" transform="translate(219 58.715)" fill="#707070" font-size="10" font-family="Muli-Bold, Muli" font-weight="700"><tspan x="-30" y="0">₹</tspan><tspan y="0" font-family="Muli-Regular, Muli" font-weight="400">7260</tspan></text>
          <text id="_6" data-name="$6" transform="translate(221 82.715)" fill="#707070" font-size="10" font-family="Muli-Bold, Muli" font-weight="700"><tspan x="-12" y="0">$6</tspan></text>
          <text id="_3000" data-name="₹3000" transform="translate(219 106.715)" fill="#707070" font-size="10" font-family="Muli-Bold, Muli" font-weight="700"><tspan x="-30" y="0">₹</tspan><tspan y="0" font-family="Muli-Regular, Muli" font-weight="400">3000</tspan></text>
          <text id="_7290" data-name="₹7290" transform="translate(390 58.715)" fill="#707070" font-size="10" font-family="Muli-Bold, Muli" font-weight="700"><tspan x="-30" y="0">₹</tspan><tspan y="0" font-family="Muli-Regular, Muli" font-weight="400">7290</tspan></text>
          <text id="_426_" data-name="$426*" transform="translate(388 81.715)" fill="#707070" font-size="9" font-family="Muli-Bold, Muli" font-weight="700"><tspan x="-25.695" y="0">$</tspan><tspan y="0" font-family="Muli-Regular, Muli" font-weight="400">426*</tspan></text>
          <text id="_3000-2" data-name="₹3000" transform="translate(390 106.715)" fill="#707070" font-size="10" font-family="Muli-Bold, Muli" font-weight="700"><tspan x="-30" y="0">₹30</tspan><tspan y="0" font-family="Muli-Regular, Muli" font-weight="400">00</tspan></text>
          <text id="_20" data-name="20" transform="translate(283 57.715)" fill="#707070" font-size="9" font-family="Muli-Bold, Muli" font-weight="700"><tspan x="-5.405" y="0">20</tspan></text>
          <text id="_20-2" data-name="20" transform="translate(283 81.715)" fill="#707070" font-size="9" font-family="Muli-Bold, Muli" font-weight="700"><tspan x="-5.405" y="0">20</tspan></text>
          <text id="BL" transform="translate(284 106.715)" fill="#707070" font-size="10" font-family="Muli-Bold, Muli" font-weight="700"><tspan x="-6.25" y="0">BL</tspan></text>
          <text id="Shipping_Line_HAMBURG_SUD_" data-name="Shipping Line (HAMBURG SUD)" transform="translate(10 128.715)" fill="#707070" font-size="9" font-family="Muli-Bold, Muli" font-weight="700"><tspan x="0" y="0">Shipping Line (HAMBURG SUD)</tspan></text>
          <text id="Freight" transform="translate(19 152.715)" fill="#707070" font-size="9" font-family="Muli-Regular, Muli"><tspan x="0" y="0">Freight</tspan></text>
          <path id="Path_805" data-name="Path 805" d="M1732,2764h412.515" transform="translate(-1731.731 -2576.145)" fill="none" stroke="#707070" stroke-width="1" opacity="0.652"/>
          <text id="_1312" data-name="$1312" transform="translate(219 153.715)" fill="#707070" font-size="10" font-family="Muli-Bold, Muli" font-weight="700"><tspan x="-30" y="0">$</tspan><tspan y="0" font-family="Muli-Regular, Muli" font-weight="400">1312</tspan></text>
          <text id="_93152" data-name="₹93152" transform="translate(390 153.715)" fill="#707070" font-size="10" font-family="Muli-Bold, Muli" font-weight="700"><tspan x="-36" y="0">₹</tspan><tspan y="0" font-family="Muli-Regular, Muli" font-weight="400">93152</tspan></text>
          <text id="_20-3" data-name="20" transform="translate(283 152.715)" fill="#707070" font-size="9" font-family="Muli-Bold, Muli" font-weight="700"><tspan x="-5.405" y="0">20</tspan></text>
          <path id="Path_807" data-name="Path 807" d="M1732,2764h412.515" transform="translate(-1731.731 -2552.105)" fill="none" stroke="#707070" stroke-width="1" opacity="0.19"/>
          <text id="Coordination" transform="translate(10 177.715)" fill="#707070" font-size="9" font-family="Muli-Bold, Muli" font-weight="700"><tspan x="0" y="0">Coordination</tspan></text>
          <text id="Coordination_Fees" data-name="Coordination Fees" transform="translate(19 202.715)" fill="#707070" font-size="10" font-family="Muli-Regular, Muli"><tspan x="0" y="0">Coordination Fees</tspan></text>
          <text id="_650" data-name="₹650" transform="translate(217 201.715)" fill="#707070" font-size="9" font-family="Muli-Bold, Muli" font-weight="700"><tspan x="-21.6" y="0">₹</tspan><tspan y="0" font-family="Muli-Regular, Muli" font-weight="400">650</tspan></text>
          <text id="_650-2" data-name="₹650" transform="translate(388 201.715)" fill="#707070" font-size="9" font-family="Muli-Bold, Muli" font-weight="700"><tspan x="-21.6" y="0">₹</tspan><tspan y="0" font-family="Muli-Regular, Muli" font-weight="400">650</tspan></text>
          <text id="_20-4" data-name="20" transform="translate(283 201.715)" fill="#707070" font-size="9" font-family="Muli-Bold, Muli" font-weight="700"><tspan x="-5.405" y="0">20</tspan></text>
          <rect id="Rectangle_2457" data-name="Rectangle 2457" width="414" height="30" transform="translate(0 211.715)" fill="#ffd7b3"/>
          <text id="Total" transform="translate(19 228.715)" fill="#707070" font-size="9" font-family="Muli-Bold, Muli" font-weight="700"><tspan x="0" y="0">Total</tspan></text>
          <text id="_1_04_518" data-name="₹1,04,518" transform="translate(387 229.715)" fill="#707070" font-size="10" font-family="Muli-Bold, Muli" font-weight="700"><tspan x="-47.02" y="0">₹1,04,518</tspan></text>
        </g>
      </g>
    </g>
    <g id="Group_1932" data-name="Group 1932" transform="translate(1121.437 3043.85)">
      <g transform="matrix(1, 0, 0, 1, -49.44, -5.85)" filter="url(#Path_1240)">
        <path id="Path_1240-2" data-name="Path 1240" d="M0,0H579V190H0Z" transform="translate(49 6)" fill="#fff"/>
      </g>
      <g id="Group_1038" data-name="Group 1038" transform="translate(0 0.15)">
        <g id="Rectangle_2950" data-name="Rectangle 2950" transform="translate(-0.437 98)" fill="#f1f1f1" stroke="#e5e5e5" stroke-width="1">
          <rect width="579" height="92" stroke="none"/>
          <rect x="0.5" y="0.5" width="578" height="91" fill="none"/>
        </g>
        <g id="Rectangle_831" data-name="Rectangle 831" transform="translate(-0.437)" fill="#f1f1f1" stroke="#e5e5e5" stroke-width="1">
          <rect width="579" height="92" stroke="none"/>
          <rect x="0.5" y="0.5" width="578" height="91" fill="none"/>
        </g>
        <line id="Line_46" data-name="Line 46" y2="189.654" transform="translate(327.051 0.095)" fill="none" stroke="#e5e5e5" stroke-width="3"/>
        <line id="Line_65" data-name="Line 65" y2="189.654" transform="translate(145.555 0.095)" fill="none" stroke="#e5e5e5" stroke-width="3"/>
        <line id="Line_66" data-name="Line 66" y2="189.654" transform="translate(507.277 0.095)" fill="none" stroke="#e5e5e5" stroke-width="3"/>
        <g id="Rectangle_749" data-name="Rectangle 749" transform="translate(67.563 43)" fill="#f1f1f1" stroke="#2699fb" stroke-width="1">
          <rect width="112" height="39" stroke="none"/>
          <rect x="0.5" y="0.5" width="111" height="38" fill="none"/>
        </g>
        <rect id="Rectangle_762" data-name="Rectangle 762" width="339" height="39" transform="translate(160.563 43)" fill="#3182c2"/>
        <path id="Union_7" data-name="Union 7" d="M20.563,9.658H7.344A2.238,2.238,0,0,1,5.227,12,2.238,2.238,0,0,1,3.11,9.658H0V8.749H4.442a5.031,5.031,0,0,1,1.571,0H17.972V0h4.052L27,5.548v4.11H24.8A2.238,2.238,0,0,1,22.68,12,2.238,2.238,0,0,1,20.563,9.658ZM0,7.385V0H16.393V7.385Z" transform="translate(28.563 57)" fill="#c6c6c6"/>
        <path id="Union_43" data-name="Union 43" d="M20.563,9.658H7.344A2.238,2.238,0,0,1,5.227,12,2.238,2.238,0,0,1,3.11,9.658H0V8.749H4.442a5.031,5.031,0,0,1,1.571,0H17.972V0h4.052L27,5.548v4.11H24.8A2.238,2.238,0,0,1,22.68,12,2.238,2.238,0,0,1,20.563,9.658ZM0,7.385V0H16.393V7.385Z" transform="translate(517.563 57)" fill="#c6c6c6"/>
        <line id="Line_144" data-name="Line 144" y2="37.546" transform="translate(119.927 43.954)" fill="none" stroke="#2699fb" stroke-width="1"/>
        <text id="_20_Days" data-name="20 Days" transform="translate(171.563 67)" fill="#fff" font-size="12" font-family="Muli-SemiBold, Muli" font-weight="600"><tspan x="0" y="0">20 Days</tspan></text>
        <text id="GO" transform="translate(69.563 67)" fill="#707070" font-size="12" font-family="Muli-SemiBold, Muli" font-weight="600"><tspan x="0" y="0">GO</tspan></text>
        <text id="GC" transform="translate(122.563 68)" fill="#707070" font-size="13" font-family="Muli-SemiBold, Muli" font-weight="600"><tspan x="0" y="0">GC</tspan></text>
        <text id="Dec_10_ETD_to_Jan_1_ETA_" data-name="Dec 10 ETD to Jan 1 ETA " transform="translate(162.563 26)" font-size="12" font-family="Muli-Regular, Muli"><tspan x="0" y="0">Dec 10 ETD to Jan 1 ETA </tspan></text>
        <g id="Path_1241" data-name="Path 1241" transform="translate(51.563 138)" fill="none">
          <path d="M0,.457H78V38.518H0Z" stroke="none"/>
          <path d="M 1 1.457271575927734 L 1 37.51782608032227 L 77 37.51782608032227 L 77 1.457271575927734 L 1 1.457271575927734 M 0 0.4572715759277344 L 78 0.4572715759277344 L 78 38.51782608032227 L 0 38.51782608032227 L 0 0.4572715759277344 Z" stroke="none" fill="#2699fb"/>
        </g>
        <line id="Line_478" data-name="Line 478" y2="37.596" transform="translate(86.609 138.904)" fill="none" stroke="#2699fb" stroke-width="1"/>
        <text id="GO-2" data-name="GO" transform="translate(54.563 161)" fill="#707070" font-size="12" font-family="Muli-SemiBold, Muli" font-weight="600"><tspan x="0" y="0">GO</tspan></text>
        <text id="GC-2" data-name="GC" transform="translate(89.563 162)" fill="#707070" font-size="13" font-family="Muli-SemiBold, Muli" font-weight="600"><tspan x="0" y="0">GC</tspan></text>
        <text id="Dec_8_ETD_to_Jan_3_ETA" data-name="Dec 8 ETD to Jan 3 ETA" transform="translate(120.563 123)" font-size="12" font-family="Muli-Regular, Muli"><tspan x="0" y="0">Dec 8 ETD to Jan 3 ETA</tspan></text>
        <path id="Union_142" data-name="Union 142" d="M20.563,9.658H7.344A2.238,2.238,0,0,1,5.227,12,2.238,2.238,0,0,1,3.11,9.658H0V8.749H4.442a5.031,5.031,0,0,1,1.571,0H17.972V0h4.052L27,5.548v4.11H24.8A2.238,2.238,0,0,1,22.68,12,2.238,2.238,0,0,1,20.563,9.658ZM0,7.385V0H16.393V7.385Z" transform="translate(12.563 151)" fill="#c6c6c6"/>
        <text id="Direct_Shipment" data-name="Direct Shipment" transform="translate(402.563 26)" font-size="12" font-family="Muli-Regular, Muli"><tspan x="0" y="0">Direct Shipment</tspan></text>
        <text id="Transhipment_through_Zeus_port_Cairo" data-name="Transhipment through Zeus port, Cairo" transform="translate(326.563 123)" font-size="12" font-family="Muli-Regular, Muli"><tspan x="0" y="0">Transhipment through Zeus port, Cairo</tspan></text>
        <g id="Symbol_1_6" data-name="Symbol 1 – 6" transform="translate(345.563 57)" clip-path="url(#clip-path)">
          <path id="Union_38" data-name="Union 38" d="M24.986,13C26.254,11.217,28.537,8,29,7.339c-.443,0-2.206-.007-7.442-.007-4.409,0-9.986,0-14.372,0V5.7H3.862V4.187H5.5V2.8H3.862V.694H1.183V7.34H0L.9,13Zm-4.97-6.271V3.671H12.764V6.729Zm7.713,0V3.671H20.477V6.729Zm0-3.671V0H20.477V3.059Z" fill="#fff" opacity="0.5"/>
        </g>
        <rect id="Rectangle_2951" data-name="Rectangle 2951" width="436.639" height="38.088" transform="translate(123.079 138.44)" fill="#3182c2"/>
        <text id="_24_Days" data-name="24 Days" transform="translate(129.563 161)" fill="#fff" font-size="12" font-family="Muli-SemiBold, Muli" font-weight="600"><tspan x="0" y="0">24 Days</tspan></text>
        <g id="Symbol_1_4" data-name="Symbol 1 – 4" transform="translate(291.563 150)" clip-path="url(#clip-path-2)">
          <path id="Union_38-2" data-name="Union 38" d="M24.986,13C26.254,11.217,28.537,8,29,7.339c-.443,0-2.206-.007-7.442-.007-4.409,0-9.986,0-14.372,0V5.7H3.862V4.187H5.5V2.8H3.862V.694H1.183V7.34H0L.9,13Zm-4.97-6.271V3.671H12.764V6.729Zm7.713,0V3.671H20.477V6.729Zm0-3.671V0H20.477V3.059Z" fill="#fff" opacity="0.5"/>
        </g>
        <g id="Symbol_1_5" data-name="Symbol 1 – 5" transform="translate(348.563 150)" clip-path="url(#clip-path-3)">
          <path id="Union_38-3" data-name="Union 38" d="M24.986,13C26.254,11.217,28.537,8,29,7.339c-.443,0-2.206-.007-7.442-.007-4.409,0-9.986,0-14.372,0V5.7H3.862V4.187H5.5V2.8H3.862V.694H1.183V7.34H0L.9,13Zm-4.97-6.271V3.671H12.764V6.729Zm7.713,0V3.671H20.477V6.729Zm0-3.671V0H20.477V3.059Z" fill="#fff" opacity="0.5"/>
        </g>
      </g>
    </g>
  </g>
</svg>
