<svg xmlns="http://www.w3.org/2000/svg" fill="none" viewBox="0 0 14 14" width="1em" height="1em" role="img" class="styles_image__thX_K"><path class="ic-a-free_alongside_ship_svg__ic_a_free_alongside_ship" fill="#000" d="m1.551 3.13.508-.514c.18-.181.357-.366.542-.54a.273.273 0 0 1 .166-.07c.497-.006.993-.016 1.49.002.245.008.489.07.734.11l3.271.544 2.16.361c.103.018.154.076.154.182v.978c0 .14-.064.202-.202.202h-.815c0 .29-.005.574.005.856.002.053.055.112.098.156.055.055.124.094.185.144.25.21.292.563.098.821a.591.591 0 0 1-.816.129 7.227 7.227 0 0 1-.34-.254c-.093-.072-.107-.17-.044-.251.062-.078.153-.087.245-.02.107.076.209.158.316.234.131.092.28.072.368-.046.083-.113.072-.277-.06-.355-.34-.204-.437-.505-.402-.879.016-.171.002-.346.002-.527H4.452v6.464h.302c.14.002.201.063.203.202.003.095.003.191.004.287 0 .003.003.005.011.022h.979c.132 0 .196.063.199.195.002.098 0 .198 0 .306h1.008c-.012-.036-.023-.072-.037-.105l-.765-1.96c-.072-.182-.042-.25.14-.313.08-.028.16-.062.24-.084.076-.02.097-.06.096-.136-.003-.638-.002-1.277-.002-1.915 0-.198.049-.246.242-.246h4.62c.196 0 .247.05.247.242 0 .635.002 1.27-.003 1.905 0 .083.024.12.103.14.085.023.167.058.25.088.163.059.196.137.126.295l-.872 1.96c-.019.04-.035.083-.058.138h.702c.04 0 .079-.002.117.004.086.013.15.088.144.17a.165.165 0 0 1-.141.163c-.037.008-.078.004-.118.004H6.15c0 .146-.006.29.002.433.004.104-.022.187-.108.247h-.128c-.088-.06-.111-.142-.109-.246.006-.28.002-.56.002-.84v-.106h-.141c-1.29 0-2.58 0-3.868.002-.104 0-.187-.02-.246-.108v-.128c.057-.084.136-.115.235-.108.09.006.181.002.274.002v-.315c.003-.132.064-.194.197-.196h.307V4.384c-.263 0-.521-.003-.779.001-.1.003-.18-.023-.235-.108V3.128l-.002.002Zm5.162 6.645.027.081c.252.647.505 1.292.755 1.94.027.07.064.085.133.085 1.129-.003 2.256-.003 3.384 0 .078 0 .11-.028.14-.094.268-.61.54-1.218.81-1.825l.086-.195c-.022-.01-.035-.016-.048-.02-.85-.3-1.702-.601-2.554-.898a.229.229 0 0 0-.141.008c-.434.152-.867.307-1.302.46-.426.153-.853.304-1.29.458ZM1.896 4.038h8.334v-.667H1.896v.667Zm5.28 5.198c.015 0 .026.003.036 0 .65-.23 1.3-.46 1.948-.696.026-.01.052-.062.052-.094.004-.213.002-.425.002-.637v-.35H7.176v1.779-.002Zm4.414.003V7.46H9.554c0 .338 0 .668.003.997 0 .03.034.075.063.086.125.051.252.093.379.138l1.59.559.001-.001ZM3 6.057l1.1 1.101V4.833L3 6.057Zm1.096 4.355V8.074L2.989 9.306l1.107 1.107Zm-1.18-1.536L4.01 7.658 2.915 6.555v2.323-.002ZM4.45 2.375v.644h3.794l.001-.013-3.795-.633v.002ZM2.92 4.39v1.246L4.038 4.39h-1.12Zm1.071 6.46L2.92 9.781v1.07h1.07Zm-.104-8.503H2.92v.675c.109 0 .211.003.313 0a.11.11 0 0 0 .073-.03c.19-.21.38-.42.58-.644v-.001Zm-1.48 9.013H4.61v-.158H2.406v.158Zm.161-8.74-.4.397h.4v-.396Zm1.531 0-.356.397h.356v-.396Z"></path><path class="ic-a-free_alongside_ship_svg__ic_a_free_alongside_ship" fill="#FDDE01" d="M1.551 11.602c.06.09.143.108.246.108 1.29-.002 2.58-.002 3.868-.002h.142v.107c0 .28.004.56-.002.839-.003.104.02.187.109.246H1.55v-1.299l.001.001Z"></path><path class="ic-a-free_alongside_ship_svg__ic_a_free_alongside_ship" fill="#fff" d="M6.713 9.775c.437-.156.864-.306 1.29-.457.435-.155.868-.31 1.302-.461a.237.237 0 0 1 .141-.008c.852.297 1.703.597 2.554.898l.048.02-.086.195c-.27.608-.542 1.216-.81 1.825-.03.066-.062.095-.14.094a658.08 658.08 0 0 0-3.384 0c-.07 0-.106-.015-.133-.085-.25-.648-.503-1.293-.755-1.94-.009-.023-.016-.046-.027-.081Z"></path><path class="ic-a-free_alongside_ship_svg__ic_a_free_alongside_ship" fill="#FDDE01" d="M1.895 4.038v-.667h8.334v.667H1.895Z"></path><path class="ic-a-free_alongside_ship_svg__ic_a_free_alongside_ship" fill="#fff" d="M7.175 9.236V7.458h2.038v.35c0 .212.002.424-.002.637 0 .032-.027.084-.053.094-.647.234-1.297.465-1.948.696-.009.004-.02 0-.035 0v.001Zm.335-.934v.48c0 .126.065.201.168.202.104 0 .172-.075.172-.2v-.957c0-.125-.066-.202-.17-.203-.103 0-.169.074-.17.2v.479-.001Zm1.192-.163V7.81c-.006-.115-.075-.19-.175-.187-.096.002-.164.074-.165.184-.002.216-.002.433 0 .65 0 .114.073.188.173.186.095-.002.163-.074.166-.184.002-.107 0-.213 0-.32h.001Zm2.888 1.1L10 8.68c-.127-.044-.254-.087-.378-.138-.03-.011-.064-.056-.064-.086-.005-.33-.003-.66-.003-.997h2.037v1.779h-.002Zm-.673-.935v.49c.001.116.07.19.17.19s.169-.076.17-.193c.001-.327.002-.653 0-.979 0-.116-.072-.19-.172-.19-.1 0-.166.075-.168.192-.002.164 0 .327 0 .49Zm-.51-.167c0-.11.002-.22 0-.33-.004-.113-.077-.188-.177-.184-.097.003-.163.075-.164.186-.002.215-.002.433 0 .648 0 .11.067.183.164.185.1.003.172-.072.175-.186.003-.107 0-.212 0-.319h.001Z"></path><path class="ic-a-free_alongside_ship_svg__ic_a_free_alongside_ship" fill="#FDDE01" d="m3 6.057 1.1-1.224v2.325A952.9 952.9 0 0 0 3 6.057Zm1.096 4.355L2.989 9.305l1.107-1.232v2.339Z"></path><path class="ic-a-free_alongside_ship_svg__ic_a_free_alongside_ship" fill="#fff" d="M2.917 8.877V6.553l1.095 1.102c-.344.385-.711.792-1.095 1.22Zm1.535-6.502c1.27.21 2.532.421 3.795.632l-.001.013H4.452v-.645ZM2.92 4.391h1.12L2.92 5.637V4.39Zm1.071 6.46H2.92V9.782l1.071 1.07Z"></path><path class="ic-a-free_alongside_ship_svg__ic_a_free_alongside_ship" fill="#FDDE01" d="M3.887 2.35c-.202.223-.39.434-.58.642a.11.11 0 0 1-.074.03c-.102.004-.204.002-.313.002v-.676h.967v.001Z"></path><path class="ic-a-free_alongside_ship_svg__ic_a_free_alongside_ship" fill="#fff" d="M2.407 11.36v-.157H4.61v.158H2.407Z"></path><path class="ic-a-free_alongside_ship_svg__ic_a_free_alongside_ship" fill="#FDDE01" d="M2.568 2.622v.396h-.4l.4-.396Zm1.532 0v.396h-.357c.12-.135.231-.257.356-.396Z"></path><path class="ic-a-free_alongside_ship_svg__ic_a_free_alongside_ship" fill="#fff" stroke="#000" stroke-width="0.15" d="M7.681 7.698c-.032 0-.053.01-.067.026a.156.156 0 0 0-.028.098v.958c0 .052.014.084.029.102.013.016.033.027.064.027h.001c.032 0 .053-.01.068-.027.015-.017.028-.049.028-.097v-.638l-.095-.448Zm0 0c.032 0 .052.01.066.027.015.019.029.05.03.101l-.096-.128Zm.855.945-.002-.075a.085.085 0 0 1-.067-.026.126.126 0 0 1-.029-.086 30.23 30.23 0 0 1 0-.648.12.12 0 0 1 .027-.083.087.087 0 0 1 .065-.027l-.002-.075.002.075c.03 0 .05.01.066.026.016.017.03.045.032.088v.645a.13.13 0 0 1-.03.085.085.085 0 0 1-.064.027l.002.075Zm0 0c-.1.002-.172-.072-.173-.187l.173.187Zm.166-.429V8.14v.075Zm2.555-.402h-.075c.002.326.002.652 0 .978a.132.132 0 0 1-.028.09.088.088 0 0 1-.067.028.087.087 0 0 1-.066-.026c-.016-.017-.028-.045-.029-.089v-.324a29.955 29.955 0 0 0 0-.329v-.325h-.075m.34-.003h-.075a.128.128 0 0 0-.029-.087.088.088 0 0 0-.068-.027c-.03 0-.051.01-.065.026-.015.016-.027.045-.028.091h-.075m.34-.003c.003.326.003.652 0 .979 0 .117-.07.191-.17.192l-.17-1.169m.34-.002c0-.116-.072-.19-.172-.19-.1 0-.167.074-.168.192m-.687.829.003-.075a.087.087 0 0 1-.065-.027.123.123 0 0 1-.027-.083 30.363 30.363 0 0 1 0-.648.12.12 0 0 1 .027-.083.088.088 0 0 1 .065-.028l-.003-.075.002.075a.086.086 0 0 1 .068.025c.016.017.03.045.031.086v.645a.131.131 0 0 1-.032.088.084.084 0 0 1-.066.025l-.003.075Zm0 0c-.097-.003-.163-.074-.164-.184l.164.184Zm.102-.58h-.002l.002-.037v.037Zm.073.15v-.075.075ZM7.683 2.462l.103-.103c.119-.119.237-.238.357-.356.042-.042.077-.102.059-.18a.184.184 0 0 0-.315-.084l-.244.244-.219.22a179.61 179.61 0 0 1-.457-.46.19.19 0 0 0-.18-.06.179.179 0 0 0-.137.126l.072.022m.961.63-.413.002a97.329 97.329 0 0 0-.353-.354l-.163-.163c-.032-.032-.046-.07-.032-.115m.961.63.077.078c.13.129.257.255.383.383v.001a.253.253 0 0 1 .06.104m-.52-.565-1.035.649m.074-1.28L6.65 1.81a.183.183 0 0 0 .051.19 208.439 208.439 0 0 0 .464.464l-.299.298-.162.163a.215.215 0 0 0-.053.08.175.175 0 0 0-.003.107m.074-1.28a.104.104 0 0 1 .081-.074c.044-.01.079.008.11.04l.483.484.012.011.016.015.016-.015.012-.011a193.866 193.866 0 0 0 .488-.49.111.111 0 0 1 .111-.033c.042.012.068.04.078.081.01.045-.007.08-.039.11L6.648 3.112m0 0c.039.145.211.177.312.077.11-.108.219-.218.328-.327l.137-.138.135.135.317.317.001.001a.5.5 0 0 0 .028.026l.002.002c.06.048.142.054.207.017h.001c.06-.035.109-.112.086-.194m0 0-.072.02.072-.02Zm.508-.567a1.286 1.286 0 1 1-2.573-.005 1.286 1.286 0 0 1 2.573.005Z"></path><path class="ic-a-free_alongside_ship_svg__ic_a_free_alongside_ship" fill="#FDDE01" d="M7.575 2.46c.175.175.345.343.513.514a.153.153 0 0 1 .04.072c.012.043-.013.087-.05.109a.109.109 0 0 1-.125-.01L7.93 3.12l-.476-.476c-.01-.01-.016-.018-.025-.03l-.03.028-.492.49c-.063.065-.163.04-.187-.043-.011-.046.004-.082.036-.114.163-.161.324-.324.487-.486l.027-.028a.645.645 0 0 0-.027-.028l-.489-.489a.11.11 0 0 1-.032-.115.104.104 0 0 1 .08-.074c.045-.01.08.008.111.04.162.16.323.322.483.483a.64.64 0 0 0 .028.027c.01-.01.02-.017.028-.027l.487-.488c.032-.032.068-.046.112-.034.042.012.068.04.078.081.009.044-.007.08-.039.11l-.477.477c-.011.011-.023.02-.038.033l.001.001Z"></path></svg>