<?xml version="1.0" encoding="utf-8"?>
<!-- Generator: Adobe Illustrator 27.5.0, SVG Export Plug-In . SVG Version: 6.00 Build 0)  -->
<svg version="1.1" id="Layer_1" xmlns="http://www.w3.org/2000/svg" xmlns:xlink="http://www.w3.org/1999/xlink" x="0px" y="0px"
	 viewBox="0 0 8530 4781" style="enable-background:new 0 0 8530 4781;" xml:space="preserve">
<g>
	<g>
		<path style="fill:#FDFDFE;" d="M4265.402,4780.453c-1412.831,0-2825.662-0.06-4238.493,0.547
			c-21.964,0.01-26.917-4.945-26.909-26.907C0.6,3178.363,0.6,1602.634,0,26.904C-0.008,4.942,4.946-0.004,26.909,0
			c2825.662,0.574,5651.324,0.574,8476.985,0c21.963-0.004,26.918,4.942,26.909,26.904c-0.6,1575.73-0.6,3151.459,0,4727.189
			c0.009,21.962-4.945,26.917-26.909,26.907C7091.064,4780.394,5678.233,4780.453,4265.402,4780.453z"/>
		<path style="fill:#F6F2E6;" d="M6819.416,1699.341c23.7,3.484,24.603,25.92,31.727,41.291
			c16.617,35.853,30.036,73.187,44.75,109.921c-7.567,9.725-18.581,10.029-28.787,8.316c-25.553-4.289-51.459-3.237-77.017-6.331
			c-5.792-0.728-11.409-4.674-16.973-3.856c-46.062,6.776-63.86-22.111-77.059-58.754c-5.501-15.271-8.979-42.768-31.488-32.243
			c-21.913,10.246-1.562,30.587,4.752,44.511c41.108,90.649,86.247,179.367,130.737,268.392
			c19.282,38.584,13.404,47.226-30.926,46.419c-13.425-0.244-27.819,1.59-37.565-11.444
			c-35.946-81.246-79.579-158.83-113.791-240.801c-8.908-21.342-21.876-28.238-44.704-28.106
			c-228.374,1.317-456.754,0.54-685.132,0.699c-8.784,0.006-17.569-0.073-26.352,0.024c-37.957,0.423-40.141,2.226-40.289,39.388
			c-0.3,75.142-0.088,150.286-0.095,225.428c-0.007,89.781-0.026,179.562,0.007,269.343c0.019,50.634,0.06,50.736,49.577,50.744
			c250.826,0.043,501.653-0.009,752.479,0.078c16.544,0.006,33.215-1.321,49.517,2.785c6.739,2.018,12.535,5.923,16.075,11.846
			c25.334,42.391,65.191,48.137,109.164,43.752c9.565-0.954,19.252-4.096,28.331,1.948c5.502,6.65,5.8,14.174,3.714,22.081
			c-3.5,9.773-12.746,14.382-19.377,21.377c-40.471,42.688-30.298,111.081,19.444,130.937c4.027-0.108,8.066,0.157,12.064-0.512
			c34.5-12.573,49.66-39.634,51.013-73.887c1.305-33.039-14.412-57.392-46.188-69.932c-3.676-1.451-6.206-4.5-8.192-7.969
			c-4.877-12.302-4.144-24.711-0.953-37.19c13.286-20.415,15.304-43.006,14.917-66.811c-0.851-52.563-0.302-105.149-0.236-157.725
			c0.011-8.757-0.371-17.591,1.692-26.172c1.333-5.535,2.354-12.119,9.39-13.223c6.569-1.031,10.549,3.909,14.164,8.503
			c4.261,5.415,6.475,11.939,9.377,18.099c38.181,81.044,79.709,160.428,119.529,240.66c3.692,7.439,6.101,16.751,16.296,18.96
			c3.026-5.093,0.463-9.61-0.705-14.19c-10.997-43.077-8.69-46.012,37.014-46.207c28.238-0.12,56.479,0.193,84.714-0.149
			c9.401-0.114,19.823,2.679,27.001-6.649c6.762-11.554,0.998-26.628,10.498-37.33c4.981,2.272,8.037,6.648,6.993,11.578
			c-8.17,38.575,17.422,47.329,46.324,59.268c149.121,61.601,277.956,150.385,368.376,287.378
			c21.976,33.294,42.15,68.213,35.867,111.116c-16.001,10.999-33.582,7.232-50.573,4.423c-18.227-3.014-36.724-1.998-54.845-5.025
			c-34.228-7.543-35.532-7.039-45.658,25.353c-19.712,63.06-36.406,127.007-55.528,190.245c-2.482,8.209-4.961,16.875-2.308,25.714
			c19.52,13.318,42.691,9.001,64.004,12.659c26.446,4.54,53.355,7.514,80.33,8.75c21.389,5.867,45.314,1.679,64.519,16.184
			c3.209,54.919-0.416,109.635-4.908,164.325c-7.502,9.787-18.622,10.02-29.194,10.041c-113.785,0.226-227.615-1.348-341.046,10.461
			c-3.844,0.4-7.723-0.755-11.458-1.756c-9.944-3.288-15.954-10.981-20.635-19.677c-61.88-114.962-160.922-174.174-287.603-192.231
			c-32.856-4.683-65.583-9.456-99-8.436c-73.177,2.234-145.986-8.824-219.284-5.988c-60.405,2.337-120.771,4.854-180.812,11.813
			c-160.498,18.601-268.668,106.305-331.282,253.072c-21.875,51.275-39.679,104.065-50.671,158.748
			c-4.995,24.844-17.802,33.674-42.443,33.482c-89.798-0.7-179.607-0.194-269.411-0.382c-15.729-0.033-31.144,1.199-46.367,5.385
			c-35.662-0.373-41.33-5.562-42.958-39.498c-0.421-8.773-0.231-17.565-0.231-26.349c-0.003-590.477-0.038-1180.953,0.153-1771.43
			c0.006-19.223-3.632-39.256,7.611-57.13c12.502-10.066,27.545-8.672,42.011-8.682c295.421-0.207,590.842-0.181,886.263-0.059
			c11.678,0.005,23.45-0.231,34.6,4.059c11.337,5.344,9.05,15.197,9.078,25.092c0.082,28.887,7.684,36.533,35.979,36.71
			c28.272,0.177,56.594-0.764,84.811,0.455C6783.442,1715.946,6802.579,1712.721,6819.416,1699.341z"/>
		<path style="fill:#DAD2CA;" d="M2081.034,820.314c1159.263,0.014,2318.526,0.017,3477.79,0.086
			c47.539,0.003,42.219-4.39,42.259,42.233c0.162,189.287,0.124,378.575,0.16,567.863c13.495,15.939,9.335,35.252,9.353,53.349
			c0.274,279.866,0.188,559.732,0.188,839.599c0,336.425,0.056,672.849-0.141,1009.274c-0.01,18.27,3.171,37.27-7.484,54.203
			c-10.465,9.003-23.364,8.787-35.909,8.799c-138.798,0.132-277.596,0.746-416.393-0.133c-80.414-2.268-160.841-0.557-241.265-0.64
			c-139.364,2.193-278.733,0.56-418.099,0.903c-63.346,0.156-126.697,0.687-190.045-0.252c-74.49-2.403-148.998-0.353-223.493-0.812
			c-180.798,1.523-361.597,2.262-542.336-0.309c-15.641-0.01-27.373-8.582-38.985-17.757
			c-161.688-127.763-393.749-122.493-549.033-2.708c-10.744,8.288-21.299,17.266-35.481,19.596
			c-74.146,2.955-148.258,3.487-222.354-0.037c-14.5-3.109-19.247-14.901-23.983-26.868
			c-18.977-47.957-37.776-95.985-57.744-143.545c-5.305-12.636-10.742-25.608,0.59-38.208c7.589-5.355,16.237-6.373,25.138-6.454
			c4.882-0.045,9.763-0.094,14.644-0.092c861.928,0.206,1723.838-9.601,2585.77-4.928c71.063,0.385,142.115,6.387,213.316,5.015
			c38.915-0.75,39.364-0.577,39.368-39.311c0.044-548.639,0.023-1097.279,0.026-1645.919c0-173.768,0.034-347.537-0.025-521.305
			c-0.013-36.975-0.144-37.078-37.622-37.115c-1050.524-1.014-2101.048-0.249-3151.573-0.339
			c-96.654-0.008-193.307,0.391-289.961-0.031c-10.707-0.047-21.533,1.019-31.264-4.987c-13.615-14.384-11.463-30.714-5.833-47.452
			c11.4-14.483,27.984-11.623,42.764-10.838c30.324,1.612,53.757-4.71,59.353-39.494
			C2073.486,827.01,2076.734,822.998,2081.034,820.314z"/>
		<path style="fill:#639F6A;" d="M1289.761,1640.132c-1.238-1.453-2.226-3.276-3.75-4.306
			c-58.433-39.455-58.255-39.377-33.196-107.025c40.301-108.798,86.786-214.551,140.336-317.783
			c50.358-97.078,129.653-140.525,233.381-150.377c19.775,12.283,24.792,34.071,33.521,53.176
			c48.27,105.644,74.539,217.555,93.408,331.519c1.116,6.738,2.101,13.491,3.599,20.17c3.747,16.707,14.891,22.315,30.508,19.247
			c17.364-3.412,13.432-16.869,10.882-27.993c-14.602-63.711-32.492-126.797-42.097-191.477
			c-9.034-60.835-23.855-120.517-33.018-181.257c-2.305-15.281-6.438-30.713-0.666-46.187c13.046-32.236,22.495-65.554,29.94-99.475
			c14.268-3.129,18.681,8.835,23.324,17.264c27.401,49.748,68.404,88.612,103.942,131.832c7.257,8.826,17.358,15.998,16.033,29.469
			c-1.466,5.914-4.503,11.506-9.468,14.381c-36.593,21.187-40.717,54.071-33.567,91.148c2.34,12.132,4.069,24.708-11.286,28.665
			c-16.867,4.346-17.45-11.031-22.3-21.004c-21.768-44.76-26.329-94.622-39.003-130.96c10.774,66.583,41.089,138.129,68.535,211.071
			c-3.226-34.12,7.932-67.532,3.316-101.8c-1.254-9.304-2.516-20.537,7.753-26.455c9.571-5.515,19.985-2.391,27.423,4.022
			c28.927,24.944,65.084,39.5,93.108,65.627c4.989,8.14,6.004,17.404,8.451,26.503c-17.978-50.419-18.684-100.621-6.574-152.946
			c8.3-35.859-5.459-73.018-6.148-109.823c-0.179-9.595-3.4-19.182,1.145-28.582c16.248-13.395,24.378,0.978,32.036,10.694
			c13.566,17.21,22.883,37.365,35.585,55.307c15.952,62.161,40.484,122.514,38.385,188.43c-0.654,20.545-2.649,40.404-7.902,60.562
			c-11.135,42.725,2.706,85.219,5.172,127.837c1.406,24.3,5.848,48.479-2.059,72.455c-10.842,15.304-27.499,12.856-42.568,12.615
			c-21.532-0.346-29.937,8.553-27.62,29.982c10.645,98.448,16.915,197.29,25.913,295.893c4.849,53.145,8.89,106.386,13.493,159.57
			c1.493,17.251,2.422,34.993-3.373,51.999c-3.03,6.844-9.031,10.014-15.805,11.337c-37.384,7.307-71.906,22.205-105.587,39.364
			c-14.593,7.435-29.372,8.097-44.933,3.116c-23.047-7.377-45.286-16.8-67.783-25.567c-48.691-20.768-98.328-39.152-147.643-58.363
			c-9.936-3.871-24.004-4.729-23.022-21.157c16.648-47.945,12.338-98.393,15.224-147.587c3.934-67.064,1.819-134.543,0.657-201.817
			c-0.659-38.153-11.56-76.051-2.795-105.988c-1.477,49.342-11.786,105.727-28.973,160.801
			c-6.183,19.812-16.678,37.445-36.447,47.366c-98.398-18.333-192.132-50.012-280.019-98.361
			C1300.275,1651.437,1294.068,1646.927,1289.761,1640.132z"/>
		<path style="fill:#897476;" d="M5711.439,3543.512c24.97-6.196,50.398-3.012,75.589-3.169
			c79.014-0.494,158.037-0.542,237.046,0.24c18.407,0.182,25.874-3.839,30.172-24.389c16.999-81.268,43.423-159.44,86.276-231.449
			c67.761-113.865,169.417-175.745,298.906-190.696c164.237-18.963,329.217-15.739,493.28,0.591
			c141.911,14.125,252.675,80.748,314.923,214.961c2.152,3.457,2.93,7.188,1.644,11.081c-9.656,29.236-9.654,27.619,22.276,28.06
			c94.393,1.304,188.44-10.081,282.854-6.768c39.932,1.401,79.627-2.43,119.429-5.022c34.251-2.231,39.468,3.834,39.003,36.849
			c-1.081,76.74,2.922,153.526-2.089,230.227c-0.104,4.76-0.394,9.43-5.698,11.648c-38.783,5.159-77.742,1.743-116.607,2.075
			c-74.955,0.639-149.917,0.083-224.877,0.229c-39.352,0.077-39.121,0.321-49.961,37.429c-5.125,17.543-7.879,36.603-25.247,47.79
			c-19.242,16.203-42.38,9.917-64.146,10.758c-21.267,0.822-42.699,1.837-63.843,0.115c-22.128-1.802-35.686,2.219-31.724,28.438
			c0.651,4.316-2.26,9.172-3.525,13.778c-13.016-13.825-10.193-29.356-4.919-45.145c13.686-15.861,32.415-10.167,49.279-10.634
			c39.807-1.103,41.389-0.996,40.055-41.674c-3.767-114.847-38.202-220.428-102.137-315.596
			c-46.956-69.894-115.826-107.661-198.266-115.403c-155.423-14.594-311.394-17.762-466.583,1.939
			c-109.515,13.902-184.694,76.989-230.034,176.917c-36.073,79.506-50.425,163.494-52.341,250.006
			c-0.754,34.063,0.084,34.085,34.926,38.663c3.895,0.512,7.625,1.555,11.263,3.149c3.38,1.712,5.182,4.437,5.462,8.204
			c-1.723,3.268-4.264,5.621-7.618,7.138c-7.37,3.021-15.154,3.506-22.949,3.599c-93.374,1.115-186.739-0.817-280.104,5.424
			c-51.208,3.423-53.171-1.357-57.67-52.485c-0.875-9.941,1.926-24.349-13.366-24.907c-15.668-0.571-13.369,13.952-14.451,23.883
			c-5.396,49.527-9.68,53.777-58.928,54.106c-37.964,0.253-75.932,0.26-113.895-0.062c-12.561-0.107-25.5,0.769-36.486-7.458
			c-4.746-40.544-1.465-81.158-0.438-121.732c0.307-12.116,8.587-19.038,20.376-21.563c11.539-2.47,23.245-2.184,34.919-2.177
			c86.482,0.05,172.896-3.002,259.318-5.655c20.525-0.63,40.79,1.486,61.146,3.788c15.954,1.805,32.668,5.32,49.276-5.977
			c-11.042-12.018-24.235-8.758-35.993-8.811c-80.834-0.36-161.672,0.051-242.507-0.372
			C5738.252,3553.379,5722.813,3556.206,5711.439,3543.512z"/>
		<path style="fill:#3F617B;" d="M1507.029,4263.911c-6.873-131.499-17.641-262.765-21.604-394.452
			c-1.941-64.495,0.128-128.739,2.776-193.083c0.809-19.647,10.264-35.669,19.802-51.223
			c40.59-66.192,56.551-137.758,53.242-215.055c-10.348-241.733-19.172-483.531-29.542-725.262
			c-3.741-87.208,4.28-173.367,16.946-259.36c8.228-16.856,24.043-13.078,38.128-14.073c9.744-0.508,19.484-1.185,29.24-0.881
			c122.893,3.83,245.541-5.949,368.38-7.169c88.421-0.878,176.893-9.55,265.442-12.674c27.606,21.656,38.936,50.314,36.278,84.959
			c-9.197,10.757-21.986,10.822-34.507,11.209c-18.302,0.566-36.618,0.164-54.927,0.242c-41.925,0.179-41.925,0.182-43.437,40.763
			c-0.781,50.905,0.052,101.781-0.366,152.635c-6.53,42.01-40.105,62.61-69.745,85.475c-11.093,8.557-22.526,2.465-26.627-11.954
			c-2.969-10.44-2.737-21.274-2.491-31.985c1.655-72.101-4.183-144.339,3.729-216.312c1.774-16.133-4.729-24.038-20.857-24.162
			c-55.596-0.43-111.191-0.637-166.787,0.104c-15.391,0.205-22.628,9.152-25.921,22.903c-5.719,23.886-16.263,45.79-26.778,67.865
			c-21.417,44.962-57.959,66.903-105.909,72.197c-21.309,2.353-42.423,6.929-63.99,6.53c-16.299-0.302-21.816,7.566-21.804,23.479
			c0.093,121.828,4.492,243.512,11.012,365.138c0.261,4.864,1.009,9.72,0.932,14.593c-2.137,134.552,10.226,268.885,6.146,403.471
			c-0.444,14.641-1.314,29.173-3.277,43.715c-4.119,30.52-0.445,33.812,28.382,25.241c42.078-12.51,83.744-26.328,125.042-41.22
			c18.375-6.626,36.856-12.954,56.016-16.762c10.028-1.994,21.174-7.105,29.232,4.74c5.358,12.519,2.028,25.015-0.646,37.298
			c-47.711,219.199-72.487,441.661-95.383,664.429c-4.173,40.604-6.57,81.471-13.99,121.762
			c-4.516,24.067-21.335,29.938-42.959,29.955c-60.285,0.045-120.575,0.555-180.852-0.216c-33.543-0.429-35.852-3.629-36.277-36.928
			C1508.97,4281.184,1510.661,4272.316,1507.029,4263.911z"/>
		<path style="fill:#40627C;" d="M2606.069,3194.308c25.907,64.367,51.814,128.733,77.721,193.1
			c30.157,56.195,49.443,115.339,48.469,179.897c-0.155,10.242-3.766,18.987-13.417,24.166
			c-36.135,30.543-55.14,71.899-70.753,114.851c-23.49,64.621-30.052,132.919-38.756,200.374
			c-17.097,132.512-30.674,265.449-37.26,398.989c-5.14,11.137-13.398,12.796-23.829,7.868c-8.228-9.257-9.349-21.254-11.735-32.54
			c-5.14-24.309-20.578-34.162-44.233-32.977c-17.513,0.877-34.872,2.756-52.118,6.541c-41.445,9.099-62.211-6.231-62.602-48.559
			c-0.697-75.313,11.826-149.274,27.462-222.634c13.39-62.825,22.707-126.367,34.54-189.462
			c8.949-47.716,28.679-92.908,30.131-142.477c0.663-22.655,17.175-41.075,29.169-59.778c8.13-12.678,7.113-22.054,0.115-34.632
			c-66.277-119.123-136.003-236.219-205.783-353.295c-5.792-9.718-17.884-20.567-3.173-33.068
			c19.892-6.584,40.597-5.769,60.482-3.009c61.802,8.576,123.791,2.956,185.655,4.743c15.938,0.46,30.493-4.459,44.979-10.017
			c7.337-1.922,12.394,1.568,16.604,7.032C2604.285,3176.422,2605.31,3185.321,2606.069,3194.308z"/>
		<path style="fill:#4A3B44;" d="M2917.908,3387.116c170.439-147.145,426.753-151.642,599.128-5.121
			c2.87,2.439,6.834,3.591,10.288,5.344c18.143,6.795,29.168,21.562,41.206,35.622c45.961,53.683,82.261,112.539,100.095,181.674
			c43.175,162.367,6.208,305.854-103.465,431.237c-79.804,91.236-181.833,140.849-301.535,155.675
			c-31.475-2.543-64.05,8.378-94.358-7.79c-123.999-19.745-229.84-73.093-308.394-172.735
			c-98.454-124.885-117.712-265.879-78.683-417.281c-5.949-9.831-1.287-18.854,2.259-27.874
			c24.593-62.56,61.56-116.933,108.372-164.976C2900.108,3393.414,2908.794,3390.316,2917.908,3387.116z"/>
		<path style="fill:#4A3C45;" d="M7124.972,3709.391c0.049,15.633,0.099,31.266,0.148,46.898
			c-7.661,203.416-161.609,380.063-366.878,420.914c-12.406,2.469-24.881,4.602-37.323,6.891
			c-30.141,15.444-62.37,4.956-93.509,7.639c-211.663-20.767-376.365-168.569-415.177-372.242
			c-3.126-16.403-4.121-32.83-4.095-49.435c0.172-22.507-0.676-45.051,3.231-67.363l-0.437-0.834
			c-6.257-16.302-3-32.896-0.117-48.987c35.107-195.967,186.722-343.382,381.983-379.066
			c230.939-42.204,468.435,114.746,525.579,344.927C7125.692,3648.202,7141.566,3677.853,7124.972,3709.391z"/>
		<path style="fill:#CEC7B5;" d="M6637.191,1658.714c-321.604-0.013-643.209-0.026-964.814-0.039
			c-2.009-2.042-5.054-3.52-5.517-6.514c-8.142-52.617-8.257-105.255,0.071-157.865c0.475-3.001,3.55-4.434,5.583-6.45
			c201.544-9.543,403.248-1.988,604.816-5.953c62.398-1.228,121.292,12.814,180.909,25.601
			c99.4,21.318,198.042,46.204,298.384,63.066c11.155,1.875,20.389,6.712,25.252,17.492c8.772,19.446,21.433,37.159,26.107,58.433
			c-3.807,4.034-8.532,6.342-13.896,7.47c-29.462,2.784-59.014,0.948-88.517,1.4
			C6682.657,1653.792,6659.805,1653.748,6637.191,1658.714z"/>
		<path style="fill:#F5996C;" d="M1640.991,2004.04c56.65,23.343,113.3,46.685,169.95,70.027
			c-3.31,15.268-15.815,21.789-27.929,27.762c-74.263,36.614-150.594,68.443-228.056,97.622c-6.448,2.429-13.803-1.891-19.626,3.313
			c-75.262,6.64-149.037,2.614-220.934-24.315c-83.476-31.265-121.427-93.066-123.948-178.991
			c-3.387-115.455,28.734-222.429,80.912-324.214c84.954,43.418,172.921,77.506,268.894,86.786
			c9.782,0.946,19.266,2.534,26.015,10.776c3.476,5.425,3.954,11.193,1.915,17.222c-63.332,35.776-103.011,95.533-154.961,148.891
			c23.534,7.42,43.833,5.762,62.972,10.243c37.915,3.586,73.141,18.284,109.988,26.253
			C1603.44,1986.866,1626.508,1987.259,1640.991,2004.04z"/>
		<path style="fill:#87504E;" d="M5672.515,1487.846c-0.046,56.943-0.092,113.886-0.138,170.829
			c-0.466,89.744-1.309,179.488-1.335,269.233c-0.152,523.959-0.108,1047.918-0.142,1571.878
			c-0.003,42.029-0.041,42.029,40.536,43.729c103.173,0.467,206.343,1.009,309.513,1.323c14.441,0.044,28.89-0.979,24.702,20.71
			c-2.421,12.538-12.088,12.924-22.227,13.992c-29.376,3.096-57.848-6.173-86.997-5.621c-99.625,1.887-199.247,4.17-298.881,5.175
			c-19.054,0.193-25.013,6.16-25.247,25.161c-0.453,36.729,5.718,73.927-5.405,110.153c-17.486-4.085-14.154-19.042-14.556-30.56
			c-1.082-31.021-1.214-62.098,0.069-93.148c-1.713-57.229-0.569-114.464-0.595-171.695c-0.005-11.711,0.785-23.398,9.238-32.823
			c0.165-242.017,0.461-484.035,0.465-726.052c0.006-409.878-0.174-819.756-0.274-1229.634c2.871-0.195,5.738-0.522,8.611-0.565
			C5668.907,1429.037,5668.907,1429.043,5672.515,1487.846z"/>
		<path style="fill:#9BB5BA;" d="M6619.64,4184.013c33.76,0.027,67.52,0.054,101.279,0.081c19.614,8.579,40.324,4.526,60.429,4.252
			c121.868-1.662,243.511,4.793,365.25,7.644c0.034,3.189,0.067,6.378,0.101,9.567c-52.892,0-105.786-0.139-158.678,0.025
			c-175.659,0.543-351.328,0.19-526.975,1.971c-1040.197,10.546-2080.413,4.523-3120.616,2.626
			c-143.287-0.262-286.724-1.911-430.06-4.907c-47.634-0.996-95.221-4.264-142.904-8.209c57.273-2.481,114.524-5.94,171.824-7.188
			c66.335-1.444,132.714-0.768,199.069-1.467c10.346-0.109,21.618,3.447,30.906-4.65c33.676,0.028,67.35,0.056,101.024,0.083
			c14.627,4.716,29.532,0.683,43.207-2.124c52.177-10.708,104.767-8.335,157.311-8.339c987.538-0.07,1975.077,0.096,2962.615-0.455
			c53.892-0.03,106.969,6.199,160.289,11.372C6602.46,4185.144,6611.02,4187.332,6619.64,4184.013z"/>
		<path style="fill:#CFD0D1;" d="M2901.514,4686.348c12.143,9.033,26.272,6.019,39.676,6.022
			c78.83,0.027,157.318,4.221,235.078,17.989c2.295,0.406,4.345,2.193,9.222,4.771c-32.869,16.122-66.672,13.063-98.424,16.862
			c-34.504,4.129-69.771,5.854-104.673,6.882c-315.963,9.309-632.033,6.294-948.071,6.713c-173.725,0.23-347.467,0.976-521.17-1.097
			c-119.698-1.428-239.433-5.65-358.956-12.195c-35-1.917-71.706-1.095-112.714-17.625c35.112-14.352,66.867-13.966,96.936-15.48
			c113.707-5.725,227.339-15.596,341.339-12.092c15.347,0.472,20.081-7.955,25.575-18.231
			c14.999,13.346,32.574,19.162,52.531,21.895c107.264,14.689,214.716,13.808,322.322,5.807c17.438-1.296,34.921-0.702,52.346-2.355
			c18.971-1.8,36.074-7.086,48.64-22.529c13.61-7.237,28.456-5.838,42.989-5.882c62.407-0.187,124.817-0.411,187.22,0.112
			c20.575,0.172,40.769-2.595,61.101-4.491c45.833,32.665,100.414,29.791,151.859,32.552
			c103.876,5.576,208.074,12.188,312.104,6.444C2791.48,4697.381,2847.386,4701.112,2901.514,4686.348z"/>
		<path style="fill:#FDCAA8;" d="M1535.329,2202.764c63.021-27.117,125.967-54.407,189.094-81.275
			c30.447-12.959,60.732-26.038,86.518-47.421c59.267,34.436,116.483,27.507,173.729-6.375c15.492-9.17,34.553-12.286,53.306-11.979
			c28.437-11.751,58.779-11.962,88.609-12.789c32.981-0.915,65.658,6.762,98.827,6.36c10.815-0.131,22.736,2.87,25.182,15.552
			c2.562,13.281-6.397,21.682-17.451,27.332c-15.254,7.796-31.903,7.416-48.465,7.991c-17.102,0.593-34.95-2.741-54.784,9.915
			c40.587,26.638,86.61,24.77,127.992,37.469c20.921,0.525,40.625,5.104,57.487,18.146c14.155,10.948,30.619,10.521,47.252,11.454
			c22.953,1.288,46.829-5.714,68.673,6.788c2.195,15.609-10.65,13.422-18.905,14.82c-13.268,2.247-26.895,1.451-40.335,0.953
			c-22.032-0.815-40.974-0.375-49.873,26.903c-5.628,17.251-27.524,19.195-42.413,27.596
			c-117.509,21.217-231.086,17.844-333.487-54.036c-27.666-19.42-56.761-25.626-91.108-19.908
			c-76.792,12.783-154.143,22.257-231.791,28.72c-25.125,2.437-50.262,5.674-75.399,0.087
			C1543.769,2206.965,1539.549,2204.864,1535.329,2202.764z"/>
		<path style="fill:#7C6366;" d="M2081.034,820.314c-1.947,10.439-4.596,20.806-5.687,31.334
			c-2.01,19.394-13.996,26.413-31.543,26.875c-23.221,0.611-46.453,0.833-69.679,1.222c-70.345,18.08-133.938,5.081-189.422-42.365
			c-19.968-17.075-38.373-35.905-43.073-63.641c-7.932-27.534-15.864-55.069-23.797-82.603c-6.032-5.792-7.173-13.413-8.132-21.192
			c-8.732-70.865-28.247-136.735-85.823-184.967c-3.056-2.56-4.233-6.423-5.415-10.139c-7.243-28.419-24.165-55.308-13.677-86.528
			c28.719-20.011,58.58-36.617,95.554-32.061c14.548,34.763,12.181,72.464,18.481,108.674
			c7.359,42.297,14.883,84.405,30.523,124.626c8.947,23.009,20.435,44.201,40.442,59.709c21.338,16.539,43.099,25.358,69.777,10.277
			c18.138-10.254,38.95-11.83,59.707-11.131c18.375,0.207,36.727,0.239,55.085-0.433c18.241,1.336,36.81-0.906,54.631,4.892
			c9.157,2.979,21.133,5.363,21.241,16.515c0.126,12.96-13.142,11.172-21.985,13.328c-3.75,0.914-7.474,1.921-11.182,2.916
			c-27.98,4.925-56.252,2.034-84.404,2.723c-19.756,0.484-38.926,2.258-54.445,16.352c-10.403,27.513,1.584,50.396,19.431,68.252
			c17.239,17.248,39.197,7.755,57.033-2.402c15.271-8.696,28.434-12.614,46.487-7.572c25.553,7.137,43.855-6.806,49.152-36.104
			c5.731-31.699,10.022-63.601,24.971-92.677c5.037-9.797,6.616-23.164,21.751-23.968c3.427,56.3-8.88,111.311-13.606,166.943
			C2082.211,791.514,2081.811,805.93,2081.034,820.314z"/>
		<path style="fill:#6C5663;" d="M2573.011,4469.8c32.688,42.249,82.463,38.608,127.512,46.552
			c32.552,5.741,65.871,7.232,97.6,17.533c46.589,15.125,73.834,48.554,88.353,93.923c1.623,5.071,1.494,9.493-3.349,12.777
			c-26.321,11.622-54.709,12.521-82.453,12.92c-85.75,1.236-171.682,3.7-257.248-0.495c-83.235-4.081-167.2-4.003-249.257-22.631
			c-4.787-1.086-9.473-2.206-13.632-4.89c-14.148-15.669-5.353-33.673-4.136-50.42c2.521-34.715,1.724-69.973,13.071-103.567
			c15.282-6.182,12.42,7.852,14.72,14.282c18.558,51.878,92.136,84.193,142.354,62.274c27.137-11.845,49.379-30.541,72.232-48.805
			C2534.822,4486.432,2548.767,4468.132,2573.011,4469.8z"/>
		<path style="fill:#8BB5BC;" d="M6890.154,1905.307c8.697,33.162,27.821,61.468,43.356,91.332
			c67.202,129.19,135.219,257.956,202.94,386.876c-9.164,11.342-22.307,9.802-34.476,9.877c-33.567,0.208-66.699-5.28-99.949-8.613
			c-10.501-3.491-13.729-13.011-17.529-21.883c-27.911-65.158-59.935-128.506-85.713-194.602
			c-3.839-9.841-5.467-21.059-21.503-16.443c-13.394,3.855-16.065-7.689-18.417-17.116c-10.266-41.14-33.737-76.089-52.7-113.184
			c-18.2-32.138-34.222-65.354-50.006-98.67c-5.788-12.214-8.752-28.907,9.114-29.59
			C6807.141,1891.692,6849.676,1889.743,6890.154,1905.307z"/>
		<path style="fill:#E52E51;" d="M1701.398,358.1c-34.651,2.242-63.616,22.671-96.614,30.202c-4.063-1.087-9.095-0.854-9.517-6.939
			c17.785-16.368,41.453-20.836,62.646-30.005c16.783-7.26,21.653-16.927,17.394-34.108
			c-15.092-60.884-8.343-119.784,17.651-176.664c82.719-61.289,175.417-85.387,271.537-46.615
			c93.853,37.857,137.314,121.349,157.085,217.498c-4.234,3.174-9.094,3.7-13.842,2.136
			c-115.645-38.087-227.11-11.462-338.084,21.908c-13.037,3.92-26.015,8.175-38.748,13.001
			C1721.171,351.962,1712.697,359.416,1701.398,358.1z"/>
		<path style="fill:#6B5663;" d="M1523.635,4634.345c-7.035-1.639-15.018-5.333-10.839-13.068
			c13.795-25.536,7.913-54.75,16.901-80.987c11.553-3.621,17.434,5.854,24.98,11.082c31,21.478,50.314,21.693,82.684,2.002
			c21.761-13.237,37.24-33.55,57.115-48.714c11.833-9.028,22.033-22.619,39.966-20.112c4.377,1.495,8.175,3.947,11.752,6.819
			c20.063,19.149,45.378,25.159,71.636,29.485c31.629,5.21,63.396,9.923,92.354,25.399c29.838,15.945,49.632,40.22,61.01,71.499
			c5.469,15.036,5.712,29.189-13.918,34.863c-90.162,9.731-180.657,8.862-270.968,6.367c-42.428-1.172-85.337-3.9-127.295-12.325
			C1546.867,4644.217,1533.737,4643.237,1523.635,4634.345z"/>
		<path style="fill:#5A434C;" d="M7288.358,3703.199c7.693-25.036,17.368-49.688,22.325-75.254
			c2.901-14.968,7.888-19.301,22.203-19.26c118.033,0.34,236.069,0.14,354.104,0.102c6.9-0.002,13.807-0.036,18.061,6.889
			c-12.07,22.164-24.036,44.386-36.245,66.473c-8.907,16.115-22.668,22.209-41.133,22.094
			C7514.57,3703.542,7401.463,3703.476,7288.358,3703.199z"/>
		<path style="fill:#CFD0CD;" d="M2548.91,4311.55c8.604,1.532,16.483,0.202,23.162-5.865c12.562,6.822,19.037,13.511,15.403,31.413
			c-6.487,31.955-8.01,64.835-27.53,92.782c-66.588,10.952-133.744,7.683-200.74,7.624c-21.272-0.019-42.454-0.72-63.437,3.653
			c-42.105-34.721-31.15-81.837-29.119-126.628c0.468-10.318,5.983-18.534,18.561-17.823
			c76.869,18.625,154.975,11.141,232.729,10.817C2528.533,4307.479,2539.359,4304.148,2548.91,4311.55z"/>
		<path style="fill:#6B5761;" d="M2901.514,4686.348c-1.204,17.031-15.083,16.127-25.927,16.653
			c-118.678,5.753-237.36,9.254-356.205,3.64c-73.799-3.487-147.828-2.878-220.524-19.137c-14.128-3.16-27.092-5.736-25.971-24.333
			c-8.14-10.715-7.609-21.164,0.937-31.375c9.127-4.924,19.033-4.456,28.481-2.39c81.103,17.741,163.762,19.244,246.066,21.633
			c86.564,2.513,173.26,0.119,259.891,0.812c28.799,0.23,57.536-13.647,86.347-0.446
			C2896.911,4663.052,2899.212,4674.7,2901.514,4686.348z"/>
		<path style="fill:#CECFCD;" d="M1739.532,4494.601c-1.831-2.397-3.663-4.795-5.494-7.192c-2.374-3.101-4.665-6.288-5.653-10.122
			c-10.17-39.495-10.158-39.513-50.258-39.552c-26.297-0.026-52.646,1.025-78.875-0.315c-23.027-1.176-44.127,2.081-62.842,16.185
			c-2.588-13.925,3.224-32.921-22.28-32.001c-8.688,0.313-6.604-10.06-8.464-16.28c-14.152-47.317,1.74-94.276,1.36-141.41
			c2.944,16.934,0.111,41.29,10.153,49.104c15.953,12.414,41.057,4.902,62.229,5.022c50.65,0.289,101.328-1.628,151.951-0.58
			c19.124,0.396,28.623-6.257,31.746-24.144c33.268,38.105,17.166,80.675,4.252,118.485c-7.681,22.49-20.074,43.001-19.866,67.934
			C1747.542,4485.544,1744.858,4491.075,1739.532,4494.601z"/>
		<path style="fill:#F65943;" d="M1722.669,1037.839c15.467,84.021,30.04,168.22,46.709,252.001
			c11.375,57.172,25.924,113.707,38.468,170.655c2.63,11.937,12.471,27.41-8.521,33.337c-27.972,7.898-45.377,0.643-49.426-21.489
			c-16.286-89.011-30.9-178.357-61.087-264.165c-17.753-50.465-39.465-99.221-62.267-147.54
			C1658.577,1053.04,1690.623,1045.439,1722.669,1037.839z"/>
		<path style="fill:#FDCAA8;" d="M1892.909,1112.997c-50.896-54.894-97.937-112.885-140.3-174.633
			c0.008-6.114,0.015-12.229,0.021-18.343c6.306-2.103,11.699,0.542,16.035,4.359c43.909,38.649,99.101,39.916,152.722,46.417
			c27.275,3.307,43.278-11.34,54.147-34.152c5.928,0.252,8.612,4.277,10.714,9.062c3.998,14.159,3.778,27.792-4.926,40.378
			c3.215,31.874,6.958,63.706,9.475,95.635c1.982,25.145,3.263,50.272-5.57,74.946c-12.11,33.829,0.97,67.297,3.719,100.828
			c1.182,14.417,4.468,28.618,2.416,46.092c-9.061-17.3-6.207-35.875-16.873-49.628
			C1946.61,1207.368,1924.039,1157.707,1892.909,1112.997z"/>
		<path style="fill:#4B3D47;" d="M2297.581,4441.51c4.624-10.518,7.99-17.669,24.245-15.941c66.41,7.057,133.089,6.552,199.659-0.42
			c12.885-1.35,26.911-6.884,38.46,4.731c4.355,13.307,8.71,26.613,13.066,39.92c-44.282,23.846-76.427,64.866-123.325,85.466
			c-45.26,19.881-128.687-7.246-149.519-52.111c-4.564-9.83-2.667-22.659-3.746-34.106
			C2289.024,4459.542,2288.916,4450.342,2297.581,4441.51z"/>
		<path style="fill:#A19592;" d="M7710.748,3604.028c-0.317-77.04-1.402-154.09-0.461-231.115
			c0.268-21.993-6.319-30.184-28.22-27.629c-84.43,9.848-169.729-0.307-253.763,7.671c-61.174,5.807-122.731-4.255-183.198,9.082
			c-8.174,1.803-16.029-0.713-19.507-9.147c-3.168-7.684-1.371-15.03,3.872-21.88c5.707-7.459,18.067-9.268,18.16-21.408
			c128.508-14.279,257.564-11.227,386.492-12.268c85.081-0.672,81.755,19.166,81.29,88.133
			c-0.422,62.447-0.097,124.899-0.445,187.347C7714.908,3583.286,7717.768,3594.4,7710.748,3604.028z"/>
		<path style="fill:#5F4851;" d="M2917.908,3387.116c-61.937,57.91-109.94,124.97-135.717,206.626
			c-21.117-0.757-42.235-1.514-63.351-2.271c15.348-40.989,1.901-79.702-9.485-118.533c-8.373-28.554-17.034-57.024-25.566-85.531
			C2761.829,3387.311,2839.869,3387.213,2917.908,3387.116z"/>
		<path style="fill:#FCCAAD;" d="M2015.316,678.586c9.404-7.909,22.385-1.082,34.526-7.895
			c-24.094-15.562-49.72-12.653-74.171-15.233c2.011-13.531,11.179-9.717,19.346-8.327c-12.976-9.986-24.908-21.5-29.758-37.882
			c-4.175-14.101-7.75-31.119,7.866-38.997c15.908-8.025,18.859,11.524,30.107,21.539c-1.317-23.718-21.007-41.847-11.983-64.29
			c10.424-4.297,18.388,2.644,26.842,6.308c29.144,12.629,44.538,8.604,62.092-17.115c2.767-4.055,5.529-7.776,11.036-7.808
			c9.528,5.519,3.809,18.72,12.441,24.696c3.135,26.012-5.457,51.012-6.622,76.648c-24.417,36.438-33.072,77.984-39.893,120.356
			c-5.935,36.864-29.644,51.098-65.081,38.208c-11.114-4.043-17.14-1.906-25.965,4.193c-21.495,14.855-45.337,24.673-70.703,10.375
			c-18.947-10.68-32.306-55.193-26.641-80.725c42.765,8.856,85.343,0.749,128.021-1.074
			C2013.03,700.867,2021.065,695.896,2015.316,678.586z"/>
		<path style="fill:#453C4A;" d="M1723.101,344.535c56.991-25.514,117.715-38.206,178.341-50.696
			c55.87-11.51,112.163-8.189,168.275-0.204c18.447,2.625,34.974,10.723,51.862,17.831c10.792,17.598,31.648,21.123,46.374,33.201
			c5.923,4.858,13.537,9.877,10.27,18.758c-3.518,9.564-12.832,11.513-21.718,9.791c-16.038-3.109-31.843-7.42-47.745-11.229
			c-4.978,1.082-10.105,0.623-13.927-2.427c-35.042-27.965-72.769-24.244-113.199-13.514
			c-53.574,14.218-106.141,30.853-157.433,51.725C1781.061,409.496,1743.452,389.667,1723.101,344.535z"/>
		<path style="fill:#F89F73;" d="M1975.126,937.609c3.184,29.792-14.977,41.459-39.991,40.404
			c-65.771-2.773-132.119-5.934-182.507-57.991c-5.867-48.599-10.649-97.279-11.002-146.287
			c52.655,89.84,135.255,114,232.507,106.008c0.479,15.43,0.966,30.859,1.454,46.287
			C1978.278,930.003,1978.505,933.878,1975.126,937.609z"/>
		<path style="fill:#4A3C46;" d="M1536.411,4453.604c1.747-22.062,14.445-25.982,34.739-25.136
			c43.584,1.818,87.423,2.856,130.897,0.109c29.503-1.864,38.183,8.59,33.576,35.646c-1.294,7.598-1.098,15.45-1.585,23.185
			c-20.375,7.787-36.253,21.905-50.992,37.252c-13.547,14.105-28.045,26.916-44.671,37.178
			c-33.972,20.967-62.696,18.186-93.025-8.607c-5.071-4.48-10.429-8.636-15.654-12.942
			C1524.594,4510.827,1535.195,4482.579,1536.411,4453.604z"/>
		<path style="fill:#6B5760;" d="M1981.866,4674.567c1.121,14.451-2.096,22.534-19.891,24.429
			c-140.881,15.011-281.636,17.652-422.27-1.702c-15.833-2.179-37.549-1.405-34.372-28.429c3.85-10.907-4.227-29.506,18.298-28.371
			c43.174,3.387,85.726,12.377,129.206,13.714c9.203,0.283,18.888,3.248,28.561,3.225c94.947-0.224,189.972,2.691,284.693-6.922
			C1984.356,4650.002,1987.514,4659.399,1981.866,4674.567z"/>
		<path style="fill:#F48F64;" d="M1822.284,391.99c61.7-29.782,127.4-47.122,193.932-61.545
			c36.717-7.959,66.332,7.445,92.552,31.546c-2.573,23.823,12.594,47.8-0.6,71.541c-11.48,8.956-22.198,0.32-33.099-1.635
			c-21.639-3.882-42.741-13.967-65.254-4.832c-17.766,33.265-26.419,36.252-55.177,19.271c-6.321-18.803-20.357-22.33-38.555-22.114
			c-26.116,0.311-50.656,12.33-77.046,9.079C1820.427,424.828,1818.189,409.69,1822.284,391.99z"/>
		<path style="fill:#F5AD8D;" d="M1956.874,445.744c29.974,13.368,42.056-1.621,46.222-29.157
			c9.842,19.714,25.072,27.096,47.694,28.691c21.973,1.55,47.178-0.872,64.417,19.257c-16.063,20.973-10.551,45.554-11.547,69.047
			c-15.918-1.817-9.822-14.873-12.082-23.662c-16.212-1.695-32.425-3.086-48.72-4.068c-20.995-1.265-37.742,4.591-50.167,21.772
			c1.193,21.494,14.775,39.109,18.726,59.832c1.478,7.752,5.774,16.144-4.474,19.412c-8.841,2.819-9.95-7.033-13.277-12.275
			c-3.086-4.861-4.808-10.61-8.037-15.35c-1.961-2.879-5.819-6.621-8.512-6.386c-5.218,0.454-6.896,5.639-7.829,10.632
			c-5.271,28.214,14.903,43.93,31.865,62.31c-6.898,9.366-19.758,0.96-25.484,9.662c-19.742,0.005-39.488,0.011-59.233,0.018
			c-0.467-6.118,3.801-9.639,8.478-9.594c23.545,0.225,26.323-10.296,19.085-30.426c-11.244-31.269,3.156-60.88,9.32-90.851
			c2.869-13.949,5.94-26.46-11.747-33.621c-6.97-2.822-8.116-0.676-9.524,4.656c-2.537,1.608-5.204,2.73-8.085,3.499
			c-23.451,2.341-46.978,1.008-70.455,2.312c-32.605-19.812-35.139-29.343-13.923-52.179
			C1878.381,438.488,1917.62,441.857,1956.874,445.744z"/>
		<path style="fill:#427E51;" d="M1547.99,2209.066c24.04-10.833,49.624-4.917,74.483-6.86
			c15.477,0.396,13.302,12.501,11.968,21.031c-9.277,59.333-20.231,118.366-36.236,176.331c-2.411,8.733-7.448,15.681-15.739,19.912
			c-11.464,0.915-23.57-1.79-33.817,5.995c-36.346-36.918-28.3-82.42-22.21-126.244
			C1530.672,2268.766,1540.604,2239.093,1547.99,2209.066z"/>
		<path style="fill:#D11843;" d="M1692.958,140.587c6.233,9.56,1.396,19.406-1.824,27.485
			c-19.878,49.874-20.979,100.719-6.853,151.465c6.164,22.144,1.374,32.504-20.515,37.812
			c-23.537,5.708-43.242,22.821-68.499,24.011c-15.845-40.042-4.297-78.644,8.849-115.93
			C1621.622,215.78,1645.245,169.297,1692.958,140.587z"/>
		<path style="fill:#F47350;" d="M1565.648,1775.414c-40.014-10.392-81.641-11.202-121.728-22.605
			c-55.07-15.665-107.014-38.826-159.893-59.885c-8.469-3.372-11.665-9.483-12.667-17.68c3.098-13.292,10.643-24.255,18.401-35.109
			c51.411,20.272,98.605,49.778,151.788,66.606c39.77,12.584,79.386,25.193,120.272,33.407c8.91,1.79,17.003,3.812,22.54,11.55
			C1587.842,1767.27,1581.357,1774.98,1565.648,1775.414z"/>
		<path style="fill:#746462;" d="M6890.154,1905.307c-37.586-2.181-75.203-3.947-112.745-6.716
			c-19.282-1.422-24.843,3.295-14.859,22.019c17.709,33.211,34.062,67.146,50.982,100.778c-20.073,7.385-26.681-9.189-31.447-21.174
			c-12.951-32.572-30.352-62.527-48.27-92.342c-11.445-19.045-13.617-42.544-2.4-58.043c11.475-15.857,35.227-6.327,53.817-4.912
			c36.886,1.879,73.772,3.758,110.658,5.637c26.815-0.99,37.69,10.624,34.346,38.319
			C6926.376,1920.845,6903.091,1899.113,6890.154,1905.307z"/>
		<path style="fill:#F86D41;" d="M7640.888,2883.019c4.495,72.051-0.742,144.012-2,216.01c-24.22,7.974-40.809,1.325-51.972-21.072
			c-7.638-15.325-8.039-31.891-7.972-48.547c0.151-37.024-0.974-74.047-0.413-111.07c0.601-39.631,5.98-44.034,45.096-38.141
			C7629.396,2881.067,7634.974,2883.079,7640.888,2883.019z"/>
		<path style="fill:#B63831;" d="M7640.888,2883.019c-9.85,20.889-23.856,4.022-34.434,2.059
			c-14.983-2.781-19.842,0.424-19.711,14.942c0.457,50.714-0.579,101.476,1.303,152.132c1.233,33.174,15,44.031,50.842,46.882
			c0.047,11.32,0.095,22.646,0.143,33.972c-21.937,0.808-43.154-3.8-64.353-8.544c-1.752-2.928-3.41-5.909-4.99-8.933
			c-5.38-23.202-2.211-46.725-2.631-70.095c0.326-16.941,1.734-33.922-0.938-50.83c-1.082-2.908-1.83-5.891-2.427-8.924
			c-0.993-4.566-1.5-9.189-1.804-13.842c-0.488-13.932-0.634-27.87-0.437-41.801c-0.814-14.746,2.95-29.917-4.261-44.009
			c-6.309-11.702-18.16-12.237-29.141-15.207c-11.359-3.073-25.348-1.599-31.489-15.562c6.821-19.038,21.39-8.985,33.308-8.898
			c36.408,2.781,72.815,5.563,109.223,8.344C7639.689,2864.142,7640.288,2873.581,7640.888,2883.019z"/>
		<path style="fill:#756565;" d="M6995.473,2378.098c47.071-0.16,93.762,9.58,140.982,5.419c15.021,0.614,30.048,1.23,45.074,1.846
			c2.555,15.234,3.197,30.502,0.831,45.825c-53.889,7.257-108.031,2.356-162.027,2.507
			C7000.828,2433.75,6989.788,2405.661,6995.473,2378.098z"/>
		<path style="fill:#F8C8A8;" d="M1618.463,474.837c26.258,12.646,45.294,32.503,57.754,58.638
			c23.798,49.913,45.465,100.436,41.614,157.664c-28.007-20.789-61.179-34.713-83.617-62.903c2.532-3.469,6.114-4.654,10.172-4.258
			c33.254,3.243,32.702,3.386,25.203-30.419c-4.913-22.149-12.347-43.044-24.437-62.181c-4.75-7.519-10.537-15.076-20.877-12.936
			c-11.244,2.328-14.912,11.546-16.224,21.767c-1.517,11.819,0.194,23.208,4.552,34.37c3.878,9.933,8.504,20.227-1.36,29.672
			C1570.116,559.295,1572.357,519.114,1618.463,474.837z"/>
		<path style="fill:#EAE2E3;" d="M2894.609,4651.404c-121.623,11.21-243.512,8.49-365.316,5.699
			c-77.855-1.784-155.773-5.368-232.25-22.569c-7.612-1.712-15.384-2.948-22.946,0.574c-3.9-7.262,0.044-11.086,6.127-13.973
			c188.529,28.824,378.052,28.9,567.906,19.75c11.644-0.562,23.332-0.22,34.999-0.298
			C2886.955,4644.192,2890.782,4647.798,2894.609,4651.404z"/>
		<path style="fill:#F89167;" d="M1611.245,604.251c2.97-21.933-15.699-38.905-12.704-61.874
			c2.346-17.989,8.86-30.184,25.373-34.924c15.876-4.557,21.387,10.174,28.381,19.932c19.811,27.639,22.429,61.798,33.298,92.802
			c5.396,15.393-7.575,20.08-21.324,17.917c-10.474-1.647-18.402-11.465-30.05-9.873
			C1626.558,620.241,1618.901,612.246,1611.245,604.251z"/>
		<path style="fill:#CFD1D1;" d="M3645.677,4580.605c-52.222,16.521-401.381,17.401-448.155,1.742
			C3217.13,4573.399,3600.301,4570.861,3645.677,4580.605z"/>
		<path style="fill:#EAE2E3;" d="M1969.95,4652.406c-16.277,8.611-34.459,6.336-51.593,7.38
			c-127.607,7.783-255.105,9.427-381.604-13.958c-4.547-0.84-8.756-3.514-13.122-5.333c0.001-2.05,0.003-4.101,0.004-6.15
			c105.166,15.741,210.982,19.803,317.119,16.949c40.794-1.097,81.547-3.676,122.319-5.58
			C1965.605,4647.698,1969.329,4648.458,1969.95,4652.406z"/>
		<path style="fill:#513D42;" d="M2115.207,464.535c-26.641-4.295-53.248-11.716-79.934-12.015
			c-27.358-0.306-36.143-10.759-32.176-35.934c37.394-8.996,70.353,9.48,105.078,16.958
			C2116.356,442.541,2128.663,450.613,2115.207,464.535z"/>
		<path style="fill:#A47367;" d="M6796.109,1646.567c3.958-0.027,7.917-0.055,11.875-0.082
			c11.503,15.955,9.719,34.784,11.433,52.856c-6.213,20.053-20.272,25.792-40.357,25.004c-30.216-1.187-60.857-3.039-90.708,0.514
			c-50.798,6.048-64.277-25.481-51.158-66.147c18.327-22.872,43.691-9.734,65.877-12.867c-1.282,15.755-14.361,13.194-23.741,13.97
			c-18.194,1.505-24.306,11.504-20.567,27.535c4.577,19.62,16.908,14.341,28.946,7.093c5.341-3.215,11.594-5.347,16.125-0.366
			c21.412,23.536,49.862,9.26,74.688,14.054c14.159,2.734,19.981-7.697,21.459-21.475
			C6801.465,1672.83,6792.485,1660.357,6796.109,1646.567z"/>
		<path style="fill:#8A7274;" d="M6678.943,2432.399c-277.096-0.06-554.195-0.698-831.284,0.636
			c-30.633,0.147-36.433-8.616-36.211-37.204c1.38-178.526,1.334-357.07,0.249-535.599c-0.16-26.201,5.891-34.226,33.289-34.096
			c240.018,1.136,480.054,1.828,720.052-0.584c36.023-0.362,51.172,8.994,64.778,41.587
			c29.975,71.808,65.769,141.181,98.871,211.697c4.5,9.586,7.184,20.026,10.709,30.07c-15.588,11.824-23.522,38.48-51.416,26.559
			c-16.843-19.377-24.042-44.162-36.868-65.812c-6.667-13.751-10.485-28.734-18.28-42.011
			c-19.005-36.868-35.46-74.934-53.326-112.33c-6.309-13.205-13.547-26.131-31.42-25.742c-204.711,1.746-409.337,0.318-613.961,0.77
			c-54.036,0.119-54.06,0.057-54.066,54.536c-0.013,125.688-0.074,251.377,0.092,377.065c0.018,13.479-2.098,27.411,5.381,39.881
			c10.832,12.09,25.299,8.563,38.56,8.533c233.07-0.53,466.14-1.151,699.21-1.075c10.716,0.004,21.46-0.674,32.169,0.739
			C6689.879,2377.927,6696.801,2396.355,6678.943,2432.399z"/>
		<path style="fill:#A1988F;" d="M6678.943,2432.399c0.005-10.516-0.931-21.136,0.222-31.525
			c2.068-18.634-7.566-23.609-23.636-22.476c15.613-21.927,15.102-46.985,14.759-72.297c-0.489-36.098-0.573-72.215,0.09-108.313
			c0.436-23.689,4.261-46.576,20.722-65.311c10.538,7.365,15.666-1.449,21.782-7.288c7.671-7.323,14.162-16.56,26.507-16.281
			c15.613,0.12,31.291-0.65,46.81,0.581c20.469,1.625,23.516-4.455,14.404-22.631c-45.398-90.565-89.987-181.538-134.747-272.423
			c-5.586-11.342-11.892-22.62-15.304-34.654c-3.012-10.615-15.943-26.825,1.875-31.947c14.971-4.303,37.448-10.803,43.731,17.361
			c10.575,47.403,31.649,84.151,89.071,79.723c-6.761,0.351-13.526,1.044-20.285,0.996c-25.752-0.18-41.66,17.555-30.889,41.74
			c19.564,43.927,43.859,85.764,66.793,128.141c1.738,3.212,8.343,3.791,12.683,5.593c23.083,39.901,47.803,79.06,56.898,129.257
			c19.863-23.71,25.148-12.747,33.474,7.998c25.255,62.93,53.507,124.661,80.721,186.802c4.635,10.582,12.104,20.151,10.845,32.657
			c3.073,10.18,6.41,20.294,9.16,30.566c4.82,17.997,16.066,23.225,34.529,22.738c47.702-1.258,95.464-0.294,143.201-0.219
			c-26.826,11.94-55.019,3.289-82.511,5.273c-15.479,1.117-31.121-0.083-46.69-0.136c-34.913-0.119-34.943-0.083-24.404,32.369
			c1.793,5.519,4.03,10.892,5.965,16.367c2.365,6.693,8.949,13.305-3.29,18.497c-9.502,4.031-15.142,0.948-19.543-6.286
			c-6.04-9.928-11.565-20.211-16.695-30.644c-41.148-83.677-82.151-167.426-123.201-251.152c-1.631-3.326-2.506-7.499-10.952-6.69
			c0,69.164-0.402,138.686,0.259,208.198c0.186,19.474-3.837,36.444-17.362,50.706c-12.659-11.459-9.494-26.924-9.568-41.076
			c-0.431-81.753-0.092-163.51-0.34-245.264c-0.029-9.38,2.358-19.181-2.96-29.66c-8.421,87.391-10.666,173.51-7.507,259.714
			c0.895,24.4,18.594,48.306,1.705,73.176c-19.193,1.695-37.842,7.279-57.539,5.841
			C6727.122,2487.456,6694.548,2473.161,6678.943,2432.399z"/>
		<path style="fill:#D1CDB8;" d="M5809.337,3408.321c-0.565-89.978-13.461-180.083-8.754-270.647
			c1.135-21.845-1.79-34.79-28.875-33.496c-25.686,1.227-36.842-10.781-36.752-40.819c1.272-424.646,0.856-849.298,0.861-1273.948
			c0-37.347,0.04-37.35,38.433-37.345c264.579,0.033,529.157,0.044,793.736,0.163c16.093,0.007,32.887-2.441,49.038,10.913
			c-50.201-1.012-97.315,6.861-145.184,6.651c-228.45-1.002-456.911,0.155-685.36-0.939c-27.771-0.133-33.633,8.563-33.585,34.649
			c0.759,413.911,0.705,827.823,0.138,1241.734c-0.037,26.596,1.592,45.205,35.809,44.037c20.479-0.699,29.394,11.335,29.817,35.317
			C5820.327,3219.163,5807.753,3313.209,5809.337,3408.321z"/>
		<path style="fill:#806D62;" d="M6825.268,2484.58c-15.222-73.313-10.884-147.635-10.957-221.675
			c-0.036-36.876,7.748-73.417,5.77-110.534c-0.567-10.632,2.747-25.988,13.457-26.056c15.461-0.099,9.539,16.185,9.593,25.498
			c0.615,105.29,0.629,210.582,0.806,315.876c-0.126,13.136-0.254,26.27-0.383,39.405c8.612,10.483,8.768,23.11,8.829,35.666
			c0.151,30.808,0.428,61.618-0.18,92.425c-0.214,10.842-2.369,21.044-9.913,29.425c-3.569,0.186-7.138,0.372-10.708,0.558
			c-6.438-3.154-11.97-8.239-12.316-15.097c-2.411-47.763-10.623-95.834,5.813-142.841
			C6825.142,2499.679,6825.205,2492.13,6825.268,2484.58z"/>
		<path style="fill:#BFB5A5;" d="M5868.653,2677.393c-20.502,0-41.047,0.794-61.494-0.274c-14.052-0.734-28.946-5.09-29.42-22.235
			c-0.535-19.379,15.79-23.513,30.645-23.841c41.961-0.927,83.961-0.727,125.933-0.103c13.178,0.196,28.035,5.214,28.309,19.841
			c0.31,16.528-13.425,25.46-29.548,26.22c-21.431,1.01-42.945,0.249-64.424,0.249
			C5868.653,2677.298,5868.653,2677.345,5868.653,2677.393z"/>
		<path style="fill:#9A8C66;" d="M7569.055,2975.308c0.296,4.03,0.592,8.06,0.888,12.091c-19.963,15.378-43.312,6.164-65.003,9.009
			c-13.501,1.771-35.984-4.518-35.274,14.765c0.637,17.302,22.412,6.305,34.446,9.379c2.747,0.702,5.87-0.229,8.744,0.154
			c27.638,3.691,49.639-2.211,57.192-33.127c9.354,17.477,4.107,35.935,3.634,54.072c-21.541,13.329-45.58,7.868-68.12,6.704
			c-33.625-1.736-59.954,3.342-67.298,41.882c-0.704,3.696-4.033,6.546-6.828,9.297c-4.639,3.079-9.271,3.177-13.886-0.038
			c21.708-76.336,44.284-152.441,64.674-229.127c7.608-28.613,21.37-36.572,47.64-24.006c-9.338,5.973-27.83-8.058-29.956,13.697
			c2.424,3.218,2.469,6.961,2.968,10.798c1.68,12.921-18.298,30.677,7.442,38.19c23.511,6.862,38.822-0.801,50.038-23.025
			c0.851-1.687,2.431-2.872,4.14-3.858c8.697,15.415,4.101,31.917,3.931,48.058c-9.574,8.648-21.525,7-32.93,7.473
			c-11.534,0.479-23.111-0.476-34.62,0.953c-9.526,1.183-16.902,5.473-17.591,15.805c-0.871,13.071,9.808,12.293,18.066,13.009
			c12.464,1.081,25.02,0.192,37.529,0.544C7549.431,2968.301,7560.235,2967.769,7569.055,2975.308z"/>
		<path style="fill:#ADA497;" d="M6842.289,2664.609c0.421-52.505,0.842-105.01,1.263-157.515
			c31.715,2.833,46.885,22.519,54.333,51.504c8.741,34.015-0.419,63.243-23.551,87.73
			C6866.251,2654.886,6855.758,2663.455,6842.289,2664.609z"/>
		<path style="fill:#ACA094;" d="M6825.078,2507.229c0.064,41.529,0.113,83.057,0.202,124.586
			c0.025,11.499-1.721,23.356,6.302,33.354c-34.925-10.508-50.217-26.889-52.801-59.803
			C6775.549,2564.204,6784.592,2528.113,6825.078,2507.229z"/>
		<path style="fill:#C1B8A9;" d="M5863.079,2741.395c14.94-1.064,29.153,1.906,42.863,7.443c8.057,3.253,12.203,9.494,11.477,18.359
			c-0.753,9.193-6.665,13.89-15.098,15.221c-22.898,3.613-45.437,9.917-69.081,1.539c-11.354-4.023-25.336-5.745-24.71-19.649
			c0.576-12.794,14.245-17.858,25.555-20.66C5843.366,2741.349,5853.386,2742.033,5863.079,2741.395z"/>
		<path style="fill:#745D3F;" d="M7417.55,3099.495c4.267-0.553,8.534-1.106,12.8-1.659c17.725-11.746,36.538-3.588,53.71-0.331
			c29.991,5.689,62.852-2.235,89.951,17.723c0.223,3.078,0.446,6.156,0.669,9.234c-45.26-4.775-90.551-9.273-135.746-14.592
			C7431.219,3108.963,7420.633,3111.136,7417.55,3099.495z"/>
		<path style="fill:#5D464F;" d="M5601.052,3386.182c-0.171,68.895-0.343,137.791-0.514,206.686
			c-8.945,7.402-19.794,7.844-30.536,7.839c-213.693-0.097-427.389,1.357-641.07-0.661c-99.762,2.361-199.579-1.544-299.336,2.349
			c-157.406-3.78-314.837-0.925-472.257-1.452c-11.757-0.039-23.029,3.51-34.607,4.656c-54.636-8.438-109.301-8.759-163.98,0.073
			c-49.301-9.795-99.16-4.463-148.752-4.986c-49.677-0.524-99.441-2.328-149.059,2.425
			c-22.528-85.552-75.179-152.453-133.617-215.771c183.442,0.013,366.884,0.025,550.325,0.038c6.524,7.962,1.261,14.427-2.59,21.088
			c-22.649,37.439-12.941,57.164,29.857,64.539c51.73,8.913,102.947-2.354,154.414-2.806c31.064-0.273,39.976-29.64,19.977-54.658
			c-4.229-5.291-9.882-9.567-10.671-16.999c5.71-17.603,22.213-4.368,31.728-11.117c203.15-0.039,406.301-0.077,609.451-0.116
			c12.327,5.955,6.896,14.696,3.7,23.116c-20.411,37.163-8.424,60.021,33.803,61.457c47.233,1.608,94.094,11.583,141.892,1.957
			c47.18-9.501,55.408-26.827,27.036-65.785c-2.355-3.234-3.796-6.688-3.975-10.698c9.046-16.475,26.028-2.906,37.571-9.942
			C5300.246,3387.002,5450.649,3386.592,5601.052,3386.182z"/>
		<path style="fill:#C6B9AE;" d="M1975.126,937.609c0.149-3.86,0.297-7.72,0.453-11.579
			c1159.714,0.021,2319.421,0.04,3479.128,0.064c40.933,0.001,40.953,0.026,40.952,40.815
			c-0.008,724.256-0.018,1448.512-0.035,2172.768c-0.001,47.346-0.043,48.18-46.736,47.288
			c-612.786-11.705-1225.661-7.607-1838.431-3.719c-324.842,2.06-649.697,0.454-974.525,3.969
			c-10.307,0.111-21.848-3.367-29.86,7.092c-3.271-6.67-6.539-13.341-9.805-20.012c3.244-14.546,15.869-12.378,25.771-13.585
			c14.519-1.77,29.247-0.77,43.885-0.77c913.632-0.018,1827.265,0.002,2740.897-0.05c66.672-0.004,61.535,3.207,61.543-62.489
			c0.091-695.892,0.059-1391.784,0.052-2087.676c0-56.38-0.035-55.795-55.618-56.523c-1016.01-13.304-2032.065-2.176-3048.093-5.537
			c-85.803-0.284-171.455,7.759-257.403,6.169c-36.098-0.668-71.957-6.193-108.114-4.035c-7.086,0.423-13.396-2.069-18.537-7.143
			C1978.81,940.974,1976.968,939.291,1975.126,937.609z"/>
		<path style="fill:#8C6E5B;" d="M4910.687,3405.001c1.412-5.983,4.115-12.03-0.873-17.695c80.013,0.035,160.025,0.07,240.033,0.105
			c-9.877,10.229-27.106-1.789-35.851,11.852c-2.919,2.625-6.248,5.242-10.074,5.322
			C5039.514,3405.937,4975.11,3412.11,4910.687,3405.001z"/>
		<path style="fill:#8E685D;" d="M4071.862,3403.858c1.929-5.494,3.858-10.988,5.787-16.481
			c74.241,0.015,148.482,0.03,222.719,0.045c-7.907,9.195-23.161-0.37-29.927,11.726c-3.663,3.46-8.077,5.904-12.99,6.102
			c-58.42,2.359-116.9,2.107-175.341,3.674C4078.187,3409.029,4074.759,3406.612,4071.862,3403.858z"/>
		<path style="fill:#F6F2E6;" d="M1980.651,942.656c34.844-7.046,69.626,0.793,104.45,0.45
			c1068.823-10.517,2137.673-2.586,3206.51-4.336c55.435-0.091,110.893,6.153,166.459,4.192
			c15.062-0.532,21.591,5.212,20.532,20.463c-0.743,10.687-0.163,21.466-0.163,32.203c-0.009,710.64,0.005,1421.281-0.078,2131.921
			c-0.005,47.019,4.61,41.942-42.564,41.944c-932.321,0.039-1864.641-0.017-2796.961,0.258c-14.136,0.004-29.258-4.811-42.572,4.543
			c-2.323-3.475-4.649-6.951-6.974-10.427c-10.179-7.158-14.272-18.431-18.751-29.1c-36.976-88.068-77.239-174.677-115.894-262.003
			c-54.566-123.078-108.332-246.504-162.504-369.753c-4.253-9.675-10.986-18.836-7.118-30.437
			c-6.512-26.813-18.891-51.252-30.733-75.907c-1.883-3.498-3.401-7.463-2.076-11.132c13.975-38.676,20.917-78.454,19.933-119.631
			c-0.141-5.891,2.878-11.18,6.74-15.743c1.246-12.016,11.178-10.633,19.202-13.26c11.015-3.607,23.183-8.374,21.961-22.992
			c-1.752-20.963,9.696-22.522,26.516-23.028c28.491-0.857,57.521,5.753,85.479-4.727c37.464-17.144,77.411-14.566,113.301-1.953
			c94.216,33.112,185.265,30.934,280.054-0.206c48.806-16.033,103.238-15.472,154.547,2.149
			c21.587,37.575,21.162,78.012,12.079,118.217c-11.884,52.599-25.995,104.694-34.588,157.963
			c-9.357,12.713-17.83,2.85-24.237-2.522c-55.94-46.907-153.14-5.027-175.401,80.423c-3.592,13.786,3.162,15.158,13.679,13.155
			c22.865-4.354,46.088-5.976,69.089-9.27c10.56-1.513,21.139-4.083,30.736,3.293c1.672,2.794,1.715,5.608,0.162,8.465
			c-20.394,14.3-47.408,8.709-67.87,22.726c-36.077,20.675-47.384,55.994-51.91,93.362c-5.444,44.952-1.572,89.469,18.445,131.247
			c22.623,51.332,59.694,83.317,117.3,88.35c8.626,0.754,17.624,1.194,25.223,6.451c10.742,15.962,6.644,33.073,4.211,50.572
			c6.162-8.793,13.301-16.638,19.761-25.078c19.095-24.946,22.355-24.703,40.967,1.892c2.754,3.935,5.338,7.991,9.172,12.095
			c1.641-13.202-2.693-26.919,5.826-38.504c6.229-5.334,14.057-6.767,21.643-7.438c73.157-6.475,107.597-57.196,134.271-116.898
			c1.575-3.525,2.709-7.245,4.118-10.845c24.03-70.659,19.809-136.526-30.507-195.985c-16.708-19.744-33.733-31.475-59.598-18.458
			c-6.452,1.235-12.944,1.349-19.482,1.302c-19.407-1.414-38.556-4.959-58.026-5.769c-13.661-0.568-25.571-5.59-27.054-21.206
			c-4.271-44.974,2.21-88.94,14.377-132.177c1.616-5.745,6.27-9.709,11.248-12.957c15.752-4.462,29.776-15.495,47.495-12.748
			c49.99,59.578,122.001,62.859,189.935,67.531c112.062,7.707,224.25,2.141,333.922-26.554c11.437-2.992,26.046-0.746,32.45-14.972
			c-12.932-31.054-39.553-50.614-63.298-71.323c-55.636-48.524-118.253-86.571-192.184-99.191
			c-81.075-13.84-159.104-6.561-227.353,46.311c-20.281,15.711-40.933,32.625-49.512,56.359
			c-12.461,34.472-37.914,45.987-69.894,51.141c-9.28-6.408-6.236-14.917-4.274-23.451c4.096-17.823,8.55-35.534,13.67-53.103
			c7.937-27.232,12.555-54.358-0.74-81.756c-4.534-9.344-7.279-20.152-1.208-30.622c8.079-8.916,19.134-9.604,29.753-9.474
			c20.443,0.25,26.715-10.767,27.542-29.289c3.565-79.847,6.376-159.776,11.939-239.475
			c7.873-112.794,11.353-225.856,21.498-338.493c0.525-5.836,1.039-11.667,1.139-17.526c0.567-33.194-2.424-35.96-36.61-36.991
			c-16.313-0.492-33.455,3.006-48.045-8.008c-9.548-13.56-0.654-26.042,2.474-38.822c12.166-49.716,13.07-97.583-16.687-142.942
			c-12.84-19.572-27.421-29.147-50.556-23.603c-25.928-4.009-51.404-10.252-76.927-16.267
			c-21.603-5.091-31.021-18.293-27.252-40.549c3.004-17.74,4.817-35.68,10.71-57.222c-9.801,22.025-10.55,41.696-10.723,60.577
			c-0.211,23.136-12.076,27.401-31.61,32.607c-44.535,11.87-90.746,7.116-135.135,17.466c-25.28-5.368-50.741-14.983-75.129,2.997
			c-17.37,1.577-34.627,4.219-51.944,6.293c-35.891,4.3-43.651-0.961-56.132-34.819c-2.67-7.243-3.931-14.994-7.932-21.767
			c1.398,5.657,4.089,10.87,5.961,16.369c15.562,45.721,15.703,45.673-29.555,64.58c-9.504,3.97,3.252,4.474,1.13,7.349
			c-12.423,15.512-26.393,8.537-40.289,2.913c-26.842-23.969-48.811-52.48-72.838-79.096
			c-58.229-64.505-122.865-121.564-195.905-168.87c-31.73-19.839-70.961-21.858-102.135-42.974
			c-16.618-7.354-18.202-25.772-28.049-38.111c-8.497-10.647-11.896-26.954-29.97-26.938
			C1981.098,971.61,1980.875,957.133,1980.651,942.656z"/>
		<path style="fill:#F5C47D;" d="M2256.447,2155.796c-43.572-14.518-92.808-9.588-132.197-38.531
			c-4.259-3.13-13.311-1.661-12.031-9.857c1.263-8.086,9.354-8.03,15.821-10.204c20.901-7.027,42.363-5.544,63.725-5.301
			c12.824,0.146,25.056-1.395,37.291-5.587c10.617-3.638,18.312-10.597,16.765-20.878c-1.711-11.377-13.505-8.251-21.852-8.81
			c-61.975-4.148-123.968-5.501-185.991-0.91c7.103-45.857-3.29-91.026-6.288-136.381c-5.501-83.209-14.161-166.209-21.474-249.299
			c-3.827-43.482-6.651-87.079-11.736-130.412c-2.998-25.545,2.642-38.247,31.548-35.233c14.951,1.559,31.095,3.902,45.857-3.542
			c22.043-5.8,44.806-0.815,66.998-4.545c6.084,0.167,12.114,0.967,18.17,1.453c13.607,0.477,27.22-0.023,40.821,0.318
			c31.921,0.802,37.476,6.039,38.725,37.235c0.855,21.359-0.842,42.795,0.98,64.112c2.347,27.464,22.406,42.547,49.583,38.039
			c35.328-5.86,43.791-16.896,44.639-54.483c0.633-28.033-3.915-56.391,4.22-84.099c10.599-22.543,5.243-47.912,12.607-70.915
			c2.753-8.6,0.061-22.633,16.564-20.581c10.458,17.554,9.29,37.788,11.091,56.776c2.383,25.132,14.742,33.472,38.109,33.037
			c28.253-0.526,56.538-0.381,84.803,0.075c12.554,0.202,25.577-0.864,36.229,8.216c8.105,12.239,6.812,26.184,6.833,39.721
			c0.177,118.021,0.727,236.047-0.204,354.061c-0.406,51.445-3.911,102.911-5.006,154.294c-0.674,31.628-0.193,64.814-3.281,97.199
			c-2.311,24.236-11.682,30.31-32.705,28.796c-45.659-3.287-91.449-5.167-136.864-11.118c-25.915-3.396-52.449-2.54-77.514-12.572
			C2279.993,2151.592,2267.867,2150.874,2256.447,2155.796z"/>
		<path style="fill:#F65843;" d="M2142.112,1500.291c-22.014,8.389-44.109,6.921-66.235,0.549
			c-1.571-47.616-4.697-95.174-12.409-142.19c-5.189-31.632,6.811-60.272,10.653-90.31c6.2-48.474-3.423-96.737-17.822-143.688
			c-7.376-24.051-15.668-48.013-16.963-73.518c37.686,6.618,73.389,18.602,105.93,39.141c10.182,12.395,9.027,27.36,8.717,41.774
			c-2.023,94.033,5.413,188.234-5.181,282.127c-1.857,16.456,1.282,32.875,2.934,49.299
			C2153.055,1476.595,2156.513,1490.981,2142.112,1500.291z"/>
		<path style="fill:#417E4E;" d="M1565.648,1775.414c9.357-5.437,14.619-14.101,18.703-23.71
			c44.597-43.693,43.449-103.711,56.535-158.611c6.945-29.136,5.701-59.251,7.065-93.23c14.139,11.115,9.912,22.352,10.12,31.729
			c0.783,35.414,2.877,70.725,4.882,106.054c4.305,75.857,4.548,152.326-0.038,228.152c-2.444,40.407,0.539,81.668-9.44,121.677
			c-1.933,7.748-1.859,15.864-12.485,16.564c-18.867-6.005-39.189-8.496-54.706-22.61c-4.44-5.065-9.951-9.756-10.518-16.904
			c-4.341-54.777-17.69-108.576-17.8-163.822c0.907-3.419,2.504-6.482,4.761-9.2
			C1563.701,1786.139,1564.674,1780.777,1565.648,1775.414z"/>
		<path style="fill:#568A56;" d="M1892.909,1112.997c41.067,38.961,65.407,87.601,81.58,140.964
			c-28.532-21.745-62.761-35.149-88.579-61.03c-5.176-5.188-13.298-10.292-21.168-7.445c-11.065,4.002-6.902,14.88-6.977,22.979
			c-0.378,40.686-0.173,81.377-3.966,122.962c-40.009-82.429-67.252-168.67-81.911-259.001
			c17.302,37.608,27.155,77.68,39.072,117.086c4.762,15.746,11.266,30.958,16.503,46.573c2.38,7.098,5.064,13.465,13.946,10.472
			c7.235-2.438,10.62-8.389,9.074-16.171c-1.13-5.687-2.652-11.327-4.431-16.849c-12.648-39.274-0.058-67.819,35.972-87.23
			C1886.688,1123.794,1889.33,1117.526,1892.909,1112.997z"/>
		<path style="fill:#FDFDFE;" d="M4929.071,3592.107c223.822,0.254,447.645,0.507,671.468,0.761
			c0.038,31.876-0.386,63.764,0.417,95.621c0.218,8.654-5.583,19.558,5.941,25.92c59.479,0.282,118.961,0.284,178.435,1.052
			c14.215,0.183,19.248-5.996,18.995-19.155c-0.225-11.703,0.963-23.486,0.008-35.109c-1.602-19.509,1.835-29.756,26.125-29.673
			c25.401,0.087,22.258,14.181,22.343,29.855c0.295,54.665,0.968,59.58,55.257,53.522c100.878-11.255,201.625-6.413,302.468-6.716
			c7.107,21.9-1.33,44.915,4.795,66.885c7.359,182.515,149.966,349.414,338.605,395.808c21.669,5.33,43.796,8.801,65.711,13.134
			c-22.633,8.948-46.345,5.105-69.231,3.702c-128.675-7.891-257.458-4.104-386.16-4.164
			c-927.081-0.43-1854.163,0.116-2781.244,0.009c-37.572-0.004-75.137,12.754-112.714,0.28
			c134.254-20.447,244.767-82.065,323.032-194.024c82.209-117.601,105.632-247.217,67.62-386.705
			c0.769-13.657,11.062-10.735,19.248-10.752c85.512-0.178,171.025-0.014,256.534-0.576c10.724-0.071,18.787,1.715,23.761,11.655
			c52.98,14.442,106.039,12.807,159.147,0.77c5.389-8.754,12.258-12.4,23.466-12.372c155.495,0.392,310.992,0.125,466.488,0.049
			c6.714-0.004,13.789-0.965,18.728,5.364c15.719,20.918,7.773,45.123,8.781,67.862c1.663,37.527,3.19,40.17,39.852,40.402
			c38.935,0.246,77.882-0.452,116.803,0.241c21.873,0.389,33.152-7.404,31.245-30.558c-0.715-8.684-0.007-17.498,1.063-26.223
			c2.234-18.234,14.099-24.196,30.628-24.241c16.352-0.044,28.574,5.318,31.21,23.613c1.535,10.653,1.574,21.37,1.547,32.05
			c-0.053,21.506,12.909,26.266,30.843,24.543c20.149-1.937,15.26-16.235,13.257-28.483c-2.984-18.245-7.594-36.227-9.677-54.611
			C4922.707,3611.6,4918.5,3600.45,4929.071,3592.107z"/>
		<path style="fill:#674645;" d="M7124.972,3709.391c-5.365-104.621-44.332-194.82-112.422-274.394
			c-78.38-91.599-178.076-145.539-295.514-157.92c-125.157-13.194-240.831,20.731-339.113,102.989
			c-84.161,70.44-134.928,160.779-158.53,267.606c-3.996,18.085,1.864,37.4-8.465,54.189c-59.093,0.761-60.708,0.702-58.594-57.26
			c3.992-109.417,26.083-214.01,90.151-305.979c45.41-65.186,109.611-102.252,185.937-115.571
			c138.237-24.123,278.112-11.427,417.216-10.886c58.63,0.227,118.288,10.412,171.884,39.195
			c54.964,29.519,95.577,73.942,123.437,128.75c48.096,94.621,80.289,193.749,77.625,301.892
			c-0.489,19.829-5.296,28.261-26.34,26.914C7169.922,3707.488,7147.405,3709.104,7124.972,3709.391z"/>
		<path style="fill:#674645;" d="M6215.322,3775.071c-8.754-21.782-2.672-44.628-4.795-66.885c0.641-1.779,0.916-3.612,0.833-5.497
			C6221.438,3726.341,6214.723,3750.906,6215.322,3775.071z"/>
		<path style="fill:#FDFDFE;" d="M1969.95,4652.406c-2.292-2.23-4.585-4.461-6.877-6.691c12.619-7.366,5.316-16.524,2.146-25.167
			c-19.507-53.19-60.832-77.347-114.026-86.454c-28.52-4.883-57.749-7.118-84.761-18.663c-10.592-4.526-21.402-9.426-26.899-20.831
			c0.526-13.479,1.086-26.956,1.57-40.436c0.493-13.735-4.301-29.232,16.006-34.711c6.83-1.843,5.926-11.074,7.114-17.738
			c6.461-36.238,13.211-72.401-1.115-108.399c11.104-138.005,28.403-275.333,44.487-412.808
			c15.967-136.48,42.771-271.067,67.915-405.969c1.438-33.464-1.492-68.2,27.311-93.758c39.25-6.885,78.724-3.537,118.122-2.439
			c8.774,0.245,17.087,3.247,22.19,11.482c10.219,59.89,4.999,120.134,3.108,180.254c-0.521,16.573-13.443,22.327-28.426,23.682
			c-16.52,1.495-33.095,0.701-49.64,1.133c-16.892,0.441-23.425,8.847-25.109,25.34c-8.416,82.409-6.393,85.18,76.255,84.92
			c68.133-0.214,63.234,6.665,63.52-62.544c0.028-6.817-0.246-13.652,0.273-20.444c1.029-13.45-0.414-28.808,14.973-35.317
			c15.6-6.6,30.57-4.078,42.688,8.928c11.582,16.737,28.147,22.598,47.844,22.472c20.39-0.131,40.798-0.414,61.174,0.115
			c18.978,0.492,34.216-5.514,44.764-21.83c7.229-9.094,17.18-13.403,28.203-13.29c31.926,0.328,64.235-6.026,95.637,4.768
			c11.357,10.762,6.357,23.527,3.775,35.612c-45.213,211.595-87.276,423.765-119.197,637.857
			c-2.031,13.62,2.478,32.47-17.775,38.616c-10.688,0.613-11.557,8.17-11.56,16.341c-0.011,25.99,0.064,51.979-0.088,77.968
			c-0.048,8.199,1.116,16.044,9.826,18.893c14.659,4.795,12.956,17.081,14.205,28.213c-0.386,9.18-0.772,18.359-1.159,27.539
			c-11.275,50.069-8.943,101.588-16.198,152.085c-2.042,4.657-4.085,9.314-6.127,13.973c-0.403,9.354-0.807,18.708-1.21,28.063
			c-6.315,10.098-15.441,12.381-27.071,12.295c-87.98-0.652-175.966-0.677-263.949-0.898
			C1980.295,4665.889,1978.75,4657.197,1969.95,4652.406z"/>
		<path style="fill:#4D7B9A;" d="M1899.186,3386.467c-7.892,29.358-15.785,58.715-23.677,88.072
			c-43.58,0.231-80.954,22.673-121.364,34.218c-34.475,9.85-68.272,22.062-102.415,33.087c-19.68,6.355-26.059,0.544-22.898-20.931
			c12.981-88.196,7.646-177.16,5.122-265.551c-3.609-126.406-6.414-252.916-12.301-379.171
			c-3.403-72.976,0.895-146.073-6.488-218.719c-1.731-17.032,7.269-15.618,16.709-14.93c31.387,2.289,62.243-3.543,92.734-8.122
			c67.842-10.188,92.396-64.557,107.249-120.843c8.562-32.446,19.293-43.957,53.347-41.748
			c52.471,3.404,105.349,1.832,158.005,0.471c21.756-0.562,27.835,8.318,25.003,27.596c-11.83,80.527-2.778,161.527-5.359,242.266
			c-0.232,7.261-3.353,16.711,5.575,21.056c8.948,4.355,15.155-2.904,19.592-8.794c18.282-24.271,51.976-36.201,57.035-71.01
			c4.176-52.746,4.627-105.489-0.136-158.228c-0.027-1.934-0.066-3.868-0.078-5.802c-0.258-41.056-0.214-39.891,39.808-41.406
			c33.457-1.267,67.521,6.967,100.374-5.405c35.1,78.67,70.428,157.239,105.223,236.043c23.79,53.881,46.836,108.09,70.215,162.153
			c-12.468,10.672-27.299,14.693-43.287,14.684c-98.273-0.055-196.555,1.991-294.762-1.004c-26.8-4.884-53.442-10.925-80.49-14.925
			c-13.875-2.052-22.049,1.679-25.593,16.358c-4.561,18.891-13.177,36.73-15.103,56.393
			c-29.199,75.158-50.667,152.555-67.323,231.378c-16.38,50.343-16.671,102.84-20.681,154.793
			C1911.661,3348.668,1913.072,3369.339,1899.186,3386.467z"/>
		<path style="fill:#639F68;" d="M2278.888,2250.162c4.141,50.907-0.44,100.351-24.598,146.507
			c-223.629,16.863-447.612,23.261-671.826,22.813c24.019-65.398,30.579-134.788,46.153-202.115
			c1.383-5.98-0.711-11.475-6.143-15.16c59.592-7.551,119.192-15.041,178.77-22.704c10.587-1.362,21.308-2.597,31.579-5.342
			c50.617-13.526,93.563-0.767,136.277,29.502c82.123,58.196,176.986,58.041,272.228,49.269
			C2253.85,2251.779,2266.156,2248.527,2278.888,2250.162z"/>
		<path style="fill:#4C7A99;" d="M1611.763,2574.231c0.665-16.479,8.326-48.924,6.061-82.11
			c-1.042-15.267,9.215-19.576,22.822-19.532c58.372,0.191,116.749,0.542,175.113-0.126c15.497-0.178,15.348,6.631,11.849,17.698
			c-9.139,28.908-21.887,56.499-38.481,81.449c-20.398,30.672-50.395,46.951-88.472,47.57c-18.269,0.297-36.45,4.71-54.738,5.364
			C1611.649,2625.768,1611.628,2625.194,1611.763,2574.231z"/>
		<path style="fill:#4E7998;" d="M2080.313,2603.683c0.004-36.093,0.326-72.189-0.132-108.275
			c-0.229-17.969,11.692-17.944,23.713-16.861c11.18,1.007,29.073-6.384,28.511,14.475c-1.674,62.193,6.574,124.656-4.75,186.58
			c-0.866,4.736-0.839,10.732-3.72,13.809c-11.679,12.476-21.723,35.002-37.971,31.874c-12.979-2.499-4.717-25.784-5.312-39.677
			C2079.485,2658.345,2080.308,2630.996,2080.313,2603.683z"/>
		<path style="fill:#48708C;" d="M2144.919,2525.188c11.987,20.671,5.378,43.24,5.017,64.648
			c-0.526,31.165,6.788,62.971-4.884,93.58C2145.01,2630.674,2144.964,2577.931,2144.919,2525.188z"/>
		<path style="fill:#3F617B;" d="M1997.509,2942.289c-9.727-28.632,16.703-50.321,15.193-77.855
			c-0.341-6.222,11.608-6.467,17.845-5.017c28.151,6.543,57.642,6.457,84.908,17.219c8.241,5.182,15.855,10.63,20.726,19.758
			c45.77,85.767,97.148,168.405,142.202,254.572c3.914,7.486,10.49,14.483,7.032,24.226
			c58.96,100.456,117.105,201.406,177.38,301.068c18.023,29.801,28.282,63.982,52.066,90.418c6.102,6.782,5.018,13.822-1.09,20.835
			c-24.324,27.93-37.408,58.352-39.934,97.476c-2.656,41.136-22.022,80.911-28.402,122.161
			c-7.62,49.27-19.347,97.735-24.027,147.911c-2.963,31.76-16.242,64.906-21.257,98.124c-7.778,51.52-16.368,103.083-15.202,155.493
			c0.78,35.032,16.084,46.322,49.81,39.295c21.71-4.522,43.754-8.751,65.819-9.933c28.734-1.538,44.734,24.175,48.332,73.511
			c-72.238,11.705-144.729,10.084-216.957,1.442c-15.475-1.853-36.277,9.025-46.756-12.897
			c14.037-40.936,16.23-84.158,22.803-126.365c19.416-124.676,42.574-248.62,67.362-372.289
			c13.967-69.682,28.653-139.22,43.015-208.823c6.892-28.748-17.586-50.698-16.941-78.098c29.574-9.328,52.957,6.086,59.679,39.809
			c2.491,12.497,1.651,25.254,0.734,38.192c11.101-25.946,5.529-47.626-12.138-69.172c-23.013-28.065-34.401-63.249-50.936-95.133
			c-27.979-53.952-61.705-103.672-95.39-153.927c-20.842-31.094-38.799-64.82-55.343-98.787
			c-8.358-17.161-17.181-32.899-36.207-39.921c-14.832-5.475-22.57-16.15-19.488-31.74c7.83-39.599-18.605-55.168-50.896-73.817
			c3.034,35.214,21.704,58.263,37.619,81.643c11.71,17.203,21.496,34.161,26.671,54.565c7.233,28.521,30.134,47.347,47.848,69.128
			c12.074,14.846,22.183,29.826,20.903,49.827c-0.702,10.965-1.732,22.11-16.547,23.237c-16.104-3.446-22.35-17.677-30.727-29.063
			c-25.806-35.076-49.859-71.408-75.489-106.618c-46.765-68.417-98.586-133.221-144.619-202.154
			C2001.509,2962.199,1990.982,2954.991,1997.509,2942.289z"/>
		<path style="fill:#48708C;" d="M2285.415,3175.192c-41.21-72.582-82.39-145.182-123.646-217.739
			c-15.347-26.99-30.871-53.88-46.314-80.816c114.983-3.116,230.19,6.978,345.007-5.866
			c45.943,96.381,89.913,193.629,128.83,293.097c-13.782,14.054-30.184,17.544-49.961,17.99
			C2454.54,3183.768,2370.049,3177.239,2285.415,3175.192z"/>
		<path style="fill:#684C4D;" d="M3214.533,4106.842c-197.279,2.659-374.544-168.244-372.64-380.324
			c1.729-192.528,164.028-377.048,393.76-370.904c189.503,5.068,371.923,173.641,362.197,386.741
			C3588.588,3945.296,3425.488,4107.623,3214.533,4106.842z"/>
		<path style="fill:#684B4C;" d="M6665.246,4106.871c-198.378,6.795-382.88-170.285-373.896-388.607
			c7.826-190.158,171.278-370.825,397.759-362.01c187.344,7.292,358.579,170.145,358.794,380.716
			C7048.112,3942.259,6869.185,4114.866,6665.246,4106.871z"/>
		<path style="fill:#EA6F4A;" d="M6796.109,1646.567c7.833,10.168,12.336,20.883,12.238,34.507
			c-0.24,33.017-4.242,39.143-36.234,35.145c-17.476-2.184-36.613,5.143-50.717-1.215c-17.846-8.045-30.908-11.932-51.005-5.505
			c-20.135,6.439-20.853-13.489-20.831-28.615c0.022-14.691-2.485-30.085,20.739-29.266c10.899,0.385,23.505,5.226,32.764-5.767
			C6734.083,1646.086,6765.096,1646.327,6796.109,1646.567z"/>
		<path style="fill:#FCFCFA;" d="M1563.081,1798.283c7.734,61.036,15.467,122.073,23.202,183.127
			c-39.458-2.778-74.877-24.198-114.794-24.881c-12.085-5.563-11.472-14.628-5.8-24.05c25.984-43.163,53.245-85.525,81.077-127.517
			C1550.484,1799.352,1554.646,1793.152,1563.081,1798.283z"/>
		<path style="fill:#FABE9A;" d="M1563.081,1798.283c-28.811,28.766-43.385,67.237-67.55,99.211
			c-8.665,11.464-14.595,25.007-23.356,36.383c-6.365,8.265-7.974,14.847-0.689,22.654c-17.884-4.861-36.112-5.976-54.573-5.6
			c-14.16,0.289-18.682-4.849-7.951-16.763c35.646-39.573,70.501-79.908,107.417-118.26c11.876-12.338,27.678-22.407,46.351-24.392
			C1562.845,1793.762,1562.963,1796.023,1563.081,1798.283z"/>
		<path style="fill:#D69258;" d="M2256.447,2155.796c36.515-14.123,72.37,1.906,108.453,3.347
			c48.231,1.927,96.258,9.26,144.335,14.611c20.086,2.236,18.478-7.086,19.23-23.945c9.572-214.57,9.483-429.226,8.361-643.91
			c9.184-9.405,21.273-9.061,32.872-9.075c46.842-0.057,93.693-1.248,140.505,0.536c19.234,0.223,38.72-2.784,57.484,3.896
			c20.501,20.382,11.917,45.753,9.5,68.821c-2.547,24.306-3.356,48.379-3.523,77.546c22.24-17.337,34.818-10.092,40.809,12.665
			c1.785,6.78,4.563,14.261,13.683,10.864c13.33-4.965,21.775,1.993,30.229,16.097c12.133-54.054,9.497-103.94,16.375-152.765
			c1.599-11.345-0.794-23.742,9.989-32.249c37.551-8.148,75.216-6.926,112.943-1.856c22.715,13.217,47.458,5.067,71.168,5.879
			c17.718,0.607,26.831,3.29,25.418,24.137c-7.899,116.579-15.238,233.201-21.863,349.859
			c-5.136,90.438-10.294,180.919-12.531,271.453c-0.675,27.32-8.614,36.268-34.86,33.162c-10.963-1.298-23.613-4.029-33.202,5.924
			c-4.122,1.446-8.178,1.14-12.186-0.458c-54.38-6.946-108.59-14.551-162.382,4.917c-77.984,28.224-158.657,34.979-236.796,7.736
			c-49.675-17.319-98.075-19.111-148.411-16.837c-18.518-0.281-37.036-0.552-55.553-0.851c-26.63-0.43-53.411,4.722-75.459-19.776
			C2291.653,2155.102,2272.391,2154.761,2256.447,2155.796z"/>
		<path style="fill:#FDCAAA;" d="M1933.593,491.75c2.491-20.771,14.016-2.229,20.809-3.641c9.254-1.924,14.727,6.072,11.311,17.494
			c-4.673,15.624-8.135,31.613-12.019,47.469c-5.729,23.384-11.24,47.2-0.685,70.282c10.627,23.24,3.638,30.968-20.441,27.628
			c-5.717-0.793-11.647-0.165-16.135,4.499c-17.461,0.859-34.511,3.23-51.374,8.65c-14.812,4.761-25.979,20.996-45.431,12.26
			c-27.39-12.301-50.943-28.508-65.108-55.526c-24.634-46.984-35.817-98.225-42.682-150.086
			c-4.941-37.32-13.349-74.546-10.444-112.675c6.165-6.247,12.193-12.7,21.712-13.564c8.246,8.059,16.47,16.146,24.748,24.177
			c20.886,20.264,43.258,35.831,74.426,23.279c4.016,12.107,8.026,24.218,12.035,36.329c-4.833,14.022-20.764,12.228-31.165,22.232
			c12.517,5.082,26.943-4.901,36.863,6.038c-23.155,21.3,7.232,27.173,11.678,40.52c-0.753,4.242-9.226,5.61-4.425,11.962
			c-5.568,26.479,7.497,35.438,45.286,31.033c5.321-3.385,10.371-7.113,14.988-11.408
			C1917.133,517.011,1927.69,506.029,1933.593,491.75z"/>
		<path style="fill:#EFE2DB;" d="M2015.316,678.586c10.78,2.769,17.533,10.057,15.408,20.758
			c-2.126,10.706-12.751,9.583-21.382,10.046c-33.522,1.798-67.029,3.893-100.561,5.446c-14.607,0.676-28.691-1.554-40.023-12.199
			c10.191-19.803,29.294-20.294,47.62-21.114C1949.334,680.049,1982.333,679.514,2015.316,678.586z"/>
		<path style="fill:#FDFCFD;" d="M1970.008,269.774c-53.817-0.999-102.354-41.578-110.831-94.067
			c-7.926-49.075,29.839-94.61,84.611-77.195c49.388,15.704,90.146,59.395,91.515,105.03
			C2036.62,247.394,2013.755,270.586,1970.008,269.774z"/>
		<path style="fill:#F57391;" d="M2062.803,202.002c17.074,17.212,31.379,44.223,37.199,70.242
			C2077.299,251.22,2066.004,229.892,2062.803,202.002z"/>
		<path style="fill:#F5F1EC;" d="M1992.691,527.623c-1.016-21.185,10.454-29.939,30.139-28.595
			c23.189,1.583,48.276-7.944,68.751,10.892C2075.52,559.599,2033.262,558.048,1992.691,527.623z"/>
		<path style="fill:#443842;" d="M1840.01,456.593c-11.535-0.298-22.692,1.191-33.496,5.675c-6.446,2.675-13.608,3.486-17.171-4.377
			c-4.501-9.933,3.172-13.782,10.301-16.701c11.4-4.669,23.096-8.615,34.667-12.867c31.644-1.962,61.829-12.736,94.033-13.318
			c24.749-0.447,33.776,6.709,28.531,30.737c-27.301,8.97-55.624,1.967-83.269,5.361
			C1862.347,452.485,1850.248,448.938,1840.01,456.593z"/>
		<path style="fill:#F5F1F0;" d="M1933.593,491.75c7.717,22.144-14.394,28.226-22.53,41.833c-8.48-3.318-15.211-12.966-27.22-6.818
			c-2.001,11.288,11.516,10.513,14.614,17.595c-17.501,16.425-35.096,2.711-50.48-2.584c-21.296-7.331-20.946-20.983-2.114-36.186
			c15.46-11.949,33.645-9.517,51.399-10.153c10.154-0.364,20.816,3.176,30.45-2.919
			C1929.672,492.262,1931.632,492.006,1933.593,491.75z"/>
		<path style="fill:#7F655E;" d="M1927.711,492.518c-25.982,12.483-55.746,1.285-81.844,13.071
			c-7.222-9.112,3.228-6.091,5.818-8.473C1876.689,489.96,1902.237,491.85,1927.711,492.518z"/>
		<path style="fill:#D3CDB9;" d="M7574.011,3115.228c-47.888-5.796-95.777-11.593-143.663-17.391
			c13.201-55.999,13.2-56.097,67.949-56.441c25.129-0.158,50.262,0.158,75.389,0.256
			C7575.029,3066.17,7577.792,3090.684,7574.011,3115.228z"/>
		<path style="fill:#DCD1B3;" d="M7569.056,2975.308c-25.157,0.157-50.327,0.824-75.465,0.2c-9.044-0.224-25.79,5.628-22.491-12.148
			c2.506-13.5-1.73-35.734,24.785-34.399c24.141,1.216,48.36,0.901,72.542,1.26
			C7568.635,2945.249,7568.846,2960.279,7569.056,2975.308z"/>
		<path style="fill:#DCD3BD;" d="M7564.495,2882.162c-4.424,11.068,7.5,29.975-7.672,33.348
			c-20.239,4.498-42.326,2.192-63.438,0.517c-8.435-0.669-6.654-10.913-5.118-17.124c3.242-13.104,7.68-25.912,11.634-38.844
			c16.151,1.908,32.296,3.813,48.44,5.729C7558.079,2866.945,7564.552,2871.336,7564.495,2882.162z"/>
		<path style="fill:#A6CBD2;" d="M5870.585,2373.175c-0.223-155.881-0.171-311.764-1.017-467.642
			c-0.104-19.338,6.343-24.733,25.246-24.674c222.16,0.688,444.322,0.625,666.483,0.76c3.105,10.339-3.769,16.86-9.892,22.737
			c-28.189,27.052-51.282,58.682-79.245,86.033c-119.213,116.605-230.489,240.919-347.619,359.576
			c-18.609,18.852-37.686,27.569-64.351,26.257C5997.063,2373.112,5933.725,2379.181,5870.585,2373.175z"/>
		<path style="fill:#8AB4BA;" d="M5870.585,2373.175c65.305-0.084,130.616-0.665,195.912,0.084
			c17.021,0.195,29.235-5.017,40.993-17.208c75.017-77.774,152.633-153.149,225.38-232.97
			c49.923-54.778,103.964-105.253,154.548-159.196c25.208-26.882,49.293-54.816,73.882-82.271
			c15.397,4.13,18.94,18.278,24.451,30.132c17.82,38.338,34.932,77.006,52.316,115.546c-1.097,8.393-6.801,13.978-12.461,19.27
			c-57.086,53.379-107.421,113.244-162.308,168.755c-40.453,40.911-77.456,85.158-119.033,125.06
			c-6.908,6.63-13.5,14.005-17.471,23.938c22.089,4.783,40.033-0.627,55.017-17.473c80.395-90.387,168.994-173.063,248.646-264.165
			c6.637-7.592,11.975-18.808,25.66-14.529c11.658,21.444,23.316,42.888,34.978,64.329
			c-20.991,71.269-10.374,144.363-11.258,216.664c-0.247,20.181-11.879,23.2-24.311,29.26
			c-252.509,0.12-505.019,0.283-757.528,0.208C5888.735,2378.607,5878.263,2382.197,5870.585,2373.175z"/>
		<path style="fill:#A4C8CF;" d="M6656.12,2068.149c-33.113,34.05-68.266,66.39-98.685,102.695
			c-23.875,28.494-50.936,53.479-76.107,80.463c-29.82,31.967-59.482,64.095-89.89,95.498
			c-29.643,30.614-31.051,30.56-77.675,22.719c9.984-15.925,21.027-30.093,33.867-43.263
			c54.31-55.708,109.741-110.447,161.646-168.333c40.954-45.673,83.332-89.58,128.793-130.635
			C6648.553,2038.938,6652.41,2053.511,6656.12,2068.149z"/>
		<path style="fill:#D9D0B5;" d="M7570.048,2987.578c-1.093,41.856-1.093,41.854-41.984,41.853
			c-16.46-0.001-32.977,0.833-49.356-0.32c-8.885-0.626-25.254,6.946-24.123-10.107c0.908-13.694,2.113-32.36,25.32-31.784
			c29.995,0.744,60.023,0.181,90.038,0.18C7569.944,2987.398,7570.048,2987.578,7570.048,2987.578z"/>
		<path style="fill:#765551;" d="M4929.071,3592.107c0.935,35.267,10.842,69.12,17.701,103.326
			c3.836,19.135-2.53,22.492-18.38,21.138c-1.935-0.165-3.899,0.042-5.85,0.034c-51.354-0.217-40.61,3.386-42.466-41.769
			c-0.32-7.793-1.131-15.713-0.169-23.381c2.375-18.933-8.704-19.876-23.036-19.72c-13.795,0.151-23.485-0.109-23.915,19.183
			c-0.477,21.422,12.146,50.283-6.887,62.563c-15.229,9.827-41.589,2.573-63.009,2.603c-35.113,0.049-70.251-0.986-105.329,0.085
			c-20.989,0.641-30.568-6.315-29.773-28.32c1.091-30.166,0.327-60.398,0.357-90.602c7.877-3.973,16.034-6.044,25.052-6.002
			C4745.268,3591.675,4837.169,3591.856,4929.071,3592.107z"/>
		<path style="fill:#F8B14D;" d="M4910.687,3405.001c35.569-8.605,71.881-6.36,107.938-6.889c31.78-0.467,63.583,0.697,95.374,1.146
			c19.211,10.517,33.869,24.334,27.18,48.523c-6.525,23.597-23.487,31.571-47.916,34.201c-51.676,5.565-102.822-0.875-154.181-1.851
			c-21.736-0.412-35.931-12.793-44.466-32.237C4886.043,3428.364,4899.667,3417.177,4910.687,3405.001z"/>
		<path style="fill:#F87C4A;" d="M4071.862,3403.858c66.038-8.218,132.32-6.103,198.582-4.716
			c20.677,10.463,36.385,25.082,28.668,50.267c-7.563,24.681-26.89,33.734-52.33,31.461c-49.296-4.405-98.541,8.1-148.048,0.006
			c-19.669-3.216-36.559-8.332-42.916-28.773C4049.836,3432.869,4053.152,3415.489,4071.862,3403.858z"/>
		<path style="fill:#503524;" d="M4119.633,3604.207c-3.846,17.865-18.105,18.288-31.888,18.361
			c-33.129,0.176-66.262-0.137-99.392-0.39c-13.305-0.102-25.747-1.84-27.867-18.74c1.482-7.387,5.174-12.041,13.487-12.021
			c44.209,0.109,88.418,0.073,132.626,0.118C4114.977,3591.545,4118.133,3597.057,4119.633,3604.207z"/>
		<path style="fill:#F7423C;" d="M2765.104,2807.306c-31.997-65.196-32.83-131.051-2.647-196.841
			c7.718-16.822,18.995-31.993,38.069-38.495c18.034-6.877,35.815-5.286,54.029,0.151c30.012,8.959,61.436,9.817,92.206,14.448
			c10.666,1.605,22.902,2.205,30.88-5.277c24.702-23.167,56.912-28.099,86.94-38.471c17.332-14.989,30.869-11.375,47.275,4.411
			c62.412,60.054,79.795,137.853,46.427,218.375c-15.002-4.188-26.467,1.444-40.469,8.226
			c-35.993,17.435-69.634,44.242-113.669,38.763c-1.932-0.24-4.281-0.847-5.774,0.024c-43.872,25.604-85.156-2.566-127.537-6.412
			c-10.078-0.915-19.576-2.749-27.466,4.573c-13.188,12.236-24.734,13.574-36.49-2.134
			C2793.932,2791.347,2779.259,2801.359,2765.104,2807.306z"/>
		<path style="fill:#619661;" d="M2142.112,1500.291c0.544-114.365,1.025-228.729,1.685-343.093
			c0.129-22.311,0.955-44.618,1.465-66.925c45.866,22.512,82.605,57.078,119.474,91.265c51.88,48.105,101.984,97.95,143.674,155.513
			c-13.811,22.822-30.512,43.87-41.853,68.207c-7.257,23.096-10.336,46.793-10.947,70.954c-0.25,9.906,3.662,22.367-11.627,25.764
			c-33.498,13.524-68.486,9.14-102.271,4.662c-28.868-3.827-57.031-4.284-85.632-1.365
			C2151.425,1503.612,2146.768,1501.951,2142.112,1500.291z"/>
		<path style="fill:#FBC53B;" d="M2366.557,1405.258c0.608-30.923,16.751-52.318,41.851-68.214
			c13.12-0.018,26.334,9.959,39.353-0.373c5.812-7.15,13.751-6.439,21.259-4.853c34.431,7.274,64.867-0.756,91.755-23.068
			c8.4-6.97,18.957-9.029,28.673-13.013c22.517-22.867,46.479-14.51,70.575-3.265c7.049,3.475,14.214,6.763,19.972,12.365
			c46.843,49.915,51.745,110.829,45.584,174.565c-0.957,9.903-4.658,18.838-11.985,25.948c-58.92,0.184-117.839,0.367-176.763,0.55
			c-43.586-0.065-87.173-0.52-130.749-0.029c-22.105,0.249-34.13-6.246-33.525-31.587
			C2373.105,1451.336,2368.75,1428.271,2366.557,1405.258z"/>
		<path style="fill:#83AD63;" d="M3027.994,2368.05c-13.074,4.058-26.148,8.115-39.222,12.173c-2.541-2.575-2.685-5.277-0.43-8.106
			c28.812-6.323,44.742-22.997,59.888-50.218c39.148-70.354,105.567-105.951,184.391-112.594
			c157.124-13.241,271.878,63.197,365.796,180.172c-0.456,15.632-12.446,11.916-21.224,11.898
			c-10.8-0.023-20.701-5.011-30.955-7.999c-161.179-46.965-323.873-65.121-489.594-25.696
			C3047.144,2369.94,3037.596,2372.056,3027.994,2368.05z"/>
		<path style="fill:#F22A3F;" d="M2713.594,1505.35c6.509-28.407,6.244-57.238,5.749-86.136
			c-0.751-43.853-20.044-79.909-46.583-113.056c6.164-19.758,21.685-11.867,33.454-9.869c19.066,3.237,37.008,11.416,55.945,15.798
			c38.451,8.897,76.666,10.458,114.756-1.987c19.197-6.272,38.705-11.464,58.638-14.914c20.677-11.337,34.298-5.403,48.554,13.62
			c46.127,61.549,44.934,125.171,13.592,191.565c-37.712,13.242-76.661,1.935-114.84,5.824
			c-37.072,14.607-74.226,13.823-111.448,0.598C2752.139,1506.312,2732.866,1505.831,2713.594,1505.35z"/>
		<path style="fill:#9DBF65;" d="M3027.994,2368.05c53.167-20.731,109.52-26.453,165.381-29.374
			c127.375-6.66,251.767,12.879,373.128,51.986c10.538,3.396,21.756,11.587,31.911-1.184c11.632,18.223-5.571,15.978-13.827,18.362
			c-60.792,17.552-123.032,29.093-185.908,33.329c-97.098,6.542-194.528,8.141-289.849-17.02
			C3075.719,2415.41,3043.49,2403.202,3027.994,2368.05z"/>
		<path style="fill:#F02C3E;" d="M2765.104,2807.306c16.605-24.198,37.522-25.396,49.673-0.814
			c7.529,15.232,13.533,12.634,19.721,2.058c10.703-18.293,24.82-16.106,40.134-8.961c28.24,13.177,63.013,0.139,88.927,22.387
			c0.579,0.498,2.142,0.532,2.841,0.111c43.331-26.122,97.792-18.711,140.397-46.627c5.411-3.545,8.304-10.891,13.679-14.539
			c13.511-9.17,27.632-16.115,37.805,4.686c-23.953,84.666-78.719,129.346-164.704,134.372c-27.278,8.862-54.581,12.49-81.955,0.374
			C2842.336,2901.53,2791.167,2874.182,2765.104,2807.306z"/>
		<path style="fill:#85B063;" d="M2871.233,2548.389c-41.158,5.132-82.316,10.265-126.711,15.801
			c9.735-52.997,32.03-95.445,81.836-118.939c46.174-21.781,88.623-15.711,125.994,20.044c10.038,9.395,6.237,19.981,2.695,30.557
			c-14.104,26.113-37.726,41.006-63.354,53.557C2884.674,2553.218,2877.74,2554.794,2871.233,2548.389z"/>
		<path style="fill:#E76263;" d="M2935.552,1295.186c-66.859,38.305-136.317,40.794-208.181,16.024
			c-17.479-6.025-35.09-18.135-54.617-5.048c-7.074-1.912-10.883-6.872-12.736-13.671c11.162-2.988,22.767-9.59,33.397-8.281
			c39.391,4.849,76-12.143,114.481-12.126c12.837,0.006,16.963-5.417,16.632-17.589c-0.609-22.416,1.055-44.749,5.959-66.711
			c1.939-8.684,5.284-20.424,14.604-18.981c14.514,2.247,4.401,13.612,3.371,20.992c-1.88,13.465-4.816,26.779-6.901,40.219
			c-6.713,43.275-6.616,43.169,37.229,52.341C2897.775,1286.325,2916.635,1290.891,2935.552,1295.186z"/>
		<path style="fill:#BE9B59;" d="M2871.233,2548.389c5.725-0.83,11.45-1.66,17.175-2.49c6.263-10.104,17.744-5.166,26.279-9.074
			c18.153-8.31,34.811-17.284,32.622-41.402c5.869-9.339,6.589-19.541,5.047-30.126c6.825-48.103,14.481-96.098,28.572-142.674
			c13.444-44.439,8.415-88.283-1.299-132.284c4.208-3.411,8.25-2.599,12.2,0.455c31.65,46.844,15.434,94.074,1.569,141.51
			c-3.747,12.819-13.223,25.329-5.057,39.812c0.145,2.7,0.288,5.402,0.432,8.104c-19.667,14.653-17.357,37.685-20.964,57.906
			c-5.258,29.481-14.17,64.848-0.622,87.88c13.446,22.86,52.698,8.238,79.233,17.306c-52.581,39.438-113.919,54.406-175.356,10.94
			C2871.119,2552.3,2871.176,2550.345,2871.233,2548.389z"/>
		<path style="fill:#D89949;" d="M2589.448,1295.738c-39.49,40.399-86.133,56.045-141.676,40.932
			c-1.276-9.418-1.276-9.418,4.805-12.336c35.211-16.896,34.247-16.546,21.341-52.145c-5.147-14.197-18.302-28.072-8.035-48.902
			c15.099,15.544,17.32,34.292,21.065,50.835c5.587,24.681,18.796,30.591,41.773,26.976
			C2548.747,1297.947,2568.738,1291.984,2589.448,1295.738z"/>
		<path style="fill:#E7806C;" d="M2871.063,2554.255c22.11,5.893,43.947,13.311,66.391,17.344
			c40.223,7.227,74.989-9.759,108.969-28.286c6.049-0.163,12.102-0.327,18.156-0.492c-16.108,15.295-40.687,15.357-56.639,28.922
			c-51.682,43.945-105.646,14.716-158.624,6.843c-16.232-2.412-32.136-7.026-48.788-6.616
			C2822.091,2558.315,2846.7,2556.776,2871.063,2554.255z"/>
		<path style="fill:#948A47;" d="M2911.623,2900.353c27.319-0.125,54.639-0.25,81.957-0.374c-0.002,16.414-0.002,32.827-0.002,51.13
			c-18.979-7.213-23.299-26.897-36.875-41.836c-15.742,17.6-26.695,39.653-49.823,53.471
			C2913.324,2940.575,2913.952,2920.536,2911.623,2900.353z"/>
		<path style="fill:#E0B260;" d="M2156.081,1505.273c40.073-10.105,80.777-2.089,121.15-4.025
			c22.191-1.064,44.502,0.392,66.756,0.72c-0.055,35.002-0.738,70.011,0.102,104.984c0.433,18.041-1.702,31.398-24.541,27.948
			c-1.888-0.285-5.149-0.602-5.634,0.277c-16.496,29.856-41.602-0.779-61.619,8.67c-8.935,4.218-11.583-6.308-14.049-14.07
			c-8.144-25.633-5.209-51.933-5.628-78.025c-0.815-50.792,6.475-45.341-44.488-45.769
			C2177.446,1505.895,2166.764,1505.518,2156.081,1505.273z"/>
		<path style="fill:#EC2240;" d="M2351.037,1786.94c0.365,19.342-3.424,36.396-14.165,51.013
			c-9.535,12.975-20.052,24.233-39.086,14.858c-5.63-2.773-13.715-3.117-19.971-1.625c-27.841,6.641-45.258-6.306-56.569-29.574
			c-13.014-26.771-15.851-53.979,1.727-80.361c1.595-2.394,3.805-4.469,6.025-6.343c32.533-27.465,63.148-1.485,93.595,5.065
			C2345.363,1744.873,2353.116,1765.297,2351.037,1786.94z"/>
		<path style="fill:#A74131;" d="M2289.219,1718.083c-12.682-5.855-19.321-16.609-26.295-31.306
			C2285.662,1688.871,2283.71,1706.255,2289.219,1718.083z"/>
		<path style="fill:#9A8E7A;" d="M5758.004,3769.76c-395.573,5.525-791.147,5.58-1186.722-0.021
			C4966.855,3764.559,5362.429,3764.397,5758.004,3769.76z"/>
		<path style="fill:#5E464F;" d="M2402.363,3515.205c5.64,17.195,21.395,29.792,23.105,48.484
			c0.909,9.935,3.638,21.385-7.091,28.928c-31.183,0.039-62.378,0.568-93.546-0.138c-11.585-0.263-20.814,1.673-26.762,12.288
			c-53.341-7.388-106.694-6.969-160.058-0.253c-8.6-17.727-25.364-13.661-38.043-10.553c-13.509,3.311-6.716,18.205-7.082,27.92
			c-0.917,24.304-1.068,48.689-0.153,72.99c0.547,14.538-2.922,20.699-19.162,20.224c-39.882-1.169-79.836-0.997-119.73-0.065
			c-15.324,0.358-20.419-4.46-19.854-19.83c1.073-29.166,1.16-58.428,0.072-87.59c-0.604-16.204,4.001-22.853,21.104-21.752
			c20.359,1.311,40.95-0.861,61.292,0.58c18.699,1.324,25.35-4.519,24.869-24.015c-1.393-56.427-0.896-112.899-1.14-169.354
			c5.462-15.278,19.091-15.439,31.436-15.488c75.717-0.302,151.447-2.181,227.096,0.846c6.778,0.769,14.281,1.928,18.484,7.236
			C2349.391,3426.314,2383.724,3465.629,2402.363,3515.205z"/>
		<path style="fill:#D9D1C9;" d="M2308.882,3386.276c-79.534,0.104-159.068,0.099-238.601,0.447
			c-10.28,0.045-21.648-3.166-30.097,6.344c-15.336-13.216-33.603-5.675-50.425-6.374c-30.142-1.253-60.377-0.272-90.573-0.226
			c11.505-72.07,1.427-146.998,28.753-216.971c8.486-7.744,19.041-9.02,29.789-9.136c55.103-0.592,110.208-0.341,165.313-0.158
			c11.901,0.04,23.013,2.519,32.912,9.406c33.328,44.912,66.655,89.824,99.983,134.737
			C2278.451,3328.51,2304.962,3350.094,2308.882,3386.276z"/>
		<path style="fill:#533B2C;" d="M2138.012,3604.513c1.93-13.234,11.647-13.289,21.824-13.255
			c38.85,0.133,77.701,0.154,116.55-0.021c10.329-0.046,19.775,0.478,21.682,13.53c-2.317,16.438-15.163,19.137-27.865,19.353
			c-34.737,0.589-69.515,0.655-104.233-0.442C2153.829,3623.295,2140.104,3621.361,2138.012,3604.513z"/>
		<path style="fill:#F5F2E6;" d="M2155.952,3169.608c-76.004-0.036-152.009-0.073-228.013-0.11
			c12.568-76.637,37.619-149.794,62.44-222.996c0.672-1.981,4.679-2.832,7.131-4.211c44.034,70.188,96.381,134.509,143.111,202.794
			C2146.061,3153.033,2150.857,3161.423,2155.952,3169.608z"/>
		<path style="fill:#40627C;" d="M2308.882,3386.276c-17.649-27.311-35.298-54.621-52.947-81.931
			c16.576-15.603,16.154-36.163-1.43-56.983c-12.51-14.813-25.68-29.084-37.802-44.201c-10.256-12.79-18.784-25.84-20.519-43.785
			c-2.753-28.468-29.054-44.862-40.483-69.404c-8.531-18.319-22.757-34.24-22.625-55.982c0.057-9.374,3.829-22.276,13.872-13.643
			c19.335,16.618,55.339,28.282,52.51,53.838c-4.276,38.637,14.807,52.693,39.834,72.394c21.189,16.679,29.481,47.093,41.022,70.914
			c28.214,58.233,73.921,104.633,101.276,162.38c18.259,38.544,43.111,73.583,57.967,113.945
			c4.878,13.254,15.12,24.651,23.505,36.473c19.563,27.582,17.933,52.178-5.695,78.267c-9.961-88.411-12.391-92.536-55.004-93.352
			C2369.137,3473.726,2345.135,3425.561,2308.882,3386.276z"/>
		<path style="fill:#F6F0E7;" d="M3217.035,3477.915c148.771-0.396,261.897,110.798,261.183,256.721
			c-0.682,139.169-115.932,253.352-256.706,254.327c-141.575,0.98-261.817-115.054-261.835-252.675
			C2959.657,3591.62,3072.532,3478.3,3217.035,3477.915z"/>
		<path style="fill:#F8F0E5;" d="M6926.898,3735.863c-0.644,143.484-114.621,254.275-261.042,253.744
			c-146.695-0.532-258.385-113.508-257.282-260.243c1.065-141.733,114.584-250.795,260.767-250.53
			C6815.328,3479.098,6927.548,3591.087,6926.898,3735.863z"/>
		<path style="fill:#C38141;" d="M2771.411,1506.793c37.149-0.201,74.299-0.401,111.448-0.6
			c-4.02,57.081-7.72,114.187-12.393,171.213c-0.732,8.941-1.193,22.675-11.674,24.212c-11.751,1.724-9.349-11.68-11.965-19.471
			c-3.611-10.758-8.609-10.629-16.341-2.179c-13.294,14.529-19.996,5.127-23.332-8.508c-2.403-9.822,3.483-24.152-9.979-27.765
			c-13.849-3.717-13.332,14.535-22.358,19.489c-1.595,0.876-3.459,1.263-7.102,2.546
			C2758.972,1612.131,2775.375,1559.579,2771.411,1506.793z"/>
		<path style="fill:#554035;" d="M2542.317,2080.281c-0.282-76.776-0.282-76.776,76.985-76.403
			c55.636,0.268,56.446,0.354,50.601,55.588c-2.673,25.263-2.471,50.405-2.216,75.585c0.154,15.193-5.741,20.701-20.57,20.405
			c-28.155-0.562-56.349-0.623-84.49,0.266c-15.041,0.475-21.164-4.883-20.5-20.094
			C2542.931,2117.211,2542.317,2098.733,2542.317,2080.281z"/>
		<path style="fill:#513D34;" d="M2906.351,2075.524c-0.054-71.157-0.054-71.157,71.341-70.8
			c63.201,0.316,63.675,0.323,62.799,63.256c-0.363,26.048,10.396,59.382-5.207,76.21c-16.047,17.307-49.651,4.257-75.51,4.802
			c-53.492,1.13-53.505,0.427-53.41-53.033C2906.377,2089.148,2906.366,2082.336,2906.351,2075.524z"/>
		<path style="fill:#523D34;" d="M2778.528,2150.015c-19.468-3.265-52.585,11.871-66.881-6.418
			c-11.923-15.252-3.676-46.612-3.594-70.835c0.225-66.161,0.384-66.269,66.903-67.383c23.361-0.391,46.753,0.48,70.093-0.339
			c14.842-0.521,20.991,4.424,20.588,19.999c-0.906,35.026-1.003,70.099-0.245,105.128c0.332,15.311-5.127,20.788-20.294,20.084
			C2824.696,2149.303,2804.217,2150.015,2778.528,2150.015z"/>
		<path style="fill:#4C494D;" d="M1898.457,544.361c-1.902-0.014-3.805-0.056-5.706-0.038c-12.819,0.12-22.974-3.512-23.216-18.598
			c-0.188-11.777,9.352-9.765,16.465-10.104c12.882-0.614,28.348-4.218,25.064,17.962
			C1906.861,537.176,1902.659,540.768,1898.457,544.361z"/>
		<path style="fill:#463C38;" d="M2067.782,520.967c-4.112,11.801-11.531,18.517-23.69,18.188
			c-9.789-0.264-18.251-4.761-15.923-15.552c2.906-13.471,16.788-9.733,26.133-12.337
			C2061.786,509.18,2066.997,513.186,2067.782,520.967z"/>
		<path style="fill:#FA8A86;" d="M3017.74,2589.901c22.783-0.096,47.641,19.851,46.266,35.676
			c-1.43,16.455-12.077,23.453-27.925,22.967c-22.875-0.701-41.535-11.491-45.032-33.66
			C2988.451,2598.407,3005.185,2591.813,3017.74,2589.901z"/>
		<path style="fill:#F5E09B;" d="M2606.48,1382.68c-17.301-0.034-30.334-8.419-32.113-23.961
			c-2.029-17.727,14.599-20.675,27.958-21.949c17.217-1.642,27.672,7.546,28.765,24.905
			C2632.199,1379.286,2618.563,1380.753,2606.48,1382.68z"/>
		<path style="fill:#F99286;" d="M2886.473,1330.734c17.17,0.12,43.677,25.737,41.315,40.25c-1.66,10.201-4.403,22.12-18.117,23.221
			c-19.631,1.576-44.852-23.358-44.782-42.726C2864.945,1335.673,2875.448,1332.462,2886.473,1330.734z"/>
		<path style="fill:#F6F2E6;" d="M2947.309,2495.424c9.534,23.424,5.789,39.821-22.626,43.868
			c-12.158,1.732-24.187,4.369-36.275,6.601C2908.566,2529.686,2934.898,2520.677,2947.309,2495.424z"/>
		<path style="fill:#7B6263;" d="M3219.799,3949.183c-123.971-0.435-220.894-95.907-220.247-216.951
			c0.647-121.07,98.938-217.518,221.108-216.961c123.105,0.561,219.232,96.703,218.803,218.839
			C3439.045,3853.289,3340.67,3949.607,3219.799,3949.183z"/>
		<path style="fill:#7C6565;" d="M6665.751,3950.321c-123.935-1.075-221.253-97.552-219.773-217.875
			c1.495-121.611,101.833-218.179,225.24-216.778c121.557,1.381,219.779,102.01,218.369,223.719
			C6888.231,3856.404,6787.449,3951.376,6665.751,3950.321z"/>
		<path style="fill:#CA9873;" d="M2639.372,2096.616c-10.961-5.169-7.946-12.874-8.276-18.875
			c-2.141-38.867-1.994-38.626-39.782-37.859c-10.543,0.214-19.201-0.316-18.815,14.571c0.409,15.768,10.523,13.029,20.165,12.818
			c5.463-0.119,11.415-4.309,18.131,3.757c-17.695,6.305-44.51,0.152-44.762,31.646c-4.784-24.375-16.407-53.341,2.308-67.351
			c16.233-12.152,49.617-11.66,66.911,0.129C2652.432,2047.162,2643.027,2074.49,2639.372,2096.616z"/>
		<path style="fill:#98765E;" d="M3010.798,2117.231c-1.451,8.943-8.114,10.649-13.305,8.727c-19.52-7.226-39.516-4.096-59.37-4.537
			c-4.734-0.105-10.735-0.134-10.837-6.618c-0.049-3.089,2.849-8.39,5.338-9.018c25.252-6.365,49.416,5.28,74.392,5.45
			C3008.421,2111.246,3009.797,2115.566,3010.798,2117.231z"/>
		<path style="fill:#CBA17E;" d="M3024.068,2071.103c-41.157,11.833-79.691,9.839-101.496,0
			C2958.954,2071.103,2991.511,2071.103,3024.068,2071.103z"/>
		<path style="fill:#C49A73;" d="M3001.651,2038.897c-24.921,7.216-49.963,7.802-75.095,0.894
			C2951.292,2030.37,2976.5,2034.46,3001.651,2038.897z"/>
		<path style="fill:#D5955C;" d="M2846.759,2085.628c0,7.747,0.087,15.494-0.022,23.239c-0.135,9.622,1.324,21.456-12.483,21.871
			c-13.844,0.417-31.884,7.902-40.146-5.843c-4.219-7.018-2.89-23.654,9.188-33.127c13.698-10.744,18.516-22.813-2.658-31.803
			c-8.188-3.476-6.902-11.008-6.001-17.539c1.008-7.31,7.27-7.446,13.188-8.382
			C2843.121,2028.464,2847.105,2033.633,2846.759,2085.628z"/>
		<path style="fill:#E1A165;" d="M2724.815,2079.901c0.024-7.758-0.457-15.554,0.158-23.264c0.633-7.94-3.862-19.541,9.076-21.017
			c13.258-1.513,28.264-5.626,39.684,1.928c7.586,5.018,5.575,14.135-5.196,19.869c-19.739,10.509-20.51,25.891-1.17,33.619
			c15.869,6.341,8.245,17.641,9.197,26.639c1.249,11.806-9.262,9.731-16.542,10.413
			C2724.789,2131.388,2724.786,2131.351,2724.815,2079.901z"/>
		<path style="fill:#D7CCBE;" d="M3222.669,3560.651c104.495-4.965,176.726,84.185,175.564,174.658
			c-1.218,94.783-85.255,172.945-185.227,172.205c-96.741-0.715-171.86-80.632-172.338-180.498
			C3040.323,3654.815,3111.386,3552.265,3222.669,3560.651z"/>
		<path style="fill:#D7CCBF;" d="M6672.556,3561.135c99.361-5.648,172.581,78.218,175.107,172.939
			c2.524,94.61-84.227,174.243-185.757,173.702c-96.873-0.516-172.003-76.123-171.753-172.843
			C6490.419,3631.826,6565.022,3560.741,6672.556,3561.135z"/>
		<path style="fill:#FBF9F8;" d="M3093.395,3738.751c-8.988-69.712,63.275-132.284,126.84-131.064
			c64.473,1.237,130.067,56.088,130.512,130.868c0.375,62.892-63.434,121.281-129.998,122.258
			C3157.109,3861.747,3085.913,3811.779,3093.395,3738.751z"/>
		<path style="fill:#FBF9F7;" d="M6796.427,3740.601c-0.174,71.163-54.168,120.408-131.914,120.311
			c-69.103-0.086-126.601-55.729-126.056-121.989c0.619-75.259,57.822-128.996,134.771-130.413
			C6740.616,3607.269,6802.895,3678.962,6796.427,3740.601z"/>
		<path style="fill:#4C3C44;" d="M3217.75,3826.301c-51.016-0.052-94.903-44.381-94.133-95.079
			c0.775-51.043,44.595-93.519,96.372-93.417c51.751,0.103,96.414,43.705,96.024,93.745
			C3315.609,3783.303,3270.961,3826.356,3217.75,3826.301z"/>
		<path style="fill:#4D3C44;" d="M6666.561,3827.884c-52.996,0.301-93.614-40.809-93.525-94.658
			c0.087-52.81,43.607-95.156,97.627-94.993c50.244,0.152,94.154,42.847,94.793,92.172
			C6766.149,3783.849,6721.793,3827.57,6666.561,3827.884z"/>
	</g>
</g>
</svg>
