<svg height="512" viewBox="0 0 64 64" width="512" xmlns="http://www.w3.org/2000/svg"><g id="Artboard_35" data-name="Artboard 35"><path d="m60 51v-13.217l-6-12.783h-14v26z" fill="#c12b35"/><path d="m48 42.644h-4a1 1 0 0 1 0-2h4a1 1 0 0 1 0 2z" fill="#97262e"/><path d="m56.658 55h5.342v-4h-5.342-46.315-8.343v4h8.342z" fill="#ccced5"/><path d="m4 51v-32a2 2 0 0 1 2-2h32a2 2 0 0 1 2 2v32z" fill="#f4ac1c"/><path d="m24.543 46a10.109 10.109 0 0 0 10.109-10.109v-15.019a3.871 3.871 0 0 0 -3.872-3.872h-24.78a2 2 0 0 0 -2 2v27z" fill="#ffc239"/><circle cx="51" cy="53" fill="#181a1c" r="6"/><circle cx="16" cy="53" fill="#181a1c" r="6"/><circle cx="51" cy="53" fill="#e0e2e6" r="2"/><circle cx="16" cy="53" fill="#e0e2e6" r="2"/><path d="m60 38h-16v-13h10l6 12.783" fill="#76d8ff"/><path d="m48 42h-4a1 1 0 0 1 0-2h4a1 1 0 0 1 0 2z" fill="#2b2e33"/><g fill="#f4ac1c"><path d="m14 45.693h-8.853a1 1 0 1 1 0-2h8.853a1 1 0 0 1 0 2z"/><path d="m18 41.693h-10a1 1 0 0 1 0-2h10a1 1 0 0 1 0 2z"/><path d="m60 41h-4a1 1 0 0 0 -1 1v2a1 1 0 0 0 1 1h4z"/></g><path d="m55 55a2 2 0 0 1 -2-2 2 2 0 0 0 -4 0 2 2 0 0 1 -4 0 6 6 0 0 1 12 0 2 2 0 0 1 -2 2z" fill="#2b2e33"/><path d="m20 55a2 2 0 0 1 -2-2 2 2 0 0 0 -4 0 2 2 0 0 1 -4 0 6 6 0 0 1 12 0 2 2 0 0 1 -2 2z" fill="#2b2e33"/><rect fill="#f3f3f5" height="4" rx="2" width="18.147" x="24.446" y="51"/><path d="m2 51h6.549a0 0 0 0 1 0 0v.747a3.253 3.253 0 0 1 -3.249 3.253h-3.3a0 0 0 0 1 0 0v-4a0 0 0 0 1 0 0z" fill="#f3f3f5"/><path d="m58.245 51h3.755a0 0 0 0 1 0 0v4a0 0 0 0 1 0 0h-1.432a2.323 2.323 0 0 1 -2.323-2.323v-1.677a0 0 0 0 1 0 0z" fill="#f3f3f5"/><path d="m56.3 41h3.7a0 0 0 0 1 0 0v3.288a0 0 0 0 1 0 0h-2.024a1.671 1.671 0 0 1 -1.676-1.671v-1.617a0 0 0 0 1 0 0z" fill="#ffc239"/><path d="m46.652 27.283v2.967a5.967 5.967 0 0 0 5.968 5.967h6.645l-5.265-11.217h-5.065a2.283 2.283 0 0 0 -2.283 2.283z" fill="#ccf1ff"/><path d="m5.065 25.367v-5.285a1.792 1.792 0 0 1 1.792-1.792h5.286a1.792 1.792 0 0 1 1.792 1.792 1.792 1.792 0 0 1 -.525 1.267l-5.286 5.285a1.792 1.792 0 0 1 -1.267.525 1.792 1.792 0 0 1 -1.792-1.792z" fill="#ffda88"/><path d="m14 45h-12a1 1 0 0 1 0-2h12a1 1 0 0 1 0 2z" fill="#e63a45"/><path d="m18 41h-10a1 1 0 0 1 0-2h10a1 1 0 0 1 0 2z" fill="#e63a45"/><path d="m31.975 17h-19.363a9.652 9.652 0 0 0 1.918 5.213l6.132 10.73a1.877 1.877 0 0 0 3.261 0c2.277-3.984 6.134-10.735 6.135-10.735a9.656 9.656 0 0 0 1.917-5.208z" fill="#f4ac1c"/><path d="m15.1 19.4 7.2 12.6 7.2-12.6a9 9 0 1 0 -14.4 0z" fill="#c12b35"/><path d="m29.492 19.4a9 9 0 0 0 .388-10.239 7.47 7.47 0 0 0 -12.466 0 8.994 8.994 0 0 0 .386 10.239l3.73 6.529a2.435 2.435 0 0 0 4.229 0z" fill="#e63a45"/><circle cx="22.293" cy="14" fill="#f3f3f5" r="5"/><path d="m22.293 9a5.024 5.024 0 0 0 -.847.085 4.985 4.985 0 0 1 0 9.83 4.994 4.994 0 1 0 .847-9.915z" fill="#e0e2e6"/><path d="m24.368 25.293a1.5 1.5 0 0 1 -1.283-2.274l1.851-3.069a1.5 1.5 0 1 1 2.564 1.55l-1.851 3.069a1.5 1.5 0 0 1 -1.281.724z" fill="#eb616a"/></g></svg>