<svg id="Capa_1" enable-background="new 0 0 512 512" viewBox="0 0 512 512" xmlns="http://www.w3.org/2000/svg" xmlns:xlink="http://www.w3.org/1999/xlink"><linearGradient id="lg1"><stop offset="0" stop-color="#43386b"/><stop offset="1" stop-color="#594a8e"/></linearGradient><linearGradient id="SVGID_1_" gradientUnits="userSpaceOnUse" x1="186.336" x2="186.336" xlink:href="#lg1" y1="365.337" y2="159.712"/><linearGradient id="SVGID_00000002349089960499790460000015639380755636599996_" gradientTransform="matrix(-1 0 0 1 -2345.753 0)" gradientUnits="userSpaceOnUse" x1="-2606.695" x2="-2575.661" y1="233.977" y2="180.226"><stop offset=".0694" stop-color="#ffc538"/><stop offset=".4072" stop-color="#fad73e"/><stop offset=".5466" stop-color="#f7e041"/><stop offset="1" stop-color="#fcf3b3"/></linearGradient><linearGradient id="SVGID_00000166666593389745650030000010831504368238467463_" gradientTransform="matrix(-1 0 0 1 -2345.753 0)" gradientUnits="userSpaceOnUse" x1="-2463.377" x2="-2463.377" y1="443.079" y2="63.6"><stop offset="0" stop-color="#ffa538"/><stop offset="1" stop-color="#ffc538"/></linearGradient><linearGradient id="lg2"><stop offset="0" stop-color="#cc8241"/><stop offset="1" stop-color="#ffa538"/></linearGradient><linearGradient id="SVGID_00000121958363573143729570000015379782585881124518_" gradientUnits="userSpaceOnUse" x1="35.189" x2="35.189" xlink:href="#lg2" y1="128.974" y2="253.102"/><linearGradient id="SVGID_00000103975633997683618860000014237459244480023936_" gradientUnits="userSpaceOnUse" x1="76.088" x2="76.088" xlink:href="#lg2" y1="153.243" y2="277.371"/><linearGradient id="SVGID_00000116936268830339341800000002845382993837254545_" gradientUnits="userSpaceOnUse" x1="116.986" x2="116.986" xlink:href="#lg2" y1="177.513" y2="301.641"/><linearGradient id="SVGID_00000099650508563138168650000001427275294023000717_" gradientUnits="userSpaceOnUse" x1="157.885" x2="157.885" xlink:href="#lg2" y1="201.782" y2="325.91"/><linearGradient id="SVGID_00000143617225066235166900000001045113582194277507_" gradientUnits="userSpaceOnUse" x1="198.783" x2="198.783" xlink:href="#lg2" y1="226.052" y2="350.18"/><linearGradient id="SVGID_00000040560057751025832510000015858245814646948249_" gradientUnits="userSpaceOnUse" x1="440.947" x2="426.979" y1="399.375" y2="375.18"><stop offset="0" stop-color="#ab2c37"/><stop offset="1" stop-color="#ff7a85"/></linearGradient><linearGradient id="SVGID_00000058582445955150423370000000577268941714654118_" gradientTransform="matrix(.866 .5 0 1.155 -141.329 494.73)" gradientUnits="userSpaceOnUse" x1="516.893" x2="516.893" y1="-330.567" y2="-494.551"><stop offset="0" stop-color="#ab2c37"/><stop offset="1" stop-color="#ff4757"/></linearGradient><linearGradient id="SVGID_00000036961868282525711850000001300141412219131010_" gradientUnits="userSpaceOnUse" x1="439.752" x2="439.752" xlink:href="#lg1" y1="485.264" y2="377.246"/><linearGradient id="SVGID_00000122713841052772979610000002206625198400235168_" gradientTransform="matrix(.866 .5 0 1.155 -141.329 494.73)" gradientUnits="userSpaceOnUse" x1="299.061" x2="299.061" xlink:href="#lg1" y1="-258.94" y2="-294.994"/><linearGradient id="SVGID_00000031887983625552805290000008277922881758572976_" gradientTransform="matrix(.866 .5 0 1.155 -141.329 494.73)" gradientUnits="userSpaceOnUse" x1="514.411" x2="514.411" xlink:href="#lg1" y1="-258.785" y2="-293.171"/><linearGradient id="lg3"><stop offset="0" stop-color="#43386b"/><stop offset="1" stop-color="#7662bd"/></linearGradient><linearGradient id="SVGID_00000106853202955614540290000001366163359358625929_" gradientUnits="userSpaceOnUse" x1="286.897" x2="286.897" xlink:href="#lg3" y1="314.803" y2="203.089"/><linearGradient id="SVGID_00000000200146998413854190000001370184314489019307_" gradientUnits="userSpaceOnUse" x1="391.664" x2="405.023" xlink:href="#lg3" y1="352.532" y2="247.233"/><linearGradient id="lg4"><stop offset="0" stop-color="#c5baeb"/><stop offset="1" stop-color="#fff"/></linearGradient><linearGradient id="SVGID_00000016765168076088719200000007660524637249944982_" gradientUnits="userSpaceOnUse" x1="373.251" x2="384.823" xlink:href="#lg4" y1="437.797" y2="437.797"/><linearGradient id="SVGID_00000168830186378357482120000016303584140035239566_" gradientUnits="userSpaceOnUse" x1="501.528" x2="501.528" xlink:href="#lg4" y1="388.145" y2="362.999"/><linearGradient id="SVGID_00000008831295954803500270000016316388780695867799_" gradientUnits="userSpaceOnUse" x1="144.38" x2="144.38" xlink:href="#lg1" y1="412.929" y2="324.785"/><linearGradient id="lg5"><stop offset="0" stop-color="#a996eb"/><stop offset="1" stop-color="#d7d1eb"/></linearGradient><linearGradient id="SVGID_00000139281787025905088610000001838114347104567717_" gradientUnits="userSpaceOnUse" x1="144.38" x2="144.38" xlink:href="#lg5" y1="397.368" y2="350.926"/><linearGradient id="lg6"><stop offset="0" stop-color="#7662bd"/><stop offset="1" stop-color="#c5baeb"/></linearGradient><linearGradient id="SVGID_00000096045892288290357680000010073763672595317649_" gradientUnits="userSpaceOnUse" x1="139.575" x2="146.683" xlink:href="#lg6" y1="350.356" y2="381.065"/><linearGradient id="SVGID_00000061429507681274729790000009928105058369301912_" gradientUnits="userSpaceOnUse" x1="77.974" x2="77.974" xlink:href="#lg1" y1="374.455" y2="286.312"/><linearGradient id="SVGID_00000002350014939093915040000009870684982179364777_" gradientUnits="userSpaceOnUse" x1="77.974" x2="77.974" xlink:href="#lg5" y1="358.895" y2="312.452"/><linearGradient id="SVGID_00000109026735286086975850000001733789678412178562_" gradientUnits="userSpaceOnUse" x1="73.168" x2="80.277" xlink:href="#lg6" y1="311.883" y2="342.591"/><linearGradient id="SVGID_00000096746980254757182330000006234479491471456901_" gradientUnits="userSpaceOnUse" x1="309.744" x2="309.744" xlink:href="#lg1" y1="507.457" y2="419.314"/><linearGradient id="SVGID_00000178178500471992724680000005172671158440150709_" gradientUnits="userSpaceOnUse" x1="309.743" x2="309.743" xlink:href="#lg5" y1="491.897" y2="445.455"/><linearGradient id="SVGID_00000069365234447910998060000000442189443846962836_" gradientUnits="userSpaceOnUse" x1="304.938" x2="312.047" xlink:href="#lg6" y1="444.885" y2="475.593"/><g><path d="m97.659 376.505 38.266-22.093-36.187-18.02z" fill="#322a50"/><path d="m370.033 296.152v-.094l-227.773-133.599c-2.357-1.361-4.461-1.132-5.844.327l32.703 21.055-166.479 56.181 232.676 134.005z" fill="url(#SVGID_1_)"/><g><path d="m4.12 91.108 146.982-89.215c2.332-1.527 5.449-1.485 8.874.493l209.084 122.53c7.225 4.171 13.082 15.362 13.082 24.995v117.487c0 5.691-2.045 9.563-5.208 10.921l-140.749 85.578-4.902 2.87z" fill="url(#SVGID_00000002349089960499790460000015639380755636599996_)"/><path d="m13.082 243.911 209.083 122.531c7.225 4.171 13.082-.256 13.082-9.89v-117.486c0-9.633-5.857-20.824-13.082-24.995l-209.083-122.531c-7.225-4.171-13.082.257-13.082 9.89v117.487c0 9.633 5.857 20.823 13.082 24.994z" fill="url(#SVGID_00000166666593389745650030000010831504368238467463_)"/><path d="m24.064 225.664v-106.981l22.249 12.846v106.98z" fill="url(#SVGID_00000121958363573143729570000015379782585881124518_)"/><path d="m64.963 249.934v-106.981l22.249 12.845v106.981z" fill="url(#SVGID_00000103975633997683618860000014237459244480023936_)"/><path d="m105.862 274.203v-106.981l22.249 12.846v106.981z" fill="url(#SVGID_00000116936268830339341800000002845382993837254545_)"/><path d="m146.76 298.473v-106.981l22.249 12.845v106.981z" fill="url(#SVGID_00000099650508563138168650000001427275294023000717_)"/><path d="m187.659 322.742v-106.981l22.249 12.846v106.981z" fill="url(#SVGID_00000143617225066235166900000001045113582194277507_)"/></g><path d="m164.065 414.978 38.266-22.092-36.186-18.021z" fill="#322a50"/><path d="m329.429 509.507 38.265-22.093-36.186-18.02z" fill="#322a50"/><path d="m496.164 316.29-20.487-22.408-14.609-62.357c-3.82-16.308-13.86-31.501-25.105-37.993l-43.292-24.995c-5.634-3.253-10.782-3.475-14.744-1.223l-.004-.008-134.978 77.968 129.733 244.554 134.537-77.715-.004-.007c2.926-1.603 4.789-5.448 4.789-10.954v-44.898c0-13.647-6.291-29.524-15.836-39.964z" fill="url(#SVGID_00000040560057751025832510000015858245814646948249_)"/><path d="m235.316 396.118v-132.652c0-16.67 10.135-24.332 22.638-17.114l43.292 24.995c11.245 6.492 21.284 21.685 25.105 37.993l14.609 62.357 20.487 22.408c9.545 10.44 15.837 26.317 15.837 39.966v26.061c0 9.914-6.028 14.471-13.464 10.178z" fill="url(#SVGID_00000058582445955150423370000000577268941714654118_)"/><path d="m377.284 455.992-9.78 24.084 5.174 9.753 134.537-77.715-.004-.007c2.926-1.603 4.789-5.448 4.789-10.954v-22.94z" fill="url(#SVGID_00000036961868282525711850000001300141412219131010_)"/><path d="m7.544 240.429 227.772 133.598v40.928l-227.772-133.599c-4.166-2.405-7.544-8.859-7.544-14.414v-20.81c0-5.555 3.378-8.109 7.544-5.703z" fill="url(#SVGID_00000122713841052772979610000002206625198400235168_)"/><path d="m231.019 371.643 146.265 84.349v22.976c0 9.914-6.028 14.471-13.464 10.178l-132.802-76.576v-40.927z" fill="url(#SVGID_00000031887983625552805290000008277922881758572976_)"/><path d="m325.25 362.626-11.777-50.269c-2.932-12.515-10.855-24.945-18.84-29.555l-43.292-24.995c-.714-.412-1.286-.653-1.696-.789-.469.966-1.1 3.028-1.1 6.447v54.874z" fill="url(#SVGID_00000106853202955614540290000001366163359358625929_)"/><path d="m454.863 234.586c-1.152-4.92-2.879-9.732-5.026-14.24l-121.025 69.874c2.215 4.595 3.988 9.517 5.167 14.548l14.609 62.357 120.884-70.181z" fill="url(#SVGID_00000000200146998413854190000001370184314489019307_)"/><path d="m372.029 431.037-2.161-1.248c-2.642-1.525-5.944.381-5.944 3.432v15.058l13.36 7.714 29.78-17.194v-15.465c0-2.87-3.106-4.663-5.592-3.228l-18.934 10.931c-3.251 1.877-7.257 1.877-10.509 0z" fill="url(#SVGID_00000016765168076088719200000007660524637249944982_)"/><path d="m491.057 375.02v15.286l20.943-12.147v-21.922l-15.203 8.818c-3.553 2.061-5.74 5.858-5.74 9.965z" fill="url(#SVGID_00000168830186378357482120000016303584140035239566_)"/><path d="m407.064 423.334 83.993-48.493v15.465l-83.993 48.493z" fill="#43386b"/><g><path d="m175.714 389.205c0 23.074-14.029 33.68-31.334 23.688-17.306-9.991-31.334-36.796-31.334-59.87s14.029-33.68 31.334-23.688c17.306 9.992 31.334 36.796 31.334 59.87z" fill="url(#SVGID_00000008831295954803500270000016316388780695867799_)"/><path d="m159.786 380.009c0 11.344-6.898 16.559-15.406 11.647-8.509-4.913-15.406-18.092-15.406-29.436 0-11.345 6.897-16.559 15.406-11.647 8.508 4.913 15.406 18.092 15.406 29.436z" fill="url(#SVGID_00000139281787025905088610000001838114347104567717_)"/><path d="m157.587 378.739c0 9.726-5.913 14.196-13.207 9.985s-13.207-15.509-13.207-25.235c0-9.725 5.913-14.195 13.207-9.984s13.207 15.509 13.207 25.234z" fill="url(#SVGID_00000096045892288290357680000010073763672595317649_)"/><path d="m144.38 353.506c-.324-.187-.642-.337-.961-.491-.193 1.085-.299 2.263-.299 3.536 0 9.725 5.913 21.023 13.207 25.235.324.187.642.336.96.49.192-1.085.299-2.263.299-3.536.001-9.726-5.912-21.023-13.206-25.234z" fill="#594a8e"/></g><g><path d="m109.308 350.732c0 23.074-14.029 33.68-31.334 23.688-17.306-9.991-31.334-36.796-31.334-59.87s14.029-33.68 31.334-23.688c17.305 9.991 31.334 36.796 31.334 59.87z" fill="url(#SVGID_00000061429507681274729790000009928105058369301912_)"/><path d="m93.38 341.536c0 11.345-6.897 16.559-15.406 11.647-8.509-4.913-15.406-18.092-15.406-29.436 0-11.345 6.897-16.559 15.406-11.647 8.508 4.912 15.406 18.091 15.406 29.436z" fill="url(#SVGID_00000002350014939093915040000009870684982179364777_)"/><path d="m91.181 340.266c0 9.726-5.913 14.196-13.207 9.985s-13.207-15.509-13.207-25.235c0-9.725 5.913-14.195 13.207-9.984s13.207 15.509 13.207 25.234z" fill="url(#SVGID_00000109026735286086975850000001733789678412178562_)"/><path d="m77.974 315.032c-.324-.187-.642-.337-.961-.49-.192 1.085-.299 2.263-.299 3.536 0 9.725 5.913 21.023 13.207 25.235.324.187.642.337.96.49.192-1.085.299-2.263.299-3.536 0-9.726-5.912-21.024-13.206-25.235z" fill="#594a8e"/></g><g><path d="m341.078 483.734c0 23.074-14.029 33.68-31.334 23.688-17.306-9.991-31.335-36.796-31.335-59.87s14.029-33.68 31.335-23.688c17.305 9.991 31.334 36.796 31.334 59.87z" fill="url(#SVGID_00000096746980254757182330000006234479491471456901_)"/><path d="m325.149 474.538c0 11.344-6.897 16.559-15.406 11.647-8.509-4.913-15.406-18.092-15.406-29.436 0-11.345 6.897-16.559 15.406-11.647s15.406 18.091 15.406 29.436z" fill="url(#SVGID_00000178178500471992724680000005172671158440150709_)"/><path d="m322.95 473.268c0 9.726-5.913 14.196-13.207 9.985s-13.207-15.509-13.207-25.235c0-9.725 5.913-14.195 13.207-9.984s13.207 15.509 13.207 25.234z" fill="url(#SVGID_00000069365234447910998060000000442189443846962836_)"/><path d="m309.744 448.034c-.324-.187-.642-.337-.961-.49-.192 1.085-.299 2.263-.299 3.536 0 9.725 5.913 21.023 13.207 25.235.324.187.642.336.96.49.192-1.085.299-2.263.299-3.536 0-9.726-5.913-21.024-13.206-25.235z" fill="#594a8e"/></g></g><g/><g/><g/><g/><g/><g/><g/><g/><g/><g/><g/><g/><g/><g/><g/></svg>