<svg id="Layer_1" height="512" viewBox="0 0 48 48" width="512" xmlns="http://www.w3.org/2000/svg"><g style="fill:none;stroke:#000;stroke-linecap:round;stroke-linejoin:round;stroke-miterlimit:10;stroke-width:1.5"><path d="m8.22 9.262-7.158 12.72c-.123.219-.057.495.151.635l2.806 1.883c.232.156.549.081.686-.162l7.244-12.797c.127-.224.055-.508-.164-.645l-2.891-1.806c-.233-.146-.54-.067-.674.172z"/><path d="m46.787 22.617-2.807 1.884c-.231.154-.548.079-.685-.163l-.522-.923-5.862-10.352-.861-1.522c-.125-.223-.053-.507.164-.644l2.891-1.807c.233-.144.541-.067.673.173l7.16 12.72c.123.218.056.495-.151.634z"/><path d="m36.911 13.063c-3.437 2.156-12.624-3.144-17.577.447l-4.165 5.158c-.209.257-.308.562-.308.863 0 .483.252.957.714 1.211.514.281 1.149.209 1.584-.18 0 0 2.846-1.507 3.911-3.497l2.283-.774c5.552 2.118 14.989 9.838 14.989 9.838 1.252-.291 4.076-2.44 4.432-2.714"/><path d="m11.373 12.558s1.249 2.434 6.764 2.434"/><path d="m17.774 33.758-.003-.003"/><path d="m5.475 22.978 2.581 3.151.317.25"/><g><path d="m11.505 28.838-.012-.01"/><path d="m14.644 31.301-.019-.016"/><path d="m17.351 37.64c-.879-.658-1.059-1.905-.4-2.784l1.771-2.377c.658-.879 1.905-1.059 2.784-.4.879.658 1.059 1.905.4 2.784l-1.771 2.377c-.658.879-1.905 1.058-2.784.4z"/><path d="m13.801 35.744c-.879-.658-1.059-1.905-.4-2.784l2.541-3.394c.658-.879 1.905-1.059 2.784-.4.879.658 1.059 1.905.4 2.784l-2.541 3.394c-.658.879-1.905 1.058-2.784.4z"/><path d="m10.26 33.845c-.879-.658-1.059-1.905-.4-2.784l3.232-4.418c.658-.879 1.905-1.059 2.784-.4.879.658 1.059 1.905.4 2.784l-3.232 4.418c-.658.879-1.905 1.058-2.784.4z"/><path d="m7.897 30.376c-.879-.658-1.059-1.905-.4-2.784l1.435-1.984c.658-.879 1.905-1.059 2.784-.4.879.658 1.059 1.905.4 2.784l-1.436 1.984c-.657.879-1.904 1.058-2.783.4z"/></g><g><path d="m24.714 32.423 4.56 2.98c1.06.65 1.27 1.9.48 2.78-.47.52-1.19.8-1.92.8-.5 0-1-.13-1.43-.4l-4.76-3.11"/><path d="m27.854 29.303.3.2 5.39 3.59c1.06.66 1.27 1.9.48 2.78-.47.52-1.19.8-1.92.8-.5 0-1.01-.13-1.44-.4l-5.88-3.92"/><path d="m30.924 26.253.86.56 4.12 2.67 1.16.76c1.06.66 1.27 1.9.48 2.78-.47.52-1.19.8-1.92.8-.5 0-1-.13-1.43-.4l-6.04-3.92-.3-.2"/><path d="m34.014 23.193 4.3 2.89c1.06.66 1.27 1.9.48 2.78-.47.52-1.19.8-1.92.8-.33 0-.65-.05-.96-.17-.01 0-.01-.01-.01-.01-.17-.05-.32-.13-.47-.22l-3.58-2.4-.07-.05-.85-.57"/></g></g></svg>