<svg id="Capa_1" enable-background="new 0 0 512.088 512.088" height="512" viewBox="0 0 512.088 512.088" width="512" xmlns="http://www.w3.org/2000/svg"><g><g id="Page-1_17_"><g id="_x30_53---Searcing-For-Money" transform="translate(-1 -1)"><path id="Shape_128_" d="m412.765 340.359c-9.58-9.637-22.619-15.039-36.207-15.002-.939 0-1.86.085-2.79.137l-30.362-30.362c54.999-79.951 40-188.643-34.597-250.71s-184.203-57.054-252.822 11.565-73.632 178.225-11.565 252.822 170.759 89.596 250.71 34.597l30.362 30.362c-.051.93-.137 1.852-.137 2.79-.038 13.584 5.361 26.619 14.993 36.198l90.334 90.334c6.401 6.402 15.084 9.998 24.137 9.998s17.735-3.596 24.137-9.998l24.132-24.132c6.402-6.401 9.998-15.083 9.998-24.137s-3.596-17.735-9.998-24.137zm-344.619-30.848c-48.811-48.81-63.413-122.217-36.997-185.991s88.647-105.356 157.675-105.356 131.26 41.582 157.676 105.356 11.814 137.181-36.997 185.991c-66.698 66.531-174.659 66.531-241.357 0zm262.238 45.005-21.495-21.478c4.343-3.618 8.61-7.381 12.681-11.452 4.07-4.07 7.842-8.346 11.46-12.689l21.495 21.495c-10.599 5.005-19.132 13.535-24.141 24.132zm22.033-2.091c6.402-6.404 15.086-10.002 24.141-10.002s17.739 3.598 24.141 10.002l-48.282 48.265c-13.325-13.329-13.325-34.936 0-48.265zm138.607 114.466-24.132 24.132c-6.754 6.451-17.387 6.451-24.141 0l-78.259-78.268 48.273-48.265 78.259 78.259c3.202 3.201 5.001 7.543 5.001 12.07 0 4.53-1.799 8.872-5.001 12.072z"/><path id="Shape_127_" d="m266.785 76.765c2.496 1.841 5.793 2.183 8.614.893 2.82-1.289 4.719-4.007 4.959-7.099s-1.215-6.071-3.803-7.78c-61.042-42.404-143.689-35.017-196.244 17.54s-59.938 135.204-17.533 196.245c2.7 3.865 8.022 4.808 11.887 2.108s4.808-8.022 2.108-11.887c-37.665-54.257-31.091-127.696 15.611-174.401s120.142-53.282 174.401-15.619z"/><path id="Shape_126_" d="m314.87 101.085c-1.747-2.5-4.695-3.878-7.733-3.615s-5.706 2.127-6.997 4.89c-1.292 2.763-1.011 6.005.736 8.505 37.665 54.257 31.091 127.696-15.611 174.401s-120.142 53.282-174.4 15.619c-2.496-1.841-5.793-2.183-8.614-.893-2.82 1.289-4.719 4.007-4.959 7.099s1.215 6.071 3.803 7.78c61.043 42.403 143.689 35.016 196.244-17.541s59.937-135.204 17.531-196.245z"/><path id="Shape_125_" d="m240.024 146.158c0 4.713 3.82 8.533 8.533 8.533s8.533-3.821 8.533-8.533c0-26.061-26.112-47.59-59.733-50.756v-8.977c0-4.713-3.821-8.533-8.533-8.533s-8.533 3.821-8.533 8.533v8.977c-33.621 3.166-59.733 24.695-59.733 50.756s26.112 47.59 59.733 50.756v68.173c-23.893-2.799-42.667-17.067-42.667-33.596 0-4.713-3.821-8.533-8.533-8.533-4.713 0-8.533 3.821-8.533 8.533 0 26.061 26.112 47.59 59.733 50.756v8.977c0 4.713 3.82 8.533 8.533 8.533s8.533-3.821 8.533-8.533v-8.977c33.621-3.166 59.733-24.695 59.733-50.756s-26.112-47.59-59.733-50.756v-68.173c23.894 2.799 42.667 17.032 42.667 33.596zm-102.4 0c0-16.563 18.773-30.797 42.667-33.596v67.191c-23.893-2.799-42.667-17.032-42.667-33.595zm102.4 85.333c0 16.563-18.773 30.797-42.667 33.596v-67.191c23.894 2.798 42.667 17.032 42.667 33.595z"/></g></g></g></svg>