<svg id="Capa_1" enable-background="new 0 0 512 512" height="512" viewBox="0 0 512 512" width="512" xmlns="http://www.w3.org/2000/svg"><g><circle cx="316" cy="185" r="10"/><circle cx="256" cy="185" r="10"/><circle cx="196" cy="185" r="10"/><path d="m247.68 345.547c1.854 2.782 4.977 4.453 8.32 4.453s6.466-1.671 8.32-4.453l19.138-28.706c59.677-12.832 102.542-65.5 102.542-126.841 0-71.683-58.317-130-130-130s-130 58.317-130 130c0 61.341 42.865 114.009 102.542 126.841zm-101.68-155.547c0-60.654 49.346-110 110-110s110 49.346 110 110c0 53.103-37.994 98.523-90.341 108-2.672.483-5.033 2.033-6.539 4.293l-13.12 19.68-13.12-19.68c-1.506-2.26-3.867-3.81-6.539-4.293-52.347-9.477-90.341-54.897-90.341-108z"/><path d="m8.366 312.233s41.062 124.83 41.098 124.929c7.546 20.72 30.542 31.437 51.268 23.904l56.381-20.53c5.11-1.861 7.796-7.465 6.046-12.614l-61.561-181.14c-1.8-5.3-7.612-8.098-12.889-6.179l-30.217 10.997c-1.65-10.412-2.492-20.997-2.492-31.6 0-110.28 89.72-200 200-200s200 89.72 200 200c0 10.603-.842 21.188-2.492 31.601l-30.217-10.997c-5.281-1.924-11.091.886-12.889 6.179l-61.561 181.14c-1.751 5.149.937 10.754 6.047 12.614l41.112 14.964v16.499c0 11.028-8.972 20-20 20h-80v-20c0-22.056-17.944-40-40-40s-40 17.944-40 40v30c0 5.522 4.478 10 10 10h150c22.056 0 40-17.944 40-40v-9.54c2.966.682 5.949 1.018 8.902 1.018 17.658 0 32.95-11.82 37.736-26.612l6.598-20.057c1.726-5.246-1.128-10.898-6.374-12.624-5.247-1.728-10.899 1.127-12.624 6.374l-6.544 19.893c-3.823 10.273-15.269 15.57-25.587 11.821-14.066-5.122-33.147-12.071-47.181-17.182l55.124-162.199 46.777 17.024c9.309 3.39 15.851 13.57 11.853 25.93l-6.319 19.214c-1.726 5.246 1.128 10.897 6.375 12.623 5.242 1.727 10.898-1.128 12.623-6.375l6.273-19.073c7.434-20.68-3.287-43.581-23.964-51.112l-7.06-2.569c2.24-12.677 3.392-25.604 3.392-38.554 0-121.588-98.394-220-220-220-121.587 0-220 98.395-220 220 0 12.95 1.152 25.877 3.391 38.553l-7.063 2.57c-20.673 7.53-31.394 30.431-23.962 51.11zm227.634 159.767c0-11.028 8.972-20 20-20s20 8.972 20 20v20h-40zm-196.831-192.083 46.78-17.025 55.124 162.2-47.181 17.18c-10.317 3.755-21.766-1.549-25.587-11.82-42.892-130.395-41-124.661-41.089-124.903-3.771-10.36 1.592-21.859 11.953-25.632z"/><circle cx="474" cy="371" r="10"/></g></svg>