<svg id="Layer_1" enable-background="new 0 0 3000 3000" height="512" viewBox="0 0 3000 3000" width="512" xmlns="http://www.w3.org/2000/svg"><g transform="translate(-1686)"><g transform="matrix(1.021 0 0 1.021 -43.924 -9.616)"><g id="Icons"><path clip-rule="evenodd" d="m2167.009 1037.39c-153.604-29.364-258.38 30.491-135.047 175.926 41.477 43.18-48.286 125.044-72.378 150.824-36.479 36.877-103.024 76.301-106.481 123.74-16.84 91.43 39.812 193.238 34.323 271.021-8.457 27.928-28.519 51.381-40.1 78.677-14.126 31.097-16.231 59.707-.531 82.61 26.98 38.422 58.703 58.528 92.172 69.392 46.871 16.5 101.122 11.982 153.063 36.404 10.007 8.499 11.339 20.896 15.62 34.482 19.842 108.751 98.788 119.68 166.673 164.121 126.171 102.133-10.085 263.65-20.832 340.953-15.832 66.074-7.276 131.264 3.266 197.647 18.838 135.23 18.307 123.185 136.678 67.796 219.161-121.708 242.291-128.495 421.207-171.41 107.435-26.382 332.499-67.686 383.59-91.011 32.561-13.81 60.253-34.677 94.344-41.055 80.494-15.404 165.56-5.941 247.348-16.422 50.66-5.14 96.905-27.042 145.053-40.384 75.008-15.205 150.865-23.654 201.008-16.301 28.076 3.948 57.136 17.248 80.413 29.704 164.157 90.602 182.819-35.559 236.755-8.835 34.769 29.574 50.177 87.677 99.161 88.096 22.283.593 46.302-11.938 78.101-50.336 47.217-59.762 25.148-113.857-15.953-161.614-31.401-35.699-71.099-65.448-92.75-93.716-115.104-154.264-162.28-319.759-98.807-466.23 206.739-499.479 332.407-538.508 318.807-640.952-7.957-96.945-82.534-170.164-92.338-257.768-10.154-82.521 8.25-159.502-13.964-238.185-51.424-175.679-233.702-257.595-402.854-267.551-264.821-9.469-262.508 112.334-418.668 90.708-46.06-4.825-60.464-11.289-77.813-29.78-87.235-88.106-180.78-237.059-282.8-287.406-82.83-44.408-201.255 16.993-285.74 41.135-39.355 13.856-28.054-111.579-122.895-127.24-26.987-7.055-98.445 6.032-134.944 37.615-63.261 80.731 35.124 78.464-140.578 147.085-68.31 31.07-99.895-19.286-150.343-54.342-121.064-91.743-178.454-53.587-248.238 55.563-50.764 42.056-90.493 55.253-111.39 119.366-53.977 145.321 58.797 245.495 102.184 367.403 13.377 28.33 5.457 59.369-2.274 88.662-22.62 86.303 36.31 119.156 57.952 201.608zm154.219 1764.498c-32.859-176.81-26.308-213.55 36.063-344.029 62.019-144.133 20.271-263.166-122.156-319.9-26.368-14.656-57.26-33.863-65.108-65.781-22.534-147.187-133.516-103.995-224.826-141.713-19.028-7.351-57.342-37.853-51.824-53.084 14.438-42.938 54.547-89.805 52.102-126.997-.361-85.833-50.348-185.013-35.5-254.746 12.651-36.102 62.794-59.614 86.638-87.961 147.809-144.371 104.155-195.281 76.796-235.166-69.218-83.507-39.436-89.967 54.338-82.286 32.317 2.553 79.104 22.301 92.395-15.565 27.82-76.523-70.585-164.91-58.325-208.967 12.059-60.495 22.691-92.229 2.767-139.891-46.305-125.167-204.869-292.277-37.231-397.941 23.417-14.768 41.47-32.782 56.382-56.306 82.569-159.196 180.51 51.115 283.675 55.441 33.794 1.737 67.777-12.599 111.495-31.006 93.851-43.159 108.663-64.543 114.44-129.55 1.06-16.891 30.996-25.934 49.693-31.825 30.71-9.057 54.002-7.02 70.147 16.004 26.28 42.098 34.572 98.581 78.688 109.114 96.055 3.918 226.088-103.293 309.439-34.378 148.982 105.856 221.558 308.973 342.648 307.699 151.336 22.704 170.235-39.504 283.393-73.161 206.755-58.29 497.607 37.079 511.437 263.565-6.133 314.575 36.998 219.227 95.315 422.266 8.798 68.731-65.008 128.98-94.734 185.639-64.932 111.837-194.49 347.792-238.104 496.387-30.373 91.929-12.977 204.539 37.665 318.219 98.781 234.443 279.691 251.537 182.213 347.431-15.081 12.693-16.033 19.314-30.12.424-121.294-183.859-164.986 9.029-261.074-43.147-146.198-76.584-183.311-58.359-324.629-43.009-59.395 10.532-109.861 38.77-169.149 46.059-83.199 11.768-167.508 2.14-248.785 16.392-20.255 3.028-40.758 10.529-59.975 19.857-82.905 47.841-169.693 55.043-263.618 78.025-474.72 100.294-371.222 107.099-642.571 233.887z" fill-rule="evenodd"/></g></g></g></svg>