<svg id="Layer_1" enable-background="new 0 0 512 512" viewBox="0 0 512 512" xmlns="http://www.w3.org/2000/svg"><g clip-rule="evenodd" fill-rule="evenodd"><g><path d="m315.558 419.988h-268.981c-8.075 0-14.665-6.588-14.665-14.665v-314.209c0-4.039 1.44-7.514 4.296-10.37l67.447-67.448c2.855-2.857 6.331-4.296 10.369-4.296h201.533c8.077 0 14.665 6.591 14.665 14.665v381.658c.001 8.075-6.591 14.665-14.664 14.665z" fill="#eff4f7"/><g fill="#e2e3e3"><path d="m315.558 419.988h-18.131c8.073 0 14.665-6.59 14.665-14.665v-381.658c0-8.075-6.588-14.665-14.665-14.665h18.131c8.077 0 14.665 6.591 14.665 14.665v381.658c0 8.075-6.592 14.665-14.665 14.665z"/><path d="m103.654 13.296-67.447 67.447c-1.304 1.304-2.313 2.738-3.024 4.295h61.525c7.292 0 13.241-5.948 13.241-13.241v-61.526c-1.557.712-2.99 1.72-4.295 3.025z"/></g></g><path d="m82.085 368.122c4.418 0 8 3.582 8 8s-3.582 8-8 8h-15.891c-4.418 0-8-3.582-8-8s3.582-8 8-8zm33.279 15.999c-4.418 0-8-3.582-8-8s3.582-8 8-8h180.577c4.418 0 8 3.582 8 8s-3.582 8-8 8zm-33.279-49.86c4.418 0 8 3.582 8 8s-3.582 8-8 8h-15.891c-4.418 0-8-3.582-8-8s3.582-8 8-8zm33.279 16c-4.418 0-8-3.582-8-8s3.582-8 8-8h180.577c4.418 0 8 3.582 8 8s-3.582 8-8 8z" fill="#8d9ca8"/><g><path d="m67.253 224.671h29.768c2.203 0 4 1.797 4 4v57.788c0 2.203-1.797 4-4 4h-29.768c-2.203 0-4-1.797-4-4v-57.788c0-2.203 1.797-4 4-4z" fill="#fc685b"/><path d="m91.021 224.671h6c2.203 0 4 1.797 4 4v57.788c0 2.203-1.797 4-4 4h-29.768c-2.203 0-4-1.797-4-4v-6h23.768c2.203 0 4-1.797 4-4z" fill="#f35244"/><path d="m133.206 151.765h29.768c2.203 0 4 1.797 4 4v130.695c0 2.203-1.797 4-4 4h-29.768c-2.203 0-4-1.797-4-4v-130.695c0-2.203 1.797-4 4-4z" fill="#ffda2d"/><path d="m156.974 151.765h6c2.203 0 4 1.797 4 4v130.695c0 2.203-1.797 4-4 4h-29.768c-2.203 0-4-1.797-4-4v-6h23.768c2.203 0 4-1.797 4-4z" fill="#ffc700"/><path d="m199.16 183.118h29.768c2.203 0 4 1.797 4 4v99.341c0 2.203-1.797 4-4 4h-29.768c-2.203 0-4-1.797-4-4v-99.341c0-2.203 1.797-4 4-4z" fill="#72d561"/><path d="m222.928 183.118h6c2.203 0 4 1.797 4 4v99.341c0 2.203-1.797 4-4 4h-29.768c-2.203 0-4-1.797-4-4v-6h23.768c2.203 0 4-1.797 4-4z" fill="#57ca5a"/><path d="m265.114 122.225h29.768c2.203 0 4 1.797 4 4v160.235c0 2.203-1.797 4-4 4h-29.768c-2.203 0-4-1.797-4-4v-160.235c0-2.204 1.797-4 4-4z" fill="#64b5f6"/><path d="m288.882 122.225h6c2.203 0 4 1.797 4 4v160.235c0 2.203-1.797 4-4 4h-29.768c-2.203 0-4-1.797-4-4v-6h23.768c2.203 0 4-1.797 4-4z" fill="#42a5f5"/><path d="m88.449 184.224c-2.692 3.486-7.701 4.13-11.188 1.437-3.486-2.692-4.13-7.701-1.438-11.188l65.954-85.751c2.618-3.389 7.426-4.091 10.894-1.653l60.576 40.593 49.21-45.435-7.805-.368c-4.401-.207-7.801-3.943-7.594-8.344s3.943-7.801 8.344-7.594l27.803 1.31c4.401.207 7.801 3.943 7.594 8.344-.023.493-.091.975-.199 1.439l-4.901 26.977c-.776 4.332-4.918 7.214-9.25 6.437-4.332-.776-7.214-4.918-6.438-9.25l.915-5.038-51.477 47.528-.006-.007c-2.648 2.44-6.714 2.848-9.837.757l-59.748-40.039z" fill="#b4d2d7"/><ellipse cx="82.137" cy="179.348" fill="#fc685b" rx="19.535" ry="19.535" transform="matrix(.707 -.707 .707 .707 -102.761 110.61)"/><path d="m82.137 159.813c7.158 0 13.415 3.85 16.817 9.592-3.227-2.355-7.202-3.745-11.502-3.745-10.789 0-19.535 8.746-19.535 19.535 0 3.632.992 7.031 2.718 9.943-4.869-3.553-8.033-9.301-8.033-15.79 0-10.789 8.746-19.535 19.535-19.535z" fill="#f35244"/><ellipse cx="148.091" cy="93.598" fill="#ffda2d" rx="19.535" ry="19.535" transform="matrix(.707 -.707 .707 .707 -22.809 132.13)"/><path d="m148.091 74.063c7.158 0 13.415 3.85 16.817 9.592-3.227-2.355-7.202-3.745-11.502-3.745-10.789 0-19.535 8.746-19.535 19.535 0 3.632.992 7.031 2.718 9.943-4.869-3.553-8.033-9.301-8.033-15.79-.001-10.789 8.745-19.535 19.535-19.535z" fill="#ffc700"/><path d="m214.045 157.331c10.759 0 19.535-8.776 19.535-19.535s-8.775-19.535-19.535-19.535-19.535 8.776-19.535 19.535 8.775 19.535 19.535 19.535z" fill="#72d561"/><path d="m214.045 118.261c7.158 0 13.415 3.85 16.817 9.592-3.227-2.355-7.202-3.745-11.502-3.745-10.789 0-19.535 8.746-19.535 19.535 0 3.632.992 7.031 2.718 9.943-4.869-3.553-8.033-9.301-8.033-15.79 0-10.789 8.746-19.535 19.535-19.535z" fill="#57ca5a"/></g><g><path d="m350.223 308.192c71.723 0 129.865 58.142 129.865 129.865 0 23.659-6.33 45.838-17.384 64.943l-39.912-23.044c7.131-12.326 11.215-26.635 11.215-41.899 0-46.273-37.511-83.784-83.784-83.784s-83.784 37.511-83.784 83.784c0 15.263 4.083 29.572 11.214 41.897l-39.912 23.044c-11.054-19.103-17.383-41.283-17.383-64.941 0-71.722 58.143-129.865 129.865-129.865z" fill="#ffda2d"/><path d="m433.004 485.852-10.212-5.896c7.131-12.326 11.215-26.635 11.215-41.899 0-46.273-37.511-83.784-83.784-83.784s-83.784 37.511-83.784 83.784c0 15.263 4.083 29.572 11.214 41.897l-10.211 5.896c-8.134-14.06-12.793-30.382-12.793-47.793 0-52.784 42.79-95.575 95.575-95.575s95.575 42.79 95.575 95.575c-.001 17.413-4.659 33.736-12.795 47.795z" fill="#ffc700"/><path d="m308.324 365.486c-7.682-13.304-15.363-26.609-23.045-39.914-19.707 11.402-36.139 27.835-47.542 47.542-11.053 19.104-17.38 41.285-17.38 64.943h46.081c0-15.264 4.081-29.574 11.213-41.899 7.357-12.714 17.959-23.316 30.673-30.672z" fill="#fdb800"/><path d="m308.324 365.486-5.895-10.21c-28.562 16.526-47.781 47.409-47.781 82.781h11.79c0-15.264 4.081-29.574 11.213-41.899 7.357-12.714 17.959-23.316 30.673-30.672z" fill="#f4a40e"/><path d="m285.279 325.573c-19.707 11.402-36.139 27.835-47.542 47.542 13.305 7.682 26.609 15.363 39.914 23.044 7.356-12.714 17.958-23.316 30.672-30.672 12.325-7.131 26.635-11.213 41.9-11.213 0-15.361 0-30.721 0-46.081-23.658-.001-45.839 6.326-64.944 17.38z" fill="#72d561"/><path d="m267.442 390.264 10.21 5.895c7.356-12.714 17.958-23.316 30.672-30.672 12.325-7.131 26.635-11.213 41.9-11.213v-11.791c-35.373 0-66.256 19.218-82.782 47.781z" fill="#57ca5a"/><path d="m350.224 318.273v-10.08c-23.659 0-45.84 6.326-64.944 17.38 7.682 13.304 15.363 26.609 23.045 39.914 12.325-7.131 26.635-11.213 41.899-11.213 15.264 0 29.574 4.081 41.899 11.213 7.681-13.305 15.363-26.609 23.044-39.914-19.104-11.053-41.285-17.38-64.943-17.38z" fill="#3cbe52"/><path d="m302.429 355.276 5.895 10.21c12.325-7.131 26.635-11.213 41.899-11.213 15.264 0 29.574 4.081 41.899 11.213l5.895-10.21c-14.059-8.135-30.382-12.793-47.794-12.793-17.411 0-33.734 4.659-47.794 12.793z" fill="#30aa44"/><path d="m415.167 325.572c-19.104-11.053-41.285-17.38-64.943-17.38v46.081c15.264 0 29.574 4.081 41.899 11.213 12.714 7.356 23.316 17.958 30.672 30.672 13.305-7.682 26.609-15.363 39.914-23.044-11.403-19.706-27.836-36.14-47.542-47.542z" fill="#64b5f6"/><path d="m350.224 342.483v11.791c15.264 0 29.574 4.081 41.899 11.213 12.714 7.356 23.316 17.958 30.672 30.672l10.21-5.895c-16.527-28.563-47.409-47.781-82.781-47.781z" fill="#42a5f5"/><path d="m462.708 373.114c-11.402-19.707-27.835-36.14-47.542-47.542-7.682 13.305-15.363 26.609-23.044 39.914 12.714 7.356 23.316 17.958 30.672 30.672 7.131 12.325 11.213 26.635 11.213 41.899h46.081c0-23.658-6.326-45.839-17.38-64.943z" fill="#2d90f1"/><path d="m398.017 355.276-5.895 10.21c12.714 7.356 23.316 17.958 30.672 30.672 7.131 12.325 11.213 26.635 11.213 41.899h11.791c0-35.372-19.218-66.255-47.781-82.781z" fill="#1d83d4"/><path d="m480.088 438.057c0-23.658-6.327-45.839-17.38-64.943-13.304 7.682-26.609 15.363-39.914 23.044 7.131 12.325 11.213 26.635 11.213 41.899s-4.084 29.573-11.215 41.899l39.912 23.044c11.054-19.104 17.384-41.284 17.384-64.943z" fill="#fc685b"/><path d="m433.005 390.264-10.21 5.895c7.131 12.325 11.213 26.635 11.213 41.899s-4.084 29.573-11.215 41.899l10.212 5.896c8.135-14.06 12.794-30.383 12.794-47.795-.001-17.412-4.659-33.735-12.794-47.794z" fill="#f35244"/><path d="m462.704 503c11.054-19.104 17.384-41.284 17.384-64.943-15.36 0-30.721 0-46.081 0 0 15.264-4.084 29.573-11.215 41.899z" fill="#eb423f"/><path d="m445.798 438.057h-11.791c0 15.264-4.084 29.573-11.215 41.899l10.212 5.896c8.136-14.06 12.794-30.382 12.794-47.795z" fill="#cf312e"/><path d="m394.368 403.355c3.814-2.209 8.697-.908 10.906 2.906s.908 8.697-2.906 10.906l-40.123 23.165c-3.814 2.209-8.697.908-10.906-2.906s-.908-8.697 2.906-10.906z" fill="#8d9ca8"/><path d="m350.223 461.297c12.8 0 23.24-10.44 23.24-23.24 0-12.801-10.44-23.241-23.24-23.241-12.801 0-23.241 10.44-23.241 23.241.001 12.801 10.441 23.24 23.241 23.24z" fill="#64b5f6"/><path d="m350.223 414.817c8.623 0 16.149 4.696 20.16 11.671-3.998-3.253-9.098-5.204-14.654-5.204-12.835 0-23.24 10.405-23.24 23.24 0 4.212 1.121 8.163 3.08 11.57-5.239-4.261-8.586-10.758-8.586-18.037 0-12.835 10.405-23.24 23.24-23.24z" fill="#42a5f5"/></g></g></svg>