<svg id="Capa_1" enable-background="new 0 0 512 512" height="512" viewBox="0 0 512 512" width="512" xmlns="http://www.w3.org/2000/svg"><g><path d="m193.875 364.719v-139.781l-46.594-15.532-46.593 15.532v139.781h-46.594l93.187 139.781 93.188-139.781z" fill="#a2e62e"/><path d="m426.844 147.281v155.313h-93.188v-155.313h-46.594l93.188-139.781 93.188 139.781z" fill="#fd4755"/><path d="m380.25 7.5-13.333 20 49.685 74.528c7.196 10.794-.542 25.253-13.515 25.253-8.971 0-16.243 7.272-16.243 16.243v57.476c0 19.33-15.67 35-35 35h-18.188v66.594h93.188v-155.313h46.594z" fill="#fb2b3a"/><path d="m193.875 364.719v-139.781l-46.594-15.531-46.594 15.531v20h43.188c5.523 0 10 4.477 10 10v73.538c0 8.971 7.272 16.243 16.243 16.243 12.973 0 20.711 14.459 13.515 25.253l-55.551 83.326c-2.489 3.733-5.731 6.527-9.348 8.382l28.547 42.82 93.188-139.781z" fill="#97d729"/><path d="m380.891 364.722c-17.169-.174-31.561-13.634-31.703-30.803-.143-17.276 13.819-31.325 31.061-31.325 17.155 0 31.062 13.907 31.062 31.062h31.062c0-28.948-19.799-53.27-46.594-60.167v-17.489h-31.062v17.514c-26.129 6.808-45.803 30.365-46.57 58.401-.954 34.89 26.868 63.513 61.46 63.863 17.169.174 31.561 13.634 31.703 30.803.143 17.276-13.819 31.325-31.061 31.325-17.155 0-31.063-13.907-31.062-31.062h-31.062c0 28.949 19.799 53.27 46.594 60.167v17.489h31.062v-17.514c26.129-6.808 45.803-30.365 46.57-58.401.954-34.891-26.867-63.513-61.46-63.863z" fill="#a2e62e"/><path d="m241 224.938h-187.437c-8.284 0-15-6.716-15-15v-187.438c0-8.284 6.716-15 15-15h62.656l31.062 15.531 31.063-15.531h62.656c8.284 0 15 6.716 15 15v187.438c0 8.284-6.716 15-15 15z" fill="#fea95c"/><path d="m241 7.5h-25v147.438c0 27.614-22.386 50-50 50h-127.437v5c0 8.284 6.716 15 15 15h187.437c8.284 0 15-6.716 15-15v-187.438c0-8.284-6.716-15-15-15z" fill="#fe9738"/><path d="m116.219 7.5h62.125v46.594h-62.125z" fill="#fedbbd"/><path d="m178.344 162.812h46.594v31.062h-46.594z" fill="#fff"/><path d="m197.369 193.875h27.568v-31.062h-9.555c-1.977 12.499-8.585 23.457-18.013 31.062z" fill="#eaf9fa"/><path d="m241 0h-187.438c-12.407 0-22.5 10.093-22.5 22.5v19.891c0 4.142 3.358 7.5 7.5 7.5s7.5-3.358 7.5-7.5v-19.891c0-4.136 3.364-7.5 7.5-7.5h55.156v39.094c0 4.142 3.358 7.5 7.5 7.5h62.125c4.142 0 7.5-3.358 7.5-7.5v-39.094h55.157c4.136 0 7.5 3.364 7.5 7.5v187.438c0 4.136-3.364 7.5-7.5 7.5h-187.438c-4.136 0-7.5-3.364-7.5-7.5v-132.547c0-4.142-3.358-7.5-7.5-7.5s-7.5 3.358-7.5 7.5v132.547c0 12.407 10.093 22.5 22.5 22.5h39.625v124.781h-39.093c-2.766 0-5.308 1.522-6.613 3.961s-1.162 5.398.373 7.699l93.188 139.781c1.391 2.086 3.732 3.34 6.24 3.34s4.85-1.253 6.24-3.34l56.065-84.098c2.298-3.446 1.367-8.103-2.08-10.4-3.446-2.298-8.104-1.367-10.4 2.08l-49.825 74.737-79.174-118.76h32.58c4.142 0 7.5-3.358 7.5-7.5v-132.281h78.188v132.281c0 4.142 3.358 7.5 7.5 7.5h32.58l-10.126 15.19c-2.298 3.446-1.367 8.103 2.08 10.4 3.441 2.294 8.099 1.373 10.4-2.08l17.9-26.85c1.535-2.301 1.677-5.26.373-7.699-1.305-2.438-3.847-3.961-6.613-3.961h-39.094v-124.781h39.624c12.407 0 22.5-10.093 22.5-22.5v-187.438c0-12.407-10.093-22.5-22.5-22.5zm-70.156 46.594h-47.125v-31.594h47.125z"/><path d="m224.938 201.375c4.142 0 7.5-3.358 7.5-7.5v-31.062c0-4.142-3.358-7.5-7.5-7.5h-46.594c-4.142 0-7.5 3.358-7.5 7.5v31.062c0 4.142 3.358 7.5 7.5 7.5zm-39.094-31.063h31.594v16.062h-31.594z"/><path d="m479.678 143.121-93.188-139.781c-1.39-2.087-3.732-3.34-6.24-3.34s-4.85 1.253-6.24 3.34l-93.188 139.781c-1.534 2.301-1.677 5.26-.373 7.699 1.305 2.438 3.847 3.961 6.613 3.961h39.094v135.21c-9.386 11.609-15.08 26.174-15.505 41.72-.515 18.845 6.393 36.688 19.449 50.243 13.062 13.561 30.618 21.134 49.432 21.324 13.283.135 24.175 10.617 24.279 23.366.053 6.334-2.373 12.297-6.831 16.792s-10.399 6.971-16.73 6.971c-12.992 0-23.562-10.57-23.562-23.562 0-4.142-3.357-7.5-7.5-7.5h-31.062c-4.143 0-7.5 3.358-7.5 7.5 0 29.809 18.887 56.048 46.594 65.726v11.93c0 4.142 3.357 7.5 7.5 7.5h31.062c4.143 0 7.5-3.358 7.5-7.5v-11.975c26.922-9.515 45.78-34.944 46.567-63.736.515-18.845-6.393-36.688-19.448-50.243-13.062-13.561-30.618-21.134-49.433-21.324-13.283-.134-24.175-10.616-24.279-23.366-.053-6.334 2.373-12.297 6.831-16.792s10.4-6.971 16.73-6.971c12.992 0 23.562 10.57 23.562 23.562 0 4.142 3.357 7.5 7.5 7.5h31.062c4.143 0 7.5-3.358 7.5-7.5 0-16.432-5.74-31.778-15.531-43.865v-76.216c0-4.142-3.357-7.5-7.5-7.5s-7.5 3.358-7.5 7.5v62.432c-4.912-3.332-10.296-6.064-16.062-8.078v-11.929c0-4.142-3.357-7.5-7.5-7.5h-31.062c-4.143 0-7.5 3.358-7.5 7.5v11.975c-5.755 2.034-11.142 4.796-16.062 8.163v-128.857c0-4.142-3.357-7.5-7.5-7.5h-32.58l79.174-118.76 79.174 118.76h-32.58c-4.143 0-7.5 3.358-7.5 7.5v31.295c0 4.142 3.357 7.5 7.5 7.5s7.5-3.358 7.5-7.5v-23.795h39.094c2.766 0 5.308-1.522 6.612-3.961s1.161-5.398-.373-7.699zm-113.068 137.651c3.303-.861 5.608-3.844 5.608-7.258v-10.014h16.062v9.989c0 3.422 2.316 6.41 5.631 7.263 21.474 5.527 37.434 23.509 40.45 45.404h-16.281c-3.5-17.686-19.133-31.062-37.83-31.062-10.36 0-20.085 4.051-27.381 11.408-7.295 7.356-11.266 17.114-11.181 27.479.173 20.87 17.725 38.025 39.127 38.241 14.76.149 28.532 6.091 38.781 16.731 10.243 10.634 15.662 24.636 15.258 39.427-.66 24.121-17.505 45.236-40.964 51.348-3.304.861-5.609 3.844-5.609 7.258v10.014h-16.062v-9.989c0-3.422-2.316-6.41-5.631-7.263-21.664-5.576-37.46-23.698-40.45-45.404h16.282c3.5 17.686 19.133 31.062 37.83 31.062 10.36 0 20.085-4.051 27.381-11.408 7.295-7.355 11.266-17.114 11.181-27.479-.173-20.87-17.725-38.024-39.127-38.241-14.76-.149-28.532-6.091-38.781-16.731-10.243-10.634-15.662-24.636-15.258-39.427.654-23.945 17.342-45.193 40.964-51.348z"/></g></svg>