<svg clip-rule="evenodd" fill-rule="evenodd" height="512" image-rendering="optimizeQuality" shape-rendering="geometricPrecision" text-rendering="geometricPrecision" viewBox="0 0 4335 4335" width="512" xmlns="http://www.w3.org/2000/svg"><g id="Layer_x0020_1"><path d="m1591 4194v-359h-447v359zm-363-2755h-1170c-31 0-57-26-57-58v-1298c0-32 26-58 57-58h1170c32 0 58 26 58 58v1298c0 32-26 58-58 58zm-1112-116h1054v-1182h-1054zm4161 1697h-1267c-32 0-58-25-58-57v-852c-1-34 27-62 60-61h1263c32 0 59 24 59 58v855c0 32-26 57-57 57zm-1210-115h1152v-689c-163 110-387 268-546 368l-1 1c-19 11-43 10-62-2l-543-367zm1021-739h-890l445 300zm-3296 943h-474c-32 0-58-26-58-58 0-544-259-368-259-784 0-305 248-554 554-554 305 0 553 249 553 554 0 416-259 241-259 784 0 32-26 58-57 58zm-418-115h361c17-514 258-393 258-727 0-242-197-438-438-438-242 0-439 196-439 438 0 334 241 213 258 727zm422-669c-32 0-58-26-58-58 0-101-82-183-183-183-75 0-75-115 0-115 271 0 376 356 241 356zm-29 944h-425c-74 0-74-116 0-116h425c75 0 75 116 0 116zm-61 159h-303c-75 0-75-115 0-115h303c75 0 75 115 0 115zm112-3088h-350c-74 0-74-116 0-116h350c75 0 75 116 0 116zm211 225h-771c-75 0-75-116 0-116h771c74 0 74 116 0 116zm0 225h-771c-75 0-75-116 0-116h771c74 0 74 116 0 116zm0 225h-771c-75 0-75-116 0-116h771c74 0 74 116 0 116zm0 225h-771c-75 0-75-116 0-116h771c74 0 74 116 0 116zm2665 329h-198c-27 0-50-19-56-45l-37-162c-74-25-142-65-201-116-242 74-182 98-325-149-13-23-9-53 11-71l122-113c-15-76-15-156 0-232-186-172-176-109-34-356 14-23 41-34 67-26l159 49c59-51 127-91 201-116l37-162c6-26 29-45 56-45h198c27 0 50 19 56 45l37 162c74 25 142 65 201 116 241-74 182-98 325 149 13 23 9 52-11 71l-122 113c15 76 15 156 0 232 185 171 176 109 34 355-14 24-41 34-67 27l-159-49c-59 51-127 91-201 116l-37 162c-6 26-29 45-56 45zm-152-116h106l34-150c15-66 119-34 250-163 16-15 38-21 58-14l147 45 53-92c-195-181-114-77-114-282s-81-101 114-282l-53-92-147 45c-66 20-90-86-267-135-21-6-36-22-41-43l-34-149h-106l-34 149c-15 67-119 35-251 164-15 15-37 20-57 14l-147-45-53 92c195 181 114 77 114 282s81 101-114 282l53 92 147-45c65-21 90 86 267 135 20 5 36 22 41 43zm53-297c-198 0-359-161-359-359s161-359 359-359 359 161 359 359-161 359-359 359zm0-603c-134 0-244 110-244 244s110 244 244 244 244-110 244-244-110-244-244-244zm-2451 3167h447c0-48-14-138 58-138 32 0 58 26 58 58v554h918v-554c0-75 115-75 115 0v80h447v-55c0-292-237-530-529-530h-191l-252 432c-21 37-77 37-99 0l-252-432h-191c-292 0-529 238-529 530zm2101 590h-2159c-32 0-58-26-58-58v-587c0-356 290-645 645-645h191l41-70c-308-177-253-489-263-520-147-189-172-425-69-650 189-412 747-641 1002-189 49 11 140 45 197 142 88 150 58 382-87 690-10 44 44 348-259 525l41 72h191c356 0 645 289 645 645v587c0 32-26 58-58 58zm-1281-1232 202 345 201-345-47-83c-98 31-211 31-309 1zm776 1116h447v-359h-447zm-1098-2012c0-151 52-293 164-398 60-57 114 63 358 63 243 0 297-120 358-63 89 85 146 199 160 321 42-163 23-257-9-312-69-120-157-64-187-124-265-521-977 29-844 513zm215-286c-64 74-100 169-100 267v334c0 309 328 485 561 376 146-69 252-201 252-376v-334c0-98-36-193-100-267-186 87-427 87-613 0z" fill="#333"/><path d="m735 2994c17-514 258-393 258-727 0-242-197-438-438-438-242 0-439 196-439 438 0 334 241 213 258 727zm61-669c-32 0-58-26-58-58 0-101-82-183-183-183-75 0-75-115 0-115 271 0 376 356 241 356z" fill="#ffa721"/><path d="m1029 449c74 0 74 116 0 116h-771c-75 0-75-116 0-116zm-771 225h771c74 0 74 116 0 116h-771c-75 0-75-116 0-116zm0 225h771c74 0 74 116 0 116h-771c-75 0-75-116 0-116zm0 225h771c74 0 74 116 0 116h-771c-75 0-75-116 0-116zm-142 199h1054v-1182h-1054zm702-1099c75 0 75 116 0 116h-350c-74 0-74-116 0-116z" fill="#ffe4af"/><path d="m2486 1669c-265-521-977 29-844 513 0-151 52-293 164-398 60-57 114 63 358 63 243 0 297-120 358-63 89 85 146 199 160 321 42-163 23-257-9-312-69-120-157-64-187-124z" fill="#58535a"/><path d="m2470 1896c-186 87-427 87-613 0-64 74-100 169-100 267v334c0 309 328 485 561 376 146-69 252-201 252-376v-334c0-98-36-193-100-267z" fill="#ff9e5c"/><path d="m2320 2995c-98 31-211 31-309 1l-47 82 202 345 201-345z" fill="#ff9e5c"/><path d="m2116 3567-252-432h-191c-292 0-529 238-529 530v55h447c0-48-14-138 58-138 32 0 58 26 58 58v554h918v-554c0-75 115-75 115 0v80h447v-55c0-292-237-530-529-530h-191l-252 432c-21 37-77 37-99 0z" fill="#ffa721"/><path d="m1591 4194v-359h-447v359z" fill="#ff9e5c"/><path d="m2740 3835v359h447v-359z" fill="#ff9e5c"/><path d="m3067 2905h1152v-689c-163 110-387 268-546 368l-1 1c-19 11-43 10-62-2l-543-367z" fill="#ffa721"/><path d="m3643 2466 445-300h-890z" fill="#ffa721"/><path d="m3648 1453 34-150c15-66 119-34 250-163 16-15 38-21 58-14l147 45 53-92c-195-181-114-77-114-282s-81-101 114-282l-53-92-147 45c-66 20-90-86-267-135-21-6-36-22-41-43l-34-149h-106l-34 149c-15 67-119 35-251 164-15 15-37 20-57 14l-147-45-53 92c195 181 114 77 114 282s81 101-114 282l53 92 147-45c65-21 90 86 267 135 20 5 36 22 41 43l34 149zm306-656c0 198-161 359-359 359s-359-161-359-359 161-359 359-359 359 161 359 359z" fill="#8f46da"/></g></svg>