<svg id="Capa_1" enable-background="new 0 0 510 510" height="512" viewBox="0 0 510 510" width="512" xmlns="http://www.w3.org/2000/svg"><g><path d="m0 0v330h180l10-128.5-10-80.688-60-120.812z" fill="#ba6d59"/><path d="m180 120.812v209.188h33.015l146.985-120v-210h-120z" fill="#a64e4e"/><g id="XMLID_139_"><g><path d="m60 180h90v30h-90z" fill="#565686"/></g></g><g id="XMLID_138_"><path d="m60 240h60v30h-60z" fill="#565686"/></g><path d="m120 0v140.811l60-19.999 10-61.812-10-59z" fill="#fbbd00"/><path d="m180 0v120.812l60 19.999v-140.811z" fill="#fd8f01"/><g><path d="m210 360c0 82.711 67.29 150 150 150l20-157-20-143c-82.71 0-150 67.289-150 150z" fill="#fdd82e"/><path d="m360 210v300c82.71 0 150-67.289 150-150s-67.29-150-150-150z" fill="#fbbd00"/><path d="m345 330c0 8.272 6.728 15 15 15l10-15-10-15c-8.272 0-15 6.728-15 15z" fill="#fbbd00"/><path d="m375 240.936-15 74.064v30l15 134.064c59.114-7.404 105-57.975 105-119.064s-45.886-111.66-105-119.064z" fill="#fd8f01"/><path d="m345 240.936c-59.114 7.404-105 57.975-105 119.064s45.886 111.66 105 119.064v-44.064l15-30 10-16.333-10-13.667v-30l-10-13.5 10-16.5z" fill="#fbbd00"/><path d="m375 390c0-8.272-6.729-15-15-15v30c8.271 0 15-6.728 15-15z" fill="#fd8f01"/><path d="m315 405v30h30v44.064c4.915.615 9.921.936 15 .936l10-45.5-10-29.5z" fill="#fdf3f3"/><path d="m345 330c0-8.272 6.728-15 15-15l10-26.5-10-48.5c-5.079 0-10.085.32-15 .936v46.645c-17.459 6.192-30 22.865-30 42.42 0 24.812 20.186 45 45 45l10-13-10-17c-8.272-.001-15-6.729-15-15.001z" fill="#fdf3f3"/><g fill="#ebe4f0"><path d="m375 390c0 8.272-6.729 15-15 15v75c5.079 0 10.085-.32 15-.936v-46.644c17.459-6.192 30-22.865 30-42.42 0-24.812-20.187-45-45-45v30c8.271 0 15 6.728 15 15z"/><path d="m405 315v-30h-30v-44.064c-4.915-.615-9.921-.936-15-.936v75z"/></g></g></g></svg>