<svg fill="#FFBA0C" stroke="#FFBA0C"  id="Layer_1" enable-background="new 0 0 512 512" viewBox="0 0 512 512" xmlns="http://www.w3.org/2000/svg"><path d="m426.41 85.59c-6.85-6.86-14.17-13.33-21.74-19.29l-12.98-37.2c-.72-2.06-2.49-3.56-4.64-3.94-2.14-.37-4.32.44-5.69 2.14l-12.64 15.62c-43.9-23.21-95.01-32.38-144.52-25.82-52.88 7-100.81 30.68-138.62 68.49-45.51 45.52-70.58 106.04-70.58 170.41s25.07 124.89 70.59 170.41c6.85 6.85 14.16 13.33 21.74 19.29l12.98 37.2c.72 2.06 2.49 3.56 4.64 3.94 2.14.37 4.32-.44 5.69-2.14l12.64-15.62c34.64 18.32 73.78 27.89 113.07 27.89 10.5 0 21.01-.68 31.45-2.06 52.88-7 100.81-30.68 138.62-68.49 45.51-45.53 70.58-106.05 70.58-170.42s-25.07-124.89-70.59-170.41zm-332.34 332.34c-43.25-43.25-67.07-100.76-67.07-161.93s23.82-118.68 67.07-161.93c72.01-72.02 184.38-87.75 273.26-38.26 2.55 1.42 5.75.8 7.58-1.47l9-11.12 17.94 51.43-55.71-4.77 7.76-9.59c1.13-1.4 1.58-3.24 1.21-5s-1.51-3.27-3.11-4.1c-38.97-20.26-82.65-27.58-126.33-21.19-44.54 6.52-84.96 26.85-116.89 58.77-39.31 39.34-60.97 91.62-60.97 147.23s21.66 107.89 60.98 147.21c.73.73 1.47 1.44 2.21 2.16l-9.06-.78c-2.01-.17-4 .69-5.25 2.3s-1.6 3.74-.93 5.66l3.7 10.59c-1.82-1.71-3.62-3.45-5.39-5.21zm300.66-300.66c37.05 37.05 57.46 86.32 57.46 138.73 0 52.4-20.41 101.67-57.46 138.73-59.08 59.08-147.67 74.21-222.59 38.7l10.16-12.56c1.4-1.73 1.73-4.08.86-6.12s-2.8-3.44-5.01-3.63l-47.32-4.05c-4.68-3.89-9.24-8.02-13.55-12.34-37.06-37.06-57.47-86.33-57.47-138.73s20.41-101.67 57.46-138.73c59.09-59.08 147.68-74.21 222.59-38.7l-10.16 12.56c-1.4 1.73-1.73 4.08-.86 6.12s2.8 3.44 5.01 3.63l47.32 4.05c4.69 3.89 9.24 8.03 13.56 12.34zm23.2 300.66c-43.95 43.94-102.91 66.93-162.4 66.93-38 0-76.22-9.38-110.86-28.67-2.55-1.42-5.75-.8-7.58 1.47l-9 11.12-17.94-51.43 55.71 4.77-7.76 9.59c-1.13 1.4-1.58 3.24-1.21 5s1.51 3.27 3.11 4.1c38.97 20.26 82.65 27.58 126.33 21.19 44.54-6.52 84.96-26.85 116.89-58.77 39.32-39.32 60.98-91.6 60.98-147.21s-21.66-107.89-60.98-147.21c-.73-.73-1.47-1.44-2.21-2.16l9.06.78c2.02.17 4-.69 5.25-2.3s1.6-3.74.93-5.66l-3.7-10.59c1.82 1.71 3.62 3.45 5.39 5.21 43.24 43.23 67.06 100.74 67.06 161.91s-23.82 118.68-67.07 161.93zm-84.39-165.34h57.98c1.92 0 3.72.92 4.85 2.47s1.45 3.55.86 5.38l-34.56 106.72c-.82 2.54-3.18 4.15-5.71 4.15-.61 0-1.24-.09-1.85-.29-3.15-1.02-4.88-4.4-3.86-7.56l32.02-98.88h-49.73c-3.31 0-6-2.69-6-6s2.69-5.99 6-5.99zm-70.97 73.98 73.83-172.28c1.3-3.05 4.83-4.46 7.88-3.15s4.46 4.83 3.15 7.88l-73.83 172.27c-.97 2.28-3.19 3.64-5.52 3.64-.79 0-1.59-.16-2.36-.49-3.05-1.3-4.46-4.83-3.15-7.87zm-136.05-79.16h58.46c3.31 0 6 2.69 6 6s-2.69 6-6 6h-64.51c-3.31 0-6-2.69-6-6v-3.55c0-33.37 21.33-39.86 38.47-45.08 16.55-5.04 25.92-8.73 26.04-25.85 0-14.45-11.78-26.23-26.25-26.23s-26.25 11.79-26.25 26.27c0 3.31-2.69 6-6 6s-6-2.69-6-6c0-21.1 17.16-38.27 38.25-38.27s38.25 17.17 38.25 38.27c-.18 26.82-19.23 32.63-34.54 37.29-16.17 4.91-29.05 8.84-29.92 31.15zm145.29-22.29c3.31 0 6-2.69 6-6s-2.69-6-6-6h-13.43v-66.44c0-3.31-2.69-6-6-6-2.05 0-3.85 1.03-4.93 2.59l-50.08 72.44c-1.27 1.84-1.41 4.22-.38 6.2 1.04 1.98 3.08 3.21 5.31 3.21h44.08v28.28c0 3.31 2.69 6 6 6s6-2.69 6-6v-28.28zm-25.43-59.21v47.21h-32.64z"/></svg>