<svg id="Capa_1" fill="#FFBA0C" stroke="#FFBA0C"  enable-background="new 0 0 512 512" height="512" viewBox="0 0 512 512" width="512" xmlns="http://www.w3.org/2000/svg"><g><path d="m58.315 0c-22.018 0-39.931 17.913-39.931 39.932v45.169c0 6.895 5.608 12.503 12.503 12.503h52.361v64.985h-22.81c-7.581 0-13.748 6.167-13.748 13.748v29.424c0 7.581 6.167 13.748 13.748 13.748h22.81v146.716c0 4.143 3.357 7.5 7.5 7.5s7.5-3.357 7.5-7.5v-146.716h82.842v13.251c0 5.331 2.975 10.099 7.763 12.441 1.953.956 4.037 1.426 6.108 1.426 3.009 0 5.986-.992 8.48-2.93l53.675-41.712c3.402-2.644 5.354-6.63 5.353-10.938 0-4.308-1.951-8.293-5.352-10.935l-53.677-41.713c-4.209-3.268-9.799-3.848-14.588-1.503-4.788 2.343-7.763 7.11-7.763 12.44v13.252h-82.841v-71.484c0-.169-.014-.334-.025-.5.011-.166.025-.331.025-.5v-50.172c0-9.426-3.291-18.094-8.773-24.932h298.657c13.747 0 24.932 11.185 24.932 24.932v46.81c0 .124.013.246.018.369-36.78 3.758-65.57 34.915-65.57 72.671 0 37.75 28.781 68.901 65.552 72.668v60.042h-38.588c-4.143 0-7.5 3.357-7.5 7.5s3.357 7.5 7.5 7.5h75.834v26.92h-126.9c-4.143 0-7.5 3.357-7.5 7.5v18.404l-50.655-39.364 50.655-39.364v18.404c0 4.143 3.357 7.5 7.5 7.5h18.379c4.142 0 7.5-3.357 7.5-7.5s-3.358-7.5-7.5-7.5h-10.879v-13.252c0-5.331-2.975-10.099-7.763-12.441-4.792-2.345-10.378-1.767-14.589 1.504l-53.675 41.712c-3.402 2.644-5.354 6.63-5.353 10.939 0 4.308 1.951 8.293 5.352 10.935l53.677 41.713c2.493 1.937 5.471 2.929 8.48 2.929 2.07 0 4.156-.47 6.108-1.426 4.788-2.343 7.763-7.11 7.763-12.44v-13.252h82.153v64.985h-252.85c-6.893 0-12.5 5.607-12.5 12.5v45.172c0 13.719-11.139 24.884-24.847 24.929-13.575-.166-24.619-11.347-24.619-24.929v-73.157c0-4.143-3.357-7.5-7.5-7.5s-7.5 3.357-7.5 7.5v73.157c0 21.757 17.694 39.668 39.444 39.928l330.305.002c22.018 0 39.932-17.913 39.932-39.932v-45.172c0-6.893-5.607-12.5-12.5-12.5h-52.364v-64.985h23.498c7.581 0 13.748-6.167 13.748-13.748v-29.424c0-7.581-6.167-13.748-13.748-13.748h-23.498v-60.041c36.771-3.767 65.553-34.919 65.553-72.668 0-13.531-3.729-26.748-10.786-38.222-2.171-3.529-6.79-4.628-10.317-2.46-3.528 2.17-4.63 6.789-2.46 10.317 5.603 9.109 8.564 19.609 8.564 30.364 0 32.01-26.042 58.052-58.053 58.052-32.01 0-58.052-26.042-58.052-58.052s26.042-58.052 58.052-58.052c10.026 0 19.905 2.595 28.571 7.503 3.6 2.043 8.18.775 10.222-2.829s.775-8.181-2.829-10.222c-8.747-4.956-18.474-8.034-28.483-9.063.006-.126.019-.25.019-.378v-46.81c-.001-22.017-17.915-39.93-39.933-39.93zm130.275 177.589c4.143 0 7.5-3.357 7.5-7.5v-18.404l50.655 39.364-50.655 39.364v-18.404c0-4.143-3.357-7.5-7.5-7.5h-126.9v-26.92zm-155.206-137.657c0-13.747 11.184-24.932 24.931-24.932 13.748 0 24.933 11.185 24.933 24.932v42.672h-49.864zm444.544 432.136c0 13.747-11.185 24.932-24.932 24.932h-299.043c5.479-6.837 8.761-15.508 8.761-24.932v-42.672h315.214z"/><path d="m420.564 111.051c-4.143 0-7.5 3.357-7.5 7.5v41.23c0 4.143 3.357 7.5 7.5 7.5h25.356c4.143 0 7.5-3.357 7.5-7.5s-3.357-7.5-7.5-7.5h-17.856v-33.73c0-4.143-3.358-7.5-7.5-7.5z"/><path d="m134.119 280.377h83.762c4.143 0 7.5-3.358 7.5-7.5 0-4.143-3.357-7.5-7.5-7.5h-83.762c-4.143 0-7.5 3.357-7.5 7.5s3.358 7.5 7.5 7.5z"/><path d="m134.119 328.451h83.762c4.143 0 7.5-3.357 7.5-7.5s-3.357-7.5-7.5-7.5h-83.762c-4.143 0-7.5 3.357-7.5 7.5s3.358 7.5 7.5 7.5z"/><path d="m134.119 376.525h113.762c4.143 0 7.5-3.357 7.5-7.5s-3.357-7.5-7.5-7.5h-113.762c-4.143 0-7.5 3.357-7.5 7.5s3.358 7.5 7.5 7.5z"/><path d="m134.119 67.871h163.762c4.142 0 7.5-3.357 7.5-7.5s-3.358-7.5-7.5-7.5h-163.762c-4.143 0-7.5 3.357-7.5 7.5s3.358 7.5 7.5 7.5z"/><path d="m134.119 115.945h163.762c4.142 0 7.5-3.357 7.5-7.5s-3.358-7.5-7.5-7.5h-163.762c-4.143 0-7.5 3.357-7.5 7.5s3.358 7.5 7.5 7.5z"/></g></svg>