<svg clip-rule="evenodd" fill-rule="evenodd" height="512" image-rendering="optimizeQuality" shape-rendering="geometricPrecision" text-rendering="geometricPrecision" viewBox="0 0 512 512" width="512" xmlns="http://www.w3.org/2000/svg"><g id="Layer_x0020_1"><g id="_305544520"><path d="m338 481h-332c-3 0-6-2-6-6v-42c0-54 44-98 97-98h38c2 0 4 1 5 3h64c1-2 3-3 6-3h37c54 0 97 44 97 98v42c0 4-2 6-6 6z" fill="#755a71"/><path d="m341 408c2 8 3 16 3 25v20h-43c-13 0-23-10-23-22 0-13 10-23 23-23z" fill="#938493"/><path d="m0 453v-20c0-9 1-17 3-25h41c12 0 22 10 22 23 0 12-10 22-22 22z" fill="#938493"/><path d="m202 311 2-3c0-3 2-6 6-6 3 0 6 3 6 6v33 1h-1c0 1 0 2-1 3l-35 50c-1 2-3 3-5 3s-4-1-5-2l-39-51c-1-1-1-3-1-4v-33c0-3 2-6 6-6 3 0 6 3 6 6l2 3c10 5 18 3 29 3s20 2 30-3z" fill="#fee1c3"/><path d="m172 327c-17 0-33-7-45-18-11-10-18-23-21-38h-4c-3 0-6-3-6-6v-29c0-3 3-6 6-6h2c0-7 0-15 0-23 0-3 3-6 6-6h124c4 0 6 3 6 6v23h2c4 0 6 3 6 6v29c0 3-2 6-6 6h-4c-2 15-9 28-20 38-13 11-29 18-46 18z" fill="#fed1a3"/><path d="m237 214h-130c-2 0-3-1-5-3l-24-33c-1-1-1-3-1-5 1-2 2-3 4-4l89-36c1-1 3-1 4 0l90 37c2 0 3 2 3 4 1 2 0 3-1 5l-24 32c-1 2-3 3-5 3z" fill="#7b6c79"/><path d="m172 187c-7 0-14-6-14-14s7-14 14-14c8 0 14 6 14 14s-6 14-14 14z" fill="#938493"/><path d="m219 443c-1 0-2 0-3-1-2-2-3-4-3-6l4-20-14-14c-2-1-3-4-2-6s3-4 5-4l20-3 8-18c1-2 4-3 6-3s4 1 5 3l9 18 20 3c2 0 4 2 5 4s0 5-2 6l-14 14 3 20c1 2 0 4-2 6-2 1-4 1-6 0l-18-10-18 10c-1 1-2 1-3 1z" fill="#eee1dd"/><path d="m506 345h-209c-4 0-6-3-6-6v-302c0-4 2-6 6-6h209c3 0 6 2 6 6v302c0 3-3 6-6 6z" fill="#2e9cf5"/><g fill="#87c5fe"><path d="m376 123h-53c-4 0-6-3-6-6v-44c0-3 2-6 6-6h53c3 0 6 3 6 6v44c0 3-3 6-6 6z"/><path d="m480 91h-80c-3 0-6-3-6-6s3-6 6-6h80c3 0 6 3 6 6s-3 6-6 6z"/><path d="m480 111h-80c-3 0-6-2-6-6 0-3 3-6 6-6h80c3 0 6 3 6 6 0 4-3 6-6 6z"/><path d="m376 216h-53c-4 0-6-3-6-6v-44c0-3 2-6 6-6h53c3 0 6 3 6 6v44c0 3-3 6-6 6z"/><path d="m480 184h-80c-3 0-6-3-6-6 0-4 3-6 6-6h80c3 0 6 2 6 6 0 3-3 6-6 6z"/><path d="m480 204h-80c-3 0-6-3-6-6s3-6 6-6h80c3 0 6 3 6 6s-3 6-6 6z"/><path d="m376 308h-53c-4 0-6-2-6-6v-44c0-3 2-6 6-6h53c3 0 6 3 6 6v44c0 4-3 6-6 6z"/><path d="m480 276h-80c-3 0-6-2-6-6 0-3 3-6 6-6h80c3 0 6 3 6 6 0 4-3 6-6 6z"/><path d="m480 297h-80c-3 0-6-3-6-6 0-4 3-6 6-6h80c3 0 6 2 6 6 0 3-3 6-6 6z"/></g><g fill="#938493"><path d="m178 427h-12c-3 0-6-3-6-6s3-6 6-6h12c3 0 6 3 6 6s-3 6-6 6z"/><path d="m178 446h-12c-3 0-6-3-6-6 0-4 3-6 6-6h12c3 0 6 2 6 6 0 3-3 6-6 6z"/><path d="m178 464h-12c-3 0-6-2-6-6 0-3 3-6 6-6h12c3 0 6 3 6 6 0 4-3 6-6 6z"/></g></g></g></svg>