<?xml version="1.0" encoding="iso-8859-1"?>
<!-- Generator: Adobe Illustrator 19.0.0, SVG Export Plug-In . SVG Version: 6.00 Build 0)  -->
<svg version="1.1" id="Capa_1" xmlns="http://www.w3.org/2000/svg" xmlns:xlink="http://www.w3.org/1999/xlink" x="0px" y="0px"
	 viewBox="0 0 512 512" style="enable-background:new 0 0 512 512;" xml:space="preserve">
<path style="fill:#0D70B2;" d="M361,105v106h-60V105c0-24.901-20.099-45-45-45s-45,20.099-45,45v106h-60V105C151,47.1,198.1,0,256,0
	S361,47.1,361,105z"/>
<path style="fill:#095C92;" d="M361,105v106h-60V105c0-24.901-20.099-45-45-45V0C313.899,0,361,47.1,361,105z"/>
<path style="fill:#B758CE;" d="M503.5,422l-30.601,30H39.1L8.5,422l17.1-173.5c3.6-35.7,31.5-63.3,66.301-66.899
	c2.699-0.3,5.4-0.601,8.399-0.601h311.4c2.999,0,5.7,0.3,8.399,0.601C454.9,185.201,482.8,212.8,486.4,248.5L503.5,422z"/>
<path style="fill:#9332B0;" d="M503.5,422l-30.601,30H256V181h155.7c2.999,0,5.7,0.3,8.399,0.601
	c34.801,3.6,62.701,31.199,66.301,66.899L503.5,422z"/>
<path style="fill:#CA80DC;" d="M286,357.997c-3.428,0-6.797-1.187-9.507-3.398c-3.472-2.842-5.493-7.104-5.493-11.602V331h-30
	v11.997c0,4.497-2.021,8.76-5.493,11.602c-3.486,2.856-8.042,3.984-12.466,3.105C141.681,341.286,84.042,265.433,91.679,181H420.32
	c7.637,84.433-50.002,160.286-131.362,176.704C287.977,357.895,286.981,357.997,286,357.997z"/>
<path style="fill:#B758CE;" d="M256,331h15v11.997c0,4.497,2.021,8.76,5.493,11.602c2.71,2.212,6.079,3.398,9.507,3.398
	c0.981,0,1.978-0.103,2.959-0.293C370.318,341.285,427.958,265.434,420.32,181H256V331z"/>
<path style="fill:#FEDB41;" d="M286,271h-60c-8.401,0-15,6.599-15,15v60c0,8.401,6.599,15,15,15h60c8.401,0,15-6.599,15-15v-60
	C301,277.599,294.4,271,286,271z"/>
<path style="fill:#CA80DC;" d="M504.4,429.5c4.199,42.299-28.801,82.5-74.702,82.5H82.3c-45.601,0-78.9-39.901-74.702-82.5
	l0.901-7.5h495L504.4,429.5z"/>
<path style="fill:#FFCC33;" d="M301,286v60c0,8.401-6.599,15-15,15h-30v-90h30C294.4,271,301,277.599,301,286z"/>
<path style="fill:#B758CE;" d="M504.4,429.5c4.199,42.299-28.801,82.5-74.702,82.5H256v-90h247.5L504.4,429.5z"/>
<g>
</g>
<g>
</g>
<g>
</g>
<g>
</g>
<g>
</g>
<g>
</g>
<g>
</g>
<g>
</g>
<g>
</g>
<g>
</g>
<g>
</g>
<g>
</g>
<g>
</g>
<g>
</g>
<g>
</g>
</svg>
