<?xml version="1.0" encoding="iso-8859-1"?>
<!-- Generator: Adobe Illustrator 19.0.0, SVG Export Plug-In . SVG Version: 6.00 Build 0)  -->
<svg version="1.1" id="Capa_1" xmlns="http://www.w3.org/2000/svg" xmlns:xlink="http://www.w3.org/1999/xlink" x="0px" y="0px"
	 viewBox="0 0 512.018 512.018" style="enable-background:new 0 0 512.018 512.018;" xml:space="preserve">
<path style="fill:#FFA000;" d="M303.049,272.018v237.44c-15.624,1.677-31.326,2.531-47.04,2.56c-141.44,0-256-64.32-256-144v-96
	H303.049z"/>
<path style="fill:#388E3C;" d="M512.009,224.018v144c0,70.72-89.92,129.28-208.96,141.44v-285.44H512.009z"/>
<path style="fill:#64B5F6;" d="M390.089,21.458l-134.08,122.56h-256c0-79.68,114.56-144,256-144
	C301.588-0.406,346.914,6.842,390.089,21.458z"/>
<path style="fill:#81C784;" d="M496.009,224.018c0,70.72-89.92,129.28-208.96,141.44l-47.04-141.44l134.08-122.56
	C447.369,126.738,496.009,172.178,496.009,224.018z"/>
<path style="fill:#FFD54F;" d="M303.049,413.458c-15.624,1.677-31.326,2.531-47.04,2.56c-141.44,0-256-64.32-256-144h256
	L303.049,413.458z"/>
<rect x="0.009" y="144.018" style="fill:#2196F3;" width="256" height="128"/>
<polygon style="fill:#1E88E5;" points="390.089,21.458 390.089,85.458 256.009,208.018 256.009,144.018 "/>
<polygon style="fill:#4CAF50;" points="256.009,208.018 256.009,272.018 303.049,413.458 303.049,349.458 "/>
<path d="M304.009,365.458c-6.628,0.002-12.571-4.083-14.944-10.272l-48-125.44c-2.379-6.185-0.7-13.197,4.224-17.632l122.24-110.08
	c4.245-3.733,10.145-4.95,15.52-3.2c79.552,24.8,128.96,72.832,128.96,125.184c0,70.08-84.8,128.192-206.272,141.344
	C305.163,365.425,304.586,365.457,304.009,365.458z M274.889,228.562l39.584,103.456c95.136-13.28,165.536-58.624,165.536-108
	c0-36.192-37.28-70.976-97.952-91.968L274.889,228.562z"/>
<path d="M256.009,160.018h-240c-8.837,0-16-7.163-16-16c0-80.736,112.448-144,256-144c43.095-0.302,85.982,6,127.168,18.688
	c8.412,2.705,13.039,11.718,10.333,20.13c-0.867,2.696-2.434,5.114-4.541,7.006l-122.24,110.08
	C263.785,158.565,259.966,160.025,256.009,160.018z M34.409,128.018h215.456l96-86.4c-29.507-6.502-59.642-9.722-89.856-9.6
	C145.417,32.018,50.473,74.577,34.409,128.018z"/>
<path d="M256.009,416.018c-143.552,0-256-63.264-256-144c0-8.837,7.163-16,16-16h240c6.628-0.002,12.571,4.083,14.944,10.272
	l48,125.44c3.158,8.253-0.972,17.503-9.224,20.662c-1.304,0.499-2.667,0.825-4.056,0.97
	C289.175,415.098,272.598,415.984,256.009,416.018z M34.409,288.018c16,53.44,111.008,96,221.6,96c8.299,0,16.832-0.256,25.6-0.768
	l-36.608-95.232H34.409z"/>
<path d="M256.009,512.018c-143.552,0-256-63.264-256-144c0-8.837,7.163-16,16-16s16,7.163,16,16c0,60.8,102.592,112,224,112
	s224-51.2,224-112c0-8.837,7.163-16,16-16s16,7.163,16,16C512.009,448.754,399.561,512.018,256.009,512.018z"/>
<path d="M496.009,384.018c-8.837,0-16-7.163-16-16v-128c0-8.837,7.163-16,16-16s16,7.163,16,16v128
	C512.009,376.854,504.845,384.018,496.009,384.018z"/>
<path d="M16.009,384.018c-8.837,0-16-7.163-16-16v-224c0-8.837,7.163-16,16-16s16,7.163,16,16v224
	C32.009,376.854,24.845,384.018,16.009,384.018z"/>
<path d="M304.009,509.458c-8.837,0-16-7.163-16-16v-144c0-8.837,7.163-16,16-16s16,7.163,16,16v144
	C320.009,502.294,312.845,509.458,304.009,509.458z"/>
<path d="M256.009,288.018c-8.837,0-16-7.163-16-16v-128c0-8.837,7.163-16,16-16c8.837,0,16,7.163,16,16v128
	C272.009,280.854,264.845,288.018,256.009,288.018z"/>
<path d="M378.249,129.938c-8.837,0-16-7.163-16-16v-80c0-8.837,7.163-16,16-16s16,7.163,16,16v80
	C394.249,122.774,387.085,129.938,378.249,129.938z"/>
<g>
</g>
<g>
</g>
<g>
</g>
<g>
</g>
<g>
</g>
<g>
</g>
<g>
</g>
<g>
</g>
<g>
</g>
<g>
</g>
<g>
</g>
<g>
</g>
<g>
</g>
<g>
</g>
<g>
</g>
</svg>
