<?xml version="1.0" encoding="UTF-8" standalone="no"?>
<!-- Created with Inkscape (http://www.inkscape.org/) -->

<svg
   version="1.1"
   id="svg1644"
   xml:space="preserve"
   width="682.66669"
   height="682.66669"
   viewBox="0 0 682.66669 682.66669"
   xmlns="http://www.w3.org/2000/svg"
   xmlns:svg="http://www.w3.org/2000/svg"><defs
     id="defs1648"><clipPath
       clipPathUnits="userSpaceOnUse"
       id="clipPath1658"><path
         d="M 0,512 H 512 V 0 H 0 Z"
         id="path1656" /></clipPath></defs><g
     id="g1650"
     transform="matrix(1.3333333,0,0,-1.3333333,0,682.66667)"><g
       id="g1652"><g
         id="g1654"
         clip-path="url(#clipPath1658)"><g
           id="g1660"
           transform="translate(122.5869,39.4932)"><path
             d="m 0,0 v 0 h 266.826 c 67.166,43.693 111.587,119.408 111.587,205.507 0,135.31 -109.69,245 -245,245 -135.309,0 -245,-109.69 -245,-245 C -111.587,119.408 -67.166,43.693 0,0"
             style="fill:#ff4155;fill-opacity:1;fill-rule:nonzero;stroke:none"
             id="path1662" /></g><g
           id="g1664"
           transform="translate(56,270)"><path
             d="m 0,0 c 0,-110.457 89.543,-200 200,-200 110.457,0 200,89.543 200,200 0,110.457 -89.543,200 -200,200 C 89.543,200 0,110.457 0,0"
             style="fill:#e80054;fill-opacity:1;fill-rule:nonzero;stroke:none"
             id="path1666" /></g><g
           id="g1668"
           transform="translate(218.7764,60.3755)"><path
             d="m 0,0 1.997,2.175 -34.986,34.986 -63.2,-58.043 c 15.626,-10.166 32.495,-18.57 50.312,-24.994 z"
             style="fill:#9b2a1b;fill-opacity:1;fill-rule:nonzero;stroke:none"
             id="path1670" /></g><g
           id="g1672"
           transform="translate(339.1006,14.499)"><path
             d="m 0,0 c 17.817,6.424 34.686,14.829 50.313,24.994 l -63.201,58.043 -34.986,-34.986 1.997,-2.175 z"
             style="fill:#9b2a1b;fill-opacity:1;fill-rule:nonzero;stroke:none"
             id="path1674" /></g><g
           id="g1676"
           transform="translate(228.4824,2.7495)"><path
             d="M 0,0 18.271,81.981 -29.521,94.787 -55.607,11.725 C -38.32,5.49 -20.127,1.165 -1.283,-1.042 Z"
             style="fill:#b53921;fill-opacity:1;fill-rule:nonzero;stroke:none"
             id="path1678" /></g><g
           id="g1680"
           transform="translate(284.8008,1.7075)"><path
             d="M 0,0 C 18.844,2.207 37.037,6.532 54.324,12.767 L 28.237,95.829 -19.555,83.023 -1.283,1.042 Z"
             style="fill:#b53921;fill-opacity:1;fill-rule:nonzero;stroke:none"
             id="path1682" /></g><g
           id="g1684"
           transform="translate(169.3418,479.5591)"><path
             d="m 0,0 c -11.663,-8.958 -35.65,-31.384 -35.914,-64.466 -0.029,-3.656 3.791,-6.1 7.102,-4.553 13.986,6.536 44.142,25.573 36.77,65.94 C 7.287,0.594 2.96,2.274 0,0"
             style="fill:#ffdd40;fill-opacity:1;fill-rule:nonzero;stroke:none"
             id="path1686" /></g><g
           id="g1688"
           transform="translate(81.9014,122.3975)"><path
             d="m 0,0 c 12.445,-4.039 39.234,-15.7 49.306,-43.359 1.113,-3.057 -1.363,-6.243 -4.6,-5.932 -13.672,1.316 -44.624,8.299 -50.462,44.34 C -6.287,-1.672 -3.159,1.025 0,0"
             style="fill:#ffdd40;fill-opacity:1;fill-rule:nonzero;stroke:none"
             id="path1690" /></g><g
           id="g1692"
           transform="translate(430.0986,122.3975)"><path
             d="m 0,0 c -12.445,-4.039 -39.234,-15.7 -49.306,-43.359 -1.113,-3.057 1.363,-6.243 4.6,-5.932 13.672,1.316 44.624,8.299 50.462,44.34 C 6.287,-1.672 3.159,1.025 0,0"
             style="fill:#ffdd40;fill-opacity:1;fill-rule:nonzero;stroke:none"
             id="path1694" /></g><g
           id="g1696"
           transform="translate(358.2354,423.561)"><path
             d="m 0,0 c -1.733,-14.603 -2.437,-47.434 21.057,-70.727 2.596,-2.574 7.013,-1.547 8.218,1.904 5.09,14.574 12.527,49.452 -21.513,72.369 C 4.665,5.63 0.44,3.707 0,0"
             style="fill:#ffdd40;fill-opacity:1;fill-rule:nonzero;stroke:none"
             id="path1698" /></g><g
           id="g1700"
           transform="translate(227.1836,1.6953)"><path
             d="m 0,0 c 9.453,-1.107 19.065,-1.695 28.816,-1.695 9.751,0 19.364,0.588 28.817,1.695 L 53.555,95.841 H 4.078 Z"
             style="fill:#d34e3c;fill-opacity:1;fill-rule:nonzero;stroke:none"
             id="path1702" /></g><g
           id="g1704"
           transform="translate(393.5039,326.252)"><path
             d="m 0,0 c -5.815,-29.728 -20.589,-48.725 -20.589,-48.725 0,0 3.064,39.064 -37.032,110.798 -27.566,49.317 -23.645,90.453 -18.501,111.347 1.775,7.215 -4.739,13.719 -11.984,12.069 -37.391,-8.511 -126.802,-42.871 -165.261,-179.256 0,0 -5.051,11.062 -8.285,28.666 -1.771,9.638 -14.935,11.243 -18.947,2.304 -14.295,-31.856 -32.736,-82.505 -32.736,-131.807 0,-97.108 78.723,-175.83 175.831,-175.83 97.108,0 175.831,78.722 175.831,175.83 0,37.004 -9.674,71.441 -19.157,96.312 C 15.574,11.137 1.937,9.903 0,0"
             style="fill:#ffdd40;fill-opacity:1;fill-rule:nonzero;stroke:none"
             id="path1706" /></g><g
           id="g1708"
           transform="translate(397.3662,197.1914)"><path
             d="m 0,0 c 0,-78.136 -63.39,-141.467 -141.548,-141.374 -79.113,0.096 -142.379,66.492 -141.167,145.596 0.706,46.101 12.84,78.313 20.335,93.913 1.937,4.032 7.804,3.698 9.234,-0.539 12.907,-38.21 33.556,-56.512 33.556,-56.512 -13.137,129.184 51.543,187.862 84.194,208.928 6.868,4.431 15.908,-0.804 15.433,-8.962 -1.13,-19.432 0.871,-51.658 19.578,-85.349 29.931,-53.905 53.713,-100.642 53.713,-159.62 0,0 21.622,21.447 34.028,53.971 1.861,4.878 9.023,3.985 9.628,-1.2 C -1.484,35.736 0,18.304 0,0"
             style="fill:#ffb332;fill-opacity:1;fill-rule:nonzero;stroke:none"
             id="path1710" /></g><g
           id="g1712"
           transform="translate(347.3564,147.1738)"><path
             d="m 0,0 c 0,-50.77 -41.415,-91.867 -92.305,-91.351 -50.347,0.511 -90.815,43.261 -90.398,93.61 0.238,28.749 4.993,46.734 8.854,56.652 1.569,4.027 7.15,4.241 9.119,0.394 10.762,-21.027 25.608,-28.713 25.608,-28.713 -18.902,105.464 17.135,171.616 34.089,195.815 2.64,3.768 8.524,2.243 9.054,-2.327 2.125,-18.356 9.159,-53.789 32.43,-87.754 C -30.159,87.596 0,53.664 0,0"
             style="fill:#ffa219;fill-opacity:1;fill-rule:nonzero;stroke:none"
             id="path1714" /></g><g
           id="g1716"
           transform="translate(256,164.9482)"><path
             d="m 0,0 c -8.181,0 -38.009,-40.698 -38.009,-71.538 0,-4.405 0.776,-8.532 2.106,-12.371 11.65,-33.629 60.156,-33.629 71.806,0 1.33,3.839 2.106,7.966 2.106,12.371 C 38.009,-40.698 8.181,0 0,0"
             style="fill:#ff9100;fill-opacity:1;fill-rule:nonzero;stroke:none"
             id="path1718" /></g></g></g></g></svg>
