<svg id="Layer_1" viewBox="0 0 512 512" xmlns="http://www.w3.org/2000/svg" data-name="Layer 1"><path d="m458.898 93.984h-11.939c.759-4.072 1.174-8.262 1.174-12.551 0-37.734-30.686-68.433-68.405-68.433s-68.405 30.699-68.405 68.433c0 4.288.416 8.479 1.174 12.551h-13.86v-20.26c0-4.418-3.582-8-8-8h-32.484c-4.418 0-8 3.582-8 8v20.26h-6.336v-72.984c0-4.418-3.582-8-8-8h-32.484c-4.418 0-8 3.582-8 8v72.984h-6.336v-33.157c0-4.418-3.582-8-8-8h-32.484c-4.418 0-8 3.582-8 8v33.157h-87.411c-22.104 0-40.087 17.996-40.087 40.116v249.669c0 22.104 17.983 40.087 40.087 40.087h147.372l-14.263 35.419h-37.273c-4.418 0-8 3.582-8 8v23.725c0 4.418 3.582 8 8 8h214.095c4.418 0 8-3.582 8-8v-23.725c0-4.418-3.582-8-8-8h-37.271l-14.242-35.419h147.378c22.104 0 40.087-17.983 40.087-40.087v-249.669c0-22.12-17.983-40.116-40.087-40.116zm-75.641-4.551h48.266c-3.863 25.113-25.618 44.405-51.794 44.405-10.715 0-20.686-3.239-28.995-8.78l32.524-35.625zm48.266-16h-43.795v-43.822c22.505 3.464 40.335 21.305 43.795 43.823zm-59.795-43.823v48.72l-32.805 35.932c-7.248-8.991-11.6-20.409-11.6-32.83 0-26.191 19.292-47.957 44.405-51.823zm-89.091 52.113v114.192h-16.484v-114.192zm-32.484 28.26v85.931h-6.336v-85.931zm-22.336-80.984v166.915h-16.484v-166.914h16.484zm-32.484 80.984v85.931h-6.336v-85.931zm-22.336-41.157v127.089h-16.484v-127.089zm-119.896 41.157h87.412v85.931h-6.336v-55.693c0-4.418-3.582-8-8-8h-32.456c-4.418 0-8 3.582-8 8v55.693h-2.176c-4.418 0-8 3.582-8 8s3.582 8 8 8h221.352c4.418 0 8-3.582 8-8s-3.582-8-8-8h-6.258v-85.931h18.953c10.84 23.498 34.607 39.854 62.138 39.854s51.298-16.357 62.138-39.854h17.031c13.282 0 24.087 10.818 24.087 24.116v227.127h-453.972v-227.127c0-13.298 10.806-24.116 24.087-24.116zm48.619 85.931v-47.693h16.456v47.693zm253.312 287.085h-198.095v-7.725h198.095zm-46.516-23.725h-105.057l14.263-35.419h76.553l14.242 35.419zm150.381-51.419h-405.795c-13.282 0-24.087-10.805-24.087-24.087v-6.542h453.972v6.542c0 13.282-10.806 24.087-24.087 24.087zm-314.971-15.329c0 4.418-3.582 8-8 8h-6.066c-4.418 0-8-3.582-8-8s3.582-8 8-8h6.066c4.418 0 8 3.582 8 8zm-28.062 0c0 4.418-3.582 8-8 8h-45.636c-4.418 0-8-3.582-8-8s3.582-8 8-8h45.636c4.418 0 8 3.582 8 8zm242.853-176.792c0-4.418 3.582-8 8-8h5.584c4.418 0 8 3.582 8 8s-3.582 8-8 8h-5.584c-4.418 0-8-3.582-8-8zm77.907 0c0 4.418-3.582 8-8 8h-31.719c-4.418 0-8-3.582-8-8s3.582-8 8-8h31.719c4.418 0 8 3.582 8 8zm0 24.916c0 4.418-3.582 8-8 8h-62.049c-4.418 0-8-3.582-8-8s3.582-8 8-8h62.049c4.418 0 8 3.582 8 8zm-114.139-76.309c2.208-3.826 7.101-5.138 10.928-2.93l37.091 21.407h58.12c4.418 0 8 3.582 8 8s-3.582 8-8 8h-60.263c-1.404 0-2.783-.369-3.999-1.071l-38.947-22.478c-3.827-2.209-5.138-7.101-2.93-10.928zm-220.403 142.871c8.512 0 16.096-4.033 20.955-10.283l37.774 13.942c-.019.411-.031.823-.031 1.238 0 14.633 11.905 26.538 26.538 26.538s26.538-11.905 26.538-26.538c0-2.941-.488-5.768-1.375-8.414l44.33-32.229c4.407 3.259 9.853 5.19 15.743 5.19 5.065 0 9.802-1.428 13.833-3.9l47.058 40.907c-1.408 3.236-2.193 6.802-2.193 10.551 0 14.633 11.905 26.538 26.538 26.538s26.538-11.905 26.538-26.538-11.905-26.538-26.538-26.538c-5.072 0-9.815 1.432-13.849 3.911l-47.049-40.9c1.413-3.24 2.201-6.813 2.201-10.568 0-14.633-11.905-26.538-26.538-26.538s-26.538 11.905-26.538 26.538c0 2.941.488 5.769 1.375 8.415l-44.33 32.229c-4.407-3.259-9.853-5.19-15.743-5.19-8.516 0-16.102 4.036-20.961 10.292l-37.768-13.94c.019-.414.032-.83.032-1.249 0-14.633-11.905-26.538-26.538-26.538s-26.538 11.905-26.538 26.538 11.905 26.538 26.538 26.538zm255.707 6.463c5.811 0 10.538 4.727 10.538 10.538s-4.728 10.538-10.538 10.538-10.538-4.727-10.538-10.538 4.728-10.538 10.538-10.538zm-85.236-74.096c5.811 0 10.538 4.727 10.538 10.538s-4.728 10.538-10.538 10.538-10.538-4.727-10.538-10.538 4.728-10.538 10.538-10.538zm-85.235 61.992c5.811 0 10.538 4.727 10.538 10.538s-4.728 10.538-10.538 10.538-10.538-4.727-10.538-10.538 4.728-10.538 10.538-10.538zm-85.235-31.435c5.811 0 10.538 4.727 10.538 10.538s-4.728 10.538-10.538 10.538-10.538-4.727-10.538-10.538 4.728-10.538 10.538-10.538z"/><path d="m371.729 78.331v-48.72c-25.113 3.865-44.405 25.632-44.405 51.823 0 12.421 4.352 23.839 11.6 32.83l32.805-35.932z" fill="#01d0fb"/><path d="m379.729 133.838c26.177 0 47.931-19.292 51.794-44.405h-48.266l-32.524 35.625c8.31 5.541 18.28 8.78 28.995 8.78z" fill="#f9d641"/><path d="m266.154 81.723h16.484v114.192h-16.484z" fill="#f9d641"/><path d="m156.513 68.826h16.484v127.089h-16.484z" fill="#01d0fb"/><path d="m188.997 109.984h6.336v85.931h-6.336z" fill="#dff6fd"/><path d="m211.333 29h16.484v166.915h-16.484z" fill="#30e5a3"/><path d="m243.818 109.984h6.336v85.931h-6.336z" fill="#dff6fd"/><path d="m387.729 29.611v43.823h43.795c-3.46-22.518-21.29-40.359-43.795-43.823z" fill="#f46240"/><path d="m217.722 423.856-14.263 35.419h105.058l-14.242-35.419z" fill="#6b96a5"/><path d="m156.938 475.275h198.095v7.725h-198.095z" fill="#7ca1b1"/><path d="m53.102 407.856h405.797c13.282 0 24.087-10.805 24.087-24.087v-6.542h-453.972v6.542c0 13.282 10.806 24.087 24.087 24.087zm76.76-23.329h6.066c4.418 0 8 3.582 8 8s-3.582 8-8 8h-6.066c-4.418 0-8-3.582-8-8s3.582-8 8-8zm-67.633 0h45.636c4.418 0 8 3.582 8 8s-3.582 8-8 8h-45.636c-4.418 0-8-3.582-8-8s3.582-8 8-8z" fill="#8ebac5"/><path d="m101.721 148.222h16.456v47.693h-16.456z" fill="#f46240"/><path d="m482.986 134.1c0-13.298-10.806-24.116-24.087-24.116h-17.031c-10.84 23.498-34.607 39.854-62.138 39.854s-51.298-16.357-62.138-39.854h-18.953v85.931h6.258c4.418 0 8 3.582 8 8s-3.582 8-8 8h-221.352c-4.418 0-8-3.582-8-8s3.582-8 8-8h2.176v-55.693c0-4.418 3.582-8 8-8h32.456c4.418 0 8 3.582 8 8v55.693h6.336v-85.931h-87.411c-13.282 0-24.087 10.818-24.087 24.116v227.127h453.972v-227.127zm-125.196 216.653c-14.633 0-26.538-11.905-26.538-26.538 0-3.748.785-7.315 2.193-10.551l-47.058-40.907c-4.031 2.472-8.768 3.9-13.833 3.9-5.89 0-11.335-1.931-15.743-5.19l-44.33 32.229c.887 2.646 1.375 5.473 1.375 8.414 0 14.633-11.905 26.538-26.538 26.538s-26.538-11.905-26.538-26.538c0-.415.012-.828.031-1.238l-37.774-13.942c-4.859 6.25-12.443 10.283-20.955 10.283-14.633 0-26.538-11.905-26.538-26.538s11.905-26.538 26.538-26.538 26.538 11.905 26.538 26.538c0 .419-.012.834-.032 1.249l37.768 13.94c4.859-6.255 12.446-10.292 20.961-10.292 5.89 0 11.336 1.931 15.743 5.19l44.33-32.229c-.887-2.646-1.375-5.474-1.375-8.415 0-14.633 11.905-26.538 26.538-26.538s26.538 11.905 26.538 26.538c0 3.755-.788 7.328-2.201 10.568l47.049 40.9c4.034-2.479 8.777-3.911 13.849-3.911 14.633 0 26.538 11.905 26.538 26.538s-11.905 26.538-26.538 26.538zm70.836-102.101h-62.049c-4.418 0-8-3.582-8-8s3.582-8 8-8h62.049c4.418 0 8 3.582 8 8s-3.582 8-8 8zm-69.907-32.916c0-4.418 3.582-8 8-8h5.584c4.418 0 8 3.582 8 8s-3.582 8-8 8h-5.584c-4.418 0-8-3.582-8-8zm69.907 8h-31.719c-4.418 0-8-3.582-8-8s3.582-8 8-8h31.719c4.418 0 8 3.582 8 8s-3.582 8-8 8zm0-24.916h-60.263c-1.404 0-2.783-.369-3.999-1.071l-38.947-22.478c-3.827-2.209-5.138-7.101-2.93-10.928 2.208-3.826 7.101-5.138 10.928-2.93l37.091 21.407h58.12c4.418 0 8 3.582 8 8s-3.582 8-8 8z" fill="#dff6fd"/><circle cx="102.083" cy="280.675" fill="#01d0fb" r="10.538"/><circle cx="187.318" cy="312.11" fill="#f9d641" r="10.538"/><circle cx="357.79" cy="324.214" fill="#f46240" r="10.538"/><circle cx="272.554" cy="250.118" fill="#30e5a3" r="10.538"/></svg>