<svg id="Capa_1" enable-background="new 0 0 512 512" height="512" viewBox="0 0 512 512" width="512" xmlns="http://www.w3.org/2000/svg"><g><path d="m391 255c0-74.439-60.561-135-135-135l-20 246.182 20 145.818h135z" fill="#2ec7e6"/><path d="m121 255v257h135v-392c-74.439 0-135 60.561-135 135z" fill="#66e6ff"/><path d="m361 255c0-57.897-47.103-105-105-105l-20 216.182 20 115.818h105z" fill="#2995cc"/><path d="m151 255v227h105v-332c-57.897 0-105 47.103-105 105z" fill="#2ec7e6"/><path d="m378.255 13.621c-8.547-8.783-20.001-13.621-32.255-13.621-57.897 0-105 47.103-105 105v30 60h30v-60c0-24.813 20.187-45 45-45h29.376c24.486 0 44.945-19.624 45.606-43.746.337-12.262-4.183-23.852-12.727-32.633zm-32.879 46.379h-29.376c-12.979 0-25.2 3.315-35.859 9.142 12.738-23.303 37.483-39.142 65.859-39.142 4.084 0 7.903 1.613 10.753 4.542 2.847 2.926 4.354 6.794 4.241 10.89-.221 8.033-7.226 14.568-15.618 14.568z" fill="#5e3373"/><path d="m198.573 243.574h30.001v30h-30.001z" fill="#fff5f5" transform="matrix(.707 -.707 .707 .707 -120.285 226.754)"/><path d="m283.426 328.426h30.001v30h-30.001z" fill="#e6e6f2" transform="matrix(.707 -.707 .707 .707 -155.432 311.607)"/><path d="m181 407h30v45h-30z" fill="#fff5f5"/><path d="m241 407h30v45h-30z" fill="#fff5f5"/><path d="m301 407h30v45h-30z" fill="#e6e6f2"/><path d="m298.427 237.36-42.427 42.427-20 34.926 20 7.5 63.64-63.64z" fill="#e6e6f2"/><path d="m192.36 343.427 21.213 21.213 42.427-42.427v-42.426z" fill="#fff5f5"/></g></svg>