<svg clip-rule="evenodd" fill-rule="evenodd" height="512" image-rendering="optimizeQuality" shape-rendering="geometricPrecision" text-rendering="geometricPrecision" viewBox="0 0 1706.66 1706.66" width="512" xmlns="http://www.w3.org/2000/svg" xmlns:xodm="http://www.corel.com/coreldraw/odm/2003"><g id="Layer_x0020_1"><g fill="#0cf"><path d="m853.36 1706.51c-2.84 0-5.68-.61-8.33-1.82-504.89-231.29-669.58-618.69-718.84-902.94-53.22-307.17 11.7-555.77 14.49-566.2 7.31-27.36 41.9-6.62 114-6.62 289.54-.02 583.56-222.41 586.5-224.64 7.17-5.48 17.11-5.5 24.3 0 33.5 25.62 376.62 271.32 677.64 216.76 10.15-1.85 20.19 4.46 22.87 14.51 2.78 10.43 67.69 259.05 14.49 566.2-49.26 284.27-213.94 671.65-718.84 902.94-2.6 1.2-5.43 1.81-8.28 1.81zm-678.15-1443.09c-13.58 61.87-53.53 279.63-9.35 532.97 69.1 396.12 300.36 688.14 687.5 868.1 387.14-179.96 618.4-471.98 687.5-868.1 44.2-253.34 4.24-471.12-9.35-532.97-287.52 40.88-593.33-157.11-678.15-218.4-87.85 63.46-392.3 259.04-678.15 218.4z"/><path d="m853.36 1526.41c-3.18 0-6.37-.78-9.29-2.3-309.22-162.14-496.45-410.73-556.52-738.87-21.12-115.4-26.05-256.93-13.16-378.6 1.03-9.74 8.97-17.3 18.75-17.86 172.97-9.92 373.47-78.98 550.12-189.48 6.45-4.06 14.68-4.06 21.18-.02 180.95 112.75 375.99 180.14 549.16 189.76 9.79.56 17.74 8.11 18.78 17.87 12.86 121.61 7.91 263.04-13.2 378.32-60.06 328.15-247.31 576.76-556.5 738.88-2.93 1.52-6.13 2.3-9.31 2.3zm-540.84-1098.86c-40.69 447.16 125.85 834.39 540.84 1056.24 414.9-221.81 581.41-608.84 540.87-1055.93-171.97-13.05-362.71-79.42-540.37-188.07-173.78 106.56-369.4 174.36-541.34 187.77z"/><path d="m948.44 1151.3c-18.17 0-27-22.63-13.37-34.88 128.84-115.77 120.57-198.57 157.83-179.96 9.89 4.92 13.9 16.94 8.97 26.81-34.27 68.68-81.39 130.23-140.07 182.91-3.82 3.43-8.61 5.12-13.36 5.12z"/><path d="m973.83 1282.78c-18.26 0-27.09-22.78-13.23-34.99 81.79-72.12 145.89-157.54 190.53-253.85 11.07-23.87 47.35-7.08 36.29 16.81-46.99 101.38-114.41 191.23-200.38 267.03-3.8 3.34-8.52 5-13.21 5z"/><path d="m1381.95 881.33h-1056.21c-26.32 0-26.33-39.99 0-39.99h1056.21c26.32 0 26.33 39.99 0 39.99z"/></g><path d="m833.85 841.33v-589.52c-168.69 99.61-355.96 162.83-521.33 175.73-12.38 136.09-3.43 285.48 27.85 413.79z" fill="#96eaff"/><path d="m873.85 881.33v591.26c247.5-138.12 409.18-336.59 481.92-591.26zm61.23 235.09c54.92-49.32 99-106.85 131.02-171 11.74-23.57 47.54-5.7 35.78 17.84-34.27 68.68-81.39 130.23-140.07 182.91-19.45 17.46-46.5-11.98-26.73-29.76zm25.52 131.37c81.79-72.12 145.89-157.54 190.53-253.85 11.07-23.87 47.35-7.08 36.29 16.81-46.99 101.38-114.41 191.23-200.38 267.03-19.6 17.26-46.42-12.4-26.44-30z" fill="#96eaff"/><path d="m1419.17 785.23c-60.06 328.15-247.31 576.76-556.5 738.88h-18.59c-309.22-162.14-496.45-410.73-556.52-738.87-21.12-115.4-26.05-256.93-13.16-378.6 1.03-9.74 8.97-17.3 18.75-17.86 172.97-9.92 373.47-78.98 550.12-189.48 6.45-4.06 14.68-4.06 21.18-.02 180.95 112.75 375.99 180.14 549.16 189.76 9.79.56 17.74 8.11 18.78 17.87 12.86 121.61 7.91 263.04-13.2 378.32zm-565.81 879.26c387.14-179.96 618.4-471.98 687.5-868.1 44.2-253.34 4.24-471.12-9.35-532.97-287.52 40.89-593.33-157.11-678.15-218.4-87.86 63.47-392.3 259.05-678.15 218.4-13.58 61.87-53.53 279.63-9.35 532.97 69.1 396.12 300.36 688.14 687.5 868.1z" fill="#96eaff"/><path d="m853.85 1526.41c-11.04 0-20-8.97-20-20v-1290.13c0-26.33 39.99-26.33 39.99 0v1290.13c.01 11.02-8.96 20-20 20z" fill="#0cf"/></g></svg>