<svg height="512" viewBox="0 0 58 53" width="512" xmlns="http://www.w3.org/2000/svg"><g id="Page-1" fill="none" fill-rule="evenodd"><g id="115---Delivery" fill-rule="nonzero"><path id="Shape" d="m58 35v8c0 1.6568542-1.3431458 3-3 3h-48c-1.65685425 0-3-1.3431458-3-3v-8z" fill="#3d324c"/><path id="Shape" d="m58 25.68v10.32h-22v-24h11.02c.6189933.0014878 1.2024148.289506 1.58.78l8.99 11.68c.2635216.3524071.4072107.7799697.41 1.22z" fill="#b49aca"/><path id="Shape" d="m38 6v30h-34c-2.209139 0-4-1.790861-4-4v-26c0-3.3137085 2.6862915-6 6-6h26c3.3137085 0 6 2.6862915 6 6z" fill="#894b9d"/><circle id="Oval" cx="15" cy="47" fill="#285680" r="6"/><circle id="Oval" cx="15" cy="47" fill="#b0d3f0" r="2"/><circle id="Oval" cx="46" cy="47" fill="#285680" r="6"/><circle id="Oval" cx="46" cy="47" fill="#b0d3f0" r="2"/><path id="Shape" d="m7 5h-2c-.55228475 0-1-.44771525-1-1s.44771525-1 1-1h2c.55228475 0 1 .44771525 1 1s-.44771525 1-1 1z" fill="#b49aca"/><path id="Shape" d="m25 5h-13c-.5522847 0-1-.44771525-1-1s.4477153-1 1-1h13c.5522847 0 1 .44771525 1 1s-.4477153 1-1 1z" fill="#b49aca"/><path id="Shape" d="m26 43h-2c-.5522847 0-1-.4477153-1-1s.4477153-1 1-1h2c.5522847 0 1 .4477153 1 1s-.4477153 1-1 1z" fill="#5d4c72"/><path id="Shape" d="m37 43h-7c-.5522847 0-1-.4477153-1-1s.4477153-1 1-1h7c.5522847 0 1 .4477153 1 1s-.4477153 1-1 1z" fill="#5d4c72"/><path id="Shape" d="m58 25.68v4.32h-14c-1.1032019-.0032948-1.9967052-.8967981-2-2v-10c.0032948-1.1032019.8967981-1.9967052 2-2h7l.05-.04 6.54 8.5c.2635216.3524071.4072107.7799697.41 1.22z" fill="#3b97d3"/><g fill="#b0d3f0"><path id="Shape" d="m46 22c-.5522847 0-1-.4477153-1-1v-1c0-.5522847.4477153-1 1-1s1 .4477153 1 1v1c0 .5522847-.4477153 1-1 1z"/><path id="Shape" d="m46 27c-.5522847 0-1-.4477153-1-1v-1c0-.5522847.4477153-1 1-1s1 .4477153 1 1v1c0 .5522847-.4477153 1-1 1z"/></g></g></g></svg>