<svg xmlns="http://www.w3.org/2000/svg" xmlns:xlink="http://www.w3.org/1999/xlink"><defs><linearGradient id="dot-pattern-indigob" x1="134.81" y1="-41.52" x2="134.81" y2="213.61" gradientUnits="userSpaceOnUse"><stop stop-color="#C5D2E7"/><stop offset="1" stop-color="#fff" stop-opacity="0"/></linearGradient><clipPath id="get-started-lighta"><path fill="#fff" d="M0 0h503v346H0z"/></clipPath><clipPath id="mobile-loopclip0_783_33467"><path fill="#fff" transform="translate(112.9 54.208)" d="M0 0h19.067v16.686H0z"/></clipPath><symbol id="account" viewBox="0 0 12 12"><path d="M7.4 6.626a3.461 3.461 0 10-2.8 0A6.033 6.033 0 000 11.77a.23.23 0 00.23.231h11.54a.23.23 0 00.23-.23 6.033 6.033 0 00-4.6-5.144z" fill="currentColor"/></symbol><symbol id="arrow-left" viewBox="0 0 24 24"><path d="M20 11v2H8l5.5 5.5-1.42 1.42L4.16 12l7.92-7.92L13.5 5.5 8 11h12z" fill="currentColor"/></symbol><symbol id="arrow" viewBox="0 0 28 28"><path fill="currentColor" d="M14.36 0H0l11.11 12.19L0 24.39h14.36l10.84-12.2L14.36 0z"/></symbol><symbol id="card-carousel-arrow" viewBox="0 0 24 24"><path d="M13.665 7.154l-4.063 3.759h9.163c.13 0 .235.097.235.217v1.74c0 .12-.105.217-.235.217H9.602l4.063 3.76c.091.084.06.153-.069.153h-3.054a.682.682 0 01-.402-.154l-5.07-4.692a.206.206 0 010-.308l5.071-4.692A.682.682 0 0110.542 7h3.054c.13 0 .16.07.069.154z" fill="currentColor"/></symbol><symbol id="check" viewBox="0 0 28 28"><path d="M10.6 17.6l-4.2-4.2L5 14.8l5.6 5.6 12-12L21.2 7 10.6 17.6z" fill="currentColor"/></symbol><symbol id="chevron-arrow" viewBox="0 0 26 26"><path fill="currentColor" d="M14.36 0H0l11.11 12.19L0 24.39h14.36l10.84-12.2L14.36 0z"/></symbol><symbol id="chevron-right" viewBox="0 0 26 26"><path d="M9.306 17.962L14.268 13 9.306 8.027 10.833 6.5l6.5 6.5-6.5 6.5-1.527-1.538z" fill="currentColor"/></symbol><symbol id="chilled" viewBox="0 0 20 20"><path d="M9.25 20v-4.875L5.525 18.85 4.45 17.8l4.8-4.8v-2.25H7l-4.7 4.7-1.1-1.025 3.675-3.675H0v-1.5h4.875L1.125 5.5 2.2 4.425 7 9.25h2.25V6.975l-4.7-4.7 1.05-1.1L9.25 4.85V0h1.5v4.85L14.5 1.1l1.05 1.075-4.8 4.8V9.25h2.275l4.725-4.725 1.075 1.05L15.15 9.25H20v1.5h-4.85l3.7 3.725-1.025 1.075-4.8-4.8H10.75V13l4.8 4.825-1.025 1.075-3.775-3.775V20h-1.5z" fill="#272C34"/></symbol><symbol id="close" viewBox="0 0 24 24"><path d="M19 6.41L17.59 5 12 10.59 6.41 5 5 6.41 10.59 12 5 17.59 6.41 19 12 13.41 17.59 19 19 17.59 13.41 12 19 6.41z" fill="currentColor"/></symbol><symbol id="default-video-player-icon" viewBox="0 0 26 26"><path d="M26 13c0 7.18-5.82 13-13 13S0 20.18 0 13 5.82 0 13 0s13 5.82 13 13z" fill="#45DABE"/><path d="M17.625 11.797c.5.312.5 1.094 0 1.406l-7.5 4.687c-.5.313-1.125-.078-1.125-.703V7.813c0-.625.625-1.015 1.125-.703l7.5 4.687z" fill="#24303E"/></symbol><symbol id="dot-pattern-indigo" viewBox="0 0 273 214"><mask id="dot-pattern-indigoa" style="mask-type:alpha" maskUnits="userSpaceOnUse" x="1" y="-42" width="273" height="256"><ellipse cx="3.85" cy="14.94" rx="2.8" ry="2.79" fill="#C5D2E7"/><ellipse cx="40.65" cy="14.94" rx="2.8" ry="2.79" fill="#C5D2E7"/><ellipse cx="77.45" cy="14.94" rx="2.8" ry="2.79" fill="#C5D2E7"/><ellipse cx="114.25" cy="14.94" rx="2.8" ry="2.79" fill="#C5D2E7"/><ellipse cx="151.05" cy="14.94" rx="2.8" ry="2.79" fill="#C5D2E7"/><ellipse cx="187.85" cy="14.94" rx="2.8" ry="2.79" fill="#C5D2E7"/><ellipse cx="224.65" cy="14.94" rx="2.8" ry="2.79" fill="#C5D2E7"/><ellipse cx="261.46" cy="14.94" rx="2.8" ry="2.79" fill="#C5D2E7"/><ellipse cx="3.85" cy="41.77" rx="2.8" ry="2.79" fill="#C5D2E7"/><ellipse cx="40.65" cy="41.77" rx="2.8" ry="2.79" fill="#C5D2E7"/><ellipse cx="77.45" cy="41.77" rx="2.8" ry="2.79" fill="#C5D2E7"/><ellipse cx="114.25" cy="41.77" rx="2.8" ry="2.79" fill="#C5D2E7"/><ellipse cx="151.05" cy="41.77" rx="2.8" ry="2.79" fill="#C5D2E7"/><ellipse cx="187.85" cy="41.77" rx="2.8" ry="2.79" fill="#C5D2E7"/><ellipse cx="224.65" cy="41.77" rx="2.8" ry="2.79" fill="#C5D2E7"/><ellipse cx="261.46" cy="41.77" rx="2.8" ry="2.79" fill="#C5D2E7"/><ellipse cx="3.85" cy="68.61" rx="2.8" ry="2.79" fill="#C5D2E7"/><ellipse cx="40.65" cy="68.61" rx="2.8" ry="2.79" fill="#C5D2E7"/><ellipse cx="77.45" cy="68.61" rx="2.8" ry="2.79" fill="#C5D2E7"/><ellipse cx="114.25" cy="68.61" rx="2.8" ry="2.79" fill="#C5D2E7"/><ellipse cx="151.05" cy="68.61" rx="2.8" ry="2.79" fill="#C5D2E7"/><ellipse cx="187.85" cy="68.61" rx="2.8" ry="2.79" fill="#C5D2E7"/><ellipse cx="224.65" cy="68.61" rx="2.8" ry="2.79" fill="#C5D2E7"/><ellipse cx="261.46" cy="68.61" rx="2.8" ry="2.79" fill="#C5D2E7"/><ellipse cx="3.85" cy="95.44" rx="2.8" ry="2.79" fill="#C5D2E7"/><ellipse cx="40.65" cy="95.44" rx="2.8" ry="2.79" fill="#C5D2E7"/><ellipse cx="77.45" cy="95.44" rx="2.8" ry="2.79" fill="#C5D2E7"/><ellipse cx="114.25" cy="95.44" rx="2.8" ry="2.79" fill="#C5D2E7"/><ellipse cx="151.05" cy="95.44" rx="2.8" ry="2.79" fill="#C5D2E7"/><ellipse cx="187.85" cy="95.44" rx="2.8" ry="2.79" fill="#C5D2E7"/><ellipse cx="224.65" cy="95.44" rx="2.8" ry="2.79" fill="#C5D2E7"/><ellipse cx="261.46" cy="95.44" rx="2.8" ry="2.79" fill="#C5D2E7"/><ellipse cx="3.85" cy="122.27" rx="2.8" ry="2.79" fill="#C5D2E7"/><ellipse cx="40.65" cy="122.27" rx="2.8" ry="2.79" fill="#C5D2E7"/><ellipse cx="77.45" cy="122.27" rx="2.8" ry="2.79" fill="#C5D2E7"/><ellipse cx="114.25" cy="122.27" rx="2.8" ry="2.79" fill="#C5D2E7"/><ellipse cx="151.05" cy="122.27" rx="2.8" ry="2.79" fill="#C5D2E7"/><ellipse cx="187.85" cy="122.27" rx="2.8" ry="2.79" fill="#C5D2E7"/><ellipse cx="224.65" cy="122.27" rx="2.8" ry="2.79" fill="#C5D2E7"/><ellipse cx="261.46" cy="122.27" rx="2.8" ry="2.79" fill="#C5D2E7"/><ellipse cx="3.85" cy="149.11" rx="2.8" ry="2.79" fill="#C5D2E7"/><ellipse cx="40.65" cy="149.11" rx="2.8" ry="2.79" fill="#C5D2E7"/><ellipse cx="77.45" cy="149.11" rx="2.8" ry="2.79" fill="#C5D2E7"/><ellipse cx="114.25" cy="149.11" rx="2.8" ry="2.79" fill="#C5D2E7"/><ellipse cx="151.05" cy="149.11" rx="2.8" ry="2.79" fill="#C5D2E7"/><ellipse cx="187.85" cy="149.11" rx="2.8" ry="2.79" fill="#C5D2E7"/><ellipse cx="224.65" cy="149.11" rx="2.8" ry="2.79" fill="#C5D2E7"/><ellipse cx="261.46" cy="149.11" rx="2.8" ry="2.79" fill="#C5D2E7"/><ellipse cx="3.85" cy="175.94" rx="2.8" ry="2.79" fill="#C5D2E7"/><ellipse cx="40.65" cy="175.94" rx="2.8" ry="2.79" fill="#C5D2E7"/><ellipse cx="77.45" cy="175.94" rx="2.8" ry="2.79" fill="#C5D2E7"/><ellipse cx="114.25" cy="175.94" rx="2.8" ry="2.79" fill="#C5D2E7"/><ellipse cx="151.05" cy="175.94" rx="2.8" ry="2.79" fill="#C5D2E7"/><ellipse cx="187.85" cy="175.94" rx="2.8" ry="2.79" fill="#C5D2E7"/><ellipse cx="224.65" cy="175.94" rx="2.8" ry="2.79" fill="#C5D2E7"/><ellipse cx="261.46" cy="175.94" rx="2.8" ry="2.79" fill="#C5D2E7"/><ellipse cx="3.85" cy="202.78" rx="2.8" ry="2.79" fill="#C5D2E7"/><ellipse cx="40.65" cy="202.78" rx="2.8" ry="2.79" fill="#C5D2E7"/><ellipse cx="77.45" cy="202.78" rx="2.8" ry="2.79" fill="#C5D2E7"/><ellipse cx="114.25" cy="202.78" rx="2.8" ry="2.79" fill="#C5D2E7"/><ellipse cx="151.05" cy="202.78" rx="2.8" ry="2.79" fill="#C5D2E7"/><ellipse cx="187.85" cy="202.78" rx="2.8" ry="2.79" fill="#C5D2E7"/><ellipse cx="224.65" cy="202.78" rx="2.8" ry="2.79" fill="#C5D2E7"/><ellipse cx="261.46" cy="202.78" rx="2.8" ry="2.79" fill="#C5D2E7"/></mask><g mask="url(#dot-pattern-indigoa)"><path fill="url(#dot-pattern-indigob)" d="M.86-41.52h267.91v255.13H.86z"/></g></symbol><symbol id="facebook-no-fill" viewBox="0 0 26 26"><path d="M11.286 19.154v-5.812H9.923v-2.24h1.363V9.76c0-1.826.77-2.913 2.957-2.913h1.82v2.24h-1.136c-.851 0-.908.312-.908.897l-.003 1.12h2.062l-.242 2.24h-1.82v5.81h-2.73z" fill="currentColor"/></symbol><symbol id="facebook" viewBox="0 0 26 26"><path fill="currentColor" d="M4.2 3.1c-.6 0-1.1.5-1.1 1.1v17.6c0 .6.5 1.1 1.1 1.1h9.5v-7.7h-2.6v-3h2.6V10c0-2.6 1.6-4 3.8-4 1.1 0 2 .1 2.3.1v2.7h-1.6c-1.2 0-1.5.6-1.5 1.5v1.9h3l-.4 3h-2.6v7.7h5c.6 0 1.1-.5 1.1-1.1V4.2c0-.6-.5-1.1-1.1-1.1H4.2z"/></symbol><symbol id="flexport-cn-light" viewBox="0 0 1645.91 666.85"><path fill="#fff" d="M184.46 229.62V.68h74.65V220.2c0 15.45 3.39 19.23 19.23 19.23h6.41l8.8 60.56c-5.66.76-28.78 2.4-42.73 2.4-41.1 0-66.36-14.33-66.36-72.77zM756.3 89.78l58.07-4.52 5.66 17.3c11.69-10.94 32-21.87 75.78-21.87 75.41 0 92.75 53.16 92.75 112.36 0 59.57-19.23 112-97.28 112-34.68 0-50.89-7.92-60.32-16.59v75.41H756.3zm156.48 106.29c0-25.26-4.53-47.51-36.95-47.51-34.69 0-44.87 17.72-44.87 47.51s7.54 46 44.87 46c31.67 0 36.95-20.74 36.95-46zM1254.9 89.78l58.06-4.52 7.55 22.58c9.42-12.82 35.44-23.75 66.36-24.88v71.86c-49.78.37-57.31 15.23-57.31 44.64v102.18h-74.66zm152.79-6.7h38.46l12.06-43.86 57.69-12.44v56.3h47.13v71.82h-47.13v62.29c0 14.7 2.27 22.24 25.64 22.24h21.49v62.21c-11.31.75-23.75 1.13-37.7 1.13-63 0-83.7-20-83.7-74.28V154.9h-33.94z"/><path fill="#f85959" d="M1583.73 239.41h62.18v62.18h-62.18z"/><path fill="#fff" d="M0 85.59h40.72v-4.14C40.72 27.15 61.07 0 131.21 0c18.47 0 21.86.39 30.91 1.14v60.7h-20.75c-21.49 0-26 5.28-26 19.23v4.52h46.75v63.35h-46.75v152.7H40.72v-152.7H0zm456.06 151.57c-12.35 7.23-18.69 8.84-43.35 8.84-29.23 0-40.47-10.39-44.21-28h143.52c2.63-76.08-3.75-137.54-99.31-137.54-95.93 0-116.16 52.84-116.16 111.68 0 60.33 20.23 113.45 116.16 113.45 37.83 0 61.69-7 87-23.46zm-45.59-95.24c30.72 0 33 14.62 34.1 32.23h-76.82c3-20.61 12.74-32.23 42.72-32.23z"/><path fill="#fff" d="M660.04 301.73l-36.61-52.33-36.6 52.33h-83.45l78.12-111.32-70.95-100.56 84.35-.06 28.89 41.04 28.92-41.03 85.29.05-72.31 100.08 78.37 111.8h-84.02zm343.98-108.68c0-71.63 32.8-112.36 117.25-112.36s116.89 40.73 116.89 112.36-32.43 112.74-116.89 112.74-117.25-41.1-117.25-112.74zm159.1 2.26c0-27.15-6.78-46.75-41.85-46.75s-41.84 19.6-41.84 46.75c0 26.78 6.78 46.76 41.84 46.76s41.85-19.98 41.85-46.76zM215.09 578.83c-11.48-10-32.66-22.71-53.07-33.94 5.36 53.84 17.09 85.22 39.29 85 5.87 0 8.42-16.08 9.19-43.38 6.89 7.15 15.56 15.06 22.45 19.14-3.06 42.35-11.48 56.13-32.66 56.13-56.9 0-70.42-73.74-72.72-189.32H0v-31.67h158.45c-.26 21.69 0 42.1.76 60.73 15.31-14.29 30.88-30.88 41.34-44.91l27.3 14.8a523.09 523.09 0 01-53.33 50.52c20.92 10.21 43.63 22.71 55.88 32.4zm90.28-62.51v150h-29v-150h-24.79v-28.07h24.79V431l29-3v60.22h24.24v28.07zm54.86 12c-5.36 26-15.31 52.56-26.54 69.65a212.55 212.55 0 00-23-15.31c11-14.28 18.63-37.25 22.71-59.7zm105.63 75.52c-1.79-14-6.38-35.72-11.23-55.88-1.78 65.32-4.59 91.6-11.73 101.3-5.87 8.93-12 11.48-20.93 13.27-8.16 1.53-21.43 1.27-34.44.76a71.38 71.38 0 00-9.16-29.09 289.82 289.82 0 0029.35 1.27c4.33 0 7.14-1 9.44-4.34 5.61-7.14 7.91-40.57 9.44-126.3h-23.47c-1.78 52.56-13 115.84-67.87 162-5.1-6.63-15.81-16.84-23-20.92 49.5-40.57 60-95.17 62-141.1h-38v-29.32h38.52v-42.67l28.58-3v45.67h52.82s-.26 10-.26 13.78l-.73 37.73 18.62-3.82c7.4 23.72 15.31 55.36 18.37 74zm95.72-84.21v146.71h-29.34V519.63h-27.81v-27.55h27.81v-60.54l29.34-3v63.54h25.52v27.55zm181.67 89h-36.74v30.11c0 13.27-2.3 19.64-11.74 23.73-8.93 3.57-21.43 3.82-38.53 3.82-1-7.65-4.85-17.6-8.16-25 10.2.51 21.94.51 25.26.51s4.33-1 4.33-3.83v-29.29h-51.3a197.37 197.37 0 0126.28 27.05l-21.94 16.58c-5.62-9.7-19.4-23.73-30.37-33.93l13.78-9.7h-36.75v-24.49h100.3v-14.8h23.48V561h-27.56v13h-27.3v-13h-25.26v13.78h-25.51V486h50.77v-10h-63.53v-22.71h63.53v-22l27.3-3v25h28.58c-5.87-3.57-12.25-7.14-17.61-9.95l13-15.56c11.22 4.59 25.77 12.76 33.42 18.37l-5.61 7.14h15.56V476h-67.34v10h54.35v88.8h-21.43v9.44h36.74zM621.03 505.86v9.43h25.26v-9.43zm25.26 37v-9.69h-25.26v9.69zm27.3-37v9.43h27.56v-9.43zm27.56 37v-9.69h-27.56v9.69z"/></symbol><symbol id="flexport-light" viewBox="0 0 474.8 110.5"><path d="M56 69.8V.2h22.7v66.7c0 4.7 1 5.8 5.8 5.8h1.9l2.7 18.4c-1.7.2-8.7.7-13 .7-12.4.1-20.1-4.3-20.1-22zm173.8-42.5l17.6-1.4 1.7 5.3c3.5-3.3 9.7-6.6 23-6.6 22.9 0 28.2 16.1 28.2 34.1 0 18.1-5.8 34-29.6 34-10.5 0-15.5-2.4-18.3-5v22.9h-22.7l.1-83.3zm47.5 32.3c0-7.7-1.4-14.4-11.2-14.4-10.5 0-13.6 5.4-13.6 14.4s2.3 14 13.6 14c9.6-.1 11.2-6.4 11.2-14zm103.9-32.3l17.6-1.4 2.3 6.9c2.9-3.9 10.8-7.2 20.2-7.6V47c-15.1.1-17.4 4.6-17.4 13.6v31h-22.7V27.3zm46.4-2.1h11.7l3.7-13.3 17.5-3.8v17.1h14.3V47h-14.3v19c0 4.5.7 6.8 7.8 6.8h6.5v18.9c-3.4.2-7.2.3-11.5.3-19.1 0-25.4-6.1-25.4-22.6V47.1h-10.3V25.2zM0 26h12.4v-1.3C12.4 8.2 18.6 0 39.9 0c5.6 0 6.6.1 9.4.3v18.4H43c-6.5 0-7.9 1.6-7.9 5.8V26h14.2v19.2H35v46.4H12.4V45.2H0V26zm138.5 46c-3.8 2.2-5.7 2.7-13.2 2.7-8.9 0-12.3-3.2-13.4-8.5h43.6c.8-23.1-1.1-41.8-30.2-41.8S90 40.5 90 58.3c0 18.3 6.1 34.5 35.3 34.5 11.5 0 18.7-2.1 26.4-7.1L138.5 72zm-13.8-28.9c9.3 0 10 4.4 10.4 9.8h-23.3c.8-6.3 3.8-9.8 12.9-9.8z" fill="#fff"/><path d="M200.5 91.7l-11.1-15.9-11.1 15.9h-25.4l23.8-33.9-21.6-30.5h25.6l8.8 12.4 8.8-12.4h25.9l-22 30.4 23.8 34zM305 58.6c0-21.8 10-34.1 35.6-34.1 25.7 0 35.5 12.4 35.5 34.1 0 21.8-9.9 34.2-35.5 34.2-25.6.1-35.6-12.4-35.6-34.2zm48.3.7c0-8.2-2.1-14.2-12.7-14.2-10.7 0-12.7 6-12.7 14.2 0 8.1 2.1 14.2 12.7 14.2 10.7 0 12.7-6 12.7-14.2z" fill="#fff"/></symbol><symbol id="form-error" viewBox="0 0 28 28"><circle cx="14" cy="14" r="10" fill="currentColor"/><path fill="#fff" d="M12.571 8.286h2.857v7.143h-2.857zm0 8.571h2.857v2.857h-2.857z"/></symbol><symbol id="form-submit-success" viewBox="0 0 50 50"><circle cx="24.657" cy="24.657" r="24.657" fill="#E9EEF4"/><path d="M20.004 15.835h12.682a4.767 4.767 0 014.754 4.755v12.67a4.767 4.767 0 01-4.754 4.755H20.004a4.767 4.767 0 01-4.755-4.755V20.578a4.768 4.768 0 014.755-4.742" fill="#35DDC6"/><path d="M30.218 13.139H17.536a4.755 4.755 0 00-4.755 4.754v12.682a4.755 4.755 0 004.755 4.755h12.682a4.755 4.755 0 004.755-4.755V17.893a4.755 4.755 0 00-4.755-4.755z" stroke="#293846" fill="transparent"/><path d="M18.28 23.592l5.005 5.01L39.28 12.61" stroke="#293846" fill="transparent"/></symbol><symbol id="get-started-dark" viewBox="0 0 504 346"><path d="M98.086 182.137C123.863 71.937 196.85-.113 197 .027c.07-.06-194 0-194 0s8.802 79.888 18.398 112.799C36.516 169.141 64.492 215.318 86.181 245a470.635 470.635 0 0111.905-62.863z" fill="#3E4A58"/><path d="M292.024 168.566C264.964 68.08 196.829-.14 196.67 0c-.16-.14-73.266 70.71-99.138 180.974C85.365 227.327 78.707 282.409 83.638 346h225.724c5.38-69.4-3.034-128.611-17.338-177.434z" fill="#5B6973"/><path d="M85.67 245a478.714 478.714 0 00-1.838 101H169c-24.948-22.19-57.464-56.41-83.33-101zm322.249-81.138C382.143 274.06 309.159 346.119 309 345.969c-.07.07 194 0 194 0s-8.801-79.877-18.407-112.787c-15.116-56.314-43.081-102.491-64.77-132.182a470.618 470.618 0 01-11.904 62.862z" fill="#3E4A58"/><path d="M213.966 177.42c27.07 100.5 95.205 168.73 95.365 168.58.159.15 73.265-70.71 99.137-180.94 12.168-46.4 18.825-101.4 13.894-165.06H196.638c-5.38 69.37 3.034 128.58 17.328 177.42z" fill="#5B6973"/><path d="M420.338 101a479.994 479.994 0 001.837-101H337c24.94 22.19 57.469 56.41 83.338 101z" fill="#3E4A58"/></symbol><symbol id="get-started-light" viewBox="0 0 504 346"><path d="M98.086 182.137C123.863 71.937 196.85-.113 197 .027c.07-.06-194 0-194 0s8.802 79.888 18.398 112.799C36.516 169.141 64.492 215.318 86.181 245a470.651 470.651 0 0111.905-62.863z" fill="#F2F5F8"/><path d="M292.024 168.566C264.964 68.08 196.829-.14 196.67 0c-.16-.14-73.266 70.71-99.138 180.974C85.365 227.327 78.707 282.409 83.638 346h225.724c5.38-69.4-3.034-128.611-17.338-177.434z" fill="#fff"/><path d="M85.67 245a478.714 478.714 0 00-1.838 101H169c-24.948-22.19-57.464-56.41-83.33-101zm322.249-81.138C382.143 274.06 309.159 346.119 309 345.969c-.07.07 194 0 194 0s-8.801-79.877-18.407-112.787c-15.116-56.314-43.081-102.491-64.77-132.182a470.618 470.618 0 01-11.904 62.862z" fill="#F2F5F8"/><path d="M213.966 177.42c27.07 100.5 95.205 168.73 95.365 168.58.159.15 73.265-70.71 99.137-180.94 12.168-46.4 18.825-101.4 13.894-165.06H196.638c-5.38 69.37 3.034 128.58 17.328 177.42z" fill="#fff"/><path d="M420.338 101a479.994 479.994 0 001.837-101H337c24.94 22.19 57.469 56.41 83.338 101z" fill="#F2F5F8"/></symbol><symbol id="get-started-small" viewBox="0 0 135 105"><path d="M135 .057V66.05c-14.131-.647-31.035.241-48.658 4.827a196.05 196.05 0 00-25.59 7.841c6.73-13.852 18.33-33.26 36.2-49.865C106.932 19.169 133.393 1.149 135 .057z" fill="#3E4A58"/><path d="M135 65.133V105H25.904l-4.037-7.654c22.703-14.299 44.495-22.653 64.11-27.262 17.844-4.687 34.865-5.598 49.023-4.95z" fill="#5B6973"/><path d="M45.874 105H5.266a321.438 321.438 0 0156.178-28.018c-6.036 9.38-11.186 18.825-15.57 28.018z" fill="#3E4A58"/></symbol><symbol id="glassdoor" viewBox="0 0 26 26"><path d="M17.472 20.208H6a2.868 2.868 0 002.868 2.868h8.604a2.868 2.868 0 002.868-2.868V8.431a.105.105 0 00-.105-.105h-2.658a.105.105 0 00-.104.105l-.001 11.777zm0-17.208a2.868 2.868 0 012.868 2.868H8.868v11.777a.105.105 0 01-.105.105H6.105A.105.105 0 016 17.645V5.869A2.868 2.868 0 018.868 3h8.604z" fill="currentColor"/></symbol><symbol id="help-circle" viewBox="0 0 24 24"><path fill="currentColor" d="M15.07 11.25l-.9.92C13.45 12.89 13 13.5 13 15h-2v-.5c0-1.11.45-2.11 1.17-2.83l1.24-1.26c.37-.36.59-.86.59-1.41a2 2 0 00-2-2 2 2 0 00-2 2H8a4 4 0 014-4 4 4 0 014 4 3.2 3.2 0 01-.93 2.25M13 19h-2v-2h2M12 2A10 10 0 002 12a10 10 0 0010 10 10 10 0 0010-10c0-5.53-4.5-10-10-10z"/></symbol><symbol id="link" viewBox="0 0 26 26"><path d="M10 15.5h2a.25.25 0 01.25.25v1A.25.25 0 0112 17h-2a4.5 4.5 0 110-9h2a.25.25 0 01.25.25v1a.25.25 0 01-.25.25h-2a3 3 0 000 6zM16 8h-2a.25.25 0 00-.25.25v1c0 .138.112.25.25.25h2a3 3 0 010 6h-2a.25.25 0 00-.25.25v1c0 .138.112.25.25.25h2a4.5 4.5 0 100-9zm-6.5 4.194c0-.245.199-.444.444-.444h6.112c.245 0 .444.199.444.444v.612a.444.444 0 01-.444.444H9.944a.444.444 0 01-.444-.444v-.612z" fill="currentColor"/></symbol><symbol id="linkedin-no-fill" viewBox="0 0 26 26"><path d="M10.023 10.807H7.789V18h2.234v-7.193zm.183-2.279a1.295 1.295 0 10-2.59 0 1.295 1.295 0 002.59 0zm3.358 2.278H11.43V18h2.23v-3.56c0-.935.174-1.846 1.336-1.846 1.146 0 1.158 1.073 1.158 1.909V18h2.23v-3.942c0-1.938-.42-3.426-2.678-3.426-1.088 0-1.814.594-2.113 1.16h-.03l.001-.986z" fill="currentColor"/></symbol><symbol id="linkedin" viewBox="0 0 26 26"><path fill="currentColor" d="M7.6 23.1H3.5V9.6h4.1v13.5zM5.5 7.8c-1.3 0-2.4-1.1-2.4-2.4C3.1 4.1 4.2 3 5.5 3c1.3 0 2.4 1.1 2.4 2.4 0 1.3-1.1 2.4-2.4 2.4zm17.4 15.3h-4.1v-6.6c0-1.6 0-3.6-2.1-3.6s-2.5 1.7-2.5 3.5v6.7h-4.1V9.6H14v1.8h.1c.5-1.1 1.9-2.2 3.9-2.2 4.1 0 4.9 2.8 4.9 6.4v7.5z"/></symbol><symbol id="loading" viewBox="0 0 24 24"> <path fill="currentColor" d="M12,4V2A10,10 0 0,0 2,12H4A8,8 0 0,1 12,4Z"/> </symbol><symbol id="loop" viewBox="0 0 372 372"><mask id="loopa" style="mask-type:alpha" maskUnits="userSpaceOnUse" x="0" y="0" width="372" height="372"><path fill="#C4C4C4" d="M.4.03h370.89V371.7H.4z"/></mask><g mask="url(#loopa)" stroke="#B8C1CB" stroke-width="1.38" stroke-linejoin="round" stroke-dasharray="6.67 6.67"><circle cx="188.53" cy="185.82" r="164.66"/><circle cx="188.27" cy="185.55" r="147.18"/></g><path d="M295.85 185.77c0 59.67-48.22 108.03-107.7 108.03-59.46 0-107.68-48.36-107.68-108.03 0-59.66 48.22-108.02 107.69-108.02s107.7 48.36 107.7 108.02z" stroke="#24303E" stroke-width="2.07"/><path d="M303.3 185.48a7.83 7.83 0 11-15.65 0 7.83 7.83 0 0115.65 0z" fill="#B8C1CB"/><circle cx="80.58" cy="185.48" r="7.82" fill="#B8C1CB"/><circle cx="187.41" cy="296.19" r="7.82" fill="#B8C1CB"/><circle cx="188.16" cy="185.44" r="128.28" stroke="#45DABE" stroke-width="1.38" stroke-linejoin="round" stroke-dasharray="6.67 6.67"/><path d="M189.23 148.05h-11.2a3.14 3.14 0 00-3.15 3.14v7.37c0 1.74 1.41 3.14 3.15 3.14h11.2c1.73 0 3.14-1.4 3.14-3.14v-7.37c0-1.73-1.41-3.14-3.14-3.14z" fill="#FA5959"/><path d="M202.6 167.63h-18.83a2.8 2.8 0 00-2.79 2.79v4.73a2.79 2.79 0 002.8 2.79h18.81a2.79 2.79 0 002.8-2.8v-4.72a2.8 2.8 0 00-2.8-2.8z" fill="#45DABE"/><path d="M178.65 167.09v4.9a3.5 3.5 0 003.5 3.52h17.22a3.51 3.51 0 003.51-3.51v-12.38a3.5 3.5 0 00-3.51-3.5H198" stroke="#24303E" stroke-width="1.59" stroke-linecap="round" stroke-linejoin="round"/><path d="M190.58 141.09h-18.01a4.45 4.45 0 00-4.45 4.44v13.97a4.44 4.44 0 004.45 4.45h18.01a4.44 4.44 0 004.45-4.45v-13.97a4.45 4.45 0 00-4.45-4.44v0z" stroke="#24303E" stroke-width="1.59" stroke-linecap="round" stroke-linejoin="round"/><path d="M190.24 145.72h-17.75v13.58h17.75v-13.58zm-7.37 25.58h15.31m-15.31-3.96h15.31" stroke="#24303E" stroke-width="1.59" stroke-linecap="round" stroke-linejoin="round"/><path d="M171.58 268.4h-3.16v8.9h1.2v-3.64h1.96c1.84 0 3.01-1.02 3.01-2.63 0-1.6-1.17-2.63-3.01-2.63zm-.13 4.26h-1.84v-3.25h1.84c1.15 0 1.9.63 1.9 1.62 0 1-.75 1.63-1.9 1.63zm5.51-.2v-1.43h-.99v6.26h1.07v-2.68c0-.75.02-1.59.62-2.19.3-.3.73-.49 1.38-.49h.05v-1.03c-.07-.02-.15-.02-.22-.02-.96 0-1.6.7-1.9 1.58zm5.8 4.98c1.77 0 2.92-1.24 2.92-3.28s-1.15-3.28-2.91-3.28c-1.77 0-2.92 1.24-2.92 3.28s1.15 3.28 2.92 3.28zm0-.92c-1.12 0-1.78-.8-1.78-2.36 0-1.55.66-2.35 1.79-2.35 1.12 0 1.79.8 1.79 2.35 0 1.56-.67 2.36-1.8 2.36zm3.67-4.61h1.16v3.5c0 1.17.35 2 1.7 2 .4 0 .66-.04.93-.12v-.97c-.2.05-.37.08-.65.08-.64 0-.91-.3-.91-1.02v-3.47h1.56v-.88h-1.56v-2.09l-1.07.45v1.64h-1.16v.88zm10.24 1.82c0-1.88-.98-2.85-2.67-2.85-1.79 0-2.84 1.27-2.84 3.36 0 2.06 1.06 3.2 2.85 3.2 1.27 0 2.18-.6 2.62-1.74l-.88-.38a1.68 1.68 0 01-1.66 1.19c-1.12 0-1.85-.8-1.87-2.03h4.45v-.75zm-1.08-.12h-3.37c.03-1.17.65-1.89 1.75-1.89 1.03 0 1.62.6 1.62 1.75v.14zm5.15 3.83c1.4 0 2.34-.82 2.56-2.25l-1.01-.16c-.16.97-.69 1.49-1.54 1.49-1.11 0-1.76-.87-1.76-2.37 0-1.46.65-2.34 1.72-2.34.85 0 1.4.53 1.52 1.48l1.09-.13c-.17-1.44-1.12-2.28-2.58-2.28-1.78 0-2.88 1.24-2.88 3.28 0 2 1.13 3.28 2.88 3.28zm3.33-5.53h1.17v3.5c0 1.17.35 2 1.7 2 .4 0 .65-.04.93-.12v-.97c-.22.05-.38.08-.66.08-.63 0-.9-.3-.9-1.02v-3.47h1.56v-.88h-1.57v-2.09l-1.06.45v1.64h-1.17v.88zm-25.18-164.55c2.22 0 3.24-1.24 3.24-2.62 0-1.61-1.07-2.22-2.45-2.51l-1.3-.28c-1-.21-1.46-.66-1.46-1.53 0-.9.76-1.44 1.84-1.44 1.32 0 1.98.66 2.13 1.84l1.2-.24c-.18-1.75-1.54-2.53-3.3-2.53-1.9 0-3.1 1-3.1 2.49 0 1.52.97 2.19 2.24 2.45l1.28.26c1.04.22 1.7.56 1.7 1.6 0 1.13-1.02 1.53-1.98 1.53-1.57 0-2.25-.96-2.4-2.05l-1.2.18c.14 1.62 1.3 2.85 3.56 2.85zm4.94-.21h1.06v-3.27c0-1.41.61-2.23 1.69-2.23.9 0 1.36.58 1.36 1.68v3.82h1.07v-3.9c0-1.65-.72-2.51-2.07-2.51-.97 0-1.68.45-2.05 1.33v-4h-1.06v9.08zm7.17-7.43h1.21v-1.34H191v1.34zm.07 7.43h1.07v-6.26h-1.07v6.26zm3.32 2.44h1.06v-3.43c.28.61.95 1.14 1.92 1.14 1.51 0 2.59-1.28 2.59-3.28 0-1.98-1.02-3.28-2.53-3.28-.92 0-1.64.45-2.04 1.31v-1.16h-1v8.7zm2.73-3.23c-1.04 0-1.7-.85-1.7-2.2v-.3c0-1.36.68-2.18 1.73-2.18 1.06 0 1.68.86 1.68 2.34 0 1.46-.65 2.34-1.71 2.34zm-98.78 84.73c1.33 0 2.34-.68 2.73-1.65l.16 1.43h.87v-4.64h-3.67v1h2.6v.15c0 .85-.32 2.7-2.51 2.7-1.93 0-2.86-1.61-2.86-3.64 0-2.17 1.03-3.67 2.84-3.67 1.6 0 2.13 1.1 2.26 1.85l1.17-.16c-.15-.99-.93-2.69-3.39-2.69-2.63 0-4.1 1.94-4.1 4.66 0 2.68 1.47 4.66 3.9 4.66zm6.74-5.05v-1.43h-.98v6.26h1.06v-2.68c0-.75.03-1.59.63-2.19.3-.3.72-.49 1.37-.49h.05v-1.04H107c-.95 0-1.6.7-1.9 1.57zm5.8 4.98c1.77 0 2.93-1.24 2.93-3.28s-1.16-3.28-2.92-3.28c-1.77 0-2.92 1.24-2.92 3.28s1.15 3.28 2.92 3.28zm0-.92c-1.12 0-1.78-.8-1.78-2.36 0-1.55.66-2.35 1.79-2.35s1.79.8 1.79 2.35-.67 2.36-1.8 2.36zm5.5.77h1.17l1.19-4.5c.05-.2.1-.52.13-.7h.03c.02.18.08.5.13.7l1.2 4.5h1.16l1.76-6.26h-1.1l-1.12 4.47-.14.74h-.03c-.04-.25-.11-.51-.16-.74l-1.14-4.47h-1.15l-1.14 4.47c-.05.23-.13.49-.16.74h-.03l-.14-.74-1.12-4.47h-1.1l1.76 6.26zm138.08.22c2.14 0 3.21-1.33 3.55-3.01l-1.15-.2c-.25 1.33-1.14 2.17-2.4 2.17-1.82 0-2.76-1.58-2.76-3.66 0-2.15.99-3.6 2.73-3.6 1.38 0 2.2.88 2.37 2.22l1.21-.12c-.22-1.84-1.35-3.12-3.52-3.12-2.64 0-4.04 1.9-4.04 4.63 0 2.58 1.25 4.69 4 4.69zm6.43-9.3h-1.06v9.08h1.06v-9.08zm7.27 5.51c0-1.87-.98-2.84-2.67-2.84-1.79 0-2.84 1.27-2.84 3.36 0 2.06 1.06 3.2 2.86 3.2 1.26 0 2.17-.6 2.61-1.74l-.87-.39a1.68 1.68 0 01-1.67 1.2c-1.11 0-1.85-.8-1.87-2.03h4.45v-.76zm-1.08-.1h-3.37c.03-1.19.66-1.9 1.76-1.9 1.02 0 1.61.6 1.61 1.75v.14zm4.39 3.82c1.02 0 1.81-.49 2.1-1.29.01.4.05.82.1 1.14h1.11a7.5 7.5 0 01-.2-2.11v-1.7c0-1.82-.76-2.6-2.47-2.6-1.47 0-2.47.84-2.56 2.12h1.14c.05-.8.58-1.24 1.43-1.24.96 0 1.38.46 1.38 1.61v.1l-1.17.14a6.38 6.38 0 00-2.1.51c-.57.32-.88.86-.88 1.48 0 1.12.84 1.84 2.12 1.84zm.23-.87c-.76 0-1.22-.38-1.22-1 0-.6.4-.93 1.32-1.07l1.7-.25v.31c0 1.22-.7 2-1.8 2zm5.95-4.11v-1.43h-.99v6.26h1.07v-2.68c0-.75.02-1.59.62-2.19.3-.3.73-.49 1.38-.49h.05v-1.04h-.22c-.96 0-1.6.7-1.9 1.57zM154 196.14h-7.87v1.48h3.03v8.52h1.81v-8.52H154v-1.48zm1.42 10h1.7v-3.74c0-1.35.57-2.12 1.59-2.12.85 0 1.3.55 1.3 1.62v4.24h1.7v-4.38c0-1.86-.8-2.83-2.33-2.83a2.3 2.3 0 00-2.27 1.46v-4.46h-1.69v10.2zm14.34-3.88c0-2.15-1.17-3.33-3.22-3.33-2.1 0-3.36 1.43-3.36 3.76 0 2.3 1.3 3.62 3.45 3.62 1.44 0 2.55-.68 3.07-1.9l-1.3-.6a1.77 1.77 0 01-1.71 1.17c-1.12 0-1.86-.76-1.88-1.94h4.95v-.78zm-1.66-.33h-3.29c.03-1.17.64-1.88 1.7-1.88 1 0 1.59.6 1.59 1.76v.12zm13.57-4.36v-1.43h-6.5v10H177v-4.36h4.44v-1.43H177v-2.78h4.68zm3.37-1.64h-1.7v10.2h1.7v-10.2zm8.3 6.33c0-2.15-1.18-3.33-3.22-3.33-2.1 0-3.37 1.43-3.37 3.76 0 2.3 1.3 3.62 3.46 3.62 1.43 0 2.54-.68 3.06-1.9l-1.3-.6a1.77 1.77 0 01-1.7 1.17c-1.12 0-1.87-.76-1.88-1.94h4.94v-.78zm-1.67-.33h-3.28c.03-1.17.63-1.88 1.7-1.88 1 0 1.58.6 1.58 1.76v.12zm2.1 4.2h1.85l1.25-1.9c.23-.33.35-.59.4-.73h.02c.03.14.17.43.39.74l1.25 1.9h1.93l-2.55-3.62 2.34-3.43h-1.89l-1.04 1.72c-.19.3-.31.54-.37.72h-.01c-.06-.17-.19-.4-.38-.72l-1.09-1.72h-1.93l2.38 3.4-2.55 3.65zm8.39 2.75h1.69v-3.76a2.28 2.28 0 002.08 1.19c1.74 0 2.92-1.44 2.92-3.7 0-2.23-1.14-3.69-2.83-3.69-1 0-1.82.48-2.26 1.4v-1.23h-1.6v9.8zm3.28-3.87c-1 0-1.63-.86-1.63-2.21v-.35c0-1.43.63-2.23 1.65-2.23s1.63.87 1.63 2.38c0 1.5-.63 2.4-1.65 2.4zm7.98 1.3c2.03 0 3.45-1.34 3.45-3.7 0-2.36-1.42-3.69-3.45-3.69-2.03 0-3.45 1.33-3.45 3.68 0 2.37 1.42 3.7 3.45 3.7zm0-1.29c-1.08 0-1.73-.81-1.73-2.42 0-1.6.65-2.4 1.73-2.4 1.09 0 1.72.8 1.72 2.4 0 1.6-.63 2.42-1.72 2.42zm6.7-4.22v-1.7h-1.58v7.04h1.7v-2.96c0-.78.06-1.58.62-2.13.33-.3.8-.5 1.47-.5h.22v-1.61l-.2-.01c-1.13 0-1.88.76-2.23 1.87zm3.18-.48h1.27v3.63c0 1.43.56 2.31 2.25 2.31.44 0 .75-.04 1.16-.12v-1.43c-.22.05-.4.09-.69.09-.7 0-1.03-.37-1.03-1.11v-3.37h1.72v-1.23h-1.72v-2.45l-1.69.68v1.77h-1.27v1.23zM164 215.14h-3.96v10h1.82v-3.88h2.12c2.16 0 3.51-1.2 3.51-3.08 0-1.85-1.37-3.04-3.5-3.04zm-.34 4.74h-1.8v-3.35h1.8c1.18 0 1.91.65 1.91 1.68 0 1.04-.73 1.67-1.91 1.67zm6.95-4.95h-1.69v10.2h1.7v-10.2zm4.1 10.38c1.13 0 2.02-.53 2.35-1.38.02.43.06.85.12 1.2h1.69a8.5 8.5 0 01-.21-2.18v-2.1c0-2.04-.93-2.92-3.02-2.92-1.81 0-3 .92-3.11 2.43h1.73c.06-.8.55-1.24 1.38-1.24.9 0 1.31.45 1.31 1.5v.2l-1.5.18a6.23 6.23 0 00-2.29.63 1.8 1.8 0 00-.85 1.6c0 1.24.95 2.08 2.4 2.08zm.54-1.2c-.75 0-1.2-.38-1.2-.97 0-.6.42-.95 1.35-1.1l1.6-.24v.45c0 1.11-.71 1.86-1.75 1.86zm4.45-4.8h1.26v3.64c0 1.43.57 2.31 2.26 2.31.43 0 .74-.04 1.15-.12v-1.43c-.22.05-.4.09-.69.09-.7 0-1.03-.37-1.03-1.11v-3.37h1.72v-1.23h-1.72v-2.45l-1.69.68v1.77h-1.26v1.23zm10.29-1.22h-1.7v-.78c0-.75.3-1.12.98-1.12.2 0 .46.03.72.07v-1.3a4.56 4.56 0 00-1-.12c-1.51 0-2.4.89-2.4 2.35v.9h-1.21v1.23h1.21v5.82h1.7v-5.82h1.7v-1.23zm4.1 7.22c2.03 0 3.45-1.34 3.45-3.7 0-2.36-1.42-3.69-3.45-3.69-2.03 0-3.45 1.33-3.45 3.68 0 2.37 1.42 3.7 3.45 3.7zm0-1.29c-1.08 0-1.73-.81-1.73-2.42 0-1.6.65-2.4 1.73-2.4 1.09 0 1.72.8 1.72 2.4 0 1.6-.63 2.42-1.72 2.42zm6.7-4.22v-1.7h-1.58v7.04h1.69v-2.96c0-.78.07-1.58.63-2.13.33-.3.8-.5 1.47-.5h.22v-1.61l-.2-.01c-1.14 0-1.88.76-2.23 1.87zm3.82-1.7v7.04h1.7v-4.07c0-1.13.49-1.8 1.33-1.8.75 0 1.14.51 1.14 1.49v4.38h1.7v-4.12c0-1.12.47-1.74 1.33-1.74.78 0 1.16.49 1.16 1.52v4.34h1.69v-4.6c0-1.66-.8-2.61-2.16-2.61-.98 0-1.72.46-2.2 1.42a1.97 1.97 0 00-2-1.42c-.98 0-1.66.46-2.08 1.4v-1.24h-1.6z" fill="#24303E"/><path d="M102.7 265l.34-12.27 12.26-.33m163.76 6.92l-12.27-.33-.33-12.26m7.88-137.15l-.33 12.26-12.26.34m-167.66-6.63l12.26.33.33 12.26" stroke="#24303E" stroke-width="2.07" stroke-linecap="round"/><circle cx="187.41" cy="78.28" r="7.82" fill="#B8C1CB"/><circle cx="188.19" cy="185.48" r="182.31" stroke="#B8C1CB" stroke-width="1.38" stroke-linejoin="round" stroke-dasharray="6.67 6.67"/></symbol><symbol id="mail" viewBox="0 0 26 26"><path d="M13.638 12.506a.432.432 0 01-.375 0L7 9.037v-.822C7 8.096 7.096 8 7.215 8h12.47c.12 0 .216.096.216.215v.787l-.005.002a.072.072 0 00-.009.004l-6.249 3.498zm-.375 1.452a.43.43 0 00.375 0l6.263-3.495v7.213a.215.215 0 01-.215.215H7.215A.215.215 0 017 17.676v-7.213l6.263 3.495z" fill="currentColor"/></symbol><symbol id="mapbox-flexport-office-marker" viewBox="0 0 16 16"><path fill="#fff" stroke="currentColor" stroke-width="5" d="M13.5 8a5.5 5.5 0 11-11 0 5.5 5.5 0 0111 0z"/></symbol><symbol id="mobile-loop" viewBox="0 0 272 272"><path d="M215.605 135.994c0 43.584-35.224 78.912-78.67 78.912-43.446 0-78.67-35.328-78.67-78.912s35.224-78.912 78.67-78.912c43.446 0 78.67 35.328 78.67 78.912z" stroke="#24303E" stroke-width="1.512"/><path d="M221.445 135.778a5.716 5.716 0 11-11.432 0 5.716 5.716 0 0111.432 0z" fill="#45DABE"/><circle cx="58.744" cy="135.778" r="5.716" fill="#B8C1CB"/><circle cx="137.489" cy="135.749" r="93.713" stroke="#45DABE" stroke-width="1.008" stroke-linejoin="round" stroke-dasharray="4.88 4.88"/><path d="M139.436 103.589h-8.182a2.294 2.294 0 00-2.294 2.294v5.386a2.295 2.295 0 002.294 2.295h8.182a2.296 2.296 0 002.295-2.295v-5.386a2.295 2.295 0 00-2.295-2.294z" fill="#FA5959"/><path d="M149.199 117.892h-13.745a2.037 2.037 0 00-2.038 2.038v3.453c0 1.126.912 2.039 2.038 2.039h13.745a2.04 2.04 0 002.039-2.039v-3.453a2.038 2.038 0 00-2.039-2.038z" fill="#45DABE"/><path d="M131.711 117.496v3.586a2.553 2.553 0 00.749 1.816 2.565 2.565 0 001.813.752h12.571a2.553 2.553 0 001.817-.75 2.577 2.577 0 00.75-1.818v-9.039a2.55 2.55 0 00-.752-1.813 2.565 2.565 0 00-1.815-.749h-.997" stroke="#24303E" stroke-width="1.159" stroke-linecap="round" stroke-linejoin="round"/><path d="M140.427 98.504h-13.16a3.244 3.244 0 00-3.247 3.247v10.203a3.247 3.247 0 003.247 3.247h13.16a3.247 3.247 0 003.247-3.247v-10.203a3.248 3.248 0 00-3.247-3.247v0z" stroke="#24303E" stroke-width="1.159" stroke-linecap="round" stroke-linejoin="round"/><path d="M140.177 101.89h-12.966v9.919h12.966v-9.919zm-5.386 18.68h11.189m-11.189-2.89h11.189" stroke="#24303E" stroke-width="1.159" stroke-linecap="round" stroke-linejoin="round"/><path d="M107.183 140.515h-7.234v1.358h2.783v7.829h1.669v-7.829h2.782v-1.358zm1.307 9.187h1.553v-3.429c0-1.242.53-1.954 1.462-1.954.789 0 1.203.505 1.203 1.488v3.895h1.553v-4.024c0-1.708-.737-2.601-2.135-2.601-.983 0-1.695.453-2.083 1.346v-4.103h-1.553v9.382zm13.169-3.558c0-1.98-1.075-3.067-2.951-3.067-1.928 0-3.093 1.32-3.093 3.455 0 2.122 1.191 3.325 3.171 3.325 1.32 0 2.342-.621 2.821-1.747l-1.191-.543c-.297.699-.841 1.074-1.578 1.074-1.023 0-1.709-.699-1.722-1.786h4.543v-.711zm-1.527-.311h-3.016c.026-1.074.583-1.721 1.566-1.721.919 0 1.45.556 1.45 1.617v.104zm12.471-3.999v-1.319h-5.966v9.187h1.67v-3.998h4.076v-1.32h-4.076v-2.55h4.296zm3.093-1.514h-1.553v9.382h1.553v-9.382zm7.622 5.824c0-1.98-1.074-3.067-2.95-3.067-1.928 0-3.093 1.32-3.093 3.455 0 2.122 1.191 3.325 3.171 3.325 1.32 0 2.342-.621 2.821-1.747l-1.191-.543c-.298.699-.841 1.074-1.579 1.074-1.022 0-1.708-.699-1.721-1.786h4.542v-.711zm-1.527-.311h-3.015c.026-1.074.583-1.721 1.566-1.721.919 0 1.449.556 1.449 1.617v.104zm1.934 3.869h1.695l1.152-1.747c.207-.31.323-.543.362-.673h.026c.026.13.155.389.349.673l1.152 1.747h1.773l-2.342-3.326 2.148-3.144h-1.734l-.958 1.579c-.168.271-.285.491-.336.66h-.013c-.052-.156-.168-.363-.35-.66l-.996-1.579h-1.773l2.187 3.119-2.342 3.351zm7.704 2.524h1.553v-3.456c.349.635.996 1.087 1.915 1.087 1.591 0 2.678-1.319 2.678-3.403 0-2.044-1.048-3.377-2.601-3.377-.918 0-1.669.44-2.07 1.281v-1.126h-1.475v8.994zm3.015-3.559c-.919 0-1.501-.789-1.501-2.032v-.323c0-1.307.582-2.045 1.514-2.045.944 0 1.501.803 1.501 2.187 0 1.385-.582 2.213-1.514 2.213zm7.333 1.19c1.863 0 3.17-1.229 3.17-3.403 0-2.161-1.307-3.377-3.17-3.377-1.864 0-3.17 1.216-3.17 3.377 0 2.174 1.306 3.403 3.17 3.403zm0-1.177c-.997 0-1.592-.751-1.592-2.226s.595-2.2 1.592-2.2c.996 0 1.579.725 1.579 2.2s-.583 2.226-1.579 2.226zm6.152-3.882v-1.566h-1.45v6.47h1.553v-2.717c0-.712.065-1.45.583-1.954.297-.285.724-.466 1.345-.466.078 0 .143.013.207.013v-1.488c-.064-.013-.116-.013-.181-.013-1.048 0-1.734.698-2.057 1.721zm2.927-.44h1.165v3.338c0 1.307.517 2.123 2.07 2.123a4.74 4.74 0 001.061-.117v-1.307c-.207.039-.375.078-.634.078-.647 0-.944-.337-.944-1.022v-3.093h1.578v-1.126h-1.578v-2.252l-1.553.622v1.63h-1.165v1.126zm-54.489 14.157h-3.637v9.187h1.67v-3.558h1.954c1.98 0 3.222-1.1 3.222-2.834 0-1.696-1.255-2.795-3.209-2.795zm-.311 4.36H114.4v-3.079h1.656c1.087 0 1.76.595 1.76 1.54 0 .957-.673 1.539-1.76 1.539zm6.39-4.555h-1.553v9.382h1.553v-9.382zm3.766 9.537c1.035 0 1.851-.478 2.161-1.268.013.401.052.79.104 1.113h1.553c-.13-.453-.194-1.126-.194-2.006v-1.928c0-1.876-.855-2.691-2.77-2.691-1.669 0-2.756.854-2.86 2.238h1.592c.052-.737.505-1.138 1.268-1.138.828 0 1.204.414 1.204 1.384v.168l-1.372.169c-1.022.142-1.643.31-2.109.582-.518.324-.79.841-.79 1.462 0 1.152.88 1.915 2.213 1.915zm.492-1.099c-.686 0-1.1-.35-1.1-.893 0-.557.388-.867 1.242-1.01l1.463-.22v.414c0 1.023-.647 1.709-1.605 1.709zm4.087-4.4h1.164v3.338c0 1.307.518 2.123 2.071 2.123.401 0 .685-.039 1.061-.117v-1.307c-.207.039-.376.078-.634.078-.647 0-.945-.337-.945-1.022v-3.093h1.579v-1.126h-1.579v-2.252l-1.553.622v1.63h-1.164v1.126zm9.453-1.126h-1.566v-.725c0-.685.284-1.022.906-1.022.194 0 .427.026.66.065v-1.204a4.212 4.212 0 00-.919-.103c-1.385 0-2.2.815-2.2 2.161v.828h-1.113v1.126h1.113v5.344h1.553v-5.344h1.566v-1.126zm3.772 6.625c1.863 0 3.17-1.229 3.17-3.403 0-2.161-1.307-3.377-3.17-3.377-1.864 0-3.171 1.216-3.171 3.377 0 2.174 1.307 3.403 3.171 3.403zm0-1.177c-.997 0-1.592-.751-1.592-2.226s.595-2.2 1.592-2.2c.996 0 1.578.725 1.578 2.2s-.582 2.226-1.578 2.226zm6.151-3.882v-1.566h-1.449v6.47h1.553v-2.717c0-.712.065-1.45.582-1.954.298-.285.725-.466 1.346-.466.078 0 .142.013.207.013v-1.488c-.065-.013-.116-.013-.181-.013-1.048 0-1.734.698-2.058 1.721zm3.517-1.566v6.47h1.553v-3.74c0-1.035.453-1.643 1.23-1.643.685 0 1.048.466 1.048 1.359v4.024h1.553v-3.778c0-1.036.44-1.605 1.229-1.605.712 0 1.061.453 1.061 1.398v3.985h1.553v-4.231c0-1.514-.738-2.394-1.98-2.394-.906 0-1.579.427-2.019 1.307-.31-.867-.931-1.307-1.837-1.307-.906 0-1.527.427-1.915 1.294v-1.139h-1.476z" fill="#24303E"/><path d="M74.909 193.867l.242-8.96 8.96-.242m119.623 5.057l-8.96-.242-.242-8.959m5.759-100.188l-.242 8.96-8.96.242M68.613 84.692l8.96.242.242 8.96" stroke="#24303E" stroke-width="1.512" stroke-linecap="round"/><circle cx="215.441" cy="135.988" r="5.716" fill="#B8C1CB"/><rect x="189.986" y="126.436" width="69.912" height="24.317" rx="12.159" fill="#E9EEF4"/><path d="M206.322 143.365a3.16 3.16 0 100-6.318 3.16 3.16 0 000 6.318z" fill="#45DABE"/><path d="M208.391 140.394a3.16 3.16 0 10-.881 1.628" stroke="#24303E" stroke-width=".588" stroke-linecap="round" stroke-linejoin="round"/><path d="M208.564 134.023h-6.544a.661.661 0 00-.661.662v.002c0 .366.296.662.661.662h6.544a.661.661 0 00.661-.662v-.002a.661.661 0 00-.661-.662z" fill="#FA5959"/><path d="M199.963 132.102v.038s.944.758 2.724.758a5.285 5.285 0 002.007-.385c.253-.092.494-.218.714-.373v-.038m.009 0v.038s.952.743 2.715.743a5.274 5.274 0 002.01-.37c.256-.091.498-.217.72-.373v-.038m-5.477 14.268s-.508-1.469-3.42-2.039c-1.787-.355-3.567-2.694-2.04-5.968 1.528-3.273-.728-5.242-.728-5.242m6.261 13.249s.509-1.469 3.42-2.039c1.787-.355 3.568-2.694 2.04-5.968-1.528-3.273.74-5.242.74-5.242" stroke="#24303E" stroke-width=".588" stroke-linecap="round" stroke-linejoin="round"/><path d="M224.431 142.485c1.893 0 2.955-1.105 3.283-2.659l-1.401-.284c-.197 1.094-.875 1.762-1.871 1.762-1.422 0-2.188-1.215-2.188-2.911 0-1.74.787-2.889 2.155-2.889 1.073 0 1.718.7 1.85 1.805l1.444-.207c-.208-1.653-1.313-2.758-3.25-2.758-2.331 0-3.655 1.641-3.655 4.06 0 2.352 1.193 4.081 3.633 4.081zm5.942-8.119h-1.313v7.933h1.313v-7.933zm6.446 4.924c0-1.674-.908-2.593-2.495-2.593-1.63 0-2.615 1.116-2.615 2.921 0 1.795 1.007 2.813 2.681 2.813 1.116 0 1.98-.526 2.385-1.478l-1.006-.459c-.252.591-.712.908-1.335.908-.865 0-1.445-.591-1.456-1.51h3.841v-.602zm-1.291-.263h-2.55c.022-.908.493-1.455 1.324-1.455.777 0 1.226.471 1.226 1.368v.087zm4.047 3.404c.875 0 1.564-.405 1.827-1.073.011.339.044.668.087.941h1.314c-.11-.383-.165-.952-.165-1.696v-1.63c0-1.587-.722-2.276-2.341-2.276-1.412 0-2.331.722-2.419 1.893h1.346c.044-.624.427-.963 1.073-.963.7 0 1.017.35 1.017 1.171v.142l-1.16.142c-.864.121-1.389.263-1.783.493-.438.273-.668.711-.668 1.236 0 .974.744 1.62 1.872 1.62zm.415-.931c-.58 0-.93-.295-.93-.755 0-.47.328-.733 1.051-.853l1.236-.186v.35c0 .865-.547 1.444-1.357 1.444zm5.49-3.348v-1.324h-1.225v5.471h1.313v-2.298c0-.602.054-1.225.492-1.652.252-.241.613-.394 1.138-.394.066 0 .121.011.175.011v-1.258c-.054-.011-.098-.011-.153-.011-.886 0-1.466.591-1.74 1.455z" fill="#24303E"/><rect x="97.263" y="196.77" width="81.463" height="24.317" rx="12.159" fill="#E9EEF4"/><path d="M122.728 209.18a.261.261 0 00.286.006.256.256 0 00.1-.111.257.257 0 00.024-.147c-.489-2.432-3.732-4.334-7.657-4.334-3.924 0-7.152 1.866-7.653 4.304a.267.267 0 00.118.28.268.268 0 00.304-.007 3.86 3.86 0 012.107-.751c.978 0 1.823.238 2.261.584a.476.476 0 00.608 0c.432-.346 1.283-.584 2.265-.584.981 0 1.823.238 2.261.584a.476.476 0 00.608 0c.432-.346 1.283-.584 2.265-.584a3.841 3.841 0 012.103.76z" fill="#45DABE"/><path d="M117.442 208.646c0-.608 1.146-1.101 2.563-1.101 1.416 0 2.562.493 2.562 1.101m-10.253 0c0-.608 1.146-1.101 2.563-1.101 1.416 0 2.565.493 2.565 1.101m-10.255 0c0-.608 1.149-1.101 2.562-1.101 1.413 0 2.565.493 2.565 1.101" stroke="#24303E" stroke-width=".608" stroke-linecap="round" stroke-linejoin="round"/><path d="M107.153 208.685c0-2.736 3.456-4.982 7.721-4.982 4.264 0 7.72 2.231 7.72 4.982m-7.72-5.195v-1.24" stroke="#24303E" stroke-width=".608" stroke-linecap="round" stroke-linejoin="round"/><path d="M114.892 209.378v5.262s.034 1.14-1.073 1.216c-1.27.073-1.216-1.216-1.216-1.216" stroke="#FA5959" stroke-width=".608" stroke-linecap="round" stroke-linejoin="round"/><path d="M121.683 203.058v.912m-1.922-2.982v.909m-2.222-.051v.909m-9.401.303v.912m1.921-2.881v.909m2.225-.152v.909" stroke="#45DABE" stroke-width=".608" stroke-linecap="round" stroke-linejoin="round"/><path d="M132.912 204.864h-3.075v7.769h1.412v-3.009h1.652c1.675 0 2.725-.93 2.725-2.397 0-1.433-1.061-2.363-2.714-2.363zm-.262 3.687h-1.401v-2.604h1.401c.919 0 1.488.503 1.488 1.302 0 .81-.569 1.302-1.488 1.302zm5.261-.065v-1.324h-1.226v5.471h1.313v-2.298c0-.602.055-1.226.493-1.652.252-.241.613-.394 1.138-.394.066 0 .12.011.175.011v-1.259c-.055-.011-.098-.011-.153-.011-.887 0-1.467.591-1.74 1.456zm5.142 4.278c1.576 0 2.681-1.039 2.681-2.878 0-1.827-1.105-2.856-2.681-2.856s-2.681 1.029-2.681 2.856c0 1.839 1.105 2.878 2.681 2.878zm0-.995c-.843 0-1.346-.635-1.346-1.883 0-1.247.503-1.86 1.346-1.86.843 0 1.335.613 1.335 1.86 0 1.248-.492 1.883-1.335 1.883zm3.2-3.655h.985v2.823c0 1.105.438 1.795 1.751 1.795.339 0 .58-.033.897-.099v-1.105c-.175.033-.317.065-.536.065-.547 0-.799-.284-.799-.864v-2.615h1.335v-.952h-1.335v-1.904l-1.313.525v1.379h-.985v.952zm9.435 1.51c0-1.674-.909-2.594-2.495-2.594-1.631 0-2.616 1.117-2.616 2.922 0 1.795 1.007 2.812 2.681 2.812 1.117 0 1.981-.525 2.386-1.477l-1.007-.459c-.252.59-.711.908-1.335.908-.864 0-1.444-.591-1.455-1.51h3.841v-.602zm-1.292-.263h-2.549c.022-.908.492-1.455 1.324-1.455.777 0 1.225.47 1.225 1.368v.087zm4.889 3.403c1.303 0 2.222-.744 2.419-1.958l-1.237-.252c-.12.766-.525 1.171-1.182 1.171-.842 0-1.335-.679-1.335-1.86 0-1.128.504-1.806 1.314-1.806.645 0 1.072.405 1.159 1.149l1.281-.208c-.164-1.247-1.051-1.97-2.408-1.97-1.663 0-2.692 1.084-2.692 2.867 0 1.74 1.051 2.867 2.681 2.867zm2.912-4.65h.985v2.823c0 1.105.438 1.795 1.751 1.795.339 0 .58-.033.897-.099v-1.105c-.175.033-.317.065-.536.065-.547 0-.799-.284-.799-.864v-2.615h1.335v-.952h-1.335v-1.904l-1.313.525v1.379h-.985v.952z" fill="#24303E"/><rect x="11.465" y="125.524" width="72.344" height="24.317" rx="12.159" fill="#E9EEF4"/><path d="M30.72 135.319c.895 0 1.62-.695 1.62-1.552 0-.857-.726-1.552-1.62-1.552-.896 0-1.621.695-1.621 1.552 0 .857.725 1.552 1.62 1.552z" fill="#45DABE"/><path d="M23.508 132.055v3.832H36.49v-5.509H23.508" stroke="#27303D" stroke-width=".628" stroke-linecap="round" stroke-linejoin="round"/><path d="M29.966 134.781c.937 0 1.696-.739 1.696-1.652 0-.912-.76-1.652-1.696-1.652-.937 0-1.696.74-1.696 1.652 0 .913.76 1.652 1.696 1.652zm4.438.871a1.678 1.678 0 011.696-1.653m-12.482.016a1.679 1.679 0 011.727 1.621m-.031-5.211a1.674 1.674 0 01-1.696 1.649m12.488-.016a1.673 1.673 0 01-1.727-1.617" stroke="#27303D" stroke-width=".628" stroke-linecap="round" stroke-linejoin="round"/><path d="M29.793 141.415H27.82v4.171h1.973v-4.171z" fill="#FA5959"/><path d="M25.468 139.531h-1.972v5.361h1.972v-5.361zm3.697 1.19h-1.973v4.171h1.973v-4.171zm3.618-3.153H30.81v7.324h1.973v-7.324zm3.615.97h-1.972v6.354h1.972v-6.354z" stroke="#27303D" stroke-width=".628" stroke-linecap="round" stroke-linejoin="round"/><path d="M49.576 141.574c1.16 0 2.035-.547 2.396-1.379l.12 1.193H53.1v-4.18h-3.382v1.083h2.101v.142c0 .712-.405 2.003-1.98 2.003-1.5 0-2.244-1.226-2.244-2.933 0-1.772.81-2.954 2.233-2.954 1.192 0 1.663.799 1.783 1.488l1.401-.241c-.186-1.061-1.061-2.363-3.162-2.363-2.331 0-3.699 1.674-3.699 4.081 0 2.397 1.28 4.06 3.425 4.06zm6.307-4.333v-1.324h-1.226v5.471h1.314v-2.298c0-.602.054-1.226.492-1.652.252-.241.613-.394 1.138-.394.066 0 .12.011.175.011v-1.259c-.055-.011-.099-.011-.153-.011-.887 0-1.466.591-1.74 1.456zm5.142 4.278c1.576 0 2.68-1.039 2.68-2.878 0-1.827-1.104-2.856-2.68-2.856s-2.681 1.029-2.681 2.856c0 1.839 1.105 2.878 2.681 2.878zm0-.996c-.843 0-1.346-.634-1.346-1.882 0-1.247.503-1.86 1.346-1.86.843 0 1.335.613 1.335 1.86 0 1.248-.492 1.882-1.335 1.882zm4.723.865h1.335l.93-3.546c.044-.164.099-.459.12-.601h.023c.01.142.076.437.11.601l.93 3.546h1.334l1.51-5.471h-1.29l-.854 3.644a21.81 21.81 0 00-.099.59h-.022c-.022-.208-.076-.415-.11-.59l-.907-3.644H67.52l-.897 3.644a6.989 6.989 0 00-.12.59h-.023c-.021-.208-.065-.415-.098-.59l-.843-3.644h-1.29l1.498 5.471z" fill="#24303E"/><rect x="102.731" y="50.56" width="69.912" height="24.317" rx="12.159" fill="#E9EEF4"/><g clip-path="url(#mobile-loopclip0_783_33467)"><path d="M115.856 58.456l-1.443-3.165h1.893l2.327 2.37h9.975c.356-.002.71.03 1.059.095.793.14 1.509.54 2.025 1.128.547.571.341 1.046-1.269 1.046h-9.172l-5.395-1.474z" fill="#00DEBD"/><path d="M121.476 59.813l-2.316 1.606h2.254l3.203-1.606" fill="#00DEBD"/><path d="M114.467 68.553h17.461l-.065 1.49-1.048.294-.826.416h-13.881l-1.641-2.2z" fill="#FF4751"/><path d="M115.468 69.029v-2.414h12.644v2.33" fill="#FF4751"/><path d="M119.661 59.157l-4.069-1.069m10.139 1.142h3.552c1.606 0 1.816-.475 1.265-1.05a3.47 3.47 0 00-2.021-1.124 5.367 5.367 0 00-1.059-.1H117.5l-2.327-2.369h-1.885l1.443 2.668" stroke="#24303E" stroke-width=".842" stroke-linecap="round" stroke-linejoin="round"/><path d="M120.351 58.681l-2.319 1.607h2.257l3.204-1.607m-.264 1.309h1.326v-.77m-9.2 10.94l-1.64-2.2h17.461l-.066 1.857-1.047.295-.699.347m-14.649-2.915v-1.666h12.644v1.603" stroke="#24303E" stroke-width=".842" stroke-linecap="round" stroke-linejoin="round"/><path d="M127.359 67.603v-2.675h3.068v2.734m.877-2.797h-4.697m2.443-1.069h1.315m-14.839 6.36c.993 0 .993.369 1.986.369s.993-.369 1.986-.369.989.369 1.982.369.993-.369 1.985-.369c.993 0 .993.369 1.986.369s.993-.369 1.986-.369.997.369 1.99.369" stroke="#24303E" stroke-width=".842" stroke-linecap="round" stroke-linejoin="round"/></g><path d="M143.484 66.61c1.981 0 2.987-1.05 2.987-2.386 0-1.379-.853-1.97-2.133-2.243l-1.128-.24c-.853-.187-1.203-.515-1.203-1.15 0-.657.569-1.05 1.411-1.05 1.029 0 1.675.514 1.926 1.411l1.127-.59c-.339-1.292-1.51-1.894-2.987-1.894-1.751 0-2.845.887-2.845 2.232 0 1.325.81 1.981 2.035 2.233l1.084.23c.853.175 1.313.437 1.313 1.192 0 .81-.744 1.127-1.543 1.127-1.204 0-1.839-.7-2.101-1.575l-1.204.525c.317 1.27 1.423 2.178 3.261 2.178zm4.28-.186h1.313v-2.9c0-1.05.449-1.653 1.237-1.653.667 0 1.017.427 1.017 1.259v3.294h1.314V63.02c0-1.444-.624-2.2-1.806-2.2-.832 0-1.433.384-1.762 1.139V58.49h-1.313v7.934zm6.42-6.38h1.422v-1.368h-1.422v1.368zm.065 6.38h1.314v-5.472h-1.314v5.472zm3.057 2.133h1.313v-2.921c.295.536.842.919 1.619.919 1.346 0 2.265-1.116 2.265-2.878 0-1.729-.886-2.856-2.199-2.856-.777 0-1.412.372-1.751 1.083v-.952h-1.247v7.605zm2.549-3.009c-.777 0-1.269-.667-1.269-1.718v-.273c0-1.106.492-1.73 1.28-1.73.799 0 1.27.68 1.27 1.85s-.493 1.871-1.281 1.871z" fill="#24303E"/></symbol><symbol id="play-icon-filled" viewBox="0 0 92 92"><circle cx="46" cy="46" r="46" fill="#fff"/><path d="M66 44.268c1.333.77 1.333 2.694 0 3.464L37.5 64.186c-1.333.77-3-.192-3-1.732V29.546c0-1.54 1.667-2.501 3-1.732L66 44.269z" fill="currentColor"/></symbol><symbol id="quote-icon" viewBox="0 0 53 40"><path d="M18.952 0C5.472 2.301.54 10.301.54 19.616V40h23.233V18.52h-10.96v-.438c0-4.822 2.193-7.562 9.425-9.096L18.952 0zm29.04 0c-13.479 2.301-18.41 10.301-18.41 19.616V40h23.233V18.52h-10.96v-.438c0-4.822 2.302-7.562 9.426-9.096L47.993 0z" fill="currentColor"/></symbol><symbol id="round-dots" viewBox="0 0 180.99 185.68"><path fill="currentColor" d="M175.34 0a5.65 5.65 0 11-5.65 5.65A5.65 5.65 0 01175.34 0m-24.61.37a5.28 5.28 0 11-5.28 5.28 5.28 5.28 0 015.28-5.28m-24.61.37a4.91 4.91 0 11-4.91 4.9 4.9 4.9 0 014.91-4.9m-24.62.37A4.53 4.53 0 1197 5.65a4.53 4.53 0 014.54-4.54m-24.65.37a4.16 4.16 0 11-4.17 4.16 4.16 4.16 0 014.17-4.16m-24.61.37a3.79 3.79 0 11-3.8 3.79 3.79 3.79 0 013.8-3.79m-24.61.37a3.42 3.42 0 11-3.42 3.42 3.42 3.42 0 013.42-3.42m-24.62.37A3.05 3.05 0 110 5.65a3.05 3.05 0 013.05-3.06m172.29 22.32a5.65 5.65 0 11-5.65 5.65 5.65 5.65 0 015.65-5.65m-24.61.37a5.28 5.28 0 11-5.28 5.28 5.28 5.28 0 015.28-5.28m-24.61.37a4.91 4.91 0 11-4.91 4.9 4.9 4.9 0 014.91-4.9M101.5 26a4.53 4.53 0 11-4.5 4.56 4.53 4.53 0 014.5-4.56m-24.61.39a4.16 4.16 0 11-4.17 4.16 4.16 4.16 0 014.17-4.16m-24.61.37a3.79 3.79 0 11-3.8 3.79 3.79 3.79 0 013.8-3.79m-24.61.37a3.42 3.42 0 11-3.42 3.42 3.42 3.42 0 013.42-3.42m-24.62.38A3.05 3.05 0 110 30.56a3.05 3.05 0 013.05-3.05m172.29 22.31a5.65 5.65 0 11-5.65 5.65 5.65 5.65 0 015.65-5.65m-24.61.37a5.28 5.28 0 11-5.28 5.28 5.28 5.28 0 015.28-5.28m-24.61.38a4.91 4.91 0 11-4.91 4.9 4.9 4.9 0 014.91-4.9m-24.62.37a4.54 4.54 0 11-4.5 4.53 4.53 4.53 0 014.54-4.54m-24.65.38a4.17 4.17 0 11-4.17 4.16 4.16 4.16 0 014.17-4.16m-24.61.37a3.79 3.79 0 11-3.8 3.79 3.79 3.79 0 013.8-3.79M27.67 52a3.42 3.42 0 11-3.42 3.42A3.42 3.42 0 0127.67 52m-24.62.42A3.05 3.05 0 110 55.47a3.05 3.05 0 013.05-3.05m172.29 22.32a5.65 5.65 0 11-5.65 5.65 5.65 5.65 0 015.65-5.65m-24.61.37a5.28 5.28 0 11-5.28 5.28 5.28 5.28 0 015.28-5.28m-24.61.37a4.91 4.91 0 11-4.91 4.9 4.9 4.9 0 014.91-4.9m-24.62.37a4.54 4.54 0 11-4.5 4.53 4.53 4.53 0 014.54-4.54m-24.65.38a4.17 4.17 0 11-4.17 4.17 4.16 4.16 0 014.17-4.17m-24.61.37a3.79 3.79 0 11-3.8 3.79 3.79 3.79 0 013.8-3.79M27.67 77a3.42 3.42 0 11-3.42 3.42A3.42 3.42 0 0127.67 77m-24.62.33A3.05 3.05 0 110 80.38a3.05 3.05 0 013.05-3.05m172.29 22.32a5.65 5.65 0 11-5.65 5.65 5.65 5.65 0 015.65-5.65m-24.61.35a5.28 5.28 0 11-5.28 5.28 5.28 5.28 0 015.28-5.28m-24.61.39a4.91 4.91 0 11-4.91 4.9 4.9 4.9 0 014.91-4.9m-24.62.37a4.53 4.53 0 11-4.5 4.53 4.53 4.53 0 014.54-4.54m-24.65.38a4.17 4.17 0 11-4.17 4.16 4.16 4.16 0 014.17-4.16m-24.61.37a3.79 3.79 0 11-3.8 3.79 3.79 3.79 0 013.8-3.79m-21.19 3.8a3.42 3.42 0 11-3.42-3.42 3.42 3.42 0 013.42 3.42zm-28.04-3.06A3.05 3.05 0 110 105.3a3.05 3.05 0 013.05-3.05m172.29 22.31a5.65 5.65 0 11-5.65 5.65 5.64 5.64 0 015.65-5.65m-24.61.37a5.28 5.28 0 11-5.28 5.28 5.28 5.28 0 015.28-5.28m-24.61.37a4.91 4.91 0 11-4.91 4.9 4.9 4.9 0 014.91-4.9m-24.62.37a4.54 4.54 0 11-4.5 4.54 4.53 4.53 0 014.54-4.54m-24.65.33a4.17 4.17 0 11-4.17 4.17 4.16 4.16 0 014.17-4.17m-24.61.41a3.79 3.79 0 11-3.8 3.79 3.79 3.79 0 013.8-3.79m-24.61.37a3.42 3.42 0 11-3.42 3.42 3.42 3.42 0 013.42-3.42m-24.62.37A3.05 3.05 0 110 130.21a3.05 3.05 0 013.05-3.05m172.29 22.31a5.65 5.65 0 11-5.65 5.65 5.64 5.64 0 015.65-5.65m-24.61.37a5.28 5.28 0 11-5.28 5.28 5.28 5.28 0 015.28-5.28m-24.61.37a4.91 4.91 0 11-4.91 4.91 4.91 4.91 0 014.91-4.91m-24.62.37a4.53 4.53 0 11-4.5 4.54 4.53 4.53 0 014.54-4.54m-24.65.42a4.17 4.17 0 11-4.17 4.17 4.16 4.16 0 014.17-4.17m-24.61.33a3.79 3.79 0 11-3.8 3.79 3.79 3.79 0 013.8-3.79m-24.61.37a3.42 3.42 0 11-3.42 3.42 3.42 3.42 0 013.42-3.42m-24.62.37A3.05 3.05 0 110 155.12a3.05 3.05 0 013.05-3.05m172.29 22.31a5.65 5.65 0 11-5.65 5.65 5.64 5.64 0 015.65-5.65m-24.61.37a5.28 5.28 0 11-5.28 5.28 5.28 5.28 0 015.28-5.28m-24.61.37a4.91 4.91 0 11-4.91 4.91 4.91 4.91 0 014.91-4.91m-24.62.38A4.53 4.53 0 1197 180a4.53 4.53 0 014.54-4.53m-24.65.4a4.16 4.16 0 11-4.16 4.13 4.16 4.16 0 014.17-4.17m-25.08-.98a3.79 3.79 0 11-3.82 3.8 3.79 3.79 0 013.79-3.79m-24.12 1.75a3.42 3.42 0 11-3.43 3.39 3.42 3.42 0 013.42-3.42M3.05 177A3.05 3.05 0 110 180a3.05 3.05 0 013.05-3"/></symbol><symbol id="search" viewBox="0 0 24 24"><path fill="currentColor" d="M23.486 20.925l-.544-.542-4.51-4.51-.252-.251a8.553 8.553 0 10-2.563 2.561l.252.252 4.51 4.51.544.543a.365.365 0 00.513 0l.543-.543.963-.963.544-.544a.363.363 0 000-.512zM4.905 11.013a6.099 6.099 0 1112.197-.01 6.099 6.099 0 01-12.197.01z"/></symbol><symbol id="square-dots" viewBox="0 0 180.98 182.09"><path fill="currentColor" d="M180.99 0h-11.3v11.29h11.3V0zM156 .37h-10.55v10.55H156V.37zm-24.98.37h-9.81v9.81h9.81V.74zm-24.98.37h-9.07v9.07h9.07V1.11zm-24.98.37h-8.34v8.33h8.34V1.48zm-24.99.37h-7.59v7.59h7.59V1.85zm-24.98.37h-6.85v6.85h6.85V2.22zm-24.98.37H0V8.7h6.11V2.59zM180.99 24.4h-11.3v11.29h11.3V24.4zm-24.99.37h-10.55v10.55H156V24.77zm-24.98.37h-9.81v9.81h9.81v-9.81zm-24.98.37h-9.07v9.07h9.07v-9.07zm-24.98.37h-8.34v8.33h8.34v-8.33zm-24.99.37h-7.59v7.59h7.59v-7.59zm-24.98.37h-6.85v6.85h6.85v-6.85zm-24.98.37H0v6.11h6.11v-6.11zM180.99 48.8h-11.3v11.29h11.3V48.8zm-24.99.37h-10.55v10.55H156V49.17zm-24.98.37h-9.81v9.81h9.81v-9.81zm-24.98.37h-9.07v9.07h9.07v-9.07zm-24.98.37h-8.34v8.33h8.34v-8.33zm-24.99.37h-7.59v7.59h7.59v-7.59zm-24.98.37h-6.85v6.85h6.85v-6.85zm-24.98.37H0v6.11h6.11v-6.11zM180.99 73.2h-11.3v11.29h11.3V73.2zm-24.99.37h-10.55v10.55H156V73.57zm-24.98.37h-9.81v9.81h9.81v-9.81zm-24.98.37h-9.07v9.07h9.07v-9.07zm-24.98.37h-8.34v8.33h8.34v-8.33zm-24.99.37h-7.59v7.59h7.59v-7.59zm-24.98.37h-6.85v6.85h6.85v-6.85zm-24.98.37H0v6.11h6.11v-6.11zM180.99 97.6h-11.3v11.29h11.3V97.6zm-24.99.37h-10.55v10.55H156V97.97zm-24.98.37h-9.81v9.81h9.81v-9.81zm-24.98.37h-9.07v9.07h9.07v-9.07zm-24.98.37h-8.34v8.33h8.34v-8.33zm-24.99.37h-7.59v7.59h7.59v-7.59zm-24.98.37h-6.85v6.85h6.85v-6.85zm-24.98.37H0v6.11h6.11v-6.11zM180.99 122h-11.3v11.29h11.3V122zm-24.99.37h-10.55v10.55H156v-10.55zm-24.98.37h-9.81v9.81h9.81v-9.81zm-24.98.37h-9.07v9.07h9.07v-9.07zm-24.98.37h-8.34v8.33h8.34v-8.33zm-24.99.37h-7.59v7.59h7.59v-7.59zm-24.98.37h-6.85v6.85h6.85v-6.85zm-24.98.37H0v6.11h6.11v-6.11zm174.88 21.81h-11.3v11.29h11.3V146.4zm-24.99.37h-10.55v10.55H156v-10.55zm-24.98.37h-9.81v9.81h9.81v-9.81zm-24.98.37h-9.07v9.07h9.07v-9.07zm-24.98.37h-8.34v8.33h8.34v-8.33zm-24.99.37h-7.59v7.59h7.59v-7.59zm-24.98.37h-6.85v6.85h6.85v-6.85zm-24.98.37H0v6.11h6.11v-6.11zm174.88 21.81h-11.3v11.29h11.3V170.8zm-24.99.37h-10.55v10.55H156v-10.55zm-24.98.37h-9.81v9.81h9.81v-9.81zm-24.98.37h-9.07v9.07h9.07v-9.07zm-24.98.37h-8.34v8.33h8.34v-8.33zm-24.99.37h-7.59v7.59h7.59v-7.59zm-24.98.37h-6.85v6.85h6.85v-6.85zm-24.98.37H0v6.11h6.11v-6.11z"/></symbol><symbol id="twitter-no-fill" viewBox="0 0 26 26"><path d="M19.153 9.184c-.452.2-.94.336-1.45.398a2.533 2.533 0 001.11-1.397c-.488.29-1.028.5-1.604.612a2.525 2.525 0 00-4.302 2.303 7.168 7.168 0 01-5.204-2.638 2.523 2.523 0 00.781 3.37c-.4-.012-.793-.12-1.143-.315v.032c0 1.223.87 2.243 2.025 2.475a2.52 2.52 0 01-1.14.043 2.53 2.53 0 002.359 1.753 5.072 5.072 0 01-3.74 1.045A7.146 7.146 0 0010.718 18c4.642 0 7.182-3.847 7.182-7.183 0-.11-.003-.218-.008-.326a5.12 5.12 0 001.261-1.307z" fill="currentColor"/></symbol><symbol id="twitter" viewBox="0 0 26 26"><path fill="currentColor" d="M19.8 6.1c-.7-.8-1.8-1.3-3-1.3-2.2 0-4.1 1.9-4.1 4.2 0 .3 0 .6.1.9C9.5 9.7 6.5 8 4.5 5.5c-.4.6-.6 1.3-.6 2.1 0 1.4.7 2.7 1.8 3.5-.7 0-1.3-.2-1.8-.5v.1c0 2 1.4 3.7 3.3 4.1-.3.1-.7.1-1.1.1-.3 0-.5 0-.8-.1.5 1.7 2 2.9 3.8 2.9-1.4 1.1-3.1 1.8-5 1.8-.3 0-.7 0-1-.1 1.8 1.2 3.9 1.9 6.2 1.9 7.5 0 11.6-6.3 11.6-11.9v-.5c.8-.6 1.5-1.3 2-2.2-.7.3-1.5.6-2.3.7.8-.5 1.5-1.3 1.8-2.3-.8.4-1.7.8-2.6 1z"/></symbol></defs><view id="view-account" viewBox="0 0 50 50"></view><view id="view-arrow-left" viewBox="50 0 50 50"></view><view id="view-arrow" viewBox="100 0 50 50"></view><view id="view-card-carousel-arrow" viewBox="150 0 50 50"></view><view id="view-check" viewBox="200 0 50 50"></view><view id="view-chevron-arrow" viewBox="250 0 50 50"></view><view id="view-chevron-right" viewBox="300 0 50 50"></view><view id="view-chilled" viewBox="350 0 50 50"></view><view id="view-close" viewBox="400 0 50 50"></view><view id="view-default-video-player-icon" viewBox="450 0 50 50"></view><view id="view-dot-pattern-indigo" viewBox="500 0 63.79 50"></view><view id="view-facebook-no-fill" viewBox="600 0 50 50"></view><view id="view-facebook" viewBox="650 0 50 50"></view><view id="view-flexport-cn-light" viewBox="700 0 123.41 50"></view><view id="view-flexport-light" viewBox="850 0 214.84 50"></view><view id="view-form-error" viewBox="0 50 50 50"></view><view id="view-form-submit-success" viewBox="50 50 50 50"></view><view id="view-get-started-dark" viewBox="100 50 72.83 50"></view><view id="view-get-started-light" viewBox="200 50 72.83 50"></view><view id="view-get-started-small" viewBox="300 50 64.29 50"></view><view id="view-glassdoor" viewBox="400 50 50 50"></view><view id="view-help-circle" viewBox="450 50 50 50"></view><view id="view-link" viewBox="500 50 50 50"></view><view id="view-linkedin-no-fill" viewBox="550 50 50 50"></view><view id="view-linkedin" viewBox="600 50 50 50"></view><view id="view-loading" viewBox="650 50 50 50"></view><view id="view-loop" viewBox="700 50 50 50"></view><view id="view-mail" viewBox="750 50 50 50"></view><view id="view-mapbox-flexport-office-marker" viewBox="800 50 50 50"></view><view id="view-mobile-loop" viewBox="850 50 50 50"></view><view id="view-play-icon-filled" viewBox="900 50 50 50"></view><view id="view-quote-icon" viewBox="950 50 66.25 50"></view><view id="view-round-dots" viewBox="0 100 48.74 50"></view><view id="view-search" viewBox="50 100 50 50"></view><view id="view-square-dots" viewBox="100 100 49.7 50"></view><view id="view-twitter-no-fill" viewBox="150 100 50 50"></view><view id="view-twitter" viewBox="200 100 50 50"></view><use id="account" xlink:href="#account" width="50" height="50" x="0" y="0"></use><use id="arrow-left" xlink:href="#arrow-left" width="50" height="50" x="50" y="0"></use><use id="arrow" xlink:href="#arrow" width="50" height="50" x="100" y="0"></use><use id="card-carousel-arrow" xlink:href="#card-carousel-arrow" width="50" height="50" x="150" y="0"></use><use id="check" xlink:href="#check" width="50" height="50" x="200" y="0"></use><use id="chevron-arrow" xlink:href="#chevron-arrow" width="50" height="50" x="250" y="0"></use><use id="chevron-right" xlink:href="#chevron-right" width="50" height="50" x="300" y="0"></use><use id="chilled" xlink:href="#chilled" width="50" height="50" x="350" y="0"></use><use id="close" xlink:href="#close" width="50" height="50" x="400" y="0"></use><use id="default-video-player-icon" xlink:href="#default-video-player-icon" width="50" height="50" x="450" y="0"></use><use id="dot-pattern-indigo" xlink:href="#dot-pattern-indigo" width="63.79" height="50" x="500" y="0"></use><use id="facebook-no-fill" xlink:href="#facebook-no-fill" width="50" height="50" x="600" y="0"></use><use id="facebook" xlink:href="#facebook" width="50" height="50" x="650" y="0"></use><use id="flexport-cn-light" xlink:href="#flexport-cn-light" width="123.41" height="50" x="700" y="0"></use><use id="flexport-light" xlink:href="#flexport-light" width="214.84" height="50" x="850" y="0"></use><use id="form-error" xlink:href="#form-error" width="50" height="50" x="0" y="50"></use><use id="form-submit-success" xlink:href="#form-submit-success" width="50" height="50" x="50" y="50"></use><use id="get-started-dark" xlink:href="#get-started-dark" width="72.83" height="50" x="100" y="50"></use><use id="get-started-light" xlink:href="#get-started-light" width="72.83" height="50" x="200" y="50"></use><use id="get-started-small" xlink:href="#get-started-small" width="64.29" height="50" x="300" y="50"></use><use id="glassdoor" xlink:href="#glassdoor" width="50" height="50" x="400" y="50"></use><use id="help-circle" xlink:href="#help-circle" width="50" height="50" x="450" y="50"></use><use id="link" xlink:href="#link" width="50" height="50" x="500" y="50"></use><use id="linkedin-no-fill" xlink:href="#linkedin-no-fill" width="50" height="50" x="550" y="50"></use><use id="linkedin" xlink:href="#linkedin" width="50" height="50" x="600" y="50"></use><use id="loading" xlink:href="#loading" width="50" height="50" x="650" y="50"></use><use id="loop" xlink:href="#loop" width="50" height="50" x="700" y="50"></use><use id="mail" xlink:href="#mail" width="50" height="50" x="750" y="50"></use><use id="mapbox-flexport-office-marker" xlink:href="#mapbox-flexport-office-marker" width="50" height="50" x="800" y="50"></use><use id="mobile-loop" xlink:href="#mobile-loop" width="50" height="50" x="850" y="50"></use><use id="play-icon-filled" xlink:href="#play-icon-filled" width="50" height="50" x="900" y="50"></use><use id="quote-icon" xlink:href="#quote-icon" width="66.25" height="50" x="950" y="50"></use><use id="round-dots" xlink:href="#round-dots" width="48.74" height="50" x="0" y="100"></use><use id="search" xlink:href="#search" width="50" height="50" x="50" y="100"></use><use id="square-dots" xlink:href="#square-dots" width="49.7" height="50" x="100" y="100"></use><use id="twitter-no-fill" xlink:href="#twitter-no-fill" width="50" height="50" x="150" y="100"></use><use id="twitter" xlink:href="#twitter" width="50" height="50" x="200" y="100"></use></svg>